G04 #@! TF.FileFunction,Copper,L1,Top,Signal*
%FSLAX46Y46*%
G04 Gerber Fmt 4.6, Leading zero omitted, Abs format (unit mm)*
G04 Created by KiCad (PCBNEW 4.0.6-e0-6349~53~ubuntu14.04.1) date Thu Nov 23 15:23:52 2017*
%MOMM*%
%LPD*%
G01*
G04 APERTURE LIST*
%ADD10C,0.100000*%
%ADD11R,1.500000X1.250000*%
%ADD12R,1.727200X2.032000*%
%ADD13O,1.727200X2.032000*%
%ADD14R,1.250000X1.500000*%
%ADD15R,2.032000X1.727200*%
%ADD16O,2.032000X1.727200*%
%ADD17R,1.500000X2.400000*%
%ADD18R,1.500000X0.700000*%
%ADD19C,1.200000*%
%ADD20R,4.500000X4.850000*%
%ADD21R,1.600200X0.431800*%
%ADD22R,4.800600X5.892800*%
%ADD23R,2.000000X1.600000*%
%ADD24C,3.000000*%
%ADD25C,1.600000*%
%ADD26C,1.500000*%
%ADD27C,0.800000*%
%ADD28C,1.000000*%
%ADD29C,0.762000*%
%ADD30C,0.381000*%
%ADD31C,0.350000*%
%ADD32C,0.508000*%
%ADD33C,0.635000*%
%ADD34C,0.500000*%
G04 APERTURE END LIST*
D10*
X112808619Y-120084810D02*
X112732429Y-120122905D01*
X112580048Y-120122905D01*
X112503857Y-120084810D01*
X112465762Y-120046714D01*
X112427667Y-119970524D01*
X112427667Y-119741952D01*
X112465762Y-119665762D01*
X112503857Y-119627667D01*
X112580048Y-119589571D01*
X112732429Y-119589571D01*
X112808619Y-119627667D01*
X113265762Y-120122905D02*
X113189571Y-120084810D01*
X113151476Y-120046714D01*
X113113381Y-119970524D01*
X113113381Y-119741952D01*
X113151476Y-119665762D01*
X113189571Y-119627667D01*
X113265762Y-119589571D01*
X113380048Y-119589571D01*
X113456238Y-119627667D01*
X113494333Y-119665762D01*
X113532429Y-119741952D01*
X113532429Y-119970524D01*
X113494333Y-120046714D01*
X113456238Y-120084810D01*
X113380048Y-120122905D01*
X113265762Y-120122905D01*
X113875286Y-120122905D02*
X113875286Y-119589571D01*
X113875286Y-119741952D02*
X113913381Y-119665762D01*
X113951477Y-119627667D01*
X114027667Y-119589571D01*
X114103858Y-119589571D01*
X114370524Y-120122905D02*
X114370524Y-119589571D01*
X114370524Y-119741952D02*
X114408619Y-119665762D01*
X114446715Y-119627667D01*
X114522905Y-119589571D01*
X114599096Y-119589571D01*
X115170524Y-120084810D02*
X115094334Y-120122905D01*
X114941953Y-120122905D01*
X114865762Y-120084810D01*
X114827667Y-120008619D01*
X114827667Y-119703857D01*
X114865762Y-119627667D01*
X114941953Y-119589571D01*
X115094334Y-119589571D01*
X115170524Y-119627667D01*
X115208619Y-119703857D01*
X115208619Y-119780048D01*
X114827667Y-119856238D01*
X115665762Y-120122905D02*
X115589571Y-120084810D01*
X115551476Y-120046714D01*
X115513381Y-119970524D01*
X115513381Y-119741952D01*
X115551476Y-119665762D01*
X115589571Y-119627667D01*
X115665762Y-119589571D01*
X115780048Y-119589571D01*
X115856238Y-119627667D01*
X115894333Y-119665762D01*
X115932429Y-119741952D01*
X115932429Y-119970524D01*
X115894333Y-120046714D01*
X115856238Y-120084810D01*
X115780048Y-120122905D01*
X115665762Y-120122905D01*
X116770524Y-119741952D02*
X116732429Y-119703857D01*
X116656239Y-119665762D01*
X116580048Y-119665762D01*
X116503858Y-119703857D01*
X116465762Y-119741952D01*
X116427667Y-119818143D01*
X116427667Y-119894333D01*
X116465762Y-119970524D01*
X116503858Y-120008619D01*
X116580048Y-120046714D01*
X116656239Y-120046714D01*
X116732429Y-120008619D01*
X116770524Y-119970524D01*
X116770524Y-119665762D02*
X116770524Y-119970524D01*
X116808620Y-120008619D01*
X116846715Y-120008619D01*
X116922905Y-119970524D01*
X116961000Y-119894333D01*
X116961000Y-119703857D01*
X116884810Y-119589571D01*
X116770524Y-119513381D01*
X116618143Y-119475286D01*
X116465762Y-119513381D01*
X116351477Y-119589571D01*
X116275286Y-119703857D01*
X116237191Y-119856238D01*
X116275286Y-120008619D01*
X116351477Y-120122905D01*
X116465762Y-120199095D01*
X116618143Y-120237190D01*
X116770524Y-120199095D01*
X116884810Y-120122905D01*
X117532429Y-119322905D02*
X117532429Y-119894333D01*
X117494333Y-120008619D01*
X117418143Y-120084810D01*
X117303857Y-120122905D01*
X117227667Y-120122905D01*
X118027667Y-120122905D02*
X117951476Y-120084810D01*
X117913381Y-120046714D01*
X117875286Y-119970524D01*
X117875286Y-119741952D01*
X117913381Y-119665762D01*
X117951476Y-119627667D01*
X118027667Y-119589571D01*
X118141953Y-119589571D01*
X118218143Y-119627667D01*
X118256238Y-119665762D01*
X118294334Y-119741952D01*
X118294334Y-119970524D01*
X118256238Y-120046714D01*
X118218143Y-120084810D01*
X118141953Y-120122905D01*
X118027667Y-120122905D01*
X118599096Y-120084810D02*
X118675286Y-120122905D01*
X118827667Y-120122905D01*
X118903858Y-120084810D01*
X118941953Y-120008619D01*
X118941953Y-119970524D01*
X118903858Y-119894333D01*
X118827667Y-119856238D01*
X118713382Y-119856238D01*
X118637191Y-119818143D01*
X118599096Y-119741952D01*
X118599096Y-119703857D01*
X118637191Y-119627667D01*
X118713382Y-119589571D01*
X118827667Y-119589571D01*
X118903858Y-119627667D01*
X119589572Y-120084810D02*
X119513382Y-120122905D01*
X119361001Y-120122905D01*
X119284810Y-120084810D01*
X119246715Y-120008619D01*
X119246715Y-119703857D01*
X119284810Y-119627667D01*
X119361001Y-119589571D01*
X119513382Y-119589571D01*
X119589572Y-119627667D01*
X119627667Y-119703857D01*
X119627667Y-119780048D01*
X119246715Y-119856238D01*
X119932429Y-119894333D02*
X120313381Y-119894333D01*
X119856238Y-120122905D02*
X120122905Y-119322905D01*
X120389572Y-120122905D01*
X120656238Y-120122905D02*
X120656238Y-119589571D01*
X120656238Y-119741952D02*
X120694333Y-119665762D01*
X120732429Y-119627667D01*
X120808619Y-119589571D01*
X120884810Y-119589571D01*
X121151476Y-120122905D02*
X121151476Y-119589571D01*
X121151476Y-119322905D02*
X121113381Y-119361000D01*
X121151476Y-119399095D01*
X121189571Y-119361000D01*
X121151476Y-119322905D01*
X121151476Y-119399095D01*
X121875285Y-120122905D02*
X121875285Y-119703857D01*
X121837190Y-119627667D01*
X121761000Y-119589571D01*
X121608619Y-119589571D01*
X121532428Y-119627667D01*
X121875285Y-120084810D02*
X121799095Y-120122905D01*
X121608619Y-120122905D01*
X121532428Y-120084810D01*
X121494333Y-120008619D01*
X121494333Y-119932429D01*
X121532428Y-119856238D01*
X121608619Y-119818143D01*
X121799095Y-119818143D01*
X121875285Y-119780048D01*
X122218143Y-120084810D02*
X122294333Y-120122905D01*
X122446714Y-120122905D01*
X122522905Y-120084810D01*
X122561000Y-120008619D01*
X122561000Y-119970524D01*
X122522905Y-119894333D01*
X122446714Y-119856238D01*
X122332429Y-119856238D01*
X122256238Y-119818143D01*
X122218143Y-119741952D01*
X122218143Y-119703857D01*
X122256238Y-119627667D01*
X122332429Y-119589571D01*
X122446714Y-119589571D01*
X122522905Y-119627667D01*
X122903857Y-120046714D02*
X122941952Y-120084810D01*
X122903857Y-120122905D01*
X122865762Y-120084810D01*
X122903857Y-120046714D01*
X122903857Y-120122905D01*
X123627666Y-120084810D02*
X123551476Y-120122905D01*
X123399095Y-120122905D01*
X123322904Y-120084810D01*
X123284809Y-120046714D01*
X123246714Y-119970524D01*
X123246714Y-119741952D01*
X123284809Y-119665762D01*
X123322904Y-119627667D01*
X123399095Y-119589571D01*
X123551476Y-119589571D01*
X123627666Y-119627667D01*
X124084809Y-120122905D02*
X124008618Y-120084810D01*
X123970523Y-120046714D01*
X123932428Y-119970524D01*
X123932428Y-119741952D01*
X123970523Y-119665762D01*
X124008618Y-119627667D01*
X124084809Y-119589571D01*
X124199095Y-119589571D01*
X124275285Y-119627667D01*
X124313380Y-119665762D01*
X124351476Y-119741952D01*
X124351476Y-119970524D01*
X124313380Y-120046714D01*
X124275285Y-120084810D01*
X124199095Y-120122905D01*
X124084809Y-120122905D01*
X124694333Y-120122905D02*
X124694333Y-119589571D01*
X124694333Y-119665762D02*
X124732428Y-119627667D01*
X124808619Y-119589571D01*
X124922905Y-119589571D01*
X124999095Y-119627667D01*
X125037190Y-119703857D01*
X125037190Y-120122905D01*
X125037190Y-119703857D02*
X125075286Y-119627667D01*
X125151476Y-119589571D01*
X125265762Y-119589571D01*
X125341952Y-119627667D01*
X125380047Y-119703857D01*
X125380047Y-120122905D01*
X125761000Y-120046714D02*
X125799095Y-120084810D01*
X125761000Y-120122905D01*
X125722905Y-120084810D01*
X125761000Y-120046714D01*
X125761000Y-120122905D01*
X126065762Y-119589571D02*
X126256238Y-120122905D01*
X126446714Y-119589571D01*
X127056238Y-120084810D02*
X126980048Y-120122905D01*
X126827667Y-120122905D01*
X126751476Y-120084810D01*
X126713381Y-120008619D01*
X126713381Y-119703857D01*
X126751476Y-119627667D01*
X126827667Y-119589571D01*
X126980048Y-119589571D01*
X127056238Y-119627667D01*
X127094333Y-119703857D01*
X127094333Y-119780048D01*
X126713381Y-119856238D01*
D11*
X107803000Y-84328000D03*
X105303000Y-84328000D03*
X114447000Y-83693000D03*
X116947000Y-83693000D03*
X129647000Y-113919000D03*
X127147000Y-113919000D03*
D12*
X135001000Y-90297000D03*
D13*
X132461000Y-90297000D03*
X129921000Y-90297000D03*
X127381000Y-90297000D03*
X124841000Y-90297000D03*
X122301000Y-90297000D03*
X119761000Y-90297000D03*
X117221000Y-90297000D03*
X114681000Y-90297000D03*
D12*
X114681000Y-93853000D03*
D13*
X117221000Y-93853000D03*
X119761000Y-93853000D03*
X122301000Y-93853000D03*
X124841000Y-93853000D03*
X127381000Y-93853000D03*
X129921000Y-93853000D03*
X132461000Y-93853000D03*
X135001000Y-93853000D03*
D14*
X138557000Y-106025000D03*
X138557000Y-103525000D03*
D15*
X106299000Y-90805000D03*
D16*
X106299000Y-93345000D03*
X106299000Y-95885000D03*
X106299000Y-98425000D03*
X106299000Y-100965000D03*
X106299000Y-103505000D03*
X106299000Y-106045000D03*
X106299000Y-108585000D03*
X106299000Y-111125000D03*
D17*
X99187000Y-98933000D03*
D18*
X99187000Y-108423000D03*
X99187000Y-107153000D03*
X99187000Y-109693000D03*
X99187000Y-105883000D03*
X99187000Y-104613000D03*
X99187000Y-103343000D03*
X99187000Y-102073000D03*
X99187000Y-95863000D03*
X99187000Y-94863000D03*
X99187000Y-93863000D03*
X99187000Y-92863000D03*
X99187000Y-91863000D03*
X99187000Y-90863000D03*
D19*
X97987000Y-113813000D03*
X97987000Y-86813000D03*
D20*
X95387000Y-116663000D03*
X95387000Y-83963000D03*
D21*
X128778000Y-111683800D03*
X128778000Y-111023400D03*
X128778000Y-110388400D03*
X128778000Y-109728000D03*
X128778000Y-109093000D03*
X128778000Y-108432600D03*
X128778000Y-107772200D03*
X128778000Y-107137200D03*
X128778000Y-106476800D03*
X128778000Y-105841800D03*
X128778000Y-105181400D03*
X128778000Y-104521000D03*
X128778000Y-103886000D03*
X128778000Y-103225600D03*
X128778000Y-102590600D03*
X128778000Y-101930200D03*
X119380000Y-101930200D03*
X119380000Y-102590600D03*
X119380000Y-103225600D03*
X119380000Y-103886000D03*
X119380000Y-104521000D03*
X119380000Y-105181400D03*
X119380000Y-105841800D03*
X119380000Y-106476800D03*
X119380000Y-107137200D03*
X119380000Y-107772200D03*
X119380000Y-108432600D03*
X119380000Y-109093000D03*
X119380000Y-109728000D03*
X119380000Y-110388400D03*
X119380000Y-111023400D03*
X119380000Y-111683800D03*
D22*
X124079000Y-106807000D03*
D23*
X107664000Y-87249000D03*
X103664000Y-87249000D03*
X112681000Y-86233000D03*
X116681000Y-86233000D03*
D24*
X140716000Y-81788000D03*
X140716000Y-118872000D03*
D25*
X124206000Y-106934000D03*
D26*
X106299000Y-114046000D03*
X111887000Y-94361000D03*
X119761000Y-85090000D03*
X110363000Y-116840000D03*
X109474000Y-90678000D03*
D25*
X138557000Y-108458000D03*
D26*
X131318000Y-106934000D03*
D25*
X108204000Y-115316000D03*
D26*
X111887000Y-82931000D03*
X109474000Y-93218000D03*
X132461000Y-110363000D03*
D25*
X132461000Y-113792000D03*
X109474000Y-111125000D03*
D26*
X115570000Y-111252000D03*
X115570000Y-107188000D03*
D25*
X109474000Y-108585000D03*
X133223000Y-106172000D03*
X110236000Y-103505000D03*
X110363000Y-100965000D03*
X117094000Y-106045000D03*
D26*
X110998000Y-98679000D03*
D25*
X116205000Y-102489000D03*
D26*
X131953000Y-102870000D03*
D25*
X110490000Y-106045000D03*
D27*
X124206000Y-106934000D02*
X124079000Y-106807000D01*
D28*
X105303000Y-84328000D02*
X105303000Y-83165000D01*
X119761000Y-82677000D02*
X119761000Y-85090000D01*
X118364000Y-81280000D02*
X119761000Y-82677000D01*
X107188000Y-81280000D02*
X118364000Y-81280000D01*
X105303000Y-83165000D02*
X107188000Y-81280000D01*
X103664000Y-87249000D02*
X103664000Y-85967000D01*
X103664000Y-85967000D02*
X105303000Y-84328000D01*
D29*
X99187000Y-92863000D02*
X102388000Y-92863000D01*
X102388000Y-92863000D02*
X105410000Y-95885000D01*
X105410000Y-95885000D02*
X106299000Y-95885000D01*
D28*
X138557000Y-103525000D02*
X138557000Y-102108000D01*
X120015000Y-84836000D02*
X119761000Y-85090000D01*
X129159000Y-84836000D02*
X120015000Y-84836000D01*
X130175000Y-83820000D02*
X129159000Y-84836000D01*
X138557000Y-83820000D02*
X130175000Y-83820000D01*
X141986000Y-87249000D02*
X138557000Y-83820000D01*
X141986000Y-98679000D02*
X141986000Y-87249000D01*
X138557000Y-102108000D02*
X141986000Y-98679000D01*
X127147000Y-113919000D02*
X125857000Y-113919000D01*
X125857000Y-113919000D02*
X124079000Y-112141000D01*
X124079000Y-112141000D02*
X124079000Y-106807000D01*
D30*
X128778000Y-107772200D02*
X125044200Y-107772200D01*
X125044200Y-107772200D02*
X124079000Y-106807000D01*
X128778000Y-107137200D02*
X124409200Y-107137200D01*
X124409200Y-107137200D02*
X124079000Y-106807000D01*
X128778000Y-106476800D02*
X124409200Y-106476800D01*
X124409200Y-106476800D02*
X124079000Y-106807000D01*
X128778000Y-105841800D02*
X125044200Y-105841800D01*
X125044200Y-105841800D02*
X124079000Y-106807000D01*
X119380000Y-107772200D02*
X123113800Y-107772200D01*
X123113800Y-107772200D02*
X124079000Y-106807000D01*
X119380000Y-107137200D02*
X123748800Y-107137200D01*
X123748800Y-107137200D02*
X124079000Y-106807000D01*
X119380000Y-106476800D02*
X123748800Y-106476800D01*
X123748800Y-106476800D02*
X124079000Y-106807000D01*
D29*
X106426000Y-113919000D02*
X127147000Y-113919000D01*
X106299000Y-114046000D02*
X106426000Y-113919000D01*
D28*
X119761000Y-85090000D02*
X119761000Y-86233000D01*
X119761000Y-86233000D02*
X117221000Y-88773000D01*
X117221000Y-88773000D02*
X117221000Y-90297000D01*
X106299000Y-95885000D02*
X110363000Y-95885000D01*
X110363000Y-95885000D02*
X111887000Y-94361000D01*
X118163500Y-84909500D02*
X118004500Y-84909500D01*
X118004500Y-84909500D02*
X116681000Y-86233000D01*
X118217000Y-84963000D02*
X118163500Y-84909500D01*
X119761000Y-85090000D02*
X119634000Y-84963000D01*
X119634000Y-84963000D02*
X118217000Y-84963000D01*
X118163500Y-84909500D02*
X116947000Y-83693000D01*
D29*
X106299000Y-90805000D02*
X99245000Y-90805000D01*
X99245000Y-90805000D02*
X99187000Y-90863000D01*
D28*
X137541000Y-108458000D02*
X138557000Y-108458000D01*
X135636000Y-110363000D02*
X137541000Y-108458000D01*
X135636000Y-113411000D02*
X135636000Y-110363000D01*
X132207000Y-116840000D02*
X135636000Y-113411000D01*
X110363000Y-116840000D02*
X132207000Y-116840000D01*
X114300000Y-90678000D02*
X109474000Y-90678000D01*
X109347000Y-90805000D02*
X109474000Y-90678000D01*
X109347000Y-90805000D02*
X106299000Y-90805000D01*
X114300000Y-90678000D02*
X114681000Y-90297000D01*
X107664000Y-87249000D02*
X107664000Y-84467000D01*
X107664000Y-84467000D02*
X107803000Y-84328000D01*
X106299000Y-90805000D02*
X106426000Y-90805000D01*
X106426000Y-90805000D02*
X107664000Y-89567000D01*
X107664000Y-89567000D02*
X107664000Y-87249000D01*
D30*
X128778000Y-108432600D02*
X130454400Y-108432600D01*
D29*
X131318000Y-107569000D02*
X131318000Y-106934000D01*
D31*
X130454400Y-108432600D02*
X131318000Y-107569000D01*
D30*
X138557000Y-108458000D02*
X138557000Y-106025000D01*
D29*
X99187000Y-91863000D02*
X102912000Y-91863000D01*
X104394000Y-93345000D02*
X106299000Y-93345000D01*
X102912000Y-91863000D02*
X104394000Y-93345000D01*
D32*
X108204000Y-115316000D02*
X131572000Y-115316000D01*
X132461000Y-114427000D02*
X132461000Y-113792000D01*
X131572000Y-115316000D02*
X132461000Y-114427000D01*
D28*
X112649000Y-83693000D02*
X111887000Y-82931000D01*
X109347000Y-93345000D02*
X106299000Y-93345000D01*
X109347000Y-93345000D02*
X109474000Y-93218000D01*
X112649000Y-83693000D02*
X112649000Y-86201000D01*
X112649000Y-86201000D02*
X112681000Y-86233000D01*
X112649000Y-83693000D02*
X114447000Y-83693000D01*
D29*
X132435600Y-110388400D02*
X132461000Y-110363000D01*
D30*
X128778000Y-110388400D02*
X132435600Y-110388400D01*
D29*
X132334000Y-113919000D02*
X129647000Y-113919000D01*
X132461000Y-113792000D02*
X132334000Y-113919000D01*
D30*
X99187000Y-104613000D02*
X101565000Y-104613000D01*
X101565000Y-104613000D02*
X103886000Y-106934000D01*
X103886000Y-106934000D02*
X103886000Y-109982000D01*
X103886000Y-109982000D02*
X105029000Y-111125000D01*
X105029000Y-111125000D02*
X106299000Y-111125000D01*
D33*
X106299000Y-111125000D02*
X109474000Y-111125000D01*
D30*
X119380000Y-110388400D02*
X116433600Y-110388400D01*
X116433600Y-110388400D02*
X115570000Y-111252000D01*
X99187000Y-103343000D02*
X101311000Y-103343000D01*
X101311000Y-103343000D02*
X104648000Y-106680000D01*
X104648000Y-106680000D02*
X104648000Y-108204000D01*
X104648000Y-108204000D02*
X105029000Y-108585000D01*
X105029000Y-108585000D02*
X106299000Y-108585000D01*
X116687600Y-108432600D02*
X115570000Y-107315000D01*
X115570000Y-107315000D02*
X115570000Y-107188000D01*
X119380000Y-108432600D02*
X116687600Y-108432600D01*
D33*
X109474000Y-108585000D02*
X106299000Y-108585000D01*
D30*
X99187000Y-95863000D02*
X101578000Y-95863000D01*
X101578000Y-95863000D02*
X102870000Y-97155000D01*
X102870000Y-97155000D02*
X102870000Y-102743000D01*
X102870000Y-102743000D02*
X103632000Y-103505000D01*
X103632000Y-103505000D02*
X106299000Y-103505000D01*
X128778000Y-105181400D02*
X130454400Y-105181400D01*
X132715000Y-105664000D02*
X133223000Y-106172000D01*
X130937000Y-105664000D02*
X132715000Y-105664000D01*
X130454400Y-105181400D02*
X130937000Y-105664000D01*
D33*
X106299000Y-103505000D02*
X110236000Y-103505000D01*
D30*
X133223000Y-106172000D02*
X132842000Y-105791000D01*
X99187000Y-94863000D02*
X101721000Y-94863000D01*
X101721000Y-94863000D02*
X103632000Y-96774000D01*
X103632000Y-96774000D02*
X103632000Y-100076000D01*
X103632000Y-100076000D02*
X104521000Y-100965000D01*
X104521000Y-100965000D02*
X106299000Y-100965000D01*
D33*
X106299000Y-100965000D02*
X110363000Y-100965000D01*
D30*
X119380000Y-105181400D02*
X117957600Y-105181400D01*
X117957600Y-105181400D02*
X117094000Y-106045000D01*
X99187000Y-93863000D02*
X101610000Y-93863000D01*
X104775000Y-98425000D02*
X106299000Y-98425000D01*
X104267000Y-97917000D02*
X104775000Y-98425000D01*
X104267000Y-96520000D02*
X104267000Y-97917000D01*
X101610000Y-93863000D02*
X104267000Y-96520000D01*
D33*
X106553000Y-98679000D02*
X110998000Y-98679000D01*
D30*
X116941600Y-103225600D02*
X116205000Y-102489000D01*
X116941600Y-103225600D02*
X119380000Y-103225600D01*
X106553000Y-98679000D02*
X106299000Y-98425000D01*
X128778000Y-111683800D02*
X131114800Y-111683800D01*
D29*
X119761000Y-88519000D02*
X119761000Y-90297000D01*
X120015000Y-88265000D02*
X119761000Y-88519000D01*
X121285000Y-88265000D02*
X120015000Y-88265000D01*
D30*
X122501002Y-87048998D02*
X121285000Y-88265000D01*
X125803002Y-87048998D02*
X122501002Y-87048998D01*
X126946002Y-85905998D02*
X125803002Y-87048998D01*
X130556000Y-85905998D02*
X126946002Y-85905998D01*
X131625998Y-84836000D02*
X130556000Y-85905998D01*
X138049000Y-84836000D02*
X131625998Y-84836000D01*
X140970000Y-87757000D02*
X138049000Y-84836000D01*
X140970000Y-96774000D02*
X140970000Y-87757000D01*
X139573000Y-98171000D02*
X140970000Y-96774000D01*
X139573000Y-99187000D02*
X139573000Y-98171000D01*
X136364330Y-102395670D02*
X139573000Y-99187000D01*
X136364330Y-107729670D02*
X136364330Y-102395670D01*
X134366000Y-109728000D02*
X136364330Y-107729670D01*
X134366000Y-111125000D02*
X134366000Y-109728000D01*
X133223000Y-112268000D02*
X134366000Y-111125000D01*
X131699000Y-112268000D02*
X133223000Y-112268000D01*
X131114800Y-111683800D02*
X131699000Y-112268000D01*
X128778000Y-111023400D02*
X131470400Y-111023400D01*
X122301000Y-88138000D02*
X122301000Y-90297000D01*
X122809000Y-87630000D02*
X122301000Y-88138000D01*
X126111000Y-87630000D02*
X122809000Y-87630000D01*
X127254000Y-86487000D02*
X126111000Y-87630000D01*
X130931338Y-86487000D02*
X127254000Y-86487000D01*
X131947338Y-85471000D02*
X130931338Y-86487000D01*
X137795000Y-85471000D02*
X131947338Y-85471000D01*
X140335000Y-88011000D02*
X137795000Y-85471000D01*
X140335000Y-96520000D02*
X140335000Y-88011000D01*
X138938000Y-97917000D02*
X140335000Y-96520000D01*
X138938000Y-98933000D02*
X138938000Y-97917000D01*
X135763000Y-102108000D02*
X138938000Y-98933000D01*
X135763000Y-107442000D02*
X135763000Y-102108000D01*
X133731000Y-109474000D02*
X135763000Y-107442000D01*
X133731000Y-110871000D02*
X133731000Y-109474000D01*
X132969000Y-111633000D02*
X133731000Y-110871000D01*
X132080000Y-111633000D02*
X132969000Y-111633000D01*
X131470400Y-111023400D02*
X132080000Y-111633000D01*
X128778000Y-109728000D02*
X131264002Y-109728000D01*
X131264002Y-109728000D02*
X132788002Y-108204000D01*
X132788002Y-108204000D02*
X134112000Y-108204000D01*
X134112000Y-108204000D02*
X135128000Y-107188000D01*
X135128000Y-107188000D02*
X135128000Y-101727000D01*
X135128000Y-101727000D02*
X138249002Y-98605998D01*
X138249002Y-98605998D02*
X138249002Y-97716998D01*
X138249002Y-97716998D02*
X139700000Y-96266000D01*
X139700000Y-96266000D02*
X139700000Y-88265000D01*
X139700000Y-88265000D02*
X137541000Y-86106000D01*
X137541000Y-86106000D02*
X132133998Y-86106000D01*
X132133998Y-86106000D02*
X131117998Y-87122000D01*
X131117998Y-87122000D02*
X127508000Y-87122000D01*
X127508000Y-87122000D02*
X126365000Y-88265000D01*
X126365000Y-88265000D02*
X125222000Y-88265000D01*
X125222000Y-88265000D02*
X124841000Y-88646000D01*
D29*
X124841000Y-88646000D02*
X124841000Y-90297000D01*
D30*
X139065000Y-95885000D02*
X139065000Y-88519000D01*
X139065000Y-88519000D02*
X137287000Y-86741000D01*
X137287000Y-86741000D02*
X132387998Y-86741000D01*
X132387998Y-86741000D02*
X131371998Y-87757000D01*
X131371998Y-87757000D02*
X127889000Y-87757000D01*
X127889000Y-87757000D02*
X127381000Y-88265000D01*
X127381000Y-88265000D02*
X127381000Y-90297000D01*
X128778000Y-109093000D02*
X131064000Y-109093000D01*
X137668000Y-97282000D02*
X139065000Y-95885000D01*
X137668000Y-98298000D02*
X137668000Y-97282000D01*
X134493000Y-101473000D02*
X137668000Y-98298000D01*
X134493000Y-106934000D02*
X134493000Y-101473000D01*
X133858000Y-107569000D02*
X134493000Y-106934000D01*
X132588000Y-107569000D02*
X133858000Y-107569000D01*
X131064000Y-109093000D02*
X132588000Y-107569000D01*
X128778000Y-104521000D02*
X130750340Y-104521000D01*
X129921000Y-88900000D02*
X129921000Y-90297000D01*
X130429000Y-88392000D02*
X129921000Y-88900000D01*
X131699000Y-88392000D02*
X130429000Y-88392000D01*
X132715000Y-87376000D02*
X131699000Y-88392000D01*
X137033000Y-87376000D02*
X132715000Y-87376000D01*
X138430000Y-88773000D02*
X137033000Y-87376000D01*
X138430000Y-95631000D02*
X138430000Y-88773000D01*
X136906000Y-97155000D02*
X138430000Y-95631000D01*
X136906000Y-98044000D02*
X136906000Y-97155000D01*
X133760830Y-101189170D02*
X136906000Y-98044000D01*
X133760830Y-103983170D02*
X133760830Y-101189170D01*
X132768998Y-104975002D02*
X133760830Y-103983170D01*
X131204342Y-104975002D02*
X132768998Y-104975002D01*
X130750340Y-104521000D02*
X131204342Y-104975002D01*
X128778000Y-103886000D02*
X130937000Y-103886000D01*
X132461000Y-88773000D02*
X132461000Y-90297000D01*
X133223000Y-88011000D02*
X132461000Y-88773000D01*
X136779000Y-88011000D02*
X133223000Y-88011000D01*
X137795000Y-89027000D02*
X136779000Y-88011000D01*
X137795000Y-95250000D02*
X137795000Y-89027000D01*
X136271000Y-96774000D02*
X137795000Y-95250000D01*
X136271000Y-97790000D02*
X136271000Y-96774000D01*
X133096000Y-100965000D02*
X136271000Y-97790000D01*
X133096000Y-103759000D02*
X133096000Y-100965000D01*
X132461000Y-104394000D02*
X133096000Y-103759000D01*
X131445000Y-104394000D02*
X132461000Y-104394000D01*
X130937000Y-103886000D02*
X131445000Y-104394000D01*
X135582002Y-97589998D02*
X135582002Y-96573998D01*
X130581400Y-102590600D02*
X135582002Y-97589998D01*
X128778000Y-102590600D02*
X130581400Y-102590600D01*
X136398000Y-90297000D02*
X135001000Y-90297000D01*
X137160000Y-91059000D02*
X136398000Y-90297000D01*
X137160000Y-94996000D02*
X137160000Y-91059000D01*
X135582002Y-96573998D02*
X137160000Y-94996000D01*
X128778000Y-101930200D02*
X130279798Y-101930200D01*
X130279798Y-101930200D02*
X135001000Y-97208998D01*
X135001000Y-97208998D02*
X135001000Y-93853000D01*
X131572000Y-99695000D02*
X132588000Y-98679000D01*
X132588000Y-98679000D02*
X132588000Y-93980000D01*
X132588000Y-93980000D02*
X132461000Y-93853000D01*
X119380000Y-101930200D02*
X118440200Y-101930200D01*
X118618000Y-99695000D02*
X131572000Y-99695000D01*
X117856000Y-100457000D02*
X118618000Y-99695000D01*
X117856000Y-101346000D02*
X117856000Y-100457000D01*
X118440200Y-101930200D02*
X117856000Y-101346000D01*
X131572000Y-99695000D02*
X131445000Y-99695000D01*
X130048000Y-93980000D02*
X130048000Y-98171000D01*
X118211600Y-102590600D02*
X117221000Y-101600000D01*
X117221000Y-101600000D02*
X117221000Y-100076000D01*
X117221000Y-100076000D02*
X118237000Y-99060000D01*
X118237000Y-99060000D02*
X129159000Y-99060000D01*
X129159000Y-99060000D02*
X130048000Y-98171000D01*
X118211600Y-102590600D02*
X119380000Y-102590600D01*
X130048000Y-93980000D02*
X129921000Y-93853000D01*
X127508000Y-93980000D02*
X127508000Y-97536000D01*
X115824000Y-103886000D02*
X119380000Y-103886000D01*
X126619000Y-98425000D02*
X127508000Y-97536000D01*
X117856000Y-98425000D02*
X126619000Y-98425000D01*
X116459000Y-99822000D02*
X117856000Y-98425000D01*
X116459000Y-100457000D02*
X116459000Y-99822000D01*
X114935000Y-101981000D02*
X116459000Y-100457000D01*
X114935000Y-102997000D02*
X114935000Y-101981000D01*
X115824000Y-103886000D02*
X114935000Y-102997000D01*
X127508000Y-93980000D02*
X127381000Y-93853000D01*
X124968000Y-93980000D02*
X124968000Y-97155000D01*
X115443000Y-104521000D02*
X119380000Y-104521000D01*
X124279002Y-97843998D02*
X124968000Y-97155000D01*
X117615342Y-97843998D02*
X124279002Y-97843998D01*
X115824000Y-99635340D02*
X117615342Y-97843998D01*
X115824000Y-100076000D02*
X115824000Y-99635340D01*
X114300000Y-101600000D02*
X115824000Y-100076000D01*
X114300000Y-103378000D02*
X114300000Y-101600000D01*
X115443000Y-104521000D02*
X114300000Y-103378000D01*
X124968000Y-93980000D02*
X124841000Y-93853000D01*
X122428000Y-93980000D02*
X122428000Y-96266000D01*
X115570000Y-109093000D02*
X114427000Y-107950000D01*
X114427000Y-107950000D02*
X114427000Y-104521000D01*
X114427000Y-104521000D02*
X113665000Y-103759000D01*
X113665000Y-103759000D02*
X113665000Y-101219000D01*
X113665000Y-101219000D02*
X115062000Y-99822000D01*
X115062000Y-99822000D02*
X115062000Y-99441000D01*
X115062000Y-99441000D02*
X117348000Y-97155000D01*
X117348000Y-97155000D02*
X121539000Y-97155000D01*
X121539000Y-97155000D02*
X122428000Y-96266000D01*
X115570000Y-109093000D02*
X119380000Y-109093000D01*
X122428000Y-93980000D02*
X122301000Y-93853000D01*
X119888000Y-93980000D02*
X119888000Y-95758000D01*
X115189000Y-109728000D02*
X113665000Y-108204000D01*
X113665000Y-108204000D02*
X113665000Y-104648000D01*
X113665000Y-104648000D02*
X112903000Y-103886000D01*
X112903000Y-103886000D02*
X112903000Y-101092000D01*
X112903000Y-101092000D02*
X114427000Y-99568000D01*
X114427000Y-99568000D02*
X114427000Y-99187000D01*
X114427000Y-99187000D02*
X117094000Y-96520000D01*
X117094000Y-96520000D02*
X119126000Y-96520000D01*
X119126000Y-96520000D02*
X119888000Y-95758000D01*
X115189000Y-109728000D02*
X119380000Y-109728000D01*
X119888000Y-93980000D02*
X119761000Y-93853000D01*
X117348000Y-93980000D02*
X117348000Y-95377000D01*
X117576600Y-111023400D02*
X116205000Y-112395000D01*
X116205000Y-112395000D02*
X114935000Y-112395000D01*
X114935000Y-112395000D02*
X114427000Y-111887000D01*
X114427000Y-111887000D02*
X114427000Y-109982000D01*
X114427000Y-109982000D02*
X113030000Y-108585000D01*
X113030000Y-108585000D02*
X113030000Y-104902000D01*
X113030000Y-104902000D02*
X112268000Y-104140000D01*
X112268000Y-104140000D02*
X112268000Y-100838000D01*
X112268000Y-100838000D02*
X113665000Y-99441000D01*
X113665000Y-99441000D02*
X113665000Y-99060000D01*
X113665000Y-99060000D02*
X117348000Y-95377000D01*
X117576600Y-111023400D02*
X119380000Y-111023400D01*
X117348000Y-93980000D02*
X117221000Y-93853000D01*
X114778170Y-97125170D02*
X114778170Y-93950170D01*
X114778170Y-93950170D02*
X114681000Y-93853000D01*
X119380000Y-111683800D02*
X117737860Y-111683800D01*
X117737860Y-111683800D02*
X116391660Y-113030000D01*
X116391660Y-113030000D02*
X114681000Y-113030000D01*
X114681000Y-113030000D02*
X113792000Y-112141000D01*
X113792000Y-112141000D02*
X113792000Y-110236000D01*
X113792000Y-110236000D02*
X112365170Y-108809170D01*
X112365170Y-108809170D02*
X112365170Y-105126170D01*
X112365170Y-105126170D02*
X111633000Y-104394000D01*
X111633000Y-104394000D02*
X111633000Y-100584000D01*
X111633000Y-100584000D02*
X113030000Y-99187000D01*
X113030000Y-99187000D02*
X113030000Y-98873340D01*
X113030000Y-98873340D02*
X114778170Y-97125170D01*
X114778170Y-97125170D02*
X114808000Y-97095340D01*
X128778000Y-103225600D02*
X131597400Y-103225600D01*
X131597400Y-103225600D02*
X131953000Y-102870000D01*
D33*
X110490000Y-106045000D02*
X106299000Y-106045000D01*
D30*
X99187000Y-102073000D02*
X101184000Y-102073000D01*
X101184000Y-102073000D02*
X105156000Y-106045000D01*
X105156000Y-106045000D02*
X106299000Y-106045000D01*
D34*
X143006000Y-83387691D02*
X143006000Y-83387691D01*
X143006000Y-83787691D02*
X142605301Y-83787691D01*
X143006000Y-84187691D02*
X142109574Y-84187691D01*
X143006000Y-84587691D02*
X139837865Y-84587691D01*
X143006000Y-84987691D02*
X140237865Y-84987691D01*
X143006000Y-85387691D02*
X140637865Y-85387691D01*
X143006000Y-85787691D02*
X141037865Y-85787691D01*
X143006000Y-86187691D02*
X141437865Y-86187691D01*
X143006000Y-86587691D02*
X141837865Y-86587691D01*
X143006000Y-86987691D02*
X142155150Y-86987691D01*
X143006000Y-87387691D02*
X142337040Y-87387691D01*
X143006000Y-87787691D02*
X142410500Y-87787691D01*
X143006000Y-88187691D02*
X142410500Y-88187691D01*
X143006000Y-88587691D02*
X142410500Y-88587691D01*
X143006000Y-88987691D02*
X142410500Y-88987691D01*
X143006000Y-89387691D02*
X142410500Y-89387691D01*
X143006000Y-89787691D02*
X142410500Y-89787691D01*
X143006000Y-90187691D02*
X142410500Y-90187691D01*
X143006000Y-90587691D02*
X142410500Y-90587691D01*
X143006000Y-90987691D02*
X142410500Y-90987691D01*
X143006000Y-91387691D02*
X142410500Y-91387691D01*
X143006000Y-91787691D02*
X142410500Y-91787691D01*
X143006000Y-92187691D02*
X142410500Y-92187691D01*
X143006000Y-92587691D02*
X142410500Y-92587691D01*
X143006000Y-92987691D02*
X142410500Y-92987691D01*
X143006000Y-93387691D02*
X142410500Y-93387691D01*
X143006000Y-93787691D02*
X142410500Y-93787691D01*
X143006000Y-94187691D02*
X142410500Y-94187691D01*
X143006000Y-94587691D02*
X142410500Y-94587691D01*
X143006000Y-94987691D02*
X142410500Y-94987691D01*
X143006000Y-95387691D02*
X142410500Y-95387691D01*
X143006000Y-95787691D02*
X142410500Y-95787691D01*
X143006000Y-96187691D02*
X142410500Y-96187691D01*
X143006000Y-96587691D02*
X142410500Y-96587691D01*
X143006000Y-96987691D02*
X142367993Y-96987691D01*
X143006000Y-97387691D02*
X142259130Y-97387691D01*
X143006000Y-97787691D02*
X141991859Y-97787691D01*
X143006000Y-98187691D02*
X141593483Y-98187691D01*
X143006000Y-98587691D02*
X141193483Y-98587691D01*
X143006000Y-98987691D02*
X141013500Y-98987691D01*
X143006000Y-99387691D02*
X140973579Y-99387691D01*
X143006000Y-99787691D02*
X140870816Y-99787691D01*
X143006000Y-100187691D02*
X140603545Y-100187691D01*
X143006000Y-100587691D02*
X140209484Y-100587691D01*
X143006000Y-100987691D02*
X139809484Y-100987691D01*
X143006000Y-101387691D02*
X140269565Y-101387691D01*
X143006000Y-101787691D02*
X140667230Y-101787691D01*
X143006000Y-102187691D02*
X140832916Y-102187691D01*
X143006000Y-102587691D02*
X140932000Y-102587691D01*
X138869500Y-102987691D02*
X138244500Y-102987691D01*
X143006000Y-102987691D02*
X140656809Y-102987691D01*
X143006000Y-103387691D02*
X137932000Y-103387691D01*
X143006000Y-103787691D02*
X137932000Y-103787691D01*
X143006000Y-104187691D02*
X140782191Y-104187691D01*
X143006000Y-104587691D02*
X140932000Y-104587691D01*
X143006000Y-104987691D02*
X140780980Y-104987691D01*
X143006000Y-105387691D02*
X140544183Y-105387691D01*
X143006000Y-105787691D02*
X140456488Y-105787691D01*
X143006000Y-106187691D02*
X140456488Y-106187691D01*
X143006000Y-106587691D02*
X140456488Y-106587691D01*
X143006000Y-106987691D02*
X140413416Y-106987691D01*
X143006000Y-107387691D02*
X140332862Y-107387691D01*
X143006000Y-107787691D02*
X140498138Y-107787691D01*
X143006000Y-108187691D02*
X140607236Y-108187691D01*
X143006000Y-108587691D02*
X140606887Y-108587691D01*
X143006000Y-108987691D02*
X140556759Y-108987691D01*
X143006000Y-109387691D02*
X140390665Y-109387691D01*
X143006000Y-109787691D02*
X140126657Y-109787691D01*
X143006000Y-110187691D02*
X139725959Y-110187691D01*
X143006000Y-110587691D02*
X137886183Y-110587691D01*
X143006000Y-110987691D02*
X137486183Y-110987691D01*
X143006000Y-111387691D02*
X137386000Y-111387691D01*
X143006000Y-111787691D02*
X137386000Y-111787691D01*
X143006000Y-112187691D02*
X137386000Y-112187691D01*
X143006000Y-112587691D02*
X137386000Y-112587691D01*
X143006000Y-112987691D02*
X137386000Y-112987691D01*
X143006000Y-113387691D02*
X137386000Y-113387691D01*
X143006000Y-113787691D02*
X137311071Y-113787691D01*
X143006000Y-114187691D02*
X137181297Y-114187691D01*
X143006000Y-114587691D02*
X136914026Y-114587691D01*
X143006000Y-114987691D02*
X136534183Y-114987691D01*
X143006000Y-115387691D02*
X136134183Y-115387691D01*
X143006000Y-115787691D02*
X135734183Y-115787691D01*
X140011253Y-116187691D02*
X135334183Y-116187691D01*
X143006000Y-116187691D02*
X141422460Y-116187691D01*
X139111814Y-116587691D02*
X134934183Y-116587691D01*
X143006000Y-116587691D02*
X142321373Y-116587691D01*
X138711115Y-116987691D02*
X134534183Y-116987691D01*
X143006000Y-116987691D02*
X142720676Y-116987691D01*
X138354683Y-117387691D02*
X134134183Y-117387691D01*
X138188589Y-117787691D02*
X133734183Y-117787691D01*
X138022494Y-118187691D02*
X133279430Y-118187691D01*
X137966247Y-118587691D02*
X132218608Y-118587691D01*
X137965898Y-118987691D02*
X128496714Y-118987691D01*
X137965549Y-119387691D02*
X128496714Y-119387691D01*
X138118851Y-119787691D02*
X128496714Y-119787691D01*
X138284127Y-120187691D02*
X128496714Y-120187691D01*
X138543000Y-120587691D02*
X128496714Y-120587691D01*
X139117514Y-79498000D02*
X92706000Y-79498000D01*
X138716816Y-79898000D02*
X92706000Y-79898000D01*
X92953712Y-80298000D02*
X92706000Y-80298000D01*
X138357047Y-80298000D02*
X97807307Y-80298000D01*
X138190952Y-80698000D02*
X98581877Y-80698000D01*
X111085913Y-81098000D02*
X98828697Y-81098000D01*
X138024857Y-81098000D02*
X112687913Y-81098000D01*
X110491605Y-81498000D02*
X98903962Y-81498000D01*
X115414345Y-81498000D02*
X113282461Y-81498000D01*
X117579500Y-81498000D02*
X116314500Y-81498000D01*
X137966252Y-81498000D02*
X118479656Y-81498000D01*
X110150372Y-81898000D02*
X98911488Y-81898000D01*
X117322000Y-81898000D02*
X116572000Y-81898000D01*
X137965903Y-81898000D02*
X119001874Y-81898000D01*
X103483126Y-82298000D02*
X98911488Y-82298000D01*
X105770500Y-82298000D02*
X104835500Y-82298000D01*
X109984277Y-82298000D02*
X107122874Y-82298000D01*
X117322000Y-82298000D02*
X116572000Y-82298000D01*
X137965554Y-82298000D02*
X119272243Y-82298000D01*
X103083126Y-82698000D02*
X98911488Y-82698000D01*
X105678000Y-82698000D02*
X104928000Y-82698000D01*
X109887203Y-82698000D02*
X109296299Y-82698000D01*
X117322000Y-82698000D02*
X116572000Y-82698000D01*
X138116499Y-82698000D02*
X119437928Y-82698000D01*
X102909413Y-83098000D02*
X98911488Y-83098000D01*
X105678000Y-83098000D02*
X104928000Y-83098000D01*
X109886854Y-83098000D02*
X109649096Y-83098000D01*
X117322000Y-83098000D02*
X116572000Y-83098000D01*
X138281776Y-83098000D02*
X119292000Y-83098000D01*
X102803000Y-83498000D02*
X98911488Y-83498000D01*
X105678000Y-83498000D02*
X104928000Y-83498000D01*
X109957277Y-83498000D02*
X109788915Y-83498000D01*
X131110699Y-83498000D02*
X116471488Y-83498000D01*
X103123000Y-83898000D02*
X98911488Y-83898000D01*
X105678000Y-83898000D02*
X104928000Y-83898000D01*
X110122553Y-83898000D02*
X109827488Y-83898000D01*
X117403500Y-83898000D02*
X116471488Y-83898000D01*
X130526824Y-83898000D02*
X118548153Y-83898000D01*
X105778512Y-84298000D02*
X98911488Y-84298000D01*
X110425654Y-84298000D02*
X109827488Y-84298000D01*
X117181000Y-84298000D02*
X116572000Y-84298000D01*
X130126824Y-84298000D02*
X119302000Y-84298000D01*
X103183000Y-84698000D02*
X98911488Y-84698000D01*
X105678000Y-84698000D02*
X104928000Y-84698000D01*
X110670331Y-84698000D02*
X109827488Y-84698000D01*
X117181000Y-84698000D02*
X116572000Y-84698000D01*
X126210889Y-84698000D02*
X119433784Y-84698000D01*
X101540126Y-85098000D02*
X98911488Y-85098000D01*
X110474352Y-85098000D02*
X109798124Y-85098000D01*
X117181000Y-85098000D02*
X116572000Y-85098000D01*
X125716826Y-85098000D02*
X119431000Y-85098000D01*
X101163731Y-85498000D02*
X99288308Y-85498000D01*
X110406512Y-85498000D02*
X109693491Y-85498000D01*
X117181000Y-85498000D02*
X116572000Y-85498000D01*
X125316826Y-85498000D02*
X119328500Y-85498000D01*
X100998046Y-85898000D02*
X99610633Y-85898000D01*
X110406512Y-85898000D02*
X109794844Y-85898000D01*
X117589500Y-85898000D02*
X116304500Y-85898000D01*
X121680582Y-85898000D02*
X118455513Y-85898000D01*
X100914000Y-86298000D02*
X99775910Y-86298000D01*
X110406512Y-86298000D02*
X109910076Y-86298000D01*
X121214825Y-86298000D02*
X115681000Y-86298000D01*
X101200500Y-86698000D02*
X99837101Y-86698000D01*
X104164000Y-86698000D02*
X103164000Y-86698000D01*
X110406512Y-86698000D02*
X109938488Y-86698000D01*
X117181000Y-86698000D02*
X116181000Y-86698000D01*
X119693249Y-86698000D02*
X119058500Y-86698000D01*
X104664000Y-87098000D02*
X99836752Y-87098000D01*
X110418742Y-87098000D02*
X109938488Y-87098000D01*
X104664000Y-87498000D02*
X99705713Y-87498000D01*
X110494817Y-87498000D02*
X109938488Y-87498000D01*
X96456093Y-87898000D02*
X92706000Y-87898000D01*
X101102500Y-87898000D02*
X99518685Y-87898000D01*
X104164000Y-87898000D02*
X103164000Y-87898000D01*
X110752210Y-87898000D02*
X109938488Y-87898000D01*
X96855395Y-88298000D02*
X92706000Y-88298000D01*
X100914000Y-88298000D02*
X99117987Y-88298000D01*
X111634147Y-88298000D02*
X109888064Y-88298000D01*
X101038638Y-88698000D02*
X92706000Y-88698000D01*
X113124763Y-88698000D02*
X109920898Y-88698000D01*
X101238126Y-89098000D02*
X92706000Y-89098000D01*
X97705975Y-89498000D02*
X92706000Y-89498000D01*
X97344338Y-89898000D02*
X92706000Y-89898000D01*
X97206051Y-90298000D02*
X92706000Y-90298000D01*
X97162512Y-90698000D02*
X92706000Y-90698000D01*
X97162512Y-91098000D02*
X92706000Y-91098000D01*
X96977126Y-91498000D02*
X92706000Y-91498000D01*
X96797555Y-91898000D02*
X92706000Y-91898000D01*
X96734500Y-92298000D02*
X92706000Y-92298000D01*
X97263686Y-92698000D02*
X92706000Y-92698000D01*
X97064500Y-93098000D02*
X92706000Y-93098000D01*
X96687000Y-93498000D02*
X92706000Y-93498000D01*
X96826549Y-93898000D02*
X92706000Y-93898000D01*
X97047126Y-94298000D02*
X92706000Y-94298000D01*
X97162512Y-94698000D02*
X92706000Y-94698000D01*
X97162512Y-95098000D02*
X92706000Y-95098000D01*
X97165550Y-95498000D02*
X92706000Y-95498000D01*
X97162512Y-95898000D02*
X92706000Y-95898000D01*
X97178505Y-96298000D02*
X92706000Y-96298000D01*
X97263686Y-96698000D02*
X92706000Y-96698000D01*
X97358004Y-97098000D02*
X92706000Y-97098000D01*
X97210101Y-97498000D02*
X92706000Y-97498000D01*
X97162512Y-97898000D02*
X92706000Y-97898000D01*
X97162512Y-98298000D02*
X92706000Y-98298000D01*
X97162512Y-98698000D02*
X92706000Y-98698000D01*
X97162512Y-99098000D02*
X92706000Y-99098000D01*
X97162512Y-99498000D02*
X92706000Y-99498000D01*
X97162512Y-99898000D02*
X92706000Y-99898000D01*
X97193558Y-100298000D02*
X92706000Y-100298000D01*
X97315165Y-100698000D02*
X92706000Y-100698000D01*
X97351171Y-101098000D02*
X92706000Y-101098000D01*
X97208076Y-101498000D02*
X92706000Y-101498000D01*
X97162512Y-101898000D02*
X92706000Y-101898000D01*
X97162512Y-102298000D02*
X92706000Y-102298000D01*
X97214256Y-102698000D02*
X92706000Y-102698000D01*
X97162512Y-103098000D02*
X92706000Y-103098000D01*
X97162512Y-103498000D02*
X92706000Y-103498000D01*
X97201085Y-103898000D02*
X92706000Y-103898000D01*
X97162512Y-104298000D02*
X92706000Y-104298000D01*
X97162512Y-104698000D02*
X92706000Y-104698000D01*
X97187913Y-105098000D02*
X92706000Y-105098000D01*
X97169600Y-105498000D02*
X92706000Y-105498000D01*
X97162512Y-105898000D02*
X92706000Y-105898000D01*
X97174742Y-106298000D02*
X92706000Y-106298000D01*
X101212825Y-106298000D02*
X101198324Y-106298000D01*
X97183776Y-106698000D02*
X92706000Y-106698000D01*
X101612825Y-106698000D02*
X101191732Y-106698000D01*
X97162512Y-107098000D02*
X92706000Y-107098000D01*
X102012825Y-107098000D02*
X101211488Y-107098000D01*
X97162512Y-107498000D02*
X92706000Y-107498000D01*
X102412825Y-107498000D02*
X101211488Y-107498000D01*
X97197951Y-107898000D02*
X92706000Y-107898000D01*
X102445500Y-107898000D02*
X101178560Y-107898000D01*
X97162512Y-108298000D02*
X92706000Y-108298000D01*
X102445500Y-108298000D02*
X101211488Y-108298000D01*
X97162512Y-108698000D02*
X92706000Y-108698000D01*
X102445500Y-108698000D02*
X101211488Y-108698000D01*
X97212126Y-109098000D02*
X92706000Y-109098000D01*
X102445500Y-109098000D02*
X101165389Y-109098000D01*
X97162512Y-109498000D02*
X92706000Y-109498000D01*
X102445500Y-109498000D02*
X101211488Y-109498000D01*
X97162512Y-109898000D02*
X92706000Y-109898000D01*
X102445500Y-109898000D02*
X101211488Y-109898000D01*
X111416825Y-109898000D02*
X111145752Y-109898000D01*
X97210493Y-110298000D02*
X92706000Y-110298000D01*
X102508356Y-110298000D02*
X101159848Y-110298000D01*
X111816825Y-110298000D02*
X111350394Y-110298000D01*
X97373078Y-110698000D02*
X92706000Y-110698000D01*
X102665230Y-110698000D02*
X101002331Y-110698000D01*
X112216825Y-110698000D02*
X111515671Y-110698000D01*
X97766879Y-111098000D02*
X92706000Y-111098000D01*
X102964826Y-111098000D02*
X100605863Y-111098000D01*
X112351500Y-111098000D02*
X111524024Y-111098000D01*
X103364826Y-111498000D02*
X92706000Y-111498000D01*
X112351500Y-111498000D02*
X111523674Y-111498000D01*
X103764826Y-111898000D02*
X92706000Y-111898000D01*
X112351500Y-111898000D02*
X111372729Y-111898000D01*
X96886066Y-112298000D02*
X92706000Y-112298000D01*
X104241508Y-112298000D02*
X99088657Y-112298000D01*
X112382729Y-112298000D02*
X111200622Y-112298000D01*
X96485367Y-112698000D02*
X92706000Y-112698000D01*
X104725087Y-112698000D02*
X99487960Y-112698000D01*
X108147645Y-112698000D02*
X107872912Y-112698000D01*
X112464990Y-112698000D02*
X110799923Y-112698000D01*
X105395360Y-113098000D02*
X99693272Y-113098000D01*
X108879863Y-113098000D02*
X107202639Y-113098000D01*
X112732261Y-113098000D02*
X110067194Y-113098000D01*
X107235676Y-113498000D02*
X99837276Y-113498000D01*
X113111826Y-113498000D02*
X109171418Y-113498000D01*
X106722806Y-113898000D02*
X99836927Y-113898000D01*
X106407004Y-114298000D02*
X99788761Y-114298000D01*
X106240910Y-114698000D02*
X99622666Y-114698000D01*
X106154190Y-115098000D02*
X99318336Y-115098000D01*
X106153841Y-115498000D02*
X98911488Y-115498000D01*
X106226374Y-115898000D02*
X98911488Y-115898000D01*
X106391650Y-116298000D02*
X98911488Y-116298000D01*
X106686978Y-116698000D02*
X98911488Y-116698000D01*
X107149884Y-117098000D02*
X98911488Y-117098000D01*
X108470877Y-117498000D02*
X98911488Y-117498000D01*
X108636153Y-117898000D02*
X98911488Y-117898000D01*
X108992495Y-118298000D02*
X98911488Y-118298000D01*
X109622294Y-118698000D02*
X98911488Y-118698000D01*
X111025286Y-119098000D02*
X98909462Y-119098000D01*
X111025286Y-119498000D02*
X98828460Y-119498000D01*
X111025286Y-119898000D02*
X98596424Y-119898000D01*
X92818549Y-120298000D02*
X92706000Y-120298000D01*
X111025286Y-120298000D02*
X97979725Y-120298000D01*
X126860503Y-101135500D02*
X121293055Y-101135500D01*
X126739621Y-101535500D02*
X121420945Y-101535500D01*
X126703412Y-101935500D02*
X121454588Y-101935500D01*
X125291600Y-102335500D02*
X122866400Y-102335500D01*
X125079000Y-102735500D02*
X123079000Y-102735500D01*
X125079000Y-103135500D02*
X123079000Y-103135500D01*
X125079000Y-103535500D02*
X123079000Y-103535500D01*
X125079000Y-103935500D02*
X123079000Y-103935500D01*
X125079000Y-104335500D02*
X123079000Y-104335500D01*
X125079000Y-104735500D02*
X123079000Y-104735500D01*
X125079000Y-105135500D02*
X123079000Y-105135500D01*
X125079000Y-105535500D02*
X123079000Y-105535500D01*
X125099000Y-105935500D02*
X123059000Y-105935500D01*
X125099000Y-106335500D02*
X123059000Y-106335500D01*
X125099000Y-106735500D02*
X123059000Y-106735500D01*
X125099000Y-107135500D02*
X123059000Y-107135500D01*
X125099000Y-107535500D02*
X123059000Y-107535500D01*
X125079000Y-107935500D02*
X123079000Y-107935500D01*
X125079000Y-108335500D02*
X123079000Y-108335500D01*
X125079000Y-108735500D02*
X123079000Y-108735500D01*
X125079000Y-109135500D02*
X123079000Y-109135500D01*
X125079000Y-109535500D02*
X123079000Y-109535500D01*
X125079000Y-109935500D02*
X123079000Y-109935500D01*
X125079000Y-110335500D02*
X123079000Y-110335500D01*
X125079000Y-110735500D02*
X123079000Y-110735500D01*
X125148600Y-111135500D02*
X123009400Y-111135500D01*
X126703412Y-111535500D02*
X121454588Y-111535500D01*
X125280626Y-111935500D02*
X121447338Y-111935500D01*
X124899837Y-112335500D02*
X121366335Y-112335500D01*
X124734153Y-112735500D02*
X121121896Y-112735500D01*
X118388854Y-113135500D02*
X118323334Y-113135500D01*
X124647000Y-113135500D02*
X120385709Y-113135500D01*
X124647000Y-113535500D02*
X117923334Y-113535500D01*
X112625737Y-92428000D02*
X111311581Y-92428000D01*
X112544735Y-92828000D02*
X111474340Y-92828000D01*
X112542912Y-93228000D02*
X111473991Y-93228000D01*
X112542912Y-93628000D02*
X111469321Y-93628000D01*
X112542912Y-94028000D02*
X111303226Y-94028000D01*
X112542912Y-94428000D02*
X111092784Y-94428000D01*
X112542912Y-94828000D02*
X110692086Y-94828000D01*
X112610462Y-95228000D02*
X108779801Y-95228000D01*
X112820401Y-95628000D02*
X105370171Y-95628000D01*
X113299488Y-96028000D02*
X105609635Y-96028000D01*
X113337670Y-96428000D02*
X108680800Y-96428000D01*
X110240476Y-96828000D02*
X108877745Y-96828000D01*
X113038165Y-96828000D02*
X111755564Y-96828000D01*
X109620637Y-97228000D02*
X108652360Y-97228000D01*
X112638165Y-97228000D02*
X112375493Y-97228000D01*
X117652800Y-89281000D02*
X116789200Y-89281000D01*
X117652800Y-89681000D02*
X116789200Y-89681000D01*
X117651221Y-90081000D02*
X116790780Y-90081000D01*
X117647400Y-90481000D02*
X116794600Y-90481000D01*
X117652800Y-90881000D02*
X116789200Y-90881000D01*
X117652800Y-91281000D02*
X116789200Y-91281000D01*
X143006000Y-117273514D02*
X142275784Y-116542023D01*
X141265409Y-116122478D01*
X140171391Y-116121523D01*
X139160285Y-116539304D01*
X138386023Y-117312216D01*
X137966478Y-118322591D01*
X137965523Y-119416609D01*
X138383304Y-120427715D01*
X138609194Y-120654000D01*
X128496714Y-120654000D01*
X128496714Y-118590000D01*
X132207000Y-118590000D01*
X132876696Y-118456789D01*
X133444437Y-118077437D01*
X136873437Y-114648437D01*
X137252789Y-114080696D01*
X137386000Y-113411000D01*
X137386000Y-111087874D01*
X138019399Y-110454475D01*
X138147441Y-110507643D01*
X138962981Y-110508355D01*
X139716715Y-110196919D01*
X140293892Y-109620748D01*
X140606643Y-108867559D01*
X140607355Y-108052019D01*
X140311524Y-107336051D01*
X140356076Y-107270847D01*
X140456488Y-106775000D01*
X140456488Y-105475386D01*
X140665578Y-105266296D01*
X140932000Y-104623097D01*
X140932000Y-104337500D01*
X140494500Y-103900000D01*
X138869500Y-103900000D01*
X138869500Y-104000512D01*
X138244500Y-104000512D01*
X138244500Y-103900000D01*
X137932000Y-103900000D01*
X137932000Y-103150000D01*
X138244500Y-103150000D01*
X138244500Y-102775000D01*
X138869500Y-102775000D01*
X138869500Y-103150000D01*
X140494500Y-103150000D01*
X140932000Y-102712500D01*
X140932000Y-102426903D01*
X140665578Y-101783704D01*
X140173295Y-101291421D01*
X139701272Y-101095903D01*
X140591588Y-100205587D01*
X140903848Y-99738255D01*
X141013500Y-99187000D01*
X141013500Y-98767674D01*
X141988587Y-97792588D01*
X142300848Y-97325256D01*
X142319040Y-97233796D01*
X142410500Y-96774000D01*
X142410500Y-87757000D01*
X142300848Y-87205745D01*
X141988587Y-86738413D01*
X139518645Y-84268471D01*
X140166591Y-84537522D01*
X141260609Y-84538477D01*
X142271715Y-84120696D01*
X143006000Y-83387691D01*
X143006000Y-117273514D01*
X143006000Y-83387691D02*
X143006000Y-83387691D01*
X143006000Y-83787691D02*
X142605301Y-83787691D01*
X143006000Y-84187691D02*
X142109574Y-84187691D01*
X143006000Y-84587691D02*
X139837865Y-84587691D01*
X143006000Y-84987691D02*
X140237865Y-84987691D01*
X143006000Y-85387691D02*
X140637865Y-85387691D01*
X143006000Y-85787691D02*
X141037865Y-85787691D01*
X143006000Y-86187691D02*
X141437865Y-86187691D01*
X143006000Y-86587691D02*
X141837865Y-86587691D01*
X143006000Y-86987691D02*
X142155150Y-86987691D01*
X143006000Y-87387691D02*
X142337040Y-87387691D01*
X143006000Y-87787691D02*
X142410500Y-87787691D01*
X143006000Y-88187691D02*
X142410500Y-88187691D01*
X143006000Y-88587691D02*
X142410500Y-88587691D01*
X143006000Y-88987691D02*
X142410500Y-88987691D01*
X143006000Y-89387691D02*
X142410500Y-89387691D01*
X143006000Y-89787691D02*
X142410500Y-89787691D01*
X143006000Y-90187691D02*
X142410500Y-90187691D01*
X143006000Y-90587691D02*
X142410500Y-90587691D01*
X143006000Y-90987691D02*
X142410500Y-90987691D01*
X143006000Y-91387691D02*
X142410500Y-91387691D01*
X143006000Y-91787691D02*
X142410500Y-91787691D01*
X143006000Y-92187691D02*
X142410500Y-92187691D01*
X143006000Y-92587691D02*
X142410500Y-92587691D01*
X143006000Y-92987691D02*
X142410500Y-92987691D01*
X143006000Y-93387691D02*
X142410500Y-93387691D01*
X143006000Y-93787691D02*
X142410500Y-93787691D01*
X143006000Y-94187691D02*
X142410500Y-94187691D01*
X143006000Y-94587691D02*
X142410500Y-94587691D01*
X143006000Y-94987691D02*
X142410500Y-94987691D01*
X143006000Y-95387691D02*
X142410500Y-95387691D01*
X143006000Y-95787691D02*
X142410500Y-95787691D01*
X143006000Y-96187691D02*
X142410500Y-96187691D01*
X143006000Y-96587691D02*
X142410500Y-96587691D01*
X143006000Y-96987691D02*
X142367993Y-96987691D01*
X143006000Y-97387691D02*
X142259130Y-97387691D01*
X143006000Y-97787691D02*
X141991859Y-97787691D01*
X143006000Y-98187691D02*
X141593483Y-98187691D01*
X143006000Y-98587691D02*
X141193483Y-98587691D01*
X143006000Y-98987691D02*
X141013500Y-98987691D01*
X143006000Y-99387691D02*
X140973579Y-99387691D01*
X143006000Y-99787691D02*
X140870816Y-99787691D01*
X143006000Y-100187691D02*
X140603545Y-100187691D01*
X143006000Y-100587691D02*
X140209484Y-100587691D01*
X143006000Y-100987691D02*
X139809484Y-100987691D01*
X143006000Y-101387691D02*
X140269565Y-101387691D01*
X143006000Y-101787691D02*
X140667230Y-101787691D01*
X143006000Y-102187691D02*
X140832916Y-102187691D01*
X143006000Y-102587691D02*
X140932000Y-102587691D01*
X138869500Y-102987691D02*
X138244500Y-102987691D01*
X143006000Y-102987691D02*
X140656809Y-102987691D01*
X143006000Y-103387691D02*
X137932000Y-103387691D01*
X143006000Y-103787691D02*
X137932000Y-103787691D01*
X143006000Y-104187691D02*
X140782191Y-104187691D01*
X143006000Y-104587691D02*
X140932000Y-104587691D01*
X143006000Y-104987691D02*
X140780980Y-104987691D01*
X143006000Y-105387691D02*
X140544183Y-105387691D01*
X143006000Y-105787691D02*
X140456488Y-105787691D01*
X143006000Y-106187691D02*
X140456488Y-106187691D01*
X143006000Y-106587691D02*
X140456488Y-106587691D01*
X143006000Y-106987691D02*
X140413416Y-106987691D01*
X143006000Y-107387691D02*
X140332862Y-107387691D01*
X143006000Y-107787691D02*
X140498138Y-107787691D01*
X143006000Y-108187691D02*
X140607236Y-108187691D01*
X143006000Y-108587691D02*
X140606887Y-108587691D01*
X143006000Y-108987691D02*
X140556759Y-108987691D01*
X143006000Y-109387691D02*
X140390665Y-109387691D01*
X143006000Y-109787691D02*
X140126657Y-109787691D01*
X143006000Y-110187691D02*
X139725959Y-110187691D01*
X143006000Y-110587691D02*
X137886183Y-110587691D01*
X143006000Y-110987691D02*
X137486183Y-110987691D01*
X143006000Y-111387691D02*
X137386000Y-111387691D01*
X143006000Y-111787691D02*
X137386000Y-111787691D01*
X143006000Y-112187691D02*
X137386000Y-112187691D01*
X143006000Y-112587691D02*
X137386000Y-112587691D01*
X143006000Y-112987691D02*
X137386000Y-112987691D01*
X143006000Y-113387691D02*
X137386000Y-113387691D01*
X143006000Y-113787691D02*
X137311071Y-113787691D01*
X143006000Y-114187691D02*
X137181297Y-114187691D01*
X143006000Y-114587691D02*
X136914026Y-114587691D01*
X143006000Y-114987691D02*
X136534183Y-114987691D01*
X143006000Y-115387691D02*
X136134183Y-115387691D01*
X143006000Y-115787691D02*
X135734183Y-115787691D01*
X140011253Y-116187691D02*
X135334183Y-116187691D01*
X143006000Y-116187691D02*
X141422460Y-116187691D01*
X139111814Y-116587691D02*
X134934183Y-116587691D01*
X143006000Y-116587691D02*
X142321373Y-116587691D01*
X138711115Y-116987691D02*
X134534183Y-116987691D01*
X143006000Y-116987691D02*
X142720676Y-116987691D01*
X138354683Y-117387691D02*
X134134183Y-117387691D01*
X138188589Y-117787691D02*
X133734183Y-117787691D01*
X138022494Y-118187691D02*
X133279430Y-118187691D01*
X137966247Y-118587691D02*
X132218608Y-118587691D01*
X137965898Y-118987691D02*
X128496714Y-118987691D01*
X137965549Y-119387691D02*
X128496714Y-119387691D01*
X138118851Y-119787691D02*
X128496714Y-119787691D01*
X138284127Y-120187691D02*
X128496714Y-120187691D01*
X138543000Y-120587691D02*
X128496714Y-120587691D01*
X139117514Y-79498000D02*
X92706000Y-79498000D01*
X138716816Y-79898000D02*
X92706000Y-79898000D01*
X92953712Y-80298000D02*
X92706000Y-80298000D01*
X138357047Y-80298000D02*
X97807307Y-80298000D01*
X138190952Y-80698000D02*
X98581877Y-80698000D01*
X111085913Y-81098000D02*
X98828697Y-81098000D01*
X138024857Y-81098000D02*
X112687913Y-81098000D01*
X110491605Y-81498000D02*
X98903962Y-81498000D01*
X115414345Y-81498000D02*
X113282461Y-81498000D01*
X117579500Y-81498000D02*
X116314500Y-81498000D01*
X137966252Y-81498000D02*
X118479656Y-81498000D01*
X110150372Y-81898000D02*
X98911488Y-81898000D01*
X117322000Y-81898000D02*
X116572000Y-81898000D01*
X137965903Y-81898000D02*
X119001874Y-81898000D01*
X103483126Y-82298000D02*
X98911488Y-82298000D01*
X105770500Y-82298000D02*
X104835500Y-82298000D01*
X109984277Y-82298000D02*
X107122874Y-82298000D01*
X117322000Y-82298000D02*
X116572000Y-82298000D01*
X137965554Y-82298000D02*
X119272243Y-82298000D01*
X103083126Y-82698000D02*
X98911488Y-82698000D01*
X105678000Y-82698000D02*
X104928000Y-82698000D01*
X109887203Y-82698000D02*
X109296299Y-82698000D01*
X117322000Y-82698000D02*
X116572000Y-82698000D01*
X138116499Y-82698000D02*
X119437928Y-82698000D01*
X102909413Y-83098000D02*
X98911488Y-83098000D01*
X105678000Y-83098000D02*
X104928000Y-83098000D01*
X109886854Y-83098000D02*
X109649096Y-83098000D01*
X117322000Y-83098000D02*
X116572000Y-83098000D01*
X138281776Y-83098000D02*
X119292000Y-83098000D01*
X102803000Y-83498000D02*
X98911488Y-83498000D01*
X105678000Y-83498000D02*
X104928000Y-83498000D01*
X109957277Y-83498000D02*
X109788915Y-83498000D01*
X131110699Y-83498000D02*
X116471488Y-83498000D01*
X103123000Y-83898000D02*
X98911488Y-83898000D01*
X105678000Y-83898000D02*
X104928000Y-83898000D01*
X110122553Y-83898000D02*
X109827488Y-83898000D01*
X117403500Y-83898000D02*
X116471488Y-83898000D01*
X130526824Y-83898000D02*
X118548153Y-83898000D01*
X105778512Y-84298000D02*
X98911488Y-84298000D01*
X110425654Y-84298000D02*
X109827488Y-84298000D01*
X117181000Y-84298000D02*
X116572000Y-84298000D01*
X130126824Y-84298000D02*
X119302000Y-84298000D01*
X103183000Y-84698000D02*
X98911488Y-84698000D01*
X105678000Y-84698000D02*
X104928000Y-84698000D01*
X110670331Y-84698000D02*
X109827488Y-84698000D01*
X117181000Y-84698000D02*
X116572000Y-84698000D01*
X126210889Y-84698000D02*
X119433784Y-84698000D01*
X101540126Y-85098000D02*
X98911488Y-85098000D01*
X110474352Y-85098000D02*
X109798124Y-85098000D01*
X117181000Y-85098000D02*
X116572000Y-85098000D01*
X125716826Y-85098000D02*
X119431000Y-85098000D01*
X101163731Y-85498000D02*
X99288308Y-85498000D01*
X110406512Y-85498000D02*
X109693491Y-85498000D01*
X117181000Y-85498000D02*
X116572000Y-85498000D01*
X125316826Y-85498000D02*
X119328500Y-85498000D01*
X100998046Y-85898000D02*
X99610633Y-85898000D01*
X110406512Y-85898000D02*
X109794844Y-85898000D01*
X117589500Y-85898000D02*
X116304500Y-85898000D01*
X121680582Y-85898000D02*
X118455513Y-85898000D01*
X100914000Y-86298000D02*
X99775910Y-86298000D01*
X110406512Y-86298000D02*
X109910076Y-86298000D01*
X121214825Y-86298000D02*
X115681000Y-86298000D01*
X101200500Y-86698000D02*
X99837101Y-86698000D01*
X104164000Y-86698000D02*
X103164000Y-86698000D01*
X110406512Y-86698000D02*
X109938488Y-86698000D01*
X117181000Y-86698000D02*
X116181000Y-86698000D01*
X119693249Y-86698000D02*
X119058500Y-86698000D01*
X104664000Y-87098000D02*
X99836752Y-87098000D01*
X110418742Y-87098000D02*
X109938488Y-87098000D01*
X104664000Y-87498000D02*
X99705713Y-87498000D01*
X110494817Y-87498000D02*
X109938488Y-87498000D01*
X96456093Y-87898000D02*
X92706000Y-87898000D01*
X101102500Y-87898000D02*
X99518685Y-87898000D01*
X104164000Y-87898000D02*
X103164000Y-87898000D01*
X110752210Y-87898000D02*
X109938488Y-87898000D01*
X96855395Y-88298000D02*
X92706000Y-88298000D01*
X100914000Y-88298000D02*
X99117987Y-88298000D01*
X111634147Y-88298000D02*
X109888064Y-88298000D01*
X101038638Y-88698000D02*
X92706000Y-88698000D01*
X113124763Y-88698000D02*
X109920898Y-88698000D01*
X101238126Y-89098000D02*
X92706000Y-89098000D01*
X97705975Y-89498000D02*
X92706000Y-89498000D01*
X97344338Y-89898000D02*
X92706000Y-89898000D01*
X97206051Y-90298000D02*
X92706000Y-90298000D01*
X97162512Y-90698000D02*
X92706000Y-90698000D01*
X97162512Y-91098000D02*
X92706000Y-91098000D01*
X96977126Y-91498000D02*
X92706000Y-91498000D01*
X96797555Y-91898000D02*
X92706000Y-91898000D01*
X96734500Y-92298000D02*
X92706000Y-92298000D01*
X97263686Y-92698000D02*
X92706000Y-92698000D01*
X97064500Y-93098000D02*
X92706000Y-93098000D01*
X96687000Y-93498000D02*
X92706000Y-93498000D01*
X96826549Y-93898000D02*
X92706000Y-93898000D01*
X97047126Y-94298000D02*
X92706000Y-94298000D01*
X97162512Y-94698000D02*
X92706000Y-94698000D01*
X97162512Y-95098000D02*
X92706000Y-95098000D01*
X97165550Y-95498000D02*
X92706000Y-95498000D01*
X97162512Y-95898000D02*
X92706000Y-95898000D01*
X97178505Y-96298000D02*
X92706000Y-96298000D01*
X97263686Y-96698000D02*
X92706000Y-96698000D01*
X97358004Y-97098000D02*
X92706000Y-97098000D01*
X97210101Y-97498000D02*
X92706000Y-97498000D01*
X97162512Y-97898000D02*
X92706000Y-97898000D01*
X97162512Y-98298000D02*
X92706000Y-98298000D01*
X97162512Y-98698000D02*
X92706000Y-98698000D01*
X97162512Y-99098000D02*
X92706000Y-99098000D01*
X97162512Y-99498000D02*
X92706000Y-99498000D01*
X97162512Y-99898000D02*
X92706000Y-99898000D01*
X97193558Y-100298000D02*
X92706000Y-100298000D01*
X97315165Y-100698000D02*
X92706000Y-100698000D01*
X97351171Y-101098000D02*
X92706000Y-101098000D01*
X97208076Y-101498000D02*
X92706000Y-101498000D01*
X97162512Y-101898000D02*
X92706000Y-101898000D01*
X97162512Y-102298000D02*
X92706000Y-102298000D01*
X97214256Y-102698000D02*
X92706000Y-102698000D01*
X97162512Y-103098000D02*
X92706000Y-103098000D01*
X97162512Y-103498000D02*
X92706000Y-103498000D01*
X97201085Y-103898000D02*
X92706000Y-103898000D01*
X97162512Y-104298000D02*
X92706000Y-104298000D01*
X97162512Y-104698000D02*
X92706000Y-104698000D01*
X97187913Y-105098000D02*
X92706000Y-105098000D01*
X97169600Y-105498000D02*
X92706000Y-105498000D01*
X97162512Y-105898000D02*
X92706000Y-105898000D01*
X97174742Y-106298000D02*
X92706000Y-106298000D01*
X101212825Y-106298000D02*
X101198324Y-106298000D01*
X97183776Y-106698000D02*
X92706000Y-106698000D01*
X101612825Y-106698000D02*
X101191732Y-106698000D01*
X97162512Y-107098000D02*
X92706000Y-107098000D01*
X102012825Y-107098000D02*
X101211488Y-107098000D01*
X97162512Y-107498000D02*
X92706000Y-107498000D01*
X102412825Y-107498000D02*
X101211488Y-107498000D01*
X97197951Y-107898000D02*
X92706000Y-107898000D01*
X102445500Y-107898000D02*
X101178560Y-107898000D01*
X97162512Y-108298000D02*
X92706000Y-108298000D01*
X102445500Y-108298000D02*
X101211488Y-108298000D01*
X97162512Y-108698000D02*
X92706000Y-108698000D01*
X102445500Y-108698000D02*
X101211488Y-108698000D01*
X97212126Y-109098000D02*
X92706000Y-109098000D01*
X102445500Y-109098000D02*
X101165389Y-109098000D01*
X97162512Y-109498000D02*
X92706000Y-109498000D01*
X102445500Y-109498000D02*
X101211488Y-109498000D01*
X97162512Y-109898000D02*
X92706000Y-109898000D01*
X102445500Y-109898000D02*
X101211488Y-109898000D01*
X111416825Y-109898000D02*
X111145752Y-109898000D01*
X97210493Y-110298000D02*
X92706000Y-110298000D01*
X102508356Y-110298000D02*
X101159848Y-110298000D01*
X111816825Y-110298000D02*
X111350394Y-110298000D01*
X97373078Y-110698000D02*
X92706000Y-110698000D01*
X102665230Y-110698000D02*
X101002331Y-110698000D01*
X112216825Y-110698000D02*
X111515671Y-110698000D01*
X97766879Y-111098000D02*
X92706000Y-111098000D01*
X102964826Y-111098000D02*
X100605863Y-111098000D01*
X112351500Y-111098000D02*
X111524024Y-111098000D01*
X103364826Y-111498000D02*
X92706000Y-111498000D01*
X112351500Y-111498000D02*
X111523674Y-111498000D01*
X103764826Y-111898000D02*
X92706000Y-111898000D01*
X112351500Y-111898000D02*
X111372729Y-111898000D01*
X96886066Y-112298000D02*
X92706000Y-112298000D01*
X104241508Y-112298000D02*
X99088657Y-112298000D01*
X112382729Y-112298000D02*
X111200622Y-112298000D01*
X96485367Y-112698000D02*
X92706000Y-112698000D01*
X104725087Y-112698000D02*
X99487960Y-112698000D01*
X108147645Y-112698000D02*
X107872912Y-112698000D01*
X112464990Y-112698000D02*
X110799923Y-112698000D01*
X105395360Y-113098000D02*
X99693272Y-113098000D01*
X108879863Y-113098000D02*
X107202639Y-113098000D01*
X112732261Y-113098000D02*
X110067194Y-113098000D01*
X107235676Y-113498000D02*
X99837276Y-113498000D01*
X113111826Y-113498000D02*
X109171418Y-113498000D01*
X106722806Y-113898000D02*
X99836927Y-113898000D01*
X106407004Y-114298000D02*
X99788761Y-114298000D01*
X106240910Y-114698000D02*
X99622666Y-114698000D01*
X106154190Y-115098000D02*
X99318336Y-115098000D01*
X106153841Y-115498000D02*
X98911488Y-115498000D01*
X106226374Y-115898000D02*
X98911488Y-115898000D01*
X106391650Y-116298000D02*
X98911488Y-116298000D01*
X106686978Y-116698000D02*
X98911488Y-116698000D01*
X107149884Y-117098000D02*
X98911488Y-117098000D01*
X108470877Y-117498000D02*
X98911488Y-117498000D01*
X108636153Y-117898000D02*
X98911488Y-117898000D01*
X108992495Y-118298000D02*
X98911488Y-118298000D01*
X109622294Y-118698000D02*
X98911488Y-118698000D01*
X111025286Y-119098000D02*
X98909462Y-119098000D01*
X111025286Y-119498000D02*
X98828460Y-119498000D01*
X111025286Y-119898000D02*
X98596424Y-119898000D01*
X92818549Y-120298000D02*
X92706000Y-120298000D01*
X111025286Y-120298000D02*
X97979725Y-120298000D01*
X126860503Y-101135500D02*
X121293055Y-101135500D01*
X126739621Y-101535500D02*
X121420945Y-101535500D01*
X126703412Y-101935500D02*
X121454588Y-101935500D01*
X125291600Y-102335500D02*
X122866400Y-102335500D01*
X125079000Y-102735500D02*
X123079000Y-102735500D01*
X125079000Y-103135500D02*
X123079000Y-103135500D01*
X125079000Y-103535500D02*
X123079000Y-103535500D01*
X125079000Y-103935500D02*
X123079000Y-103935500D01*
X125079000Y-104335500D02*
X123079000Y-104335500D01*
X125079000Y-104735500D02*
X123079000Y-104735500D01*
X125079000Y-105135500D02*
X123079000Y-105135500D01*
X125079000Y-105535500D02*
X123079000Y-105535500D01*
X125099000Y-105935500D02*
X123059000Y-105935500D01*
X125099000Y-106335500D02*
X123059000Y-106335500D01*
X125099000Y-106735500D02*
X123059000Y-106735500D01*
X125099000Y-107135500D02*
X123059000Y-107135500D01*
X125099000Y-107535500D02*
X123059000Y-107535500D01*
X125079000Y-107935500D02*
X123079000Y-107935500D01*
X125079000Y-108335500D02*
X123079000Y-108335500D01*
X125079000Y-108735500D02*
X123079000Y-108735500D01*
X125079000Y-109135500D02*
X123079000Y-109135500D01*
X125079000Y-109535500D02*
X123079000Y-109535500D01*
X125079000Y-109935500D02*
X123079000Y-109935500D01*
X125079000Y-110335500D02*
X123079000Y-110335500D01*
X125079000Y-110735500D02*
X123079000Y-110735500D01*
X125148600Y-111135500D02*
X123009400Y-111135500D01*
X126703412Y-111535500D02*
X121454588Y-111535500D01*
X125280626Y-111935500D02*
X121447338Y-111935500D01*
X124899837Y-112335500D02*
X121366335Y-112335500D01*
X124734153Y-112735500D02*
X121121896Y-112735500D01*
X118388854Y-113135500D02*
X118323334Y-113135500D01*
X124647000Y-113135500D02*
X120385709Y-113135500D01*
X124647000Y-113535500D02*
X117923334Y-113535500D01*
X112625737Y-92428000D02*
X111311581Y-92428000D01*
X112544735Y-92828000D02*
X111474340Y-92828000D01*
X112542912Y-93228000D02*
X111473991Y-93228000D01*
X112542912Y-93628000D02*
X111469321Y-93628000D01*
X112542912Y-94028000D02*
X111303226Y-94028000D01*
X112542912Y-94428000D02*
X111092784Y-94428000D01*
X112542912Y-94828000D02*
X110692086Y-94828000D01*
X112610462Y-95228000D02*
X108779801Y-95228000D01*
X112820401Y-95628000D02*
X105370171Y-95628000D01*
X113299488Y-96028000D02*
X105609635Y-96028000D01*
X113337670Y-96428000D02*
X108680800Y-96428000D01*
X110240476Y-96828000D02*
X108877745Y-96828000D01*
X113038165Y-96828000D02*
X111755564Y-96828000D01*
X109620637Y-97228000D02*
X108652360Y-97228000D01*
X112638165Y-97228000D02*
X112375493Y-97228000D01*
X117652800Y-89281000D02*
X116789200Y-89281000D01*
X117652800Y-89681000D02*
X116789200Y-89681000D01*
X117651221Y-90081000D02*
X116790780Y-90081000D01*
X117647400Y-90481000D02*
X116794600Y-90481000D01*
X117652800Y-90881000D02*
X116789200Y-90881000D01*
X117652800Y-91281000D02*
X116789200Y-91281000D01*
X138386023Y-80228216D02*
X137966478Y-81238591D01*
X137965523Y-82332609D01*
X138383304Y-83343715D01*
X138530635Y-83491304D01*
X138049000Y-83395500D01*
X131625998Y-83395500D01*
X131074743Y-83505152D01*
X130607411Y-83817412D01*
X129959326Y-84465498D01*
X126946002Y-84465498D01*
X126549654Y-84544337D01*
X126394746Y-84575150D01*
X125927415Y-84887411D01*
X125206328Y-85608498D01*
X122501002Y-85608498D01*
X121949747Y-85718150D01*
X121482415Y-86030410D01*
X120878825Y-86634000D01*
X120015000Y-86634000D01*
X119390843Y-86758152D01*
X119227677Y-86867177D01*
X118993500Y-86633000D01*
X117181000Y-86633000D01*
X117181000Y-87033000D01*
X116181000Y-87033000D01*
X116181000Y-86633000D01*
X115681000Y-86633000D01*
X115681000Y-85998452D01*
X115848903Y-86068000D01*
X116134500Y-86068000D01*
X116572000Y-85630500D01*
X116572000Y-84120500D01*
X117181000Y-84120500D01*
X117181000Y-85833000D01*
X117524500Y-85833000D01*
X117759500Y-86068000D01*
X118045097Y-86068000D01*
X118612437Y-85833000D01*
X118993500Y-85833000D01*
X119431000Y-85395500D01*
X119431000Y-85084904D01*
X119352262Y-84894814D01*
X119447000Y-84666096D01*
X119447000Y-84443000D01*
X119009500Y-84005500D01*
X118728374Y-84005500D01*
X118672296Y-83949422D01*
X118029097Y-83683000D01*
X117618500Y-83683000D01*
X117181000Y-84120500D01*
X116572000Y-84120500D01*
X116572000Y-84005500D01*
X116471488Y-84005500D01*
X116471488Y-83380500D01*
X116572000Y-83380500D01*
X116572000Y-81755500D01*
X117322000Y-81755500D01*
X117322000Y-83380500D01*
X119009500Y-83380500D01*
X119447000Y-82943000D01*
X119447000Y-82719904D01*
X119180579Y-82076705D01*
X118688296Y-81584422D01*
X118045097Y-81318000D01*
X117759500Y-81318000D01*
X117322000Y-81755500D01*
X116572000Y-81755500D01*
X116134500Y-81318000D01*
X115848903Y-81318000D01*
X115205704Y-81584422D01*
X114996614Y-81793512D01*
X113697000Y-81793512D01*
X113589370Y-81813764D01*
X113583506Y-81799571D01*
X113021388Y-81236471D01*
X112286570Y-80931348D01*
X111490921Y-80930654D01*
X110755571Y-81234494D01*
X110192471Y-81796612D01*
X109887348Y-82531430D01*
X109886654Y-83327079D01*
X110190494Y-84062429D01*
X110733161Y-84606044D01*
X110506924Y-84937153D01*
X110406512Y-85433000D01*
X110406512Y-87033000D01*
X110493673Y-87496222D01*
X110767437Y-87921663D01*
X111185153Y-88207076D01*
X111681000Y-88307488D01*
X113632712Y-88307488D01*
X113186459Y-88605665D01*
X112971082Y-88928000D01*
X110474799Y-88928000D01*
X109873570Y-88678348D01*
X109746934Y-88678238D01*
X109838076Y-88544847D01*
X109938488Y-88049000D01*
X109938488Y-86449000D01*
X109851327Y-85985778D01*
X109613131Y-85615611D01*
X109727076Y-85448847D01*
X109827488Y-84953000D01*
X109827488Y-83703000D01*
X109740327Y-83239778D01*
X109466563Y-82814337D01*
X109048847Y-82528924D01*
X108553000Y-82428512D01*
X107253386Y-82428512D01*
X107044296Y-82219422D01*
X106401097Y-81953000D01*
X106115500Y-81953000D01*
X105678000Y-82390500D01*
X105678000Y-84015500D01*
X105778512Y-84015500D01*
X105778512Y-84640500D01*
X105678000Y-84640500D01*
X105678000Y-84953000D01*
X105625307Y-84953000D01*
X105012097Y-84699000D01*
X104928000Y-84699000D01*
X104928000Y-84640500D01*
X103240500Y-84640500D01*
X103182000Y-84699000D01*
X102315903Y-84699000D01*
X101672704Y-84965422D01*
X101180421Y-85457705D01*
X100914000Y-86100904D01*
X100914000Y-86411500D01*
X101351500Y-86849000D01*
X103164000Y-86849000D01*
X103164000Y-86449000D01*
X103591693Y-86449000D01*
X104164000Y-86686057D01*
X104164000Y-86849000D01*
X104664000Y-86849000D01*
X104664000Y-87649000D01*
X104164000Y-87649000D01*
X104164000Y-88049000D01*
X103164000Y-88049000D01*
X103164000Y-87649000D01*
X101351500Y-87649000D01*
X100914000Y-88086500D01*
X100914000Y-88397096D01*
X101180421Y-89040295D01*
X101314126Y-89174000D01*
X99245000Y-89174000D01*
X98920675Y-89238512D01*
X98437000Y-89238512D01*
X97973778Y-89325673D01*
X97548337Y-89599437D01*
X97262924Y-90017153D01*
X97162512Y-90513000D01*
X97162512Y-91213000D01*
X97178287Y-91296839D01*
X96953422Y-91521704D01*
X96687000Y-92164903D01*
X96687000Y-92250500D01*
X97124500Y-92688000D01*
X97257252Y-92688000D01*
X97369081Y-92861787D01*
X97262924Y-93017153D01*
X97258702Y-93038000D01*
X97124500Y-93038000D01*
X96687000Y-93475500D01*
X96687000Y-93561097D01*
X96953422Y-94204296D01*
X97179287Y-94430161D01*
X97162512Y-94513000D01*
X97162512Y-95213000D01*
X97191773Y-95368507D01*
X97162512Y-95513000D01*
X97162512Y-96213000D01*
X97249673Y-96676222D01*
X97441987Y-96975086D01*
X97262924Y-97237153D01*
X97162512Y-97733000D01*
X97162512Y-100133000D01*
X97249673Y-100596222D01*
X97465184Y-100931135D01*
X97262924Y-101227153D01*
X97162512Y-101723000D01*
X97162512Y-102423000D01*
X97218107Y-102718464D01*
X97162512Y-102993000D01*
X97162512Y-103693000D01*
X97218107Y-103988464D01*
X97162512Y-104263000D01*
X97162512Y-104963000D01*
X97218107Y-105258464D01*
X97162512Y-105533000D01*
X97162512Y-106233000D01*
X97218107Y-106528464D01*
X97162512Y-106803000D01*
X97162512Y-107503000D01*
X97218107Y-107798464D01*
X97162512Y-108073000D01*
X97162512Y-108773000D01*
X97218107Y-109068464D01*
X97162512Y-109343000D01*
X97162512Y-110043000D01*
X97249673Y-110506222D01*
X97523437Y-110931663D01*
X97941153Y-111217076D01*
X98437000Y-111317488D01*
X99937000Y-111317488D01*
X100400222Y-111230327D01*
X100825663Y-110956563D01*
X101111076Y-110538847D01*
X101211488Y-110043000D01*
X101211488Y-109343000D01*
X101155893Y-109047536D01*
X101211488Y-108773000D01*
X101211488Y-108073000D01*
X101155893Y-107777536D01*
X101211488Y-107503000D01*
X101211488Y-106803000D01*
X101155893Y-106507536D01*
X101200767Y-106285941D01*
X102445500Y-107530675D01*
X102445500Y-109982000D01*
X102555152Y-110533255D01*
X102867413Y-111000587D01*
X104010413Y-112143587D01*
X104477744Y-112455848D01*
X104501438Y-112460561D01*
X104607665Y-112619541D01*
X105293366Y-113077712D01*
X106102206Y-113238600D01*
X106495794Y-113238600D01*
X107304634Y-113077712D01*
X107990335Y-112619541D01*
X108022006Y-112572141D01*
X108311252Y-112861892D01*
X109064441Y-113174643D01*
X109879981Y-113175355D01*
X110633715Y-112863919D01*
X111210892Y-112287748D01*
X111523643Y-111534559D01*
X111524355Y-110719019D01*
X111212919Y-109965285D01*
X111103139Y-109855313D01*
X111210892Y-109747748D01*
X111242408Y-109671848D01*
X111346583Y-109827757D01*
X112351500Y-110832675D01*
X112351500Y-112141000D01*
X112461152Y-112692255D01*
X112773413Y-113159587D01*
X113425826Y-113812000D01*
X109599234Y-113812000D01*
X109366748Y-113579108D01*
X108613559Y-113266357D01*
X107798019Y-113265645D01*
X107044285Y-113577081D01*
X106467108Y-114153252D01*
X106154357Y-114906441D01*
X106153645Y-115721981D01*
X106465081Y-116475715D01*
X107041252Y-117052892D01*
X107794441Y-117365643D01*
X108416413Y-117366186D01*
X108666494Y-117971429D01*
X109228612Y-118534529D01*
X109963430Y-118839652D01*
X110759079Y-118840346D01*
X111025286Y-118730352D01*
X111025286Y-120654000D01*
X92706000Y-120654000D01*
X92706000Y-120275208D01*
X93137000Y-120362488D01*
X97637000Y-120362488D01*
X98100222Y-120275327D01*
X98525663Y-120001563D01*
X98811076Y-119583847D01*
X98911488Y-119088000D01*
X98911488Y-115432712D01*
X99033572Y-115382268D01*
X99554439Y-114862309D01*
X99836679Y-114182602D01*
X99837321Y-113446627D01*
X99556268Y-112766428D01*
X99036309Y-112245561D01*
X98356602Y-111963321D01*
X97620627Y-111962679D01*
X96940428Y-112243732D01*
X96419561Y-112763691D01*
X96336588Y-112963512D01*
X93137000Y-112963512D01*
X92706000Y-113044610D01*
X92706000Y-87575208D01*
X93137000Y-87662488D01*
X96336298Y-87662488D01*
X96417732Y-87859572D01*
X96937691Y-88380439D01*
X97617398Y-88662679D01*
X98353373Y-88663321D01*
X99033572Y-88382268D01*
X99554439Y-87862309D01*
X99836679Y-87182602D01*
X99837321Y-86446627D01*
X99556268Y-85766428D01*
X99036309Y-85245561D01*
X98911488Y-85193731D01*
X98911488Y-83354904D01*
X102803000Y-83354904D01*
X102803000Y-83578000D01*
X103240500Y-84015500D01*
X104928000Y-84015500D01*
X104928000Y-82390500D01*
X104490500Y-81953000D01*
X104204903Y-81953000D01*
X103561704Y-82219422D01*
X103069421Y-82711705D01*
X102803000Y-83354904D01*
X98911488Y-83354904D01*
X98911488Y-81538000D01*
X98824327Y-81074778D01*
X98550563Y-80649337D01*
X98132847Y-80363924D01*
X97637000Y-80263512D01*
X93137000Y-80263512D01*
X92706000Y-80344610D01*
X92706000Y-79498000D01*
X139117514Y-79498000D01*
X138386023Y-80228216D01*
X143006000Y-83387691D02*
X143006000Y-83387691D01*
X143006000Y-83787691D02*
X142605301Y-83787691D01*
X143006000Y-84187691D02*
X142109574Y-84187691D01*
X143006000Y-84587691D02*
X139837865Y-84587691D01*
X143006000Y-84987691D02*
X140237865Y-84987691D01*
X143006000Y-85387691D02*
X140637865Y-85387691D01*
X143006000Y-85787691D02*
X141037865Y-85787691D01*
X143006000Y-86187691D02*
X141437865Y-86187691D01*
X143006000Y-86587691D02*
X141837865Y-86587691D01*
X143006000Y-86987691D02*
X142155150Y-86987691D01*
X143006000Y-87387691D02*
X142337040Y-87387691D01*
X143006000Y-87787691D02*
X142410500Y-87787691D01*
X143006000Y-88187691D02*
X142410500Y-88187691D01*
X143006000Y-88587691D02*
X142410500Y-88587691D01*
X143006000Y-88987691D02*
X142410500Y-88987691D01*
X143006000Y-89387691D02*
X142410500Y-89387691D01*
X143006000Y-89787691D02*
X142410500Y-89787691D01*
X143006000Y-90187691D02*
X142410500Y-90187691D01*
X143006000Y-90587691D02*
X142410500Y-90587691D01*
X143006000Y-90987691D02*
X142410500Y-90987691D01*
X143006000Y-91387691D02*
X142410500Y-91387691D01*
X143006000Y-91787691D02*
X142410500Y-91787691D01*
X143006000Y-92187691D02*
X142410500Y-92187691D01*
X143006000Y-92587691D02*
X142410500Y-92587691D01*
X143006000Y-92987691D02*
X142410500Y-92987691D01*
X143006000Y-93387691D02*
X142410500Y-93387691D01*
X143006000Y-93787691D02*
X142410500Y-93787691D01*
X143006000Y-94187691D02*
X142410500Y-94187691D01*
X143006000Y-94587691D02*
X142410500Y-94587691D01*
X143006000Y-94987691D02*
X142410500Y-94987691D01*
X143006000Y-95387691D02*
X142410500Y-95387691D01*
X143006000Y-95787691D02*
X142410500Y-95787691D01*
X143006000Y-96187691D02*
X142410500Y-96187691D01*
X143006000Y-96587691D02*
X142410500Y-96587691D01*
X143006000Y-96987691D02*
X142367993Y-96987691D01*
X143006000Y-97387691D02*
X142259130Y-97387691D01*
X143006000Y-97787691D02*
X141991859Y-97787691D01*
X143006000Y-98187691D02*
X141593483Y-98187691D01*
X143006000Y-98587691D02*
X141193483Y-98587691D01*
X143006000Y-98987691D02*
X141013500Y-98987691D01*
X143006000Y-99387691D02*
X140973579Y-99387691D01*
X143006000Y-99787691D02*
X140870816Y-99787691D01*
X143006000Y-100187691D02*
X140603545Y-100187691D01*
X143006000Y-100587691D02*
X140209484Y-100587691D01*
X143006000Y-100987691D02*
X139809484Y-100987691D01*
X143006000Y-101387691D02*
X140269565Y-101387691D01*
X143006000Y-101787691D02*
X140667230Y-101787691D01*
X143006000Y-102187691D02*
X140832916Y-102187691D01*
X143006000Y-102587691D02*
X140932000Y-102587691D01*
X138869500Y-102987691D02*
X138244500Y-102987691D01*
X143006000Y-102987691D02*
X140656809Y-102987691D01*
X143006000Y-103387691D02*
X137932000Y-103387691D01*
X143006000Y-103787691D02*
X137932000Y-103787691D01*
X143006000Y-104187691D02*
X140782191Y-104187691D01*
X143006000Y-104587691D02*
X140932000Y-104587691D01*
X143006000Y-104987691D02*
X140780980Y-104987691D01*
X143006000Y-105387691D02*
X140544183Y-105387691D01*
X143006000Y-105787691D02*
X140456488Y-105787691D01*
X143006000Y-106187691D02*
X140456488Y-106187691D01*
X143006000Y-106587691D02*
X140456488Y-106587691D01*
X143006000Y-106987691D02*
X140413416Y-106987691D01*
X143006000Y-107387691D02*
X140332862Y-107387691D01*
X143006000Y-107787691D02*
X140498138Y-107787691D01*
X143006000Y-108187691D02*
X140607236Y-108187691D01*
X143006000Y-108587691D02*
X140606887Y-108587691D01*
X143006000Y-108987691D02*
X140556759Y-108987691D01*
X143006000Y-109387691D02*
X140390665Y-109387691D01*
X143006000Y-109787691D02*
X140126657Y-109787691D01*
X143006000Y-110187691D02*
X139725959Y-110187691D01*
X143006000Y-110587691D02*
X137886183Y-110587691D01*
X143006000Y-110987691D02*
X137486183Y-110987691D01*
X143006000Y-111387691D02*
X137386000Y-111387691D01*
X143006000Y-111787691D02*
X137386000Y-111787691D01*
X143006000Y-112187691D02*
X137386000Y-112187691D01*
X143006000Y-112587691D02*
X137386000Y-112587691D01*
X143006000Y-112987691D02*
X137386000Y-112987691D01*
X143006000Y-113387691D02*
X137386000Y-113387691D01*
X143006000Y-113787691D02*
X137311071Y-113787691D01*
X143006000Y-114187691D02*
X137181297Y-114187691D01*
X143006000Y-114587691D02*
X136914026Y-114587691D01*
X143006000Y-114987691D02*
X136534183Y-114987691D01*
X143006000Y-115387691D02*
X136134183Y-115387691D01*
X143006000Y-115787691D02*
X135734183Y-115787691D01*
X140011253Y-116187691D02*
X135334183Y-116187691D01*
X143006000Y-116187691D02*
X141422460Y-116187691D01*
X139111814Y-116587691D02*
X134934183Y-116587691D01*
X143006000Y-116587691D02*
X142321373Y-116587691D01*
X138711115Y-116987691D02*
X134534183Y-116987691D01*
X143006000Y-116987691D02*
X142720676Y-116987691D01*
X138354683Y-117387691D02*
X134134183Y-117387691D01*
X138188589Y-117787691D02*
X133734183Y-117787691D01*
X138022494Y-118187691D02*
X133279430Y-118187691D01*
X137966247Y-118587691D02*
X132218608Y-118587691D01*
X137965898Y-118987691D02*
X128496714Y-118987691D01*
X137965549Y-119387691D02*
X128496714Y-119387691D01*
X138118851Y-119787691D02*
X128496714Y-119787691D01*
X138284127Y-120187691D02*
X128496714Y-120187691D01*
X138543000Y-120587691D02*
X128496714Y-120587691D01*
X139117514Y-79498000D02*
X92706000Y-79498000D01*
X138716816Y-79898000D02*
X92706000Y-79898000D01*
X92953712Y-80298000D02*
X92706000Y-80298000D01*
X138357047Y-80298000D02*
X97807307Y-80298000D01*
X138190952Y-80698000D02*
X98581877Y-80698000D01*
X111085913Y-81098000D02*
X98828697Y-81098000D01*
X138024857Y-81098000D02*
X112687913Y-81098000D01*
X110491605Y-81498000D02*
X98903962Y-81498000D01*
X115414345Y-81498000D02*
X113282461Y-81498000D01*
X117579500Y-81498000D02*
X116314500Y-81498000D01*
X137966252Y-81498000D02*
X118479656Y-81498000D01*
X110150372Y-81898000D02*
X98911488Y-81898000D01*
X117322000Y-81898000D02*
X116572000Y-81898000D01*
X137965903Y-81898000D02*
X119001874Y-81898000D01*
X103483126Y-82298000D02*
X98911488Y-82298000D01*
X105770500Y-82298000D02*
X104835500Y-82298000D01*
X109984277Y-82298000D02*
X107122874Y-82298000D01*
X117322000Y-82298000D02*
X116572000Y-82298000D01*
X137965554Y-82298000D02*
X119272243Y-82298000D01*
X103083126Y-82698000D02*
X98911488Y-82698000D01*
X105678000Y-82698000D02*
X104928000Y-82698000D01*
X109887203Y-82698000D02*
X109296299Y-82698000D01*
X117322000Y-82698000D02*
X116572000Y-82698000D01*
X138116499Y-82698000D02*
X119437928Y-82698000D01*
X102909413Y-83098000D02*
X98911488Y-83098000D01*
X105678000Y-83098000D02*
X104928000Y-83098000D01*
X109886854Y-83098000D02*
X109649096Y-83098000D01*
X117322000Y-83098000D02*
X116572000Y-83098000D01*
X138281776Y-83098000D02*
X119292000Y-83098000D01*
X102803000Y-83498000D02*
X98911488Y-83498000D01*
X105678000Y-83498000D02*
X104928000Y-83498000D01*
X109957277Y-83498000D02*
X109788915Y-83498000D01*
X131110699Y-83498000D02*
X116471488Y-83498000D01*
X103123000Y-83898000D02*
X98911488Y-83898000D01*
X105678000Y-83898000D02*
X104928000Y-83898000D01*
X110122553Y-83898000D02*
X109827488Y-83898000D01*
X117403500Y-83898000D02*
X116471488Y-83898000D01*
X130526824Y-83898000D02*
X118548153Y-83898000D01*
X105778512Y-84298000D02*
X98911488Y-84298000D01*
X110425654Y-84298000D02*
X109827488Y-84298000D01*
X117181000Y-84298000D02*
X116572000Y-84298000D01*
X130126824Y-84298000D02*
X119302000Y-84298000D01*
X103183000Y-84698000D02*
X98911488Y-84698000D01*
X105678000Y-84698000D02*
X104928000Y-84698000D01*
X110670331Y-84698000D02*
X109827488Y-84698000D01*
X117181000Y-84698000D02*
X116572000Y-84698000D01*
X126210889Y-84698000D02*
X119433784Y-84698000D01*
X101540126Y-85098000D02*
X98911488Y-85098000D01*
X110474352Y-85098000D02*
X109798124Y-85098000D01*
X117181000Y-85098000D02*
X116572000Y-85098000D01*
X125716826Y-85098000D02*
X119431000Y-85098000D01*
X101163731Y-85498000D02*
X99288308Y-85498000D01*
X110406512Y-85498000D02*
X109693491Y-85498000D01*
X117181000Y-85498000D02*
X116572000Y-85498000D01*
X125316826Y-85498000D02*
X119328500Y-85498000D01*
X100998046Y-85898000D02*
X99610633Y-85898000D01*
X110406512Y-85898000D02*
X109794844Y-85898000D01*
X117589500Y-85898000D02*
X116304500Y-85898000D01*
X121680582Y-85898000D02*
X118455513Y-85898000D01*
X100914000Y-86298000D02*
X99775910Y-86298000D01*
X110406512Y-86298000D02*
X109910076Y-86298000D01*
X121214825Y-86298000D02*
X115681000Y-86298000D01*
X101200500Y-86698000D02*
X99837101Y-86698000D01*
X104164000Y-86698000D02*
X103164000Y-86698000D01*
X110406512Y-86698000D02*
X109938488Y-86698000D01*
X117181000Y-86698000D02*
X116181000Y-86698000D01*
X119693249Y-86698000D02*
X119058500Y-86698000D01*
X104664000Y-87098000D02*
X99836752Y-87098000D01*
X110418742Y-87098000D02*
X109938488Y-87098000D01*
X104664000Y-87498000D02*
X99705713Y-87498000D01*
X110494817Y-87498000D02*
X109938488Y-87498000D01*
X96456093Y-87898000D02*
X92706000Y-87898000D01*
X101102500Y-87898000D02*
X99518685Y-87898000D01*
X104164000Y-87898000D02*
X103164000Y-87898000D01*
X110752210Y-87898000D02*
X109938488Y-87898000D01*
X96855395Y-88298000D02*
X92706000Y-88298000D01*
X100914000Y-88298000D02*
X99117987Y-88298000D01*
X111634147Y-88298000D02*
X109888064Y-88298000D01*
X101038638Y-88698000D02*
X92706000Y-88698000D01*
X113124763Y-88698000D02*
X109920898Y-88698000D01*
X101238126Y-89098000D02*
X92706000Y-89098000D01*
X97705975Y-89498000D02*
X92706000Y-89498000D01*
X97344338Y-89898000D02*
X92706000Y-89898000D01*
X97206051Y-90298000D02*
X92706000Y-90298000D01*
X97162512Y-90698000D02*
X92706000Y-90698000D01*
X97162512Y-91098000D02*
X92706000Y-91098000D01*
X96977126Y-91498000D02*
X92706000Y-91498000D01*
X96797555Y-91898000D02*
X92706000Y-91898000D01*
X96734500Y-92298000D02*
X92706000Y-92298000D01*
X97263686Y-92698000D02*
X92706000Y-92698000D01*
X97064500Y-93098000D02*
X92706000Y-93098000D01*
X96687000Y-93498000D02*
X92706000Y-93498000D01*
X96826549Y-93898000D02*
X92706000Y-93898000D01*
X97047126Y-94298000D02*
X92706000Y-94298000D01*
X97162512Y-94698000D02*
X92706000Y-94698000D01*
X97162512Y-95098000D02*
X92706000Y-95098000D01*
X97165550Y-95498000D02*
X92706000Y-95498000D01*
X97162512Y-95898000D02*
X92706000Y-95898000D01*
X97178505Y-96298000D02*
X92706000Y-96298000D01*
X97263686Y-96698000D02*
X92706000Y-96698000D01*
X97358004Y-97098000D02*
X92706000Y-97098000D01*
X97210101Y-97498000D02*
X92706000Y-97498000D01*
X97162512Y-97898000D02*
X92706000Y-97898000D01*
X97162512Y-98298000D02*
X92706000Y-98298000D01*
X97162512Y-98698000D02*
X92706000Y-98698000D01*
X97162512Y-99098000D02*
X92706000Y-99098000D01*
X97162512Y-99498000D02*
X92706000Y-99498000D01*
X97162512Y-99898000D02*
X92706000Y-99898000D01*
X97193558Y-100298000D02*
X92706000Y-100298000D01*
X97315165Y-100698000D02*
X92706000Y-100698000D01*
X97351171Y-101098000D02*
X92706000Y-101098000D01*
X97208076Y-101498000D02*
X92706000Y-101498000D01*
X97162512Y-101898000D02*
X92706000Y-101898000D01*
X97162512Y-102298000D02*
X92706000Y-102298000D01*
X97214256Y-102698000D02*
X92706000Y-102698000D01*
X97162512Y-103098000D02*
X92706000Y-103098000D01*
X97162512Y-103498000D02*
X92706000Y-103498000D01*
X97201085Y-103898000D02*
X92706000Y-103898000D01*
X97162512Y-104298000D02*
X92706000Y-104298000D01*
X97162512Y-104698000D02*
X92706000Y-104698000D01*
X97187913Y-105098000D02*
X92706000Y-105098000D01*
X97169600Y-105498000D02*
X92706000Y-105498000D01*
X97162512Y-105898000D02*
X92706000Y-105898000D01*
X97174742Y-106298000D02*
X92706000Y-106298000D01*
X101212825Y-106298000D02*
X101198324Y-106298000D01*
X97183776Y-106698000D02*
X92706000Y-106698000D01*
X101612825Y-106698000D02*
X101191732Y-106698000D01*
X97162512Y-107098000D02*
X92706000Y-107098000D01*
X102012825Y-107098000D02*
X101211488Y-107098000D01*
X97162512Y-107498000D02*
X92706000Y-107498000D01*
X102412825Y-107498000D02*
X101211488Y-107498000D01*
X97197951Y-107898000D02*
X92706000Y-107898000D01*
X102445500Y-107898000D02*
X101178560Y-107898000D01*
X97162512Y-108298000D02*
X92706000Y-108298000D01*
X102445500Y-108298000D02*
X101211488Y-108298000D01*
X97162512Y-108698000D02*
X92706000Y-108698000D01*
X102445500Y-108698000D02*
X101211488Y-108698000D01*
X97212126Y-109098000D02*
X92706000Y-109098000D01*
X102445500Y-109098000D02*
X101165389Y-109098000D01*
X97162512Y-109498000D02*
X92706000Y-109498000D01*
X102445500Y-109498000D02*
X101211488Y-109498000D01*
X97162512Y-109898000D02*
X92706000Y-109898000D01*
X102445500Y-109898000D02*
X101211488Y-109898000D01*
X111416825Y-109898000D02*
X111145752Y-109898000D01*
X97210493Y-110298000D02*
X92706000Y-110298000D01*
X102508356Y-110298000D02*
X101159848Y-110298000D01*
X111816825Y-110298000D02*
X111350394Y-110298000D01*
X97373078Y-110698000D02*
X92706000Y-110698000D01*
X102665230Y-110698000D02*
X101002331Y-110698000D01*
X112216825Y-110698000D02*
X111515671Y-110698000D01*
X97766879Y-111098000D02*
X92706000Y-111098000D01*
X102964826Y-111098000D02*
X100605863Y-111098000D01*
X112351500Y-111098000D02*
X111524024Y-111098000D01*
X103364826Y-111498000D02*
X92706000Y-111498000D01*
X112351500Y-111498000D02*
X111523674Y-111498000D01*
X103764826Y-111898000D02*
X92706000Y-111898000D01*
X112351500Y-111898000D02*
X111372729Y-111898000D01*
X96886066Y-112298000D02*
X92706000Y-112298000D01*
X104241508Y-112298000D02*
X99088657Y-112298000D01*
X112382729Y-112298000D02*
X111200622Y-112298000D01*
X96485367Y-112698000D02*
X92706000Y-112698000D01*
X104725087Y-112698000D02*
X99487960Y-112698000D01*
X108147645Y-112698000D02*
X107872912Y-112698000D01*
X112464990Y-112698000D02*
X110799923Y-112698000D01*
X105395360Y-113098000D02*
X99693272Y-113098000D01*
X108879863Y-113098000D02*
X107202639Y-113098000D01*
X112732261Y-113098000D02*
X110067194Y-113098000D01*
X107235676Y-113498000D02*
X99837276Y-113498000D01*
X113111826Y-113498000D02*
X109171418Y-113498000D01*
X106722806Y-113898000D02*
X99836927Y-113898000D01*
X106407004Y-114298000D02*
X99788761Y-114298000D01*
X106240910Y-114698000D02*
X99622666Y-114698000D01*
X106154190Y-115098000D02*
X99318336Y-115098000D01*
X106153841Y-115498000D02*
X98911488Y-115498000D01*
X106226374Y-115898000D02*
X98911488Y-115898000D01*
X106391650Y-116298000D02*
X98911488Y-116298000D01*
X106686978Y-116698000D02*
X98911488Y-116698000D01*
X107149884Y-117098000D02*
X98911488Y-117098000D01*
X108470877Y-117498000D02*
X98911488Y-117498000D01*
X108636153Y-117898000D02*
X98911488Y-117898000D01*
X108992495Y-118298000D02*
X98911488Y-118298000D01*
X109622294Y-118698000D02*
X98911488Y-118698000D01*
X111025286Y-119098000D02*
X98909462Y-119098000D01*
X111025286Y-119498000D02*
X98828460Y-119498000D01*
X111025286Y-119898000D02*
X98596424Y-119898000D01*
X92818549Y-120298000D02*
X92706000Y-120298000D01*
X111025286Y-120298000D02*
X97979725Y-120298000D01*
X126860503Y-101135500D02*
X121293055Y-101135500D01*
X126739621Y-101535500D02*
X121420945Y-101535500D01*
X126703412Y-101935500D02*
X121454588Y-101935500D01*
X125291600Y-102335500D02*
X122866400Y-102335500D01*
X125079000Y-102735500D02*
X123079000Y-102735500D01*
X125079000Y-103135500D02*
X123079000Y-103135500D01*
X125079000Y-103535500D02*
X123079000Y-103535500D01*
X125079000Y-103935500D02*
X123079000Y-103935500D01*
X125079000Y-104335500D02*
X123079000Y-104335500D01*
X125079000Y-104735500D02*
X123079000Y-104735500D01*
X125079000Y-105135500D02*
X123079000Y-105135500D01*
X125079000Y-105535500D02*
X123079000Y-105535500D01*
X125099000Y-105935500D02*
X123059000Y-105935500D01*
X125099000Y-106335500D02*
X123059000Y-106335500D01*
X125099000Y-106735500D02*
X123059000Y-106735500D01*
X125099000Y-107135500D02*
X123059000Y-107135500D01*
X125099000Y-107535500D02*
X123059000Y-107535500D01*
X125079000Y-107935500D02*
X123079000Y-107935500D01*
X125079000Y-108335500D02*
X123079000Y-108335500D01*
X125079000Y-108735500D02*
X123079000Y-108735500D01*
X125079000Y-109135500D02*
X123079000Y-109135500D01*
X125079000Y-109535500D02*
X123079000Y-109535500D01*
X125079000Y-109935500D02*
X123079000Y-109935500D01*
X125079000Y-110335500D02*
X123079000Y-110335500D01*
X125079000Y-110735500D02*
X123079000Y-110735500D01*
X125148600Y-111135500D02*
X123009400Y-111135500D01*
X126703412Y-111535500D02*
X121454588Y-111535500D01*
X125280626Y-111935500D02*
X121447338Y-111935500D01*
X124899837Y-112335500D02*
X121366335Y-112335500D01*
X124734153Y-112735500D02*
X121121896Y-112735500D01*
X118388854Y-113135500D02*
X118323334Y-113135500D01*
X124647000Y-113135500D02*
X120385709Y-113135500D01*
X124647000Y-113535500D02*
X117923334Y-113535500D01*
X112625737Y-92428000D02*
X111311581Y-92428000D01*
X112544735Y-92828000D02*
X111474340Y-92828000D01*
X112542912Y-93228000D02*
X111473991Y-93228000D01*
X112542912Y-93628000D02*
X111469321Y-93628000D01*
X112542912Y-94028000D02*
X111303226Y-94028000D01*
X112542912Y-94428000D02*
X111092784Y-94428000D01*
X112542912Y-94828000D02*
X110692086Y-94828000D01*
X112610462Y-95228000D02*
X108779801Y-95228000D01*
X112820401Y-95628000D02*
X105370171Y-95628000D01*
X113299488Y-96028000D02*
X105609635Y-96028000D01*
X113337670Y-96428000D02*
X108680800Y-96428000D01*
X110240476Y-96828000D02*
X108877745Y-96828000D01*
X113038165Y-96828000D02*
X111755564Y-96828000D01*
X109620637Y-97228000D02*
X108652360Y-97228000D01*
X112638165Y-97228000D02*
X112375493Y-97228000D01*
X117652800Y-89281000D02*
X116789200Y-89281000D01*
X117652800Y-89681000D02*
X116789200Y-89681000D01*
X117651221Y-90081000D02*
X116790780Y-90081000D01*
X117647400Y-90481000D02*
X116794600Y-90481000D01*
X117652800Y-90881000D02*
X116789200Y-90881000D01*
X117652800Y-91281000D02*
X116789200Y-91281000D01*
X126803824Y-101218453D02*
X126703412Y-101714300D01*
X126703412Y-102110600D01*
X125516500Y-102110600D01*
X125079000Y-102548100D01*
X125079000Y-105807000D01*
X125099000Y-105807000D01*
X125099000Y-107807000D01*
X125079000Y-107807000D01*
X125079000Y-111065900D01*
X125516500Y-111503400D01*
X126703412Y-111503400D01*
X126703412Y-111544000D01*
X126048903Y-111544000D01*
X125405704Y-111810422D01*
X124913421Y-112302705D01*
X124658145Y-112918998D01*
X124647000Y-112918998D01*
X124647000Y-113812000D01*
X117646834Y-113812000D01*
X118334368Y-113124466D01*
X118579900Y-113174188D01*
X120180100Y-113174188D01*
X120643322Y-113087027D01*
X121068763Y-112813263D01*
X121354176Y-112395547D01*
X121454588Y-111899700D01*
X121454588Y-111503400D01*
X122641500Y-111503400D01*
X123079000Y-111065900D01*
X123079000Y-107807000D01*
X123059000Y-107807000D01*
X123059000Y-105807000D01*
X123079000Y-105807000D01*
X123079000Y-102548100D01*
X122641500Y-102110600D01*
X121454588Y-102110600D01*
X121454588Y-101714300D01*
X121367427Y-101251078D01*
X121293055Y-101135500D01*
X126860503Y-101135500D01*
X126803824Y-101218453D01*
X143006000Y-83387691D02*
X143006000Y-83387691D01*
X143006000Y-83787691D02*
X142605301Y-83787691D01*
X143006000Y-84187691D02*
X142109574Y-84187691D01*
X143006000Y-84587691D02*
X139837865Y-84587691D01*
X143006000Y-84987691D02*
X140237865Y-84987691D01*
X143006000Y-85387691D02*
X140637865Y-85387691D01*
X143006000Y-85787691D02*
X141037865Y-85787691D01*
X143006000Y-86187691D02*
X141437865Y-86187691D01*
X143006000Y-86587691D02*
X141837865Y-86587691D01*
X143006000Y-86987691D02*
X142155150Y-86987691D01*
X143006000Y-87387691D02*
X142337040Y-87387691D01*
X143006000Y-87787691D02*
X142410500Y-87787691D01*
X143006000Y-88187691D02*
X142410500Y-88187691D01*
X143006000Y-88587691D02*
X142410500Y-88587691D01*
X143006000Y-88987691D02*
X142410500Y-88987691D01*
X143006000Y-89387691D02*
X142410500Y-89387691D01*
X143006000Y-89787691D02*
X142410500Y-89787691D01*
X143006000Y-90187691D02*
X142410500Y-90187691D01*
X143006000Y-90587691D02*
X142410500Y-90587691D01*
X143006000Y-90987691D02*
X142410500Y-90987691D01*
X143006000Y-91387691D02*
X142410500Y-91387691D01*
X143006000Y-91787691D02*
X142410500Y-91787691D01*
X143006000Y-92187691D02*
X142410500Y-92187691D01*
X143006000Y-92587691D02*
X142410500Y-92587691D01*
X143006000Y-92987691D02*
X142410500Y-92987691D01*
X143006000Y-93387691D02*
X142410500Y-93387691D01*
X143006000Y-93787691D02*
X142410500Y-93787691D01*
X143006000Y-94187691D02*
X142410500Y-94187691D01*
X143006000Y-94587691D02*
X142410500Y-94587691D01*
X143006000Y-94987691D02*
X142410500Y-94987691D01*
X143006000Y-95387691D02*
X142410500Y-95387691D01*
X143006000Y-95787691D02*
X142410500Y-95787691D01*
X143006000Y-96187691D02*
X142410500Y-96187691D01*
X143006000Y-96587691D02*
X142410500Y-96587691D01*
X143006000Y-96987691D02*
X142367993Y-96987691D01*
X143006000Y-97387691D02*
X142259130Y-97387691D01*
X143006000Y-97787691D02*
X141991859Y-97787691D01*
X143006000Y-98187691D02*
X141593483Y-98187691D01*
X143006000Y-98587691D02*
X141193483Y-98587691D01*
X143006000Y-98987691D02*
X141013500Y-98987691D01*
X143006000Y-99387691D02*
X140973579Y-99387691D01*
X143006000Y-99787691D02*
X140870816Y-99787691D01*
X143006000Y-100187691D02*
X140603545Y-100187691D01*
X143006000Y-100587691D02*
X140209484Y-100587691D01*
X143006000Y-100987691D02*
X139809484Y-100987691D01*
X143006000Y-101387691D02*
X140269565Y-101387691D01*
X143006000Y-101787691D02*
X140667230Y-101787691D01*
X143006000Y-102187691D02*
X140832916Y-102187691D01*
X143006000Y-102587691D02*
X140932000Y-102587691D01*
X138869500Y-102987691D02*
X138244500Y-102987691D01*
X143006000Y-102987691D02*
X140656809Y-102987691D01*
X143006000Y-103387691D02*
X137932000Y-103387691D01*
X143006000Y-103787691D02*
X137932000Y-103787691D01*
X143006000Y-104187691D02*
X140782191Y-104187691D01*
X143006000Y-104587691D02*
X140932000Y-104587691D01*
X143006000Y-104987691D02*
X140780980Y-104987691D01*
X143006000Y-105387691D02*
X140544183Y-105387691D01*
X143006000Y-105787691D02*
X140456488Y-105787691D01*
X143006000Y-106187691D02*
X140456488Y-106187691D01*
X143006000Y-106587691D02*
X140456488Y-106587691D01*
X143006000Y-106987691D02*
X140413416Y-106987691D01*
X143006000Y-107387691D02*
X140332862Y-107387691D01*
X143006000Y-107787691D02*
X140498138Y-107787691D01*
X143006000Y-108187691D02*
X140607236Y-108187691D01*
X143006000Y-108587691D02*
X140606887Y-108587691D01*
X143006000Y-108987691D02*
X140556759Y-108987691D01*
X143006000Y-109387691D02*
X140390665Y-109387691D01*
X143006000Y-109787691D02*
X140126657Y-109787691D01*
X143006000Y-110187691D02*
X139725959Y-110187691D01*
X143006000Y-110587691D02*
X137886183Y-110587691D01*
X143006000Y-110987691D02*
X137486183Y-110987691D01*
X143006000Y-111387691D02*
X137386000Y-111387691D01*
X143006000Y-111787691D02*
X137386000Y-111787691D01*
X143006000Y-112187691D02*
X137386000Y-112187691D01*
X143006000Y-112587691D02*
X137386000Y-112587691D01*
X143006000Y-112987691D02*
X137386000Y-112987691D01*
X143006000Y-113387691D02*
X137386000Y-113387691D01*
X143006000Y-113787691D02*
X137311071Y-113787691D01*
X143006000Y-114187691D02*
X137181297Y-114187691D01*
X143006000Y-114587691D02*
X136914026Y-114587691D01*
X143006000Y-114987691D02*
X136534183Y-114987691D01*
X143006000Y-115387691D02*
X136134183Y-115387691D01*
X143006000Y-115787691D02*
X135734183Y-115787691D01*
X140011253Y-116187691D02*
X135334183Y-116187691D01*
X143006000Y-116187691D02*
X141422460Y-116187691D01*
X139111814Y-116587691D02*
X134934183Y-116587691D01*
X143006000Y-116587691D02*
X142321373Y-116587691D01*
X138711115Y-116987691D02*
X134534183Y-116987691D01*
X143006000Y-116987691D02*
X142720676Y-116987691D01*
X138354683Y-117387691D02*
X134134183Y-117387691D01*
X138188589Y-117787691D02*
X133734183Y-117787691D01*
X138022494Y-118187691D02*
X133279430Y-118187691D01*
X137966247Y-118587691D02*
X132218608Y-118587691D01*
X137965898Y-118987691D02*
X128496714Y-118987691D01*
X137965549Y-119387691D02*
X128496714Y-119387691D01*
X138118851Y-119787691D02*
X128496714Y-119787691D01*
X138284127Y-120187691D02*
X128496714Y-120187691D01*
X138543000Y-120587691D02*
X128496714Y-120587691D01*
X139117514Y-79498000D02*
X92706000Y-79498000D01*
X138716816Y-79898000D02*
X92706000Y-79898000D01*
X92953712Y-80298000D02*
X92706000Y-80298000D01*
X138357047Y-80298000D02*
X97807307Y-80298000D01*
X138190952Y-80698000D02*
X98581877Y-80698000D01*
X111085913Y-81098000D02*
X98828697Y-81098000D01*
X138024857Y-81098000D02*
X112687913Y-81098000D01*
X110491605Y-81498000D02*
X98903962Y-81498000D01*
X115414345Y-81498000D02*
X113282461Y-81498000D01*
X117579500Y-81498000D02*
X116314500Y-81498000D01*
X137966252Y-81498000D02*
X118479656Y-81498000D01*
X110150372Y-81898000D02*
X98911488Y-81898000D01*
X117322000Y-81898000D02*
X116572000Y-81898000D01*
X137965903Y-81898000D02*
X119001874Y-81898000D01*
X103483126Y-82298000D02*
X98911488Y-82298000D01*
X105770500Y-82298000D02*
X104835500Y-82298000D01*
X109984277Y-82298000D02*
X107122874Y-82298000D01*
X117322000Y-82298000D02*
X116572000Y-82298000D01*
X137965554Y-82298000D02*
X119272243Y-82298000D01*
X103083126Y-82698000D02*
X98911488Y-82698000D01*
X105678000Y-82698000D02*
X104928000Y-82698000D01*
X109887203Y-82698000D02*
X109296299Y-82698000D01*
X117322000Y-82698000D02*
X116572000Y-82698000D01*
X138116499Y-82698000D02*
X119437928Y-82698000D01*
X102909413Y-83098000D02*
X98911488Y-83098000D01*
X105678000Y-83098000D02*
X104928000Y-83098000D01*
X109886854Y-83098000D02*
X109649096Y-83098000D01*
X117322000Y-83098000D02*
X116572000Y-83098000D01*
X138281776Y-83098000D02*
X119292000Y-83098000D01*
X102803000Y-83498000D02*
X98911488Y-83498000D01*
X105678000Y-83498000D02*
X104928000Y-83498000D01*
X109957277Y-83498000D02*
X109788915Y-83498000D01*
X131110699Y-83498000D02*
X116471488Y-83498000D01*
X103123000Y-83898000D02*
X98911488Y-83898000D01*
X105678000Y-83898000D02*
X104928000Y-83898000D01*
X110122553Y-83898000D02*
X109827488Y-83898000D01*
X117403500Y-83898000D02*
X116471488Y-83898000D01*
X130526824Y-83898000D02*
X118548153Y-83898000D01*
X105778512Y-84298000D02*
X98911488Y-84298000D01*
X110425654Y-84298000D02*
X109827488Y-84298000D01*
X117181000Y-84298000D02*
X116572000Y-84298000D01*
X130126824Y-84298000D02*
X119302000Y-84298000D01*
X103183000Y-84698000D02*
X98911488Y-84698000D01*
X105678000Y-84698000D02*
X104928000Y-84698000D01*
X110670331Y-84698000D02*
X109827488Y-84698000D01*
X117181000Y-84698000D02*
X116572000Y-84698000D01*
X126210889Y-84698000D02*
X119433784Y-84698000D01*
X101540126Y-85098000D02*
X98911488Y-85098000D01*
X110474352Y-85098000D02*
X109798124Y-85098000D01*
X117181000Y-85098000D02*
X116572000Y-85098000D01*
X125716826Y-85098000D02*
X119431000Y-85098000D01*
X101163731Y-85498000D02*
X99288308Y-85498000D01*
X110406512Y-85498000D02*
X109693491Y-85498000D01*
X117181000Y-85498000D02*
X116572000Y-85498000D01*
X125316826Y-85498000D02*
X119328500Y-85498000D01*
X100998046Y-85898000D02*
X99610633Y-85898000D01*
X110406512Y-85898000D02*
X109794844Y-85898000D01*
X117589500Y-85898000D02*
X116304500Y-85898000D01*
X121680582Y-85898000D02*
X118455513Y-85898000D01*
X100914000Y-86298000D02*
X99775910Y-86298000D01*
X110406512Y-86298000D02*
X109910076Y-86298000D01*
X121214825Y-86298000D02*
X115681000Y-86298000D01*
X101200500Y-86698000D02*
X99837101Y-86698000D01*
X104164000Y-86698000D02*
X103164000Y-86698000D01*
X110406512Y-86698000D02*
X109938488Y-86698000D01*
X117181000Y-86698000D02*
X116181000Y-86698000D01*
X119693249Y-86698000D02*
X119058500Y-86698000D01*
X104664000Y-87098000D02*
X99836752Y-87098000D01*
X110418742Y-87098000D02*
X109938488Y-87098000D01*
X104664000Y-87498000D02*
X99705713Y-87498000D01*
X110494817Y-87498000D02*
X109938488Y-87498000D01*
X96456093Y-87898000D02*
X92706000Y-87898000D01*
X101102500Y-87898000D02*
X99518685Y-87898000D01*
X104164000Y-87898000D02*
X103164000Y-87898000D01*
X110752210Y-87898000D02*
X109938488Y-87898000D01*
X96855395Y-88298000D02*
X92706000Y-88298000D01*
X100914000Y-88298000D02*
X99117987Y-88298000D01*
X111634147Y-88298000D02*
X109888064Y-88298000D01*
X101038638Y-88698000D02*
X92706000Y-88698000D01*
X113124763Y-88698000D02*
X109920898Y-88698000D01*
X101238126Y-89098000D02*
X92706000Y-89098000D01*
X97705975Y-89498000D02*
X92706000Y-89498000D01*
X97344338Y-89898000D02*
X92706000Y-89898000D01*
X97206051Y-90298000D02*
X92706000Y-90298000D01*
X97162512Y-90698000D02*
X92706000Y-90698000D01*
X97162512Y-91098000D02*
X92706000Y-91098000D01*
X96977126Y-91498000D02*
X92706000Y-91498000D01*
X96797555Y-91898000D02*
X92706000Y-91898000D01*
X96734500Y-92298000D02*
X92706000Y-92298000D01*
X97263686Y-92698000D02*
X92706000Y-92698000D01*
X97064500Y-93098000D02*
X92706000Y-93098000D01*
X96687000Y-93498000D02*
X92706000Y-93498000D01*
X96826549Y-93898000D02*
X92706000Y-93898000D01*
X97047126Y-94298000D02*
X92706000Y-94298000D01*
X97162512Y-94698000D02*
X92706000Y-94698000D01*
X97162512Y-95098000D02*
X92706000Y-95098000D01*
X97165550Y-95498000D02*
X92706000Y-95498000D01*
X97162512Y-95898000D02*
X92706000Y-95898000D01*
X97178505Y-96298000D02*
X92706000Y-96298000D01*
X97263686Y-96698000D02*
X92706000Y-96698000D01*
X97358004Y-97098000D02*
X92706000Y-97098000D01*
X97210101Y-97498000D02*
X92706000Y-97498000D01*
X97162512Y-97898000D02*
X92706000Y-97898000D01*
X97162512Y-98298000D02*
X92706000Y-98298000D01*
X97162512Y-98698000D02*
X92706000Y-98698000D01*
X97162512Y-99098000D02*
X92706000Y-99098000D01*
X97162512Y-99498000D02*
X92706000Y-99498000D01*
X97162512Y-99898000D02*
X92706000Y-99898000D01*
X97193558Y-100298000D02*
X92706000Y-100298000D01*
X97315165Y-100698000D02*
X92706000Y-100698000D01*
X97351171Y-101098000D02*
X92706000Y-101098000D01*
X97208076Y-101498000D02*
X92706000Y-101498000D01*
X97162512Y-101898000D02*
X92706000Y-101898000D01*
X97162512Y-102298000D02*
X92706000Y-102298000D01*
X97214256Y-102698000D02*
X92706000Y-102698000D01*
X97162512Y-103098000D02*
X92706000Y-103098000D01*
X97162512Y-103498000D02*
X92706000Y-103498000D01*
X97201085Y-103898000D02*
X92706000Y-103898000D01*
X97162512Y-104298000D02*
X92706000Y-104298000D01*
X97162512Y-104698000D02*
X92706000Y-104698000D01*
X97187913Y-105098000D02*
X92706000Y-105098000D01*
X97169600Y-105498000D02*
X92706000Y-105498000D01*
X97162512Y-105898000D02*
X92706000Y-105898000D01*
X97174742Y-106298000D02*
X92706000Y-106298000D01*
X101212825Y-106298000D02*
X101198324Y-106298000D01*
X97183776Y-106698000D02*
X92706000Y-106698000D01*
X101612825Y-106698000D02*
X101191732Y-106698000D01*
X97162512Y-107098000D02*
X92706000Y-107098000D01*
X102012825Y-107098000D02*
X101211488Y-107098000D01*
X97162512Y-107498000D02*
X92706000Y-107498000D01*
X102412825Y-107498000D02*
X101211488Y-107498000D01*
X97197951Y-107898000D02*
X92706000Y-107898000D01*
X102445500Y-107898000D02*
X101178560Y-107898000D01*
X97162512Y-108298000D02*
X92706000Y-108298000D01*
X102445500Y-108298000D02*
X101211488Y-108298000D01*
X97162512Y-108698000D02*
X92706000Y-108698000D01*
X102445500Y-108698000D02*
X101211488Y-108698000D01*
X97212126Y-109098000D02*
X92706000Y-109098000D01*
X102445500Y-109098000D02*
X101165389Y-109098000D01*
X97162512Y-109498000D02*
X92706000Y-109498000D01*
X102445500Y-109498000D02*
X101211488Y-109498000D01*
X97162512Y-109898000D02*
X92706000Y-109898000D01*
X102445500Y-109898000D02*
X101211488Y-109898000D01*
X111416825Y-109898000D02*
X111145752Y-109898000D01*
X97210493Y-110298000D02*
X92706000Y-110298000D01*
X102508356Y-110298000D02*
X101159848Y-110298000D01*
X111816825Y-110298000D02*
X111350394Y-110298000D01*
X97373078Y-110698000D02*
X92706000Y-110698000D01*
X102665230Y-110698000D02*
X101002331Y-110698000D01*
X112216825Y-110698000D02*
X111515671Y-110698000D01*
X97766879Y-111098000D02*
X92706000Y-111098000D01*
X102964826Y-111098000D02*
X100605863Y-111098000D01*
X112351500Y-111098000D02*
X111524024Y-111098000D01*
X103364826Y-111498000D02*
X92706000Y-111498000D01*
X112351500Y-111498000D02*
X111523674Y-111498000D01*
X103764826Y-111898000D02*
X92706000Y-111898000D01*
X112351500Y-111898000D02*
X111372729Y-111898000D01*
X96886066Y-112298000D02*
X92706000Y-112298000D01*
X104241508Y-112298000D02*
X99088657Y-112298000D01*
X112382729Y-112298000D02*
X111200622Y-112298000D01*
X96485367Y-112698000D02*
X92706000Y-112698000D01*
X104725087Y-112698000D02*
X99487960Y-112698000D01*
X108147645Y-112698000D02*
X107872912Y-112698000D01*
X112464990Y-112698000D02*
X110799923Y-112698000D01*
X105395360Y-113098000D02*
X99693272Y-113098000D01*
X108879863Y-113098000D02*
X107202639Y-113098000D01*
X112732261Y-113098000D02*
X110067194Y-113098000D01*
X107235676Y-113498000D02*
X99837276Y-113498000D01*
X113111826Y-113498000D02*
X109171418Y-113498000D01*
X106722806Y-113898000D02*
X99836927Y-113898000D01*
X106407004Y-114298000D02*
X99788761Y-114298000D01*
X106240910Y-114698000D02*
X99622666Y-114698000D01*
X106154190Y-115098000D02*
X99318336Y-115098000D01*
X106153841Y-115498000D02*
X98911488Y-115498000D01*
X106226374Y-115898000D02*
X98911488Y-115898000D01*
X106391650Y-116298000D02*
X98911488Y-116298000D01*
X106686978Y-116698000D02*
X98911488Y-116698000D01*
X107149884Y-117098000D02*
X98911488Y-117098000D01*
X108470877Y-117498000D02*
X98911488Y-117498000D01*
X108636153Y-117898000D02*
X98911488Y-117898000D01*
X108992495Y-118298000D02*
X98911488Y-118298000D01*
X109622294Y-118698000D02*
X98911488Y-118698000D01*
X111025286Y-119098000D02*
X98909462Y-119098000D01*
X111025286Y-119498000D02*
X98828460Y-119498000D01*
X111025286Y-119898000D02*
X98596424Y-119898000D01*
X92818549Y-120298000D02*
X92706000Y-120298000D01*
X111025286Y-120298000D02*
X97979725Y-120298000D01*
X126860503Y-101135500D02*
X121293055Y-101135500D01*
X126739621Y-101535500D02*
X121420945Y-101535500D01*
X126703412Y-101935500D02*
X121454588Y-101935500D01*
X125291600Y-102335500D02*
X122866400Y-102335500D01*
X125079000Y-102735500D02*
X123079000Y-102735500D01*
X125079000Y-103135500D02*
X123079000Y-103135500D01*
X125079000Y-103535500D02*
X123079000Y-103535500D01*
X125079000Y-103935500D02*
X123079000Y-103935500D01*
X125079000Y-104335500D02*
X123079000Y-104335500D01*
X125079000Y-104735500D02*
X123079000Y-104735500D01*
X125079000Y-105135500D02*
X123079000Y-105135500D01*
X125079000Y-105535500D02*
X123079000Y-105535500D01*
X125099000Y-105935500D02*
X123059000Y-105935500D01*
X125099000Y-106335500D02*
X123059000Y-106335500D01*
X125099000Y-106735500D02*
X123059000Y-106735500D01*
X125099000Y-107135500D02*
X123059000Y-107135500D01*
X125099000Y-107535500D02*
X123059000Y-107535500D01*
X125079000Y-107935500D02*
X123079000Y-107935500D01*
X125079000Y-108335500D02*
X123079000Y-108335500D01*
X125079000Y-108735500D02*
X123079000Y-108735500D01*
X125079000Y-109135500D02*
X123079000Y-109135500D01*
X125079000Y-109535500D02*
X123079000Y-109535500D01*
X125079000Y-109935500D02*
X123079000Y-109935500D01*
X125079000Y-110335500D02*
X123079000Y-110335500D01*
X125079000Y-110735500D02*
X123079000Y-110735500D01*
X125148600Y-111135500D02*
X123009400Y-111135500D01*
X126703412Y-111535500D02*
X121454588Y-111535500D01*
X125280626Y-111935500D02*
X121447338Y-111935500D01*
X124899837Y-112335500D02*
X121366335Y-112335500D01*
X124734153Y-112735500D02*
X121121896Y-112735500D01*
X118388854Y-113135500D02*
X118323334Y-113135500D01*
X124647000Y-113135500D02*
X120385709Y-113135500D01*
X124647000Y-113535500D02*
X117923334Y-113535500D01*
X112625737Y-92428000D02*
X111311581Y-92428000D01*
X112544735Y-92828000D02*
X111474340Y-92828000D01*
X112542912Y-93228000D02*
X111473991Y-93228000D01*
X112542912Y-93628000D02*
X111469321Y-93628000D01*
X112542912Y-94028000D02*
X111303226Y-94028000D01*
X112542912Y-94428000D02*
X111092784Y-94428000D01*
X112542912Y-94828000D02*
X110692086Y-94828000D01*
X112610462Y-95228000D02*
X108779801Y-95228000D01*
X112820401Y-95628000D02*
X105370171Y-95628000D01*
X113299488Y-96028000D02*
X105609635Y-96028000D01*
X113337670Y-96428000D02*
X108680800Y-96428000D01*
X110240476Y-96828000D02*
X108877745Y-96828000D01*
X113038165Y-96828000D02*
X111755564Y-96828000D01*
X109620637Y-97228000D02*
X108652360Y-97228000D01*
X112638165Y-97228000D02*
X112375493Y-97228000D01*
X117652800Y-89281000D02*
X116789200Y-89281000D01*
X117652800Y-89681000D02*
X116789200Y-89681000D01*
X117651221Y-90081000D02*
X116790780Y-90081000D01*
X117647400Y-90481000D02*
X116794600Y-90481000D01*
X117652800Y-90881000D02*
X116789200Y-90881000D01*
X117652800Y-91281000D02*
X116789200Y-91281000D01*
X112542912Y-92837000D02*
X112542912Y-94869000D01*
X112630073Y-95332222D01*
X112903837Y-95757663D01*
X113321553Y-96043076D01*
X113337670Y-96046340D01*
X113337670Y-96528495D01*
X112506714Y-97359451D01*
X112132388Y-96984471D01*
X111397570Y-96679348D01*
X110601921Y-96678654D01*
X109866571Y-96982494D01*
X109610118Y-97238500D01*
X108643736Y-97238500D01*
X108746729Y-97113109D01*
X108929800Y-96714722D01*
X108584229Y-96316800D01*
X106807000Y-96316800D01*
X106807000Y-96373303D01*
X106495794Y-96311400D01*
X106102206Y-96311400D01*
X105791000Y-96373303D01*
X105791000Y-96316800D01*
X105667081Y-96316800D01*
X105597848Y-95968745D01*
X105424190Y-95708847D01*
X105285587Y-95501412D01*
X105283000Y-95498825D01*
X105283000Y-95453200D01*
X105791000Y-95453200D01*
X105791000Y-95396697D01*
X106102206Y-95458600D01*
X106495794Y-95458600D01*
X106807000Y-95396697D01*
X106807000Y-95453200D01*
X108584229Y-95453200D01*
X108864493Y-95130479D01*
X109074430Y-95217652D01*
X109870079Y-95218346D01*
X110605429Y-94914506D01*
X111168529Y-94352388D01*
X111473652Y-93617570D01*
X111474346Y-92821921D01*
X111311581Y-92428000D01*
X112625737Y-92428000D01*
X112542912Y-92837000D01*
X143006000Y-83387691D02*
X143006000Y-83387691D01*
X143006000Y-83787691D02*
X142605301Y-83787691D01*
X143006000Y-84187691D02*
X142109574Y-84187691D01*
X143006000Y-84587691D02*
X139837865Y-84587691D01*
X143006000Y-84987691D02*
X140237865Y-84987691D01*
X143006000Y-85387691D02*
X140637865Y-85387691D01*
X143006000Y-85787691D02*
X141037865Y-85787691D01*
X143006000Y-86187691D02*
X141437865Y-86187691D01*
X143006000Y-86587691D02*
X141837865Y-86587691D01*
X143006000Y-86987691D02*
X142155150Y-86987691D01*
X143006000Y-87387691D02*
X142337040Y-87387691D01*
X143006000Y-87787691D02*
X142410500Y-87787691D01*
X143006000Y-88187691D02*
X142410500Y-88187691D01*
X143006000Y-88587691D02*
X142410500Y-88587691D01*
X143006000Y-88987691D02*
X142410500Y-88987691D01*
X143006000Y-89387691D02*
X142410500Y-89387691D01*
X143006000Y-89787691D02*
X142410500Y-89787691D01*
X143006000Y-90187691D02*
X142410500Y-90187691D01*
X143006000Y-90587691D02*
X142410500Y-90587691D01*
X143006000Y-90987691D02*
X142410500Y-90987691D01*
X143006000Y-91387691D02*
X142410500Y-91387691D01*
X143006000Y-91787691D02*
X142410500Y-91787691D01*
X143006000Y-92187691D02*
X142410500Y-92187691D01*
X143006000Y-92587691D02*
X142410500Y-92587691D01*
X143006000Y-92987691D02*
X142410500Y-92987691D01*
X143006000Y-93387691D02*
X142410500Y-93387691D01*
X143006000Y-93787691D02*
X142410500Y-93787691D01*
X143006000Y-94187691D02*
X142410500Y-94187691D01*
X143006000Y-94587691D02*
X142410500Y-94587691D01*
X143006000Y-94987691D02*
X142410500Y-94987691D01*
X143006000Y-95387691D02*
X142410500Y-95387691D01*
X143006000Y-95787691D02*
X142410500Y-95787691D01*
X143006000Y-96187691D02*
X142410500Y-96187691D01*
X143006000Y-96587691D02*
X142410500Y-96587691D01*
X143006000Y-96987691D02*
X142367993Y-96987691D01*
X143006000Y-97387691D02*
X142259130Y-97387691D01*
X143006000Y-97787691D02*
X141991859Y-97787691D01*
X143006000Y-98187691D02*
X141593483Y-98187691D01*
X143006000Y-98587691D02*
X141193483Y-98587691D01*
X143006000Y-98987691D02*
X141013500Y-98987691D01*
X143006000Y-99387691D02*
X140973579Y-99387691D01*
X143006000Y-99787691D02*
X140870816Y-99787691D01*
X143006000Y-100187691D02*
X140603545Y-100187691D01*
X143006000Y-100587691D02*
X140209484Y-100587691D01*
X143006000Y-100987691D02*
X139809484Y-100987691D01*
X143006000Y-101387691D02*
X140269565Y-101387691D01*
X143006000Y-101787691D02*
X140667230Y-101787691D01*
X143006000Y-102187691D02*
X140832916Y-102187691D01*
X143006000Y-102587691D02*
X140932000Y-102587691D01*
X138869500Y-102987691D02*
X138244500Y-102987691D01*
X143006000Y-102987691D02*
X140656809Y-102987691D01*
X143006000Y-103387691D02*
X137932000Y-103387691D01*
X143006000Y-103787691D02*
X137932000Y-103787691D01*
X143006000Y-104187691D02*
X140782191Y-104187691D01*
X143006000Y-104587691D02*
X140932000Y-104587691D01*
X143006000Y-104987691D02*
X140780980Y-104987691D01*
X143006000Y-105387691D02*
X140544183Y-105387691D01*
X143006000Y-105787691D02*
X140456488Y-105787691D01*
X143006000Y-106187691D02*
X140456488Y-106187691D01*
X143006000Y-106587691D02*
X140456488Y-106587691D01*
X143006000Y-106987691D02*
X140413416Y-106987691D01*
X143006000Y-107387691D02*
X140332862Y-107387691D01*
X143006000Y-107787691D02*
X140498138Y-107787691D01*
X143006000Y-108187691D02*
X140607236Y-108187691D01*
X143006000Y-108587691D02*
X140606887Y-108587691D01*
X143006000Y-108987691D02*
X140556759Y-108987691D01*
X143006000Y-109387691D02*
X140390665Y-109387691D01*
X143006000Y-109787691D02*
X140126657Y-109787691D01*
X143006000Y-110187691D02*
X139725959Y-110187691D01*
X143006000Y-110587691D02*
X137886183Y-110587691D01*
X143006000Y-110987691D02*
X137486183Y-110987691D01*
X143006000Y-111387691D02*
X137386000Y-111387691D01*
X143006000Y-111787691D02*
X137386000Y-111787691D01*
X143006000Y-112187691D02*
X137386000Y-112187691D01*
X143006000Y-112587691D02*
X137386000Y-112587691D01*
X143006000Y-112987691D02*
X137386000Y-112987691D01*
X143006000Y-113387691D02*
X137386000Y-113387691D01*
X143006000Y-113787691D02*
X137311071Y-113787691D01*
X143006000Y-114187691D02*
X137181297Y-114187691D01*
X143006000Y-114587691D02*
X136914026Y-114587691D01*
X143006000Y-114987691D02*
X136534183Y-114987691D01*
X143006000Y-115387691D02*
X136134183Y-115387691D01*
X143006000Y-115787691D02*
X135734183Y-115787691D01*
X140011253Y-116187691D02*
X135334183Y-116187691D01*
X143006000Y-116187691D02*
X141422460Y-116187691D01*
X139111814Y-116587691D02*
X134934183Y-116587691D01*
X143006000Y-116587691D02*
X142321373Y-116587691D01*
X138711115Y-116987691D02*
X134534183Y-116987691D01*
X143006000Y-116987691D02*
X142720676Y-116987691D01*
X138354683Y-117387691D02*
X134134183Y-117387691D01*
X138188589Y-117787691D02*
X133734183Y-117787691D01*
X138022494Y-118187691D02*
X133279430Y-118187691D01*
X137966247Y-118587691D02*
X132218608Y-118587691D01*
X137965898Y-118987691D02*
X128496714Y-118987691D01*
X137965549Y-119387691D02*
X128496714Y-119387691D01*
X138118851Y-119787691D02*
X128496714Y-119787691D01*
X138284127Y-120187691D02*
X128496714Y-120187691D01*
X138543000Y-120587691D02*
X128496714Y-120587691D01*
X139117514Y-79498000D02*
X92706000Y-79498000D01*
X138716816Y-79898000D02*
X92706000Y-79898000D01*
X92953712Y-80298000D02*
X92706000Y-80298000D01*
X138357047Y-80298000D02*
X97807307Y-80298000D01*
X138190952Y-80698000D02*
X98581877Y-80698000D01*
X111085913Y-81098000D02*
X98828697Y-81098000D01*
X138024857Y-81098000D02*
X112687913Y-81098000D01*
X110491605Y-81498000D02*
X98903962Y-81498000D01*
X115414345Y-81498000D02*
X113282461Y-81498000D01*
X117579500Y-81498000D02*
X116314500Y-81498000D01*
X137966252Y-81498000D02*
X118479656Y-81498000D01*
X110150372Y-81898000D02*
X98911488Y-81898000D01*
X117322000Y-81898000D02*
X116572000Y-81898000D01*
X137965903Y-81898000D02*
X119001874Y-81898000D01*
X103483126Y-82298000D02*
X98911488Y-82298000D01*
X105770500Y-82298000D02*
X104835500Y-82298000D01*
X109984277Y-82298000D02*
X107122874Y-82298000D01*
X117322000Y-82298000D02*
X116572000Y-82298000D01*
X137965554Y-82298000D02*
X119272243Y-82298000D01*
X103083126Y-82698000D02*
X98911488Y-82698000D01*
X105678000Y-82698000D02*
X104928000Y-82698000D01*
X109887203Y-82698000D02*
X109296299Y-82698000D01*
X117322000Y-82698000D02*
X116572000Y-82698000D01*
X138116499Y-82698000D02*
X119437928Y-82698000D01*
X102909413Y-83098000D02*
X98911488Y-83098000D01*
X105678000Y-83098000D02*
X104928000Y-83098000D01*
X109886854Y-83098000D02*
X109649096Y-83098000D01*
X117322000Y-83098000D02*
X116572000Y-83098000D01*
X138281776Y-83098000D02*
X119292000Y-83098000D01*
X102803000Y-83498000D02*
X98911488Y-83498000D01*
X105678000Y-83498000D02*
X104928000Y-83498000D01*
X109957277Y-83498000D02*
X109788915Y-83498000D01*
X131110699Y-83498000D02*
X116471488Y-83498000D01*
X103123000Y-83898000D02*
X98911488Y-83898000D01*
X105678000Y-83898000D02*
X104928000Y-83898000D01*
X110122553Y-83898000D02*
X109827488Y-83898000D01*
X117403500Y-83898000D02*
X116471488Y-83898000D01*
X130526824Y-83898000D02*
X118548153Y-83898000D01*
X105778512Y-84298000D02*
X98911488Y-84298000D01*
X110425654Y-84298000D02*
X109827488Y-84298000D01*
X117181000Y-84298000D02*
X116572000Y-84298000D01*
X130126824Y-84298000D02*
X119302000Y-84298000D01*
X103183000Y-84698000D02*
X98911488Y-84698000D01*
X105678000Y-84698000D02*
X104928000Y-84698000D01*
X110670331Y-84698000D02*
X109827488Y-84698000D01*
X117181000Y-84698000D02*
X116572000Y-84698000D01*
X126210889Y-84698000D02*
X119433784Y-84698000D01*
X101540126Y-85098000D02*
X98911488Y-85098000D01*
X110474352Y-85098000D02*
X109798124Y-85098000D01*
X117181000Y-85098000D02*
X116572000Y-85098000D01*
X125716826Y-85098000D02*
X119431000Y-85098000D01*
X101163731Y-85498000D02*
X99288308Y-85498000D01*
X110406512Y-85498000D02*
X109693491Y-85498000D01*
X117181000Y-85498000D02*
X116572000Y-85498000D01*
X125316826Y-85498000D02*
X119328500Y-85498000D01*
X100998046Y-85898000D02*
X99610633Y-85898000D01*
X110406512Y-85898000D02*
X109794844Y-85898000D01*
X117589500Y-85898000D02*
X116304500Y-85898000D01*
X121680582Y-85898000D02*
X118455513Y-85898000D01*
X100914000Y-86298000D02*
X99775910Y-86298000D01*
X110406512Y-86298000D02*
X109910076Y-86298000D01*
X121214825Y-86298000D02*
X115681000Y-86298000D01*
X101200500Y-86698000D02*
X99837101Y-86698000D01*
X104164000Y-86698000D02*
X103164000Y-86698000D01*
X110406512Y-86698000D02*
X109938488Y-86698000D01*
X117181000Y-86698000D02*
X116181000Y-86698000D01*
X119693249Y-86698000D02*
X119058500Y-86698000D01*
X104664000Y-87098000D02*
X99836752Y-87098000D01*
X110418742Y-87098000D02*
X109938488Y-87098000D01*
X104664000Y-87498000D02*
X99705713Y-87498000D01*
X110494817Y-87498000D02*
X109938488Y-87498000D01*
X96456093Y-87898000D02*
X92706000Y-87898000D01*
X101102500Y-87898000D02*
X99518685Y-87898000D01*
X104164000Y-87898000D02*
X103164000Y-87898000D01*
X110752210Y-87898000D02*
X109938488Y-87898000D01*
X96855395Y-88298000D02*
X92706000Y-88298000D01*
X100914000Y-88298000D02*
X99117987Y-88298000D01*
X111634147Y-88298000D02*
X109888064Y-88298000D01*
X101038638Y-88698000D02*
X92706000Y-88698000D01*
X113124763Y-88698000D02*
X109920898Y-88698000D01*
X101238126Y-89098000D02*
X92706000Y-89098000D01*
X97705975Y-89498000D02*
X92706000Y-89498000D01*
X97344338Y-89898000D02*
X92706000Y-89898000D01*
X97206051Y-90298000D02*
X92706000Y-90298000D01*
X97162512Y-90698000D02*
X92706000Y-90698000D01*
X97162512Y-91098000D02*
X92706000Y-91098000D01*
X96977126Y-91498000D02*
X92706000Y-91498000D01*
X96797555Y-91898000D02*
X92706000Y-91898000D01*
X96734500Y-92298000D02*
X92706000Y-92298000D01*
X97263686Y-92698000D02*
X92706000Y-92698000D01*
X97064500Y-93098000D02*
X92706000Y-93098000D01*
X96687000Y-93498000D02*
X92706000Y-93498000D01*
X96826549Y-93898000D02*
X92706000Y-93898000D01*
X97047126Y-94298000D02*
X92706000Y-94298000D01*
X97162512Y-94698000D02*
X92706000Y-94698000D01*
X97162512Y-95098000D02*
X92706000Y-95098000D01*
X97165550Y-95498000D02*
X92706000Y-95498000D01*
X97162512Y-95898000D02*
X92706000Y-95898000D01*
X97178505Y-96298000D02*
X92706000Y-96298000D01*
X97263686Y-96698000D02*
X92706000Y-96698000D01*
X97358004Y-97098000D02*
X92706000Y-97098000D01*
X97210101Y-97498000D02*
X92706000Y-97498000D01*
X97162512Y-97898000D02*
X92706000Y-97898000D01*
X97162512Y-98298000D02*
X92706000Y-98298000D01*
X97162512Y-98698000D02*
X92706000Y-98698000D01*
X97162512Y-99098000D02*
X92706000Y-99098000D01*
X97162512Y-99498000D02*
X92706000Y-99498000D01*
X97162512Y-99898000D02*
X92706000Y-99898000D01*
X97193558Y-100298000D02*
X92706000Y-100298000D01*
X97315165Y-100698000D02*
X92706000Y-100698000D01*
X97351171Y-101098000D02*
X92706000Y-101098000D01*
X97208076Y-101498000D02*
X92706000Y-101498000D01*
X97162512Y-101898000D02*
X92706000Y-101898000D01*
X97162512Y-102298000D02*
X92706000Y-102298000D01*
X97214256Y-102698000D02*
X92706000Y-102698000D01*
X97162512Y-103098000D02*
X92706000Y-103098000D01*
X97162512Y-103498000D02*
X92706000Y-103498000D01*
X97201085Y-103898000D02*
X92706000Y-103898000D01*
X97162512Y-104298000D02*
X92706000Y-104298000D01*
X97162512Y-104698000D02*
X92706000Y-104698000D01*
X97187913Y-105098000D02*
X92706000Y-105098000D01*
X97169600Y-105498000D02*
X92706000Y-105498000D01*
X97162512Y-105898000D02*
X92706000Y-105898000D01*
X97174742Y-106298000D02*
X92706000Y-106298000D01*
X101212825Y-106298000D02*
X101198324Y-106298000D01*
X97183776Y-106698000D02*
X92706000Y-106698000D01*
X101612825Y-106698000D02*
X101191732Y-106698000D01*
X97162512Y-107098000D02*
X92706000Y-107098000D01*
X102012825Y-107098000D02*
X101211488Y-107098000D01*
X97162512Y-107498000D02*
X92706000Y-107498000D01*
X102412825Y-107498000D02*
X101211488Y-107498000D01*
X97197951Y-107898000D02*
X92706000Y-107898000D01*
X102445500Y-107898000D02*
X101178560Y-107898000D01*
X97162512Y-108298000D02*
X92706000Y-108298000D01*
X102445500Y-108298000D02*
X101211488Y-108298000D01*
X97162512Y-108698000D02*
X92706000Y-108698000D01*
X102445500Y-108698000D02*
X101211488Y-108698000D01*
X97212126Y-109098000D02*
X92706000Y-109098000D01*
X102445500Y-109098000D02*
X101165389Y-109098000D01*
X97162512Y-109498000D02*
X92706000Y-109498000D01*
X102445500Y-109498000D02*
X101211488Y-109498000D01*
X97162512Y-109898000D02*
X92706000Y-109898000D01*
X102445500Y-109898000D02*
X101211488Y-109898000D01*
X111416825Y-109898000D02*
X111145752Y-109898000D01*
X97210493Y-110298000D02*
X92706000Y-110298000D01*
X102508356Y-110298000D02*
X101159848Y-110298000D01*
X111816825Y-110298000D02*
X111350394Y-110298000D01*
X97373078Y-110698000D02*
X92706000Y-110698000D01*
X102665230Y-110698000D02*
X101002331Y-110698000D01*
X112216825Y-110698000D02*
X111515671Y-110698000D01*
X97766879Y-111098000D02*
X92706000Y-111098000D01*
X102964826Y-111098000D02*
X100605863Y-111098000D01*
X112351500Y-111098000D02*
X111524024Y-111098000D01*
X103364826Y-111498000D02*
X92706000Y-111498000D01*
X112351500Y-111498000D02*
X111523674Y-111498000D01*
X103764826Y-111898000D02*
X92706000Y-111898000D01*
X112351500Y-111898000D02*
X111372729Y-111898000D01*
X96886066Y-112298000D02*
X92706000Y-112298000D01*
X104241508Y-112298000D02*
X99088657Y-112298000D01*
X112382729Y-112298000D02*
X111200622Y-112298000D01*
X96485367Y-112698000D02*
X92706000Y-112698000D01*
X104725087Y-112698000D02*
X99487960Y-112698000D01*
X108147645Y-112698000D02*
X107872912Y-112698000D01*
X112464990Y-112698000D02*
X110799923Y-112698000D01*
X105395360Y-113098000D02*
X99693272Y-113098000D01*
X108879863Y-113098000D02*
X107202639Y-113098000D01*
X112732261Y-113098000D02*
X110067194Y-113098000D01*
X107235676Y-113498000D02*
X99837276Y-113498000D01*
X113111826Y-113498000D02*
X109171418Y-113498000D01*
X106722806Y-113898000D02*
X99836927Y-113898000D01*
X106407004Y-114298000D02*
X99788761Y-114298000D01*
X106240910Y-114698000D02*
X99622666Y-114698000D01*
X106154190Y-115098000D02*
X99318336Y-115098000D01*
X106153841Y-115498000D02*
X98911488Y-115498000D01*
X106226374Y-115898000D02*
X98911488Y-115898000D01*
X106391650Y-116298000D02*
X98911488Y-116298000D01*
X106686978Y-116698000D02*
X98911488Y-116698000D01*
X107149884Y-117098000D02*
X98911488Y-117098000D01*
X108470877Y-117498000D02*
X98911488Y-117498000D01*
X108636153Y-117898000D02*
X98911488Y-117898000D01*
X108992495Y-118298000D02*
X98911488Y-118298000D01*
X109622294Y-118698000D02*
X98911488Y-118698000D01*
X111025286Y-119098000D02*
X98909462Y-119098000D01*
X111025286Y-119498000D02*
X98828460Y-119498000D01*
X111025286Y-119898000D02*
X98596424Y-119898000D01*
X92818549Y-120298000D02*
X92706000Y-120298000D01*
X111025286Y-120298000D02*
X97979725Y-120298000D01*
X126860503Y-101135500D02*
X121293055Y-101135500D01*
X126739621Y-101535500D02*
X121420945Y-101535500D01*
X126703412Y-101935500D02*
X121454588Y-101935500D01*
X125291600Y-102335500D02*
X122866400Y-102335500D01*
X125079000Y-102735500D02*
X123079000Y-102735500D01*
X125079000Y-103135500D02*
X123079000Y-103135500D01*
X125079000Y-103535500D02*
X123079000Y-103535500D01*
X125079000Y-103935500D02*
X123079000Y-103935500D01*
X125079000Y-104335500D02*
X123079000Y-104335500D01*
X125079000Y-104735500D02*
X123079000Y-104735500D01*
X125079000Y-105135500D02*
X123079000Y-105135500D01*
X125079000Y-105535500D02*
X123079000Y-105535500D01*
X125099000Y-105935500D02*
X123059000Y-105935500D01*
X125099000Y-106335500D02*
X123059000Y-106335500D01*
X125099000Y-106735500D02*
X123059000Y-106735500D01*
X125099000Y-107135500D02*
X123059000Y-107135500D01*
X125099000Y-107535500D02*
X123059000Y-107535500D01*
X125079000Y-107935500D02*
X123079000Y-107935500D01*
X125079000Y-108335500D02*
X123079000Y-108335500D01*
X125079000Y-108735500D02*
X123079000Y-108735500D01*
X125079000Y-109135500D02*
X123079000Y-109135500D01*
X125079000Y-109535500D02*
X123079000Y-109535500D01*
X125079000Y-109935500D02*
X123079000Y-109935500D01*
X125079000Y-110335500D02*
X123079000Y-110335500D01*
X125079000Y-110735500D02*
X123079000Y-110735500D01*
X125148600Y-111135500D02*
X123009400Y-111135500D01*
X126703412Y-111535500D02*
X121454588Y-111535500D01*
X125280626Y-111935500D02*
X121447338Y-111935500D01*
X124899837Y-112335500D02*
X121366335Y-112335500D01*
X124734153Y-112735500D02*
X121121896Y-112735500D01*
X118388854Y-113135500D02*
X118323334Y-113135500D01*
X124647000Y-113135500D02*
X120385709Y-113135500D01*
X124647000Y-113535500D02*
X117923334Y-113535500D01*
X112625737Y-92428000D02*
X111311581Y-92428000D01*
X112544735Y-92828000D02*
X111474340Y-92828000D01*
X112542912Y-93228000D02*
X111473991Y-93228000D01*
X112542912Y-93628000D02*
X111469321Y-93628000D01*
X112542912Y-94028000D02*
X111303226Y-94028000D01*
X112542912Y-94428000D02*
X111092784Y-94428000D01*
X112542912Y-94828000D02*
X110692086Y-94828000D01*
X112610462Y-95228000D02*
X108779801Y-95228000D01*
X112820401Y-95628000D02*
X105370171Y-95628000D01*
X113299488Y-96028000D02*
X105609635Y-96028000D01*
X113337670Y-96428000D02*
X108680800Y-96428000D01*
X110240476Y-96828000D02*
X108877745Y-96828000D01*
X113038165Y-96828000D02*
X111755564Y-96828000D01*
X109620637Y-97228000D02*
X108652360Y-97228000D01*
X112638165Y-97228000D02*
X112375493Y-97228000D01*
X117652800Y-89281000D02*
X116789200Y-89281000D01*
X117652800Y-89681000D02*
X116789200Y-89681000D01*
X117651221Y-90081000D02*
X116790780Y-90081000D01*
X117647400Y-90481000D02*
X116794600Y-90481000D01*
X117652800Y-90881000D02*
X116789200Y-90881000D01*
X117652800Y-91281000D02*
X116789200Y-91281000D01*
X117652800Y-89789000D02*
X117709303Y-89789000D01*
X117647400Y-90100206D01*
X117647400Y-90493794D01*
X117709303Y-90805000D01*
X117652800Y-90805000D01*
X117652800Y-91313000D01*
X116789200Y-91313000D01*
X116789200Y-90805000D01*
X116732697Y-90805000D01*
X116794600Y-90493794D01*
X116794600Y-90100206D01*
X116732697Y-89789000D01*
X116789200Y-89789000D01*
X116789200Y-89281000D01*
X117652800Y-89281000D01*
X117652800Y-89789000D01*
M02*
