M48
;DRILL file {KiCad 4.0.6-e0-6349~53~ubuntu14.04.1} date Thu Nov 23 15:24:09 2017
;FORMAT={-:-/ absolute / metric / decimal}
FMAT,2
METRIC,TZ
T1C0.300
T2C0.400
T3C1.016
T4C1.500
%
G90
G05
M71
T1
X106.299Y-114.046
X109.474Y-90.678
X109.474Y-93.218
X110.363Y-116.84
X110.998Y-98.679
X111.887Y-82.931
X111.887Y-94.361
X115.57Y-107.188
X115.57Y-111.252
X119.761Y-85.09
X131.318Y-106.934
X131.953Y-102.87
X132.461Y-110.363
T2
X108.204Y-115.316
X109.474Y-108.585
X109.474Y-111.125
X110.236Y-103.505
X110.363Y-100.965
X110.49Y-106.045
X116.205Y-102.489
X117.094Y-106.045
X124.206Y-106.934
X132.461Y-113.792
X133.223Y-106.172
X138.557Y-108.458
T3
X106.299Y-90.805
X106.299Y-93.345
X106.299Y-95.885
X106.299Y-98.425
X106.299Y-100.965
X106.299Y-103.505
X106.299Y-106.045
X106.299Y-108.585
X106.299Y-111.125
X114.681Y-90.297
X114.681Y-93.853
X117.221Y-90.297
X117.221Y-93.853
X119.761Y-90.297
X119.761Y-93.853
X122.301Y-90.297
X122.301Y-93.853
X124.841Y-90.297
X124.841Y-93.853
X127.381Y-90.297
X127.381Y-93.853
X129.921Y-90.297
X129.921Y-93.853
X132.461Y-90.297
X132.461Y-93.853
X135.001Y-90.297
X135.001Y-93.853
T4
X140.716Y-81.788
X140.716Y-118.872
T0
M30
