M48
;DRILL file {KiCad 4.0.6-e0-6349~53~ubuntu14.04.1} date Fri Oct 20 09:00:26 2017
;FORMAT={-:-/ absolute / inch / decimal}
FMAT,2
INCH,TZ
T1C0.012
T2C0.035
T3C0.040
T4C0.091
%
G90
G05
M72
T1
X4.5039Y-3.2961
X4.5091Y-2.8943
X4.5091Y-3.0939
X4.573Y-3.7439
X4.5935Y-3.2065
X4.6677Y-3.7567
X4.6754Y-3.575
X5.223Y-3.7388
X5.328Y-3.6339
T2
X4.0778Y-2.7978
X4.0778Y-3.8608
T3
X4.4Y-2.895
X4.4Y-2.995
X4.4Y-3.095
X4.4Y-3.195
X4.4Y-3.295
X4.4Y-3.395
X4.4Y-3.495
X4.4Y-3.595
X4.4Y-3.695
X4.4Y-3.795
X4.4Y-3.895
X6.3541Y-3.9102
X6.3567Y-3.7106
X6.3593Y-4.1124
X6.3669Y-3.5213
X6.3772Y-3.3063
X6.3823Y-2.6768
X6.3823Y-2.8943
X6.3848Y-3.1093
X6.4541Y-3.9102
X6.4567Y-3.7106
X6.4593Y-4.1124
X6.4669Y-3.5213
X6.4772Y-3.3063
X6.4823Y-2.6768
X6.4823Y-2.8943
X6.4848Y-3.1093
T4
X4.0226Y-2.6856
X4.0226Y-3.973
T0
M30
