G04 #@! TF.FileFunction,Copper,L1,Top,Signal*
%FSLAX46Y46*%
G04 Gerber Fmt 4.6, Leading zero omitted, Abs format (unit mm)*
G04 Created by KiCad (PCBNEW 4.0.5+dfsg1-4~bpo8+1) date Thu Oct 19 12:35:36 2017*
%MOMM*%
%LPD*%
G01*
G04 APERTURE LIST*
%ADD10C,0.100000*%
%ADD11R,1.250000X1.500000*%
%ADD12R,1.500000X1.250000*%
%ADD13R,1.198880X1.198880*%
%ADD14R,2.032000X1.727200*%
%ADD15O,2.032000X1.727200*%
%ADD16R,2.032000X2.032000*%
%ADD17O,2.032000X2.032000*%
%ADD18R,1.500000X1.300000*%
%ADD19R,1.300000X1.500000*%
%ADD20R,1.900000X0.600000*%
%ADD21R,1.500000X2.400000*%
%ADD22R,1.500000X0.700000*%
%ADD23C,1.200000*%
%ADD24R,4.500000X4.850000*%
%ADD25C,1.500000*%
%ADD26C,0.500000*%
%ADD27C,1.000000*%
%ADD28C,0.250000*%
G04 APERTURE END LIST*
D10*
D11*
X115895000Y-98395000D03*
X115895000Y-100895000D03*
X119990000Y-98395000D03*
X119990000Y-100895000D03*
X135330000Y-95080000D03*
X135330000Y-97580000D03*
D12*
X146755000Y-103285000D03*
X149255000Y-103285000D03*
X146820000Y-88530000D03*
X149320000Y-88530000D03*
X147145000Y-96005000D03*
X149645000Y-96005000D03*
X147340000Y-81055000D03*
X149840000Y-81055000D03*
X146885000Y-92300000D03*
X149385000Y-92300000D03*
X147340000Y-76895000D03*
X149840000Y-76895000D03*
X146755000Y-99645000D03*
X149255000Y-99645000D03*
X147080000Y-84760000D03*
X149580000Y-84760000D03*
X141648500Y-72961500D03*
X139148500Y-72961500D03*
X124249500Y-72644000D03*
X121749500Y-72644000D03*
X141458000Y-70294500D03*
X138958000Y-70294500D03*
X124313000Y-70040500D03*
X121813000Y-70040500D03*
X150665500Y-73088500D03*
X148165500Y-73088500D03*
X130663000Y-72453500D03*
X128163000Y-72453500D03*
X150856000Y-70231000D03*
X148356000Y-70231000D03*
X130663000Y-70040500D03*
X128163000Y-70040500D03*
D13*
X126880000Y-101325980D03*
X126880000Y-103424020D03*
D14*
X111760000Y-73533000D03*
D15*
X111760000Y-76073000D03*
X111760000Y-78613000D03*
X111760000Y-81153000D03*
X111760000Y-83693000D03*
X111760000Y-86233000D03*
X111760000Y-88773000D03*
X111760000Y-91313000D03*
X111760000Y-93853000D03*
X111760000Y-96393000D03*
X111760000Y-98933000D03*
D16*
X162110000Y-67990000D03*
D17*
X164650000Y-67990000D03*
D16*
X162110000Y-73515000D03*
D17*
X164650000Y-73515000D03*
D16*
X162175000Y-78975000D03*
D17*
X164715000Y-78975000D03*
D16*
X161980000Y-83980000D03*
D17*
X164520000Y-83980000D03*
D16*
X161720000Y-89440000D03*
D17*
X164260000Y-89440000D03*
D16*
X161460000Y-94250000D03*
D17*
X164000000Y-94250000D03*
D16*
X161395000Y-99320000D03*
D17*
X163935000Y-99320000D03*
D16*
X161525000Y-104455000D03*
D17*
X164065000Y-104455000D03*
D18*
X125660000Y-96135000D03*
X128360000Y-96135000D03*
D19*
X123370000Y-100700000D03*
X123370000Y-103400000D03*
D18*
X141000000Y-103220000D03*
X143700000Y-103220000D03*
X141399500Y-88536500D03*
X144099500Y-88536500D03*
X141390000Y-96070000D03*
X144090000Y-96070000D03*
X141604000Y-81137000D03*
X144304000Y-81137000D03*
X141405500Y-92314500D03*
X144105500Y-92314500D03*
X141636500Y-76911000D03*
X144336500Y-76911000D03*
X141130000Y-99645000D03*
X143830000Y-99645000D03*
X141526500Y-84690500D03*
X144226500Y-84690500D03*
X154815000Y-103220000D03*
X152115000Y-103220000D03*
X154750000Y-88465000D03*
X152050000Y-88465000D03*
X155335000Y-95940000D03*
X152635000Y-95940000D03*
X155595000Y-81120000D03*
X152895000Y-81120000D03*
X155010000Y-92235000D03*
X152310000Y-92235000D03*
X155465000Y-76895000D03*
X152765000Y-76895000D03*
X154945000Y-99645000D03*
X152245000Y-99645000D03*
X155140000Y-84695000D03*
X152440000Y-84695000D03*
D20*
X131600000Y-92583000D03*
X131600000Y-91313000D03*
X131600000Y-90043000D03*
X131600000Y-88773000D03*
X131600000Y-87503000D03*
X131600000Y-86233000D03*
X131600000Y-84963000D03*
X131600000Y-83693000D03*
X131600000Y-82423000D03*
X131600000Y-81153000D03*
X131600000Y-79883000D03*
X131600000Y-78613000D03*
X131600000Y-77343000D03*
X131600000Y-76073000D03*
X122400000Y-76073000D03*
X122400000Y-77343000D03*
X122400000Y-78613000D03*
X122400000Y-79883000D03*
X122400000Y-81153000D03*
X122400000Y-82423000D03*
X122400000Y-83693000D03*
X122400000Y-84963000D03*
X122400000Y-86233000D03*
X122400000Y-87503000D03*
X122400000Y-88773000D03*
X122400000Y-90043000D03*
X122400000Y-91313000D03*
X122400000Y-92583000D03*
D21*
X104775000Y-83185000D03*
D22*
X104775000Y-92675000D03*
X104775000Y-91405000D03*
X104775000Y-93945000D03*
X104775000Y-90135000D03*
X104775000Y-88865000D03*
X104775000Y-87595000D03*
X104775000Y-86325000D03*
X104775000Y-80115000D03*
X104775000Y-79115000D03*
X104775000Y-78115000D03*
X104775000Y-77115000D03*
X104775000Y-76115000D03*
X104775000Y-75115000D03*
D23*
X103575000Y-98065000D03*
X103575000Y-71065000D03*
D24*
X102175000Y-100915000D03*
X102175000Y-68215000D03*
D25*
X118560000Y-95420000D03*
X114530000Y-73515000D03*
X118755000Y-90805000D03*
X135330000Y-92300000D03*
X114530000Y-78585000D03*
X116675000Y-81445000D03*
X114400000Y-83720000D03*
X116155000Y-95095000D03*
X132665000Y-94965000D03*
D26*
X153610000Y-76895000D02*
X153610000Y-76260000D01*
X104775000Y-76115000D02*
X106275000Y-76115000D01*
X108077000Y-73533000D02*
X111760000Y-73533000D01*
X107315000Y-74295000D02*
X108077000Y-73533000D01*
X107315000Y-75075000D02*
X107315000Y-74295000D01*
X106275000Y-76115000D02*
X107315000Y-75075000D01*
X119990000Y-98395000D02*
X121065000Y-98395000D01*
X121065000Y-98395000D02*
X123370000Y-100700000D01*
D27*
X118560000Y-95420000D02*
X118560000Y-96525000D01*
X118560000Y-96525000D02*
X116690000Y-98395000D01*
X115895000Y-98395000D02*
X116690000Y-98395000D01*
X116690000Y-98395000D02*
X119990000Y-98395000D01*
D26*
X111760000Y-73533000D02*
X114512000Y-73533000D01*
X114512000Y-73533000D02*
X114530000Y-73515000D01*
X122400000Y-90043000D02*
X119582000Y-90043000D01*
X118820000Y-90805000D02*
X118755000Y-90805000D01*
X119582000Y-90043000D02*
X118820000Y-90805000D01*
X104775000Y-77115000D02*
X107225000Y-77115000D01*
X108267000Y-76073000D02*
X111760000Y-76073000D01*
X107225000Y-77115000D02*
X108267000Y-76073000D01*
X126880000Y-103424020D02*
X132785980Y-103424020D01*
X132785980Y-103424020D02*
X135330000Y-100880000D01*
X128360000Y-96135000D02*
X130260000Y-96135000D01*
X131705000Y-97580000D02*
X135330000Y-97580000D01*
X130260000Y-96135000D02*
X131705000Y-97580000D01*
X119990000Y-100895000D02*
X119990000Y-103155000D01*
X126880000Y-104130000D02*
X126880000Y-103424020D01*
X125840000Y-105170000D02*
X126880000Y-104130000D01*
X122005000Y-105170000D02*
X125840000Y-105170000D01*
X119990000Y-103155000D02*
X122005000Y-105170000D01*
D27*
X115895000Y-100895000D02*
X119990000Y-100895000D01*
D26*
X135330000Y-97580000D02*
X135330000Y-100880000D01*
X139165000Y-104715000D02*
X145405000Y-104715000D01*
X135330000Y-100880000D02*
X139165000Y-104715000D01*
X159835000Y-65715000D02*
X158470000Y-65715000D01*
X155415000Y-68770000D02*
X150856000Y-68770000D01*
X158470000Y-65715000D02*
X155415000Y-68770000D01*
X137280000Y-67145000D02*
X126685000Y-67145000D01*
X126685000Y-67145000D02*
X126425000Y-66885000D01*
X150856000Y-68696000D02*
X150856000Y-68770000D01*
X137280000Y-67145000D02*
X149305000Y-67145000D01*
X149305000Y-67145000D02*
X150856000Y-68696000D01*
X150856000Y-68770000D02*
X150856000Y-70231000D01*
X137085000Y-67145000D02*
X137280000Y-67145000D01*
X115375000Y-76073000D02*
X115375000Y-75855000D01*
X115375000Y-75855000D02*
X116090000Y-75140000D01*
X116090000Y-75140000D02*
X116090000Y-68900000D01*
X116090000Y-68900000D02*
X118105000Y-66885000D01*
X118105000Y-66885000D02*
X126425000Y-66885000D01*
X130663000Y-68978000D02*
X130663000Y-70040500D01*
X126425000Y-66885000D02*
X127790000Y-68250000D01*
X127790000Y-68250000D02*
X129935000Y-68250000D01*
X129935000Y-68250000D02*
X130663000Y-68978000D01*
X148492500Y-104715000D02*
X155350000Y-104715000D01*
X155350000Y-104715000D02*
X157365000Y-106730000D01*
X122400000Y-81153000D02*
X119893000Y-81153000D01*
X115398000Y-76073000D02*
X115375000Y-76073000D01*
X115375000Y-76073000D02*
X111760000Y-76073000D01*
X116350000Y-77025000D02*
X115398000Y-76073000D01*
X116350000Y-77610000D02*
X116350000Y-77025000D01*
X119893000Y-81153000D02*
X116350000Y-77610000D01*
X164065000Y-104455000D02*
X165100000Y-104455000D01*
X165100000Y-104455000D02*
X166855000Y-106210000D01*
X163935000Y-99320000D02*
X165295000Y-99320000D01*
X165295000Y-99320000D02*
X166855000Y-100880000D01*
X164000000Y-94250000D02*
X164840000Y-94250000D01*
X164840000Y-94250000D02*
X166855000Y-96265000D01*
X164260000Y-89440000D02*
X165295000Y-89440000D01*
X165295000Y-89440000D02*
X166855000Y-91000000D01*
X164520000Y-83980000D02*
X165425000Y-83980000D01*
X165425000Y-83980000D02*
X166855000Y-85410000D01*
X164715000Y-78975000D02*
X165230000Y-78975000D01*
X165230000Y-78975000D02*
X166855000Y-80600000D01*
X164650000Y-73515000D02*
X164905000Y-73515000D01*
X164905000Y-73515000D02*
X166855000Y-75465000D01*
X164650000Y-67990000D02*
X166010000Y-67990000D01*
X166855000Y-106210000D02*
X166335000Y-106730000D01*
X166335000Y-106730000D02*
X157365000Y-106730000D01*
X166855000Y-100880000D02*
X166855000Y-106210000D01*
X166855000Y-91000000D02*
X166855000Y-96265000D01*
X166855000Y-96265000D02*
X166855000Y-100880000D01*
X166855000Y-68835000D02*
X166855000Y-75465000D01*
X166855000Y-75465000D02*
X166855000Y-80600000D01*
X166855000Y-80600000D02*
X166855000Y-85410000D01*
X166855000Y-85410000D02*
X166855000Y-91000000D01*
X166010000Y-67990000D02*
X166855000Y-68835000D01*
X141458000Y-70294500D02*
X141458000Y-72771000D01*
X141458000Y-72771000D02*
X141648500Y-72961500D01*
X141648500Y-72961500D02*
X141648500Y-73008500D01*
X141648500Y-73008500D02*
X143130000Y-74490000D01*
X149264000Y-74490000D02*
X150665500Y-73088500D01*
X143130000Y-74490000D02*
X149264000Y-74490000D01*
D28*
X141458000Y-72771000D02*
X141648500Y-72961500D01*
X141648500Y-72961500D02*
X142121500Y-72961500D01*
D26*
X124249500Y-72644000D02*
X124254000Y-72644000D01*
X124254000Y-72644000D02*
X125515000Y-73905000D01*
X130663000Y-73307000D02*
X130663000Y-72453500D01*
X130065000Y-73905000D02*
X130663000Y-73307000D01*
X125515000Y-73905000D02*
X130065000Y-73905000D01*
X130663000Y-72453500D02*
X130663000Y-70040500D01*
X124313000Y-70040500D02*
X124313000Y-72580500D01*
X124313000Y-72580500D02*
X124249500Y-72644000D01*
X150856000Y-70231000D02*
X150856000Y-72898000D01*
X150856000Y-72898000D02*
X150665500Y-73088500D01*
X164650000Y-67990000D02*
X164650000Y-66370000D01*
X164650000Y-66370000D02*
X163995000Y-65715000D01*
X163995000Y-65715000D02*
X159835000Y-65715000D01*
X159835000Y-65715000D02*
X159575000Y-65715000D01*
X164650000Y-73515000D02*
X164650000Y-72350000D01*
X157105000Y-78390000D02*
X148345000Y-78390000D01*
X158029998Y-77465002D02*
X157105000Y-78390000D01*
X158029998Y-74280002D02*
X158029998Y-77465002D01*
X160940000Y-71370000D02*
X158029998Y-74280002D01*
X163670000Y-71370000D02*
X160940000Y-71370000D01*
X164650000Y-72350000D02*
X163670000Y-71370000D01*
X163995000Y-76765000D02*
X160355000Y-76765000D01*
X164715000Y-77485000D02*
X163995000Y-76765000D01*
X149045000Y-82420000D02*
X156390000Y-82420000D01*
X164715000Y-77485000D02*
X164715000Y-78975000D01*
X157625000Y-82420000D02*
X156390000Y-82420000D01*
X159575000Y-80470000D02*
X157625000Y-82420000D01*
X159575000Y-77545000D02*
X159575000Y-80470000D01*
X160355000Y-76765000D02*
X159575000Y-77545000D01*
X164520000Y-83980000D02*
X164520000Y-82425000D01*
X156729952Y-86255000D02*
X148085000Y-86255000D01*
X161279952Y-81705000D02*
X156729952Y-86255000D01*
X163800000Y-81705000D02*
X161279952Y-81705000D01*
X164520000Y-82425000D02*
X163800000Y-81705000D01*
X164260000Y-89440000D02*
X164260000Y-87885000D01*
X156975000Y-90025000D02*
X148330000Y-90025000D01*
X159900000Y-87100000D02*
X156975000Y-90025000D01*
X163475000Y-87100000D02*
X159900000Y-87100000D01*
X164260000Y-87885000D02*
X163475000Y-87100000D01*
X164000000Y-94250000D02*
X164000000Y-92695000D01*
X156520000Y-93795000D02*
X148850000Y-93795000D01*
X158535000Y-91780000D02*
X156520000Y-93795000D01*
X163085000Y-91780000D02*
X158535000Y-91780000D01*
X164000000Y-92695000D02*
X163085000Y-91780000D01*
X163935000Y-99320000D02*
X163935000Y-98740000D01*
X163935000Y-98740000D02*
X162695000Y-97500000D01*
X162695000Y-97500000D02*
X149110000Y-97500000D01*
X157300000Y-102440000D02*
X163280000Y-102440000D01*
X164065000Y-103225000D02*
X163280000Y-102440000D01*
X157300000Y-102440000D02*
X155935000Y-101075000D01*
X148915000Y-101075000D02*
X155935000Y-101075000D01*
X164065000Y-103225000D02*
X164065000Y-104455000D01*
X122400000Y-81153000D02*
X124768000Y-81153000D01*
X125117000Y-84963000D02*
X122400000Y-84963000D01*
X125840000Y-84240000D02*
X125117000Y-84963000D01*
X125840000Y-82225000D02*
X125840000Y-84240000D01*
X124768000Y-81153000D02*
X125840000Y-82225000D01*
X148915000Y-101089998D02*
X148915000Y-101075000D01*
X148915000Y-101075000D02*
X148915000Y-100750000D01*
X145210000Y-101075000D02*
X148590000Y-101075000D01*
X143700000Y-103220000D02*
X143910000Y-103220000D01*
X143910000Y-103220000D02*
X145405000Y-104715000D01*
X145405000Y-104715000D02*
X148492500Y-104715000D01*
X148492500Y-104715000D02*
X148330000Y-104715000D01*
X148330000Y-104715000D02*
X149255000Y-103790000D01*
X149255000Y-103790000D02*
X149255000Y-103285000D01*
X143830000Y-99645000D02*
X143830000Y-99695000D01*
X143830000Y-99695000D02*
X145210000Y-101075000D01*
X148590000Y-101075000D02*
X148915000Y-100750000D01*
X148915000Y-100750000D02*
X149255000Y-100410000D01*
X149255000Y-100410000D02*
X149255000Y-99645000D01*
X144090000Y-96070000D02*
X144090000Y-96120000D01*
X144090000Y-96120000D02*
X145470000Y-97500000D01*
X145470000Y-97500000D02*
X149110000Y-97500000D01*
X149110000Y-97500000D02*
X149645000Y-96965000D01*
X149645000Y-96965000D02*
X149645000Y-96005000D01*
X144105500Y-92314500D02*
X144105500Y-92495500D01*
X144105500Y-92495500D02*
X145405000Y-93795000D01*
X145405000Y-93795000D02*
X148850000Y-93795000D01*
X148850000Y-93795000D02*
X149385000Y-93260000D01*
X149385000Y-93260000D02*
X149385000Y-92300000D01*
X144099500Y-88536500D02*
X144099500Y-88914500D01*
X144099500Y-88914500D02*
X145210000Y-90025000D01*
X145210000Y-90025000D02*
X148330000Y-90025000D01*
X148330000Y-90025000D02*
X149320000Y-89035000D01*
X149320000Y-89035000D02*
X149320000Y-88530000D01*
X144226500Y-84690500D02*
X144226500Y-84946500D01*
X144226500Y-84946500D02*
X145535000Y-86255000D01*
X145535000Y-86255000D02*
X148085000Y-86255000D01*
X148085000Y-86255000D02*
X149580000Y-84760000D01*
X144304000Y-81137000D02*
X144304000Y-81189000D01*
X144304000Y-81189000D02*
X145535000Y-82420000D01*
X145535000Y-82420000D02*
X149045000Y-82420000D01*
X149045000Y-82420000D02*
X149840000Y-81625000D01*
X149840000Y-81625000D02*
X149840000Y-81055000D01*
X144336500Y-76911000D02*
X144336500Y-77061500D01*
X144336500Y-77061500D02*
X145665000Y-78390000D01*
X145665000Y-78390000D02*
X148345000Y-78390000D01*
X148345000Y-78390000D02*
X149840000Y-76895000D01*
X135330000Y-92365000D02*
X135330000Y-92300000D01*
X111760000Y-78613000D02*
X114502000Y-78613000D01*
X114502000Y-78613000D02*
X114530000Y-78585000D01*
X131600000Y-91313000D02*
X134343000Y-91313000D01*
X135330000Y-92365000D02*
X135330000Y-95080000D01*
X134343000Y-91313000D02*
X135330000Y-92300000D01*
X131600000Y-79883000D02*
X136762000Y-79883000D01*
X139148500Y-77496500D02*
X139148500Y-72961500D01*
X136762000Y-79883000D02*
X139148500Y-77496500D01*
X121749500Y-72644000D02*
X120269000Y-72644000D01*
X120269000Y-72644000D02*
X119316500Y-73596500D01*
X119316500Y-73596500D02*
X119316500Y-75501500D01*
X119316500Y-75501500D02*
X119888000Y-76073000D01*
X119888000Y-76073000D02*
X122400000Y-76073000D01*
X138958000Y-70294500D02*
X137380500Y-70294500D01*
X135627000Y-78613000D02*
X131600000Y-78613000D01*
X136695000Y-77545000D02*
X135627000Y-78613000D01*
X136695000Y-70980000D02*
X136695000Y-77545000D01*
X137380500Y-70294500D02*
X136695000Y-70980000D01*
X121813000Y-70040500D02*
X121774500Y-70040500D01*
X121774500Y-70040500D02*
X118560000Y-73255000D01*
X118560000Y-73255000D02*
X118560000Y-76245000D01*
X118560000Y-76245000D02*
X119658000Y-77343000D01*
X119658000Y-77343000D02*
X122400000Y-77343000D01*
X148165500Y-73088500D02*
X145043500Y-73088500D01*
X135012000Y-77343000D02*
X131600000Y-77343000D01*
X135915000Y-76440000D02*
X135012000Y-77343000D01*
X135915000Y-70460000D02*
X135915000Y-76440000D01*
X137670000Y-68705000D02*
X135915000Y-70460000D01*
X142740000Y-68705000D02*
X137670000Y-68705000D01*
X143325000Y-69290000D02*
X142740000Y-68705000D01*
X143325000Y-71370000D02*
X143325000Y-69290000D01*
X145043500Y-73088500D02*
X143325000Y-71370000D01*
X128163000Y-72453500D02*
X127248500Y-72453500D01*
X119758000Y-78613000D02*
X122400000Y-78613000D01*
X117845000Y-76700000D02*
X119758000Y-78613000D01*
X117845000Y-69550000D02*
X117845000Y-76700000D01*
X118950000Y-68445000D02*
X117845000Y-69550000D01*
X125515000Y-68445000D02*
X118950000Y-68445000D01*
X126100000Y-69030000D02*
X125515000Y-68445000D01*
X126100000Y-71305000D02*
X126100000Y-69030000D01*
X127248500Y-72453500D02*
X126100000Y-71305000D01*
X148356000Y-70231000D02*
X145371000Y-70231000D01*
X134592000Y-76073000D02*
X131600000Y-76073000D01*
X135214998Y-75450002D02*
X134592000Y-76073000D01*
X135214998Y-70170050D02*
X135214998Y-75450002D01*
X137395048Y-67990000D02*
X135214998Y-70170050D01*
X143130000Y-67990000D02*
X137395048Y-67990000D01*
X145371000Y-70231000D02*
X143130000Y-67990000D01*
X128163000Y-70040500D02*
X128163000Y-69988000D01*
X128163000Y-69988000D02*
X125905000Y-67730000D01*
X125905000Y-67730000D02*
X118625000Y-67730000D01*
X118625000Y-67730000D02*
X117130000Y-69225000D01*
X117130000Y-69225000D02*
X117130000Y-77350000D01*
X117130000Y-77350000D02*
X119663000Y-79883000D01*
X119663000Y-79883000D02*
X122400000Y-79883000D01*
X123370000Y-103400000D02*
X124425000Y-103400000D01*
X125719020Y-101325980D02*
X126880000Y-101325980D01*
X125060000Y-101985000D02*
X125719020Y-101325980D01*
X125060000Y-102765000D02*
X125060000Y-101985000D01*
X124425000Y-103400000D02*
X125060000Y-102765000D01*
X104775000Y-86325000D02*
X107515000Y-86325000D01*
X109963000Y-88773000D02*
X111760000Y-88773000D01*
X107515000Y-86325000D02*
X109963000Y-88773000D01*
X122400000Y-87503000D02*
X124488000Y-87503000D01*
X125660000Y-88675000D02*
X125660000Y-96135000D01*
X124488000Y-87503000D02*
X125660000Y-88675000D01*
X122400000Y-87503000D02*
X114387000Y-87503000D01*
X113117000Y-88773000D02*
X111760000Y-88773000D01*
X114387000Y-87503000D02*
X113117000Y-88773000D01*
X104775000Y-87595000D02*
X106900000Y-87595000D01*
X110618000Y-91313000D02*
X111760000Y-91313000D01*
X106900000Y-87595000D02*
X110618000Y-91313000D01*
X122400000Y-88773000D02*
X114937000Y-88773000D01*
X114937000Y-88773000D02*
X112397000Y-91313000D01*
X112397000Y-91313000D02*
X111760000Y-91313000D01*
X104775000Y-80115000D02*
X106440000Y-80115000D01*
X109048000Y-86233000D02*
X111760000Y-86233000D01*
X107835000Y-85020000D02*
X109048000Y-86233000D01*
X107835000Y-81510000D02*
X107835000Y-85020000D01*
X106440000Y-80115000D02*
X107835000Y-81510000D01*
X122400000Y-86233000D02*
X111760000Y-86233000D01*
X104775000Y-78115000D02*
X108340000Y-78115000D01*
X110533000Y-81153000D02*
X111760000Y-81153000D01*
X109785000Y-80405000D02*
X110533000Y-81153000D01*
X109785000Y-79560000D02*
X109785000Y-80405000D01*
X108340000Y-78115000D02*
X109785000Y-79560000D01*
X111760000Y-81153000D02*
X114108000Y-81153000D01*
X116648000Y-83693000D02*
X122400000Y-83693000D01*
X114108000Y-81153000D02*
X116648000Y-83693000D01*
X104775000Y-79115000D02*
X107325000Y-79115000D01*
X109693000Y-83693000D02*
X111760000Y-83693000D01*
X108875000Y-82875000D02*
X109693000Y-83693000D01*
X108875000Y-80665000D02*
X108875000Y-82875000D01*
X107325000Y-79115000D02*
X108875000Y-80665000D01*
X117653000Y-82423000D02*
X122400000Y-82423000D01*
X116675000Y-81445000D02*
X117653000Y-82423000D01*
X111760000Y-83693000D02*
X114373000Y-83693000D01*
X114373000Y-83693000D02*
X114400000Y-83720000D01*
X122400000Y-91313000D02*
X120392000Y-91313000D01*
X113627000Y-93853000D02*
X111760000Y-93853000D01*
X115115000Y-92365000D02*
X113627000Y-93853000D01*
X119340000Y-92365000D02*
X115115000Y-92365000D01*
X120392000Y-91313000D02*
X119340000Y-92365000D01*
X112392000Y-93853000D02*
X111760000Y-93853000D01*
X111760000Y-98933000D02*
X112317000Y-98933000D01*
X112317000Y-98933000D02*
X116155000Y-95095000D01*
X131600000Y-92583000D02*
X133403000Y-92583000D01*
X133403000Y-92583000D02*
X133900000Y-93080000D01*
X133900000Y-93080000D02*
X133900000Y-93730000D01*
X133900000Y-93730000D02*
X132665000Y-94965000D01*
X122400000Y-92583000D02*
X120422000Y-92583000D01*
X115960000Y-93145000D02*
X112712000Y-96393000D01*
X119860000Y-93145000D02*
X115960000Y-93145000D01*
X120422000Y-92583000D02*
X119860000Y-93145000D01*
X112712000Y-96393000D02*
X111760000Y-96393000D01*
X161525000Y-104455000D02*
X158470000Y-104455000D01*
X157235000Y-103220000D02*
X158470000Y-104455000D01*
X157235000Y-103220000D02*
X154815000Y-103220000D01*
X156975000Y-88465000D02*
X157495000Y-88465000D01*
X160030000Y-83980000D02*
X161980000Y-83980000D01*
X159640000Y-84370000D02*
X160030000Y-83980000D01*
X159640000Y-86320000D02*
X159640000Y-84370000D01*
X157495000Y-88465000D02*
X159640000Y-86320000D01*
X154750000Y-88465000D02*
X156975000Y-88465000D01*
X156975000Y-88465000D02*
X157170000Y-88465000D01*
X161460000Y-94250000D02*
X158925000Y-94250000D01*
X157235000Y-95940000D02*
X158925000Y-94250000D01*
X157235000Y-95940000D02*
X155335000Y-95940000D01*
X155595000Y-81120000D02*
X157820000Y-81120000D01*
X159835000Y-73515000D02*
X162110000Y-73515000D01*
X158730000Y-74620000D02*
X159835000Y-73515000D01*
X158730000Y-80210000D02*
X158730000Y-74620000D01*
X157820000Y-81120000D02*
X158730000Y-80210000D01*
X156585000Y-81120000D02*
X155595000Y-81120000D01*
X155595000Y-81120000D02*
X156195000Y-81120000D01*
X161720000Y-89440000D02*
X159770000Y-89440000D01*
X156975000Y-92235000D02*
X159770000Y-89440000D01*
X156975000Y-92235000D02*
X155010000Y-92235000D01*
X162110000Y-67990000D02*
X158340000Y-67990000D01*
X155465000Y-70865000D02*
X158340000Y-67990000D01*
X155465000Y-70865000D02*
X155465000Y-76895000D01*
X154945000Y-99645000D02*
X161070000Y-99645000D01*
X161070000Y-99645000D02*
X161395000Y-99320000D01*
X161070000Y-99645000D02*
X161395000Y-99320000D01*
X155140000Y-84695000D02*
X156455000Y-84695000D01*
X156455000Y-84695000D02*
X162175000Y-78975000D01*
X131600000Y-90043000D02*
X136388000Y-90043000D01*
X138840000Y-101920000D02*
X142220000Y-101920000D01*
X137345000Y-100425000D02*
X138840000Y-101920000D01*
X137345000Y-91000000D02*
X137345000Y-100425000D01*
X136388000Y-90043000D02*
X137345000Y-91000000D01*
X152115000Y-103220000D02*
X152100000Y-103220000D01*
X152100000Y-103220000D02*
X150670000Y-101790000D01*
X150670000Y-101790000D02*
X145925000Y-101790000D01*
X141000000Y-103220000D02*
X141000000Y-103140000D01*
X141000000Y-103140000D02*
X142220000Y-101920000D01*
X142220000Y-101920000D02*
X142350000Y-101790000D01*
X142350000Y-101790000D02*
X145925000Y-101790000D01*
X145925000Y-101790000D02*
X146755000Y-102620000D01*
X146755000Y-102620000D02*
X146755000Y-103285000D01*
X131600000Y-88773000D02*
X137198000Y-88773000D01*
X140270000Y-98215000D02*
X142285000Y-98215000D01*
X138125000Y-96070000D02*
X140270000Y-98215000D01*
X138125000Y-89700000D02*
X138125000Y-96070000D01*
X137198000Y-88773000D02*
X138125000Y-89700000D01*
X152245000Y-99645000D02*
X152245000Y-99530000D01*
X152245000Y-99530000D02*
X150930000Y-98215000D01*
X150930000Y-98215000D02*
X145925000Y-98215000D01*
X141130000Y-99645000D02*
X141130000Y-99370000D01*
X141130000Y-99370000D02*
X142285000Y-98215000D01*
X145925000Y-98215000D02*
X146755000Y-99045000D01*
X142285000Y-98215000D02*
X145925000Y-98215000D01*
X146755000Y-99045000D02*
X146755000Y-99645000D01*
X141130000Y-99645000D02*
X141130000Y-99630000D01*
X131600000Y-87503000D02*
X137813000Y-87503000D01*
X140205000Y-94575000D02*
X142610000Y-94575000D01*
X138905000Y-93275000D02*
X140205000Y-94575000D01*
X138905000Y-88595000D02*
X138905000Y-93275000D01*
X137813000Y-87503000D02*
X138905000Y-88595000D01*
X152635000Y-95940000D02*
X152620000Y-95940000D01*
X152620000Y-95940000D02*
X151255000Y-94575000D01*
X151255000Y-94575000D02*
X145715000Y-94575000D01*
X141390000Y-96070000D02*
X141390000Y-95795000D01*
X141390000Y-95795000D02*
X142610000Y-94575000D01*
X142610000Y-94575000D02*
X145715000Y-94575000D01*
X145715000Y-94575000D02*
X147145000Y-96005000D01*
X131600000Y-86233000D02*
X137778000Y-86233000D01*
X141180000Y-90740000D02*
X142675000Y-90740000D01*
X139620000Y-89180000D02*
X141180000Y-90740000D01*
X139620000Y-88075000D02*
X139620000Y-89180000D01*
X137778000Y-86233000D02*
X139620000Y-88075000D01*
X152310000Y-92235000D02*
X152310000Y-92120000D01*
X152310000Y-92120000D02*
X150930000Y-90740000D01*
X150930000Y-90740000D02*
X145860000Y-90740000D01*
X141405500Y-92314500D02*
X141405500Y-92009500D01*
X141405500Y-92009500D02*
X142675000Y-90740000D01*
X142675000Y-90740000D02*
X145860000Y-90740000D01*
X145860000Y-90740000D02*
X146885000Y-91765000D01*
X146885000Y-91765000D02*
X146885000Y-92300000D01*
X131600000Y-84963000D02*
X139173000Y-84963000D01*
X141310000Y-87100000D02*
X142480000Y-87100000D01*
X139173000Y-84963000D02*
X141310000Y-87100000D01*
X152050000Y-88465000D02*
X152050000Y-88285000D01*
X152050000Y-88285000D02*
X150800000Y-87035000D01*
X150800000Y-87035000D02*
X145325000Y-87035000D01*
X141399500Y-88536500D02*
X141399500Y-88180500D01*
X141399500Y-88180500D02*
X142480000Y-87100000D01*
X142480000Y-87100000D02*
X142545000Y-87035000D01*
X142545000Y-87035000D02*
X145325000Y-87035000D01*
X145325000Y-87035000D02*
X146820000Y-88530000D01*
X131600000Y-83693000D02*
X139712000Y-83693000D01*
X140140000Y-83265000D02*
X142415000Y-83265000D01*
X139712000Y-83693000D02*
X140140000Y-83265000D01*
X152440000Y-84695000D02*
X152440000Y-84515000D01*
X152440000Y-84515000D02*
X151125000Y-83200000D01*
X151125000Y-83200000D02*
X145520000Y-83200000D01*
X141526500Y-84690500D02*
X141526500Y-84153500D01*
X141526500Y-84153500D02*
X142415000Y-83265000D01*
X142415000Y-83265000D02*
X142480000Y-83200000D01*
X142480000Y-83200000D02*
X145520000Y-83200000D01*
X145520000Y-83200000D02*
X147080000Y-84760000D01*
X131600000Y-82423000D02*
X136497000Y-82423000D01*
X139295000Y-79625000D02*
X142545000Y-79625000D01*
X136497000Y-82423000D02*
X139295000Y-79625000D01*
X152895000Y-81120000D02*
X152895000Y-80745000D01*
X152895000Y-80745000D02*
X151775000Y-79625000D01*
X151775000Y-79625000D02*
X145910000Y-79625000D01*
X141604000Y-81137000D02*
X141604000Y-80566000D01*
X141604000Y-80566000D02*
X142545000Y-79625000D01*
X142545000Y-79625000D02*
X145910000Y-79625000D01*
X145910000Y-79625000D02*
X147340000Y-81055000D01*
X131600000Y-81153000D02*
X136597000Y-81153000D01*
X140839000Y-76911000D02*
X141636500Y-76911000D01*
X136597000Y-81153000D02*
X140839000Y-76911000D01*
X152765000Y-76895000D02*
X152765000Y-76650000D01*
X152765000Y-76650000D02*
X151710000Y-75595000D01*
X151710000Y-75595000D02*
X146040000Y-75595000D01*
X141636500Y-76911000D02*
X141636500Y-76243500D01*
X146040000Y-75595000D02*
X147340000Y-76895000D01*
X142285000Y-75595000D02*
X146040000Y-75595000D01*
X141636500Y-76243500D02*
X142285000Y-75595000D01*
G36*
X99404800Y-64409475D02*
X99387662Y-64412700D01*
X98894150Y-64730266D01*
X98563071Y-65214817D01*
X98446593Y-65790000D01*
X98446593Y-70640000D01*
X98547700Y-71177338D01*
X98865266Y-71670850D01*
X99349817Y-72001929D01*
X99925000Y-72118407D01*
X101792156Y-72118407D01*
X101836081Y-72224715D01*
X102412252Y-72801892D01*
X103165441Y-73114643D01*
X103980981Y-73115355D01*
X104734715Y-72803919D01*
X105311892Y-72227748D01*
X105624643Y-71474559D01*
X105624662Y-71452669D01*
X105786929Y-71215183D01*
X105903407Y-70640000D01*
X105903407Y-65790000D01*
X105802300Y-65252662D01*
X105484734Y-64759150D01*
X105000183Y-64428071D01*
X104957628Y-64419453D01*
X169008114Y-64534548D01*
X168686875Y-107195000D01*
X164069002Y-107195000D01*
X164069002Y-106783499D01*
X164501648Y-107186317D01*
X164706819Y-107145506D01*
X165687576Y-106695090D01*
X166421310Y-105903640D01*
X166796317Y-104891648D01*
X166393497Y-104459000D01*
X164069000Y-104459000D01*
X164069000Y-104479000D01*
X164061000Y-104479000D01*
X164061000Y-104459000D01*
X164041000Y-104459000D01*
X164041000Y-104451000D01*
X164061000Y-104451000D01*
X164061000Y-104431000D01*
X164069000Y-104431000D01*
X164069000Y-104451000D01*
X166393497Y-104451000D01*
X166796317Y-104018352D01*
X166421310Y-103006360D01*
X165687576Y-102214910D01*
X164909658Y-101857649D01*
X165557576Y-101560090D01*
X166291310Y-100768640D01*
X166666317Y-99756648D01*
X166263497Y-99324000D01*
X163939000Y-99324000D01*
X163939000Y-99344000D01*
X163931000Y-99344000D01*
X163931000Y-99324000D01*
X163911000Y-99324000D01*
X163911000Y-99316000D01*
X163931000Y-99316000D01*
X163931000Y-99296000D01*
X163939000Y-99296000D01*
X163939000Y-99316000D01*
X166263497Y-99316000D01*
X166666317Y-98883352D01*
X166291310Y-97871360D01*
X165557576Y-97079910D01*
X164947925Y-96799926D01*
X165622576Y-96490090D01*
X166356310Y-95698640D01*
X166731317Y-94686648D01*
X166328497Y-94254000D01*
X164004000Y-94254000D01*
X164004000Y-94274000D01*
X163996000Y-94274000D01*
X163996000Y-94254000D01*
X163976000Y-94254000D01*
X163976000Y-94246000D01*
X163996000Y-94246000D01*
X163996000Y-94226000D01*
X164004000Y-94226000D01*
X164004000Y-94246000D01*
X166328497Y-94246000D01*
X166731317Y-93813352D01*
X166356310Y-92801360D01*
X165622576Y-92009910D01*
X165393493Y-91904703D01*
X165882576Y-91680090D01*
X166616310Y-90888640D01*
X166991317Y-89876648D01*
X166588497Y-89444000D01*
X164264000Y-89444000D01*
X164264000Y-89464000D01*
X164256000Y-89464000D01*
X164256000Y-89444000D01*
X164236000Y-89444000D01*
X164236000Y-89436000D01*
X164256000Y-89436000D01*
X164256000Y-87111503D01*
X164264000Y-87111503D01*
X164264000Y-89436000D01*
X166588497Y-89436000D01*
X166991317Y-89003352D01*
X166616310Y-87991360D01*
X165882576Y-87199910D01*
X164901819Y-86749494D01*
X164696648Y-86708683D01*
X164264000Y-87111503D01*
X164256000Y-87111503D01*
X163823352Y-86708683D01*
X163618181Y-86749494D01*
X163051894Y-87009563D01*
X162736000Y-86945593D01*
X161215562Y-86945593D01*
X161221905Y-86913705D01*
X161309287Y-86474407D01*
X162996000Y-86474407D01*
X163318892Y-86413651D01*
X163878181Y-86670506D01*
X164083352Y-86711317D01*
X164516000Y-86308497D01*
X164516000Y-83984000D01*
X164524000Y-83984000D01*
X164524000Y-86308497D01*
X164956648Y-86711317D01*
X165161819Y-86670506D01*
X166142576Y-86220090D01*
X166876310Y-85428640D01*
X167251317Y-84416648D01*
X166848497Y-83984000D01*
X164524000Y-83984000D01*
X164516000Y-83984000D01*
X164496000Y-83984000D01*
X164496000Y-83976000D01*
X164516000Y-83976000D01*
X164516000Y-83956000D01*
X164524000Y-83956000D01*
X164524000Y-83976000D01*
X166848497Y-83976000D01*
X167251317Y-83543352D01*
X166876310Y-82531360D01*
X166142576Y-81739910D01*
X165668692Y-81522277D01*
X166337576Y-81215090D01*
X167071310Y-80423640D01*
X167446317Y-79411648D01*
X167043497Y-78979000D01*
X164719000Y-78979000D01*
X164719000Y-78999000D01*
X164711000Y-78999000D01*
X164711000Y-78979000D01*
X164691000Y-78979000D01*
X164691000Y-78971000D01*
X164711000Y-78971000D01*
X164711000Y-76646503D01*
X164719000Y-76646503D01*
X164719000Y-78971000D01*
X167043497Y-78971000D01*
X167446317Y-78538352D01*
X167071310Y-77526360D01*
X166337576Y-76734910D01*
X165356819Y-76284494D01*
X165151648Y-76243683D01*
X164719000Y-76646503D01*
X164711000Y-76646503D01*
X164278352Y-76243683D01*
X164073181Y-76284494D01*
X163506894Y-76544563D01*
X163191000Y-76480593D01*
X161159000Y-76480593D01*
X160621662Y-76581700D01*
X160430000Y-76705031D01*
X160430000Y-75832243D01*
X160518817Y-75892929D01*
X161094000Y-76009407D01*
X163126000Y-76009407D01*
X163448892Y-75948651D01*
X164008181Y-76205506D01*
X164213352Y-76246317D01*
X164646000Y-75843497D01*
X164646000Y-73519000D01*
X164654000Y-73519000D01*
X164654000Y-75843497D01*
X165086648Y-76246317D01*
X165291819Y-76205506D01*
X166272576Y-75755090D01*
X167006310Y-74963640D01*
X167381317Y-73951648D01*
X166978497Y-73519000D01*
X164654000Y-73519000D01*
X164646000Y-73519000D01*
X164626000Y-73519000D01*
X164626000Y-73511000D01*
X164646000Y-73511000D01*
X164646000Y-71186503D01*
X164654000Y-71186503D01*
X164654000Y-73511000D01*
X166978497Y-73511000D01*
X167381317Y-73078352D01*
X167006310Y-72066360D01*
X166272576Y-71274910D01*
X165291819Y-70824494D01*
X165086648Y-70783683D01*
X164654000Y-71186503D01*
X164646000Y-71186503D01*
X164213352Y-70783683D01*
X164008181Y-70824494D01*
X163441894Y-71084563D01*
X163126000Y-71020593D01*
X161094000Y-71020593D01*
X160556662Y-71121700D01*
X160063150Y-71439266D01*
X159801928Y-71821577D01*
X159184438Y-71944405D01*
X158632918Y-72312918D01*
X157527918Y-73417918D01*
X157165000Y-73961064D01*
X157165000Y-71569164D01*
X159044164Y-69690000D01*
X159811074Y-69690000D01*
X160034266Y-70036850D01*
X160518817Y-70367929D01*
X161094000Y-70484407D01*
X163126000Y-70484407D01*
X163448892Y-70423651D01*
X164008181Y-70680506D01*
X164213352Y-70721317D01*
X164646000Y-70318497D01*
X164646000Y-67994000D01*
X164654000Y-67994000D01*
X164654000Y-70318497D01*
X165086648Y-70721317D01*
X165291819Y-70680506D01*
X166272576Y-70230090D01*
X167006310Y-69438640D01*
X167381317Y-68426648D01*
X166978497Y-67994000D01*
X164654000Y-67994000D01*
X164646000Y-67994000D01*
X164626000Y-67994000D01*
X164626000Y-67986000D01*
X164646000Y-67986000D01*
X164646000Y-65661503D01*
X164654000Y-65661503D01*
X164654000Y-67986000D01*
X166978497Y-67986000D01*
X167381317Y-67553352D01*
X167006310Y-66541360D01*
X166272576Y-65749910D01*
X165291819Y-65299494D01*
X165086648Y-65258683D01*
X164654000Y-65661503D01*
X164646000Y-65661503D01*
X164213352Y-65258683D01*
X164008181Y-65299494D01*
X163441894Y-65559563D01*
X163126000Y-65495593D01*
X161094000Y-65495593D01*
X160556662Y-65596700D01*
X160063150Y-65914266D01*
X159806422Y-66290000D01*
X158340005Y-66290000D01*
X158340000Y-66289999D01*
X157689438Y-66419405D01*
X157137918Y-66787918D01*
X154262918Y-69662918D01*
X153894405Y-70214438D01*
X153764999Y-70865000D01*
X153765000Y-70865005D01*
X153765000Y-74590831D01*
X153610000Y-74560000D01*
X153167235Y-74648072D01*
X152994234Y-74475070D01*
X153165500Y-74061596D01*
X153165500Y-73530000D01*
X152728000Y-73092500D01*
X150669500Y-73092500D01*
X150669500Y-73112500D01*
X150661500Y-73112500D01*
X150661500Y-73092500D01*
X150641500Y-73092500D01*
X150641500Y-73084500D01*
X150661500Y-73084500D01*
X150661500Y-73064500D01*
X150669500Y-73064500D01*
X150669500Y-73084500D01*
X152728000Y-73084500D01*
X153165500Y-72647000D01*
X153165500Y-72115404D01*
X153064736Y-71872138D01*
X153089579Y-71847295D01*
X153356000Y-71204096D01*
X153356000Y-70672500D01*
X152918500Y-70235000D01*
X150860000Y-70235000D01*
X150860000Y-70255000D01*
X150852000Y-70255000D01*
X150852000Y-70235000D01*
X150832000Y-70235000D01*
X150832000Y-70227000D01*
X150852000Y-70227000D01*
X150852000Y-68293500D01*
X150860000Y-68293500D01*
X150860000Y-70227000D01*
X152918500Y-70227000D01*
X153356000Y-69789500D01*
X153356000Y-69257904D01*
X153089579Y-68614705D01*
X152597296Y-68122422D01*
X151954097Y-67856000D01*
X151297500Y-67856000D01*
X150860000Y-68293500D01*
X150852000Y-68293500D01*
X150414500Y-67856000D01*
X149757903Y-67856000D01*
X149114704Y-68122422D01*
X149108938Y-68128188D01*
X149106000Y-68127593D01*
X147606000Y-68127593D01*
X147068662Y-68228700D01*
X146598874Y-68531000D01*
X146075163Y-68531000D01*
X144332082Y-66787918D01*
X143780562Y-66419405D01*
X143130000Y-66289999D01*
X143129995Y-66290000D01*
X137395048Y-66290000D01*
X136744486Y-66419405D01*
X136192966Y-66787918D01*
X136192964Y-66787921D01*
X134012916Y-68967968D01*
X133644403Y-69519488D01*
X133514997Y-70170050D01*
X133514998Y-70170055D01*
X133514998Y-74373000D01*
X132937184Y-74373000D01*
X132651273Y-74315101D01*
X132896579Y-74069795D01*
X133163000Y-73426596D01*
X133163000Y-72895000D01*
X132725500Y-72457500D01*
X130667000Y-72457500D01*
X130667000Y-72477500D01*
X130659000Y-72477500D01*
X130659000Y-72457500D01*
X130639000Y-72457500D01*
X130639000Y-72449500D01*
X130659000Y-72449500D01*
X130659000Y-70044500D01*
X130667000Y-70044500D01*
X130667000Y-72449500D01*
X132725500Y-72449500D01*
X133163000Y-72012000D01*
X133163000Y-71480404D01*
X133066321Y-71247000D01*
X133163000Y-71013596D01*
X133163000Y-70482000D01*
X132725500Y-70044500D01*
X130667000Y-70044500D01*
X130659000Y-70044500D01*
X130639000Y-70044500D01*
X130639000Y-70036500D01*
X130659000Y-70036500D01*
X130659000Y-68103000D01*
X130667000Y-68103000D01*
X130667000Y-70036500D01*
X132725500Y-70036500D01*
X133163000Y-69599000D01*
X133163000Y-69067404D01*
X132896579Y-68424205D01*
X132404296Y-67931922D01*
X131761097Y-67665500D01*
X131104500Y-67665500D01*
X130667000Y-68103000D01*
X130659000Y-68103000D01*
X130221500Y-67665500D01*
X129564903Y-67665500D01*
X128921704Y-67931922D01*
X128915938Y-67937688D01*
X128913000Y-67937093D01*
X128516256Y-67937093D01*
X127107082Y-66527918D01*
X126555562Y-66159405D01*
X125905000Y-66029999D01*
X125904995Y-66030000D01*
X118625000Y-66030000D01*
X117974438Y-66159405D01*
X117422918Y-66527918D01*
X117422916Y-66527921D01*
X115927918Y-68022918D01*
X115559405Y-68574438D01*
X115429999Y-69225000D01*
X115430000Y-69225005D01*
X115430000Y-71506587D01*
X114969527Y-71315382D01*
X114094313Y-71314619D01*
X113637744Y-71503269D01*
X113351183Y-71307471D01*
X112776000Y-71190993D01*
X110744000Y-71190993D01*
X110206662Y-71292100D01*
X109713150Y-71609666D01*
X109560553Y-71833000D01*
X108077005Y-71833000D01*
X108077000Y-71832999D01*
X107584321Y-71931000D01*
X107426438Y-71962405D01*
X106874918Y-72330918D01*
X106874916Y-72330921D01*
X106112918Y-73092918D01*
X105928862Y-73368378D01*
X105525000Y-73286593D01*
X104025000Y-73286593D01*
X103487662Y-73387700D01*
X102994150Y-73705266D01*
X102663071Y-74189817D01*
X102546593Y-74765000D01*
X102546593Y-75465000D01*
X102575854Y-75620507D01*
X102546593Y-75765000D01*
X102546593Y-75768533D01*
X102541422Y-75773704D01*
X102275000Y-76416903D01*
X102275000Y-76673500D01*
X102712500Y-77111000D01*
X102716924Y-77111000D01*
X102709210Y-77122290D01*
X102275000Y-77556500D01*
X102275000Y-77813097D01*
X102541422Y-78456296D01*
X102546593Y-78461467D01*
X102546593Y-78465000D01*
X102575854Y-78620507D01*
X102546593Y-78765000D01*
X102546593Y-79465000D01*
X102575854Y-79620507D01*
X102546593Y-79765000D01*
X102546593Y-80465000D01*
X102647700Y-81002338D01*
X102790189Y-81223773D01*
X102663071Y-81409817D01*
X102546593Y-81985000D01*
X102546593Y-84385000D01*
X102647700Y-84922338D01*
X102813387Y-85179822D01*
X102663071Y-85399817D01*
X102546593Y-85975000D01*
X102546593Y-86675000D01*
X102602188Y-86970464D01*
X102546593Y-87245000D01*
X102546593Y-87945000D01*
X102602188Y-88240464D01*
X102546593Y-88515000D01*
X102546593Y-89215000D01*
X102602188Y-89510464D01*
X102546593Y-89785000D01*
X102546593Y-90485000D01*
X102602188Y-90780464D01*
X102546593Y-91055000D01*
X102546593Y-91755000D01*
X102602188Y-92050464D01*
X102546593Y-92325000D01*
X102546593Y-93025000D01*
X102602188Y-93320464D01*
X102546593Y-93595000D01*
X102546593Y-94295000D01*
X102647700Y-94832338D01*
X102965266Y-95325850D01*
X103449817Y-95656929D01*
X104025000Y-95773407D01*
X105525000Y-95773407D01*
X106062338Y-95672300D01*
X106555850Y-95354734D01*
X106886929Y-94870183D01*
X107003407Y-94295000D01*
X107003407Y-93595000D01*
X106947812Y-93299536D01*
X107003407Y-93025000D01*
X107003407Y-92325000D01*
X106947812Y-92029536D01*
X107003407Y-91755000D01*
X107003407Y-91055000D01*
X106947812Y-90759536D01*
X107003407Y-90485000D01*
X107003407Y-90102571D01*
X109415918Y-92515082D01*
X109629032Y-92657480D01*
X109421800Y-92967624D01*
X109245688Y-93853000D01*
X109421800Y-94738376D01*
X109678798Y-95123000D01*
X109421800Y-95507624D01*
X109245688Y-96393000D01*
X109421800Y-97278376D01*
X109678798Y-97663000D01*
X109421800Y-98047624D01*
X109245688Y-98933000D01*
X109421800Y-99818376D01*
X109923326Y-100568962D01*
X110673912Y-101070488D01*
X111559288Y-101246600D01*
X111960712Y-101246600D01*
X112846088Y-101070488D01*
X113596674Y-100568962D01*
X113612210Y-100545710D01*
X113957500Y-100891000D01*
X115891000Y-100891000D01*
X115891000Y-100871000D01*
X115899000Y-100871000D01*
X115899000Y-100891000D01*
X117832500Y-100891000D01*
X117942500Y-100781000D01*
X118052500Y-100891000D01*
X119986000Y-100891000D01*
X119986000Y-100871000D01*
X119994000Y-100871000D01*
X119994000Y-100891000D01*
X120014000Y-100891000D01*
X120014000Y-100899000D01*
X119994000Y-100899000D01*
X119994000Y-102957500D01*
X120431500Y-103395000D01*
X120963096Y-103395000D01*
X121241593Y-103279643D01*
X121241593Y-104150000D01*
X121342700Y-104687338D01*
X121660266Y-105180850D01*
X122144817Y-105511929D01*
X122720000Y-105628407D01*
X124020000Y-105628407D01*
X124557338Y-105527300D01*
X125015018Y-105232792D01*
X125289265Y-105507039D01*
X125932464Y-105773460D01*
X126438500Y-105773460D01*
X126876000Y-105335960D01*
X126876000Y-103428020D01*
X126884000Y-103428020D01*
X126884000Y-105335960D01*
X127321500Y-105773460D01*
X127827536Y-105773460D01*
X128470735Y-105507039D01*
X128963018Y-105014756D01*
X129229440Y-104371557D01*
X129229440Y-103865520D01*
X128791940Y-103428020D01*
X126884000Y-103428020D01*
X126876000Y-103428020D01*
X126856000Y-103428020D01*
X126856000Y-103420020D01*
X126876000Y-103420020D01*
X126876000Y-103403827D01*
X126884000Y-103403827D01*
X126884000Y-103420020D01*
X128791940Y-103420020D01*
X129229440Y-102982520D01*
X129229440Y-102476483D01*
X128963018Y-101833284D01*
X128957847Y-101828113D01*
X128957847Y-100726540D01*
X128856740Y-100189202D01*
X128539174Y-99695690D01*
X128054623Y-99364611D01*
X127479440Y-99248133D01*
X126280560Y-99248133D01*
X125743222Y-99349240D01*
X125424016Y-99554643D01*
X125397300Y-99412662D01*
X125079734Y-98919150D01*
X124595183Y-98588071D01*
X124020000Y-98471593D01*
X123545756Y-98471593D01*
X122267082Y-97192918D01*
X121881282Y-96935136D01*
X121674734Y-96614150D01*
X121190183Y-96283071D01*
X120630785Y-96169790D01*
X120759618Y-95859527D01*
X120760381Y-94984313D01*
X120619322Y-94642924D01*
X121062082Y-94347082D01*
X121115496Y-94293668D01*
X121450000Y-94361407D01*
X123350000Y-94361407D01*
X123887338Y-94260300D01*
X123960000Y-94213543D01*
X123960000Y-94373240D01*
X123879150Y-94425266D01*
X123548071Y-94909817D01*
X123431593Y-95485000D01*
X123431593Y-96785000D01*
X123532700Y-97322338D01*
X123850266Y-97815850D01*
X124334817Y-98146929D01*
X124910000Y-98263407D01*
X126410000Y-98263407D01*
X126581301Y-98231175D01*
X126618704Y-98268578D01*
X127261903Y-98535000D01*
X127918500Y-98535000D01*
X128356000Y-98097500D01*
X128356000Y-96139000D01*
X128336000Y-96139000D01*
X128336000Y-96131000D01*
X128356000Y-96131000D01*
X128356000Y-94172500D01*
X127918500Y-93735000D01*
X127360000Y-93735000D01*
X127360000Y-88675000D01*
X127230595Y-88024438D01*
X126862082Y-87472918D01*
X126862079Y-87472916D01*
X125690082Y-86300918D01*
X125138562Y-85932405D01*
X124979976Y-85900860D01*
X125100000Y-85611096D01*
X125100000Y-85404500D01*
X124662500Y-84967000D01*
X124451464Y-84967000D01*
X124446316Y-84959000D01*
X124662500Y-84959000D01*
X125100000Y-84521500D01*
X125100000Y-84314904D01*
X124833579Y-83671705D01*
X124828407Y-83666533D01*
X124828407Y-83393000D01*
X124763058Y-83045701D01*
X124828407Y-82723000D01*
X124828407Y-82449467D01*
X124833579Y-82444295D01*
X125100000Y-81801096D01*
X125100000Y-81594500D01*
X124662500Y-81157000D01*
X124451464Y-81157000D01*
X124446316Y-81149000D01*
X124662500Y-81149000D01*
X125100000Y-80711500D01*
X125100000Y-80504904D01*
X124833579Y-79861705D01*
X124828407Y-79856533D01*
X124828407Y-79583000D01*
X124763058Y-79235701D01*
X124828407Y-78913000D01*
X124828407Y-78313000D01*
X124763058Y-77965701D01*
X124828407Y-77643000D01*
X124828407Y-77043000D01*
X124763058Y-76695701D01*
X124828407Y-76373000D01*
X124828407Y-75773000D01*
X124727300Y-75235662D01*
X124409734Y-74742150D01*
X124253502Y-74635402D01*
X124253502Y-74581502D01*
X124691000Y-75019000D01*
X125347597Y-75019000D01*
X125990796Y-74752578D01*
X126483079Y-74260295D01*
X126503175Y-74211778D01*
X126837817Y-74440429D01*
X127413000Y-74556907D01*
X128913000Y-74556907D01*
X128915973Y-74556347D01*
X128921704Y-74562078D01*
X129545816Y-74820594D01*
X129288071Y-75197817D01*
X129171593Y-75773000D01*
X129171593Y-76373000D01*
X129236942Y-76720299D01*
X129171593Y-77043000D01*
X129171593Y-77643000D01*
X129236942Y-77990299D01*
X129171593Y-78313000D01*
X129171593Y-78913000D01*
X129236942Y-79260299D01*
X129171593Y-79583000D01*
X129171593Y-80183000D01*
X129236942Y-80530299D01*
X129171593Y-80853000D01*
X129171593Y-81453000D01*
X129236942Y-81800299D01*
X129171593Y-82123000D01*
X129171593Y-82723000D01*
X129236942Y-83070299D01*
X129171593Y-83393000D01*
X129171593Y-83993000D01*
X129236942Y-84340299D01*
X129171593Y-84663000D01*
X129171593Y-85263000D01*
X129236942Y-85610299D01*
X129171593Y-85933000D01*
X129171593Y-86533000D01*
X129236942Y-86880299D01*
X129171593Y-87203000D01*
X129171593Y-87803000D01*
X129236942Y-88150299D01*
X129171593Y-88473000D01*
X129171593Y-89073000D01*
X129236942Y-89420299D01*
X129171593Y-89743000D01*
X129171593Y-90343000D01*
X129236942Y-90690299D01*
X129171593Y-91013000D01*
X129171593Y-91613000D01*
X129236942Y-91960299D01*
X129171593Y-92283000D01*
X129171593Y-92883000D01*
X129272700Y-93420338D01*
X129481387Y-93744647D01*
X129458097Y-93735000D01*
X128801500Y-93735000D01*
X128364000Y-94172500D01*
X128364000Y-96131000D01*
X128384000Y-96131000D01*
X128384000Y-96139000D01*
X128364000Y-96139000D01*
X128364000Y-98097500D01*
X128801500Y-98535000D01*
X129458097Y-98535000D01*
X130101296Y-98268578D01*
X130348374Y-98021500D01*
X132955000Y-98021500D01*
X132955000Y-98678097D01*
X133221422Y-99321296D01*
X133713705Y-99813579D01*
X134356904Y-100080000D01*
X134888500Y-100080000D01*
X135326000Y-99642500D01*
X135326000Y-97584000D01*
X133392500Y-97584000D01*
X132955000Y-98021500D01*
X130348374Y-98021500D01*
X130593579Y-97776295D01*
X130860000Y-97133096D01*
X130860000Y-96576500D01*
X130422502Y-96139002D01*
X130769684Y-96139002D01*
X130798843Y-96209572D01*
X131417173Y-96828982D01*
X132225473Y-97164618D01*
X132981777Y-97165277D01*
X133392500Y-97576000D01*
X135326000Y-97576000D01*
X135326000Y-97556000D01*
X135334000Y-97556000D01*
X135334000Y-97576000D01*
X135354000Y-97576000D01*
X135354000Y-97584000D01*
X135334000Y-97584000D01*
X135334000Y-99642500D01*
X135645000Y-99953500D01*
X135645000Y-100424995D01*
X135644999Y-100425000D01*
X135774405Y-101075562D01*
X136142918Y-101627082D01*
X137637916Y-103122079D01*
X137637918Y-103122082D01*
X138189438Y-103490595D01*
X138771593Y-103606393D01*
X138771593Y-103870000D01*
X138872700Y-104407338D01*
X139190266Y-104900850D01*
X139674817Y-105231929D01*
X140250000Y-105348407D01*
X141750000Y-105348407D01*
X141921301Y-105316175D01*
X141958704Y-105353578D01*
X142601903Y-105620000D01*
X143258500Y-105620000D01*
X143696000Y-105182500D01*
X143696000Y-103490000D01*
X143704000Y-103490000D01*
X143704000Y-105182500D01*
X144141500Y-105620000D01*
X144798097Y-105620000D01*
X145441296Y-105353578D01*
X145507262Y-105287612D01*
X146005000Y-105388407D01*
X147505000Y-105388407D01*
X147507973Y-105387847D01*
X147513704Y-105393578D01*
X148156903Y-105660000D01*
X148813500Y-105660000D01*
X149251000Y-105222500D01*
X149251000Y-103490000D01*
X149259000Y-103490000D01*
X149259000Y-105222500D01*
X149696500Y-105660000D01*
X150353097Y-105660000D01*
X150996296Y-105393578D01*
X151095951Y-105293923D01*
X151365000Y-105348407D01*
X152865000Y-105348407D01*
X153402338Y-105247300D01*
X153458975Y-105210855D01*
X153489817Y-105231929D01*
X154065000Y-105348407D01*
X155565000Y-105348407D01*
X156102338Y-105247300D01*
X156562214Y-104951378D01*
X157267916Y-105657079D01*
X157267918Y-105657082D01*
X157819438Y-106025595D01*
X157922941Y-106046183D01*
X158470000Y-106155001D01*
X158470005Y-106155000D01*
X159226074Y-106155000D01*
X159449266Y-106501850D01*
X159933817Y-106832929D01*
X160509000Y-106949407D01*
X162541000Y-106949407D01*
X162863892Y-106888651D01*
X163423181Y-107145506D01*
X163628352Y-107186317D01*
X164060998Y-106783499D01*
X164060998Y-107195000D01*
X97295000Y-107195000D01*
X97295000Y-98490000D01*
X98446593Y-98490000D01*
X98446593Y-103340000D01*
X98547700Y-103877338D01*
X98865266Y-104370850D01*
X99349817Y-104701929D01*
X99925000Y-104818407D01*
X104425000Y-104818407D01*
X104962338Y-104717300D01*
X105455850Y-104399734D01*
X105786929Y-103915183D01*
X105903407Y-103340000D01*
X105903407Y-101336500D01*
X113520000Y-101336500D01*
X113520000Y-101993097D01*
X113786422Y-102636296D01*
X114278705Y-103128579D01*
X114921904Y-103395000D01*
X115453500Y-103395000D01*
X115891000Y-102957500D01*
X115891000Y-100899000D01*
X115899000Y-100899000D01*
X115899000Y-102957500D01*
X116336500Y-103395000D01*
X116868096Y-103395000D01*
X117511295Y-103128579D01*
X117942500Y-102697374D01*
X118373705Y-103128579D01*
X119016904Y-103395000D01*
X119548500Y-103395000D01*
X119986000Y-102957500D01*
X119986000Y-100899000D01*
X118052500Y-100899000D01*
X117942500Y-101009000D01*
X117832500Y-100899000D01*
X115899000Y-100899000D01*
X115891000Y-100899000D01*
X113957500Y-100899000D01*
X113520000Y-101336500D01*
X105903407Y-101336500D01*
X105903407Y-98490000D01*
X105802300Y-97952662D01*
X105625339Y-97677656D01*
X105625355Y-97659019D01*
X105313919Y-96905285D01*
X104737748Y-96328108D01*
X103984559Y-96015357D01*
X103169019Y-96014645D01*
X102415285Y-96326081D01*
X101838108Y-96902252D01*
X101792706Y-97011593D01*
X99925000Y-97011593D01*
X99387662Y-97112700D01*
X98894150Y-97430266D01*
X98563071Y-97914817D01*
X98446593Y-98490000D01*
X97295000Y-98490000D01*
X97295000Y-64405684D01*
X99404800Y-64409475D01*
X99404800Y-64409475D01*
G37*
X99404800Y-64409475D02*
X99387662Y-64412700D01*
X98894150Y-64730266D01*
X98563071Y-65214817D01*
X98446593Y-65790000D01*
X98446593Y-70640000D01*
X98547700Y-71177338D01*
X98865266Y-71670850D01*
X99349817Y-72001929D01*
X99925000Y-72118407D01*
X101792156Y-72118407D01*
X101836081Y-72224715D01*
X102412252Y-72801892D01*
X103165441Y-73114643D01*
X103980981Y-73115355D01*
X104734715Y-72803919D01*
X105311892Y-72227748D01*
X105624643Y-71474559D01*
X105624662Y-71452669D01*
X105786929Y-71215183D01*
X105903407Y-70640000D01*
X105903407Y-65790000D01*
X105802300Y-65252662D01*
X105484734Y-64759150D01*
X105000183Y-64428071D01*
X104957628Y-64419453D01*
X169008114Y-64534548D01*
X168686875Y-107195000D01*
X164069002Y-107195000D01*
X164069002Y-106783499D01*
X164501648Y-107186317D01*
X164706819Y-107145506D01*
X165687576Y-106695090D01*
X166421310Y-105903640D01*
X166796317Y-104891648D01*
X166393497Y-104459000D01*
X164069000Y-104459000D01*
X164069000Y-104479000D01*
X164061000Y-104479000D01*
X164061000Y-104459000D01*
X164041000Y-104459000D01*
X164041000Y-104451000D01*
X164061000Y-104451000D01*
X164061000Y-104431000D01*
X164069000Y-104431000D01*
X164069000Y-104451000D01*
X166393497Y-104451000D01*
X166796317Y-104018352D01*
X166421310Y-103006360D01*
X165687576Y-102214910D01*
X164909658Y-101857649D01*
X165557576Y-101560090D01*
X166291310Y-100768640D01*
X166666317Y-99756648D01*
X166263497Y-99324000D01*
X163939000Y-99324000D01*
X163939000Y-99344000D01*
X163931000Y-99344000D01*
X163931000Y-99324000D01*
X163911000Y-99324000D01*
X163911000Y-99316000D01*
X163931000Y-99316000D01*
X163931000Y-99296000D01*
X163939000Y-99296000D01*
X163939000Y-99316000D01*
X166263497Y-99316000D01*
X166666317Y-98883352D01*
X166291310Y-97871360D01*
X165557576Y-97079910D01*
X164947925Y-96799926D01*
X165622576Y-96490090D01*
X166356310Y-95698640D01*
X166731317Y-94686648D01*
X166328497Y-94254000D01*
X164004000Y-94254000D01*
X164004000Y-94274000D01*
X163996000Y-94274000D01*
X163996000Y-94254000D01*
X163976000Y-94254000D01*
X163976000Y-94246000D01*
X163996000Y-94246000D01*
X163996000Y-94226000D01*
X164004000Y-94226000D01*
X164004000Y-94246000D01*
X166328497Y-94246000D01*
X166731317Y-93813352D01*
X166356310Y-92801360D01*
X165622576Y-92009910D01*
X165393493Y-91904703D01*
X165882576Y-91680090D01*
X166616310Y-90888640D01*
X166991317Y-89876648D01*
X166588497Y-89444000D01*
X164264000Y-89444000D01*
X164264000Y-89464000D01*
X164256000Y-89464000D01*
X164256000Y-89444000D01*
X164236000Y-89444000D01*
X164236000Y-89436000D01*
X164256000Y-89436000D01*
X164256000Y-87111503D01*
X164264000Y-87111503D01*
X164264000Y-89436000D01*
X166588497Y-89436000D01*
X166991317Y-89003352D01*
X166616310Y-87991360D01*
X165882576Y-87199910D01*
X164901819Y-86749494D01*
X164696648Y-86708683D01*
X164264000Y-87111503D01*
X164256000Y-87111503D01*
X163823352Y-86708683D01*
X163618181Y-86749494D01*
X163051894Y-87009563D01*
X162736000Y-86945593D01*
X161215562Y-86945593D01*
X161221905Y-86913705D01*
X161309287Y-86474407D01*
X162996000Y-86474407D01*
X163318892Y-86413651D01*
X163878181Y-86670506D01*
X164083352Y-86711317D01*
X164516000Y-86308497D01*
X164516000Y-83984000D01*
X164524000Y-83984000D01*
X164524000Y-86308497D01*
X164956648Y-86711317D01*
X165161819Y-86670506D01*
X166142576Y-86220090D01*
X166876310Y-85428640D01*
X167251317Y-84416648D01*
X166848497Y-83984000D01*
X164524000Y-83984000D01*
X164516000Y-83984000D01*
X164496000Y-83984000D01*
X164496000Y-83976000D01*
X164516000Y-83976000D01*
X164516000Y-83956000D01*
X164524000Y-83956000D01*
X164524000Y-83976000D01*
X166848497Y-83976000D01*
X167251317Y-83543352D01*
X166876310Y-82531360D01*
X166142576Y-81739910D01*
X165668692Y-81522277D01*
X166337576Y-81215090D01*
X167071310Y-80423640D01*
X167446317Y-79411648D01*
X167043497Y-78979000D01*
X164719000Y-78979000D01*
X164719000Y-78999000D01*
X164711000Y-78999000D01*
X164711000Y-78979000D01*
X164691000Y-78979000D01*
X164691000Y-78971000D01*
X164711000Y-78971000D01*
X164711000Y-76646503D01*
X164719000Y-76646503D01*
X164719000Y-78971000D01*
X167043497Y-78971000D01*
X167446317Y-78538352D01*
X167071310Y-77526360D01*
X166337576Y-76734910D01*
X165356819Y-76284494D01*
X165151648Y-76243683D01*
X164719000Y-76646503D01*
X164711000Y-76646503D01*
X164278352Y-76243683D01*
X164073181Y-76284494D01*
X163506894Y-76544563D01*
X163191000Y-76480593D01*
X161159000Y-76480593D01*
X160621662Y-76581700D01*
X160430000Y-76705031D01*
X160430000Y-75832243D01*
X160518817Y-75892929D01*
X161094000Y-76009407D01*
X163126000Y-76009407D01*
X163448892Y-75948651D01*
X164008181Y-76205506D01*
X164213352Y-76246317D01*
X164646000Y-75843497D01*
X164646000Y-73519000D01*
X164654000Y-73519000D01*
X164654000Y-75843497D01*
X165086648Y-76246317D01*
X165291819Y-76205506D01*
X166272576Y-75755090D01*
X167006310Y-74963640D01*
X167381317Y-73951648D01*
X166978497Y-73519000D01*
X164654000Y-73519000D01*
X164646000Y-73519000D01*
X164626000Y-73519000D01*
X164626000Y-73511000D01*
X164646000Y-73511000D01*
X164646000Y-71186503D01*
X164654000Y-71186503D01*
X164654000Y-73511000D01*
X166978497Y-73511000D01*
X167381317Y-73078352D01*
X167006310Y-72066360D01*
X166272576Y-71274910D01*
X165291819Y-70824494D01*
X165086648Y-70783683D01*
X164654000Y-71186503D01*
X164646000Y-71186503D01*
X164213352Y-70783683D01*
X164008181Y-70824494D01*
X163441894Y-71084563D01*
X163126000Y-71020593D01*
X161094000Y-71020593D01*
X160556662Y-71121700D01*
X160063150Y-71439266D01*
X159801928Y-71821577D01*
X159184438Y-71944405D01*
X158632918Y-72312918D01*
X157527918Y-73417918D01*
X157165000Y-73961064D01*
X157165000Y-71569164D01*
X159044164Y-69690000D01*
X159811074Y-69690000D01*
X160034266Y-70036850D01*
X160518817Y-70367929D01*
X161094000Y-70484407D01*
X163126000Y-70484407D01*
X163448892Y-70423651D01*
X164008181Y-70680506D01*
X164213352Y-70721317D01*
X164646000Y-70318497D01*
X164646000Y-67994000D01*
X164654000Y-67994000D01*
X164654000Y-70318497D01*
X165086648Y-70721317D01*
X165291819Y-70680506D01*
X166272576Y-70230090D01*
X167006310Y-69438640D01*
X167381317Y-68426648D01*
X166978497Y-67994000D01*
X164654000Y-67994000D01*
X164646000Y-67994000D01*
X164626000Y-67994000D01*
X164626000Y-67986000D01*
X164646000Y-67986000D01*
X164646000Y-65661503D01*
X164654000Y-65661503D01*
X164654000Y-67986000D01*
X166978497Y-67986000D01*
X167381317Y-67553352D01*
X167006310Y-66541360D01*
X166272576Y-65749910D01*
X165291819Y-65299494D01*
X165086648Y-65258683D01*
X164654000Y-65661503D01*
X164646000Y-65661503D01*
X164213352Y-65258683D01*
X164008181Y-65299494D01*
X163441894Y-65559563D01*
X163126000Y-65495593D01*
X161094000Y-65495593D01*
X160556662Y-65596700D01*
X160063150Y-65914266D01*
X159806422Y-66290000D01*
X158340005Y-66290000D01*
X158340000Y-66289999D01*
X157689438Y-66419405D01*
X157137918Y-66787918D01*
X154262918Y-69662918D01*
X153894405Y-70214438D01*
X153764999Y-70865000D01*
X153765000Y-70865005D01*
X153765000Y-74590831D01*
X153610000Y-74560000D01*
X153167235Y-74648072D01*
X152994234Y-74475070D01*
X153165500Y-74061596D01*
X153165500Y-73530000D01*
X152728000Y-73092500D01*
X150669500Y-73092500D01*
X150669500Y-73112500D01*
X150661500Y-73112500D01*
X150661500Y-73092500D01*
X150641500Y-73092500D01*
X150641500Y-73084500D01*
X150661500Y-73084500D01*
X150661500Y-73064500D01*
X150669500Y-73064500D01*
X150669500Y-73084500D01*
X152728000Y-73084500D01*
X153165500Y-72647000D01*
X153165500Y-72115404D01*
X153064736Y-71872138D01*
X153089579Y-71847295D01*
X153356000Y-71204096D01*
X153356000Y-70672500D01*
X152918500Y-70235000D01*
X150860000Y-70235000D01*
X150860000Y-70255000D01*
X150852000Y-70255000D01*
X150852000Y-70235000D01*
X150832000Y-70235000D01*
X150832000Y-70227000D01*
X150852000Y-70227000D01*
X150852000Y-68293500D01*
X150860000Y-68293500D01*
X150860000Y-70227000D01*
X152918500Y-70227000D01*
X153356000Y-69789500D01*
X153356000Y-69257904D01*
X153089579Y-68614705D01*
X152597296Y-68122422D01*
X151954097Y-67856000D01*
X151297500Y-67856000D01*
X150860000Y-68293500D01*
X150852000Y-68293500D01*
X150414500Y-67856000D01*
X149757903Y-67856000D01*
X149114704Y-68122422D01*
X149108938Y-68128188D01*
X149106000Y-68127593D01*
X147606000Y-68127593D01*
X147068662Y-68228700D01*
X146598874Y-68531000D01*
X146075163Y-68531000D01*
X144332082Y-66787918D01*
X143780562Y-66419405D01*
X143130000Y-66289999D01*
X143129995Y-66290000D01*
X137395048Y-66290000D01*
X136744486Y-66419405D01*
X136192966Y-66787918D01*
X136192964Y-66787921D01*
X134012916Y-68967968D01*
X133644403Y-69519488D01*
X133514997Y-70170050D01*
X133514998Y-70170055D01*
X133514998Y-74373000D01*
X132937184Y-74373000D01*
X132651273Y-74315101D01*
X132896579Y-74069795D01*
X133163000Y-73426596D01*
X133163000Y-72895000D01*
X132725500Y-72457500D01*
X130667000Y-72457500D01*
X130667000Y-72477500D01*
X130659000Y-72477500D01*
X130659000Y-72457500D01*
X130639000Y-72457500D01*
X130639000Y-72449500D01*
X130659000Y-72449500D01*
X130659000Y-70044500D01*
X130667000Y-70044500D01*
X130667000Y-72449500D01*
X132725500Y-72449500D01*
X133163000Y-72012000D01*
X133163000Y-71480404D01*
X133066321Y-71247000D01*
X133163000Y-71013596D01*
X133163000Y-70482000D01*
X132725500Y-70044500D01*
X130667000Y-70044500D01*
X130659000Y-70044500D01*
X130639000Y-70044500D01*
X130639000Y-70036500D01*
X130659000Y-70036500D01*
X130659000Y-68103000D01*
X130667000Y-68103000D01*
X130667000Y-70036500D01*
X132725500Y-70036500D01*
X133163000Y-69599000D01*
X133163000Y-69067404D01*
X132896579Y-68424205D01*
X132404296Y-67931922D01*
X131761097Y-67665500D01*
X131104500Y-67665500D01*
X130667000Y-68103000D01*
X130659000Y-68103000D01*
X130221500Y-67665500D01*
X129564903Y-67665500D01*
X128921704Y-67931922D01*
X128915938Y-67937688D01*
X128913000Y-67937093D01*
X128516256Y-67937093D01*
X127107082Y-66527918D01*
X126555562Y-66159405D01*
X125905000Y-66029999D01*
X125904995Y-66030000D01*
X118625000Y-66030000D01*
X117974438Y-66159405D01*
X117422918Y-66527918D01*
X117422916Y-66527921D01*
X115927918Y-68022918D01*
X115559405Y-68574438D01*
X115429999Y-69225000D01*
X115430000Y-69225005D01*
X115430000Y-71506587D01*
X114969527Y-71315382D01*
X114094313Y-71314619D01*
X113637744Y-71503269D01*
X113351183Y-71307471D01*
X112776000Y-71190993D01*
X110744000Y-71190993D01*
X110206662Y-71292100D01*
X109713150Y-71609666D01*
X109560553Y-71833000D01*
X108077005Y-71833000D01*
X108077000Y-71832999D01*
X107584321Y-71931000D01*
X107426438Y-71962405D01*
X106874918Y-72330918D01*
X106874916Y-72330921D01*
X106112918Y-73092918D01*
X105928862Y-73368378D01*
X105525000Y-73286593D01*
X104025000Y-73286593D01*
X103487662Y-73387700D01*
X102994150Y-73705266D01*
X102663071Y-74189817D01*
X102546593Y-74765000D01*
X102546593Y-75465000D01*
X102575854Y-75620507D01*
X102546593Y-75765000D01*
X102546593Y-75768533D01*
X102541422Y-75773704D01*
X102275000Y-76416903D01*
X102275000Y-76673500D01*
X102712500Y-77111000D01*
X102716924Y-77111000D01*
X102709210Y-77122290D01*
X102275000Y-77556500D01*
X102275000Y-77813097D01*
X102541422Y-78456296D01*
X102546593Y-78461467D01*
X102546593Y-78465000D01*
X102575854Y-78620507D01*
X102546593Y-78765000D01*
X102546593Y-79465000D01*
X102575854Y-79620507D01*
X102546593Y-79765000D01*
X102546593Y-80465000D01*
X102647700Y-81002338D01*
X102790189Y-81223773D01*
X102663071Y-81409817D01*
X102546593Y-81985000D01*
X102546593Y-84385000D01*
X102647700Y-84922338D01*
X102813387Y-85179822D01*
X102663071Y-85399817D01*
X102546593Y-85975000D01*
X102546593Y-86675000D01*
X102602188Y-86970464D01*
X102546593Y-87245000D01*
X102546593Y-87945000D01*
X102602188Y-88240464D01*
X102546593Y-88515000D01*
X102546593Y-89215000D01*
X102602188Y-89510464D01*
X102546593Y-89785000D01*
X102546593Y-90485000D01*
X102602188Y-90780464D01*
X102546593Y-91055000D01*
X102546593Y-91755000D01*
X102602188Y-92050464D01*
X102546593Y-92325000D01*
X102546593Y-93025000D01*
X102602188Y-93320464D01*
X102546593Y-93595000D01*
X102546593Y-94295000D01*
X102647700Y-94832338D01*
X102965266Y-95325850D01*
X103449817Y-95656929D01*
X104025000Y-95773407D01*
X105525000Y-95773407D01*
X106062338Y-95672300D01*
X106555850Y-95354734D01*
X106886929Y-94870183D01*
X107003407Y-94295000D01*
X107003407Y-93595000D01*
X106947812Y-93299536D01*
X107003407Y-93025000D01*
X107003407Y-92325000D01*
X106947812Y-92029536D01*
X107003407Y-91755000D01*
X107003407Y-91055000D01*
X106947812Y-90759536D01*
X107003407Y-90485000D01*
X107003407Y-90102571D01*
X109415918Y-92515082D01*
X109629032Y-92657480D01*
X109421800Y-92967624D01*
X109245688Y-93853000D01*
X109421800Y-94738376D01*
X109678798Y-95123000D01*
X109421800Y-95507624D01*
X109245688Y-96393000D01*
X109421800Y-97278376D01*
X109678798Y-97663000D01*
X109421800Y-98047624D01*
X109245688Y-98933000D01*
X109421800Y-99818376D01*
X109923326Y-100568962D01*
X110673912Y-101070488D01*
X111559288Y-101246600D01*
X111960712Y-101246600D01*
X112846088Y-101070488D01*
X113596674Y-100568962D01*
X113612210Y-100545710D01*
X113957500Y-100891000D01*
X115891000Y-100891000D01*
X115891000Y-100871000D01*
X115899000Y-100871000D01*
X115899000Y-100891000D01*
X117832500Y-100891000D01*
X117942500Y-100781000D01*
X118052500Y-100891000D01*
X119986000Y-100891000D01*
X119986000Y-100871000D01*
X119994000Y-100871000D01*
X119994000Y-100891000D01*
X120014000Y-100891000D01*
X120014000Y-100899000D01*
X119994000Y-100899000D01*
X119994000Y-102957500D01*
X120431500Y-103395000D01*
X120963096Y-103395000D01*
X121241593Y-103279643D01*
X121241593Y-104150000D01*
X121342700Y-104687338D01*
X121660266Y-105180850D01*
X122144817Y-105511929D01*
X122720000Y-105628407D01*
X124020000Y-105628407D01*
X124557338Y-105527300D01*
X125015018Y-105232792D01*
X125289265Y-105507039D01*
X125932464Y-105773460D01*
X126438500Y-105773460D01*
X126876000Y-105335960D01*
X126876000Y-103428020D01*
X126884000Y-103428020D01*
X126884000Y-105335960D01*
X127321500Y-105773460D01*
X127827536Y-105773460D01*
X128470735Y-105507039D01*
X128963018Y-105014756D01*
X129229440Y-104371557D01*
X129229440Y-103865520D01*
X128791940Y-103428020D01*
X126884000Y-103428020D01*
X126876000Y-103428020D01*
X126856000Y-103428020D01*
X126856000Y-103420020D01*
X126876000Y-103420020D01*
X126876000Y-103403827D01*
X126884000Y-103403827D01*
X126884000Y-103420020D01*
X128791940Y-103420020D01*
X129229440Y-102982520D01*
X129229440Y-102476483D01*
X128963018Y-101833284D01*
X128957847Y-101828113D01*
X128957847Y-100726540D01*
X128856740Y-100189202D01*
X128539174Y-99695690D01*
X128054623Y-99364611D01*
X127479440Y-99248133D01*
X126280560Y-99248133D01*
X125743222Y-99349240D01*
X125424016Y-99554643D01*
X125397300Y-99412662D01*
X125079734Y-98919150D01*
X124595183Y-98588071D01*
X124020000Y-98471593D01*
X123545756Y-98471593D01*
X122267082Y-97192918D01*
X121881282Y-96935136D01*
X121674734Y-96614150D01*
X121190183Y-96283071D01*
X120630785Y-96169790D01*
X120759618Y-95859527D01*
X120760381Y-94984313D01*
X120619322Y-94642924D01*
X121062082Y-94347082D01*
X121115496Y-94293668D01*
X121450000Y-94361407D01*
X123350000Y-94361407D01*
X123887338Y-94260300D01*
X123960000Y-94213543D01*
X123960000Y-94373240D01*
X123879150Y-94425266D01*
X123548071Y-94909817D01*
X123431593Y-95485000D01*
X123431593Y-96785000D01*
X123532700Y-97322338D01*
X123850266Y-97815850D01*
X124334817Y-98146929D01*
X124910000Y-98263407D01*
X126410000Y-98263407D01*
X126581301Y-98231175D01*
X126618704Y-98268578D01*
X127261903Y-98535000D01*
X127918500Y-98535000D01*
X128356000Y-98097500D01*
X128356000Y-96139000D01*
X128336000Y-96139000D01*
X128336000Y-96131000D01*
X128356000Y-96131000D01*
X128356000Y-94172500D01*
X127918500Y-93735000D01*
X127360000Y-93735000D01*
X127360000Y-88675000D01*
X127230595Y-88024438D01*
X126862082Y-87472918D01*
X126862079Y-87472916D01*
X125690082Y-86300918D01*
X125138562Y-85932405D01*
X124979976Y-85900860D01*
X125100000Y-85611096D01*
X125100000Y-85404500D01*
X124662500Y-84967000D01*
X124451464Y-84967000D01*
X124446316Y-84959000D01*
X124662500Y-84959000D01*
X125100000Y-84521500D01*
X125100000Y-84314904D01*
X124833579Y-83671705D01*
X124828407Y-83666533D01*
X124828407Y-83393000D01*
X124763058Y-83045701D01*
X124828407Y-82723000D01*
X124828407Y-82449467D01*
X124833579Y-82444295D01*
X125100000Y-81801096D01*
X125100000Y-81594500D01*
X124662500Y-81157000D01*
X124451464Y-81157000D01*
X124446316Y-81149000D01*
X124662500Y-81149000D01*
X125100000Y-80711500D01*
X125100000Y-80504904D01*
X124833579Y-79861705D01*
X124828407Y-79856533D01*
X124828407Y-79583000D01*
X124763058Y-79235701D01*
X124828407Y-78913000D01*
X124828407Y-78313000D01*
X124763058Y-77965701D01*
X124828407Y-77643000D01*
X124828407Y-77043000D01*
X124763058Y-76695701D01*
X124828407Y-76373000D01*
X124828407Y-75773000D01*
X124727300Y-75235662D01*
X124409734Y-74742150D01*
X124253502Y-74635402D01*
X124253502Y-74581502D01*
X124691000Y-75019000D01*
X125347597Y-75019000D01*
X125990796Y-74752578D01*
X126483079Y-74260295D01*
X126503175Y-74211778D01*
X126837817Y-74440429D01*
X127413000Y-74556907D01*
X128913000Y-74556907D01*
X128915973Y-74556347D01*
X128921704Y-74562078D01*
X129545816Y-74820594D01*
X129288071Y-75197817D01*
X129171593Y-75773000D01*
X129171593Y-76373000D01*
X129236942Y-76720299D01*
X129171593Y-77043000D01*
X129171593Y-77643000D01*
X129236942Y-77990299D01*
X129171593Y-78313000D01*
X129171593Y-78913000D01*
X129236942Y-79260299D01*
X129171593Y-79583000D01*
X129171593Y-80183000D01*
X129236942Y-80530299D01*
X129171593Y-80853000D01*
X129171593Y-81453000D01*
X129236942Y-81800299D01*
X129171593Y-82123000D01*
X129171593Y-82723000D01*
X129236942Y-83070299D01*
X129171593Y-83393000D01*
X129171593Y-83993000D01*
X129236942Y-84340299D01*
X129171593Y-84663000D01*
X129171593Y-85263000D01*
X129236942Y-85610299D01*
X129171593Y-85933000D01*
X129171593Y-86533000D01*
X129236942Y-86880299D01*
X129171593Y-87203000D01*
X129171593Y-87803000D01*
X129236942Y-88150299D01*
X129171593Y-88473000D01*
X129171593Y-89073000D01*
X129236942Y-89420299D01*
X129171593Y-89743000D01*
X129171593Y-90343000D01*
X129236942Y-90690299D01*
X129171593Y-91013000D01*
X129171593Y-91613000D01*
X129236942Y-91960299D01*
X129171593Y-92283000D01*
X129171593Y-92883000D01*
X129272700Y-93420338D01*
X129481387Y-93744647D01*
X129458097Y-93735000D01*
X128801500Y-93735000D01*
X128364000Y-94172500D01*
X128364000Y-96131000D01*
X128384000Y-96131000D01*
X128384000Y-96139000D01*
X128364000Y-96139000D01*
X128364000Y-98097500D01*
X128801500Y-98535000D01*
X129458097Y-98535000D01*
X130101296Y-98268578D01*
X130348374Y-98021500D01*
X132955000Y-98021500D01*
X132955000Y-98678097D01*
X133221422Y-99321296D01*
X133713705Y-99813579D01*
X134356904Y-100080000D01*
X134888500Y-100080000D01*
X135326000Y-99642500D01*
X135326000Y-97584000D01*
X133392500Y-97584000D01*
X132955000Y-98021500D01*
X130348374Y-98021500D01*
X130593579Y-97776295D01*
X130860000Y-97133096D01*
X130860000Y-96576500D01*
X130422502Y-96139002D01*
X130769684Y-96139002D01*
X130798843Y-96209572D01*
X131417173Y-96828982D01*
X132225473Y-97164618D01*
X132981777Y-97165277D01*
X133392500Y-97576000D01*
X135326000Y-97576000D01*
X135326000Y-97556000D01*
X135334000Y-97556000D01*
X135334000Y-97576000D01*
X135354000Y-97576000D01*
X135354000Y-97584000D01*
X135334000Y-97584000D01*
X135334000Y-99642500D01*
X135645000Y-99953500D01*
X135645000Y-100424995D01*
X135644999Y-100425000D01*
X135774405Y-101075562D01*
X136142918Y-101627082D01*
X137637916Y-103122079D01*
X137637918Y-103122082D01*
X138189438Y-103490595D01*
X138771593Y-103606393D01*
X138771593Y-103870000D01*
X138872700Y-104407338D01*
X139190266Y-104900850D01*
X139674817Y-105231929D01*
X140250000Y-105348407D01*
X141750000Y-105348407D01*
X141921301Y-105316175D01*
X141958704Y-105353578D01*
X142601903Y-105620000D01*
X143258500Y-105620000D01*
X143696000Y-105182500D01*
X143696000Y-103490000D01*
X143704000Y-103490000D01*
X143704000Y-105182500D01*
X144141500Y-105620000D01*
X144798097Y-105620000D01*
X145441296Y-105353578D01*
X145507262Y-105287612D01*
X146005000Y-105388407D01*
X147505000Y-105388407D01*
X147507973Y-105387847D01*
X147513704Y-105393578D01*
X148156903Y-105660000D01*
X148813500Y-105660000D01*
X149251000Y-105222500D01*
X149251000Y-103490000D01*
X149259000Y-103490000D01*
X149259000Y-105222500D01*
X149696500Y-105660000D01*
X150353097Y-105660000D01*
X150996296Y-105393578D01*
X151095951Y-105293923D01*
X151365000Y-105348407D01*
X152865000Y-105348407D01*
X153402338Y-105247300D01*
X153458975Y-105210855D01*
X153489817Y-105231929D01*
X154065000Y-105348407D01*
X155565000Y-105348407D01*
X156102338Y-105247300D01*
X156562214Y-104951378D01*
X157267916Y-105657079D01*
X157267918Y-105657082D01*
X157819438Y-106025595D01*
X157922941Y-106046183D01*
X158470000Y-106155001D01*
X158470005Y-106155000D01*
X159226074Y-106155000D01*
X159449266Y-106501850D01*
X159933817Y-106832929D01*
X160509000Y-106949407D01*
X162541000Y-106949407D01*
X162863892Y-106888651D01*
X163423181Y-107145506D01*
X163628352Y-107186317D01*
X164060998Y-106783499D01*
X164060998Y-107195000D01*
X97295000Y-107195000D01*
X97295000Y-98490000D01*
X98446593Y-98490000D01*
X98446593Y-103340000D01*
X98547700Y-103877338D01*
X98865266Y-104370850D01*
X99349817Y-104701929D01*
X99925000Y-104818407D01*
X104425000Y-104818407D01*
X104962338Y-104717300D01*
X105455850Y-104399734D01*
X105786929Y-103915183D01*
X105903407Y-103340000D01*
X105903407Y-101336500D01*
X113520000Y-101336500D01*
X113520000Y-101993097D01*
X113786422Y-102636296D01*
X114278705Y-103128579D01*
X114921904Y-103395000D01*
X115453500Y-103395000D01*
X115891000Y-102957500D01*
X115891000Y-100899000D01*
X115899000Y-100899000D01*
X115899000Y-102957500D01*
X116336500Y-103395000D01*
X116868096Y-103395000D01*
X117511295Y-103128579D01*
X117942500Y-102697374D01*
X118373705Y-103128579D01*
X119016904Y-103395000D01*
X119548500Y-103395000D01*
X119986000Y-102957500D01*
X119986000Y-100899000D01*
X118052500Y-100899000D01*
X117942500Y-101009000D01*
X117832500Y-100899000D01*
X115899000Y-100899000D01*
X115891000Y-100899000D01*
X113957500Y-100899000D01*
X113520000Y-101336500D01*
X105903407Y-101336500D01*
X105903407Y-98490000D01*
X105802300Y-97952662D01*
X105625339Y-97677656D01*
X105625355Y-97659019D01*
X105313919Y-96905285D01*
X104737748Y-96328108D01*
X103984559Y-96015357D01*
X103169019Y-96014645D01*
X102415285Y-96326081D01*
X101838108Y-96902252D01*
X101792706Y-97011593D01*
X99925000Y-97011593D01*
X99387662Y-97112700D01*
X98894150Y-97430266D01*
X98563071Y-97914817D01*
X98446593Y-98490000D01*
X97295000Y-98490000D01*
X97295000Y-64405684D01*
X99404800Y-64409475D01*
G36*
X109026806Y-75660193D02*
X109431504Y-76069000D01*
X111756000Y-76069000D01*
X111756000Y-76049000D01*
X111764000Y-76049000D01*
X111764000Y-76069000D01*
X114088496Y-76069000D01*
X114439015Y-75714922D01*
X114965687Y-75715381D01*
X115430000Y-75523531D01*
X115430000Y-76576587D01*
X114969527Y-76385382D01*
X114393281Y-76384880D01*
X114088496Y-76077000D01*
X111764000Y-76077000D01*
X111764000Y-76097000D01*
X111756000Y-76097000D01*
X111756000Y-76077000D01*
X109431504Y-76077000D01*
X109026806Y-76485807D01*
X109055585Y-76587852D01*
X108990562Y-76544405D01*
X108372666Y-76421497D01*
X108517079Y-76277084D01*
X108517082Y-76277082D01*
X108885595Y-75725562D01*
X108898598Y-75660193D01*
X108983573Y-75233000D01*
X109147284Y-75233000D01*
X109026806Y-75660193D01*
X109026806Y-75660193D01*
G37*
X109026806Y-75660193D02*
X109431504Y-76069000D01*
X111756000Y-76069000D01*
X111756000Y-76049000D01*
X111764000Y-76049000D01*
X111764000Y-76069000D01*
X114088496Y-76069000D01*
X114439015Y-75714922D01*
X114965687Y-75715381D01*
X115430000Y-75523531D01*
X115430000Y-76576587D01*
X114969527Y-76385382D01*
X114393281Y-76384880D01*
X114088496Y-76077000D01*
X111764000Y-76077000D01*
X111764000Y-76097000D01*
X111756000Y-76097000D01*
X111756000Y-76077000D01*
X109431504Y-76077000D01*
X109026806Y-76485807D01*
X109055585Y-76587852D01*
X108990562Y-76544405D01*
X108372666Y-76421497D01*
X108517079Y-76277084D01*
X108517082Y-76277082D01*
X108885595Y-75725562D01*
X108898598Y-75660193D01*
X108983573Y-75233000D01*
X109147284Y-75233000D01*
X109026806Y-75660193D01*
G36*
X141652500Y-72957500D02*
X141672500Y-72957500D01*
X141672500Y-72965500D01*
X141652500Y-72965500D01*
X141652500Y-72985500D01*
X141644500Y-72985500D01*
X141644500Y-72965500D01*
X141624500Y-72965500D01*
X141624500Y-72957500D01*
X141644500Y-72957500D01*
X141644500Y-72937500D01*
X141652500Y-72937500D01*
X141652500Y-72957500D01*
X141652500Y-72957500D01*
G37*
X141652500Y-72957500D02*
X141672500Y-72957500D01*
X141672500Y-72965500D01*
X141652500Y-72965500D01*
X141652500Y-72985500D01*
X141644500Y-72985500D01*
X141644500Y-72965500D01*
X141624500Y-72965500D01*
X141624500Y-72957500D01*
X141644500Y-72957500D01*
X141644500Y-72937500D01*
X141652500Y-72937500D01*
X141652500Y-72957500D01*
G36*
X124253500Y-72640000D02*
X124273500Y-72640000D01*
X124273500Y-72648000D01*
X124253500Y-72648000D01*
X124253500Y-72668000D01*
X124245500Y-72668000D01*
X124245500Y-72648000D01*
X124225500Y-72648000D01*
X124225500Y-72640000D01*
X124245500Y-72640000D01*
X124245500Y-72620000D01*
X124253500Y-72620000D01*
X124253500Y-72640000D01*
X124253500Y-72640000D01*
G37*
X124253500Y-72640000D02*
X124273500Y-72640000D01*
X124273500Y-72648000D01*
X124253500Y-72648000D01*
X124253500Y-72668000D01*
X124245500Y-72668000D01*
X124245500Y-72648000D01*
X124225500Y-72648000D01*
X124225500Y-72640000D01*
X124245500Y-72640000D01*
X124245500Y-72620000D01*
X124253500Y-72620000D01*
X124253500Y-72640000D01*
M02*
