M48
;DRILL file {KiCad 4.0.5+dfsg1-4~bpo8+1} date Thu Oct 19 12:35:29 2017
;FORMAT={-:-/ absolute / metric / decimal}
FMAT,2
METRIC,TZ
T1C0.300
T2C0.900
T3C1.016
T4C2.300
%
G90
G05
M71
T1
X114.4Y-83.72
X114.53Y-73.515
X114.53Y-78.585
X116.155Y-95.095
X116.675Y-81.445
X118.56Y-95.42
X118.755Y-90.805
X132.665Y-94.965
X135.33Y-92.3
T2
X103.575Y-71.065
X103.575Y-98.065
T3
X111.76Y-73.533
X111.76Y-76.073
X111.76Y-78.613
X111.76Y-81.153
X111.76Y-83.693
X111.76Y-86.233
X111.76Y-88.773
X111.76Y-91.313
X111.76Y-93.853
X111.76Y-96.393
X111.76Y-98.933
X161.395Y-99.32
X161.46Y-94.25
X161.525Y-104.455
X161.72Y-89.44
X161.98Y-83.98
X162.11Y-67.99
X162.11Y-73.515
X162.175Y-78.975
X163.935Y-99.32
X164.Y-94.25
X164.065Y-104.455
X164.26Y-89.44
X164.52Y-83.98
X164.65Y-67.99
X164.65Y-73.515
X164.715Y-78.975
T4
X102.175Y-68.215
X102.175Y-100.915
T0
M30
