G04 #@! TF.FileFunction,Copper,L1,Top,Signal*
%FSLAX46Y46*%
G04 Gerber Fmt 4.6, Leading zero omitted, Abs format (unit mm)*
G04 Created by KiCad (PCBNEW 4.0.6-e0-6349~53~ubuntu14.04.1) date Wed Nov  8 09:44:36 2017*
%MOMM*%
%LPD*%
G01*
G04 APERTURE LIST*
%ADD10C,0.100000*%
%ADD11C,0.080000*%
%ADD12C,0.010000*%
%ADD13R,0.431800X1.600200*%
%ADD14R,5.892800X4.800600*%
%ADD15R,2.200000X1.600000*%
%ADD16R,1.500000X1.250000*%
%ADD17R,2.032000X1.727200*%
%ADD18O,2.032000X1.727200*%
%ADD19R,1.500000X1.300000*%
%ADD20R,1.500000X2.400000*%
%ADD21R,1.500000X0.700000*%
%ADD22C,1.200000*%
%ADD23R,4.500000X4.850000*%
%ADD24C,1.500000*%
%ADD25C,5.000000*%
%ADD26C,0.762000*%
%ADD27C,0.381000*%
%ADD28C,0.508000*%
%ADD29C,0.635000*%
%ADD30C,0.250000*%
%ADD31C,0.500000*%
G04 APERTURE END LIST*
D10*
D11*
X103223763Y-118693381D02*
X103176144Y-118717190D01*
X103080906Y-118717190D01*
X103033287Y-118693381D01*
X103009478Y-118669571D01*
X102985668Y-118621952D01*
X102985668Y-118479095D01*
X103009478Y-118431476D01*
X103033287Y-118407667D01*
X103080906Y-118383857D01*
X103176144Y-118383857D01*
X103223763Y-118407667D01*
X103509477Y-118717190D02*
X103461858Y-118693381D01*
X103438049Y-118669571D01*
X103414239Y-118621952D01*
X103414239Y-118479095D01*
X103438049Y-118431476D01*
X103461858Y-118407667D01*
X103509477Y-118383857D01*
X103580906Y-118383857D01*
X103628525Y-118407667D01*
X103652334Y-118431476D01*
X103676144Y-118479095D01*
X103676144Y-118621952D01*
X103652334Y-118669571D01*
X103628525Y-118693381D01*
X103580906Y-118717190D01*
X103509477Y-118717190D01*
X103890430Y-118717190D02*
X103890430Y-118383857D01*
X103890430Y-118479095D02*
X103914239Y-118431476D01*
X103938049Y-118407667D01*
X103985668Y-118383857D01*
X104033287Y-118383857D01*
X104199954Y-118717190D02*
X104199954Y-118383857D01*
X104199954Y-118479095D02*
X104223763Y-118431476D01*
X104247573Y-118407667D01*
X104295192Y-118383857D01*
X104342811Y-118383857D01*
X104699954Y-118693381D02*
X104652335Y-118717190D01*
X104557097Y-118717190D01*
X104509478Y-118693381D01*
X104485668Y-118645762D01*
X104485668Y-118455286D01*
X104509478Y-118407667D01*
X104557097Y-118383857D01*
X104652335Y-118383857D01*
X104699954Y-118407667D01*
X104723763Y-118455286D01*
X104723763Y-118502905D01*
X104485668Y-118550524D01*
X105009477Y-118717190D02*
X104961858Y-118693381D01*
X104938049Y-118669571D01*
X104914239Y-118621952D01*
X104914239Y-118479095D01*
X104938049Y-118431476D01*
X104961858Y-118407667D01*
X105009477Y-118383857D01*
X105080906Y-118383857D01*
X105128525Y-118407667D01*
X105152334Y-118431476D01*
X105176144Y-118479095D01*
X105176144Y-118621952D01*
X105152334Y-118669571D01*
X105128525Y-118693381D01*
X105080906Y-118717190D01*
X105009477Y-118717190D01*
X105699953Y-118479095D02*
X105676144Y-118455286D01*
X105628525Y-118431476D01*
X105580906Y-118431476D01*
X105533287Y-118455286D01*
X105509477Y-118479095D01*
X105485668Y-118526714D01*
X105485668Y-118574333D01*
X105509477Y-118621952D01*
X105533287Y-118645762D01*
X105580906Y-118669571D01*
X105628525Y-118669571D01*
X105676144Y-118645762D01*
X105699953Y-118621952D01*
X105699953Y-118431476D02*
X105699953Y-118621952D01*
X105723763Y-118645762D01*
X105747572Y-118645762D01*
X105795192Y-118621952D01*
X105819001Y-118574333D01*
X105819001Y-118455286D01*
X105771382Y-118383857D01*
X105699953Y-118336238D01*
X105604715Y-118312429D01*
X105509477Y-118336238D01*
X105438049Y-118383857D01*
X105390430Y-118455286D01*
X105366620Y-118550524D01*
X105390430Y-118645762D01*
X105438049Y-118717190D01*
X105509477Y-118764810D01*
X105604715Y-118788619D01*
X105699953Y-118764810D01*
X105771382Y-118717190D01*
X106176144Y-118217190D02*
X106176144Y-118574333D01*
X106152334Y-118645762D01*
X106104715Y-118693381D01*
X106033287Y-118717190D01*
X105985668Y-118717190D01*
X106485667Y-118717190D02*
X106438048Y-118693381D01*
X106414239Y-118669571D01*
X106390429Y-118621952D01*
X106390429Y-118479095D01*
X106414239Y-118431476D01*
X106438048Y-118407667D01*
X106485667Y-118383857D01*
X106557096Y-118383857D01*
X106604715Y-118407667D01*
X106628524Y-118431476D01*
X106652334Y-118479095D01*
X106652334Y-118621952D01*
X106628524Y-118669571D01*
X106604715Y-118693381D01*
X106557096Y-118717190D01*
X106485667Y-118717190D01*
X106842810Y-118693381D02*
X106890429Y-118717190D01*
X106985667Y-118717190D01*
X107033286Y-118693381D01*
X107057096Y-118645762D01*
X107057096Y-118621952D01*
X107033286Y-118574333D01*
X106985667Y-118550524D01*
X106914239Y-118550524D01*
X106866620Y-118526714D01*
X106842810Y-118479095D01*
X106842810Y-118455286D01*
X106866620Y-118407667D01*
X106914239Y-118383857D01*
X106985667Y-118383857D01*
X107033286Y-118407667D01*
X107461858Y-118693381D02*
X107414239Y-118717190D01*
X107319001Y-118717190D01*
X107271382Y-118693381D01*
X107247572Y-118645762D01*
X107247572Y-118455286D01*
X107271382Y-118407667D01*
X107319001Y-118383857D01*
X107414239Y-118383857D01*
X107461858Y-118407667D01*
X107485667Y-118455286D01*
X107485667Y-118502905D01*
X107247572Y-118550524D01*
X107676143Y-118574333D02*
X107914238Y-118574333D01*
X107628524Y-118717190D02*
X107795191Y-118217190D01*
X107961857Y-118717190D01*
X108128524Y-118717190D02*
X108128524Y-118383857D01*
X108128524Y-118479095D02*
X108152333Y-118431476D01*
X108176143Y-118407667D01*
X108223762Y-118383857D01*
X108271381Y-118383857D01*
X108438048Y-118717190D02*
X108438048Y-118383857D01*
X108438048Y-118217190D02*
X108414238Y-118241000D01*
X108438048Y-118264810D01*
X108461857Y-118241000D01*
X108438048Y-118217190D01*
X108438048Y-118264810D01*
X108890428Y-118717190D02*
X108890428Y-118455286D01*
X108866619Y-118407667D01*
X108819000Y-118383857D01*
X108723762Y-118383857D01*
X108676143Y-118407667D01*
X108890428Y-118693381D02*
X108842809Y-118717190D01*
X108723762Y-118717190D01*
X108676143Y-118693381D01*
X108652333Y-118645762D01*
X108652333Y-118598143D01*
X108676143Y-118550524D01*
X108723762Y-118526714D01*
X108842809Y-118526714D01*
X108890428Y-118502905D01*
X109104714Y-118693381D02*
X109152333Y-118717190D01*
X109247571Y-118717190D01*
X109295190Y-118693381D01*
X109319000Y-118645762D01*
X109319000Y-118621952D01*
X109295190Y-118574333D01*
X109247571Y-118550524D01*
X109176143Y-118550524D01*
X109128524Y-118526714D01*
X109104714Y-118479095D01*
X109104714Y-118455286D01*
X109128524Y-118407667D01*
X109176143Y-118383857D01*
X109247571Y-118383857D01*
X109295190Y-118407667D01*
X109533286Y-118669571D02*
X109557095Y-118693381D01*
X109533286Y-118717190D01*
X109509476Y-118693381D01*
X109533286Y-118669571D01*
X109533286Y-118717190D01*
X109985666Y-118693381D02*
X109938047Y-118717190D01*
X109842809Y-118717190D01*
X109795190Y-118693381D01*
X109771381Y-118669571D01*
X109747571Y-118621952D01*
X109747571Y-118479095D01*
X109771381Y-118431476D01*
X109795190Y-118407667D01*
X109842809Y-118383857D01*
X109938047Y-118383857D01*
X109985666Y-118407667D01*
X110271380Y-118717190D02*
X110223761Y-118693381D01*
X110199952Y-118669571D01*
X110176142Y-118621952D01*
X110176142Y-118479095D01*
X110199952Y-118431476D01*
X110223761Y-118407667D01*
X110271380Y-118383857D01*
X110342809Y-118383857D01*
X110390428Y-118407667D01*
X110414237Y-118431476D01*
X110438047Y-118479095D01*
X110438047Y-118621952D01*
X110414237Y-118669571D01*
X110390428Y-118693381D01*
X110342809Y-118717190D01*
X110271380Y-118717190D01*
X110652333Y-118717190D02*
X110652333Y-118383857D01*
X110652333Y-118431476D02*
X110676142Y-118407667D01*
X110723761Y-118383857D01*
X110795190Y-118383857D01*
X110842809Y-118407667D01*
X110866618Y-118455286D01*
X110866618Y-118717190D01*
X110866618Y-118455286D02*
X110890428Y-118407667D01*
X110938047Y-118383857D01*
X111009475Y-118383857D01*
X111057095Y-118407667D01*
X111080904Y-118455286D01*
X111080904Y-118717190D01*
X111319000Y-118669571D02*
X111342809Y-118693381D01*
X111319000Y-118717190D01*
X111295190Y-118693381D01*
X111319000Y-118669571D01*
X111319000Y-118717190D01*
X111509476Y-118383857D02*
X111628523Y-118717190D01*
X111747571Y-118383857D01*
X112128523Y-118693381D02*
X112080904Y-118717190D01*
X111985666Y-118717190D01*
X111938047Y-118693381D01*
X111914237Y-118645762D01*
X111914237Y-118455286D01*
X111938047Y-118407667D01*
X111985666Y-118383857D01*
X112080904Y-118383857D01*
X112128523Y-118407667D01*
X112152332Y-118455286D01*
X112152332Y-118502905D01*
X111914237Y-118550524D01*
D12*
G36*
X104351667Y-114693467D02*
X103956560Y-115054606D01*
X103702315Y-115376358D01*
X103590890Y-115650436D01*
X103624247Y-115868554D01*
X103804345Y-116022426D01*
X104021768Y-116088021D01*
X104169556Y-116118598D01*
X104178857Y-116136365D01*
X104037724Y-116146742D01*
X103881766Y-116151521D01*
X103614479Y-116138982D01*
X103411817Y-116094592D01*
X103352600Y-116061067D01*
X103268373Y-115868607D01*
X103313977Y-115618534D01*
X103472139Y-115337104D01*
X103725588Y-115050578D01*
X104057051Y-114785214D01*
X104280722Y-114650010D01*
X104648000Y-114452471D01*
X104351667Y-114693467D01*
X104351667Y-114693467D01*
G37*
X104351667Y-114693467D02*
X103956560Y-115054606D01*
X103702315Y-115376358D01*
X103590890Y-115650436D01*
X103624247Y-115868554D01*
X103804345Y-116022426D01*
X104021768Y-116088021D01*
X104169556Y-116118598D01*
X104178857Y-116136365D01*
X104037724Y-116146742D01*
X103881766Y-116151521D01*
X103614479Y-116138982D01*
X103411817Y-116094592D01*
X103352600Y-116061067D01*
X103268373Y-115868607D01*
X103313977Y-115618534D01*
X103472139Y-115337104D01*
X103725588Y-115050578D01*
X104057051Y-114785214D01*
X104280722Y-114650010D01*
X104648000Y-114452471D01*
X104351667Y-114693467D01*
G36*
X106045000Y-116120334D02*
X106002667Y-116162667D01*
X105960333Y-116120334D01*
X106002667Y-116078000D01*
X106045000Y-116120334D01*
X106045000Y-116120334D01*
G37*
X106045000Y-116120334D02*
X106002667Y-116162667D01*
X105960333Y-116120334D01*
X106002667Y-116078000D01*
X106045000Y-116120334D01*
G36*
X107992333Y-116120334D02*
X107950000Y-116162667D01*
X107907667Y-116120334D01*
X107950000Y-116078000D01*
X107992333Y-116120334D01*
X107992333Y-116120334D01*
G37*
X107992333Y-116120334D02*
X107950000Y-116162667D01*
X107907667Y-116120334D01*
X107950000Y-116078000D01*
X107992333Y-116120334D01*
G36*
X108839000Y-116120334D02*
X108796667Y-116162667D01*
X108754333Y-116120334D01*
X108796667Y-116078000D01*
X108839000Y-116120334D01*
X108839000Y-116120334D01*
G37*
X108839000Y-116120334D02*
X108796667Y-116162667D01*
X108754333Y-116120334D01*
X108796667Y-116078000D01*
X108839000Y-116120334D01*
G36*
X105452333Y-115781667D02*
X105410000Y-115824000D01*
X105367667Y-115781667D01*
X105410000Y-115739334D01*
X105452333Y-115781667D01*
X105452333Y-115781667D01*
G37*
X105452333Y-115781667D02*
X105410000Y-115824000D01*
X105367667Y-115781667D01*
X105410000Y-115739334D01*
X105452333Y-115781667D01*
G36*
X109093000Y-115781667D02*
X109050667Y-115824000D01*
X109008333Y-115781667D01*
X109050667Y-115739334D01*
X109093000Y-115781667D01*
X109093000Y-115781667D01*
G37*
X109093000Y-115781667D02*
X109050667Y-115824000D01*
X109008333Y-115781667D01*
X109050667Y-115739334D01*
X109093000Y-115781667D01*
G36*
X109601000Y-115781667D02*
X109558667Y-115824000D01*
X109516333Y-115781667D01*
X109558667Y-115739334D01*
X109601000Y-115781667D01*
X109601000Y-115781667D01*
G37*
X109601000Y-115781667D02*
X109558667Y-115824000D01*
X109516333Y-115781667D01*
X109558667Y-115739334D01*
X109601000Y-115781667D01*
G36*
X110786333Y-115781667D02*
X110744000Y-115824000D01*
X110701667Y-115781667D01*
X110744000Y-115739334D01*
X110786333Y-115781667D01*
X110786333Y-115781667D01*
G37*
X110786333Y-115781667D02*
X110744000Y-115824000D01*
X110701667Y-115781667D01*
X110744000Y-115739334D01*
X110786333Y-115781667D01*
G36*
X111633000Y-115781667D02*
X111590667Y-115824000D01*
X111548333Y-115781667D01*
X111590667Y-115739334D01*
X111633000Y-115781667D01*
X111633000Y-115781667D01*
G37*
X111633000Y-115781667D02*
X111590667Y-115824000D01*
X111548333Y-115781667D01*
X111590667Y-115739334D01*
X111633000Y-115781667D01*
G36*
X104437650Y-115080380D02*
X104320422Y-115332933D01*
X104331184Y-115501953D01*
X104476785Y-115622224D01*
X104550830Y-115655233D01*
X104656399Y-115705745D01*
X104618606Y-115727557D01*
X104471611Y-115733967D01*
X104270070Y-115721081D01*
X104154111Y-115682889D01*
X104094241Y-115514400D01*
X104154471Y-115289149D01*
X104320559Y-115053452D01*
X104359702Y-115014341D01*
X104621738Y-114765667D01*
X104437650Y-115080380D01*
X104437650Y-115080380D01*
G37*
X104437650Y-115080380D02*
X104320422Y-115332933D01*
X104331184Y-115501953D01*
X104476785Y-115622224D01*
X104550830Y-115655233D01*
X104656399Y-115705745D01*
X104618606Y-115727557D01*
X104471611Y-115733967D01*
X104270070Y-115721081D01*
X104154111Y-115682889D01*
X104094241Y-115514400D01*
X104154471Y-115289149D01*
X104320559Y-115053452D01*
X104359702Y-115014341D01*
X104621738Y-114765667D01*
X104437650Y-115080380D01*
G36*
X106419075Y-114520725D02*
X106546732Y-114596656D01*
X106520434Y-114656882D01*
X106355462Y-114691492D01*
X106150833Y-114694708D01*
X105906572Y-114694158D01*
X105783679Y-114729776D01*
X105734696Y-114824667D01*
X105722920Y-114903018D01*
X105759204Y-115106217D01*
X105902133Y-115197211D01*
X106115146Y-115154155D01*
X106130234Y-115146363D01*
X106323655Y-115067017D01*
X106424050Y-115073403D01*
X106404991Y-115161074D01*
X106383667Y-115189000D01*
X106212281Y-115288317D01*
X105963827Y-115322805D01*
X105706311Y-115295555D01*
X105507740Y-115209658D01*
X105452333Y-115146667D01*
X105410722Y-114924881D01*
X105504355Y-114724910D01*
X105699144Y-114568824D01*
X105961000Y-114478697D01*
X106255834Y-114476599D01*
X106419075Y-114520725D01*
X106419075Y-114520725D01*
G37*
X106419075Y-114520725D02*
X106546732Y-114596656D01*
X106520434Y-114656882D01*
X106355462Y-114691492D01*
X106150833Y-114694708D01*
X105906572Y-114694158D01*
X105783679Y-114729776D01*
X105734696Y-114824667D01*
X105722920Y-114903018D01*
X105759204Y-115106217D01*
X105902133Y-115197211D01*
X106115146Y-115154155D01*
X106130234Y-115146363D01*
X106323655Y-115067017D01*
X106424050Y-115073403D01*
X106404991Y-115161074D01*
X106383667Y-115189000D01*
X106212281Y-115288317D01*
X105963827Y-115322805D01*
X105706311Y-115295555D01*
X105507740Y-115209658D01*
X105452333Y-115146667D01*
X105410722Y-114924881D01*
X105504355Y-114724910D01*
X105699144Y-114568824D01*
X105961000Y-114478697D01*
X106255834Y-114476599D01*
X106419075Y-114520725D01*
G36*
X107555990Y-114483028D02*
X107689486Y-114521392D01*
X107696000Y-114554000D01*
X107584989Y-114608119D01*
X107374419Y-114637120D01*
X107310003Y-114638667D01*
X107099783Y-114657707D01*
X106984095Y-114705193D01*
X106976333Y-114723334D01*
X107050850Y-114778923D01*
X107234462Y-114807126D01*
X107277663Y-114808000D01*
X107470311Y-114828055D01*
X107531586Y-114881110D01*
X107526667Y-114892667D01*
X107414081Y-114949925D01*
X107208909Y-114977004D01*
X107183003Y-114977334D01*
X106989130Y-114998937D01*
X106893724Y-115051946D01*
X106891667Y-115062000D01*
X106966095Y-115117962D01*
X107149110Y-115145936D01*
X107188000Y-115146667D01*
X107383867Y-115167932D01*
X107481774Y-115220222D01*
X107484333Y-115231334D01*
X107407781Y-115277700D01*
X107210309Y-115308453D01*
X107018667Y-115316000D01*
X106763571Y-115311517D01*
X106594430Y-115299954D01*
X106553000Y-115288749D01*
X106577888Y-115199986D01*
X106641360Y-115003861D01*
X106687959Y-114865416D01*
X106822918Y-114469334D01*
X107285622Y-114469334D01*
X107555990Y-114483028D01*
X107555990Y-114483028D01*
G37*
X107555990Y-114483028D02*
X107689486Y-114521392D01*
X107696000Y-114554000D01*
X107584989Y-114608119D01*
X107374419Y-114637120D01*
X107310003Y-114638667D01*
X107099783Y-114657707D01*
X106984095Y-114705193D01*
X106976333Y-114723334D01*
X107050850Y-114778923D01*
X107234462Y-114807126D01*
X107277663Y-114808000D01*
X107470311Y-114828055D01*
X107531586Y-114881110D01*
X107526667Y-114892667D01*
X107414081Y-114949925D01*
X107208909Y-114977004D01*
X107183003Y-114977334D01*
X106989130Y-114998937D01*
X106893724Y-115051946D01*
X106891667Y-115062000D01*
X106966095Y-115117962D01*
X107149110Y-115145936D01*
X107188000Y-115146667D01*
X107383867Y-115167932D01*
X107481774Y-115220222D01*
X107484333Y-115231334D01*
X107407781Y-115277700D01*
X107210309Y-115308453D01*
X107018667Y-115316000D01*
X106763571Y-115311517D01*
X106594430Y-115299954D01*
X106553000Y-115288749D01*
X106577888Y-115199986D01*
X106641360Y-115003861D01*
X106687959Y-114865416D01*
X106822918Y-114469334D01*
X107285622Y-114469334D01*
X107555990Y-114483028D01*
G36*
X108825585Y-114509365D02*
X108827108Y-114646984D01*
X108764457Y-114908475D01*
X108740931Y-114988677D01*
X108623906Y-115233878D01*
X108478442Y-115313868D01*
X108318725Y-115227300D01*
X108192094Y-115040834D01*
X108048840Y-114765667D01*
X107935677Y-115040834D01*
X107829600Y-115231947D01*
X107732327Y-115312414D01*
X107674689Y-115273880D01*
X107687497Y-115108068D01*
X107805849Y-114731353D01*
X107931009Y-114522678D01*
X108065357Y-114480807D01*
X108211272Y-114604503D01*
X108317415Y-114780804D01*
X108477209Y-115092275D01*
X108580004Y-114780804D01*
X108663813Y-114581810D01*
X108744087Y-114475074D01*
X108760899Y-114469334D01*
X108825585Y-114509365D01*
X108825585Y-114509365D01*
G37*
X108825585Y-114509365D02*
X108827108Y-114646984D01*
X108764457Y-114908475D01*
X108740931Y-114988677D01*
X108623906Y-115233878D01*
X108478442Y-115313868D01*
X108318725Y-115227300D01*
X108192094Y-115040834D01*
X108048840Y-114765667D01*
X107935677Y-115040834D01*
X107829600Y-115231947D01*
X107732327Y-115312414D01*
X107674689Y-115273880D01*
X107687497Y-115108068D01*
X107805849Y-114731353D01*
X107931009Y-114522678D01*
X108065357Y-114480807D01*
X108211272Y-114604503D01*
X108317415Y-114780804D01*
X108477209Y-115092275D01*
X108580004Y-114780804D01*
X108663813Y-114581810D01*
X108744087Y-114475074D01*
X108760899Y-114469334D01*
X108825585Y-114509365D01*
G36*
X109737988Y-114514554D02*
X109949111Y-114636902D01*
X110024165Y-114816403D01*
X109949854Y-115033085D01*
X109855000Y-115146667D01*
X109671116Y-115264084D01*
X109397944Y-115312519D01*
X109262333Y-115316000D01*
X109020841Y-115301078D01*
X108867565Y-115262926D01*
X108839000Y-115233047D01*
X108868364Y-115108355D01*
X108877064Y-115083167D01*
X109178823Y-115083167D01*
X109244087Y-115140661D01*
X109397074Y-115142604D01*
X109568758Y-115097510D01*
X109684772Y-115020745D01*
X109752818Y-114842638D01*
X109678498Y-114698471D01*
X109487974Y-114638669D01*
X109486532Y-114638667D01*
X109302747Y-114713495D01*
X109197271Y-114921575D01*
X109178823Y-115083167D01*
X108877064Y-115083167D01*
X108941967Y-114895267D01*
X108975193Y-114809714D01*
X109077154Y-114593487D01*
X109188575Y-114495075D01*
X109365968Y-114469630D01*
X109404092Y-114469334D01*
X109737988Y-114514554D01*
X109737988Y-114514554D01*
G37*
X109737988Y-114514554D02*
X109949111Y-114636902D01*
X110024165Y-114816403D01*
X109949854Y-115033085D01*
X109855000Y-115146667D01*
X109671116Y-115264084D01*
X109397944Y-115312519D01*
X109262333Y-115316000D01*
X109020841Y-115301078D01*
X108867565Y-115262926D01*
X108839000Y-115233047D01*
X108868364Y-115108355D01*
X108877064Y-115083167D01*
X109178823Y-115083167D01*
X109244087Y-115140661D01*
X109397074Y-115142604D01*
X109568758Y-115097510D01*
X109684772Y-115020745D01*
X109752818Y-114842638D01*
X109678498Y-114698471D01*
X109487974Y-114638669D01*
X109486532Y-114638667D01*
X109302747Y-114713495D01*
X109197271Y-114921575D01*
X109178823Y-115083167D01*
X108877064Y-115083167D01*
X108941967Y-114895267D01*
X108975193Y-114809714D01*
X109077154Y-114593487D01*
X109188575Y-114495075D01*
X109365968Y-114469630D01*
X109404092Y-114469334D01*
X109737988Y-114514554D01*
G36*
X110511705Y-114522274D02*
X110498503Y-114677266D01*
X110379692Y-115057260D01*
X110256416Y-115268498D01*
X110161213Y-115316000D01*
X110097147Y-115293250D01*
X110090265Y-115200182D01*
X110141804Y-114999572D01*
X110175278Y-114892667D01*
X110277312Y-114641012D01*
X110381826Y-114492420D01*
X110430672Y-114469334D01*
X110511705Y-114522274D01*
X110511705Y-114522274D01*
G37*
X110511705Y-114522274D02*
X110498503Y-114677266D01*
X110379692Y-115057260D01*
X110256416Y-115268498D01*
X110161213Y-115316000D01*
X110097147Y-115293250D01*
X110090265Y-115200182D01*
X110141804Y-114999572D01*
X110175278Y-114892667D01*
X110277312Y-114641012D01*
X110381826Y-114492420D01*
X110430672Y-114469334D01*
X110511705Y-114522274D01*
G36*
X111480256Y-114482187D02*
X111663707Y-114515764D01*
X111717667Y-114554000D01*
X111645316Y-114618021D01*
X111509398Y-114638667D01*
X111362523Y-114670642D01*
X111264866Y-114795236D01*
X111199663Y-114977334D01*
X111110345Y-115180469D01*
X111007124Y-115300918D01*
X110921684Y-115324237D01*
X110885708Y-115235984D01*
X110903794Y-115112199D01*
X110965514Y-114894952D01*
X111006697Y-114773532D01*
X111001574Y-114665892D01*
X110880058Y-114638667D01*
X110737633Y-114604831D01*
X110701667Y-114554000D01*
X110778786Y-114508902D01*
X110980249Y-114478327D01*
X111209667Y-114469334D01*
X111480256Y-114482187D01*
X111480256Y-114482187D01*
G37*
X111480256Y-114482187D02*
X111663707Y-114515764D01*
X111717667Y-114554000D01*
X111645316Y-114618021D01*
X111509398Y-114638667D01*
X111362523Y-114670642D01*
X111264866Y-114795236D01*
X111199663Y-114977334D01*
X111110345Y-115180469D01*
X111007124Y-115300918D01*
X110921684Y-115324237D01*
X110885708Y-115235984D01*
X110903794Y-115112199D01*
X110965514Y-114894952D01*
X111006697Y-114773532D01*
X111001574Y-114665892D01*
X110880058Y-114638667D01*
X110737633Y-114604831D01*
X110701667Y-114554000D01*
X110778786Y-114508902D01*
X110980249Y-114478327D01*
X111209667Y-114469334D01*
X111480256Y-114482187D01*
G36*
X104859667Y-114681000D02*
X104817333Y-114723334D01*
X104775000Y-114681000D01*
X104817333Y-114638667D01*
X104859667Y-114681000D01*
X104859667Y-114681000D01*
G37*
X104859667Y-114681000D02*
X104817333Y-114723334D01*
X104775000Y-114681000D01*
X104817333Y-114638667D01*
X104859667Y-114681000D01*
G36*
X104775000Y-114427000D02*
X104732667Y-114469334D01*
X104690333Y-114427000D01*
X104732667Y-114384667D01*
X104775000Y-114427000D01*
X104775000Y-114427000D01*
G37*
X104775000Y-114427000D02*
X104732667Y-114469334D01*
X104690333Y-114427000D01*
X104732667Y-114384667D01*
X104775000Y-114427000D01*
G36*
X107900822Y-113741846D02*
X108038641Y-113839654D01*
X108028853Y-114011612D01*
X107997683Y-114078337D01*
X107866467Y-114269425D01*
X107757801Y-114340079D01*
X107698915Y-114284248D01*
X107706209Y-114143123D01*
X107709968Y-113951795D01*
X107597902Y-113836063D01*
X107555174Y-113813944D01*
X107427282Y-113747086D01*
X107444690Y-113721061D01*
X107611333Y-113714360D01*
X107900822Y-113741846D01*
X107900822Y-113741846D01*
G37*
X107900822Y-113741846D02*
X108038641Y-113839654D01*
X108028853Y-114011612D01*
X107997683Y-114078337D01*
X107866467Y-114269425D01*
X107757801Y-114340079D01*
X107698915Y-114284248D01*
X107706209Y-114143123D01*
X107709968Y-113951795D01*
X107597902Y-113836063D01*
X107555174Y-113813944D01*
X107427282Y-113747086D01*
X107444690Y-113721061D01*
X107611333Y-113714360D01*
X107900822Y-113741846D01*
G36*
X108439705Y-113399389D02*
X108708079Y-113483580D01*
X108829911Y-113633250D01*
X108839000Y-113703816D01*
X108783018Y-113879637D01*
X108645934Y-114087427D01*
X108474043Y-114271656D01*
X108313640Y-114376793D01*
X108271403Y-114384667D01*
X108191880Y-114366904D01*
X108211581Y-114284950D01*
X108278929Y-114175979D01*
X108397699Y-113908884D01*
X108361479Y-113700874D01*
X108167534Y-113547421D01*
X107839730Y-113449021D01*
X107682970Y-113415306D01*
X107657757Y-113395605D01*
X107777117Y-113384787D01*
X108019066Y-113378403D01*
X108439705Y-113399389D01*
X108439705Y-113399389D01*
G37*
X108439705Y-113399389D02*
X108708079Y-113483580D01*
X108829911Y-113633250D01*
X108839000Y-113703816D01*
X108783018Y-113879637D01*
X108645934Y-114087427D01*
X108474043Y-114271656D01*
X108313640Y-114376793D01*
X108271403Y-114384667D01*
X108191880Y-114366904D01*
X108211581Y-114284950D01*
X108278929Y-114175979D01*
X108397699Y-113908884D01*
X108361479Y-113700874D01*
X108167534Y-113547421D01*
X107839730Y-113449021D01*
X107682970Y-113415306D01*
X107657757Y-113395605D01*
X107777117Y-113384787D01*
X108019066Y-113378403D01*
X108439705Y-113399389D01*
D13*
X128320800Y-97282000D03*
X127660400Y-97282000D03*
X127025400Y-97282000D03*
X126365000Y-97282000D03*
X125730000Y-97282000D03*
X125069600Y-97282000D03*
X124409200Y-97282000D03*
X123774200Y-97282000D03*
X123113800Y-97282000D03*
X122478800Y-97282000D03*
X121818400Y-97282000D03*
X121158000Y-97282000D03*
X120523000Y-97282000D03*
X119862600Y-97282000D03*
X119227600Y-97282000D03*
X118567200Y-97282000D03*
X118567200Y-106680000D03*
X119227600Y-106680000D03*
X119862600Y-106680000D03*
X120523000Y-106680000D03*
X121158000Y-106680000D03*
X121818400Y-106680000D03*
X122478800Y-106680000D03*
X123113800Y-106680000D03*
X123774200Y-106680000D03*
X124409200Y-106680000D03*
X125069600Y-106680000D03*
X125730000Y-106680000D03*
X126365000Y-106680000D03*
X127025400Y-106680000D03*
X127660400Y-106680000D03*
X128320800Y-106680000D03*
D14*
X123444000Y-101981000D03*
D15*
X106865000Y-82925000D03*
X103865000Y-82925000D03*
D16*
X104670000Y-86450000D03*
X107170000Y-86450000D03*
D15*
X110977000Y-82925000D03*
X113977000Y-82925000D03*
D16*
X113230000Y-86500000D03*
X110730000Y-86500000D03*
X130150000Y-85920000D03*
X132650000Y-85920000D03*
D17*
X138938000Y-112649000D03*
D18*
X138938000Y-110109000D03*
X138938000Y-107569000D03*
X138938000Y-105029000D03*
X138938000Y-102489000D03*
X138938000Y-99949000D03*
X138938000Y-97409000D03*
X138938000Y-94869000D03*
X138938000Y-92329000D03*
D17*
X142494000Y-92329000D03*
D18*
X142494000Y-94869000D03*
X142494000Y-97409000D03*
X142494000Y-99949000D03*
X142494000Y-102489000D03*
X142494000Y-105029000D03*
X142494000Y-107569000D03*
X142494000Y-110109000D03*
X142494000Y-112649000D03*
D19*
X119714000Y-115951000D03*
X117014000Y-115951000D03*
D16*
X123630000Y-82900000D03*
X121130000Y-82900000D03*
D17*
X106299000Y-90805000D03*
D18*
X106299000Y-93345000D03*
X106299000Y-95885000D03*
X106299000Y-98425000D03*
X106299000Y-100965000D03*
X106299000Y-103505000D03*
X106299000Y-106045000D03*
X106299000Y-108585000D03*
X106299000Y-111125000D03*
D20*
X99187000Y-98933000D03*
D21*
X99187000Y-108423000D03*
X99187000Y-107153000D03*
X99187000Y-109693000D03*
X99187000Y-105883000D03*
X99187000Y-104613000D03*
X99187000Y-103343000D03*
X99187000Y-102073000D03*
X99187000Y-95863000D03*
X99187000Y-94863000D03*
X99187000Y-93863000D03*
X99187000Y-92863000D03*
X99187000Y-91863000D03*
X99187000Y-90863000D03*
D22*
X97987000Y-113813000D03*
X97987000Y-86813000D03*
D23*
X95387000Y-116663000D03*
X95387000Y-83963000D03*
D24*
X136440000Y-87780000D03*
X136400000Y-94870000D03*
X136070000Y-84290000D03*
X123660000Y-85550000D03*
X123530000Y-95140000D03*
X136017000Y-92329000D03*
X109110000Y-88880000D03*
X109110000Y-93345000D03*
X127460000Y-86310000D03*
X127450000Y-93540000D03*
X127000000Y-118745000D03*
X127000000Y-110109000D03*
X123698000Y-109093000D03*
X123698000Y-118491000D03*
X109220000Y-103378000D03*
X123571000Y-92964000D03*
X116459000Y-107823000D03*
X118999000Y-110744000D03*
X122936000Y-110998000D03*
X122809000Y-115951000D03*
X119126000Y-93218000D03*
X109093000Y-106045000D03*
D25*
X123444000Y-101981000D02*
X126746000Y-101981000D01*
X123444000Y-101981000D02*
X116840000Y-101981000D01*
X116840000Y-101981000D02*
X116713000Y-101854000D01*
D26*
X99187000Y-92863000D02*
X102007000Y-92863000D01*
X102007000Y-92863000D02*
X105029000Y-95885000D01*
X105029000Y-95885000D02*
X106299000Y-95885000D01*
D27*
X121130000Y-82900000D02*
X120000000Y-82900000D01*
X107170000Y-88670000D02*
X107170000Y-86450000D01*
X108533498Y-90033498D02*
X107170000Y-88670000D01*
X112866502Y-90033498D02*
X108533498Y-90033498D01*
X120000000Y-82900000D02*
X112866502Y-90033498D01*
X121130000Y-82900000D02*
X121120000Y-82900000D01*
D26*
X121120000Y-82900000D02*
X119250000Y-81030000D01*
X110977000Y-82925000D02*
X110977000Y-82483000D01*
X110977000Y-82483000D02*
X112430000Y-81030000D01*
X136610000Y-87780000D02*
X137880000Y-86510000D01*
X137880000Y-86510000D02*
X137880000Y-83730000D01*
X137880000Y-83730000D02*
X136850000Y-82700000D01*
X136850000Y-82700000D02*
X127710000Y-82700000D01*
X127710000Y-82700000D02*
X126040000Y-81030000D01*
X136440000Y-87780000D02*
X136610000Y-87780000D01*
X112430000Y-81030000D02*
X119250000Y-81030000D01*
X119250000Y-81030000D02*
X126040000Y-81030000D01*
X107170000Y-86450000D02*
X107170000Y-83230000D01*
X107170000Y-83230000D02*
X106865000Y-82925000D01*
X110977000Y-82925000D02*
X110977000Y-86253000D01*
X110977000Y-86253000D02*
X110730000Y-86500000D01*
X107170000Y-86450000D02*
X110680000Y-86450000D01*
X110680000Y-86450000D02*
X110730000Y-86500000D01*
D28*
X132650000Y-85920000D02*
X134580000Y-85920000D01*
X134580000Y-85920000D02*
X136440000Y-87780000D01*
D26*
X126490000Y-87820000D02*
X136400000Y-87820000D01*
X115400000Y-95600000D02*
X116210000Y-94790000D01*
X116210000Y-94790000D02*
X116210000Y-91470000D01*
X116210000Y-91470000D02*
X117420000Y-90260000D01*
X117420000Y-90260000D02*
X120010000Y-90260000D01*
X120010000Y-90260000D02*
X122450000Y-87820000D01*
X122450000Y-87820000D02*
X126490000Y-87820000D01*
X115400000Y-95885000D02*
X115400000Y-95600000D01*
X136400000Y-87820000D02*
X136440000Y-87780000D01*
X138938000Y-94869000D02*
X136401000Y-94869000D01*
X136401000Y-94869000D02*
X136400000Y-94870000D01*
X106299000Y-95885000D02*
X115400000Y-95885000D01*
X115400000Y-95885000D02*
X115443000Y-95885000D01*
X105664000Y-95885000D02*
X106299000Y-95885000D01*
X110977000Y-82925000D02*
X110977000Y-82647000D01*
X106865000Y-82925000D02*
X110977000Y-82925000D01*
X115443000Y-95885000D02*
X117294002Y-97736002D01*
X117294002Y-97736002D02*
X117294002Y-100530002D01*
X117294002Y-100530002D02*
X118745000Y-101981000D01*
X118745000Y-101981000D02*
X123444000Y-101981000D01*
D29*
X115316000Y-95885000D02*
X115443000Y-95885000D01*
D27*
X123113800Y-106680000D02*
X123113800Y-102311200D01*
X123113800Y-102311200D02*
X123444000Y-101981000D01*
X124409200Y-106680000D02*
X124409200Y-102946200D01*
X124409200Y-102946200D02*
X123444000Y-101981000D01*
D28*
X123774200Y-106680000D02*
X123774200Y-102311200D01*
X123774200Y-102311200D02*
X123444000Y-101981000D01*
D27*
X124409200Y-97282000D02*
X124409200Y-101015800D01*
X124409200Y-101015800D02*
X123444000Y-101981000D01*
X123774200Y-97282000D02*
X123774200Y-101650800D01*
X123774200Y-101650800D02*
X123444000Y-101981000D01*
X123113800Y-97282000D02*
X123113800Y-101650800D01*
X123113800Y-101650800D02*
X123444000Y-101981000D01*
X122478800Y-97282000D02*
X122478800Y-101015800D01*
X122478800Y-101015800D02*
X123444000Y-101981000D01*
D26*
X122936000Y-101473000D02*
X123444000Y-101981000D01*
D27*
X122936000Y-101473000D02*
X123444000Y-101981000D01*
D26*
X99187000Y-90863000D02*
X106241000Y-90863000D01*
X106241000Y-90863000D02*
X106299000Y-90805000D01*
X104670000Y-86450000D02*
X104670000Y-86720000D01*
X104670000Y-86720000D02*
X103130000Y-88260000D01*
X103865000Y-82925000D02*
X103865000Y-83055000D01*
X103865000Y-83055000D02*
X103130000Y-83790000D01*
X103130000Y-83790000D02*
X103130000Y-88260000D01*
X103130000Y-88260000D02*
X103130000Y-88490000D01*
X103130000Y-88490000D02*
X105503000Y-90863000D01*
X105503000Y-90863000D02*
X106299000Y-90805000D01*
X123660000Y-85550000D02*
X123660000Y-82930000D01*
X123660000Y-82930000D02*
X123630000Y-82900000D01*
X123660000Y-85550000D02*
X125870000Y-85550000D01*
X127130000Y-84290000D02*
X136070000Y-84290000D01*
X125870000Y-85550000D02*
X127130000Y-84290000D01*
X121510000Y-85920000D02*
X121510000Y-85890000D01*
X113935000Y-90805000D02*
X116390000Y-88350000D01*
X116390000Y-88350000D02*
X119080000Y-88350000D01*
X119080000Y-88350000D02*
X121510000Y-85920000D01*
X106299000Y-90805000D02*
X113935000Y-90805000D01*
X121850000Y-85550000D02*
X123660000Y-85550000D01*
X121510000Y-85890000D02*
X121850000Y-85550000D01*
X123660000Y-85550000D02*
X123660000Y-85500000D01*
D27*
X125069600Y-97282000D02*
X125069600Y-96029600D01*
X123550000Y-95160000D02*
X123530000Y-95140000D01*
X124200000Y-95160000D02*
X123550000Y-95160000D01*
X125069600Y-96029600D02*
X124200000Y-95160000D01*
D26*
X106241000Y-90863000D02*
X106299000Y-90805000D01*
X138938000Y-92329000D02*
X136017000Y-92329000D01*
D29*
X106241000Y-90863000D02*
X106299000Y-90805000D01*
D26*
X99187000Y-91863000D02*
X103039000Y-91863000D01*
X104521000Y-93345000D02*
X106299000Y-93345000D01*
X103039000Y-91863000D02*
X104521000Y-93345000D01*
X113230000Y-86500000D02*
X113230000Y-87790000D01*
X113230000Y-87790000D02*
X112110000Y-88910000D01*
X113977000Y-82925000D02*
X113977000Y-85753000D01*
X113977000Y-85753000D02*
X113230000Y-86500000D01*
X113977000Y-82925000D02*
X114085000Y-82925000D01*
X112110000Y-88910000D02*
X109140000Y-88910000D01*
X109140000Y-88910000D02*
X109110000Y-88880000D01*
D28*
X127460000Y-86310000D02*
X126570000Y-86310000D01*
X114165000Y-93345000D02*
X115110000Y-92400000D01*
X115110000Y-92400000D02*
X115110000Y-91010000D01*
X115110000Y-91010000D02*
X116820000Y-89300000D01*
X116820000Y-89300000D02*
X119530000Y-89300000D01*
X119530000Y-89300000D02*
X121910000Y-86920000D01*
X114165000Y-93345000D02*
X110871000Y-93345000D01*
X125960000Y-86920000D02*
X121910000Y-86920000D01*
X126570000Y-86310000D02*
X125960000Y-86920000D01*
X127460000Y-86310000D02*
X127590000Y-86310000D01*
X127590000Y-86310000D02*
X127980000Y-85920000D01*
X127980000Y-85920000D02*
X130150000Y-85920000D01*
D27*
X127025400Y-93964600D02*
X127025400Y-97282000D01*
X127025400Y-93964600D02*
X127450000Y-93540000D01*
D28*
X113977000Y-82925000D02*
X113977000Y-82314000D01*
X113977000Y-82314000D02*
X114461000Y-82798000D01*
D26*
X106299000Y-93345000D02*
X109110000Y-93345000D01*
D28*
X109110000Y-93345000D02*
X110871000Y-93345000D01*
D27*
X99187000Y-104613000D02*
X101745998Y-104613000D01*
X111633000Y-111125000D02*
X112903000Y-111125000D01*
X114046000Y-113411000D02*
X114046000Y-117348000D01*
X114046000Y-117348000D02*
X116459000Y-119761000D01*
X116459000Y-119761000D02*
X125984000Y-119761000D01*
X125984000Y-119761000D02*
X127000000Y-118745000D01*
X114046000Y-112268000D02*
X114046000Y-113411000D01*
X112903000Y-111125000D02*
X114046000Y-112268000D01*
X101745998Y-104613000D02*
X101854000Y-104721002D01*
X104648000Y-111125000D02*
X106299000Y-111125000D01*
X103632000Y-110109000D02*
X104648000Y-111125000D01*
X103632000Y-106499002D02*
X103632000Y-110109000D01*
X101745998Y-104613000D02*
X101854000Y-104721002D01*
X101854000Y-104721002D02*
X103632000Y-106499002D01*
X106299000Y-111125000D02*
X111633000Y-111125000D01*
X111633000Y-111125000D02*
X111760000Y-111125000D01*
X127025400Y-106680000D02*
X127025400Y-110083600D01*
X127025400Y-110083600D02*
X127000000Y-110109000D01*
D30*
X127025400Y-110083600D02*
X127000000Y-110109000D01*
D27*
X103505000Y-105410000D02*
X101981000Y-103886000D01*
X103505000Y-105410000D02*
X104267000Y-106172000D01*
X104267000Y-106172000D02*
X104267000Y-107569000D01*
X105283000Y-108585000D02*
X104267000Y-107569000D01*
X100168000Y-103343000D02*
X99187000Y-103343000D01*
X100711000Y-103886000D02*
X100168000Y-103343000D01*
X101981000Y-103886000D02*
X100711000Y-103886000D01*
X114681000Y-113157000D02*
X114681000Y-111760000D01*
X125069600Y-107848400D02*
X123698000Y-109093000D01*
X125069600Y-106680000D02*
X125069600Y-107848400D01*
X116205000Y-118491000D02*
X123698000Y-118491000D01*
X114681000Y-116967000D02*
X116205000Y-118491000D01*
X114681000Y-113157000D02*
X114681000Y-116967000D01*
X113411000Y-108585000D02*
X106299000Y-108585000D01*
X114046000Y-109220000D02*
X113411000Y-108585000D01*
X114046000Y-111125000D02*
X114046000Y-109220000D01*
X114681000Y-111760000D02*
X114046000Y-111125000D01*
X105283000Y-108585000D02*
X106299000Y-108585000D01*
X105029000Y-103505000D02*
X103886000Y-103505000D01*
X100308000Y-95863000D02*
X99187000Y-95863000D01*
X100965000Y-96520000D02*
X100308000Y-95863000D01*
X100965000Y-100584000D02*
X100965000Y-96520000D01*
X103886000Y-103505000D02*
X100965000Y-100584000D01*
X104775000Y-103505000D02*
X105029000Y-103505000D01*
X105029000Y-103505000D02*
X106299000Y-103505000D01*
X106299000Y-103505000D02*
X109220000Y-103505000D01*
X109220000Y-103505000D02*
X109220000Y-103378000D01*
X121818400Y-97282000D02*
X121818400Y-94716600D01*
X121818400Y-94716600D02*
X123571000Y-92964000D01*
X106299000Y-100965000D02*
X102235000Y-100965000D01*
X100705000Y-94863000D02*
X99187000Y-94863000D01*
X101600000Y-95758000D02*
X100705000Y-94863000D01*
X101600000Y-100330000D02*
X101600000Y-95758000D01*
X102235000Y-100965000D02*
X101600000Y-100330000D01*
X106299000Y-100965000D02*
X109375000Y-100965000D01*
X117014000Y-112823000D02*
X114935000Y-110744000D01*
X117014000Y-112823000D02*
X117014000Y-115951000D01*
X114935000Y-108305000D02*
X114935000Y-110744000D01*
X114250000Y-107620000D02*
X114935000Y-108305000D01*
X112090000Y-107620000D02*
X114250000Y-107620000D01*
X110700000Y-106230000D02*
X112090000Y-107620000D01*
X110700000Y-102290000D02*
X110700000Y-106230000D01*
X109375000Y-100965000D02*
X110700000Y-102290000D01*
X106299000Y-100965000D02*
X105283000Y-100965000D01*
X106299000Y-98425000D02*
X102816002Y-98425000D01*
X101229000Y-93863000D02*
X99187000Y-93863000D01*
X102235000Y-94869000D02*
X101229000Y-93863000D01*
X102235000Y-97843998D02*
X102235000Y-94869000D01*
X102816002Y-98425000D02*
X102235000Y-97843998D01*
X106299000Y-98425000D02*
X108205000Y-98425000D01*
X115176000Y-106540000D02*
X116459000Y-107823000D01*
X112770000Y-106540000D02*
X115176000Y-106540000D01*
X111840000Y-105610000D02*
X112770000Y-106540000D01*
X111840000Y-102060000D02*
X111840000Y-105610000D01*
X108205000Y-98425000D02*
X111840000Y-102060000D01*
D29*
X105791000Y-98425000D02*
X106299000Y-98425000D01*
D27*
X119862600Y-106680000D02*
X119862600Y-109880400D01*
X119862600Y-109880400D02*
X118999000Y-110744000D01*
X116459000Y-107823000D02*
X116586000Y-107696000D01*
X121818400Y-109880400D02*
X122936000Y-110998000D01*
X121818400Y-106680000D02*
X121818400Y-109880400D01*
X122809000Y-115951000D02*
X119714000Y-115951000D01*
X130429000Y-111506000D02*
X131699000Y-112776000D01*
X128320800Y-95580200D02*
X128905000Y-94996000D01*
X128905000Y-94996000D02*
X130048000Y-94996000D01*
X130048000Y-94996000D02*
X130429000Y-95377000D01*
X130429000Y-95377000D02*
X130429000Y-111506000D01*
X128320800Y-97282000D02*
X128320800Y-95580200D01*
X131699000Y-112776000D02*
X138811000Y-112776000D01*
X138811000Y-112776000D02*
X138938000Y-112649000D01*
X131191000Y-108966000D02*
X131191000Y-109093000D01*
X131191000Y-109093000D02*
X132207000Y-110109000D01*
X132207000Y-110109000D02*
X138938000Y-110109000D01*
X127660400Y-97282000D02*
X127660400Y-95097600D01*
X130429000Y-94234000D02*
X131191000Y-94996000D01*
X131191000Y-94996000D02*
X131191000Y-108966000D01*
X130429000Y-94234000D02*
X128524000Y-94234000D01*
X127660400Y-95097600D02*
X128524000Y-94234000D01*
X131953000Y-105791000D02*
X131953000Y-106426000D01*
X126365000Y-94615000D02*
X125603000Y-93853000D01*
X125603000Y-93853000D02*
X125603000Y-92964000D01*
X125603000Y-92964000D02*
X126238000Y-92329000D01*
X126238000Y-92329000D02*
X129667000Y-92329000D01*
X129667000Y-92329000D02*
X130810000Y-93472000D01*
X130810000Y-93472000D02*
X131953000Y-94615000D01*
X131953000Y-94615000D02*
X131953000Y-105791000D01*
X126365000Y-97282000D02*
X126365000Y-94615000D01*
X133096000Y-107569000D02*
X138938000Y-107569000D01*
X131953000Y-106426000D02*
X133096000Y-107569000D01*
X132715000Y-104013000D02*
X132715000Y-104394000D01*
X131699000Y-93218000D02*
X132715000Y-94234000D01*
X132715000Y-94234000D02*
X132715000Y-104013000D01*
X133350000Y-105029000D02*
X138938000Y-105029000D01*
X132715000Y-104394000D02*
X133350000Y-105029000D01*
X125730000Y-97282000D02*
X125730000Y-94996000D01*
X130175000Y-91694000D02*
X131699000Y-93218000D01*
X125857000Y-91694000D02*
X130175000Y-91694000D01*
X124841000Y-92710000D02*
X125857000Y-91694000D01*
X124841000Y-94107000D02*
X124841000Y-92710000D01*
X125730000Y-94996000D02*
X124841000Y-94107000D01*
X131191000Y-92710000D02*
X131699000Y-93218000D01*
X133477000Y-101219000D02*
X133477000Y-101346000D01*
X133477000Y-93853000D02*
X133477000Y-101219000D01*
X131699000Y-92075000D02*
X133477000Y-93853000D01*
X131826000Y-92202000D02*
X131699000Y-92075000D01*
X134620000Y-102489000D02*
X138938000Y-102489000D01*
X133477000Y-101346000D02*
X134620000Y-102489000D01*
X131826000Y-92202000D02*
X130556000Y-90932000D01*
X130556000Y-90932000D02*
X126238000Y-90932000D01*
X126238000Y-90932000D02*
X125603000Y-90932000D01*
X131572000Y-91948000D02*
X131826000Y-92202000D01*
X123698000Y-90932000D02*
X126238000Y-90932000D01*
X121158000Y-93472000D02*
X123698000Y-90932000D01*
X121158000Y-97282000D02*
X121158000Y-93472000D01*
X135509000Y-99949000D02*
X135382000Y-99949000D01*
X138938000Y-99949000D02*
X135509000Y-99949000D01*
X135382000Y-99949000D02*
X134239000Y-98806000D01*
X132207000Y-91567000D02*
X130810000Y-90170000D01*
X130810000Y-90170000D02*
X125984000Y-90170000D01*
X125984000Y-90170000D02*
X125543340Y-90170000D01*
X131826000Y-91186000D02*
X132207000Y-91567000D01*
X132207000Y-91567000D02*
X134239000Y-93599000D01*
X134239000Y-93599000D02*
X134239000Y-98806000D01*
X134239000Y-98806000D02*
X134239000Y-98679000D01*
X123444000Y-90170000D02*
X125984000Y-90170000D01*
X120523000Y-93091000D02*
X123444000Y-90170000D01*
X120523000Y-97282000D02*
X120523000Y-93091000D01*
X138938000Y-97409000D02*
X135890000Y-97409000D01*
X135001000Y-96520000D02*
X135001000Y-93345000D01*
X134874000Y-93218000D02*
X131064000Y-89408000D01*
X131064000Y-89408000D02*
X125476000Y-89408000D01*
X135001000Y-93345000D02*
X134874000Y-93218000D01*
X135890000Y-97409000D02*
X135001000Y-96520000D01*
X119227600Y-97282000D02*
X119227600Y-95478600D01*
X123317000Y-89408000D02*
X125476000Y-89408000D01*
X120777000Y-91948000D02*
X123317000Y-89408000D01*
X118237000Y-91948000D02*
X120777000Y-91948000D01*
X117983000Y-92202000D02*
X118237000Y-91948000D01*
X117983000Y-94234000D02*
X117983000Y-92202000D01*
X119227600Y-95478600D02*
X117983000Y-94234000D01*
X125476000Y-89408000D02*
X125222000Y-89408000D01*
X133028660Y-90297000D02*
X141097000Y-90297000D01*
X118567200Y-95961200D02*
X117348000Y-94742000D01*
X117348000Y-94742000D02*
X117348000Y-91821000D01*
X117348000Y-91821000D02*
X117856000Y-91313000D01*
X117856000Y-91313000D02*
X120523000Y-91313000D01*
X120523000Y-91313000D02*
X123063000Y-88773000D01*
X123063000Y-88773000D02*
X124968000Y-88773000D01*
X131504660Y-88773000D02*
X133028660Y-90297000D01*
X124968000Y-88773000D02*
X131504660Y-88773000D01*
X118567200Y-97282000D02*
X118567200Y-95961200D01*
X141097000Y-90297000D02*
X142494000Y-91694000D01*
X142494000Y-91694000D02*
X142494000Y-92329000D01*
X131180000Y-119380000D02*
X130956998Y-119380000D01*
X121412000Y-114173000D02*
X124660002Y-114173000D01*
X124660002Y-114173000D02*
X124914002Y-114427000D01*
X118567200Y-108508800D02*
X118567200Y-106680000D01*
X118364000Y-112776000D02*
X120015000Y-112776000D01*
X117221000Y-111633000D02*
X118364000Y-112776000D01*
X117221000Y-109855000D02*
X117221000Y-111633000D01*
X118567200Y-108508800D02*
X117221000Y-109855000D01*
X120015000Y-112776000D02*
X121412000Y-114173000D01*
X126003998Y-114427000D02*
X124914002Y-114427000D01*
X130956998Y-119380000D02*
X126003998Y-114427000D01*
X146685000Y-94869000D02*
X142494000Y-94869000D01*
X148028002Y-96212002D02*
X146685000Y-94869000D01*
X148028002Y-115496998D02*
X148028002Y-96212002D01*
X144145000Y-119380000D02*
X148028002Y-115496998D01*
X131004340Y-119380000D02*
X131180000Y-119380000D01*
X131180000Y-119380000D02*
X144145000Y-119380000D01*
X131191000Y-118745000D02*
X131155000Y-118745000D01*
X124975680Y-113538000D02*
X125229680Y-113792000D01*
X131191000Y-118745000D02*
X143891000Y-118745000D01*
X143891000Y-118745000D02*
X147447000Y-115189000D01*
X147447000Y-115189000D02*
X147447000Y-98552000D01*
X147447000Y-98552000D02*
X146304000Y-97409000D01*
X142494000Y-97409000D02*
X146304000Y-97409000D01*
X124975680Y-113538000D02*
X124460000Y-113538000D01*
X126202000Y-113792000D02*
X125229680Y-113792000D01*
X131155000Y-118745000D02*
X126202000Y-113792000D01*
X117856000Y-110236000D02*
X119227600Y-108864400D01*
X119227600Y-106680000D02*
X119227600Y-108864400D01*
X118618000Y-112141000D02*
X117856000Y-111379000D01*
X117856000Y-111379000D02*
X117856000Y-110236000D01*
X121666000Y-113538000D02*
X124460000Y-113538000D01*
X124460000Y-113538000D02*
X124587000Y-113538000D01*
X120269000Y-112141000D02*
X121666000Y-113538000D01*
X120269000Y-112141000D02*
X118618000Y-112141000D01*
X125422002Y-113162662D02*
X126445682Y-113162662D01*
X120523000Y-111184660D02*
X122187342Y-112849002D01*
X122187342Y-112849002D02*
X125108342Y-112849002D01*
X125108342Y-112849002D02*
X125422002Y-113162662D01*
X120523000Y-106680000D02*
X120523000Y-111184660D01*
X126445682Y-113162662D02*
X131431028Y-118148008D01*
X131431028Y-118148008D02*
X131431028Y-118163998D01*
X131431028Y-118163998D02*
X131431028Y-118148008D01*
X145669000Y-99949000D02*
X142494000Y-99949000D01*
X146831004Y-101111004D02*
X145669000Y-99949000D01*
X146831004Y-114915996D02*
X146831004Y-101111004D01*
X143598992Y-118148008D02*
X146831004Y-114915996D01*
X131431028Y-118148008D02*
X131431028Y-118148008D01*
X131431028Y-118148008D02*
X143598992Y-118148008D01*
X126686340Y-112581660D02*
X126751660Y-112581660D01*
X125349000Y-112268000D02*
X125662660Y-112581660D01*
X125662660Y-112581660D02*
X126686340Y-112581660D01*
X121158000Y-106680000D02*
X121158000Y-110998000D01*
X121158000Y-110998000D02*
X122428000Y-112268000D01*
X122428000Y-112268000D02*
X125222000Y-112268000D01*
X125222000Y-112268000D02*
X125349000Y-112268000D01*
X126751660Y-112581660D02*
X131737006Y-117567006D01*
X144526000Y-102489000D02*
X142494000Y-102489000D01*
X146250002Y-104213002D02*
X144526000Y-102489000D01*
X146250002Y-114600318D02*
X146250002Y-104213002D01*
X143283314Y-117567006D02*
X146250002Y-114600318D01*
X131671686Y-117567006D02*
X131737006Y-117567006D01*
X131737006Y-117567006D02*
X143283314Y-117567006D01*
X126813340Y-111887000D02*
X126947000Y-111887000D01*
X124968000Y-109220000D02*
X124968000Y-110998000D01*
X124968000Y-110998000D02*
X125857000Y-111887000D01*
X125857000Y-111887000D02*
X126813340Y-111887000D01*
X125730000Y-106680000D02*
X125730000Y-108458000D01*
X125730000Y-108458000D02*
X124968000Y-109220000D01*
X126947000Y-111887000D02*
X132046004Y-116986004D01*
X143637000Y-105029000D02*
X142494000Y-105029000D01*
X145669000Y-107061000D02*
X143637000Y-105029000D01*
X145669000Y-114359660D02*
X145669000Y-107061000D01*
X143042656Y-116986004D02*
X145669000Y-114359660D01*
X132046004Y-116986004D02*
X143042656Y-116986004D01*
X125603000Y-110617000D02*
X125603000Y-110633000D01*
X126365000Y-106680000D02*
X126365000Y-108712000D01*
X125603000Y-109474000D02*
X125603000Y-110617000D01*
X126365000Y-108712000D02*
X125603000Y-109474000D01*
X127190000Y-111290000D02*
X132305002Y-116405002D01*
X126260000Y-111290000D02*
X127190000Y-111290000D01*
X125603000Y-110633000D02*
X126260000Y-111290000D01*
X143891000Y-107569000D02*
X142494000Y-107569000D01*
X145034000Y-108712000D02*
X143891000Y-107569000D01*
X145034000Y-114173000D02*
X145034000Y-108712000D01*
X142801998Y-116405002D02*
X145034000Y-114173000D01*
X132305002Y-116405002D02*
X142801998Y-116405002D01*
X144399000Y-113880000D02*
X144399000Y-113945000D01*
X128704998Y-109601000D02*
X128704998Y-109654998D01*
X128704998Y-111914998D02*
X128704998Y-109601000D01*
X132614000Y-115824000D02*
X128704998Y-111914998D01*
X142520000Y-115824000D02*
X132614000Y-115824000D01*
X144399000Y-113945000D02*
X142520000Y-115824000D01*
X127660400Y-108610400D02*
X128704998Y-109654998D01*
X127660400Y-106680000D02*
X127660400Y-108610400D01*
X128704998Y-109654998D02*
X128651000Y-109601000D01*
X143637000Y-110109000D02*
X142494000Y-110109000D01*
X144399000Y-110871000D02*
X143637000Y-110109000D01*
X144399000Y-113919000D02*
X144399000Y-113880000D01*
X144399000Y-113880000D02*
X144399000Y-110871000D01*
X140970000Y-115189000D02*
X141605000Y-115189000D01*
X142494000Y-114300000D02*
X142494000Y-112649000D01*
X141605000Y-115189000D02*
X142494000Y-114300000D01*
X128320800Y-106680000D02*
X128320800Y-108381800D01*
X132842000Y-115189000D02*
X140970000Y-115189000D01*
X140970000Y-115189000D02*
X141097000Y-115189000D01*
X129286000Y-111633000D02*
X132842000Y-115189000D01*
X129286000Y-109347000D02*
X129286000Y-111633000D01*
X128320800Y-108381800D02*
X129286000Y-109347000D01*
X106299000Y-106045000D02*
X105156000Y-106045000D01*
X100295000Y-102073000D02*
X99187000Y-102073000D01*
X101219000Y-102997000D02*
X100295000Y-102073000D01*
X102108000Y-102997000D02*
X101219000Y-102997000D01*
X105156000Y-106045000D02*
X102108000Y-102997000D01*
X106299000Y-106045000D02*
X109093000Y-106045000D01*
X119862600Y-94081600D02*
X119126000Y-93345000D01*
X119126000Y-93345000D02*
X119126000Y-93218000D01*
X119862600Y-94081600D02*
X119862600Y-97282000D01*
D31*
G36*
X148750000Y-95632221D02*
X148693036Y-95546968D01*
X147350034Y-94203966D01*
X147044914Y-94000091D01*
X146685000Y-93928500D01*
X143955947Y-93928500D01*
X143894446Y-93836457D01*
X144043198Y-93740738D01*
X144214446Y-93490108D01*
X144274693Y-93192600D01*
X144274693Y-91465400D01*
X144222396Y-91187467D01*
X144058138Y-90932202D01*
X143807508Y-90760954D01*
X143510000Y-90700707D01*
X142830775Y-90700707D01*
X141762034Y-89631966D01*
X141456914Y-89428091D01*
X141097000Y-89356500D01*
X133418228Y-89356500D01*
X132169694Y-88107966D01*
X132082677Y-88049823D01*
X132275000Y-87857500D01*
X132275000Y-86232500D01*
X133025000Y-86232500D01*
X133025000Y-87857500D01*
X133462500Y-88295000D01*
X133748097Y-88295000D01*
X134391296Y-88028578D01*
X134883579Y-87536295D01*
X135150000Y-86893096D01*
X135150000Y-86670000D01*
X134712500Y-86232500D01*
X133025000Y-86232500D01*
X132275000Y-86232500D01*
X131900000Y-86232500D01*
X131900000Y-85607500D01*
X132275000Y-85607500D01*
X132275000Y-85421000D01*
X133025000Y-85421000D01*
X133025000Y-85607500D01*
X134712500Y-85607500D01*
X134899000Y-85421000D01*
X135079556Y-85421000D01*
X135219209Y-85560897D01*
X135770323Y-85789739D01*
X136367059Y-85790260D01*
X136918572Y-85562380D01*
X137340897Y-85140791D01*
X137569739Y-84589677D01*
X137570260Y-83992941D01*
X137342380Y-83441428D01*
X136920791Y-83019103D01*
X136369677Y-82790261D01*
X135772941Y-82789740D01*
X135221428Y-83017620D01*
X135079801Y-83159000D01*
X127130000Y-83159000D01*
X126697185Y-83245092D01*
X126330262Y-83490262D01*
X125401524Y-84419000D01*
X124791000Y-84419000D01*
X124791000Y-84151770D01*
X124913198Y-84073138D01*
X125084446Y-83822508D01*
X125144693Y-83525000D01*
X125144693Y-82275000D01*
X125092396Y-81997067D01*
X124928138Y-81741802D01*
X124677508Y-81570554D01*
X124380000Y-81510307D01*
X123457440Y-81510307D01*
X123363579Y-81283705D01*
X122871296Y-80791422D01*
X122228097Y-80525000D01*
X121942500Y-80525000D01*
X121505000Y-80962500D01*
X121505000Y-82587500D01*
X121880000Y-82587500D01*
X121880000Y-83212500D01*
X121505000Y-83212500D01*
X121505000Y-83525000D01*
X120755000Y-83525000D01*
X120755000Y-83212500D01*
X119067500Y-83212500D01*
X118630000Y-83650000D01*
X118630000Y-83873096D01*
X118896421Y-84516295D01*
X119388704Y-85008578D01*
X120031903Y-85275000D01*
X120317500Y-85275000D01*
X120379998Y-85212502D01*
X120379998Y-85275000D01*
X120555524Y-85275000D01*
X118611524Y-87219000D01*
X116390000Y-87219000D01*
X115957185Y-87305092D01*
X115590262Y-87550262D01*
X113466524Y-89674000D01*
X112945476Y-89674000D01*
X114029738Y-88589738D01*
X114274908Y-88222815D01*
X114361000Y-87790000D01*
X114361000Y-87771074D01*
X114513198Y-87673138D01*
X114684446Y-87422508D01*
X114744693Y-87125000D01*
X114744693Y-86584782D01*
X114776735Y-86552740D01*
X114776738Y-86552738D01*
X115021908Y-86185815D01*
X115108001Y-85753000D01*
X115108000Y-85752995D01*
X115108000Y-84483860D01*
X115354933Y-84437396D01*
X115610198Y-84273138D01*
X115781446Y-84022508D01*
X115841693Y-83725000D01*
X115841693Y-82125000D01*
X115804419Y-81926904D01*
X118630000Y-81926904D01*
X118630000Y-82150000D01*
X119067500Y-82587500D01*
X120755000Y-82587500D01*
X120755000Y-80962500D01*
X120317500Y-80525000D01*
X120031903Y-80525000D01*
X119388704Y-80791422D01*
X118896421Y-81283705D01*
X118630000Y-81926904D01*
X115804419Y-81926904D01*
X115789396Y-81847067D01*
X115625138Y-81591802D01*
X115374508Y-81420554D01*
X115077000Y-81360307D01*
X114229910Y-81360307D01*
X113977000Y-81310000D01*
X113724090Y-81360307D01*
X113654440Y-81360307D01*
X113560579Y-81133705D01*
X113068296Y-80641422D01*
X112425097Y-80375000D01*
X111964500Y-80375000D01*
X111527000Y-80812500D01*
X111527000Y-82525000D01*
X111747000Y-82525000D01*
X111747000Y-83325000D01*
X111527000Y-83325000D01*
X111527000Y-84140500D01*
X111105000Y-84562500D01*
X111105000Y-86187500D01*
X111480000Y-86187500D01*
X111480000Y-86812500D01*
X111105000Y-86812500D01*
X111105000Y-87125000D01*
X110355000Y-87125000D01*
X110355000Y-86812500D01*
X109282500Y-86812500D01*
X109232500Y-86762500D01*
X107545000Y-86762500D01*
X107545000Y-88387500D01*
X107647688Y-88490188D01*
X107610261Y-88580323D01*
X107609740Y-89177059D01*
X107643135Y-89257880D01*
X107612508Y-89236954D01*
X107315000Y-89176707D01*
X105416183Y-89176707D01*
X104614476Y-88375000D01*
X104932543Y-88056933D01*
X104936421Y-88066295D01*
X105428704Y-88558578D01*
X106071903Y-88825000D01*
X106357500Y-88825000D01*
X106795000Y-88387500D01*
X106795000Y-86762500D01*
X106420000Y-86762500D01*
X106420000Y-86137500D01*
X106795000Y-86137500D01*
X106795000Y-84512500D01*
X106357500Y-84075000D01*
X106315000Y-84075000D01*
X106315000Y-83325000D01*
X107415000Y-83325000D01*
X107415000Y-85037500D01*
X107545000Y-85167500D01*
X107545000Y-86137500D01*
X108617500Y-86137500D01*
X108667500Y-86187500D01*
X110355000Y-86187500D01*
X110355000Y-85109500D01*
X110427000Y-85037500D01*
X110427000Y-83325000D01*
X107415000Y-83325000D01*
X106315000Y-83325000D01*
X106095000Y-83325000D01*
X106095000Y-82525000D01*
X106315000Y-82525000D01*
X106315000Y-80812500D01*
X107415000Y-80812500D01*
X107415000Y-82525000D01*
X110427000Y-82525000D01*
X110427000Y-80812500D01*
X109989500Y-80375000D01*
X109528903Y-80375000D01*
X108921000Y-80626802D01*
X108313097Y-80375000D01*
X107852500Y-80375000D01*
X107415000Y-80812500D01*
X106315000Y-80812500D01*
X105877500Y-80375000D01*
X105416903Y-80375000D01*
X104773704Y-80641422D01*
X104281421Y-81133705D01*
X104187560Y-81360307D01*
X102765000Y-81360307D01*
X102487067Y-81412604D01*
X102231802Y-81576862D01*
X102060554Y-81827492D01*
X102000307Y-82125000D01*
X102000307Y-83725000D01*
X102005957Y-83755026D01*
X101999000Y-83790000D01*
X101999000Y-88490000D01*
X102085092Y-88922815D01*
X102330262Y-89289738D01*
X102772524Y-89732000D01*
X99187000Y-89732000D01*
X99105019Y-89748307D01*
X98437000Y-89748307D01*
X98159067Y-89800604D01*
X97903802Y-89964862D01*
X97732554Y-90215492D01*
X97672307Y-90513000D01*
X97672307Y-90935560D01*
X97445705Y-91029421D01*
X96953422Y-91521704D01*
X96687000Y-92164903D01*
X96687000Y-92250500D01*
X97124500Y-92688000D01*
X97851413Y-92688000D01*
X97888862Y-92746198D01*
X98060920Y-92863760D01*
X97903802Y-92964862D01*
X97853829Y-93038000D01*
X97124500Y-93038000D01*
X96687000Y-93475500D01*
X96687000Y-93561097D01*
X96953422Y-94204296D01*
X97445705Y-94696579D01*
X97672307Y-94790440D01*
X97672307Y-95213000D01*
X97701568Y-95368506D01*
X97672307Y-95513000D01*
X97672307Y-96213000D01*
X97724604Y-96490933D01*
X97888862Y-96746198D01*
X98139492Y-96917446D01*
X98412975Y-96972828D01*
X98159067Y-97020604D01*
X97903802Y-97184862D01*
X97732554Y-97435492D01*
X97672307Y-97733000D01*
X97672307Y-100133000D01*
X97724604Y-100410933D01*
X97888862Y-100666198D01*
X98139492Y-100837446D01*
X98437000Y-100897693D01*
X99937000Y-100897693D01*
X100081489Y-100870505D01*
X100096091Y-100943914D01*
X100132108Y-100997817D01*
X99937000Y-100958307D01*
X98437000Y-100958307D01*
X98159067Y-101010604D01*
X97903802Y-101174862D01*
X97732554Y-101425492D01*
X97672307Y-101723000D01*
X97672307Y-102423000D01*
X97724604Y-102700933D01*
X97729813Y-102709028D01*
X97672307Y-102993000D01*
X97672307Y-103693000D01*
X97724604Y-103970933D01*
X97729813Y-103979028D01*
X97672307Y-104263000D01*
X97672307Y-104963000D01*
X97724604Y-105240933D01*
X97729813Y-105249028D01*
X97672307Y-105533000D01*
X97672307Y-106233000D01*
X97724604Y-106510933D01*
X97729813Y-106519028D01*
X97672307Y-106803000D01*
X97672307Y-107503000D01*
X97724604Y-107780933D01*
X97729813Y-107789028D01*
X97672307Y-108073000D01*
X97672307Y-108773000D01*
X97724604Y-109050933D01*
X97729813Y-109059028D01*
X97672307Y-109343000D01*
X97672307Y-110043000D01*
X97724604Y-110320933D01*
X97888862Y-110576198D01*
X98139492Y-110747446D01*
X98437000Y-110807693D01*
X99937000Y-110807693D01*
X100214933Y-110755396D01*
X100470198Y-110591138D01*
X100641446Y-110340508D01*
X100701693Y-110043000D01*
X100701693Y-109343000D01*
X100649396Y-109065067D01*
X100644187Y-109056972D01*
X100701693Y-108773000D01*
X100701693Y-108073000D01*
X100649396Y-107795067D01*
X100644187Y-107786972D01*
X100701693Y-107503000D01*
X100701693Y-106803000D01*
X100649396Y-106525067D01*
X100644187Y-106516972D01*
X100701693Y-106233000D01*
X100701693Y-105553500D01*
X101356430Y-105553500D01*
X102691500Y-106888570D01*
X102691500Y-110109000D01*
X102763091Y-110468914D01*
X102966966Y-110774034D01*
X103982966Y-111790034D01*
X104288086Y-111993909D01*
X104648000Y-112065500D01*
X104837053Y-112065500D01*
X104971014Y-112265988D01*
X105494504Y-112615772D01*
X106112002Y-112738600D01*
X106485998Y-112738600D01*
X107103496Y-112615772D01*
X107626986Y-112265988D01*
X107760947Y-112065500D01*
X112513432Y-112065500D01*
X113105500Y-112657568D01*
X113105500Y-117348000D01*
X113177091Y-117707914D01*
X113380966Y-118013034D01*
X115793966Y-120426034D01*
X116099086Y-120629909D01*
X116459000Y-120701500D01*
X125984000Y-120701500D01*
X126343914Y-120629909D01*
X126649034Y-120426034D01*
X126830216Y-120244852D01*
X127297059Y-120245260D01*
X127848572Y-120017380D01*
X128270897Y-119595791D01*
X128499739Y-119044677D01*
X128500260Y-118447941D01*
X128363228Y-118116298D01*
X130291964Y-120045034D01*
X130597084Y-120248909D01*
X130956998Y-120320500D01*
X144145000Y-120320500D01*
X144504914Y-120248909D01*
X144810034Y-120045034D01*
X148693036Y-116162032D01*
X148750000Y-116076779D01*
X148750000Y-120750000D01*
X92250000Y-120750000D01*
X92250000Y-114238000D01*
X92372307Y-114238000D01*
X92372307Y-119088000D01*
X92424604Y-119365933D01*
X92588862Y-119621198D01*
X92839492Y-119792446D01*
X93137000Y-119852693D01*
X97637000Y-119852693D01*
X97914933Y-119800396D01*
X98170198Y-119636138D01*
X98341446Y-119385508D01*
X98401693Y-119088000D01*
X98401693Y-117351000D01*
X102140430Y-117351000D01*
X102140430Y-119681000D01*
X112997570Y-119681000D01*
X112997570Y-117351000D01*
X102140430Y-117351000D01*
X98401693Y-117351000D01*
X98401693Y-115883573D01*
X102513521Y-115883573D01*
X102529163Y-115954799D01*
X102530327Y-116027706D01*
X102560449Y-116097264D01*
X102576708Y-116171303D01*
X102660935Y-116363763D01*
X102714999Y-116441302D01*
X102757523Y-116525727D01*
X102798489Y-116561045D01*
X102829422Y-116605410D01*
X102909041Y-116656356D01*
X102980638Y-116718083D01*
X103039855Y-116751607D01*
X103077121Y-116763907D01*
X103077557Y-116764186D01*
X103078448Y-116764345D01*
X103146940Y-116786952D01*
X103250276Y-116832108D01*
X103452938Y-116876498D01*
X103516955Y-116877732D01*
X103579099Y-116893153D01*
X103846386Y-116905692D01*
X103875677Y-116901281D01*
X103904891Y-116906167D01*
X104060848Y-116901388D01*
X104076821Y-116897699D01*
X104093087Y-116899709D01*
X104234220Y-116889332D01*
X104240211Y-116887676D01*
X104246392Y-116888338D01*
X104381940Y-116848490D01*
X104518154Y-116810830D01*
X104523057Y-116807006D01*
X104529019Y-116805253D01*
X104638998Y-116716569D01*
X104750433Y-116629646D01*
X104753498Y-116624238D01*
X104758337Y-116620336D01*
X104826018Y-116496293D01*
X104863624Y-116429946D01*
X104937646Y-116411837D01*
X104946830Y-116405104D01*
X105121074Y-116521529D01*
X105371043Y-116571252D01*
X105426467Y-116654200D01*
X105426472Y-116654204D01*
X105426474Y-116654206D01*
X105468799Y-116696530D01*
X105468801Y-116696533D01*
X105468804Y-116696535D01*
X105468808Y-116696539D01*
X105553807Y-116753332D01*
X105713741Y-116860196D01*
X105713745Y-116860197D01*
X105713750Y-116860200D01*
X105871114Y-116891500D01*
X106002667Y-116917668D01*
X106002671Y-116917667D01*
X106002676Y-116917668D01*
X106164370Y-116885503D01*
X106291593Y-116860196D01*
X106291596Y-116860194D01*
X106291601Y-116860193D01*
X106434190Y-116764916D01*
X106536533Y-116696533D01*
X106578866Y-116654200D01*
X106667516Y-116521526D01*
X106742526Y-116409268D01*
X106742527Y-116409263D01*
X106742529Y-116409260D01*
X106771696Y-116262631D01*
X106800001Y-116120343D01*
X106800000Y-116120338D01*
X106800001Y-116120334D01*
X106789409Y-116067087D01*
X107005400Y-116070883D01*
X107026848Y-116067007D01*
X107048376Y-116070415D01*
X107163497Y-116065881D01*
X107152666Y-116120334D01*
X107152667Y-116120338D01*
X107152666Y-116120343D01*
X107180971Y-116262631D01*
X107210138Y-116409260D01*
X107210140Y-116409263D01*
X107210141Y-116409268D01*
X107272016Y-116501868D01*
X107373801Y-116654200D01*
X107416134Y-116696533D01*
X107661074Y-116860196D01*
X107950000Y-116917668D01*
X108238926Y-116860196D01*
X108373334Y-116770388D01*
X108507741Y-116860196D01*
X108507745Y-116860197D01*
X108507750Y-116860200D01*
X108665114Y-116891500D01*
X108796667Y-116917668D01*
X108796671Y-116917667D01*
X108796676Y-116917668D01*
X108958370Y-116885503D01*
X109085593Y-116860196D01*
X109085596Y-116860194D01*
X109085601Y-116860193D01*
X109228190Y-116764916D01*
X109330533Y-116696533D01*
X109372866Y-116654200D01*
X109439015Y-116555200D01*
X109558667Y-116579001D01*
X109558671Y-116579000D01*
X109558676Y-116579001D01*
X109720370Y-116546836D01*
X109847593Y-116521529D01*
X109847596Y-116521527D01*
X109847601Y-116521526D01*
X110002914Y-116417747D01*
X110092533Y-116357866D01*
X110134866Y-116315533D01*
X110151334Y-116290888D01*
X110167801Y-116315533D01*
X110210134Y-116357866D01*
X110455074Y-116521529D01*
X110744000Y-116579001D01*
X111032926Y-116521529D01*
X111167334Y-116431721D01*
X111301741Y-116521529D01*
X111301745Y-116521530D01*
X111301750Y-116521533D01*
X111461364Y-116553281D01*
X111590667Y-116579001D01*
X111590671Y-116579000D01*
X111590676Y-116579001D01*
X111752370Y-116546836D01*
X111879593Y-116521529D01*
X111879596Y-116521527D01*
X111879601Y-116521526D01*
X112034914Y-116417747D01*
X112124533Y-116357866D01*
X112166866Y-116315533D01*
X112330529Y-116070593D01*
X112388001Y-115781667D01*
X112330529Y-115492741D01*
X112166866Y-115247801D01*
X112124533Y-115205468D01*
X112116771Y-115200282D01*
X112145639Y-115183443D01*
X112217990Y-115119422D01*
X112270582Y-115050248D01*
X112333688Y-114990512D01*
X112358889Y-114934100D01*
X112396283Y-114884916D01*
X112418400Y-114800884D01*
X112453843Y-114721544D01*
X112455537Y-114659781D01*
X112471263Y-114600032D01*
X112459538Y-114513932D01*
X112461921Y-114427068D01*
X112439850Y-114369358D01*
X112431514Y-114308140D01*
X112387733Y-114233081D01*
X112356693Y-114151917D01*
X112314219Y-114107047D01*
X112283089Y-114053677D01*
X112213914Y-114001084D01*
X112154179Y-113937979D01*
X112100219Y-113899743D01*
X112085258Y-113893059D01*
X112073494Y-113881651D01*
X111951275Y-113833207D01*
X111831250Y-113779589D01*
X111814871Y-113779140D01*
X111799636Y-113773101D01*
X111616185Y-113739524D01*
X111565384Y-113740303D01*
X111516078Y-113728037D01*
X111245489Y-113715184D01*
X111212771Y-113720092D01*
X111180094Y-113714913D01*
X110950676Y-113723906D01*
X110909384Y-113733815D01*
X110866964Y-113731874D01*
X110686442Y-113759271D01*
X110685220Y-113758538D01*
X110625916Y-113749724D01*
X110570295Y-113727357D01*
X110481587Y-113728275D01*
X110393834Y-113715233D01*
X110335676Y-113729784D01*
X110275725Y-113730404D01*
X110194117Y-113765201D01*
X110108056Y-113786733D01*
X110059210Y-113809819D01*
X110029712Y-113831684D01*
X109977954Y-113814021D01*
X109839313Y-113766384D01*
X109581053Y-113731407D01*
X109591310Y-113640136D01*
X109586673Y-113624059D01*
X109587814Y-113607368D01*
X109578725Y-113536802D01*
X109559070Y-113478363D01*
X109553272Y-113416978D01*
X109512557Y-113340067D01*
X109484816Y-113257585D01*
X109444294Y-113211116D01*
X109415446Y-113156622D01*
X109293614Y-113006952D01*
X109237895Y-112960850D01*
X109192546Y-112904514D01*
X109125509Y-112867862D01*
X109066645Y-112819159D01*
X108997523Y-112797889D01*
X108934069Y-112763196D01*
X108665695Y-112679005D01*
X108570343Y-112668702D01*
X108477326Y-112645327D01*
X108056687Y-112624341D01*
X108027865Y-112628594D01*
X107999151Y-112623666D01*
X107757203Y-112630050D01*
X107733320Y-112635459D01*
X107708968Y-112632869D01*
X107589608Y-112643687D01*
X107577932Y-112647130D01*
X107565791Y-112646227D01*
X107437057Y-112688669D01*
X107307049Y-112727003D01*
X107297579Y-112734652D01*
X107286017Y-112738464D01*
X107183332Y-112826932D01*
X107077882Y-112912107D01*
X107072059Y-112922800D01*
X107062837Y-112930745D01*
X107001821Y-113051781D01*
X106936996Y-113170820D01*
X106936546Y-113175051D01*
X106889805Y-113209076D01*
X106858960Y-113259514D01*
X106817138Y-113301295D01*
X106799730Y-113327320D01*
X106783980Y-113365291D01*
X106758193Y-113397307D01*
X106742979Y-113449170D01*
X106736115Y-113460394D01*
X106731978Y-113486671D01*
X106727982Y-113500292D01*
X106686862Y-113599426D01*
X106686842Y-113640536D01*
X106675270Y-113679982D01*
X106681802Y-113740593D01*
X106655099Y-113747715D01*
X106538497Y-113770909D01*
X106452849Y-113747757D01*
X106350857Y-113740847D01*
X106250461Y-113721618D01*
X105955628Y-113723716D01*
X105836164Y-113748364D01*
X105715287Y-113764799D01*
X105453431Y-113854926D01*
X105341748Y-113920039D01*
X105330684Y-113925787D01*
X105308866Y-113893134D01*
X105266533Y-113850801D01*
X105141632Y-113767345D01*
X105021601Y-113687141D01*
X105021596Y-113687140D01*
X105021593Y-113687138D01*
X104884249Y-113659818D01*
X104732676Y-113629666D01*
X104732671Y-113629667D01*
X104732667Y-113629666D01*
X104603364Y-113655386D01*
X104443750Y-113687134D01*
X104443745Y-113687137D01*
X104443741Y-113687138D01*
X104305378Y-113779589D01*
X104296092Y-113785794D01*
X104290372Y-113787545D01*
X103923094Y-113985084D01*
X103908250Y-113997330D01*
X103890153Y-114003882D01*
X103666482Y-114139087D01*
X103629568Y-114172796D01*
X103585197Y-114195826D01*
X103253733Y-114461190D01*
X103211856Y-114510974D01*
X103160080Y-114550353D01*
X102906631Y-114836879D01*
X102866192Y-114906235D01*
X102813957Y-114967210D01*
X102655795Y-115248640D01*
X102617092Y-115367152D01*
X102571226Y-115483084D01*
X102525623Y-115733157D01*
X102526833Y-115808944D01*
X102513521Y-115883573D01*
X98401693Y-115883573D01*
X98401693Y-115102355D01*
X98750715Y-114958142D01*
X99130807Y-114578712D01*
X99336765Y-114082710D01*
X99337234Y-113545647D01*
X99132142Y-113049285D01*
X98752712Y-112669193D01*
X98256710Y-112463235D01*
X97719647Y-112462766D01*
X97223285Y-112667858D01*
X96843193Y-113047288D01*
X96666294Y-113473307D01*
X93137000Y-113473307D01*
X92859067Y-113525604D01*
X92603802Y-113689862D01*
X92432554Y-113940492D01*
X92372307Y-114238000D01*
X92250000Y-114238000D01*
X92250000Y-81538000D01*
X92372307Y-81538000D01*
X92372307Y-86388000D01*
X92424604Y-86665933D01*
X92588862Y-86921198D01*
X92839492Y-87092446D01*
X93137000Y-87152693D01*
X96666656Y-87152693D01*
X96841858Y-87576715D01*
X97221288Y-87956807D01*
X97717290Y-88162765D01*
X98254353Y-88163234D01*
X98750715Y-87958142D01*
X99130807Y-87578712D01*
X99336765Y-87082710D01*
X99337234Y-86545647D01*
X99132142Y-86049285D01*
X98752712Y-85669193D01*
X98401693Y-85523437D01*
X98401693Y-81538000D01*
X98349396Y-81260067D01*
X98185138Y-81004802D01*
X97934508Y-80833554D01*
X97637000Y-80773307D01*
X93137000Y-80773307D01*
X92859067Y-80825604D01*
X92603802Y-80989862D01*
X92432554Y-81240492D01*
X92372307Y-81538000D01*
X92250000Y-81538000D01*
X92250000Y-79250000D01*
X148750000Y-79250000D01*
X148750000Y-95632221D01*
X148750000Y-95632221D01*
G37*
X148750000Y-95632221D02*
X148693036Y-95546968D01*
X147350034Y-94203966D01*
X147044914Y-94000091D01*
X146685000Y-93928500D01*
X143955947Y-93928500D01*
X143894446Y-93836457D01*
X144043198Y-93740738D01*
X144214446Y-93490108D01*
X144274693Y-93192600D01*
X144274693Y-91465400D01*
X144222396Y-91187467D01*
X144058138Y-90932202D01*
X143807508Y-90760954D01*
X143510000Y-90700707D01*
X142830775Y-90700707D01*
X141762034Y-89631966D01*
X141456914Y-89428091D01*
X141097000Y-89356500D01*
X133418228Y-89356500D01*
X132169694Y-88107966D01*
X132082677Y-88049823D01*
X132275000Y-87857500D01*
X132275000Y-86232500D01*
X133025000Y-86232500D01*
X133025000Y-87857500D01*
X133462500Y-88295000D01*
X133748097Y-88295000D01*
X134391296Y-88028578D01*
X134883579Y-87536295D01*
X135150000Y-86893096D01*
X135150000Y-86670000D01*
X134712500Y-86232500D01*
X133025000Y-86232500D01*
X132275000Y-86232500D01*
X131900000Y-86232500D01*
X131900000Y-85607500D01*
X132275000Y-85607500D01*
X132275000Y-85421000D01*
X133025000Y-85421000D01*
X133025000Y-85607500D01*
X134712500Y-85607500D01*
X134899000Y-85421000D01*
X135079556Y-85421000D01*
X135219209Y-85560897D01*
X135770323Y-85789739D01*
X136367059Y-85790260D01*
X136918572Y-85562380D01*
X137340897Y-85140791D01*
X137569739Y-84589677D01*
X137570260Y-83992941D01*
X137342380Y-83441428D01*
X136920791Y-83019103D01*
X136369677Y-82790261D01*
X135772941Y-82789740D01*
X135221428Y-83017620D01*
X135079801Y-83159000D01*
X127130000Y-83159000D01*
X126697185Y-83245092D01*
X126330262Y-83490262D01*
X125401524Y-84419000D01*
X124791000Y-84419000D01*
X124791000Y-84151770D01*
X124913198Y-84073138D01*
X125084446Y-83822508D01*
X125144693Y-83525000D01*
X125144693Y-82275000D01*
X125092396Y-81997067D01*
X124928138Y-81741802D01*
X124677508Y-81570554D01*
X124380000Y-81510307D01*
X123457440Y-81510307D01*
X123363579Y-81283705D01*
X122871296Y-80791422D01*
X122228097Y-80525000D01*
X121942500Y-80525000D01*
X121505000Y-80962500D01*
X121505000Y-82587500D01*
X121880000Y-82587500D01*
X121880000Y-83212500D01*
X121505000Y-83212500D01*
X121505000Y-83525000D01*
X120755000Y-83525000D01*
X120755000Y-83212500D01*
X119067500Y-83212500D01*
X118630000Y-83650000D01*
X118630000Y-83873096D01*
X118896421Y-84516295D01*
X119388704Y-85008578D01*
X120031903Y-85275000D01*
X120317500Y-85275000D01*
X120379998Y-85212502D01*
X120379998Y-85275000D01*
X120555524Y-85275000D01*
X118611524Y-87219000D01*
X116390000Y-87219000D01*
X115957185Y-87305092D01*
X115590262Y-87550262D01*
X113466524Y-89674000D01*
X112945476Y-89674000D01*
X114029738Y-88589738D01*
X114274908Y-88222815D01*
X114361000Y-87790000D01*
X114361000Y-87771074D01*
X114513198Y-87673138D01*
X114684446Y-87422508D01*
X114744693Y-87125000D01*
X114744693Y-86584782D01*
X114776735Y-86552740D01*
X114776738Y-86552738D01*
X115021908Y-86185815D01*
X115108001Y-85753000D01*
X115108000Y-85752995D01*
X115108000Y-84483860D01*
X115354933Y-84437396D01*
X115610198Y-84273138D01*
X115781446Y-84022508D01*
X115841693Y-83725000D01*
X115841693Y-82125000D01*
X115804419Y-81926904D01*
X118630000Y-81926904D01*
X118630000Y-82150000D01*
X119067500Y-82587500D01*
X120755000Y-82587500D01*
X120755000Y-80962500D01*
X120317500Y-80525000D01*
X120031903Y-80525000D01*
X119388704Y-80791422D01*
X118896421Y-81283705D01*
X118630000Y-81926904D01*
X115804419Y-81926904D01*
X115789396Y-81847067D01*
X115625138Y-81591802D01*
X115374508Y-81420554D01*
X115077000Y-81360307D01*
X114229910Y-81360307D01*
X113977000Y-81310000D01*
X113724090Y-81360307D01*
X113654440Y-81360307D01*
X113560579Y-81133705D01*
X113068296Y-80641422D01*
X112425097Y-80375000D01*
X111964500Y-80375000D01*
X111527000Y-80812500D01*
X111527000Y-82525000D01*
X111747000Y-82525000D01*
X111747000Y-83325000D01*
X111527000Y-83325000D01*
X111527000Y-84140500D01*
X111105000Y-84562500D01*
X111105000Y-86187500D01*
X111480000Y-86187500D01*
X111480000Y-86812500D01*
X111105000Y-86812500D01*
X111105000Y-87125000D01*
X110355000Y-87125000D01*
X110355000Y-86812500D01*
X109282500Y-86812500D01*
X109232500Y-86762500D01*
X107545000Y-86762500D01*
X107545000Y-88387500D01*
X107647688Y-88490188D01*
X107610261Y-88580323D01*
X107609740Y-89177059D01*
X107643135Y-89257880D01*
X107612508Y-89236954D01*
X107315000Y-89176707D01*
X105416183Y-89176707D01*
X104614476Y-88375000D01*
X104932543Y-88056933D01*
X104936421Y-88066295D01*
X105428704Y-88558578D01*
X106071903Y-88825000D01*
X106357500Y-88825000D01*
X106795000Y-88387500D01*
X106795000Y-86762500D01*
X106420000Y-86762500D01*
X106420000Y-86137500D01*
X106795000Y-86137500D01*
X106795000Y-84512500D01*
X106357500Y-84075000D01*
X106315000Y-84075000D01*
X106315000Y-83325000D01*
X107415000Y-83325000D01*
X107415000Y-85037500D01*
X107545000Y-85167500D01*
X107545000Y-86137500D01*
X108617500Y-86137500D01*
X108667500Y-86187500D01*
X110355000Y-86187500D01*
X110355000Y-85109500D01*
X110427000Y-85037500D01*
X110427000Y-83325000D01*
X107415000Y-83325000D01*
X106315000Y-83325000D01*
X106095000Y-83325000D01*
X106095000Y-82525000D01*
X106315000Y-82525000D01*
X106315000Y-80812500D01*
X107415000Y-80812500D01*
X107415000Y-82525000D01*
X110427000Y-82525000D01*
X110427000Y-80812500D01*
X109989500Y-80375000D01*
X109528903Y-80375000D01*
X108921000Y-80626802D01*
X108313097Y-80375000D01*
X107852500Y-80375000D01*
X107415000Y-80812500D01*
X106315000Y-80812500D01*
X105877500Y-80375000D01*
X105416903Y-80375000D01*
X104773704Y-80641422D01*
X104281421Y-81133705D01*
X104187560Y-81360307D01*
X102765000Y-81360307D01*
X102487067Y-81412604D01*
X102231802Y-81576862D01*
X102060554Y-81827492D01*
X102000307Y-82125000D01*
X102000307Y-83725000D01*
X102005957Y-83755026D01*
X101999000Y-83790000D01*
X101999000Y-88490000D01*
X102085092Y-88922815D01*
X102330262Y-89289738D01*
X102772524Y-89732000D01*
X99187000Y-89732000D01*
X99105019Y-89748307D01*
X98437000Y-89748307D01*
X98159067Y-89800604D01*
X97903802Y-89964862D01*
X97732554Y-90215492D01*
X97672307Y-90513000D01*
X97672307Y-90935560D01*
X97445705Y-91029421D01*
X96953422Y-91521704D01*
X96687000Y-92164903D01*
X96687000Y-92250500D01*
X97124500Y-92688000D01*
X97851413Y-92688000D01*
X97888862Y-92746198D01*
X98060920Y-92863760D01*
X97903802Y-92964862D01*
X97853829Y-93038000D01*
X97124500Y-93038000D01*
X96687000Y-93475500D01*
X96687000Y-93561097D01*
X96953422Y-94204296D01*
X97445705Y-94696579D01*
X97672307Y-94790440D01*
X97672307Y-95213000D01*
X97701568Y-95368506D01*
X97672307Y-95513000D01*
X97672307Y-96213000D01*
X97724604Y-96490933D01*
X97888862Y-96746198D01*
X98139492Y-96917446D01*
X98412975Y-96972828D01*
X98159067Y-97020604D01*
X97903802Y-97184862D01*
X97732554Y-97435492D01*
X97672307Y-97733000D01*
X97672307Y-100133000D01*
X97724604Y-100410933D01*
X97888862Y-100666198D01*
X98139492Y-100837446D01*
X98437000Y-100897693D01*
X99937000Y-100897693D01*
X100081489Y-100870505D01*
X100096091Y-100943914D01*
X100132108Y-100997817D01*
X99937000Y-100958307D01*
X98437000Y-100958307D01*
X98159067Y-101010604D01*
X97903802Y-101174862D01*
X97732554Y-101425492D01*
X97672307Y-101723000D01*
X97672307Y-102423000D01*
X97724604Y-102700933D01*
X97729813Y-102709028D01*
X97672307Y-102993000D01*
X97672307Y-103693000D01*
X97724604Y-103970933D01*
X97729813Y-103979028D01*
X97672307Y-104263000D01*
X97672307Y-104963000D01*
X97724604Y-105240933D01*
X97729813Y-105249028D01*
X97672307Y-105533000D01*
X97672307Y-106233000D01*
X97724604Y-106510933D01*
X97729813Y-106519028D01*
X97672307Y-106803000D01*
X97672307Y-107503000D01*
X97724604Y-107780933D01*
X97729813Y-107789028D01*
X97672307Y-108073000D01*
X97672307Y-108773000D01*
X97724604Y-109050933D01*
X97729813Y-109059028D01*
X97672307Y-109343000D01*
X97672307Y-110043000D01*
X97724604Y-110320933D01*
X97888862Y-110576198D01*
X98139492Y-110747446D01*
X98437000Y-110807693D01*
X99937000Y-110807693D01*
X100214933Y-110755396D01*
X100470198Y-110591138D01*
X100641446Y-110340508D01*
X100701693Y-110043000D01*
X100701693Y-109343000D01*
X100649396Y-109065067D01*
X100644187Y-109056972D01*
X100701693Y-108773000D01*
X100701693Y-108073000D01*
X100649396Y-107795067D01*
X100644187Y-107786972D01*
X100701693Y-107503000D01*
X100701693Y-106803000D01*
X100649396Y-106525067D01*
X100644187Y-106516972D01*
X100701693Y-106233000D01*
X100701693Y-105553500D01*
X101356430Y-105553500D01*
X102691500Y-106888570D01*
X102691500Y-110109000D01*
X102763091Y-110468914D01*
X102966966Y-110774034D01*
X103982966Y-111790034D01*
X104288086Y-111993909D01*
X104648000Y-112065500D01*
X104837053Y-112065500D01*
X104971014Y-112265988D01*
X105494504Y-112615772D01*
X106112002Y-112738600D01*
X106485998Y-112738600D01*
X107103496Y-112615772D01*
X107626986Y-112265988D01*
X107760947Y-112065500D01*
X112513432Y-112065500D01*
X113105500Y-112657568D01*
X113105500Y-117348000D01*
X113177091Y-117707914D01*
X113380966Y-118013034D01*
X115793966Y-120426034D01*
X116099086Y-120629909D01*
X116459000Y-120701500D01*
X125984000Y-120701500D01*
X126343914Y-120629909D01*
X126649034Y-120426034D01*
X126830216Y-120244852D01*
X127297059Y-120245260D01*
X127848572Y-120017380D01*
X128270897Y-119595791D01*
X128499739Y-119044677D01*
X128500260Y-118447941D01*
X128363228Y-118116298D01*
X130291964Y-120045034D01*
X130597084Y-120248909D01*
X130956998Y-120320500D01*
X144145000Y-120320500D01*
X144504914Y-120248909D01*
X144810034Y-120045034D01*
X148693036Y-116162032D01*
X148750000Y-116076779D01*
X148750000Y-120750000D01*
X92250000Y-120750000D01*
X92250000Y-114238000D01*
X92372307Y-114238000D01*
X92372307Y-119088000D01*
X92424604Y-119365933D01*
X92588862Y-119621198D01*
X92839492Y-119792446D01*
X93137000Y-119852693D01*
X97637000Y-119852693D01*
X97914933Y-119800396D01*
X98170198Y-119636138D01*
X98341446Y-119385508D01*
X98401693Y-119088000D01*
X98401693Y-117351000D01*
X102140430Y-117351000D01*
X102140430Y-119681000D01*
X112997570Y-119681000D01*
X112997570Y-117351000D01*
X102140430Y-117351000D01*
X98401693Y-117351000D01*
X98401693Y-115883573D01*
X102513521Y-115883573D01*
X102529163Y-115954799D01*
X102530327Y-116027706D01*
X102560449Y-116097264D01*
X102576708Y-116171303D01*
X102660935Y-116363763D01*
X102714999Y-116441302D01*
X102757523Y-116525727D01*
X102798489Y-116561045D01*
X102829422Y-116605410D01*
X102909041Y-116656356D01*
X102980638Y-116718083D01*
X103039855Y-116751607D01*
X103077121Y-116763907D01*
X103077557Y-116764186D01*
X103078448Y-116764345D01*
X103146940Y-116786952D01*
X103250276Y-116832108D01*
X103452938Y-116876498D01*
X103516955Y-116877732D01*
X103579099Y-116893153D01*
X103846386Y-116905692D01*
X103875677Y-116901281D01*
X103904891Y-116906167D01*
X104060848Y-116901388D01*
X104076821Y-116897699D01*
X104093087Y-116899709D01*
X104234220Y-116889332D01*
X104240211Y-116887676D01*
X104246392Y-116888338D01*
X104381940Y-116848490D01*
X104518154Y-116810830D01*
X104523057Y-116807006D01*
X104529019Y-116805253D01*
X104638998Y-116716569D01*
X104750433Y-116629646D01*
X104753498Y-116624238D01*
X104758337Y-116620336D01*
X104826018Y-116496293D01*
X104863624Y-116429946D01*
X104937646Y-116411837D01*
X104946830Y-116405104D01*
X105121074Y-116521529D01*
X105371043Y-116571252D01*
X105426467Y-116654200D01*
X105426472Y-116654204D01*
X105426474Y-116654206D01*
X105468799Y-116696530D01*
X105468801Y-116696533D01*
X105468804Y-116696535D01*
X105468808Y-116696539D01*
X105553807Y-116753332D01*
X105713741Y-116860196D01*
X105713745Y-116860197D01*
X105713750Y-116860200D01*
X105871114Y-116891500D01*
X106002667Y-116917668D01*
X106002671Y-116917667D01*
X106002676Y-116917668D01*
X106164370Y-116885503D01*
X106291593Y-116860196D01*
X106291596Y-116860194D01*
X106291601Y-116860193D01*
X106434190Y-116764916D01*
X106536533Y-116696533D01*
X106578866Y-116654200D01*
X106667516Y-116521526D01*
X106742526Y-116409268D01*
X106742527Y-116409263D01*
X106742529Y-116409260D01*
X106771696Y-116262631D01*
X106800001Y-116120343D01*
X106800000Y-116120338D01*
X106800001Y-116120334D01*
X106789409Y-116067087D01*
X107005400Y-116070883D01*
X107026848Y-116067007D01*
X107048376Y-116070415D01*
X107163497Y-116065881D01*
X107152666Y-116120334D01*
X107152667Y-116120338D01*
X107152666Y-116120343D01*
X107180971Y-116262631D01*
X107210138Y-116409260D01*
X107210140Y-116409263D01*
X107210141Y-116409268D01*
X107272016Y-116501868D01*
X107373801Y-116654200D01*
X107416134Y-116696533D01*
X107661074Y-116860196D01*
X107950000Y-116917668D01*
X108238926Y-116860196D01*
X108373334Y-116770388D01*
X108507741Y-116860196D01*
X108507745Y-116860197D01*
X108507750Y-116860200D01*
X108665114Y-116891500D01*
X108796667Y-116917668D01*
X108796671Y-116917667D01*
X108796676Y-116917668D01*
X108958370Y-116885503D01*
X109085593Y-116860196D01*
X109085596Y-116860194D01*
X109085601Y-116860193D01*
X109228190Y-116764916D01*
X109330533Y-116696533D01*
X109372866Y-116654200D01*
X109439015Y-116555200D01*
X109558667Y-116579001D01*
X109558671Y-116579000D01*
X109558676Y-116579001D01*
X109720370Y-116546836D01*
X109847593Y-116521529D01*
X109847596Y-116521527D01*
X109847601Y-116521526D01*
X110002914Y-116417747D01*
X110092533Y-116357866D01*
X110134866Y-116315533D01*
X110151334Y-116290888D01*
X110167801Y-116315533D01*
X110210134Y-116357866D01*
X110455074Y-116521529D01*
X110744000Y-116579001D01*
X111032926Y-116521529D01*
X111167334Y-116431721D01*
X111301741Y-116521529D01*
X111301745Y-116521530D01*
X111301750Y-116521533D01*
X111461364Y-116553281D01*
X111590667Y-116579001D01*
X111590671Y-116579000D01*
X111590676Y-116579001D01*
X111752370Y-116546836D01*
X111879593Y-116521529D01*
X111879596Y-116521527D01*
X111879601Y-116521526D01*
X112034914Y-116417747D01*
X112124533Y-116357866D01*
X112166866Y-116315533D01*
X112330529Y-116070593D01*
X112388001Y-115781667D01*
X112330529Y-115492741D01*
X112166866Y-115247801D01*
X112124533Y-115205468D01*
X112116771Y-115200282D01*
X112145639Y-115183443D01*
X112217990Y-115119422D01*
X112270582Y-115050248D01*
X112333688Y-114990512D01*
X112358889Y-114934100D01*
X112396283Y-114884916D01*
X112418400Y-114800884D01*
X112453843Y-114721544D01*
X112455537Y-114659781D01*
X112471263Y-114600032D01*
X112459538Y-114513932D01*
X112461921Y-114427068D01*
X112439850Y-114369358D01*
X112431514Y-114308140D01*
X112387733Y-114233081D01*
X112356693Y-114151917D01*
X112314219Y-114107047D01*
X112283089Y-114053677D01*
X112213914Y-114001084D01*
X112154179Y-113937979D01*
X112100219Y-113899743D01*
X112085258Y-113893059D01*
X112073494Y-113881651D01*
X111951275Y-113833207D01*
X111831250Y-113779589D01*
X111814871Y-113779140D01*
X111799636Y-113773101D01*
X111616185Y-113739524D01*
X111565384Y-113740303D01*
X111516078Y-113728037D01*
X111245489Y-113715184D01*
X111212771Y-113720092D01*
X111180094Y-113714913D01*
X110950676Y-113723906D01*
X110909384Y-113733815D01*
X110866964Y-113731874D01*
X110686442Y-113759271D01*
X110685220Y-113758538D01*
X110625916Y-113749724D01*
X110570295Y-113727357D01*
X110481587Y-113728275D01*
X110393834Y-113715233D01*
X110335676Y-113729784D01*
X110275725Y-113730404D01*
X110194117Y-113765201D01*
X110108056Y-113786733D01*
X110059210Y-113809819D01*
X110029712Y-113831684D01*
X109977954Y-113814021D01*
X109839313Y-113766384D01*
X109581053Y-113731407D01*
X109591310Y-113640136D01*
X109586673Y-113624059D01*
X109587814Y-113607368D01*
X109578725Y-113536802D01*
X109559070Y-113478363D01*
X109553272Y-113416978D01*
X109512557Y-113340067D01*
X109484816Y-113257585D01*
X109444294Y-113211116D01*
X109415446Y-113156622D01*
X109293614Y-113006952D01*
X109237895Y-112960850D01*
X109192546Y-112904514D01*
X109125509Y-112867862D01*
X109066645Y-112819159D01*
X108997523Y-112797889D01*
X108934069Y-112763196D01*
X108665695Y-112679005D01*
X108570343Y-112668702D01*
X108477326Y-112645327D01*
X108056687Y-112624341D01*
X108027865Y-112628594D01*
X107999151Y-112623666D01*
X107757203Y-112630050D01*
X107733320Y-112635459D01*
X107708968Y-112632869D01*
X107589608Y-112643687D01*
X107577932Y-112647130D01*
X107565791Y-112646227D01*
X107437057Y-112688669D01*
X107307049Y-112727003D01*
X107297579Y-112734652D01*
X107286017Y-112738464D01*
X107183332Y-112826932D01*
X107077882Y-112912107D01*
X107072059Y-112922800D01*
X107062837Y-112930745D01*
X107001821Y-113051781D01*
X106936996Y-113170820D01*
X106936546Y-113175051D01*
X106889805Y-113209076D01*
X106858960Y-113259514D01*
X106817138Y-113301295D01*
X106799730Y-113327320D01*
X106783980Y-113365291D01*
X106758193Y-113397307D01*
X106742979Y-113449170D01*
X106736115Y-113460394D01*
X106731978Y-113486671D01*
X106727982Y-113500292D01*
X106686862Y-113599426D01*
X106686842Y-113640536D01*
X106675270Y-113679982D01*
X106681802Y-113740593D01*
X106655099Y-113747715D01*
X106538497Y-113770909D01*
X106452849Y-113747757D01*
X106350857Y-113740847D01*
X106250461Y-113721618D01*
X105955628Y-113723716D01*
X105836164Y-113748364D01*
X105715287Y-113764799D01*
X105453431Y-113854926D01*
X105341748Y-113920039D01*
X105330684Y-113925787D01*
X105308866Y-113893134D01*
X105266533Y-113850801D01*
X105141632Y-113767345D01*
X105021601Y-113687141D01*
X105021596Y-113687140D01*
X105021593Y-113687138D01*
X104884249Y-113659818D01*
X104732676Y-113629666D01*
X104732671Y-113629667D01*
X104732667Y-113629666D01*
X104603364Y-113655386D01*
X104443750Y-113687134D01*
X104443745Y-113687137D01*
X104443741Y-113687138D01*
X104305378Y-113779589D01*
X104296092Y-113785794D01*
X104290372Y-113787545D01*
X103923094Y-113985084D01*
X103908250Y-113997330D01*
X103890153Y-114003882D01*
X103666482Y-114139087D01*
X103629568Y-114172796D01*
X103585197Y-114195826D01*
X103253733Y-114461190D01*
X103211856Y-114510974D01*
X103160080Y-114550353D01*
X102906631Y-114836879D01*
X102866192Y-114906235D01*
X102813957Y-114967210D01*
X102655795Y-115248640D01*
X102617092Y-115367152D01*
X102571226Y-115483084D01*
X102525623Y-115733157D01*
X102526833Y-115808944D01*
X102513521Y-115883573D01*
X98401693Y-115883573D01*
X98401693Y-115102355D01*
X98750715Y-114958142D01*
X99130807Y-114578712D01*
X99336765Y-114082710D01*
X99337234Y-113545647D01*
X99132142Y-113049285D01*
X98752712Y-112669193D01*
X98256710Y-112463235D01*
X97719647Y-112462766D01*
X97223285Y-112667858D01*
X96843193Y-113047288D01*
X96666294Y-113473307D01*
X93137000Y-113473307D01*
X92859067Y-113525604D01*
X92603802Y-113689862D01*
X92432554Y-113940492D01*
X92372307Y-114238000D01*
X92250000Y-114238000D01*
X92250000Y-81538000D01*
X92372307Y-81538000D01*
X92372307Y-86388000D01*
X92424604Y-86665933D01*
X92588862Y-86921198D01*
X92839492Y-87092446D01*
X93137000Y-87152693D01*
X96666656Y-87152693D01*
X96841858Y-87576715D01*
X97221288Y-87956807D01*
X97717290Y-88162765D01*
X98254353Y-88163234D01*
X98750715Y-87958142D01*
X99130807Y-87578712D01*
X99336765Y-87082710D01*
X99337234Y-86545647D01*
X99132142Y-86049285D01*
X98752712Y-85669193D01*
X98401693Y-85523437D01*
X98401693Y-81538000D01*
X98349396Y-81260067D01*
X98185138Y-81004802D01*
X97934508Y-80833554D01*
X97637000Y-80773307D01*
X93137000Y-80773307D01*
X92859067Y-80825604D01*
X92603802Y-80989862D01*
X92432554Y-81240492D01*
X92372307Y-81538000D01*
X92250000Y-81538000D01*
X92250000Y-79250000D01*
X148750000Y-79250000D01*
X148750000Y-95632221D01*
G36*
X122397966Y-88107966D02*
X120133432Y-90372500D01*
X117856000Y-90372500D01*
X117496086Y-90444091D01*
X117190966Y-90647966D01*
X116682966Y-91155966D01*
X116479091Y-91461086D01*
X116407500Y-91821000D01*
X116407500Y-94742000D01*
X116479091Y-95101914D01*
X116682966Y-95407034D01*
X117615442Y-96339510D01*
X117586607Y-96481900D01*
X117586607Y-98082100D01*
X117638904Y-98360033D01*
X117803162Y-98615298D01*
X118053792Y-98786546D01*
X118351300Y-98846793D01*
X118783100Y-98846793D01*
X118901596Y-98824496D01*
X118915479Y-98827308D01*
X118747600Y-99232603D01*
X118747600Y-100793500D01*
X119185100Y-101231000D01*
X122694000Y-101231000D01*
X122694000Y-101211000D01*
X124194000Y-101211000D01*
X124194000Y-101231000D01*
X127702900Y-101231000D01*
X128140400Y-100793500D01*
X128140400Y-99232603D01*
X127973051Y-98828588D01*
X127994796Y-98824496D01*
X128104900Y-98846793D01*
X128536700Y-98846793D01*
X128814633Y-98794496D01*
X129069898Y-98630238D01*
X129241146Y-98379608D01*
X129301393Y-98082100D01*
X129301393Y-96481900D01*
X129261300Y-96268825D01*
X129261300Y-95969768D01*
X129294568Y-95936500D01*
X129488500Y-95936500D01*
X129488500Y-108219432D01*
X129261300Y-107992232D01*
X129261300Y-107678085D01*
X129301393Y-107480100D01*
X129301393Y-105879900D01*
X129249096Y-105601967D01*
X129084838Y-105346702D01*
X128834208Y-105175454D01*
X128536700Y-105115207D01*
X128104900Y-105115207D01*
X127986404Y-105137504D01*
X127972521Y-105134692D01*
X128140400Y-104729397D01*
X128140400Y-103168500D01*
X127702900Y-102731000D01*
X124194000Y-102731000D01*
X124194000Y-102751000D01*
X122694000Y-102751000D01*
X122694000Y-102731000D01*
X119185100Y-102731000D01*
X118747600Y-103168500D01*
X118747600Y-104729397D01*
X118914949Y-105133412D01*
X118893204Y-105137504D01*
X118783100Y-105115207D01*
X118351300Y-105115207D01*
X118073367Y-105167504D01*
X117818102Y-105331762D01*
X117646854Y-105582392D01*
X117586607Y-105879900D01*
X117586607Y-106829402D01*
X117309791Y-106552103D01*
X116758677Y-106323261D01*
X116288919Y-106322851D01*
X115841034Y-105874966D01*
X115535914Y-105671091D01*
X115176000Y-105599500D01*
X113159568Y-105599500D01*
X112780500Y-105220432D01*
X112780500Y-102060000D01*
X112708909Y-101700086D01*
X112505034Y-101394966D01*
X108870034Y-97759966D01*
X108564914Y-97556091D01*
X108408439Y-97524966D01*
X108746729Y-97113109D01*
X108929800Y-96714722D01*
X108584229Y-96316800D01*
X106807000Y-96316800D01*
X106807000Y-96655000D01*
X105791000Y-96655000D01*
X105791000Y-96316800D01*
X104013771Y-96316800D01*
X103668200Y-96714722D01*
X103851271Y-97113109D01*
X104156323Y-97484500D01*
X103205570Y-97484500D01*
X103175500Y-97454430D01*
X103175500Y-94869000D01*
X103103909Y-94509086D01*
X102900034Y-94203966D01*
X101894034Y-93197966D01*
X101687000Y-93059630D01*
X101687000Y-92994000D01*
X102570524Y-92994000D01*
X103721260Y-94144735D01*
X103721262Y-94144738D01*
X104076808Y-94382306D01*
X103851271Y-94656891D01*
X103668200Y-95055278D01*
X104013771Y-95453200D01*
X105791000Y-95453200D01*
X105791000Y-95115000D01*
X106807000Y-95115000D01*
X106807000Y-95453200D01*
X108584229Y-95453200D01*
X108929800Y-95055278D01*
X108833060Y-94844759D01*
X109407059Y-94845260D01*
X109958572Y-94617380D01*
X110227421Y-94349000D01*
X114165000Y-94349000D01*
X114549214Y-94272575D01*
X114874935Y-94054935D01*
X115819935Y-93109935D01*
X116037575Y-92784214D01*
X116114000Y-92400000D01*
X116114000Y-91425870D01*
X117235870Y-90304000D01*
X119530000Y-90304000D01*
X119914214Y-90227575D01*
X120239935Y-90009935D01*
X122325870Y-87924000D01*
X122673290Y-87924000D01*
X122397966Y-88107966D01*
X122397966Y-88107966D01*
G37*
X122397966Y-88107966D02*
X120133432Y-90372500D01*
X117856000Y-90372500D01*
X117496086Y-90444091D01*
X117190966Y-90647966D01*
X116682966Y-91155966D01*
X116479091Y-91461086D01*
X116407500Y-91821000D01*
X116407500Y-94742000D01*
X116479091Y-95101914D01*
X116682966Y-95407034D01*
X117615442Y-96339510D01*
X117586607Y-96481900D01*
X117586607Y-98082100D01*
X117638904Y-98360033D01*
X117803162Y-98615298D01*
X118053792Y-98786546D01*
X118351300Y-98846793D01*
X118783100Y-98846793D01*
X118901596Y-98824496D01*
X118915479Y-98827308D01*
X118747600Y-99232603D01*
X118747600Y-100793500D01*
X119185100Y-101231000D01*
X122694000Y-101231000D01*
X122694000Y-101211000D01*
X124194000Y-101211000D01*
X124194000Y-101231000D01*
X127702900Y-101231000D01*
X128140400Y-100793500D01*
X128140400Y-99232603D01*
X127973051Y-98828588D01*
X127994796Y-98824496D01*
X128104900Y-98846793D01*
X128536700Y-98846793D01*
X128814633Y-98794496D01*
X129069898Y-98630238D01*
X129241146Y-98379608D01*
X129301393Y-98082100D01*
X129301393Y-96481900D01*
X129261300Y-96268825D01*
X129261300Y-95969768D01*
X129294568Y-95936500D01*
X129488500Y-95936500D01*
X129488500Y-108219432D01*
X129261300Y-107992232D01*
X129261300Y-107678085D01*
X129301393Y-107480100D01*
X129301393Y-105879900D01*
X129249096Y-105601967D01*
X129084838Y-105346702D01*
X128834208Y-105175454D01*
X128536700Y-105115207D01*
X128104900Y-105115207D01*
X127986404Y-105137504D01*
X127972521Y-105134692D01*
X128140400Y-104729397D01*
X128140400Y-103168500D01*
X127702900Y-102731000D01*
X124194000Y-102731000D01*
X124194000Y-102751000D01*
X122694000Y-102751000D01*
X122694000Y-102731000D01*
X119185100Y-102731000D01*
X118747600Y-103168500D01*
X118747600Y-104729397D01*
X118914949Y-105133412D01*
X118893204Y-105137504D01*
X118783100Y-105115207D01*
X118351300Y-105115207D01*
X118073367Y-105167504D01*
X117818102Y-105331762D01*
X117646854Y-105582392D01*
X117586607Y-105879900D01*
X117586607Y-106829402D01*
X117309791Y-106552103D01*
X116758677Y-106323261D01*
X116288919Y-106322851D01*
X115841034Y-105874966D01*
X115535914Y-105671091D01*
X115176000Y-105599500D01*
X113159568Y-105599500D01*
X112780500Y-105220432D01*
X112780500Y-102060000D01*
X112708909Y-101700086D01*
X112505034Y-101394966D01*
X108870034Y-97759966D01*
X108564914Y-97556091D01*
X108408439Y-97524966D01*
X108746729Y-97113109D01*
X108929800Y-96714722D01*
X108584229Y-96316800D01*
X106807000Y-96316800D01*
X106807000Y-96655000D01*
X105791000Y-96655000D01*
X105791000Y-96316800D01*
X104013771Y-96316800D01*
X103668200Y-96714722D01*
X103851271Y-97113109D01*
X104156323Y-97484500D01*
X103205570Y-97484500D01*
X103175500Y-97454430D01*
X103175500Y-94869000D01*
X103103909Y-94509086D01*
X102900034Y-94203966D01*
X101894034Y-93197966D01*
X101687000Y-93059630D01*
X101687000Y-92994000D01*
X102570524Y-92994000D01*
X103721260Y-94144735D01*
X103721262Y-94144738D01*
X104076808Y-94382306D01*
X103851271Y-94656891D01*
X103668200Y-95055278D01*
X104013771Y-95453200D01*
X105791000Y-95453200D01*
X105791000Y-95115000D01*
X106807000Y-95115000D01*
X106807000Y-95453200D01*
X108584229Y-95453200D01*
X108929800Y-95055278D01*
X108833060Y-94844759D01*
X109407059Y-94845260D01*
X109958572Y-94617380D01*
X110227421Y-94349000D01*
X114165000Y-94349000D01*
X114549214Y-94272575D01*
X114874935Y-94054935D01*
X115819935Y-93109935D01*
X116037575Y-92784214D01*
X116114000Y-92400000D01*
X116114000Y-91425870D01*
X117235870Y-90304000D01*
X119530000Y-90304000D01*
X119914214Y-90227575D01*
X120239935Y-90009935D01*
X122325870Y-87924000D01*
X122673290Y-87924000D01*
X122397966Y-88107966D01*
G36*
X136307200Y-94039278D02*
X136652771Y-94437200D01*
X138430000Y-94437200D01*
X138430000Y-94099000D01*
X139446000Y-94099000D01*
X139446000Y-94437200D01*
X139708000Y-94437200D01*
X139708000Y-95300800D01*
X139446000Y-95300800D01*
X139446000Y-95639000D01*
X138430000Y-95639000D01*
X138430000Y-95300800D01*
X136652771Y-95300800D01*
X136307200Y-95698722D01*
X136490271Y-96097109D01*
X136795323Y-96468500D01*
X136279568Y-96468500D01*
X135941500Y-96130432D01*
X135941500Y-93828935D01*
X136314059Y-93829260D01*
X136424722Y-93783535D01*
X136307200Y-94039278D01*
X136307200Y-94039278D01*
G37*
X136307200Y-94039278D02*
X136652771Y-94437200D01*
X138430000Y-94437200D01*
X138430000Y-94099000D01*
X139446000Y-94099000D01*
X139446000Y-94437200D01*
X139708000Y-94437200D01*
X139708000Y-95300800D01*
X139446000Y-95300800D01*
X139446000Y-95639000D01*
X138430000Y-95639000D01*
X138430000Y-95300800D01*
X136652771Y-95300800D01*
X136307200Y-95698722D01*
X136490271Y-96097109D01*
X136795323Y-96468500D01*
X136279568Y-96468500D01*
X135941500Y-96130432D01*
X135941500Y-93828935D01*
X136314059Y-93829260D01*
X136424722Y-93783535D01*
X136307200Y-94039278D01*
G36*
X128851862Y-87078198D02*
X129102492Y-87249446D01*
X129400000Y-87309693D01*
X130322560Y-87309693D01*
X130416421Y-87536295D01*
X130712626Y-87832500D01*
X126366775Y-87832500D01*
X126669935Y-87629935D01*
X126686768Y-87613102D01*
X127160323Y-87809739D01*
X127757059Y-87810260D01*
X128308572Y-87582380D01*
X128730897Y-87160791D01*
X128799185Y-86996335D01*
X128851862Y-87078198D01*
X128851862Y-87078198D01*
G37*
X128851862Y-87078198D02*
X129102492Y-87249446D01*
X129400000Y-87309693D01*
X130322560Y-87309693D01*
X130416421Y-87536295D01*
X130712626Y-87832500D01*
X126366775Y-87832500D01*
X126669935Y-87629935D01*
X126686768Y-87613102D01*
X127160323Y-87809739D01*
X127757059Y-87810260D01*
X128308572Y-87582380D01*
X128730897Y-87160791D01*
X128799185Y-86996335D01*
X128851862Y-87078198D01*
M02*
