M48
;DRILL file {KiCad 4.0.6-e0-6349~53~ubuntu14.04.1} date Wed Nov  8 09:44:52 2017
;FORMAT={-:-/ absolute / inch / decimal}
FMAT,2
INCH,TZ
T1C0.012
T2C0.040
%
G90
G05
M72
T1
X4.295Y-4.175
X4.2957Y-3.4992
X4.2957Y-3.675
X4.3Y-4.07
X4.585Y-4.245
X4.685Y-4.36
X4.69Y-3.67
X4.835Y-4.565
X4.84Y-4.37
X4.8634Y-3.7457
X4.865Y-3.66
X4.8685Y-3.3681
X4.87Y-4.295
X4.87Y-4.665
X5.Y-4.335
X5.Y-4.675
X5.0177Y-3.6827
X5.0181Y-3.398
X5.355Y-3.635
X5.3571Y-3.3185
X5.3701Y-3.735
X5.3717Y-3.4559
T2
X4.185Y-3.575
X4.185Y-3.675
X4.185Y-3.775
X4.185Y-3.875
X4.185Y-3.975
X4.185Y-4.075
X4.185Y-4.175
X4.185Y-4.275
X4.185Y-4.375
X5.47Y-3.635
X5.47Y-3.735
X5.47Y-3.835
X5.47Y-3.935
X5.47Y-4.035
X5.47Y-4.135
X5.47Y-4.235
X5.47Y-4.335
X5.47Y-4.435
X5.61Y-3.635
X5.61Y-3.735
X5.61Y-3.835
X5.61Y-3.935
X5.61Y-4.035
X5.61Y-4.135
X5.61Y-4.235
X5.61Y-4.335
X5.61Y-4.435
T0
M30
