G04 #@! TF.FileFunction,Copper,L1,Top,Signal*
%FSLAX46Y46*%
G04 Gerber Fmt 4.6, Leading zero omitted, Abs format (unit mm)*
G04 Created by KiCad (PCBNEW 4.0.6-e0-6349~53~ubuntu14.04.1) date Fri Oct 20 08:59:59 2017*
%MOMM*%
%LPD*%
G01*
G04 APERTURE LIST*
%ADD10C,0.100000*%
%ADD11R,0.431800X1.600200*%
%ADD12R,5.892800X4.800600*%
%ADD13R,2.200000X1.600000*%
%ADD14R,1.500000X1.250000*%
%ADD15R,1.500000X2.400000*%
%ADD16R,1.500000X0.700000*%
%ADD17C,1.200000*%
%ADD18R,4.500000X4.850000*%
%ADD19R,2.032000X1.727200*%
%ADD20O,2.032000X1.727200*%
%ADD21R,1.500000X1.300000*%
%ADD22C,1.500000*%
%ADD23C,0.381000*%
%ADD24C,0.762000*%
%ADD25C,0.508000*%
%ADD26C,0.635000*%
%ADD27C,0.250000*%
%ADD28C,0.500000*%
G04 APERTURE END LIST*
D10*
D11*
X128320800Y-97282000D03*
X127660400Y-97282000D03*
X127025400Y-97282000D03*
X126365000Y-97282000D03*
X125730000Y-97282000D03*
X125069600Y-97282000D03*
X124409200Y-97282000D03*
X123774200Y-97282000D03*
X123113800Y-97282000D03*
X122478800Y-97282000D03*
X121818400Y-97282000D03*
X121158000Y-97282000D03*
X120523000Y-97282000D03*
X119862600Y-97282000D03*
X119227600Y-97282000D03*
X118567200Y-97282000D03*
X118567200Y-106680000D03*
X119227600Y-106680000D03*
X119862600Y-106680000D03*
X120523000Y-106680000D03*
X121158000Y-106680000D03*
X121818400Y-106680000D03*
X122478800Y-106680000D03*
X123113800Y-106680000D03*
X123774200Y-106680000D03*
X124409200Y-106680000D03*
X125069600Y-106680000D03*
X125730000Y-106680000D03*
X126365000Y-106680000D03*
X127025400Y-106680000D03*
X127660400Y-106680000D03*
X128320800Y-106680000D03*
D12*
X123444000Y-101981000D03*
D13*
X106865000Y-82925000D03*
X103865000Y-82925000D03*
D14*
X104670000Y-86450000D03*
X107170000Y-86450000D03*
D13*
X110977000Y-82925000D03*
X113977000Y-82925000D03*
D14*
X113230000Y-86500000D03*
X110730000Y-86500000D03*
X130150000Y-85920000D03*
X132650000Y-85920000D03*
D15*
X99187000Y-98933000D03*
D16*
X99187000Y-108423000D03*
X99187000Y-107153000D03*
X99187000Y-109693000D03*
X99187000Y-105883000D03*
X99187000Y-104613000D03*
X99187000Y-103343000D03*
X99187000Y-102073000D03*
X99187000Y-95863000D03*
X99187000Y-94863000D03*
X99187000Y-93863000D03*
X99187000Y-92863000D03*
X99187000Y-91863000D03*
X99187000Y-90863000D03*
D17*
X97987000Y-113813000D03*
X97987000Y-86813000D03*
D18*
X96587000Y-116663000D03*
X96587000Y-83963000D03*
D19*
X138938000Y-112649000D03*
D20*
X138938000Y-110109000D03*
X138938000Y-107569000D03*
X138938000Y-105029000D03*
X138938000Y-102489000D03*
X138938000Y-99949000D03*
X138938000Y-97409000D03*
X138938000Y-94869000D03*
X138938000Y-92329000D03*
D19*
X142494000Y-92329000D03*
D20*
X142494000Y-94869000D03*
X142494000Y-97409000D03*
X142494000Y-99949000D03*
X142494000Y-102489000D03*
X142494000Y-105029000D03*
X142494000Y-107569000D03*
X142494000Y-110109000D03*
X142494000Y-112649000D03*
D21*
X119714000Y-115951000D03*
X117014000Y-115951000D03*
D14*
X123630000Y-82900000D03*
X121130000Y-82900000D03*
D19*
X106299000Y-90805000D03*
D20*
X106299000Y-93345000D03*
X106299000Y-95885000D03*
X106299000Y-98425000D03*
X106299000Y-100965000D03*
X106299000Y-103505000D03*
X106299000Y-106045000D03*
X106299000Y-108585000D03*
X106299000Y-111125000D03*
D22*
X136440000Y-87780000D03*
X136400000Y-94870000D03*
X136070000Y-84290000D03*
X123660000Y-85550000D03*
X123530000Y-95140000D03*
X136017000Y-92329000D03*
X109110000Y-88880000D03*
X109110000Y-93345000D03*
X127460000Y-86310000D03*
X127450000Y-93540000D03*
X127000000Y-118745000D03*
X127000000Y-110109000D03*
X123698000Y-109093000D03*
X123698000Y-118491000D03*
X109220000Y-103378000D03*
X123571000Y-92964000D03*
X116459000Y-107823000D03*
X118999000Y-110744000D03*
X122936000Y-110998000D03*
X122809000Y-115951000D03*
X119126000Y-93218000D03*
X109093000Y-106045000D03*
D23*
X121130000Y-82900000D02*
X120000000Y-82900000D01*
X107170000Y-88670000D02*
X107170000Y-86450000D01*
X108533498Y-90033498D02*
X107170000Y-88670000D01*
X112866502Y-90033498D02*
X108533498Y-90033498D01*
X120000000Y-82900000D02*
X112866502Y-90033498D01*
X121130000Y-82900000D02*
X121120000Y-82900000D01*
D24*
X121120000Y-82900000D02*
X119250000Y-81030000D01*
X110977000Y-82925000D02*
X110977000Y-82483000D01*
X110977000Y-82483000D02*
X112430000Y-81030000D01*
X136610000Y-87780000D02*
X137880000Y-86510000D01*
X137880000Y-86510000D02*
X137880000Y-83730000D01*
X137880000Y-83730000D02*
X136850000Y-82700000D01*
X136850000Y-82700000D02*
X127710000Y-82700000D01*
X127710000Y-82700000D02*
X126040000Y-81030000D01*
X136440000Y-87780000D02*
X136610000Y-87780000D01*
X112430000Y-81030000D02*
X119250000Y-81030000D01*
X119250000Y-81030000D02*
X126040000Y-81030000D01*
X107170000Y-86450000D02*
X107170000Y-83230000D01*
X107170000Y-83230000D02*
X106865000Y-82925000D01*
X110977000Y-82925000D02*
X110977000Y-86253000D01*
X110977000Y-86253000D02*
X110730000Y-86500000D01*
X107170000Y-86450000D02*
X110680000Y-86450000D01*
X110680000Y-86450000D02*
X110730000Y-86500000D01*
D25*
X132650000Y-85920000D02*
X134580000Y-85920000D01*
X134580000Y-85920000D02*
X136440000Y-87780000D01*
D24*
X126490000Y-87820000D02*
X136400000Y-87820000D01*
X115400000Y-95600000D02*
X116210000Y-94790000D01*
X116210000Y-94790000D02*
X116210000Y-91470000D01*
X116210000Y-91470000D02*
X117420000Y-90260000D01*
X117420000Y-90260000D02*
X120010000Y-90260000D01*
X120010000Y-90260000D02*
X122450000Y-87820000D01*
X122450000Y-87820000D02*
X126490000Y-87820000D01*
X115400000Y-95885000D02*
X115400000Y-95600000D01*
X136400000Y-87820000D02*
X136440000Y-87780000D01*
X138938000Y-94869000D02*
X136401000Y-94869000D01*
X136401000Y-94869000D02*
X136400000Y-94870000D01*
X106299000Y-95885000D02*
X115400000Y-95885000D01*
X115400000Y-95885000D02*
X115443000Y-95885000D01*
X99187000Y-92863000D02*
X102642000Y-92863000D01*
X102642000Y-92863000D02*
X105664000Y-95885000D01*
X105664000Y-95885000D02*
X106299000Y-95885000D01*
X110977000Y-82925000D02*
X110977000Y-82647000D01*
X106865000Y-82925000D02*
X110977000Y-82925000D01*
D26*
X115443000Y-95885000D02*
X117294002Y-97736002D01*
X118745000Y-101981000D02*
X123444000Y-101981000D01*
X117294002Y-100530002D02*
X118745000Y-101981000D01*
X117294002Y-97736002D02*
X117294002Y-100530002D01*
X115316000Y-95885000D02*
X115443000Y-95885000D01*
D23*
X123113800Y-106680000D02*
X123113800Y-102311200D01*
X123113800Y-102311200D02*
X123444000Y-101981000D01*
X124409200Y-106680000D02*
X124409200Y-102946200D01*
X124409200Y-102946200D02*
X123444000Y-101981000D01*
D25*
X123774200Y-106680000D02*
X123774200Y-102311200D01*
X123774200Y-102311200D02*
X123444000Y-101981000D01*
D23*
X124409200Y-97282000D02*
X124409200Y-101015800D01*
X124409200Y-101015800D02*
X123444000Y-101981000D01*
X123774200Y-97282000D02*
X123774200Y-101650800D01*
X123774200Y-101650800D02*
X123444000Y-101981000D01*
X123113800Y-97282000D02*
X123113800Y-101650800D01*
X123113800Y-101650800D02*
X123444000Y-101981000D01*
X122478800Y-97282000D02*
X122478800Y-101015800D01*
X122478800Y-101015800D02*
X123444000Y-101981000D01*
D24*
X122936000Y-101473000D02*
X123444000Y-101981000D01*
D23*
X122936000Y-101473000D02*
X123444000Y-101981000D01*
D24*
X104670000Y-86450000D02*
X104670000Y-86720000D01*
X104670000Y-86720000D02*
X103130000Y-88260000D01*
X103865000Y-82925000D02*
X103865000Y-83055000D01*
X103865000Y-83055000D02*
X103130000Y-83790000D01*
X103130000Y-83790000D02*
X103130000Y-88260000D01*
X103130000Y-88260000D02*
X103130000Y-88490000D01*
X103130000Y-88490000D02*
X105503000Y-90863000D01*
X105503000Y-90863000D02*
X106299000Y-90805000D01*
X123660000Y-85550000D02*
X123660000Y-82930000D01*
X123660000Y-82930000D02*
X123630000Y-82900000D01*
X123660000Y-85550000D02*
X125870000Y-85550000D01*
X127130000Y-84290000D02*
X136070000Y-84290000D01*
X125870000Y-85550000D02*
X127130000Y-84290000D01*
X121510000Y-85920000D02*
X121510000Y-85890000D01*
X113935000Y-90805000D02*
X116390000Y-88350000D01*
X116390000Y-88350000D02*
X119080000Y-88350000D01*
X119080000Y-88350000D02*
X121510000Y-85920000D01*
X106299000Y-90805000D02*
X113935000Y-90805000D01*
X121850000Y-85550000D02*
X123660000Y-85550000D01*
X121510000Y-85890000D02*
X121850000Y-85550000D01*
X123660000Y-85550000D02*
X123660000Y-85500000D01*
D23*
X125069600Y-97282000D02*
X125069600Y-96029600D01*
X123550000Y-95160000D02*
X123530000Y-95140000D01*
X124200000Y-95160000D02*
X123550000Y-95160000D01*
X125069600Y-96029600D02*
X124200000Y-95160000D01*
D24*
X99187000Y-90863000D02*
X106241000Y-90863000D01*
X106241000Y-90863000D02*
X106299000Y-90805000D01*
X138938000Y-92329000D02*
X136017000Y-92329000D01*
D26*
X106241000Y-90863000D02*
X106299000Y-90805000D01*
D24*
X113230000Y-86500000D02*
X113230000Y-87790000D01*
X113230000Y-87790000D02*
X112110000Y-88910000D01*
X113977000Y-82925000D02*
X113977000Y-85753000D01*
X113977000Y-85753000D02*
X113230000Y-86500000D01*
X113977000Y-82925000D02*
X114085000Y-82925000D01*
X112110000Y-88910000D02*
X109140000Y-88910000D01*
X109140000Y-88910000D02*
X109110000Y-88880000D01*
D25*
X127460000Y-86310000D02*
X126570000Y-86310000D01*
X114165000Y-93345000D02*
X115110000Y-92400000D01*
X115110000Y-92400000D02*
X115110000Y-91010000D01*
X115110000Y-91010000D02*
X116820000Y-89300000D01*
X116820000Y-89300000D02*
X119530000Y-89300000D01*
X119530000Y-89300000D02*
X121910000Y-86920000D01*
X114165000Y-93345000D02*
X110871000Y-93345000D01*
X125960000Y-86920000D02*
X121910000Y-86920000D01*
X126570000Y-86310000D02*
X125960000Y-86920000D01*
X127460000Y-86310000D02*
X127590000Y-86310000D01*
X127590000Y-86310000D02*
X127980000Y-85920000D01*
X127980000Y-85920000D02*
X130150000Y-85920000D01*
D23*
X127025400Y-93964600D02*
X127025400Y-97282000D01*
X127025400Y-93964600D02*
X127450000Y-93540000D01*
D24*
X99187000Y-91863000D02*
X103293000Y-91863000D01*
X104775000Y-93345000D02*
X106299000Y-93345000D01*
X103293000Y-91863000D02*
X104775000Y-93345000D01*
D25*
X113977000Y-82925000D02*
X113977000Y-82314000D01*
X113977000Y-82314000D02*
X114461000Y-82798000D01*
D24*
X106299000Y-93345000D02*
X109110000Y-93345000D01*
D25*
X109110000Y-93345000D02*
X110871000Y-93345000D01*
D23*
X111633000Y-111125000D02*
X112903000Y-111125000D01*
X114046000Y-113411000D02*
X114046000Y-117348000D01*
X114046000Y-117348000D02*
X116459000Y-119761000D01*
X116459000Y-119761000D02*
X125984000Y-119761000D01*
X125984000Y-119761000D02*
X127000000Y-118745000D01*
X114046000Y-112268000D02*
X114046000Y-113411000D01*
X112903000Y-111125000D02*
X114046000Y-112268000D01*
X99187000Y-104613000D02*
X101745998Y-104613000D01*
X101745998Y-104613000D02*
X101854000Y-104721002D01*
X101854000Y-104721002D02*
X101854000Y-104775000D01*
X101854000Y-104775000D02*
X101854000Y-104721002D01*
X104648000Y-111125000D02*
X106299000Y-111125000D01*
X103632000Y-110109000D02*
X104648000Y-111125000D01*
X103632000Y-106499002D02*
X103632000Y-110109000D01*
X101745998Y-104613000D02*
X101854000Y-104721002D01*
X101854000Y-104721002D02*
X103632000Y-106499002D01*
X106299000Y-111125000D02*
X111633000Y-111125000D01*
X111633000Y-111125000D02*
X111760000Y-111125000D01*
X127025400Y-106680000D02*
X127025400Y-110083600D01*
X127025400Y-110083600D02*
X127000000Y-110109000D01*
D27*
X127025400Y-110083600D02*
X127000000Y-110109000D01*
D23*
X114681000Y-113157000D02*
X114681000Y-111760000D01*
X125069600Y-107848400D02*
X123698000Y-109093000D01*
X125069600Y-106680000D02*
X125069600Y-107848400D01*
X116205000Y-118491000D02*
X123698000Y-118491000D01*
X114681000Y-116967000D02*
X116205000Y-118491000D01*
X114681000Y-113157000D02*
X114681000Y-116967000D01*
X113411000Y-108585000D02*
X106299000Y-108585000D01*
X114046000Y-109220000D02*
X113411000Y-108585000D01*
X114046000Y-111125000D02*
X114046000Y-109220000D01*
X114681000Y-111760000D02*
X114046000Y-111125000D01*
X99187000Y-103343000D02*
X102581000Y-103343000D01*
X102581000Y-103343000D02*
X103505000Y-104267000D01*
X103505000Y-104267000D02*
X103505000Y-105410000D01*
X103505000Y-105410000D02*
X104267000Y-106172000D01*
X104267000Y-106172000D02*
X104267000Y-107569000D01*
X104267000Y-107569000D02*
X105283000Y-108585000D01*
X105283000Y-108585000D02*
X106299000Y-108585000D01*
X99187000Y-95863000D02*
X100435000Y-95863000D01*
X104775000Y-103505000D02*
X106299000Y-103505000D01*
X104013000Y-102743000D02*
X104775000Y-103505000D01*
X104013000Y-101473000D02*
X104013000Y-102743000D01*
X102743000Y-100203000D02*
X104013000Y-101473000D01*
X102743000Y-98171000D02*
X102743000Y-100203000D01*
X100435000Y-95863000D02*
X102743000Y-98171000D01*
X106299000Y-103505000D02*
X109220000Y-103505000D01*
X109220000Y-103505000D02*
X109220000Y-103378000D01*
X121818400Y-97282000D02*
X121818400Y-94716600D01*
X121818400Y-94716600D02*
X123571000Y-92964000D01*
X106299000Y-100965000D02*
X109375000Y-100965000D01*
X117014000Y-112823000D02*
X114935000Y-110744000D01*
X117014000Y-112823000D02*
X117014000Y-115951000D01*
X114935000Y-108305000D02*
X114935000Y-110744000D01*
X114250000Y-107620000D02*
X114935000Y-108305000D01*
X112090000Y-107620000D02*
X114250000Y-107620000D01*
X110700000Y-106230000D02*
X112090000Y-107620000D01*
X110700000Y-102290000D02*
X110700000Y-106230000D01*
X109375000Y-100965000D02*
X110700000Y-102290000D01*
X106299000Y-100965000D02*
X105283000Y-100965000D01*
X105283000Y-100965000D02*
X105156000Y-100838000D01*
X105029000Y-100838000D02*
X105029000Y-100711000D01*
X105156000Y-100838000D02*
X105029000Y-100838000D01*
X99187000Y-94863000D02*
X100832000Y-94863000D01*
X103886000Y-99568000D02*
X105029000Y-100711000D01*
X105029000Y-100711000D02*
X105283000Y-100965000D01*
X103886000Y-97917000D02*
X103886000Y-99568000D01*
X100832000Y-94863000D02*
X103886000Y-97917000D01*
X106299000Y-98425000D02*
X108205000Y-98425000D01*
X115176000Y-106540000D02*
X116459000Y-107823000D01*
X112770000Y-106540000D02*
X115176000Y-106540000D01*
X111840000Y-105610000D02*
X112770000Y-106540000D01*
X111840000Y-102060000D02*
X111840000Y-105610000D01*
X108205000Y-98425000D02*
X111840000Y-102060000D01*
X99187000Y-93863000D02*
X101229000Y-93863000D01*
X101229000Y-93863000D02*
X105791000Y-98425000D01*
D26*
X105791000Y-98425000D02*
X106299000Y-98425000D01*
D23*
X119862600Y-106680000D02*
X119862600Y-109880400D01*
X119862600Y-109880400D02*
X118999000Y-110744000D01*
X116459000Y-107823000D02*
X116586000Y-107696000D01*
X121818400Y-109880400D02*
X122936000Y-110998000D01*
X121818400Y-106680000D02*
X121818400Y-109880400D01*
X122809000Y-115951000D02*
X119714000Y-115951000D01*
X130429000Y-111506000D02*
X131699000Y-112776000D01*
X128320800Y-95580200D02*
X128905000Y-94996000D01*
X128905000Y-94996000D02*
X130048000Y-94996000D01*
X130048000Y-94996000D02*
X130429000Y-95377000D01*
X130429000Y-95377000D02*
X130429000Y-111506000D01*
X128320800Y-97282000D02*
X128320800Y-95580200D01*
X131699000Y-112776000D02*
X138811000Y-112776000D01*
X138811000Y-112776000D02*
X138938000Y-112649000D01*
X131191000Y-108966000D02*
X131191000Y-109093000D01*
X131191000Y-109093000D02*
X132207000Y-110109000D01*
X132207000Y-110109000D02*
X138938000Y-110109000D01*
X127660400Y-97282000D02*
X127660400Y-95097600D01*
X130429000Y-94234000D02*
X131191000Y-94996000D01*
X131191000Y-94996000D02*
X131191000Y-108966000D01*
X130429000Y-94234000D02*
X128524000Y-94234000D01*
X127660400Y-95097600D02*
X128524000Y-94234000D01*
X131953000Y-105791000D02*
X131953000Y-106426000D01*
X126365000Y-94615000D02*
X125603000Y-93853000D01*
X125603000Y-93853000D02*
X125603000Y-92964000D01*
X125603000Y-92964000D02*
X126238000Y-92329000D01*
X126238000Y-92329000D02*
X129667000Y-92329000D01*
X129667000Y-92329000D02*
X130810000Y-93472000D01*
X130810000Y-93472000D02*
X131953000Y-94615000D01*
X131953000Y-94615000D02*
X131953000Y-105791000D01*
X126365000Y-97282000D02*
X126365000Y-94615000D01*
X133096000Y-107569000D02*
X138938000Y-107569000D01*
X131953000Y-106426000D02*
X133096000Y-107569000D01*
X132715000Y-104013000D02*
X132715000Y-104394000D01*
X131699000Y-93218000D02*
X132715000Y-94234000D01*
X132715000Y-94234000D02*
X132715000Y-104013000D01*
X133350000Y-105029000D02*
X138938000Y-105029000D01*
X132715000Y-104394000D02*
X133350000Y-105029000D01*
X125730000Y-97282000D02*
X125730000Y-94996000D01*
X130175000Y-91694000D02*
X131699000Y-93218000D01*
X125857000Y-91694000D02*
X130175000Y-91694000D01*
X124841000Y-92710000D02*
X125857000Y-91694000D01*
X124841000Y-94107000D02*
X124841000Y-92710000D01*
X125730000Y-94996000D02*
X124841000Y-94107000D01*
X131191000Y-92710000D02*
X131699000Y-93218000D01*
X133477000Y-101219000D02*
X133477000Y-101346000D01*
X133477000Y-93853000D02*
X133477000Y-101219000D01*
X131699000Y-92075000D02*
X133477000Y-93853000D01*
X131826000Y-92202000D02*
X131699000Y-92075000D01*
X134620000Y-102489000D02*
X138938000Y-102489000D01*
X133477000Y-101346000D02*
X134620000Y-102489000D01*
X131826000Y-92202000D02*
X130556000Y-90932000D01*
X130556000Y-90932000D02*
X126238000Y-90932000D01*
X126238000Y-90932000D02*
X125603000Y-90932000D01*
X131572000Y-91948000D02*
X131826000Y-92202000D01*
X123698000Y-90932000D02*
X126238000Y-90932000D01*
X121158000Y-93472000D02*
X123698000Y-90932000D01*
X121158000Y-97282000D02*
X121158000Y-93472000D01*
X134239000Y-98806000D02*
X134366000Y-98806000D01*
X135509000Y-99949000D02*
X138938000Y-99949000D01*
X134366000Y-98806000D02*
X135509000Y-99949000D01*
X132207000Y-91567000D02*
X130810000Y-90170000D01*
X130810000Y-90170000D02*
X125984000Y-90170000D01*
X125984000Y-90170000D02*
X125543340Y-90170000D01*
X131826000Y-91186000D02*
X132207000Y-91567000D01*
X132207000Y-91567000D02*
X134239000Y-93599000D01*
X134239000Y-93599000D02*
X134239000Y-98806000D01*
X134239000Y-98806000D02*
X134239000Y-98679000D01*
X123444000Y-90170000D02*
X125984000Y-90170000D01*
X120523000Y-93091000D02*
X123444000Y-90170000D01*
X120523000Y-97282000D02*
X120523000Y-93091000D01*
X138938000Y-97409000D02*
X135890000Y-97409000D01*
X135001000Y-96520000D02*
X135001000Y-93345000D01*
X134874000Y-93218000D02*
X131064000Y-89408000D01*
X131064000Y-89408000D02*
X125476000Y-89408000D01*
X135001000Y-93345000D02*
X134874000Y-93218000D01*
X135890000Y-97409000D02*
X135001000Y-96520000D01*
X119227600Y-97282000D02*
X119227600Y-95478600D01*
X123317000Y-89408000D02*
X125476000Y-89408000D01*
X120777000Y-91948000D02*
X123317000Y-89408000D01*
X118237000Y-91948000D02*
X120777000Y-91948000D01*
X117983000Y-92202000D02*
X118237000Y-91948000D01*
X117983000Y-94234000D02*
X117983000Y-92202000D01*
X119227600Y-95478600D02*
X117983000Y-94234000D01*
X125476000Y-89408000D02*
X125222000Y-89408000D01*
X133028660Y-90297000D02*
X141097000Y-90297000D01*
X118567200Y-95961200D02*
X117348000Y-94742000D01*
X117348000Y-94742000D02*
X117348000Y-91821000D01*
X117348000Y-91821000D02*
X117856000Y-91313000D01*
X117856000Y-91313000D02*
X120523000Y-91313000D01*
X120523000Y-91313000D02*
X123063000Y-88773000D01*
X123063000Y-88773000D02*
X124968000Y-88773000D01*
X131504660Y-88773000D02*
X133028660Y-90297000D01*
X124968000Y-88773000D02*
X131504660Y-88773000D01*
X118567200Y-97282000D02*
X118567200Y-95961200D01*
X141097000Y-90297000D02*
X142494000Y-91694000D01*
X142494000Y-91694000D02*
X142494000Y-92329000D01*
X131180000Y-119380000D02*
X130956998Y-119380000D01*
X121412000Y-114173000D02*
X124660002Y-114173000D01*
X124660002Y-114173000D02*
X124914002Y-114427000D01*
X118567200Y-108508800D02*
X118567200Y-106680000D01*
X118364000Y-112776000D02*
X120015000Y-112776000D01*
X117221000Y-111633000D02*
X118364000Y-112776000D01*
X117221000Y-109855000D02*
X117221000Y-111633000D01*
X118567200Y-108508800D02*
X117221000Y-109855000D01*
X120015000Y-112776000D02*
X121412000Y-114173000D01*
X126003998Y-114427000D02*
X124914002Y-114427000D01*
X130956998Y-119380000D02*
X126003998Y-114427000D01*
X146685000Y-94869000D02*
X142494000Y-94869000D01*
X148028002Y-96212002D02*
X146685000Y-94869000D01*
X148028002Y-115496998D02*
X148028002Y-96212002D01*
X144145000Y-119380000D02*
X148028002Y-115496998D01*
X131004340Y-119380000D02*
X131180000Y-119380000D01*
X131180000Y-119380000D02*
X144145000Y-119380000D01*
X131191000Y-118745000D02*
X131155000Y-118745000D01*
X124975680Y-113538000D02*
X125229680Y-113792000D01*
X131191000Y-118745000D02*
X143891000Y-118745000D01*
X143891000Y-118745000D02*
X147447000Y-115189000D01*
X147447000Y-115189000D02*
X147447000Y-98552000D01*
X147447000Y-98552000D02*
X146304000Y-97409000D01*
X142494000Y-97409000D02*
X146304000Y-97409000D01*
X124975680Y-113538000D02*
X124460000Y-113538000D01*
X126202000Y-113792000D02*
X125229680Y-113792000D01*
X131155000Y-118745000D02*
X126202000Y-113792000D01*
X117856000Y-110236000D02*
X119227600Y-108864400D01*
X119227600Y-106680000D02*
X119227600Y-108864400D01*
X118618000Y-112141000D02*
X117856000Y-111379000D01*
X117856000Y-111379000D02*
X117856000Y-110236000D01*
X121666000Y-113538000D02*
X124460000Y-113538000D01*
X124460000Y-113538000D02*
X124587000Y-113538000D01*
X120269000Y-112141000D02*
X121666000Y-113538000D01*
X120269000Y-112141000D02*
X118618000Y-112141000D01*
X125422002Y-113162662D02*
X126445682Y-113162662D01*
X120523000Y-111184660D02*
X122187342Y-112849002D01*
X122187342Y-112849002D02*
X125108342Y-112849002D01*
X125108342Y-112849002D02*
X125422002Y-113162662D01*
X120523000Y-106680000D02*
X120523000Y-111184660D01*
X126445682Y-113162662D02*
X131431028Y-118148008D01*
X131431028Y-118148008D02*
X131431028Y-118163998D01*
X131431028Y-118163998D02*
X131431028Y-118148008D01*
X145669000Y-99949000D02*
X142494000Y-99949000D01*
X146831004Y-101111004D02*
X145669000Y-99949000D01*
X146831004Y-114915996D02*
X146831004Y-101111004D01*
X143598992Y-118148008D02*
X146831004Y-114915996D01*
X131431028Y-118148008D02*
X131431028Y-118148008D01*
X131431028Y-118148008D02*
X143598992Y-118148008D01*
X126686340Y-112581660D02*
X126751660Y-112581660D01*
X125349000Y-112268000D02*
X125662660Y-112581660D01*
X125662660Y-112581660D02*
X126686340Y-112581660D01*
X121158000Y-106680000D02*
X121158000Y-110998000D01*
X121158000Y-110998000D02*
X122428000Y-112268000D01*
X122428000Y-112268000D02*
X125222000Y-112268000D01*
X125222000Y-112268000D02*
X125349000Y-112268000D01*
X126751660Y-112581660D02*
X131737006Y-117567006D01*
X144526000Y-102489000D02*
X142494000Y-102489000D01*
X146250002Y-104213002D02*
X144526000Y-102489000D01*
X146250002Y-114600318D02*
X146250002Y-104213002D01*
X143283314Y-117567006D02*
X146250002Y-114600318D01*
X131671686Y-117567006D02*
X131737006Y-117567006D01*
X131737006Y-117567006D02*
X143283314Y-117567006D01*
X126813340Y-111887000D02*
X126947000Y-111887000D01*
X124968000Y-109220000D02*
X124968000Y-110998000D01*
X124968000Y-110998000D02*
X125857000Y-111887000D01*
X125857000Y-111887000D02*
X126813340Y-111887000D01*
X125730000Y-106680000D02*
X125730000Y-108458000D01*
X125730000Y-108458000D02*
X124968000Y-109220000D01*
X126947000Y-111887000D02*
X132046004Y-116986004D01*
X143637000Y-105029000D02*
X142494000Y-105029000D01*
X145669000Y-107061000D02*
X143637000Y-105029000D01*
X145669000Y-114359660D02*
X145669000Y-107061000D01*
X143042656Y-116986004D02*
X145669000Y-114359660D01*
X132046004Y-116986004D02*
X143042656Y-116986004D01*
X125603000Y-110617000D02*
X125603000Y-110633000D01*
X126365000Y-106680000D02*
X126365000Y-108712000D01*
X125603000Y-109474000D02*
X125603000Y-110617000D01*
X126365000Y-108712000D02*
X125603000Y-109474000D01*
X127190000Y-111290000D02*
X132305002Y-116405002D01*
X126260000Y-111290000D02*
X127190000Y-111290000D01*
X125603000Y-110633000D02*
X126260000Y-111290000D01*
X143891000Y-107569000D02*
X142494000Y-107569000D01*
X145034000Y-108712000D02*
X143891000Y-107569000D01*
X145034000Y-114173000D02*
X145034000Y-108712000D01*
X142801998Y-116405002D02*
X145034000Y-114173000D01*
X132305002Y-116405002D02*
X142801998Y-116405002D01*
X144399000Y-113880000D02*
X144399000Y-113945000D01*
X128704998Y-109601000D02*
X128704998Y-109654998D01*
X128704998Y-111914998D02*
X128704998Y-109601000D01*
X132614000Y-115824000D02*
X128704998Y-111914998D01*
X142520000Y-115824000D02*
X132614000Y-115824000D01*
X144399000Y-113945000D02*
X142520000Y-115824000D01*
X127660400Y-108610400D02*
X128704998Y-109654998D01*
X127660400Y-106680000D02*
X127660400Y-108610400D01*
X128704998Y-109654998D02*
X128651000Y-109601000D01*
X143637000Y-110109000D02*
X142494000Y-110109000D01*
X144399000Y-110871000D02*
X143637000Y-110109000D01*
X144399000Y-113919000D02*
X144399000Y-113880000D01*
X144399000Y-113880000D02*
X144399000Y-110871000D01*
X140970000Y-115189000D02*
X141605000Y-115189000D01*
X142494000Y-114300000D02*
X142494000Y-112649000D01*
X141605000Y-115189000D02*
X142494000Y-114300000D01*
X128320800Y-106680000D02*
X128320800Y-108381800D01*
X132842000Y-115189000D02*
X140970000Y-115189000D01*
X140970000Y-115189000D02*
X141097000Y-115189000D01*
X129286000Y-111633000D02*
X132842000Y-115189000D01*
X129286000Y-109347000D02*
X129286000Y-111633000D01*
X128320800Y-108381800D02*
X129286000Y-109347000D01*
X99187000Y-102073000D02*
X102327000Y-102073000D01*
X102327000Y-102073000D02*
X102362000Y-102108000D01*
X105029000Y-106045000D02*
X106299000Y-106045000D01*
X104140000Y-105156000D02*
X105029000Y-106045000D01*
X104140000Y-103886000D02*
X104140000Y-105156000D01*
X102327000Y-102073000D02*
X102616000Y-102362000D01*
X102616000Y-102362000D02*
X104140000Y-103886000D01*
X106299000Y-106045000D02*
X109093000Y-106045000D01*
X119862600Y-94081600D02*
X119126000Y-93345000D01*
X119126000Y-93345000D02*
X119126000Y-93218000D01*
X119862600Y-94081600D02*
X119862600Y-97282000D01*
D28*
G36*
X148750000Y-95632221D02*
X148693036Y-95546968D01*
X147350034Y-94203966D01*
X147044914Y-94000091D01*
X146685000Y-93928500D01*
X143955947Y-93928500D01*
X143894446Y-93836457D01*
X144043198Y-93740738D01*
X144214446Y-93490108D01*
X144274693Y-93192600D01*
X144274693Y-91465400D01*
X144222396Y-91187467D01*
X144058138Y-90932202D01*
X143807508Y-90760954D01*
X143510000Y-90700707D01*
X142830775Y-90700707D01*
X141762034Y-89631966D01*
X141456914Y-89428091D01*
X141097000Y-89356500D01*
X133418228Y-89356500D01*
X132169694Y-88107966D01*
X132082677Y-88049823D01*
X132275000Y-87857500D01*
X132275000Y-86232500D01*
X133025000Y-86232500D01*
X133025000Y-87857500D01*
X133462500Y-88295000D01*
X133748097Y-88295000D01*
X134391296Y-88028578D01*
X134883579Y-87536295D01*
X135150000Y-86893096D01*
X135150000Y-86670000D01*
X134712500Y-86232500D01*
X133025000Y-86232500D01*
X132275000Y-86232500D01*
X131900000Y-86232500D01*
X131900000Y-85607500D01*
X132275000Y-85607500D01*
X132275000Y-85421000D01*
X133025000Y-85421000D01*
X133025000Y-85607500D01*
X134712500Y-85607500D01*
X134899000Y-85421000D01*
X135079556Y-85421000D01*
X135219209Y-85560897D01*
X135770323Y-85789739D01*
X136367059Y-85790260D01*
X136918572Y-85562380D01*
X137340897Y-85140791D01*
X137569739Y-84589677D01*
X137570260Y-83992941D01*
X137342380Y-83441428D01*
X136920791Y-83019103D01*
X136369677Y-82790261D01*
X135772941Y-82789740D01*
X135221428Y-83017620D01*
X135079801Y-83159000D01*
X127130000Y-83159000D01*
X126697185Y-83245092D01*
X126330262Y-83490262D01*
X125401524Y-84419000D01*
X124791000Y-84419000D01*
X124791000Y-84151770D01*
X124913198Y-84073138D01*
X125084446Y-83822508D01*
X125144693Y-83525000D01*
X125144693Y-82275000D01*
X125092396Y-81997067D01*
X124928138Y-81741802D01*
X124677508Y-81570554D01*
X124380000Y-81510307D01*
X123457440Y-81510307D01*
X123363579Y-81283705D01*
X122871296Y-80791422D01*
X122228097Y-80525000D01*
X121942500Y-80525000D01*
X121505000Y-80962500D01*
X121505000Y-82587500D01*
X121880000Y-82587500D01*
X121880000Y-83212500D01*
X121505000Y-83212500D01*
X121505000Y-83525000D01*
X120755000Y-83525000D01*
X120755000Y-83212500D01*
X119067500Y-83212500D01*
X118630000Y-83650000D01*
X118630000Y-83873096D01*
X118896421Y-84516295D01*
X119388704Y-85008578D01*
X120031903Y-85275000D01*
X120317500Y-85275000D01*
X120379998Y-85212502D01*
X120379998Y-85275000D01*
X120555524Y-85275000D01*
X118611524Y-87219000D01*
X116390000Y-87219000D01*
X115957185Y-87305092D01*
X115590262Y-87550262D01*
X113466524Y-89674000D01*
X112945476Y-89674000D01*
X114029738Y-88589738D01*
X114274908Y-88222815D01*
X114361000Y-87790000D01*
X114361000Y-87771074D01*
X114513198Y-87673138D01*
X114684446Y-87422508D01*
X114744693Y-87125000D01*
X114744693Y-86584782D01*
X114776735Y-86552740D01*
X114776738Y-86552738D01*
X115021908Y-86185815D01*
X115108001Y-85753000D01*
X115108000Y-85752995D01*
X115108000Y-84483860D01*
X115354933Y-84437396D01*
X115610198Y-84273138D01*
X115781446Y-84022508D01*
X115841693Y-83725000D01*
X115841693Y-82125000D01*
X115804419Y-81926904D01*
X118630000Y-81926904D01*
X118630000Y-82150000D01*
X119067500Y-82587500D01*
X120755000Y-82587500D01*
X120755000Y-80962500D01*
X120317500Y-80525000D01*
X120031903Y-80525000D01*
X119388704Y-80791422D01*
X118896421Y-81283705D01*
X118630000Y-81926904D01*
X115804419Y-81926904D01*
X115789396Y-81847067D01*
X115625138Y-81591802D01*
X115374508Y-81420554D01*
X115077000Y-81360307D01*
X114229910Y-81360307D01*
X113977000Y-81310000D01*
X113724090Y-81360307D01*
X113654440Y-81360307D01*
X113560579Y-81133705D01*
X113068296Y-80641422D01*
X112425097Y-80375000D01*
X111964500Y-80375000D01*
X111527000Y-80812500D01*
X111527000Y-82525000D01*
X111747000Y-82525000D01*
X111747000Y-83325000D01*
X111527000Y-83325000D01*
X111527000Y-84140500D01*
X111105000Y-84562500D01*
X111105000Y-86187500D01*
X111480000Y-86187500D01*
X111480000Y-86812500D01*
X111105000Y-86812500D01*
X111105000Y-87125000D01*
X110355000Y-87125000D01*
X110355000Y-86812500D01*
X109282500Y-86812500D01*
X109232500Y-86762500D01*
X107545000Y-86762500D01*
X107545000Y-88387500D01*
X107647688Y-88490188D01*
X107610261Y-88580323D01*
X107609740Y-89177059D01*
X107643135Y-89257880D01*
X107612508Y-89236954D01*
X107315000Y-89176707D01*
X105416183Y-89176707D01*
X104614476Y-88375000D01*
X104932543Y-88056933D01*
X104936421Y-88066295D01*
X105428704Y-88558578D01*
X106071903Y-88825000D01*
X106357500Y-88825000D01*
X106795000Y-88387500D01*
X106795000Y-86762500D01*
X106420000Y-86762500D01*
X106420000Y-86137500D01*
X106795000Y-86137500D01*
X106795000Y-84512500D01*
X106357500Y-84075000D01*
X106315000Y-84075000D01*
X106315000Y-83325000D01*
X107415000Y-83325000D01*
X107415000Y-85037500D01*
X107545000Y-85167500D01*
X107545000Y-86137500D01*
X108617500Y-86137500D01*
X108667500Y-86187500D01*
X110355000Y-86187500D01*
X110355000Y-85109500D01*
X110427000Y-85037500D01*
X110427000Y-83325000D01*
X107415000Y-83325000D01*
X106315000Y-83325000D01*
X106095000Y-83325000D01*
X106095000Y-82525000D01*
X106315000Y-82525000D01*
X106315000Y-80812500D01*
X107415000Y-80812500D01*
X107415000Y-82525000D01*
X110427000Y-82525000D01*
X110427000Y-80812500D01*
X109989500Y-80375000D01*
X109528903Y-80375000D01*
X108921000Y-80626802D01*
X108313097Y-80375000D01*
X107852500Y-80375000D01*
X107415000Y-80812500D01*
X106315000Y-80812500D01*
X105877500Y-80375000D01*
X105416903Y-80375000D01*
X104773704Y-80641422D01*
X104281421Y-81133705D01*
X104187560Y-81360307D01*
X102765000Y-81360307D01*
X102487067Y-81412604D01*
X102231802Y-81576862D01*
X102060554Y-81827492D01*
X102000307Y-82125000D01*
X102000307Y-83725000D01*
X102005957Y-83755026D01*
X101999000Y-83790000D01*
X101999000Y-88490000D01*
X102085092Y-88922815D01*
X102330262Y-89289738D01*
X102772524Y-89732000D01*
X99187000Y-89732000D01*
X99105019Y-89748307D01*
X98437000Y-89748307D01*
X98159067Y-89800604D01*
X97903802Y-89964862D01*
X97732554Y-90215492D01*
X97672307Y-90513000D01*
X97672307Y-90935560D01*
X97445705Y-91029421D01*
X96953422Y-91521704D01*
X96687000Y-92164903D01*
X96687000Y-92250500D01*
X97124500Y-92688000D01*
X97851413Y-92688000D01*
X97888862Y-92746198D01*
X98060920Y-92863760D01*
X97903802Y-92964862D01*
X97853829Y-93038000D01*
X97124500Y-93038000D01*
X96687000Y-93475500D01*
X96687000Y-93561097D01*
X96953422Y-94204296D01*
X97445705Y-94696579D01*
X97672307Y-94790440D01*
X97672307Y-95213000D01*
X97701568Y-95368506D01*
X97672307Y-95513000D01*
X97672307Y-96213000D01*
X97724604Y-96490933D01*
X97888862Y-96746198D01*
X98139492Y-96917446D01*
X98412975Y-96972828D01*
X98159067Y-97020604D01*
X97903802Y-97184862D01*
X97732554Y-97435492D01*
X97672307Y-97733000D01*
X97672307Y-100133000D01*
X97724604Y-100410933D01*
X97888862Y-100666198D01*
X98139492Y-100837446D01*
X98437000Y-100897693D01*
X99937000Y-100897693D01*
X100214933Y-100845396D01*
X100470198Y-100681138D01*
X100641446Y-100430508D01*
X100701693Y-100133000D01*
X100701693Y-97733000D01*
X100649396Y-97455067D01*
X100563478Y-97321546D01*
X101802500Y-98560568D01*
X101802500Y-100203000D01*
X101874091Y-100562914D01*
X102077966Y-100868034D01*
X102346264Y-101136332D01*
X102327000Y-101132500D01*
X100401274Y-101132500D01*
X100234508Y-101018554D01*
X99937000Y-100958307D01*
X98437000Y-100958307D01*
X98159067Y-101010604D01*
X97903802Y-101174862D01*
X97732554Y-101425492D01*
X97672307Y-101723000D01*
X97672307Y-102423000D01*
X97724604Y-102700933D01*
X97729813Y-102709028D01*
X97672307Y-102993000D01*
X97672307Y-103693000D01*
X97724604Y-103970933D01*
X97729813Y-103979028D01*
X97672307Y-104263000D01*
X97672307Y-104963000D01*
X97724604Y-105240933D01*
X97729813Y-105249028D01*
X97672307Y-105533000D01*
X97672307Y-106233000D01*
X97724604Y-106510933D01*
X97729813Y-106519028D01*
X97672307Y-106803000D01*
X97672307Y-107503000D01*
X97724604Y-107780933D01*
X97729813Y-107789028D01*
X97672307Y-108073000D01*
X97672307Y-108773000D01*
X97724604Y-109050933D01*
X97729813Y-109059028D01*
X97672307Y-109343000D01*
X97672307Y-110043000D01*
X97724604Y-110320933D01*
X97888862Y-110576198D01*
X98139492Y-110747446D01*
X98437000Y-110807693D01*
X99937000Y-110807693D01*
X100214933Y-110755396D01*
X100470198Y-110591138D01*
X100641446Y-110340508D01*
X100701693Y-110043000D01*
X100701693Y-109343000D01*
X100649396Y-109065067D01*
X100644187Y-109056972D01*
X100701693Y-108773000D01*
X100701693Y-108073000D01*
X100649396Y-107795067D01*
X100644187Y-107786972D01*
X100701693Y-107503000D01*
X100701693Y-106803000D01*
X100649396Y-106525067D01*
X100644187Y-106516972D01*
X100701693Y-106233000D01*
X100701693Y-105553500D01*
X101356430Y-105553500D01*
X102691500Y-106888570D01*
X102691500Y-110109000D01*
X102763091Y-110468914D01*
X102966966Y-110774034D01*
X103982966Y-111790034D01*
X104288086Y-111993909D01*
X104648000Y-112065500D01*
X104837053Y-112065500D01*
X104971014Y-112265988D01*
X105494504Y-112615772D01*
X106112002Y-112738600D01*
X106485998Y-112738600D01*
X107103496Y-112615772D01*
X107626986Y-112265988D01*
X107760947Y-112065500D01*
X112513432Y-112065500D01*
X113105500Y-112657568D01*
X113105500Y-117348000D01*
X113177091Y-117707914D01*
X113380966Y-118013034D01*
X115793966Y-120426034D01*
X116099086Y-120629909D01*
X116459000Y-120701500D01*
X125984000Y-120701500D01*
X126343914Y-120629909D01*
X126649034Y-120426034D01*
X126830216Y-120244852D01*
X127297059Y-120245260D01*
X127848572Y-120017380D01*
X128270897Y-119595791D01*
X128499739Y-119044677D01*
X128500260Y-118447941D01*
X128363228Y-118116298D01*
X130291964Y-120045034D01*
X130597084Y-120248909D01*
X130956998Y-120320500D01*
X144145000Y-120320500D01*
X144504914Y-120248909D01*
X144810034Y-120045034D01*
X148693036Y-116162032D01*
X148750000Y-116076779D01*
X148750000Y-120750000D01*
X92250000Y-120750000D01*
X92250000Y-114238000D01*
X93572307Y-114238000D01*
X93572307Y-119088000D01*
X93624604Y-119365933D01*
X93788862Y-119621198D01*
X94039492Y-119792446D01*
X94337000Y-119852693D01*
X98837000Y-119852693D01*
X99114933Y-119800396D01*
X99370198Y-119636138D01*
X99541446Y-119385508D01*
X99601693Y-119088000D01*
X99601693Y-114238000D01*
X99549396Y-113960067D01*
X99385138Y-113704802D01*
X99337124Y-113671995D01*
X99337234Y-113545647D01*
X99132142Y-113049285D01*
X98752712Y-112669193D01*
X98256710Y-112463235D01*
X97719647Y-112462766D01*
X97223285Y-112667858D01*
X96843193Y-113047288D01*
X96666294Y-113473307D01*
X94337000Y-113473307D01*
X94059067Y-113525604D01*
X93803802Y-113689862D01*
X93632554Y-113940492D01*
X93572307Y-114238000D01*
X92250000Y-114238000D01*
X92250000Y-81538000D01*
X93572307Y-81538000D01*
X93572307Y-86388000D01*
X93624604Y-86665933D01*
X93788862Y-86921198D01*
X94039492Y-87092446D01*
X94337000Y-87152693D01*
X96666656Y-87152693D01*
X96841858Y-87576715D01*
X97221288Y-87956807D01*
X97717290Y-88162765D01*
X98254353Y-88163234D01*
X98750715Y-87958142D01*
X99130807Y-87578712D01*
X99336765Y-87082710D01*
X99336874Y-86957581D01*
X99370198Y-86936138D01*
X99541446Y-86685508D01*
X99601693Y-86388000D01*
X99601693Y-81538000D01*
X99549396Y-81260067D01*
X99385138Y-81004802D01*
X99134508Y-80833554D01*
X98837000Y-80773307D01*
X94337000Y-80773307D01*
X94059067Y-80825604D01*
X93803802Y-80989862D01*
X93632554Y-81240492D01*
X93572307Y-81538000D01*
X92250000Y-81538000D01*
X92250000Y-79250000D01*
X148750000Y-79250000D01*
X148750000Y-95632221D01*
X148750000Y-95632221D01*
G37*
X148750000Y-95632221D02*
X148693036Y-95546968D01*
X147350034Y-94203966D01*
X147044914Y-94000091D01*
X146685000Y-93928500D01*
X143955947Y-93928500D01*
X143894446Y-93836457D01*
X144043198Y-93740738D01*
X144214446Y-93490108D01*
X144274693Y-93192600D01*
X144274693Y-91465400D01*
X144222396Y-91187467D01*
X144058138Y-90932202D01*
X143807508Y-90760954D01*
X143510000Y-90700707D01*
X142830775Y-90700707D01*
X141762034Y-89631966D01*
X141456914Y-89428091D01*
X141097000Y-89356500D01*
X133418228Y-89356500D01*
X132169694Y-88107966D01*
X132082677Y-88049823D01*
X132275000Y-87857500D01*
X132275000Y-86232500D01*
X133025000Y-86232500D01*
X133025000Y-87857500D01*
X133462500Y-88295000D01*
X133748097Y-88295000D01*
X134391296Y-88028578D01*
X134883579Y-87536295D01*
X135150000Y-86893096D01*
X135150000Y-86670000D01*
X134712500Y-86232500D01*
X133025000Y-86232500D01*
X132275000Y-86232500D01*
X131900000Y-86232500D01*
X131900000Y-85607500D01*
X132275000Y-85607500D01*
X132275000Y-85421000D01*
X133025000Y-85421000D01*
X133025000Y-85607500D01*
X134712500Y-85607500D01*
X134899000Y-85421000D01*
X135079556Y-85421000D01*
X135219209Y-85560897D01*
X135770323Y-85789739D01*
X136367059Y-85790260D01*
X136918572Y-85562380D01*
X137340897Y-85140791D01*
X137569739Y-84589677D01*
X137570260Y-83992941D01*
X137342380Y-83441428D01*
X136920791Y-83019103D01*
X136369677Y-82790261D01*
X135772941Y-82789740D01*
X135221428Y-83017620D01*
X135079801Y-83159000D01*
X127130000Y-83159000D01*
X126697185Y-83245092D01*
X126330262Y-83490262D01*
X125401524Y-84419000D01*
X124791000Y-84419000D01*
X124791000Y-84151770D01*
X124913198Y-84073138D01*
X125084446Y-83822508D01*
X125144693Y-83525000D01*
X125144693Y-82275000D01*
X125092396Y-81997067D01*
X124928138Y-81741802D01*
X124677508Y-81570554D01*
X124380000Y-81510307D01*
X123457440Y-81510307D01*
X123363579Y-81283705D01*
X122871296Y-80791422D01*
X122228097Y-80525000D01*
X121942500Y-80525000D01*
X121505000Y-80962500D01*
X121505000Y-82587500D01*
X121880000Y-82587500D01*
X121880000Y-83212500D01*
X121505000Y-83212500D01*
X121505000Y-83525000D01*
X120755000Y-83525000D01*
X120755000Y-83212500D01*
X119067500Y-83212500D01*
X118630000Y-83650000D01*
X118630000Y-83873096D01*
X118896421Y-84516295D01*
X119388704Y-85008578D01*
X120031903Y-85275000D01*
X120317500Y-85275000D01*
X120379998Y-85212502D01*
X120379998Y-85275000D01*
X120555524Y-85275000D01*
X118611524Y-87219000D01*
X116390000Y-87219000D01*
X115957185Y-87305092D01*
X115590262Y-87550262D01*
X113466524Y-89674000D01*
X112945476Y-89674000D01*
X114029738Y-88589738D01*
X114274908Y-88222815D01*
X114361000Y-87790000D01*
X114361000Y-87771074D01*
X114513198Y-87673138D01*
X114684446Y-87422508D01*
X114744693Y-87125000D01*
X114744693Y-86584782D01*
X114776735Y-86552740D01*
X114776738Y-86552738D01*
X115021908Y-86185815D01*
X115108001Y-85753000D01*
X115108000Y-85752995D01*
X115108000Y-84483860D01*
X115354933Y-84437396D01*
X115610198Y-84273138D01*
X115781446Y-84022508D01*
X115841693Y-83725000D01*
X115841693Y-82125000D01*
X115804419Y-81926904D01*
X118630000Y-81926904D01*
X118630000Y-82150000D01*
X119067500Y-82587500D01*
X120755000Y-82587500D01*
X120755000Y-80962500D01*
X120317500Y-80525000D01*
X120031903Y-80525000D01*
X119388704Y-80791422D01*
X118896421Y-81283705D01*
X118630000Y-81926904D01*
X115804419Y-81926904D01*
X115789396Y-81847067D01*
X115625138Y-81591802D01*
X115374508Y-81420554D01*
X115077000Y-81360307D01*
X114229910Y-81360307D01*
X113977000Y-81310000D01*
X113724090Y-81360307D01*
X113654440Y-81360307D01*
X113560579Y-81133705D01*
X113068296Y-80641422D01*
X112425097Y-80375000D01*
X111964500Y-80375000D01*
X111527000Y-80812500D01*
X111527000Y-82525000D01*
X111747000Y-82525000D01*
X111747000Y-83325000D01*
X111527000Y-83325000D01*
X111527000Y-84140500D01*
X111105000Y-84562500D01*
X111105000Y-86187500D01*
X111480000Y-86187500D01*
X111480000Y-86812500D01*
X111105000Y-86812500D01*
X111105000Y-87125000D01*
X110355000Y-87125000D01*
X110355000Y-86812500D01*
X109282500Y-86812500D01*
X109232500Y-86762500D01*
X107545000Y-86762500D01*
X107545000Y-88387500D01*
X107647688Y-88490188D01*
X107610261Y-88580323D01*
X107609740Y-89177059D01*
X107643135Y-89257880D01*
X107612508Y-89236954D01*
X107315000Y-89176707D01*
X105416183Y-89176707D01*
X104614476Y-88375000D01*
X104932543Y-88056933D01*
X104936421Y-88066295D01*
X105428704Y-88558578D01*
X106071903Y-88825000D01*
X106357500Y-88825000D01*
X106795000Y-88387500D01*
X106795000Y-86762500D01*
X106420000Y-86762500D01*
X106420000Y-86137500D01*
X106795000Y-86137500D01*
X106795000Y-84512500D01*
X106357500Y-84075000D01*
X106315000Y-84075000D01*
X106315000Y-83325000D01*
X107415000Y-83325000D01*
X107415000Y-85037500D01*
X107545000Y-85167500D01*
X107545000Y-86137500D01*
X108617500Y-86137500D01*
X108667500Y-86187500D01*
X110355000Y-86187500D01*
X110355000Y-85109500D01*
X110427000Y-85037500D01*
X110427000Y-83325000D01*
X107415000Y-83325000D01*
X106315000Y-83325000D01*
X106095000Y-83325000D01*
X106095000Y-82525000D01*
X106315000Y-82525000D01*
X106315000Y-80812500D01*
X107415000Y-80812500D01*
X107415000Y-82525000D01*
X110427000Y-82525000D01*
X110427000Y-80812500D01*
X109989500Y-80375000D01*
X109528903Y-80375000D01*
X108921000Y-80626802D01*
X108313097Y-80375000D01*
X107852500Y-80375000D01*
X107415000Y-80812500D01*
X106315000Y-80812500D01*
X105877500Y-80375000D01*
X105416903Y-80375000D01*
X104773704Y-80641422D01*
X104281421Y-81133705D01*
X104187560Y-81360307D01*
X102765000Y-81360307D01*
X102487067Y-81412604D01*
X102231802Y-81576862D01*
X102060554Y-81827492D01*
X102000307Y-82125000D01*
X102000307Y-83725000D01*
X102005957Y-83755026D01*
X101999000Y-83790000D01*
X101999000Y-88490000D01*
X102085092Y-88922815D01*
X102330262Y-89289738D01*
X102772524Y-89732000D01*
X99187000Y-89732000D01*
X99105019Y-89748307D01*
X98437000Y-89748307D01*
X98159067Y-89800604D01*
X97903802Y-89964862D01*
X97732554Y-90215492D01*
X97672307Y-90513000D01*
X97672307Y-90935560D01*
X97445705Y-91029421D01*
X96953422Y-91521704D01*
X96687000Y-92164903D01*
X96687000Y-92250500D01*
X97124500Y-92688000D01*
X97851413Y-92688000D01*
X97888862Y-92746198D01*
X98060920Y-92863760D01*
X97903802Y-92964862D01*
X97853829Y-93038000D01*
X97124500Y-93038000D01*
X96687000Y-93475500D01*
X96687000Y-93561097D01*
X96953422Y-94204296D01*
X97445705Y-94696579D01*
X97672307Y-94790440D01*
X97672307Y-95213000D01*
X97701568Y-95368506D01*
X97672307Y-95513000D01*
X97672307Y-96213000D01*
X97724604Y-96490933D01*
X97888862Y-96746198D01*
X98139492Y-96917446D01*
X98412975Y-96972828D01*
X98159067Y-97020604D01*
X97903802Y-97184862D01*
X97732554Y-97435492D01*
X97672307Y-97733000D01*
X97672307Y-100133000D01*
X97724604Y-100410933D01*
X97888862Y-100666198D01*
X98139492Y-100837446D01*
X98437000Y-100897693D01*
X99937000Y-100897693D01*
X100214933Y-100845396D01*
X100470198Y-100681138D01*
X100641446Y-100430508D01*
X100701693Y-100133000D01*
X100701693Y-97733000D01*
X100649396Y-97455067D01*
X100563478Y-97321546D01*
X101802500Y-98560568D01*
X101802500Y-100203000D01*
X101874091Y-100562914D01*
X102077966Y-100868034D01*
X102346264Y-101136332D01*
X102327000Y-101132500D01*
X100401274Y-101132500D01*
X100234508Y-101018554D01*
X99937000Y-100958307D01*
X98437000Y-100958307D01*
X98159067Y-101010604D01*
X97903802Y-101174862D01*
X97732554Y-101425492D01*
X97672307Y-101723000D01*
X97672307Y-102423000D01*
X97724604Y-102700933D01*
X97729813Y-102709028D01*
X97672307Y-102993000D01*
X97672307Y-103693000D01*
X97724604Y-103970933D01*
X97729813Y-103979028D01*
X97672307Y-104263000D01*
X97672307Y-104963000D01*
X97724604Y-105240933D01*
X97729813Y-105249028D01*
X97672307Y-105533000D01*
X97672307Y-106233000D01*
X97724604Y-106510933D01*
X97729813Y-106519028D01*
X97672307Y-106803000D01*
X97672307Y-107503000D01*
X97724604Y-107780933D01*
X97729813Y-107789028D01*
X97672307Y-108073000D01*
X97672307Y-108773000D01*
X97724604Y-109050933D01*
X97729813Y-109059028D01*
X97672307Y-109343000D01*
X97672307Y-110043000D01*
X97724604Y-110320933D01*
X97888862Y-110576198D01*
X98139492Y-110747446D01*
X98437000Y-110807693D01*
X99937000Y-110807693D01*
X100214933Y-110755396D01*
X100470198Y-110591138D01*
X100641446Y-110340508D01*
X100701693Y-110043000D01*
X100701693Y-109343000D01*
X100649396Y-109065067D01*
X100644187Y-109056972D01*
X100701693Y-108773000D01*
X100701693Y-108073000D01*
X100649396Y-107795067D01*
X100644187Y-107786972D01*
X100701693Y-107503000D01*
X100701693Y-106803000D01*
X100649396Y-106525067D01*
X100644187Y-106516972D01*
X100701693Y-106233000D01*
X100701693Y-105553500D01*
X101356430Y-105553500D01*
X102691500Y-106888570D01*
X102691500Y-110109000D01*
X102763091Y-110468914D01*
X102966966Y-110774034D01*
X103982966Y-111790034D01*
X104288086Y-111993909D01*
X104648000Y-112065500D01*
X104837053Y-112065500D01*
X104971014Y-112265988D01*
X105494504Y-112615772D01*
X106112002Y-112738600D01*
X106485998Y-112738600D01*
X107103496Y-112615772D01*
X107626986Y-112265988D01*
X107760947Y-112065500D01*
X112513432Y-112065500D01*
X113105500Y-112657568D01*
X113105500Y-117348000D01*
X113177091Y-117707914D01*
X113380966Y-118013034D01*
X115793966Y-120426034D01*
X116099086Y-120629909D01*
X116459000Y-120701500D01*
X125984000Y-120701500D01*
X126343914Y-120629909D01*
X126649034Y-120426034D01*
X126830216Y-120244852D01*
X127297059Y-120245260D01*
X127848572Y-120017380D01*
X128270897Y-119595791D01*
X128499739Y-119044677D01*
X128500260Y-118447941D01*
X128363228Y-118116298D01*
X130291964Y-120045034D01*
X130597084Y-120248909D01*
X130956998Y-120320500D01*
X144145000Y-120320500D01*
X144504914Y-120248909D01*
X144810034Y-120045034D01*
X148693036Y-116162032D01*
X148750000Y-116076779D01*
X148750000Y-120750000D01*
X92250000Y-120750000D01*
X92250000Y-114238000D01*
X93572307Y-114238000D01*
X93572307Y-119088000D01*
X93624604Y-119365933D01*
X93788862Y-119621198D01*
X94039492Y-119792446D01*
X94337000Y-119852693D01*
X98837000Y-119852693D01*
X99114933Y-119800396D01*
X99370198Y-119636138D01*
X99541446Y-119385508D01*
X99601693Y-119088000D01*
X99601693Y-114238000D01*
X99549396Y-113960067D01*
X99385138Y-113704802D01*
X99337124Y-113671995D01*
X99337234Y-113545647D01*
X99132142Y-113049285D01*
X98752712Y-112669193D01*
X98256710Y-112463235D01*
X97719647Y-112462766D01*
X97223285Y-112667858D01*
X96843193Y-113047288D01*
X96666294Y-113473307D01*
X94337000Y-113473307D01*
X94059067Y-113525604D01*
X93803802Y-113689862D01*
X93632554Y-113940492D01*
X93572307Y-114238000D01*
X92250000Y-114238000D01*
X92250000Y-81538000D01*
X93572307Y-81538000D01*
X93572307Y-86388000D01*
X93624604Y-86665933D01*
X93788862Y-86921198D01*
X94039492Y-87092446D01*
X94337000Y-87152693D01*
X96666656Y-87152693D01*
X96841858Y-87576715D01*
X97221288Y-87956807D01*
X97717290Y-88162765D01*
X98254353Y-88163234D01*
X98750715Y-87958142D01*
X99130807Y-87578712D01*
X99336765Y-87082710D01*
X99336874Y-86957581D01*
X99370198Y-86936138D01*
X99541446Y-86685508D01*
X99601693Y-86388000D01*
X99601693Y-81538000D01*
X99549396Y-81260067D01*
X99385138Y-81004802D01*
X99134508Y-80833554D01*
X98837000Y-80773307D01*
X94337000Y-80773307D01*
X94059067Y-80825604D01*
X93803802Y-80989862D01*
X93632554Y-81240492D01*
X93572307Y-81538000D01*
X92250000Y-81538000D01*
X92250000Y-79250000D01*
X148750000Y-79250000D01*
X148750000Y-95632221D01*
G36*
X122397966Y-88107966D02*
X120133432Y-90372500D01*
X117856000Y-90372500D01*
X117496086Y-90444091D01*
X117190966Y-90647966D01*
X116682966Y-91155966D01*
X116479091Y-91461086D01*
X116407500Y-91821000D01*
X116407500Y-94742000D01*
X116479091Y-95101914D01*
X116682966Y-95407034D01*
X117615442Y-96339510D01*
X117586607Y-96481900D01*
X117586607Y-98082100D01*
X117638904Y-98360033D01*
X117803162Y-98615298D01*
X118053792Y-98786546D01*
X118351300Y-98846793D01*
X118783100Y-98846793D01*
X118901596Y-98824496D01*
X118915479Y-98827308D01*
X118747600Y-99232603D01*
X118747600Y-100793500D01*
X119185100Y-101231000D01*
X122694000Y-101231000D01*
X122694000Y-101211000D01*
X124194000Y-101211000D01*
X124194000Y-101231000D01*
X127702900Y-101231000D01*
X128140400Y-100793500D01*
X128140400Y-99232603D01*
X127973051Y-98828588D01*
X127994796Y-98824496D01*
X128104900Y-98846793D01*
X128536700Y-98846793D01*
X128814633Y-98794496D01*
X129069898Y-98630238D01*
X129241146Y-98379608D01*
X129301393Y-98082100D01*
X129301393Y-96481900D01*
X129261300Y-96268825D01*
X129261300Y-95969768D01*
X129294568Y-95936500D01*
X129488500Y-95936500D01*
X129488500Y-108219432D01*
X129261300Y-107992232D01*
X129261300Y-107678085D01*
X129301393Y-107480100D01*
X129301393Y-105879900D01*
X129249096Y-105601967D01*
X129084838Y-105346702D01*
X128834208Y-105175454D01*
X128536700Y-105115207D01*
X128104900Y-105115207D01*
X127986404Y-105137504D01*
X127972521Y-105134692D01*
X128140400Y-104729397D01*
X128140400Y-103168500D01*
X127702900Y-102731000D01*
X124194000Y-102731000D01*
X124194000Y-102751000D01*
X122694000Y-102751000D01*
X122694000Y-102731000D01*
X119185100Y-102731000D01*
X118747600Y-103168500D01*
X118747600Y-104729397D01*
X118914949Y-105133412D01*
X118893204Y-105137504D01*
X118783100Y-105115207D01*
X118351300Y-105115207D01*
X118073367Y-105167504D01*
X117818102Y-105331762D01*
X117646854Y-105582392D01*
X117586607Y-105879900D01*
X117586607Y-106829402D01*
X117309791Y-106552103D01*
X116758677Y-106323261D01*
X116288919Y-106322851D01*
X115841034Y-105874966D01*
X115535914Y-105671091D01*
X115176000Y-105599500D01*
X113159568Y-105599500D01*
X112780500Y-105220432D01*
X112780500Y-102060000D01*
X112708909Y-101700086D01*
X112505034Y-101394966D01*
X108870034Y-97759966D01*
X108564914Y-97556091D01*
X108408439Y-97524966D01*
X108746729Y-97113109D01*
X108929800Y-96714722D01*
X108584229Y-96316800D01*
X106807000Y-96316800D01*
X106807000Y-96655000D01*
X105791000Y-96655000D01*
X105791000Y-96316800D01*
X105529000Y-96316800D01*
X105529000Y-95453200D01*
X105791000Y-95453200D01*
X105791000Y-95115000D01*
X106807000Y-95115000D01*
X106807000Y-95453200D01*
X108584229Y-95453200D01*
X108929800Y-95055278D01*
X108833060Y-94844759D01*
X109407059Y-94845260D01*
X109958572Y-94617380D01*
X110227421Y-94349000D01*
X114165000Y-94349000D01*
X114549214Y-94272575D01*
X114874935Y-94054935D01*
X115819935Y-93109935D01*
X116037575Y-92784214D01*
X116114000Y-92400000D01*
X116114000Y-91425870D01*
X117235870Y-90304000D01*
X119530000Y-90304000D01*
X119914214Y-90227575D01*
X120239935Y-90009935D01*
X122325870Y-87924000D01*
X122673290Y-87924000D01*
X122397966Y-88107966D01*
X122397966Y-88107966D01*
G37*
X122397966Y-88107966D02*
X120133432Y-90372500D01*
X117856000Y-90372500D01*
X117496086Y-90444091D01*
X117190966Y-90647966D01*
X116682966Y-91155966D01*
X116479091Y-91461086D01*
X116407500Y-91821000D01*
X116407500Y-94742000D01*
X116479091Y-95101914D01*
X116682966Y-95407034D01*
X117615442Y-96339510D01*
X117586607Y-96481900D01*
X117586607Y-98082100D01*
X117638904Y-98360033D01*
X117803162Y-98615298D01*
X118053792Y-98786546D01*
X118351300Y-98846793D01*
X118783100Y-98846793D01*
X118901596Y-98824496D01*
X118915479Y-98827308D01*
X118747600Y-99232603D01*
X118747600Y-100793500D01*
X119185100Y-101231000D01*
X122694000Y-101231000D01*
X122694000Y-101211000D01*
X124194000Y-101211000D01*
X124194000Y-101231000D01*
X127702900Y-101231000D01*
X128140400Y-100793500D01*
X128140400Y-99232603D01*
X127973051Y-98828588D01*
X127994796Y-98824496D01*
X128104900Y-98846793D01*
X128536700Y-98846793D01*
X128814633Y-98794496D01*
X129069898Y-98630238D01*
X129241146Y-98379608D01*
X129301393Y-98082100D01*
X129301393Y-96481900D01*
X129261300Y-96268825D01*
X129261300Y-95969768D01*
X129294568Y-95936500D01*
X129488500Y-95936500D01*
X129488500Y-108219432D01*
X129261300Y-107992232D01*
X129261300Y-107678085D01*
X129301393Y-107480100D01*
X129301393Y-105879900D01*
X129249096Y-105601967D01*
X129084838Y-105346702D01*
X128834208Y-105175454D01*
X128536700Y-105115207D01*
X128104900Y-105115207D01*
X127986404Y-105137504D01*
X127972521Y-105134692D01*
X128140400Y-104729397D01*
X128140400Y-103168500D01*
X127702900Y-102731000D01*
X124194000Y-102731000D01*
X124194000Y-102751000D01*
X122694000Y-102751000D01*
X122694000Y-102731000D01*
X119185100Y-102731000D01*
X118747600Y-103168500D01*
X118747600Y-104729397D01*
X118914949Y-105133412D01*
X118893204Y-105137504D01*
X118783100Y-105115207D01*
X118351300Y-105115207D01*
X118073367Y-105167504D01*
X117818102Y-105331762D01*
X117646854Y-105582392D01*
X117586607Y-105879900D01*
X117586607Y-106829402D01*
X117309791Y-106552103D01*
X116758677Y-106323261D01*
X116288919Y-106322851D01*
X115841034Y-105874966D01*
X115535914Y-105671091D01*
X115176000Y-105599500D01*
X113159568Y-105599500D01*
X112780500Y-105220432D01*
X112780500Y-102060000D01*
X112708909Y-101700086D01*
X112505034Y-101394966D01*
X108870034Y-97759966D01*
X108564914Y-97556091D01*
X108408439Y-97524966D01*
X108746729Y-97113109D01*
X108929800Y-96714722D01*
X108584229Y-96316800D01*
X106807000Y-96316800D01*
X106807000Y-96655000D01*
X105791000Y-96655000D01*
X105791000Y-96316800D01*
X105529000Y-96316800D01*
X105529000Y-95453200D01*
X105791000Y-95453200D01*
X105791000Y-95115000D01*
X106807000Y-95115000D01*
X106807000Y-95453200D01*
X108584229Y-95453200D01*
X108929800Y-95055278D01*
X108833060Y-94844759D01*
X109407059Y-94845260D01*
X109958572Y-94617380D01*
X110227421Y-94349000D01*
X114165000Y-94349000D01*
X114549214Y-94272575D01*
X114874935Y-94054935D01*
X115819935Y-93109935D01*
X116037575Y-92784214D01*
X116114000Y-92400000D01*
X116114000Y-91425870D01*
X117235870Y-90304000D01*
X119530000Y-90304000D01*
X119914214Y-90227575D01*
X120239935Y-90009935D01*
X122325870Y-87924000D01*
X122673290Y-87924000D01*
X122397966Y-88107966D01*
G36*
X136307200Y-94039278D02*
X136652771Y-94437200D01*
X138430000Y-94437200D01*
X138430000Y-94099000D01*
X139446000Y-94099000D01*
X139446000Y-94437200D01*
X139708000Y-94437200D01*
X139708000Y-95300800D01*
X139446000Y-95300800D01*
X139446000Y-95639000D01*
X138430000Y-95639000D01*
X138430000Y-95300800D01*
X136652771Y-95300800D01*
X136307200Y-95698722D01*
X136490271Y-96097109D01*
X136795323Y-96468500D01*
X136279568Y-96468500D01*
X135941500Y-96130432D01*
X135941500Y-93828935D01*
X136314059Y-93829260D01*
X136424722Y-93783535D01*
X136307200Y-94039278D01*
X136307200Y-94039278D01*
G37*
X136307200Y-94039278D02*
X136652771Y-94437200D01*
X138430000Y-94437200D01*
X138430000Y-94099000D01*
X139446000Y-94099000D01*
X139446000Y-94437200D01*
X139708000Y-94437200D01*
X139708000Y-95300800D01*
X139446000Y-95300800D01*
X139446000Y-95639000D01*
X138430000Y-95639000D01*
X138430000Y-95300800D01*
X136652771Y-95300800D01*
X136307200Y-95698722D01*
X136490271Y-96097109D01*
X136795323Y-96468500D01*
X136279568Y-96468500D01*
X135941500Y-96130432D01*
X135941500Y-93828935D01*
X136314059Y-93829260D01*
X136424722Y-93783535D01*
X136307200Y-94039278D01*
G36*
X128851862Y-87078198D02*
X129102492Y-87249446D01*
X129400000Y-87309693D01*
X130322560Y-87309693D01*
X130416421Y-87536295D01*
X130712626Y-87832500D01*
X126366775Y-87832500D01*
X126669935Y-87629935D01*
X126686768Y-87613102D01*
X127160323Y-87809739D01*
X127757059Y-87810260D01*
X128308572Y-87582380D01*
X128730897Y-87160791D01*
X128799185Y-86996335D01*
X128851862Y-87078198D01*
X128851862Y-87078198D01*
G37*
X128851862Y-87078198D02*
X129102492Y-87249446D01*
X129400000Y-87309693D01*
X130322560Y-87309693D01*
X130416421Y-87536295D01*
X130712626Y-87832500D01*
X126366775Y-87832500D01*
X126669935Y-87629935D01*
X126686768Y-87613102D01*
X127160323Y-87809739D01*
X127757059Y-87810260D01*
X128308572Y-87582380D01*
X128730897Y-87160791D01*
X128799185Y-86996335D01*
X128851862Y-87078198D01*
M02*
