G04 #@! TF.FileFunction,Copper,L2,Bot,Signal*
%FSLAX46Y46*%
G04 Gerber Fmt 4.6, Leading zero omitted, Abs format (unit mm)*
G04 Created by KiCad (PCBNEW 4.0.6-e0-6349~53~ubuntu14.04.1) date Wed Nov  8 09:44:36 2017*
%MOMM*%
%LPD*%
G01*
G04 APERTURE LIST*
%ADD10C,0.100000*%
%ADD11R,2.032000X1.727200*%
%ADD12O,2.032000X1.727200*%
%ADD13C,1.200000*%
%ADD14R,4.500000X4.850000*%
%ADD15C,1.500000*%
%ADD16C,0.762000*%
%ADD17C,0.381000*%
G04 APERTURE END LIST*
D10*
D11*
X138938000Y-112649000D03*
D12*
X138938000Y-110109000D03*
X138938000Y-107569000D03*
X138938000Y-105029000D03*
X138938000Y-102489000D03*
X138938000Y-99949000D03*
X138938000Y-97409000D03*
X138938000Y-94869000D03*
X138938000Y-92329000D03*
D11*
X142494000Y-92329000D03*
D12*
X142494000Y-94869000D03*
X142494000Y-97409000D03*
X142494000Y-99949000D03*
X142494000Y-102489000D03*
X142494000Y-105029000D03*
X142494000Y-107569000D03*
X142494000Y-110109000D03*
X142494000Y-112649000D03*
D11*
X106299000Y-90805000D03*
D12*
X106299000Y-93345000D03*
X106299000Y-95885000D03*
X106299000Y-98425000D03*
X106299000Y-100965000D03*
X106299000Y-103505000D03*
X106299000Y-106045000D03*
X106299000Y-108585000D03*
X106299000Y-111125000D03*
D13*
X97987000Y-113813000D03*
X97987000Y-86813000D03*
D14*
X95387000Y-116663000D03*
X95387000Y-83963000D03*
D15*
X136440000Y-87780000D03*
X136400000Y-94870000D03*
X136070000Y-84290000D03*
X123660000Y-85550000D03*
X123530000Y-95140000D03*
X136017000Y-92329000D03*
X109110000Y-88880000D03*
X109110000Y-93345000D03*
X127460000Y-86310000D03*
X127450000Y-93540000D03*
X127000000Y-118745000D03*
X127000000Y-110109000D03*
X123698000Y-109093000D03*
X123698000Y-118491000D03*
X109220000Y-103378000D03*
X123571000Y-92964000D03*
X116459000Y-107823000D03*
X118999000Y-110744000D03*
X122936000Y-110998000D03*
X122809000Y-115951000D03*
X119126000Y-93218000D03*
X109093000Y-106045000D03*
D16*
X136440000Y-87780000D02*
X136330000Y-87780000D01*
X134650000Y-93120000D02*
X136400000Y-94870000D01*
X134650000Y-89460000D02*
X134650000Y-93120000D01*
X136330000Y-87780000D02*
X134650000Y-89460000D01*
X136440000Y-87780000D02*
X136510000Y-87780000D01*
X136400000Y-94870000D02*
X136440000Y-94830000D01*
X136070000Y-84290000D02*
X136370000Y-84290000D01*
X136017000Y-90153000D02*
X136017000Y-92329000D01*
X137860000Y-88310000D02*
X136017000Y-90153000D01*
X137860000Y-85780000D02*
X137860000Y-88310000D01*
X136370000Y-84290000D02*
X137860000Y-85780000D01*
X136090000Y-84270000D02*
X136100000Y-84270000D01*
X136070000Y-84290000D02*
X136090000Y-84270000D01*
X123530000Y-95140000D02*
X123790000Y-95140000D01*
X123790000Y-95140000D02*
X125060000Y-93870000D01*
X125060000Y-93870000D02*
X125060000Y-92340000D01*
X125060000Y-92340000D02*
X123660000Y-90940000D01*
X123660000Y-90940000D02*
X123660000Y-85550000D01*
D17*
X123500000Y-95110000D02*
X123500000Y-95100000D01*
X123530000Y-95140000D02*
X123500000Y-95110000D01*
D16*
X136017000Y-92329000D02*
X136017000Y-92202000D01*
X109110000Y-88880000D02*
X109110000Y-93345000D01*
X109130000Y-93290000D02*
X109130000Y-93325000D01*
X109130000Y-93325000D02*
X109110000Y-93345000D01*
D17*
X127450000Y-86350000D02*
X127460000Y-86340000D01*
X127460000Y-86340000D02*
X127460000Y-86310000D01*
X127450000Y-93540000D02*
X127450000Y-86350000D01*
X127000000Y-118745000D02*
X127000000Y-110109000D01*
X123698000Y-109855000D02*
X123698000Y-109093000D01*
X124841000Y-110998000D02*
X123698000Y-109855000D01*
X124841000Y-117348000D02*
X124841000Y-110998000D01*
X123698000Y-118491000D02*
X124841000Y-117348000D01*
X122555000Y-91948000D02*
X123571000Y-92964000D01*
X115062000Y-91948000D02*
X122555000Y-91948000D01*
X112268000Y-94742000D02*
X115062000Y-91948000D01*
X112268000Y-102362000D02*
X112268000Y-94742000D01*
X111252000Y-103378000D02*
X112268000Y-102362000D01*
X109220000Y-103378000D02*
X111252000Y-103378000D01*
X123571000Y-92964000D02*
X123698000Y-92837000D01*
X118999000Y-110744000D02*
X118999000Y-110363000D01*
X118999000Y-110363000D02*
X116459000Y-107823000D01*
X122936000Y-110998000D02*
X122936000Y-115824000D01*
X122936000Y-115824000D02*
X122809000Y-115951000D01*
X114935000Y-93218000D02*
X119126000Y-93218000D01*
X113411000Y-94742000D02*
X114935000Y-93218000D01*
X113411000Y-104775000D02*
X113411000Y-94742000D01*
X112141000Y-106045000D02*
X113411000Y-104775000D01*
X109093000Y-106045000D02*
X112141000Y-106045000D01*
M02*
