G04 #@! TF.FileFunction,Copper,L2,Bot,Signal*
%FSLAX46Y46*%
G04 Gerber Fmt 4.6, Leading zero omitted, Abs format (unit mm)*
G04 Created by KiCad (PCBNEW 4.0.6-e0-6349~53~ubuntu14.04.1) date Wed Dec 13 10:11:41 2017*
%MOMM*%
%LPD*%
G01*
G04 APERTURE LIST*
%ADD10C,0.100000*%
%ADD11R,2.032000X1.727200*%
%ADD12O,2.032000X1.727200*%
%ADD13C,1.200000*%
%ADD14R,4.500000X4.850000*%
%ADD15C,1.500000*%
%ADD16C,0.762000*%
%ADD17C,0.381000*%
%ADD18C,0.500000*%
G04 APERTURE END LIST*
D10*
D11*
X138938000Y-112649000D03*
D12*
X138938000Y-110109000D03*
X138938000Y-107569000D03*
X138938000Y-105029000D03*
X138938000Y-102489000D03*
X138938000Y-99949000D03*
X138938000Y-97409000D03*
X138938000Y-94869000D03*
X138938000Y-92329000D03*
D11*
X142494000Y-92329000D03*
D12*
X142494000Y-94869000D03*
X142494000Y-97409000D03*
X142494000Y-99949000D03*
X142494000Y-102489000D03*
X142494000Y-105029000D03*
X142494000Y-107569000D03*
X142494000Y-110109000D03*
X142494000Y-112649000D03*
D11*
X106299000Y-90805000D03*
D12*
X106299000Y-93345000D03*
X106299000Y-95885000D03*
X106299000Y-98425000D03*
X106299000Y-100965000D03*
X106299000Y-103505000D03*
X106299000Y-106045000D03*
X106299000Y-108585000D03*
X106299000Y-111125000D03*
D13*
X97987000Y-113813000D03*
X97987000Y-86813000D03*
D14*
X95387000Y-116663000D03*
X95387000Y-83963000D03*
D15*
X136440000Y-87780000D03*
X136400000Y-94870000D03*
X136070000Y-84290000D03*
X123660000Y-85550000D03*
X123530000Y-95140000D03*
X136017000Y-92329000D03*
X109110000Y-88880000D03*
X109110000Y-93345000D03*
X127460000Y-86310000D03*
X127450000Y-93540000D03*
X127000000Y-118745000D03*
X127000000Y-110109000D03*
X123698000Y-109093000D03*
X123698000Y-118491000D03*
X109220000Y-103378000D03*
X123571000Y-92964000D03*
X116459000Y-107823000D03*
X118999000Y-110744000D03*
X122936000Y-110998000D03*
X122809000Y-115951000D03*
X119126000Y-93218000D03*
X109093000Y-106045000D03*
D16*
X136440000Y-87780000D02*
X136330000Y-87780000D01*
X134650000Y-93120000D02*
X136400000Y-94870000D01*
X134650000Y-89460000D02*
X134650000Y-93120000D01*
X136330000Y-87780000D02*
X134650000Y-89460000D01*
X136440000Y-87780000D02*
X136510000Y-87780000D01*
X136400000Y-94870000D02*
X136440000Y-94830000D01*
X136070000Y-84290000D02*
X136370000Y-84290000D01*
X136017000Y-90153000D02*
X136017000Y-92329000D01*
X137860000Y-88310000D02*
X136017000Y-90153000D01*
X137860000Y-85780000D02*
X137860000Y-88310000D01*
X136370000Y-84290000D02*
X137860000Y-85780000D01*
X136090000Y-84270000D02*
X136100000Y-84270000D01*
X136070000Y-84290000D02*
X136090000Y-84270000D01*
X123530000Y-95140000D02*
X123790000Y-95140000D01*
X123790000Y-95140000D02*
X125060000Y-93870000D01*
X125060000Y-93870000D02*
X125060000Y-92340000D01*
X125060000Y-92340000D02*
X123660000Y-90940000D01*
X123660000Y-90940000D02*
X123660000Y-85550000D01*
D17*
X123500000Y-95110000D02*
X123500000Y-95100000D01*
X123530000Y-95140000D02*
X123500000Y-95110000D01*
D16*
X136017000Y-92329000D02*
X136017000Y-92202000D01*
X109110000Y-88880000D02*
X109110000Y-93345000D01*
X109130000Y-93290000D02*
X109130000Y-93325000D01*
X109130000Y-93325000D02*
X109110000Y-93345000D01*
D17*
X127450000Y-86350000D02*
X127460000Y-86340000D01*
X127460000Y-86340000D02*
X127460000Y-86310000D01*
X127450000Y-93540000D02*
X127450000Y-86350000D01*
X127000000Y-118745000D02*
X127000000Y-110109000D01*
X123698000Y-109855000D02*
X123698000Y-109093000D01*
X124841000Y-110998000D02*
X123698000Y-109855000D01*
X124841000Y-117348000D02*
X124841000Y-110998000D01*
X123698000Y-118491000D02*
X124841000Y-117348000D01*
X122555000Y-91948000D02*
X123571000Y-92964000D01*
X115062000Y-91948000D02*
X122555000Y-91948000D01*
X112268000Y-94742000D02*
X115062000Y-91948000D01*
X112268000Y-102362000D02*
X112268000Y-94742000D01*
X111252000Y-103378000D02*
X112268000Y-102362000D01*
X109220000Y-103378000D02*
X111252000Y-103378000D01*
X123571000Y-92964000D02*
X123698000Y-92837000D01*
X118999000Y-110744000D02*
X118999000Y-110363000D01*
X118999000Y-110363000D02*
X116459000Y-107823000D01*
X122936000Y-110998000D02*
X122936000Y-115824000D01*
X122936000Y-115824000D02*
X122809000Y-115951000D01*
X114935000Y-93218000D02*
X119126000Y-93218000D01*
X113411000Y-94742000D02*
X114935000Y-93218000D01*
X113411000Y-104775000D02*
X113411000Y-94742000D01*
X112141000Y-106045000D02*
X113411000Y-104775000D01*
X109093000Y-106045000D02*
X112141000Y-106045000D01*
D18*
X92198000Y-79244000D02*
X148721000Y-79244000D01*
X92198000Y-79644000D02*
X148721000Y-79644000D01*
X92198000Y-80044000D02*
X148721000Y-80044000D01*
X92198000Y-80444000D02*
X92528744Y-80444000D01*
X98250043Y-80444000D02*
X148721000Y-80444000D01*
X98675826Y-80844000D02*
X148721000Y-80844000D01*
X98856169Y-81244000D02*
X148721000Y-81244000D01*
X98911488Y-81644000D02*
X148721000Y-81644000D01*
X98911488Y-82044000D02*
X148721000Y-82044000D01*
X98911488Y-82444000D02*
X135300375Y-82444000D01*
X136839606Y-82444000D02*
X148721000Y-82444000D01*
X98911488Y-82844000D02*
X134687628Y-82844000D01*
X137452484Y-82844000D02*
X148721000Y-82844000D01*
X98911488Y-83244000D02*
X134338770Y-83244000D01*
X137801805Y-83244000D02*
X148721000Y-83244000D01*
X98911488Y-83644000D02*
X123035586Y-83644000D01*
X124285110Y-83644000D02*
X134172675Y-83644000D01*
X138030582Y-83644000D02*
X148721000Y-83644000D01*
X98911488Y-84044000D02*
X122337733Y-84044000D01*
X124982589Y-84044000D02*
X134070215Y-84044000D01*
X138430582Y-84044000D02*
X148721000Y-84044000D01*
X98911488Y-84444000D02*
X121953684Y-84444000D01*
X125367014Y-84444000D02*
X126738779Y-84444000D01*
X128181440Y-84444000D02*
X134069866Y-84444000D01*
X138830582Y-84444000D02*
X148721000Y-84444000D01*
X98911488Y-84844000D02*
X121787589Y-84844000D01*
X125532290Y-84844000D02*
X126097663Y-84844000D01*
X128822519Y-84844000D02*
X134134905Y-84844000D01*
X139158481Y-84844000D02*
X148721000Y-84844000D01*
X99032550Y-85244000D02*
X121660267Y-85244000D01*
X125660267Y-85244000D02*
X125737074Y-85244000D01*
X129183541Y-85244000D02*
X134300181Y-85244000D01*
X139384384Y-85244000D02*
X148721000Y-85244000D01*
X99434054Y-85644000D02*
X121659918Y-85644000D01*
X129348818Y-85644000D02*
X134595676Y-85644000D01*
X139463949Y-85644000D02*
X148721000Y-85644000D01*
X99670959Y-86044000D02*
X121700114Y-86044000D01*
X129460232Y-86044000D02*
X135078834Y-86044000D01*
X139491000Y-86044000D02*
X148721000Y-86044000D01*
X99836236Y-86444000D02*
X121865390Y-86444000D01*
X129459883Y-86444000D02*
X136217418Y-86444000D01*
X139491000Y-86444000D02*
X148721000Y-86444000D01*
X99836974Y-86844000D02*
X122029000Y-86844000D01*
X129403831Y-86844000D02*
X136229000Y-86844000D01*
X139491000Y-86844000D02*
X148721000Y-86844000D01*
X92198000Y-87244000D02*
X92202418Y-87244000D01*
X99811184Y-87244000D02*
X107917960Y-87244000D01*
X110302815Y-87244000D02*
X122029000Y-87244000D01*
X129237737Y-87244000D02*
X136229000Y-87244000D01*
X139491000Y-87244000D02*
X148721000Y-87244000D01*
X92198000Y-87644000D02*
X93045703Y-87644000D01*
X99645089Y-87644000D02*
X107517261Y-87644000D01*
X110702118Y-87644000D02*
X122029000Y-87644000D01*
X128954568Y-87644000D02*
X136219418Y-87644000D01*
X139491000Y-87644000D02*
X148721000Y-87644000D01*
X92198000Y-88044000D02*
X96601838Y-88044000D01*
X99372430Y-88044000D02*
X107291570Y-88044000D01*
X110928575Y-88044000D02*
X122029000Y-88044000D01*
X128890500Y-88044000D02*
X135819418Y-88044000D01*
X139491000Y-88044000D02*
X148721000Y-88044000D01*
X92198000Y-88444000D02*
X97090762Y-88444000D01*
X98884169Y-88444000D02*
X107125476Y-88444000D01*
X111093852Y-88444000D02*
X122029000Y-88444000D01*
X128890500Y-88444000D02*
X135419418Y-88444000D01*
X139464345Y-88444000D02*
X148721000Y-88444000D01*
X92198000Y-88844000D02*
X104680028Y-88844000D01*
X111110031Y-88844000D02*
X122029000Y-88844000D01*
X128890500Y-88844000D02*
X135019418Y-88844000D01*
X139384781Y-88844000D02*
X148721000Y-88844000D01*
X92198000Y-89244000D02*
X104246640Y-89244000D01*
X111109683Y-89244000D02*
X122029000Y-89244000D01*
X128890500Y-89244000D02*
X134700479Y-89244000D01*
X139159816Y-89244000D02*
X148721000Y-89244000D01*
X92198000Y-89644000D02*
X104068738Y-89644000D01*
X110958327Y-89644000D02*
X122029000Y-89644000D01*
X128890500Y-89644000D02*
X134487246Y-89644000D01*
X138832582Y-89644000D02*
X148721000Y-89644000D01*
X92198000Y-90044000D02*
X104008512Y-90044000D01*
X110774865Y-90044000D02*
X122029000Y-90044000D01*
X128890500Y-90044000D02*
X134407682Y-90044000D01*
X138432582Y-90044000D02*
X148721000Y-90044000D01*
X92198000Y-90444000D02*
X104008512Y-90444000D01*
X110741000Y-90444000D02*
X122029000Y-90444000D01*
X128890500Y-90444000D02*
X134386000Y-90444000D01*
X140044973Y-90444000D02*
X140756921Y-90444000D01*
X144229296Y-90444000D02*
X148721000Y-90444000D01*
X92198000Y-90844000D02*
X104008512Y-90844000D01*
X110741000Y-90844000D02*
X114171242Y-90844000D01*
X128890500Y-90844000D02*
X134386000Y-90844000D01*
X144595543Y-90844000D02*
X148721000Y-90844000D01*
X92198000Y-91244000D02*
X104008512Y-91244000D01*
X110741000Y-91244000D02*
X113728826Y-91244000D01*
X128890500Y-91244000D02*
X134301964Y-91244000D01*
X144742829Y-91244000D02*
X148721000Y-91244000D01*
X92198000Y-91644000D02*
X104008512Y-91644000D01*
X110741000Y-91644000D02*
X113328826Y-91644000D01*
X128890500Y-91644000D02*
X134135869Y-91644000D01*
X144784488Y-91644000D02*
X148721000Y-91644000D01*
X92198000Y-92044000D02*
X104079148Y-92044000D01*
X110741000Y-92044000D02*
X112928826Y-92044000D01*
X128890500Y-92044000D02*
X134017249Y-92044000D01*
X144784488Y-92044000D02*
X148721000Y-92044000D01*
X92198000Y-92444000D02*
X104211074Y-92444000D01*
X110901718Y-92444000D02*
X112528826Y-92444000D01*
X129161146Y-92444000D02*
X134016900Y-92444000D01*
X144784488Y-92444000D02*
X148721000Y-92444000D01*
X92198000Y-92844000D02*
X104088261Y-92844000D01*
X111066994Y-92844000D02*
X112128826Y-92844000D01*
X129326422Y-92844000D02*
X134065791Y-92844000D01*
X144784488Y-92844000D02*
X148721000Y-92844000D01*
X92198000Y-93244000D02*
X104008697Y-93244000D01*
X111110088Y-93244000D02*
X111728826Y-93244000D01*
X129450258Y-93244000D02*
X134231067Y-93244000D01*
X144774079Y-93244000D02*
X148721000Y-93244000D01*
X92198000Y-93644000D02*
X104048080Y-93644000D01*
X111109739Y-93644000D02*
X111328826Y-93644000D01*
X121114677Y-93644000D02*
X121687967Y-93644000D01*
X129449909Y-93644000D02*
X134503744Y-93644000D01*
X144693076Y-93644000D02*
X148721000Y-93644000D01*
X92198000Y-94044000D02*
X104127645Y-94044000D01*
X110985317Y-94044000D02*
X111035204Y-94044000D01*
X120948582Y-94044000D02*
X121819531Y-94044000D01*
X129406288Y-94044000D02*
X134931911Y-94044000D01*
X144632709Y-94044000D02*
X148721000Y-94044000D01*
X92198000Y-94444000D02*
X104026135Y-94444000D01*
X110819223Y-94444000D02*
X110886777Y-94444000D01*
X120728756Y-94444000D02*
X121653437Y-94444000D01*
X129240194Y-94444000D02*
X139954000Y-94444000D01*
X144719857Y-94444000D02*
X148721000Y-94444000D01*
X92198000Y-94844000D02*
X103765289Y-94844000D01*
X110439280Y-94844000D02*
X110827500Y-94844000D01*
X115346174Y-94844000D02*
X117923202Y-94844000D01*
X120328058Y-94844000D02*
X121530258Y-94844000D01*
X128974620Y-94844000D02*
X139954000Y-94844000D01*
X144799422Y-94844000D02*
X148721000Y-94844000D01*
X92198000Y-95244000D02*
X103832093Y-95244000D01*
X109751355Y-95244000D02*
X110827500Y-95244000D01*
X114946174Y-95244000D02*
X121529909Y-95244000D01*
X125992582Y-95244000D02*
X126338420Y-95244000D01*
X128563292Y-95244000D02*
X139954000Y-95244000D01*
X144729801Y-95244000D02*
X148721000Y-95244000D01*
X92198000Y-95644000D02*
X110827500Y-95644000D01*
X114851500Y-95644000D02*
X121574245Y-95644000D01*
X125592582Y-95644000D02*
X136354723Y-95644000D01*
X144650237Y-95644000D02*
X148721000Y-95644000D01*
X92198000Y-96044000D02*
X110827500Y-96044000D01*
X114851500Y-96044000D02*
X121739522Y-96044000D01*
X125320194Y-96044000D02*
X136465865Y-96044000D01*
X144398845Y-96044000D02*
X148721000Y-96044000D01*
X92198000Y-96444000D02*
X103903306Y-96444000D01*
X108694695Y-96444000D02*
X110827500Y-96444000D01*
X114851500Y-96444000D02*
X122005764Y-96444000D01*
X125054620Y-96444000D02*
X136775198Y-96444000D01*
X144539164Y-96444000D02*
X148721000Y-96444000D01*
X92198000Y-96844000D02*
X103727607Y-96844000D01*
X108870392Y-96844000D02*
X110827500Y-96844000D01*
X114851500Y-96844000D02*
X122418420Y-96844000D01*
X124643292Y-96844000D02*
X136739992Y-96844000D01*
X144692009Y-96844000D02*
X148721000Y-96844000D01*
X92198000Y-97244000D02*
X103958781Y-97244000D01*
X108639218Y-97244000D02*
X110827500Y-97244000D01*
X114851500Y-97244000D02*
X136660427Y-97244000D01*
X144771574Y-97244000D02*
X148721000Y-97244000D01*
X92198000Y-97644000D02*
X104143957Y-97644000D01*
X108454044Y-97644000D02*
X110827500Y-97644000D01*
X114851500Y-97644000D02*
X136674350Y-97644000D01*
X144757649Y-97644000D02*
X148721000Y-97644000D01*
X92198000Y-98044000D02*
X104064392Y-98044000D01*
X108533609Y-98044000D02*
X110827500Y-98044000D01*
X114851500Y-98044000D02*
X136753915Y-98044000D01*
X144678084Y-98044000D02*
X148721000Y-98044000D01*
X92198000Y-98444000D02*
X103992385Y-98444000D01*
X108605614Y-98444000D02*
X110827500Y-98444000D01*
X114851500Y-98444000D02*
X136939609Y-98444000D01*
X144492390Y-98444000D02*
X148721000Y-98444000D01*
X92198000Y-98844000D02*
X104071950Y-98844000D01*
X108526049Y-98844000D02*
X110827500Y-98844000D01*
X114851500Y-98844000D02*
X136986382Y-98844000D01*
X144445619Y-98844000D02*
X148721000Y-98844000D01*
X92198000Y-99244000D02*
X104156282Y-99244000D01*
X108441717Y-99244000D02*
X110827500Y-99244000D01*
X114851500Y-99244000D02*
X136767839Y-99244000D01*
X144664162Y-99244000D02*
X148721000Y-99244000D01*
X92198000Y-99644000D02*
X104423553Y-99644000D01*
X108174446Y-99644000D02*
X110827500Y-99644000D01*
X114851500Y-99644000D02*
X136688275Y-99644000D01*
X144743726Y-99644000D02*
X148721000Y-99644000D01*
X92198000Y-100044000D02*
X104224437Y-100044000D01*
X108373564Y-100044000D02*
X110827500Y-100044000D01*
X114851500Y-100044000D02*
X136646502Y-100044000D01*
X144785497Y-100044000D02*
X148721000Y-100044000D01*
X92198000Y-100444000D02*
X104092240Y-100444000D01*
X108505761Y-100444000D02*
X110827500Y-100444000D01*
X114851500Y-100444000D02*
X136726067Y-100444000D01*
X144705932Y-100444000D02*
X148721000Y-100444000D01*
X92198000Y-100844000D02*
X104012675Y-100844000D01*
X108585326Y-100844000D02*
X110827500Y-100844000D01*
X114851500Y-100844000D02*
X136846064Y-100844000D01*
X144585935Y-100844000D02*
X148721000Y-100844000D01*
X92198000Y-101244000D02*
X104044102Y-101244000D01*
X108553897Y-101244000D02*
X110827500Y-101244000D01*
X114851500Y-101244000D02*
X137079927Y-101244000D01*
X144352074Y-101244000D02*
X148721000Y-101244000D01*
X92198000Y-101644000D02*
X104123667Y-101644000D01*
X110259332Y-101644000D02*
X110827500Y-101644000D01*
X114851500Y-101644000D02*
X136812656Y-101644000D01*
X144619345Y-101644000D02*
X148721000Y-101644000D01*
X92198000Y-102044000D02*
X104330008Y-102044000D01*
X114851500Y-102044000D02*
X136716122Y-102044000D01*
X144715879Y-102044000D02*
X148721000Y-102044000D01*
X92198000Y-102444000D02*
X104317982Y-102444000D01*
X114851500Y-102444000D02*
X136636558Y-102444000D01*
X144795443Y-102444000D02*
X148721000Y-102444000D01*
X92198000Y-102844000D02*
X104120087Y-102844000D01*
X114851500Y-102844000D02*
X136698219Y-102844000D01*
X144733780Y-102844000D02*
X148721000Y-102844000D01*
X92198000Y-103244000D02*
X104040523Y-103244000D01*
X114851500Y-103244000D02*
X136777784Y-103244000D01*
X144654215Y-103244000D02*
X148721000Y-103244000D01*
X92198000Y-103644000D02*
X104016254Y-103644000D01*
X114851500Y-103644000D02*
X137019790Y-103644000D01*
X144412209Y-103644000D02*
X148721000Y-103644000D01*
X92198000Y-104044000D02*
X104095819Y-104044000D01*
X114851500Y-104044000D02*
X136906201Y-104044000D01*
X144525800Y-104044000D02*
X148721000Y-104044000D01*
X92198000Y-104444000D02*
X104236464Y-104444000D01*
X114851500Y-104444000D02*
X136743970Y-104444000D01*
X144688031Y-104444000D02*
X148721000Y-104444000D01*
X92198000Y-104844000D02*
X104411527Y-104844000D01*
X114837774Y-104844000D02*
X136664405Y-104844000D01*
X144767596Y-104844000D02*
X148721000Y-104844000D01*
X92198000Y-105244000D02*
X104147935Y-105244000D01*
X114758209Y-105244000D02*
X136670372Y-105244000D01*
X144761627Y-105244000D02*
X148721000Y-105244000D01*
X92198000Y-105644000D02*
X104068370Y-105644000D01*
X114529537Y-105644000D02*
X136749936Y-105644000D01*
X144682063Y-105644000D02*
X148721000Y-105644000D01*
X92198000Y-106044000D02*
X103988805Y-106044000D01*
X114179174Y-106044000D02*
X115527223Y-106044000D01*
X117389960Y-106044000D02*
X136926245Y-106044000D01*
X144505754Y-106044000D02*
X148721000Y-106044000D01*
X92198000Y-106444000D02*
X104067971Y-106444000D01*
X113779174Y-106444000D02*
X115009511Y-106444000D01*
X117908367Y-106444000D02*
X136999746Y-106444000D01*
X144432255Y-106444000D02*
X148721000Y-106444000D01*
X92198000Y-106844000D02*
X104147536Y-106844000D01*
X113379174Y-106844000D02*
X114699949Y-106844000D01*
X118218489Y-106844000D02*
X136771818Y-106844000D01*
X144660183Y-106844000D02*
X148721000Y-106844000D01*
X92198000Y-107244000D02*
X104410190Y-107244000D01*
X112889579Y-107244000D02*
X114533854Y-107244000D01*
X118383765Y-107244000D02*
X122935636Y-107244000D01*
X124460381Y-107244000D02*
X136692253Y-107244000D01*
X144739748Y-107244000D02*
X148721000Y-107244000D01*
X92198000Y-107644000D02*
X104237801Y-107644000D01*
X110322105Y-107644000D02*
X114459156Y-107644000D01*
X118459156Y-107644000D02*
X122318633Y-107644000D01*
X125077489Y-107644000D02*
X136642524Y-107644000D01*
X144789475Y-107644000D02*
X148721000Y-107644000D01*
X92198000Y-108044000D02*
X104096218Y-108044000D01*
X108501784Y-108044000D02*
X108691859Y-108044000D01*
X109492336Y-108044000D02*
X114458807Y-108044000D01*
X118717175Y-108044000D02*
X121968015Y-108044000D01*
X125428565Y-108044000D02*
X136722089Y-108044000D01*
X144709910Y-108044000D02*
X148721000Y-108044000D01*
X92198000Y-108444000D02*
X104016653Y-108444000D01*
X108581348Y-108444000D02*
X114551589Y-108444000D01*
X119117175Y-108444000D02*
X121801921Y-108444000D01*
X125593842Y-108444000D02*
X125837011Y-108444000D01*
X128163866Y-108444000D02*
X136832700Y-108444000D01*
X144599299Y-108444000D02*
X148721000Y-108444000D01*
X92198000Y-108844000D02*
X104040124Y-108844000D01*
X108557875Y-108844000D02*
X114716865Y-108844000D01*
X119638560Y-108844000D02*
X121698217Y-108844000D01*
X128563168Y-108844000D02*
X137093291Y-108844000D01*
X144338710Y-108844000D02*
X148721000Y-108844000D01*
X92198000Y-109244000D02*
X104119689Y-109244000D01*
X108478310Y-109244000D02*
X115051560Y-109244000D01*
X120327578Y-109244000D02*
X121697869Y-109244000D01*
X128806593Y-109244000D02*
X136826019Y-109244000D01*
X144605982Y-109244000D02*
X148721000Y-109244000D01*
X92198000Y-109644000D02*
X104316645Y-109644000D01*
X108281354Y-109644000D02*
X115629188Y-109644000D01*
X120708493Y-109644000D02*
X121461467Y-109644000D01*
X128971869Y-109644000D02*
X136720101Y-109644000D01*
X144711900Y-109644000D02*
X148721000Y-109644000D01*
X92198000Y-110044000D02*
X104331346Y-110044000D01*
X108266655Y-110044000D02*
X116642825Y-110044000D01*
X120873769Y-110044000D02*
X121166568Y-110044000D01*
X129000057Y-110044000D02*
X136640536Y-110044000D01*
X144791465Y-110044000D02*
X148721000Y-110044000D01*
X92198000Y-110444000D02*
X104124066Y-110444000D01*
X108473935Y-110444000D02*
X116999262Y-110444000D01*
X120999262Y-110444000D02*
X121000474Y-110444000D01*
X128999708Y-110444000D02*
X136694241Y-110444000D01*
X144737758Y-110444000D02*
X148721000Y-110444000D01*
X92198000Y-110844000D02*
X104044501Y-110844000D01*
X108553500Y-110844000D02*
X116998913Y-110844000D01*
X128860369Y-110844000D02*
X136773806Y-110844000D01*
X144658193Y-110844000D02*
X148721000Y-110844000D01*
X92198000Y-111244000D02*
X104012276Y-111244000D01*
X108585723Y-111244000D02*
X117041593Y-111244000D01*
X128693915Y-111244000D02*
X136779050Y-111244000D01*
X144425573Y-111244000D02*
X148721000Y-111244000D01*
X92198000Y-111644000D02*
X104091841Y-111644000D01*
X108506158Y-111644000D02*
X117206869Y-111644000D01*
X120790855Y-111644000D02*
X121038919Y-111644000D01*
X128440500Y-111644000D02*
X136676147Y-111644000D01*
X144512437Y-111644000D02*
X148721000Y-111644000D01*
X92198000Y-112044000D02*
X97423816Y-112044000D01*
X98550898Y-112044000D02*
X104223100Y-112044000D01*
X108374899Y-112044000D02*
X117470771Y-112044000D01*
X120527627Y-112044000D02*
X121204195Y-112044000D01*
X128440500Y-112044000D02*
X136647512Y-112044000D01*
X144684053Y-112044000D02*
X148721000Y-112044000D01*
X92198000Y-112444000D02*
X96739811Y-112444000D01*
X99234403Y-112444000D02*
X104490372Y-112444000D01*
X108107627Y-112444000D02*
X117877787Y-112444000D01*
X120121972Y-112444000D02*
X121495500Y-112444000D01*
X128440500Y-112444000D02*
X136647512Y-112444000D01*
X144763618Y-112444000D02*
X148721000Y-112444000D01*
X92198000Y-112844000D02*
X96386214Y-112844000D01*
X99588321Y-112844000D02*
X104943591Y-112844000D01*
X107654408Y-112844000D02*
X121495500Y-112844000D01*
X128440500Y-112844000D02*
X136647512Y-112844000D01*
X144765606Y-112844000D02*
X148721000Y-112844000D01*
X92198000Y-113244000D02*
X92373340Y-113244000D01*
X99753598Y-113244000D02*
X121495500Y-113244000D01*
X128440500Y-113244000D02*
X136647512Y-113244000D01*
X144686041Y-113244000D02*
X148721000Y-113244000D01*
X99837148Y-113644000D02*
X121495500Y-113644000D01*
X128440500Y-113644000D02*
X136672236Y-113644000D01*
X144519117Y-113644000D02*
X148721000Y-113644000D01*
X99836799Y-114044000D02*
X121495500Y-114044000D01*
X128440500Y-114044000D02*
X136778544Y-114044000D01*
X144251846Y-114044000D02*
X148721000Y-114044000D01*
X99728136Y-114444000D02*
X121487734Y-114444000D01*
X128440500Y-114444000D02*
X137070984Y-114444000D01*
X140814943Y-114444000D02*
X141252333Y-114444000D01*
X143735666Y-114444000D02*
X148721000Y-114444000D01*
X99562041Y-114844000D02*
X121103099Y-114844000D01*
X128440500Y-114844000D02*
X148721000Y-114844000D01*
X99172081Y-115244000D02*
X120937005Y-115244000D01*
X128440500Y-115244000D02*
X148721000Y-115244000D01*
X98911488Y-115644000D02*
X120809268Y-115644000D01*
X128440500Y-115644000D02*
X148721000Y-115644000D01*
X98911488Y-116044000D02*
X120808919Y-116044000D01*
X128440500Y-116044000D02*
X148721000Y-116044000D01*
X98911488Y-116444000D02*
X120848700Y-116444000D01*
X128440500Y-116444000D02*
X148721000Y-116444000D01*
X98911488Y-116844000D02*
X121013977Y-116844000D01*
X128440500Y-116844000D02*
X148721000Y-116844000D01*
X98911488Y-117244000D02*
X121273783Y-117244000D01*
X128440500Y-117244000D02*
X148721000Y-117244000D01*
X98911488Y-117644000D02*
X121673085Y-117644000D01*
X128709079Y-117644000D02*
X148721000Y-117644000D01*
X98911488Y-118044000D02*
X121718043Y-118044000D01*
X128874356Y-118044000D02*
X148721000Y-118044000D01*
X98911488Y-118444000D02*
X121698041Y-118444000D01*
X129000263Y-118444000D02*
X148721000Y-118444000D01*
X98911488Y-118844000D02*
X121697692Y-118844000D01*
X128999914Y-118844000D02*
X148721000Y-118844000D01*
X98879897Y-119244000D02*
X121845130Y-119244000D01*
X128958365Y-119244000D02*
X148721000Y-119244000D01*
X98769975Y-119644000D02*
X122023027Y-119644000D01*
X128792270Y-119644000D02*
X148721000Y-119644000D01*
X92198000Y-120044000D02*
X92321988Y-120044000D01*
X98459714Y-120044000D02*
X122422329Y-120044000D01*
X124973185Y-120044000D02*
X125470772Y-120044000D01*
X128529629Y-120044000D02*
X148721000Y-120044000D01*
X92198000Y-120444000D02*
X123186079Y-120444000D01*
X124208665Y-120444000D02*
X125876379Y-120444000D01*
X128125393Y-120444000D02*
X148721000Y-120444000D01*
X148721000Y-120781000D02*
X92198000Y-120781000D01*
X92198000Y-119937133D01*
X92223437Y-119976663D01*
X92641153Y-120262076D01*
X93137000Y-120362488D01*
X97637000Y-120362488D01*
X98100222Y-120275327D01*
X98525663Y-120001563D01*
X98811076Y-119583847D01*
X98911488Y-119088000D01*
X98911488Y-115432712D01*
X99033572Y-115382268D01*
X99554439Y-114862309D01*
X99836679Y-114182602D01*
X99837321Y-113446627D01*
X99556268Y-112766428D01*
X99036309Y-112245561D01*
X98356602Y-111963321D01*
X97620627Y-111962679D01*
X96940428Y-112243732D01*
X96419561Y-112763691D01*
X96336588Y-112963512D01*
X93137000Y-112963512D01*
X92673778Y-113050673D01*
X92248337Y-113324437D01*
X92198000Y-113398108D01*
X92198000Y-96714722D01*
X103668200Y-96714722D01*
X103851271Y-97113109D01*
X104201067Y-97538975D01*
X104149494Y-97616160D01*
X103988606Y-98425000D01*
X104149494Y-99233840D01*
X104457631Y-99695000D01*
X104149494Y-100156160D01*
X103988606Y-100965000D01*
X104149494Y-101773840D01*
X104457631Y-102235000D01*
X104149494Y-102696160D01*
X103988606Y-103505000D01*
X104149494Y-104313840D01*
X104457631Y-104775000D01*
X104149494Y-105236160D01*
X103988606Y-106045000D01*
X104149494Y-106853840D01*
X104457631Y-107315000D01*
X104149494Y-107776160D01*
X103988606Y-108585000D01*
X104149494Y-109393840D01*
X104457631Y-109855000D01*
X104149494Y-110316160D01*
X103988606Y-111125000D01*
X104149494Y-111933840D01*
X104607665Y-112619541D01*
X105293366Y-113077712D01*
X106102206Y-113238600D01*
X106495794Y-113238600D01*
X107304634Y-113077712D01*
X107990335Y-112619541D01*
X108448506Y-111933840D01*
X108609394Y-111125000D01*
X108448506Y-110316160D01*
X108140369Y-109855000D01*
X108448506Y-109393840D01*
X108609394Y-108585000D01*
X108536609Y-108219079D01*
X114458654Y-108219079D01*
X114762494Y-108954429D01*
X115324612Y-109517529D01*
X116059430Y-109822652D01*
X116421794Y-109822968D01*
X116999299Y-110400474D01*
X116998654Y-111140079D01*
X117302494Y-111875429D01*
X117864612Y-112438529D01*
X118599430Y-112743652D01*
X119395079Y-112744346D01*
X120130429Y-112440506D01*
X120693529Y-111878388D01*
X120935740Y-111295078D01*
X120935654Y-111394079D01*
X121239494Y-112129429D01*
X121495500Y-112385882D01*
X121495500Y-114436247D01*
X121114471Y-114816612D01*
X120809348Y-115551430D01*
X120808654Y-116347079D01*
X121112494Y-117082429D01*
X121674612Y-117645529D01*
X121852782Y-117719512D01*
X121698348Y-118091430D01*
X121697654Y-118887079D01*
X122001494Y-119622429D01*
X122563612Y-120185529D01*
X123298430Y-120490652D01*
X124094079Y-120491346D01*
X124829429Y-120187506D01*
X125256057Y-119761622D01*
X125303494Y-119876429D01*
X125865612Y-120439529D01*
X126600430Y-120744652D01*
X127396079Y-120745346D01*
X128131429Y-120441506D01*
X128694529Y-119879388D01*
X128999652Y-119144570D01*
X129000346Y-118348921D01*
X128696506Y-117613571D01*
X128440500Y-117357118D01*
X128440500Y-111496974D01*
X128694529Y-111243388D01*
X128999652Y-110508570D01*
X129000346Y-109712921D01*
X128696506Y-108977571D01*
X128134388Y-108414471D01*
X127399570Y-108109348D01*
X126603921Y-108108654D01*
X125868571Y-108412494D01*
X125664852Y-108615858D01*
X125394506Y-107961571D01*
X124832388Y-107398471D01*
X124097570Y-107093348D01*
X123301921Y-107092654D01*
X122566571Y-107396494D01*
X122003471Y-107958612D01*
X121698348Y-108693430D01*
X121697725Y-109408154D01*
X121241471Y-109863612D01*
X120999260Y-110446922D01*
X120999346Y-110347921D01*
X120695506Y-109612571D01*
X120133388Y-109049471D01*
X119430981Y-108757806D01*
X118459033Y-107785859D01*
X118459346Y-107426921D01*
X118155506Y-106691571D01*
X117593388Y-106128471D01*
X116858570Y-105823348D01*
X116062921Y-105822654D01*
X115327571Y-106126494D01*
X114764471Y-106688612D01*
X114459348Y-107423430D01*
X114458654Y-108219079D01*
X108536609Y-108219079D01*
X108484670Y-107957967D01*
X108693430Y-108044652D01*
X109489079Y-108045346D01*
X110224429Y-107741506D01*
X110480882Y-107485500D01*
X112141000Y-107485500D01*
X112692255Y-107375848D01*
X113159587Y-107063587D01*
X114429587Y-105793587D01*
X114741848Y-105326256D01*
X114800976Y-105029000D01*
X114851500Y-104775000D01*
X114851500Y-95338674D01*
X115531675Y-94658500D01*
X117738026Y-94658500D01*
X117991612Y-94912529D01*
X118726430Y-95217652D01*
X119522079Y-95218346D01*
X120257429Y-94914506D01*
X120820529Y-94352388D01*
X121125652Y-93617570D01*
X121125852Y-93388500D01*
X121582397Y-93388500D01*
X121836824Y-94004261D01*
X121835471Y-94005612D01*
X121530348Y-94740430D01*
X121529654Y-95536079D01*
X121833494Y-96271429D01*
X122395612Y-96834529D01*
X123130430Y-97139652D01*
X123926079Y-97140346D01*
X124661429Y-96836506D01*
X125224529Y-96274388D01*
X125410811Y-95825771D01*
X126158969Y-95077613D01*
X126315612Y-95234529D01*
X127050430Y-95539652D01*
X127846079Y-95540346D01*
X128581429Y-95236506D01*
X129144529Y-94674388D01*
X129449652Y-93939570D01*
X129450346Y-93143921D01*
X129277285Y-92725079D01*
X134016654Y-92725079D01*
X134320494Y-93460429D01*
X134882612Y-94023529D01*
X135617430Y-94328652D01*
X136413079Y-94329346D01*
X136520544Y-94284942D01*
X136652771Y-94437200D01*
X138430000Y-94437200D01*
X138430000Y-94380697D01*
X138741206Y-94442600D01*
X139134794Y-94442600D01*
X139446000Y-94380697D01*
X139446000Y-94437200D01*
X139954000Y-94437200D01*
X139954000Y-95300800D01*
X139446000Y-95300800D01*
X139446000Y-95357303D01*
X139134794Y-95295400D01*
X138741206Y-95295400D01*
X138430000Y-95357303D01*
X138430000Y-95300800D01*
X136652771Y-95300800D01*
X136307200Y-95698722D01*
X136490271Y-96097109D01*
X136840067Y-96522975D01*
X136788494Y-96600160D01*
X136627606Y-97409000D01*
X136788494Y-98217840D01*
X137096631Y-98679000D01*
X136788494Y-99140160D01*
X136627606Y-99949000D01*
X136788494Y-100757840D01*
X137096631Y-101219000D01*
X136788494Y-101680160D01*
X136627606Y-102489000D01*
X136788494Y-103297840D01*
X137096631Y-103759000D01*
X136788494Y-104220160D01*
X136627606Y-105029000D01*
X136788494Y-105837840D01*
X137096631Y-106299000D01*
X136788494Y-106760160D01*
X136627606Y-107569000D01*
X136788494Y-108377840D01*
X137096631Y-108839000D01*
X136788494Y-109300160D01*
X136627606Y-110109000D01*
X136788494Y-110917840D01*
X136894008Y-111075752D01*
X136747924Y-111289553D01*
X136647512Y-111785400D01*
X136647512Y-113512600D01*
X136734673Y-113975822D01*
X137008437Y-114401263D01*
X137426153Y-114686676D01*
X137922000Y-114787088D01*
X139954000Y-114787088D01*
X140417222Y-114699927D01*
X140842663Y-114426163D01*
X140962705Y-114250476D01*
X141488366Y-114601712D01*
X142297206Y-114762600D01*
X142690794Y-114762600D01*
X143499634Y-114601712D01*
X144185335Y-114143541D01*
X144643506Y-113457840D01*
X144804394Y-112649000D01*
X144643506Y-111840160D01*
X144335369Y-111379000D01*
X144643506Y-110917840D01*
X144804394Y-110109000D01*
X144643506Y-109300160D01*
X144335369Y-108839000D01*
X144643506Y-108377840D01*
X144804394Y-107569000D01*
X144643506Y-106760160D01*
X144335369Y-106299000D01*
X144643506Y-105837840D01*
X144804394Y-105029000D01*
X144643506Y-104220160D01*
X144335369Y-103759000D01*
X144643506Y-103297840D01*
X144804394Y-102489000D01*
X144643506Y-101680160D01*
X144335369Y-101219000D01*
X144643506Y-100757840D01*
X144804394Y-99949000D01*
X144643506Y-99140160D01*
X144335369Y-98679000D01*
X144643506Y-98217840D01*
X144804394Y-97409000D01*
X144643506Y-96600160D01*
X144335369Y-96139000D01*
X144643506Y-95677840D01*
X144804394Y-94869000D01*
X144643506Y-94060160D01*
X144537992Y-93902248D01*
X144684076Y-93688447D01*
X144784488Y-93192600D01*
X144784488Y-91465400D01*
X144697327Y-91002178D01*
X144423563Y-90576737D01*
X144005847Y-90291324D01*
X143510000Y-90190912D01*
X141478000Y-90190912D01*
X141014778Y-90278073D01*
X140589337Y-90551837D01*
X140469295Y-90727524D01*
X139943634Y-90376288D01*
X139134794Y-90215400D01*
X138741206Y-90215400D01*
X138141991Y-90334591D01*
X139013291Y-89463291D01*
X139366848Y-88934157D01*
X139491000Y-88310000D01*
X139491000Y-85780000D01*
X139366848Y-85155843D01*
X139013291Y-84626709D01*
X137922368Y-83535786D01*
X137766506Y-83158571D01*
X137204388Y-82595471D01*
X136469570Y-82290348D01*
X135673921Y-82289654D01*
X134938571Y-82593494D01*
X134375471Y-83155612D01*
X134070348Y-83890430D01*
X134069654Y-84686079D01*
X134373494Y-85421429D01*
X134935612Y-85984529D01*
X135670430Y-86289652D01*
X136063413Y-86289995D01*
X136229000Y-86455582D01*
X136229000Y-87634418D01*
X134863709Y-88999709D01*
X134510152Y-89528843D01*
X134386000Y-90153000D01*
X134386000Y-91131194D01*
X134322471Y-91194612D01*
X134017348Y-91929430D01*
X134016654Y-92725079D01*
X129277285Y-92725079D01*
X129146506Y-92408571D01*
X128890500Y-92152118D01*
X128890500Y-87707957D01*
X129154529Y-87444388D01*
X129459652Y-86709570D01*
X129460346Y-85913921D01*
X129156506Y-85178571D01*
X128594388Y-84615471D01*
X127859570Y-84310348D01*
X127063921Y-84309654D01*
X126328571Y-84613494D01*
X125765471Y-85175612D01*
X125660106Y-85429360D01*
X125660346Y-85153921D01*
X125356506Y-84418571D01*
X124794388Y-83855471D01*
X124059570Y-83550348D01*
X123263921Y-83549654D01*
X122528571Y-83853494D01*
X121965471Y-84415612D01*
X121660348Y-85150430D01*
X121659654Y-85946079D01*
X121963494Y-86681429D01*
X122029000Y-86747049D01*
X122029000Y-90507500D01*
X115062000Y-90507500D01*
X114510745Y-90617152D01*
X114043413Y-90929412D01*
X111249413Y-93723413D01*
X110937152Y-94190745D01*
X110827500Y-94742000D01*
X110827500Y-101765326D01*
X110655326Y-101937500D01*
X110607974Y-101937500D01*
X110354388Y-101683471D01*
X109619570Y-101378348D01*
X108823921Y-101377654D01*
X108500751Y-101511185D01*
X108609394Y-100965000D01*
X108448506Y-100156160D01*
X108140369Y-99695000D01*
X108448506Y-99233840D01*
X108609394Y-98425000D01*
X108448506Y-97616160D01*
X108396933Y-97538975D01*
X108746729Y-97113109D01*
X108929800Y-96714722D01*
X108584229Y-96316800D01*
X106807000Y-96316800D01*
X106807000Y-96373303D01*
X106495794Y-96311400D01*
X106102206Y-96311400D01*
X105791000Y-96373303D01*
X105791000Y-96316800D01*
X104013771Y-96316800D01*
X103668200Y-96714722D01*
X92198000Y-96714722D01*
X92198000Y-95055278D01*
X103668200Y-95055278D01*
X104013771Y-95453200D01*
X105791000Y-95453200D01*
X105791000Y-95396697D01*
X106102206Y-95458600D01*
X106495794Y-95458600D01*
X106807000Y-95396697D01*
X106807000Y-95453200D01*
X108584229Y-95453200D01*
X108686960Y-95334906D01*
X108710430Y-95344652D01*
X109506079Y-95345346D01*
X110241429Y-95041506D01*
X110804529Y-94479388D01*
X111109652Y-93744570D01*
X111110346Y-92948921D01*
X110806506Y-92213571D01*
X110741000Y-92147951D01*
X110741000Y-90077806D01*
X110804529Y-90014388D01*
X111109652Y-89279570D01*
X111110346Y-88483921D01*
X110806506Y-87748571D01*
X110244388Y-87185471D01*
X109509570Y-86880348D01*
X108713921Y-86879654D01*
X107978571Y-87183494D01*
X107415471Y-87745612D01*
X107110348Y-88480430D01*
X107110185Y-88666912D01*
X105283000Y-88666912D01*
X104819778Y-88754073D01*
X104394337Y-89027837D01*
X104108924Y-89445553D01*
X104008512Y-89941400D01*
X104008512Y-91668600D01*
X104095673Y-92131822D01*
X104254619Y-92378830D01*
X104149494Y-92536160D01*
X103988606Y-93345000D01*
X104149494Y-94153840D01*
X104201067Y-94231025D01*
X103851271Y-94656891D01*
X103668200Y-95055278D01*
X92198000Y-95055278D01*
X92198000Y-87237133D01*
X92223437Y-87276663D01*
X92641153Y-87562076D01*
X93137000Y-87662488D01*
X96336298Y-87662488D01*
X96417732Y-87859572D01*
X96937691Y-88380439D01*
X97617398Y-88662679D01*
X98353373Y-88663321D01*
X99033572Y-88382268D01*
X99554439Y-87862309D01*
X99836679Y-87182602D01*
X99837321Y-86446627D01*
X99556268Y-85766428D01*
X99036309Y-85245561D01*
X98911488Y-85193731D01*
X98911488Y-81538000D01*
X98824327Y-81074778D01*
X98550563Y-80649337D01*
X98132847Y-80363924D01*
X97637000Y-80263512D01*
X93137000Y-80263512D01*
X92673778Y-80350673D01*
X92248337Y-80624437D01*
X92198000Y-80698108D01*
X92198000Y-79244000D01*
X148721000Y-79244000D01*
X148721000Y-120781000D01*
M02*
