M48
;DRILL file {KiCad 4.0.6-e0-6349~53~ubuntu14.04.1} date Wed Dec 13 10:11:55 2017
;FORMAT={-:-/ absolute / metric / decimal}
FMAT,2
METRIC,TZ
T1C0.300
T2C1.016
%
G90
G05
M71
T1
X109.093Y-106.045
X109.11Y-88.88
X109.11Y-93.345
X109.22Y-103.378
X116.459Y-107.823
X118.999Y-110.744
X119.126Y-93.218
X122.809Y-115.951
X122.936Y-110.998
X123.53Y-95.14
X123.571Y-92.964
X123.66Y-85.55
X123.698Y-109.093
X123.698Y-118.491
X127.Y-110.109
X127.Y-118.745
X127.45Y-93.54
X127.46Y-86.31
X136.017Y-92.329
X136.07Y-84.29
X136.4Y-94.87
X136.44Y-87.78
T2
X106.299Y-90.805
X106.299Y-93.345
X106.299Y-95.885
X106.299Y-98.425
X106.299Y-100.965
X106.299Y-103.505
X106.299Y-106.045
X106.299Y-108.585
X106.299Y-111.125
X138.938Y-92.329
X138.938Y-94.869
X138.938Y-97.409
X138.938Y-99.949
X138.938Y-102.489
X138.938Y-105.029
X138.938Y-107.569
X138.938Y-110.109
X138.938Y-112.649
X142.494Y-92.329
X142.494Y-94.869
X142.494Y-97.409
X142.494Y-99.949
X142.494Y-102.489
X142.494Y-105.029
X142.494Y-107.569
X142.494Y-110.109
X142.494Y-112.649
T0
M30
