G04 #@! TF.FileFunction,Legend,Top*
%FSLAX46Y46*%
G04 Gerber Fmt 4.6, Leading zero omitted, Abs format (unit mm)*
G04 Created by KiCad (PCBNEW 4.0.6-e0-6349~53~ubuntu14.04.1) date Fri Oct 20 08:52:49 2017*
%MOMM*%
%LPD*%
G01*
G04 APERTURE LIST*
%ADD10C,0.100000*%
%ADD11C,0.300000*%
%ADD12C,0.200000*%
%ADD13C,0.150000*%
%ADD14C,0.120000*%
G04 APERTURE END LIST*
D10*
D11*
X220132015Y-118122706D02*
X220128855Y-118836985D01*
X220842818Y-118911574D01*
X220771707Y-118839829D01*
X220700910Y-118696658D01*
X220702491Y-118339518D01*
X220774551Y-118196979D01*
X220846294Y-118125866D01*
X220989466Y-118055071D01*
X221346606Y-118056651D01*
X221489145Y-118128711D01*
X221560257Y-118200455D01*
X221631053Y-118343627D01*
X221629472Y-118700766D01*
X221557413Y-118843306D01*
X221485669Y-118914418D01*
X220138020Y-116765577D02*
X220136756Y-117051288D01*
X220207552Y-117194460D01*
X220278665Y-117266204D01*
X220492316Y-117410008D01*
X220777712Y-117482701D01*
X221349134Y-117485229D01*
X221492306Y-117414433D01*
X221564050Y-117343322D01*
X221636109Y-117200781D01*
X221637374Y-116915070D01*
X221566578Y-116771898D01*
X221495466Y-116700154D01*
X221352927Y-116628094D01*
X220995787Y-116626514D01*
X220852616Y-116697309D01*
X220780872Y-116768422D01*
X220708812Y-116910961D01*
X220707548Y-117196672D01*
X220778344Y-117339845D01*
X220849455Y-117411588D01*
X220991995Y-117483649D01*
X221570371Y-115914765D02*
X221641798Y-115915081D01*
X221784339Y-115987140D01*
X221855450Y-116058884D01*
X220147818Y-114551313D02*
X220144658Y-115265592D01*
X220858621Y-115340181D01*
X220787509Y-115268436D01*
X220716713Y-115125265D01*
X220718293Y-114768125D01*
X220790354Y-114625586D01*
X220862097Y-114554473D01*
X221005269Y-114483678D01*
X221362408Y-114485258D01*
X221504948Y-114557318D01*
X221576060Y-114629062D01*
X221646855Y-114772234D01*
X221645275Y-115129373D01*
X221573216Y-115271913D01*
X221501471Y-115343025D01*
X220152243Y-113551324D02*
X220152875Y-113408468D01*
X220224935Y-113265928D01*
X220296680Y-113194816D01*
X220439851Y-113124020D01*
X220725879Y-113053857D01*
X221083018Y-113055437D01*
X221368413Y-113128129D01*
X221510953Y-113200189D01*
X221582065Y-113271933D01*
X221652860Y-113415105D01*
X221652228Y-113557961D01*
X221580169Y-113700500D01*
X221508424Y-113771612D01*
X221365253Y-113842408D01*
X221079225Y-113912572D01*
X220722086Y-113910992D01*
X220436691Y-113838299D01*
X220294151Y-113766240D01*
X220223039Y-113694495D01*
X220152243Y-113551324D01*
X221660762Y-111629409D02*
X221656969Y-112486543D01*
X221658865Y-112057975D02*
X220158880Y-112051338D01*
X220372532Y-112195142D01*
X220514755Y-112338631D01*
X220585551Y-112481802D01*
X221663606Y-110986558D02*
X220663616Y-110982133D01*
X220806472Y-110982765D02*
X220735360Y-110911022D01*
X220664564Y-110767849D01*
X220665512Y-110553566D01*
X220737573Y-110411027D01*
X220880744Y-110340231D01*
X221666451Y-110343707D01*
X220880744Y-110340231D02*
X220738205Y-110268170D01*
X220667408Y-110124999D01*
X220668357Y-109910716D01*
X220740417Y-109768175D01*
X220883589Y-109697380D01*
X221669295Y-109700856D01*
X221672456Y-108986577D02*
X220672465Y-108982153D01*
X220815322Y-108982785D02*
X220744210Y-108911041D01*
X220673413Y-108767869D01*
X220674362Y-108553586D01*
X220746422Y-108411046D01*
X220889594Y-108340250D01*
X221675300Y-108343727D01*
X220889594Y-108340250D02*
X220747054Y-108268190D01*
X220676258Y-108125018D01*
X220677206Y-107910735D01*
X220749266Y-107768195D01*
X220892438Y-107697399D01*
X221678144Y-107700876D01*
X219749941Y-85013274D02*
X219499941Y-141513274D01*
X216750000Y-85000000D02*
X222449915Y-85025221D01*
X216500000Y-141500000D02*
X222199915Y-141525221D01*
X219499941Y-141513274D02*
X218918510Y-140384187D01*
X219499941Y-141513274D02*
X220091340Y-140389376D01*
X219749941Y-85013274D02*
X219158542Y-86137172D01*
X219749941Y-85013274D02*
X220331372Y-86142361D01*
X179892859Y-75328571D02*
X179178573Y-75328571D01*
X179107144Y-76042857D01*
X179178573Y-75971429D01*
X179321430Y-75900000D01*
X179678573Y-75900000D01*
X179821430Y-75971429D01*
X179892859Y-76042857D01*
X179964287Y-76185714D01*
X179964287Y-76542857D01*
X179892859Y-76685714D01*
X179821430Y-76757143D01*
X179678573Y-76828571D01*
X179321430Y-76828571D01*
X179178573Y-76757143D01*
X179107144Y-76685714D01*
X181250001Y-75828571D02*
X181250001Y-76828571D01*
X180892858Y-75257143D02*
X180535715Y-76328571D01*
X181464287Y-76328571D01*
X182107143Y-76757143D02*
X182107143Y-76828571D01*
X182035715Y-76971429D01*
X181964286Y-77042857D01*
X183464287Y-75328571D02*
X182750001Y-75328571D01*
X182678572Y-76042857D01*
X182750001Y-75971429D01*
X182892858Y-75900000D01*
X183250001Y-75900000D01*
X183392858Y-75971429D01*
X183464287Y-76042857D01*
X183535715Y-76185714D01*
X183535715Y-76542857D01*
X183464287Y-76685714D01*
X183392858Y-76757143D01*
X183250001Y-76828571D01*
X182892858Y-76828571D01*
X182750001Y-76757143D01*
X182678572Y-76685714D01*
X184464286Y-75328571D02*
X184607143Y-75328571D01*
X184750000Y-75400000D01*
X184821429Y-75471429D01*
X184892858Y-75614286D01*
X184964286Y-75900000D01*
X184964286Y-76257143D01*
X184892858Y-76542857D01*
X184821429Y-76685714D01*
X184750000Y-76757143D01*
X184607143Y-76828571D01*
X184464286Y-76828571D01*
X184321429Y-76757143D01*
X184250000Y-76685714D01*
X184178572Y-76542857D01*
X184107143Y-76257143D01*
X184107143Y-75900000D01*
X184178572Y-75614286D01*
X184250000Y-75471429D01*
X184321429Y-75400000D01*
X184464286Y-75328571D01*
X185892857Y-75328571D02*
X186035714Y-75328571D01*
X186178571Y-75400000D01*
X186250000Y-75471429D01*
X186321429Y-75614286D01*
X186392857Y-75900000D01*
X186392857Y-76257143D01*
X186321429Y-76542857D01*
X186250000Y-76685714D01*
X186178571Y-76757143D01*
X186035714Y-76828571D01*
X185892857Y-76828571D01*
X185750000Y-76757143D01*
X185678571Y-76685714D01*
X185607143Y-76542857D01*
X185535714Y-76257143D01*
X185535714Y-75900000D01*
X185607143Y-75614286D01*
X185678571Y-75471429D01*
X185750000Y-75400000D01*
X185892857Y-75328571D01*
X187035714Y-76828571D02*
X187035714Y-75828571D01*
X187035714Y-75971429D02*
X187107142Y-75900000D01*
X187250000Y-75828571D01*
X187464285Y-75828571D01*
X187607142Y-75900000D01*
X187678571Y-76042857D01*
X187678571Y-76828571D01*
X187678571Y-76042857D02*
X187750000Y-75900000D01*
X187892857Y-75828571D01*
X188107142Y-75828571D01*
X188250000Y-75900000D01*
X188321428Y-76042857D01*
X188321428Y-76828571D01*
X189035714Y-76828571D02*
X189035714Y-75828571D01*
X189035714Y-75971429D02*
X189107142Y-75900000D01*
X189250000Y-75828571D01*
X189464285Y-75828571D01*
X189607142Y-75900000D01*
X189678571Y-76042857D01*
X189678571Y-76828571D01*
X189678571Y-76042857D02*
X189750000Y-75900000D01*
X189892857Y-75828571D01*
X190107142Y-75828571D01*
X190250000Y-75900000D01*
X190321428Y-76042857D01*
X190321428Y-76828571D01*
X157500000Y-77500000D02*
X212000000Y-77500000D01*
X157500000Y-80750000D02*
X157500000Y-74800000D01*
X212000000Y-80750000D02*
X212000000Y-74800000D01*
X212000000Y-77500000D02*
X210873496Y-78086421D01*
X212000000Y-77500000D02*
X210873496Y-76913579D01*
X157500000Y-77500000D02*
X158626504Y-78086421D01*
X157500000Y-77500000D02*
X158626504Y-76913579D01*
D12*
X213000000Y-142000000D02*
X213000000Y-84000000D01*
X157000000Y-142000000D02*
X213000000Y-142000000D01*
X157000000Y-84000000D02*
X157000000Y-142000000D01*
X213000000Y-84000000D02*
X157000000Y-84000000D01*
D13*
X212471000Y-85725000D02*
X206121000Y-85725000D01*
X206121000Y-85725000D02*
X206121000Y-141605000D01*
X206121000Y-141605000D02*
X212471000Y-141605000D01*
X212471000Y-141605000D02*
X212471000Y-85725000D01*
D14*
X201175000Y-88265000D02*
X201175000Y-141725000D01*
X201175000Y-141725000D02*
X203955000Y-141725000D01*
X203955000Y-141725000D02*
X203955000Y-88265000D01*
X203955000Y-88265000D02*
X201175000Y-88265000D01*
X201175000Y-86995000D02*
X201175000Y-85605000D01*
X201175000Y-85605000D02*
X202565000Y-85605000D01*
D13*
X159131000Y-90043000D02*
X159131000Y-130683000D01*
X159131000Y-130683000D02*
X168021000Y-130683000D01*
X168021000Y-130683000D02*
X168021000Y-90043000D01*
X168021000Y-90043000D02*
X159131000Y-90043000D01*
X176530000Y-95250000D02*
X170180000Y-95250000D01*
X170180000Y-95250000D02*
X170180000Y-125730000D01*
X170180000Y-125730000D02*
X176530000Y-125730000D01*
X176530000Y-125730000D02*
X176530000Y-95250000D01*
X184531000Y-92075000D02*
X184531000Y-100965000D01*
X184531000Y-92075000D02*
X190881000Y-92075000D01*
X190881000Y-92075000D02*
X190881000Y-133985000D01*
X190881000Y-133985000D02*
X184531000Y-133985000D01*
X184531000Y-133985000D02*
X184531000Y-99695000D01*
X208916667Y-84452381D02*
X208916667Y-85166667D01*
X208869047Y-85309524D01*
X208773809Y-85404762D01*
X208630952Y-85452381D01*
X208535714Y-85452381D01*
X209916667Y-85452381D02*
X209345238Y-85452381D01*
X209630952Y-85452381D02*
X209630952Y-84452381D01*
X209535714Y-84595238D01*
X209440476Y-84690476D01*
X209345238Y-84738095D01*
X202231667Y-84057381D02*
X202231667Y-84771667D01*
X202184047Y-84914524D01*
X202088809Y-85009762D01*
X201945952Y-85057381D01*
X201850714Y-85057381D01*
X202660238Y-84152619D02*
X202707857Y-84105000D01*
X202803095Y-84057381D01*
X203041191Y-84057381D01*
X203136429Y-84105000D01*
X203184048Y-84152619D01*
X203231667Y-84247857D01*
X203231667Y-84343095D01*
X203184048Y-84485952D01*
X202612619Y-85057381D01*
X203231667Y-85057381D01*
X163166667Y-88202381D02*
X163166667Y-88916667D01*
X163119047Y-89059524D01*
X163023809Y-89154762D01*
X162880952Y-89202381D01*
X162785714Y-89202381D01*
X163547619Y-88202381D02*
X164166667Y-88202381D01*
X163833333Y-88583333D01*
X163976191Y-88583333D01*
X164071429Y-88630952D01*
X164119048Y-88678571D01*
X164166667Y-88773810D01*
X164166667Y-89011905D01*
X164119048Y-89107143D01*
X164071429Y-89154762D01*
X163976191Y-89202381D01*
X163690476Y-89202381D01*
X163595238Y-89154762D01*
X163547619Y-89107143D01*
X172916667Y-93202381D02*
X172916667Y-93916667D01*
X172869047Y-94059524D01*
X172773809Y-94154762D01*
X172630952Y-94202381D01*
X172535714Y-94202381D01*
X173821429Y-93535714D02*
X173821429Y-94202381D01*
X173583333Y-93154762D02*
X173345238Y-93869048D01*
X173964286Y-93869048D01*
X187416667Y-90452381D02*
X187416667Y-91166667D01*
X187369047Y-91309524D01*
X187273809Y-91404762D01*
X187130952Y-91452381D01*
X187035714Y-91452381D01*
X188369048Y-90452381D02*
X187892857Y-90452381D01*
X187845238Y-90928571D01*
X187892857Y-90880952D01*
X187988095Y-90833333D01*
X188226191Y-90833333D01*
X188321429Y-90880952D01*
X188369048Y-90928571D01*
X188416667Y-91023810D01*
X188416667Y-91261905D01*
X188369048Y-91357143D01*
X188321429Y-91404762D01*
X188226191Y-91452381D01*
X187988095Y-91452381D01*
X187892857Y-91404762D01*
X187845238Y-91357143D01*
M02*
