G04 #@! TF.FileFunction,Copper,L1,Top,Signal*
%FSLAX46Y46*%
G04 Gerber Fmt 4.6, Leading zero omitted, Abs format (unit mm)*
G04 Created by KiCad (PCBNEW 4.0.6-e0-6349~53~ubuntu14.04.1) date Fri Oct 20 08:52:49 2017*
%MOMM*%
%LPD*%
G01*
G04 APERTURE LIST*
%ADD10C,0.100000*%
%ADD11R,5.000000X1.200000*%
%ADD12R,1.700000X1.700000*%
%ADD13O,1.700000X1.700000*%
%ADD14R,1.500000X2.400000*%
%ADD15R,1.500000X0.700000*%
%ADD16C,1.200000*%
%ADD17R,4.500000X4.850000*%
%ADD18R,2.300000X0.500000*%
%ADD19R,2.300000X0.700000*%
%ADD20R,3.200000X1.800000*%
%ADD21R,2.200000X2.100000*%
%ADD22C,2.100000*%
%ADD23R,3.800000X0.600000*%
%ADD24C,1.000000*%
%ADD25C,0.600000*%
%ADD26C,0.254000*%
G04 APERTURE END LIST*
D10*
D11*
X209296000Y-140335000D03*
X209296000Y-127635000D03*
X209296000Y-86995000D03*
X209296000Y-89535000D03*
X209296000Y-94615000D03*
X209296000Y-97155000D03*
X209296000Y-99695000D03*
X209296000Y-102235000D03*
X209296000Y-104775000D03*
X209296000Y-107315000D03*
X209296000Y-109855000D03*
X209296000Y-112395000D03*
X209296000Y-117475000D03*
X209296000Y-120015000D03*
X209296000Y-122555000D03*
X209296000Y-125095000D03*
X209296000Y-130175000D03*
X209296000Y-132715000D03*
X209296000Y-135255000D03*
X209296000Y-92075000D03*
X209296000Y-137795000D03*
X209296000Y-114935000D03*
D12*
X202565000Y-86995000D03*
D13*
X202565000Y-89535000D03*
X202565000Y-92075000D03*
X202565000Y-94615000D03*
X202565000Y-97155000D03*
X202565000Y-99695000D03*
X202565000Y-102235000D03*
X202565000Y-104775000D03*
X202565000Y-107315000D03*
X202565000Y-109855000D03*
X202565000Y-112395000D03*
X202565000Y-114935000D03*
X202565000Y-117475000D03*
X202565000Y-120015000D03*
X202565000Y-122555000D03*
X202565000Y-125095000D03*
X202565000Y-127635000D03*
X202565000Y-130175000D03*
X202565000Y-132715000D03*
X202565000Y-135255000D03*
X202565000Y-137795000D03*
X202565000Y-140335000D03*
D14*
X165481000Y-109093000D03*
D15*
X165481000Y-118583000D03*
X165481000Y-117313000D03*
X165481000Y-119853000D03*
X165481000Y-116043000D03*
X165481000Y-114773000D03*
X165481000Y-113503000D03*
X165481000Y-112233000D03*
X165481000Y-106023000D03*
X165481000Y-105023000D03*
X165481000Y-104023000D03*
X165481000Y-103023000D03*
X165481000Y-102023000D03*
X165481000Y-101023000D03*
D16*
X164281000Y-123973000D03*
X164281000Y-96973000D03*
D17*
X162881000Y-126823000D03*
X162881000Y-94123000D03*
D18*
X174420000Y-113520000D03*
X174420000Y-112250000D03*
X174420000Y-114790000D03*
X174420000Y-116060000D03*
X174420000Y-117330000D03*
X174420000Y-118600000D03*
X174420000Y-119870000D03*
D19*
X174420000Y-106040000D03*
X174420000Y-105040000D03*
X174420000Y-104040000D03*
X174420000Y-103040000D03*
X174420000Y-102040000D03*
X174420000Y-101040000D03*
D20*
X172720000Y-124290000D03*
X172720000Y-96690000D03*
D21*
X187491000Y-131840000D03*
D22*
X187191000Y-128890000D03*
D23*
X188341000Y-99695000D03*
X188341000Y-100965000D03*
X188341000Y-102235000D03*
X188341000Y-103505000D03*
X188341000Y-104775000D03*
X188341000Y-106045000D03*
X188341000Y-107315000D03*
X188341000Y-108585000D03*
X188341000Y-109855000D03*
X188341000Y-111125000D03*
X188341000Y-112395000D03*
X188341000Y-113665000D03*
X188341000Y-114935000D03*
X188341000Y-116205000D03*
X188341000Y-117475000D03*
X188341000Y-118745000D03*
X188341000Y-120015000D03*
X188341000Y-121285000D03*
X188341000Y-122555000D03*
X188341000Y-123825000D03*
X188341000Y-125095000D03*
X188341000Y-126365000D03*
D22*
X187191000Y-97170000D03*
D21*
X187491000Y-94220000D03*
D24*
X209296000Y-86995000D02*
X202565000Y-86995000D01*
D25*
X174420000Y-101040000D02*
X165498000Y-101040000D01*
X165498000Y-101040000D02*
X165481000Y-101023000D01*
X202565000Y-86995000D02*
X195453000Y-86995000D01*
X192278000Y-99695000D02*
X193802000Y-98171000D01*
X193802000Y-98171000D02*
X193802000Y-88646000D01*
X193802000Y-88646000D02*
X195453000Y-86995000D01*
X192278000Y-99695000D02*
X188341000Y-99695000D01*
X188341000Y-99695000D02*
X178966000Y-99695000D01*
X177621000Y-101040000D02*
X178943000Y-99718000D01*
X177621000Y-101040000D02*
X174420000Y-101040000D01*
X178966000Y-99695000D02*
X178943000Y-99718000D01*
X188318000Y-99718000D02*
X188341000Y-99695000D01*
X188214000Y-99822000D02*
X188341000Y-99695000D01*
D24*
X209296000Y-89535000D02*
X202565000Y-89535000D01*
D25*
X174420000Y-102040000D02*
X165498000Y-102040000D01*
X165498000Y-102040000D02*
X165481000Y-102023000D01*
X202565000Y-89535000D02*
X196088000Y-89535000D01*
X192532000Y-100965000D02*
X194945000Y-98552000D01*
X194945000Y-98552000D02*
X194945000Y-90678000D01*
X194945000Y-90678000D02*
X196088000Y-89535000D01*
X192532000Y-100965000D02*
X188341000Y-100965000D01*
X188341000Y-100965000D02*
X179324000Y-100965000D01*
X178249000Y-102040000D02*
X179324000Y-100965000D01*
X178249000Y-102040000D02*
X174420000Y-102040000D01*
D24*
X209296000Y-92075000D02*
X202565000Y-92075000D01*
D25*
X174420000Y-103040000D02*
X165498000Y-103040000D01*
X165498000Y-103040000D02*
X165481000Y-103023000D01*
X202565000Y-92075000D02*
X197866000Y-92075000D01*
X197866000Y-92075000D02*
X197612000Y-92329000D01*
X197612000Y-92329000D02*
X197485000Y-92329000D01*
X197485000Y-92329000D02*
X197485000Y-92456000D01*
X188341000Y-102235000D02*
X192913000Y-102235000D01*
X196342000Y-93599000D02*
X197485000Y-92456000D01*
X197485000Y-92456000D02*
X197866000Y-92075000D01*
X196342000Y-98806000D02*
X196342000Y-93599000D01*
X192913000Y-102235000D02*
X196342000Y-98806000D01*
X188341000Y-102235000D02*
X179959000Y-102235000D01*
X179154000Y-103040000D02*
X179959000Y-102235000D01*
X179154000Y-103040000D02*
X174420000Y-103040000D01*
D24*
X209296000Y-94615000D02*
X202565000Y-94615000D01*
D25*
X174420000Y-104040000D02*
X165498000Y-104040000D01*
X165498000Y-104040000D02*
X165481000Y-104023000D01*
X202565000Y-94615000D02*
X199517000Y-94615000D01*
X193421000Y-103505000D02*
X197739000Y-99187000D01*
X197739000Y-99187000D02*
X197739000Y-96393000D01*
X197739000Y-96393000D02*
X199517000Y-94615000D01*
X193421000Y-103505000D02*
X188341000Y-103505000D01*
X188341000Y-103505000D02*
X180721000Y-103505000D01*
X180186000Y-104040000D02*
X180721000Y-103505000D01*
X180186000Y-104040000D02*
X174420000Y-104040000D01*
D24*
X209296000Y-97155000D02*
X202565000Y-97155000D01*
D25*
X174420000Y-105040000D02*
X165498000Y-105040000D01*
X165498000Y-105040000D02*
X165481000Y-105023000D01*
X202565000Y-97155000D02*
X200406000Y-97155000D01*
X194056000Y-104775000D02*
X199263000Y-99568000D01*
X199263000Y-99568000D02*
X199263000Y-98298000D01*
X199263000Y-98298000D02*
X200406000Y-97155000D01*
X194056000Y-104775000D02*
X188341000Y-104775000D01*
X188341000Y-104775000D02*
X181610000Y-104775000D01*
X181345000Y-105040000D02*
X181610000Y-104775000D01*
X181345000Y-105040000D02*
X174420000Y-105040000D01*
D24*
X209296000Y-99695000D02*
X202565000Y-99695000D01*
D25*
X165481000Y-106023000D02*
X174403000Y-106023000D01*
X174403000Y-106023000D02*
X174420000Y-106040000D01*
X188341000Y-106045000D02*
X174425000Y-106045000D01*
X174425000Y-106045000D02*
X174420000Y-106040000D01*
X202565000Y-99695000D02*
X200914000Y-99695000D01*
X194564000Y-106045000D02*
X200914000Y-99695000D01*
X194564000Y-106045000D02*
X188341000Y-106045000D01*
X188336000Y-106040000D02*
X188341000Y-106045000D01*
D24*
X209296000Y-102235000D02*
X202565000Y-102235000D01*
D25*
X174420000Y-112250000D02*
X165498000Y-112250000D01*
X165498000Y-112250000D02*
X165481000Y-112233000D01*
X202565000Y-102235000D02*
X200279000Y-102235000D01*
X195199000Y-107315000D02*
X200279000Y-102235000D01*
X195199000Y-107315000D02*
X188341000Y-107315000D01*
X188341000Y-107315000D02*
X179959000Y-107315000D01*
X177401000Y-112250000D02*
X174420000Y-112250000D01*
X178816000Y-108458000D02*
X179959000Y-107315000D01*
X178816000Y-110835000D02*
X178816000Y-108458000D01*
X177401000Y-112250000D02*
X178816000Y-110835000D01*
D24*
X209296000Y-104775000D02*
X201803000Y-104775000D01*
X201803000Y-104775000D02*
X202565000Y-104775000D01*
D25*
X174420000Y-113520000D02*
X165498000Y-113520000D01*
X165498000Y-113520000D02*
X165481000Y-113503000D01*
X202565000Y-104775000D02*
X199517000Y-104775000D01*
X195707000Y-108585000D02*
X199517000Y-104775000D01*
X195707000Y-108585000D02*
X188341000Y-108585000D01*
X188341000Y-108585000D02*
X180975000Y-108585000D01*
X177818000Y-113520000D02*
X174420000Y-113520000D01*
X180213000Y-111125000D02*
X177818000Y-113520000D01*
X180213000Y-109347000D02*
X180213000Y-111125000D01*
X180975000Y-108585000D02*
X180213000Y-109347000D01*
D24*
X209296000Y-107315000D02*
X202565000Y-107315000D01*
D25*
X174420000Y-114790000D02*
X165498000Y-114790000D01*
X165498000Y-114790000D02*
X165481000Y-114773000D01*
X202565000Y-107315000D02*
X198755000Y-107315000D01*
X196215000Y-109855000D02*
X198755000Y-107315000D01*
X196215000Y-109855000D02*
X188341000Y-109855000D01*
X188341000Y-109855000D02*
X182245000Y-109855000D01*
X181356000Y-111633000D02*
X178199000Y-114790000D01*
X181356000Y-110744000D02*
X181356000Y-111633000D01*
X182245000Y-109855000D02*
X181356000Y-110744000D01*
X178199000Y-114790000D02*
X174420000Y-114790000D01*
D24*
X209296000Y-109855000D02*
X202565000Y-109855000D01*
D25*
X174420000Y-116060000D02*
X165498000Y-116060000D01*
X165498000Y-116060000D02*
X165481000Y-116043000D01*
X202565000Y-109855000D02*
X197993000Y-109855000D01*
X196723000Y-111125000D02*
X197993000Y-109855000D01*
X196723000Y-111125000D02*
X188341000Y-111125000D01*
X188341000Y-111125000D02*
X183769000Y-111125000D01*
X178834000Y-116060000D02*
X174420000Y-116060000D01*
X183769000Y-111125000D02*
X178834000Y-116060000D01*
D24*
X209296000Y-112395000D02*
X202565000Y-112395000D01*
D25*
X174420000Y-117330000D02*
X165498000Y-117330000D01*
X165498000Y-117330000D02*
X165481000Y-117313000D01*
X202565000Y-112395000D02*
X188341000Y-112395000D01*
X188341000Y-112395000D02*
X184531000Y-112395000D01*
X179596000Y-117330000D02*
X174420000Y-117330000D01*
X184531000Y-112395000D02*
X179596000Y-117330000D01*
D24*
X209296000Y-114935000D02*
X202565000Y-114935000D01*
D25*
X174420000Y-118600000D02*
X165498000Y-118600000D01*
X165498000Y-118600000D02*
X165481000Y-118583000D01*
X202565000Y-114935000D02*
X195961000Y-114935000D01*
X194691000Y-113665000D02*
X195961000Y-114935000D01*
X194691000Y-113665000D02*
X188341000Y-113665000D01*
X188341000Y-113665000D02*
X185039000Y-113665000D01*
X180104000Y-118600000D02*
X174420000Y-118600000D01*
X185039000Y-113665000D02*
X180104000Y-118600000D01*
D24*
X209296000Y-117475000D02*
X202565000Y-117475000D01*
D25*
X174420000Y-119870000D02*
X165498000Y-119870000D01*
X165498000Y-119870000D02*
X165481000Y-119853000D01*
X202565000Y-117475000D02*
X196850000Y-117475000D01*
X194310000Y-114935000D02*
X196850000Y-117475000D01*
X194310000Y-114935000D02*
X188341000Y-114935000D01*
X188341000Y-114935000D02*
X185547000Y-114935000D01*
X185547000Y-114935000D02*
X184912000Y-115570000D01*
X180612000Y-119870000D02*
X184912000Y-115570000D01*
X184912000Y-115570000D02*
X185547000Y-114935000D01*
X180612000Y-119870000D02*
X174420000Y-119870000D01*
D24*
X209296000Y-120015000D02*
X202565000Y-120015000D01*
D25*
X202565000Y-120015000D02*
X197739000Y-120015000D01*
X193929000Y-116205000D02*
X197739000Y-120015000D01*
X193929000Y-116205000D02*
X188341000Y-116205000D01*
D24*
X209296000Y-122555000D02*
X202565000Y-122555000D01*
D25*
X202565000Y-122555000D02*
X198628000Y-122555000D01*
X193548000Y-117475000D02*
X198628000Y-122555000D01*
X193548000Y-117475000D02*
X188341000Y-117475000D01*
D24*
X209296000Y-125095000D02*
X202565000Y-125095000D01*
D25*
X202565000Y-125095000D02*
X199517000Y-125095000D01*
X193167000Y-118745000D02*
X199517000Y-125095000D01*
X193167000Y-118745000D02*
X188341000Y-118745000D01*
D24*
X209296000Y-127635000D02*
X202565000Y-127635000D01*
D25*
X202565000Y-127635000D02*
X199898000Y-127635000D01*
X192913000Y-120015000D02*
X199263000Y-126365000D01*
X199263000Y-126365000D02*
X199263000Y-127000000D01*
X199263000Y-127000000D02*
X199898000Y-127635000D01*
X192913000Y-120015000D02*
X188341000Y-120015000D01*
D24*
X209296000Y-130175000D02*
X202565000Y-130175000D01*
D25*
X202565000Y-130175000D02*
X199009000Y-130175000D01*
X192659000Y-121285000D02*
X197866000Y-126492000D01*
X197866000Y-126492000D02*
X197866000Y-129032000D01*
X197866000Y-129032000D02*
X199009000Y-130175000D01*
X192659000Y-121285000D02*
X188341000Y-121285000D01*
D24*
X209296000Y-132715000D02*
X202565000Y-132715000D01*
D25*
X202565000Y-132715000D02*
X197993000Y-132715000D01*
X192532000Y-122555000D02*
X196723000Y-126746000D01*
X196723000Y-126746000D02*
X196723000Y-131445000D01*
X196723000Y-131445000D02*
X197993000Y-132715000D01*
X192532000Y-122555000D02*
X188341000Y-122555000D01*
D24*
X209296000Y-135255000D02*
X202565000Y-135255000D01*
D25*
X202565000Y-135255000D02*
X196469000Y-135255000D01*
X192278000Y-123825000D02*
X195453000Y-127000000D01*
X195453000Y-127000000D02*
X195453000Y-134239000D01*
X195453000Y-134239000D02*
X196469000Y-135255000D01*
X192278000Y-123825000D02*
X188341000Y-123825000D01*
D24*
X209296000Y-137795000D02*
X202565000Y-137795000D01*
D25*
X202565000Y-137795000D02*
X195326000Y-137795000D01*
X192024000Y-125095000D02*
X194183000Y-127254000D01*
X194183000Y-127254000D02*
X194183000Y-136652000D01*
X194183000Y-136652000D02*
X195326000Y-137795000D01*
X192024000Y-125095000D02*
X188341000Y-125095000D01*
D24*
X209296000Y-140335000D02*
X202565000Y-140335000D01*
D25*
X202565000Y-140335000D02*
X194691000Y-140335000D01*
X191897000Y-126365000D02*
X193040000Y-127508000D01*
X193040000Y-127508000D02*
X193040000Y-138684000D01*
X193040000Y-138684000D02*
X194691000Y-140335000D01*
X191897000Y-126365000D02*
X188341000Y-126365000D01*
D26*
G36*
X200913781Y-85321331D02*
X200745239Y-85568000D01*
X195453000Y-85568000D01*
X194906911Y-85676624D01*
X194443959Y-85985958D01*
X192792959Y-87636959D01*
X192483624Y-88099911D01*
X192375000Y-88646000D01*
X192375000Y-97579917D01*
X191686918Y-98268000D01*
X190350029Y-98268000D01*
X190241000Y-98245921D01*
X189101460Y-98245921D01*
X189367621Y-97604932D01*
X189368377Y-96738868D01*
X189166919Y-96251303D01*
X189229394Y-96225425D01*
X189546424Y-95908394D01*
X189718000Y-95494174D01*
X189718000Y-94874750D01*
X189436250Y-94593000D01*
X187864000Y-94593000D01*
X187864000Y-94613000D01*
X187118000Y-94613000D01*
X187118000Y-94593000D01*
X185545750Y-94593000D01*
X185264000Y-94874750D01*
X185264000Y-95494174D01*
X185417380Y-95864466D01*
X185346505Y-95935218D01*
X185014379Y-96735068D01*
X185013623Y-97601132D01*
X185289167Y-98268000D01*
X178966000Y-98268000D01*
X178419911Y-98376624D01*
X177956959Y-98685959D01*
X177933961Y-98708957D01*
X177933958Y-98708959D01*
X177029918Y-99613000D01*
X175925937Y-99613000D01*
X175570000Y-99540921D01*
X173270000Y-99540921D01*
X172886935Y-99613000D01*
X166670886Y-99613000D01*
X166231000Y-99523921D01*
X164731000Y-99523921D01*
X164313359Y-99602506D01*
X163929781Y-99849331D01*
X163672452Y-100225944D01*
X163581921Y-100673000D01*
X163581921Y-101373000D01*
X163611182Y-101528506D01*
X163581921Y-101673000D01*
X163581921Y-102373000D01*
X163611182Y-102528506D01*
X163581921Y-102673000D01*
X163581921Y-103373000D01*
X163611182Y-103528506D01*
X163581921Y-103673000D01*
X163581921Y-104373000D01*
X163611182Y-104528506D01*
X163581921Y-104673000D01*
X163581921Y-105373000D01*
X163611182Y-105528506D01*
X163581921Y-105673000D01*
X163581921Y-106373000D01*
X163660506Y-106790641D01*
X163883461Y-107137123D01*
X163672452Y-107445944D01*
X163581921Y-107893000D01*
X163581921Y-110293000D01*
X163660506Y-110710641D01*
X163906658Y-111093173D01*
X163672452Y-111435944D01*
X163581921Y-111883000D01*
X163581921Y-112583000D01*
X163637516Y-112878462D01*
X163581921Y-113153000D01*
X163581921Y-113853000D01*
X163637516Y-114148462D01*
X163581921Y-114423000D01*
X163581921Y-115123000D01*
X163637516Y-115418462D01*
X163581921Y-115693000D01*
X163581921Y-116393000D01*
X163637516Y-116688462D01*
X163581921Y-116963000D01*
X163581921Y-117663000D01*
X163637516Y-117958462D01*
X163581921Y-118233000D01*
X163581921Y-118933000D01*
X163637516Y-119228462D01*
X163581921Y-119503000D01*
X163581921Y-120203000D01*
X163660506Y-120620641D01*
X163907331Y-121004219D01*
X164283944Y-121261548D01*
X164731000Y-121352079D01*
X166231000Y-121352079D01*
X166523718Y-121297000D01*
X180612000Y-121297000D01*
X181158089Y-121188376D01*
X181621041Y-120879041D01*
X185291921Y-117208162D01*
X185291921Y-117775000D01*
X185357270Y-118122297D01*
X185291921Y-118445000D01*
X185291921Y-119045000D01*
X185357270Y-119392297D01*
X185291921Y-119715000D01*
X185291921Y-120315000D01*
X185357270Y-120662297D01*
X185291921Y-120985000D01*
X185291921Y-121585000D01*
X185357270Y-121932297D01*
X185291921Y-122255000D01*
X185291921Y-122855000D01*
X185357270Y-123202297D01*
X185291921Y-123525000D01*
X185291921Y-124125000D01*
X185357270Y-124472297D01*
X185291921Y-124795000D01*
X185291921Y-125395000D01*
X185357270Y-125742297D01*
X185291921Y-126065000D01*
X185291921Y-126665000D01*
X185370506Y-127082641D01*
X185585456Y-127416684D01*
X185346505Y-127655218D01*
X185014379Y-128455068D01*
X185013623Y-129321132D01*
X185344353Y-130121560D01*
X185417620Y-130194955D01*
X185264000Y-130565826D01*
X185264000Y-131185250D01*
X185545750Y-131467000D01*
X187118000Y-131467000D01*
X187118000Y-131447000D01*
X187864000Y-131447000D01*
X187864000Y-131467000D01*
X189436250Y-131467000D01*
X189718000Y-131185250D01*
X189718000Y-130565826D01*
X189546424Y-130151606D01*
X189229394Y-129834575D01*
X189166770Y-129808635D01*
X189367621Y-129324932D01*
X189368377Y-128458868D01*
X189101956Y-127814079D01*
X190241000Y-127814079D01*
X190358339Y-127792000D01*
X191305918Y-127792000D01*
X191613000Y-128099082D01*
X191613000Y-138684000D01*
X191712563Y-139184537D01*
X191721624Y-139230089D01*
X192030959Y-139693041D01*
X193400917Y-141063000D01*
X157397521Y-141063000D01*
X157432592Y-132494750D01*
X185264000Y-132494750D01*
X185264000Y-133114174D01*
X185435576Y-133528394D01*
X185752606Y-133845425D01*
X186166826Y-134017000D01*
X186836250Y-134017000D01*
X187118000Y-133735250D01*
X187118000Y-132213000D01*
X187864000Y-132213000D01*
X187864000Y-133735250D01*
X188145750Y-134017000D01*
X188815174Y-134017000D01*
X189229394Y-133845425D01*
X189546424Y-133528394D01*
X189718000Y-133114174D01*
X189718000Y-132494750D01*
X189436250Y-132213000D01*
X187864000Y-132213000D01*
X187118000Y-132213000D01*
X185545750Y-132213000D01*
X185264000Y-132494750D01*
X157432592Y-132494750D01*
X157465735Y-124398000D01*
X159481921Y-124398000D01*
X159481921Y-129248000D01*
X159560506Y-129665641D01*
X159807331Y-130049219D01*
X160183944Y-130306548D01*
X160631000Y-130397079D01*
X165131000Y-130397079D01*
X165548641Y-130318494D01*
X165932219Y-130071669D01*
X166189548Y-129695056D01*
X166280079Y-129248000D01*
X166280079Y-124398000D01*
X166201494Y-123980359D01*
X166008256Y-123680058D01*
X166008299Y-123630986D01*
X165908726Y-123390000D01*
X169970921Y-123390000D01*
X169970921Y-125190000D01*
X170049506Y-125607641D01*
X170296331Y-125991219D01*
X170672944Y-126248548D01*
X171120000Y-126339079D01*
X174320000Y-126339079D01*
X174737641Y-126260494D01*
X175121219Y-126013669D01*
X175378548Y-125637056D01*
X175469079Y-125190000D01*
X175469079Y-123390000D01*
X175390494Y-122972359D01*
X175143669Y-122588781D01*
X174767056Y-122331452D01*
X174320000Y-122240921D01*
X171120000Y-122240921D01*
X170702359Y-122319506D01*
X170318781Y-122566331D01*
X170061452Y-122942944D01*
X169970921Y-123390000D01*
X165908726Y-123390000D01*
X165745933Y-122996011D01*
X165260544Y-122509774D01*
X164626029Y-122246300D01*
X163938986Y-122245701D01*
X163304011Y-122508067D01*
X162817774Y-122993456D01*
X162711696Y-123248921D01*
X160631000Y-123248921D01*
X160213359Y-123327506D01*
X159829781Y-123574331D01*
X159572452Y-123950944D01*
X159481921Y-124398000D01*
X157465735Y-124398000D01*
X157599584Y-91698000D01*
X159481921Y-91698000D01*
X159481921Y-96548000D01*
X159560506Y-96965641D01*
X159807331Y-97349219D01*
X160183944Y-97606548D01*
X160631000Y-97697079D01*
X162711567Y-97697079D01*
X162816067Y-97949989D01*
X163301456Y-98436226D01*
X163935971Y-98699700D01*
X164623014Y-98700299D01*
X165257989Y-98437933D01*
X165744226Y-97952544D01*
X166007700Y-97318029D01*
X166007750Y-97261126D01*
X166189548Y-96995056D01*
X166280079Y-96548000D01*
X166280079Y-95790000D01*
X169970921Y-95790000D01*
X169970921Y-97590000D01*
X170049506Y-98007641D01*
X170296331Y-98391219D01*
X170672944Y-98648548D01*
X171120000Y-98739079D01*
X174320000Y-98739079D01*
X174737641Y-98660494D01*
X175121219Y-98413669D01*
X175378548Y-98037056D01*
X175469079Y-97590000D01*
X175469079Y-95790000D01*
X175390494Y-95372359D01*
X175143669Y-94988781D01*
X174767056Y-94731452D01*
X174320000Y-94640921D01*
X171120000Y-94640921D01*
X170702359Y-94719506D01*
X170318781Y-94966331D01*
X170061452Y-95342944D01*
X169970921Y-95790000D01*
X166280079Y-95790000D01*
X166280079Y-92945826D01*
X185264000Y-92945826D01*
X185264000Y-93565250D01*
X185545750Y-93847000D01*
X187118000Y-93847000D01*
X187118000Y-92324750D01*
X187864000Y-92324750D01*
X187864000Y-93847000D01*
X189436250Y-93847000D01*
X189718000Y-93565250D01*
X189718000Y-92945826D01*
X189546424Y-92531606D01*
X189229394Y-92214575D01*
X188815174Y-92043000D01*
X188145750Y-92043000D01*
X187864000Y-92324750D01*
X187118000Y-92324750D01*
X186836250Y-92043000D01*
X186166826Y-92043000D01*
X185752606Y-92214575D01*
X185435576Y-92531606D01*
X185264000Y-92945826D01*
X166280079Y-92945826D01*
X166280079Y-91698000D01*
X166201494Y-91280359D01*
X165954669Y-90896781D01*
X165578056Y-90639452D01*
X165131000Y-90548921D01*
X160631000Y-90548921D01*
X160213359Y-90627506D01*
X159829781Y-90874331D01*
X159572452Y-91250944D01*
X159481921Y-91698000D01*
X157599584Y-91698000D01*
X157626481Y-85127000D01*
X201215781Y-85127000D01*
X200913781Y-85321331D01*
X200913781Y-85321331D01*
G37*
X200913781Y-85321331D02*
X200745239Y-85568000D01*
X195453000Y-85568000D01*
X194906911Y-85676624D01*
X194443959Y-85985958D01*
X192792959Y-87636959D01*
X192483624Y-88099911D01*
X192375000Y-88646000D01*
X192375000Y-97579917D01*
X191686918Y-98268000D01*
X190350029Y-98268000D01*
X190241000Y-98245921D01*
X189101460Y-98245921D01*
X189367621Y-97604932D01*
X189368377Y-96738868D01*
X189166919Y-96251303D01*
X189229394Y-96225425D01*
X189546424Y-95908394D01*
X189718000Y-95494174D01*
X189718000Y-94874750D01*
X189436250Y-94593000D01*
X187864000Y-94593000D01*
X187864000Y-94613000D01*
X187118000Y-94613000D01*
X187118000Y-94593000D01*
X185545750Y-94593000D01*
X185264000Y-94874750D01*
X185264000Y-95494174D01*
X185417380Y-95864466D01*
X185346505Y-95935218D01*
X185014379Y-96735068D01*
X185013623Y-97601132D01*
X185289167Y-98268000D01*
X178966000Y-98268000D01*
X178419911Y-98376624D01*
X177956959Y-98685959D01*
X177933961Y-98708957D01*
X177933958Y-98708959D01*
X177029918Y-99613000D01*
X175925937Y-99613000D01*
X175570000Y-99540921D01*
X173270000Y-99540921D01*
X172886935Y-99613000D01*
X166670886Y-99613000D01*
X166231000Y-99523921D01*
X164731000Y-99523921D01*
X164313359Y-99602506D01*
X163929781Y-99849331D01*
X163672452Y-100225944D01*
X163581921Y-100673000D01*
X163581921Y-101373000D01*
X163611182Y-101528506D01*
X163581921Y-101673000D01*
X163581921Y-102373000D01*
X163611182Y-102528506D01*
X163581921Y-102673000D01*
X163581921Y-103373000D01*
X163611182Y-103528506D01*
X163581921Y-103673000D01*
X163581921Y-104373000D01*
X163611182Y-104528506D01*
X163581921Y-104673000D01*
X163581921Y-105373000D01*
X163611182Y-105528506D01*
X163581921Y-105673000D01*
X163581921Y-106373000D01*
X163660506Y-106790641D01*
X163883461Y-107137123D01*
X163672452Y-107445944D01*
X163581921Y-107893000D01*
X163581921Y-110293000D01*
X163660506Y-110710641D01*
X163906658Y-111093173D01*
X163672452Y-111435944D01*
X163581921Y-111883000D01*
X163581921Y-112583000D01*
X163637516Y-112878462D01*
X163581921Y-113153000D01*
X163581921Y-113853000D01*
X163637516Y-114148462D01*
X163581921Y-114423000D01*
X163581921Y-115123000D01*
X163637516Y-115418462D01*
X163581921Y-115693000D01*
X163581921Y-116393000D01*
X163637516Y-116688462D01*
X163581921Y-116963000D01*
X163581921Y-117663000D01*
X163637516Y-117958462D01*
X163581921Y-118233000D01*
X163581921Y-118933000D01*
X163637516Y-119228462D01*
X163581921Y-119503000D01*
X163581921Y-120203000D01*
X163660506Y-120620641D01*
X163907331Y-121004219D01*
X164283944Y-121261548D01*
X164731000Y-121352079D01*
X166231000Y-121352079D01*
X166523718Y-121297000D01*
X180612000Y-121297000D01*
X181158089Y-121188376D01*
X181621041Y-120879041D01*
X185291921Y-117208162D01*
X185291921Y-117775000D01*
X185357270Y-118122297D01*
X185291921Y-118445000D01*
X185291921Y-119045000D01*
X185357270Y-119392297D01*
X185291921Y-119715000D01*
X185291921Y-120315000D01*
X185357270Y-120662297D01*
X185291921Y-120985000D01*
X185291921Y-121585000D01*
X185357270Y-121932297D01*
X185291921Y-122255000D01*
X185291921Y-122855000D01*
X185357270Y-123202297D01*
X185291921Y-123525000D01*
X185291921Y-124125000D01*
X185357270Y-124472297D01*
X185291921Y-124795000D01*
X185291921Y-125395000D01*
X185357270Y-125742297D01*
X185291921Y-126065000D01*
X185291921Y-126665000D01*
X185370506Y-127082641D01*
X185585456Y-127416684D01*
X185346505Y-127655218D01*
X185014379Y-128455068D01*
X185013623Y-129321132D01*
X185344353Y-130121560D01*
X185417620Y-130194955D01*
X185264000Y-130565826D01*
X185264000Y-131185250D01*
X185545750Y-131467000D01*
X187118000Y-131467000D01*
X187118000Y-131447000D01*
X187864000Y-131447000D01*
X187864000Y-131467000D01*
X189436250Y-131467000D01*
X189718000Y-131185250D01*
X189718000Y-130565826D01*
X189546424Y-130151606D01*
X189229394Y-129834575D01*
X189166770Y-129808635D01*
X189367621Y-129324932D01*
X189368377Y-128458868D01*
X189101956Y-127814079D01*
X190241000Y-127814079D01*
X190358339Y-127792000D01*
X191305918Y-127792000D01*
X191613000Y-128099082D01*
X191613000Y-138684000D01*
X191712563Y-139184537D01*
X191721624Y-139230089D01*
X192030959Y-139693041D01*
X193400917Y-141063000D01*
X157397521Y-141063000D01*
X157432592Y-132494750D01*
X185264000Y-132494750D01*
X185264000Y-133114174D01*
X185435576Y-133528394D01*
X185752606Y-133845425D01*
X186166826Y-134017000D01*
X186836250Y-134017000D01*
X187118000Y-133735250D01*
X187118000Y-132213000D01*
X187864000Y-132213000D01*
X187864000Y-133735250D01*
X188145750Y-134017000D01*
X188815174Y-134017000D01*
X189229394Y-133845425D01*
X189546424Y-133528394D01*
X189718000Y-133114174D01*
X189718000Y-132494750D01*
X189436250Y-132213000D01*
X187864000Y-132213000D01*
X187118000Y-132213000D01*
X185545750Y-132213000D01*
X185264000Y-132494750D01*
X157432592Y-132494750D01*
X157465735Y-124398000D01*
X159481921Y-124398000D01*
X159481921Y-129248000D01*
X159560506Y-129665641D01*
X159807331Y-130049219D01*
X160183944Y-130306548D01*
X160631000Y-130397079D01*
X165131000Y-130397079D01*
X165548641Y-130318494D01*
X165932219Y-130071669D01*
X166189548Y-129695056D01*
X166280079Y-129248000D01*
X166280079Y-124398000D01*
X166201494Y-123980359D01*
X166008256Y-123680058D01*
X166008299Y-123630986D01*
X165908726Y-123390000D01*
X169970921Y-123390000D01*
X169970921Y-125190000D01*
X170049506Y-125607641D01*
X170296331Y-125991219D01*
X170672944Y-126248548D01*
X171120000Y-126339079D01*
X174320000Y-126339079D01*
X174737641Y-126260494D01*
X175121219Y-126013669D01*
X175378548Y-125637056D01*
X175469079Y-125190000D01*
X175469079Y-123390000D01*
X175390494Y-122972359D01*
X175143669Y-122588781D01*
X174767056Y-122331452D01*
X174320000Y-122240921D01*
X171120000Y-122240921D01*
X170702359Y-122319506D01*
X170318781Y-122566331D01*
X170061452Y-122942944D01*
X169970921Y-123390000D01*
X165908726Y-123390000D01*
X165745933Y-122996011D01*
X165260544Y-122509774D01*
X164626029Y-122246300D01*
X163938986Y-122245701D01*
X163304011Y-122508067D01*
X162817774Y-122993456D01*
X162711696Y-123248921D01*
X160631000Y-123248921D01*
X160213359Y-123327506D01*
X159829781Y-123574331D01*
X159572452Y-123950944D01*
X159481921Y-124398000D01*
X157465735Y-124398000D01*
X157599584Y-91698000D01*
X159481921Y-91698000D01*
X159481921Y-96548000D01*
X159560506Y-96965641D01*
X159807331Y-97349219D01*
X160183944Y-97606548D01*
X160631000Y-97697079D01*
X162711567Y-97697079D01*
X162816067Y-97949989D01*
X163301456Y-98436226D01*
X163935971Y-98699700D01*
X164623014Y-98700299D01*
X165257989Y-98437933D01*
X165744226Y-97952544D01*
X166007700Y-97318029D01*
X166007750Y-97261126D01*
X166189548Y-96995056D01*
X166280079Y-96548000D01*
X166280079Y-95790000D01*
X169970921Y-95790000D01*
X169970921Y-97590000D01*
X170049506Y-98007641D01*
X170296331Y-98391219D01*
X170672944Y-98648548D01*
X171120000Y-98739079D01*
X174320000Y-98739079D01*
X174737641Y-98660494D01*
X175121219Y-98413669D01*
X175378548Y-98037056D01*
X175469079Y-97590000D01*
X175469079Y-95790000D01*
X175390494Y-95372359D01*
X175143669Y-94988781D01*
X174767056Y-94731452D01*
X174320000Y-94640921D01*
X171120000Y-94640921D01*
X170702359Y-94719506D01*
X170318781Y-94966331D01*
X170061452Y-95342944D01*
X169970921Y-95790000D01*
X166280079Y-95790000D01*
X166280079Y-92945826D01*
X185264000Y-92945826D01*
X185264000Y-93565250D01*
X185545750Y-93847000D01*
X187118000Y-93847000D01*
X187118000Y-92324750D01*
X187864000Y-92324750D01*
X187864000Y-93847000D01*
X189436250Y-93847000D01*
X189718000Y-93565250D01*
X189718000Y-92945826D01*
X189546424Y-92531606D01*
X189229394Y-92214575D01*
X188815174Y-92043000D01*
X188145750Y-92043000D01*
X187864000Y-92324750D01*
X187118000Y-92324750D01*
X186836250Y-92043000D01*
X186166826Y-92043000D01*
X185752606Y-92214575D01*
X185435576Y-92531606D01*
X185264000Y-92945826D01*
X166280079Y-92945826D01*
X166280079Y-91698000D01*
X166201494Y-91280359D01*
X165954669Y-90896781D01*
X165578056Y-90639452D01*
X165131000Y-90548921D01*
X160631000Y-90548921D01*
X160213359Y-90627506D01*
X159829781Y-90874331D01*
X159572452Y-91250944D01*
X159481921Y-91698000D01*
X157599584Y-91698000D01*
X157626481Y-85127000D01*
X201215781Y-85127000D01*
X200913781Y-85321331D01*
M02*
