M48
;DRILL file {KiCad 4.0.6-e0-6349~53~ubuntu14.04.1} date Fri Oct 20 08:52:53 2017
;FORMAT={-:-/ absolute / inch / decimal}
FMAT,2
INCH,TZ
T1C0.035
T2C0.039
T3C0.091
%
G90
G05
M72
T1
X6.4678Y-3.8178
X6.4678Y-4.8808
T2
X7.975Y-3.425
X7.975Y-3.525
X7.975Y-3.625
X7.975Y-3.725
X7.975Y-3.825
X7.975Y-3.925
X7.975Y-4.025
X7.975Y-4.125
X7.975Y-4.225
X7.975Y-4.325
X7.975Y-4.425
X7.975Y-4.525
X7.975Y-4.625
X7.975Y-4.725
X7.975Y-4.825
X7.975Y-4.925
X7.975Y-5.025
X7.975Y-5.125
X7.975Y-5.225
X7.975Y-5.325
X7.975Y-5.425
X7.975Y-5.525
T3
X6.4126Y-3.7056
X6.4126Y-4.993
T0
M30
