M48
;DRILL file {KiCad 4.0.6-e0-6349~53~ubuntu14.04.1} date Thu Nov 23 15:36:33 2017
;FORMAT={-:-/ absolute / metric / decimal}
FMAT,2
METRIC,TZ
T1C0.400
T2C0.500
T3C0.700
T4C0.800
T5C1.000
T6C1.001
T7C1.016
%
G90
G05
M71
T1
X152.679Y-66.726
X153.822Y-121.412
X156.007Y-110.642
X156.007Y-113.182
X156.007Y-115.621
X156.007Y-118.364
X156.058Y-108.153
X156.159Y-105.512
X164.719Y-132.969
X164.744Y-124.739
X164.973Y-121.031
X165.633Y-92.481
X167.234Y-133.02
X167.259Y-123.19
X167.513Y-119.253
X169.799Y-132.969
X170.79Y-112.979
X172.466Y-133.096
X172.669Y-66.827
X175.006Y-119.761
X179.07Y-94.107
X179.324Y-119.431
X180.823Y-56.998
X183.959Y-122.555
X189.154Y-127.965
X190.627Y-85.852
X190.729Y-57.074
X190.754Y-95.123
X192.786Y-56.21
X197.358Y-60.198
X197.612Y-62.738
X201.93Y-91.567
X202.057Y-89.027
X208.026Y-66.269
X210.21Y-92.786
X211.582Y-112.395
X215.544Y-84.176
X215.9Y-107.95
X218.008Y-80.442
X218.186Y-103.378
X218.745Y-83.058
X223.545Y-62.738
X224.663Y-60.833
X225.806Y-63.449
X229.616Y-62.484
T2
X210.439Y-60.782
X210.439Y-62.682
T3
X207.573Y-58.179
X212.573Y-56.579
X217.573Y-58.179
X218.586Y-134.33
X224.086Y-134.33
T4
X173.736Y-96.339
X173.736Y-101.219
X182.88Y-68.834
X182.88Y-71.374
X182.88Y-73.914
X182.88Y-76.454
X182.88Y-78.994
X182.88Y-81.534
X182.88Y-84.074
X182.88Y-86.614
X182.88Y-89.154
X182.88Y-91.694
X182.88Y-94.234
X182.88Y-96.774
X182.88Y-99.314
X182.88Y-101.854
X182.88Y-104.394
X182.88Y-106.934
X182.88Y-109.474
X182.88Y-112.014
X182.88Y-114.554
X182.88Y-117.094
X198.12Y-68.834
X198.12Y-71.374
X198.12Y-73.914
X198.12Y-76.454
X198.12Y-78.994
X198.12Y-81.534
X198.12Y-84.074
X198.12Y-86.614
X198.12Y-89.154
X198.12Y-91.694
X198.12Y-94.234
X198.12Y-96.774
X198.12Y-99.314
X198.12Y-101.854
X198.12Y-104.394
X198.12Y-106.934
X198.12Y-109.474
X198.12Y-112.014
X198.12Y-114.554
X198.12Y-117.094
X210.464Y-130.759
X210.464Y-133.299
X226.441Y-124.841
X226.441Y-127.381
T5
X164.744Y-127.813
X164.744Y-130.353
X167.284Y-127.813
X167.284Y-130.353
X169.824Y-127.813
X169.824Y-130.353
X171.958Y-60.579
X171.958Y-63.119
X172.364Y-127.813
X172.364Y-130.353
X174.904Y-127.813
X174.904Y-130.353
X230.505Y-122.301
X230.505Y-124.841
T6
X166.649Y-59.893
X166.649Y-63.068
T7
X159.487Y-67.475
X159.487Y-70.015
X159.487Y-72.555
X159.487Y-75.095
X159.487Y-77.635
X159.487Y-80.175
X159.487Y-82.715
X159.487Y-85.255
X159.487Y-87.795
X159.487Y-90.335
X159.487Y-92.875
X159.487Y-95.415
X159.487Y-97.955
X159.487Y-100.495
X159.487Y-103.035
X159.487Y-105.575
X159.487Y-108.115
X159.487Y-110.655
X159.487Y-113.195
X159.487Y-115.735
X159.487Y-118.275
X185.293Y-128.016
X185.293Y-130.556
X185.293Y-133.096
X189.23Y-60.198
X189.23Y-62.738
X191.77Y-60.198
X191.77Y-62.738
X194.31Y-60.198
X194.31Y-62.738
X222.631Y-67.818
X222.631Y-70.358
X222.631Y-72.898
X222.631Y-75.438
X222.631Y-77.978
X222.631Y-80.518
X222.631Y-83.058
X222.631Y-85.598
X222.631Y-88.138
X222.631Y-90.678
X222.631Y-93.218
X222.631Y-95.758
X222.631Y-98.298
X222.631Y-100.838
X222.631Y-103.378
X222.631Y-105.918
X222.631Y-108.458
X222.631Y-110.998
X222.631Y-113.538
X222.631Y-116.078
X222.631Y-118.618
T0
M30
