%FSLAX45Y45*%
G04 Gerber Fmt 4.5, Leading zero omitted, Abs format (unit mm)*
G04 Created by KiCad (PCBNEW 4.0.6-e0-6349~53~ubuntu14.04.1) date Thu Nov 23 15:36:34 2017*
%MOMM*%
%LPD*%
G01*
G04 APERTURE LIST*
%ADD10C,0.127000*%
%ADD11C,0.200000*%
%ADD12C,0.300000*%
G04 APERTURE END LIST*
D10*
D11*
X15247940Y-6652580D02*
X15287940Y-6692580D01*
X15287940Y-6652580D02*
X15247940Y-6692580D01*
X15362240Y-12121200D02*
X15402240Y-12161200D01*
X15402240Y-12121200D02*
X15362240Y-12161200D01*
X15580680Y-11044240D02*
X15620680Y-11084240D01*
X15620680Y-11044240D02*
X15580680Y-11084240D01*
X15580680Y-11298240D02*
X15620680Y-11338240D01*
X15620680Y-11298240D02*
X15580680Y-11338240D01*
X15580680Y-11542080D02*
X15620680Y-11582080D01*
X15620680Y-11542080D02*
X15580680Y-11582080D01*
X15580680Y-11816400D02*
X15620680Y-11856400D01*
X15620680Y-11816400D02*
X15580680Y-11856400D01*
X15585760Y-10795320D02*
X15625760Y-10835320D01*
X15625760Y-10795320D02*
X15585760Y-10835320D01*
X15595920Y-10531160D02*
X15635920Y-10571160D01*
X15635920Y-10531160D02*
X15595920Y-10571160D01*
X16451900Y-13276900D02*
X16491900Y-13316900D01*
X16491900Y-13276900D02*
X16451900Y-13316900D01*
X16454440Y-12453940D02*
X16494440Y-12493940D01*
X16494440Y-12453940D02*
X16454440Y-12493940D01*
X16477300Y-12083100D02*
X16517300Y-12123100D01*
X16517300Y-12083100D02*
X16477300Y-12123100D01*
X16543340Y-9228140D02*
X16583340Y-9268140D01*
X16583340Y-9228140D02*
X16543340Y-9268140D01*
X16703360Y-13281980D02*
X16743360Y-13321980D01*
X16743360Y-13281980D02*
X16703360Y-13321980D01*
X16705900Y-12299000D02*
X16745900Y-12339000D01*
X16745900Y-12299000D02*
X16705900Y-12339000D01*
X16731300Y-11905300D02*
X16771300Y-11945300D01*
X16771300Y-11905300D02*
X16731300Y-11945300D01*
X16959900Y-13276900D02*
X16999900Y-13316900D01*
X16999900Y-13276900D02*
X16959900Y-13316900D01*
X17058960Y-11277920D02*
X17098960Y-11317920D01*
X17098960Y-11277920D02*
X17058960Y-11317920D01*
X17226600Y-13289600D02*
X17266600Y-13329600D01*
X17266600Y-13289600D02*
X17226600Y-13329600D01*
X17246920Y-6662740D02*
X17286920Y-6702740D01*
X17286920Y-6662740D02*
X17246920Y-6702740D01*
X17480600Y-11956100D02*
X17520600Y-11996100D01*
X17520600Y-11956100D02*
X17480600Y-11996100D01*
X17887000Y-9390700D02*
X17927000Y-9430700D01*
X17927000Y-9390700D02*
X17887000Y-9430700D01*
X17912400Y-11923080D02*
X17952400Y-11963080D01*
X17952400Y-11923080D02*
X17912400Y-11963080D01*
X18062260Y-5679760D02*
X18102260Y-5719760D01*
X18102260Y-5679760D02*
X18062260Y-5719760D01*
X18375950Y-12235500D02*
X18415950Y-12275500D01*
X18415950Y-12235500D02*
X18375950Y-12275500D01*
X18895380Y-12776520D02*
X18935380Y-12816520D01*
X18935380Y-12776520D02*
X18895380Y-12816520D01*
X19042700Y-8565200D02*
X19082700Y-8605200D01*
X19082700Y-8565200D02*
X19042700Y-8605200D01*
X19052860Y-5687380D02*
X19092860Y-5727380D01*
X19092860Y-5687380D02*
X19052860Y-5727380D01*
X19055400Y-9492300D02*
X19095400Y-9532300D01*
X19095400Y-9492300D02*
X19055400Y-9532300D01*
X19258600Y-5601020D02*
X19298600Y-5641020D01*
X19298600Y-5601020D02*
X19258600Y-5641020D01*
X19715800Y-5999800D02*
X19755800Y-6039800D01*
X19755800Y-5999800D02*
X19715800Y-6039800D01*
X19741200Y-6253800D02*
X19781200Y-6293800D01*
X19781200Y-6253800D02*
X19741200Y-6293800D01*
X20173000Y-9136700D02*
X20213000Y-9176700D01*
X20213000Y-9136700D02*
X20173000Y-9176700D01*
X20185700Y-8882700D02*
X20225700Y-8922700D01*
X20225700Y-8882700D02*
X20185700Y-8922700D01*
X20782600Y-6606860D02*
X20822600Y-6646860D01*
X20822600Y-6606860D02*
X20782600Y-6646860D01*
X21001040Y-9258620D02*
X21041040Y-9298620D01*
X21041040Y-9258620D02*
X21001040Y-9298620D01*
X21138200Y-11219500D02*
X21178200Y-11259500D01*
X21178200Y-11219500D02*
X21138200Y-11259500D01*
X21534440Y-8397560D02*
X21574440Y-8437560D01*
X21574440Y-8397560D02*
X21534440Y-8437560D01*
X21570000Y-10775000D02*
X21610000Y-10815000D01*
X21610000Y-10775000D02*
X21570000Y-10815000D01*
X21780820Y-8024180D02*
X21820820Y-8064180D01*
X21820820Y-8024180D02*
X21780820Y-8064180D01*
X21798600Y-10317800D02*
X21838600Y-10357800D01*
X21838600Y-10317800D02*
X21798600Y-10357800D01*
X21854480Y-8285800D02*
X21894480Y-8325800D01*
X21894480Y-8285800D02*
X21854480Y-8325800D01*
X22334540Y-6253800D02*
X22374540Y-6293800D01*
X22374540Y-6253800D02*
X22334540Y-6293800D01*
X22446300Y-6063300D02*
X22486300Y-6103300D01*
X22486300Y-6063300D02*
X22446300Y-6103300D01*
X22560600Y-6324920D02*
X22600600Y-6364920D01*
X22600600Y-6324920D02*
X22560600Y-6364920D01*
X22941600Y-6228400D02*
X22981600Y-6268400D01*
X22981600Y-6228400D02*
X22941600Y-6268400D01*
X21068900Y-6078220D02*
G75*
G03X21068900Y-6078220I-25000J0D01*
G01*
X21068900Y-6268220D02*
G75*
G03X21068900Y-6268220I-25000J0D01*
G01*
X20757260Y-5782860D02*
X20757260Y-5852860D01*
X20722260Y-5817860D02*
X20792260Y-5817860D01*
X21257260Y-5622860D02*
X21257260Y-5692860D01*
X21222260Y-5657860D02*
X21292260Y-5657860D01*
X21757260Y-5782860D02*
X21757260Y-5852860D01*
X21722260Y-5817860D02*
X21792260Y-5817860D01*
X21858560Y-13398020D02*
X21858560Y-13468020D01*
X21823560Y-13433020D02*
X21893560Y-13433020D01*
X22408560Y-13398020D02*
X22408560Y-13468020D01*
X22373560Y-13433020D02*
X22443560Y-13433020D01*
X17401885Y-9662185D02*
X17401885Y-9605616D01*
X17345316Y-9605616D01*
X17345316Y-9662185D01*
X17401885Y-9662185D01*
X17401885Y-10150185D02*
X17401885Y-10093616D01*
X17345316Y-10093616D01*
X17345316Y-10150185D01*
X17401885Y-10150185D01*
X18316285Y-6911684D02*
X18316285Y-6855115D01*
X18259716Y-6855115D01*
X18259716Y-6911684D01*
X18316285Y-6911684D01*
X18316285Y-7165684D02*
X18316285Y-7109115D01*
X18259716Y-7109115D01*
X18259716Y-7165684D01*
X18316285Y-7165684D01*
X18316285Y-7419684D02*
X18316285Y-7363115D01*
X18259716Y-7363115D01*
X18259716Y-7419684D01*
X18316285Y-7419684D01*
X18316285Y-7673684D02*
X18316285Y-7617115D01*
X18259716Y-7617115D01*
X18259716Y-7673684D01*
X18316285Y-7673684D01*
X18316285Y-7927684D02*
X18316285Y-7871115D01*
X18259716Y-7871115D01*
X18259716Y-7927684D01*
X18316285Y-7927684D01*
X18316285Y-8181684D02*
X18316285Y-8125115D01*
X18259716Y-8125115D01*
X18259716Y-8181684D01*
X18316285Y-8181684D01*
X18316285Y-8435685D02*
X18316285Y-8379115D01*
X18259716Y-8379115D01*
X18259716Y-8435685D01*
X18316285Y-8435685D01*
X18316285Y-8689685D02*
X18316285Y-8633116D01*
X18259716Y-8633116D01*
X18259716Y-8689685D01*
X18316285Y-8689685D01*
X18316285Y-8943685D02*
X18316285Y-8887116D01*
X18259716Y-8887116D01*
X18259716Y-8943685D01*
X18316285Y-8943685D01*
X18316285Y-9197685D02*
X18316285Y-9141116D01*
X18259716Y-9141116D01*
X18259716Y-9197685D01*
X18316285Y-9197685D01*
X18316285Y-9451685D02*
X18316285Y-9395116D01*
X18259716Y-9395116D01*
X18259716Y-9451685D01*
X18316285Y-9451685D01*
X18316285Y-9705685D02*
X18316285Y-9649116D01*
X18259716Y-9649116D01*
X18259716Y-9705685D01*
X18316285Y-9705685D01*
X18316285Y-9959685D02*
X18316285Y-9903116D01*
X18259716Y-9903116D01*
X18259716Y-9959685D01*
X18316285Y-9959685D01*
X18316285Y-10213685D02*
X18316285Y-10157116D01*
X18259716Y-10157116D01*
X18259716Y-10213685D01*
X18316285Y-10213685D01*
X18316285Y-10467685D02*
X18316285Y-10411116D01*
X18259716Y-10411116D01*
X18259716Y-10467685D01*
X18316285Y-10467685D01*
X18316285Y-10721685D02*
X18316285Y-10665116D01*
X18259716Y-10665116D01*
X18259716Y-10721685D01*
X18316285Y-10721685D01*
X18316285Y-10975685D02*
X18316285Y-10919116D01*
X18259716Y-10919116D01*
X18259716Y-10975685D01*
X18316285Y-10975685D01*
X18316285Y-11229684D02*
X18316285Y-11173116D01*
X18259716Y-11173116D01*
X18259716Y-11229684D01*
X18316285Y-11229684D01*
X18316285Y-11483684D02*
X18316285Y-11427115D01*
X18259716Y-11427115D01*
X18259716Y-11483684D01*
X18316285Y-11483684D01*
X18316285Y-11737684D02*
X18316285Y-11681115D01*
X18259716Y-11681115D01*
X18259716Y-11737684D01*
X18316285Y-11737684D01*
X19840285Y-6911684D02*
X19840285Y-6855115D01*
X19783716Y-6855115D01*
X19783716Y-6911684D01*
X19840285Y-6911684D01*
X19840285Y-7165684D02*
X19840285Y-7109115D01*
X19783716Y-7109115D01*
X19783716Y-7165684D01*
X19840285Y-7165684D01*
X19840285Y-7419684D02*
X19840285Y-7363115D01*
X19783716Y-7363115D01*
X19783716Y-7419684D01*
X19840285Y-7419684D01*
X19840285Y-7673684D02*
X19840285Y-7617115D01*
X19783716Y-7617115D01*
X19783716Y-7673684D01*
X19840285Y-7673684D01*
X19840285Y-7927684D02*
X19840285Y-7871115D01*
X19783716Y-7871115D01*
X19783716Y-7927684D01*
X19840285Y-7927684D01*
X19840285Y-8181684D02*
X19840285Y-8125115D01*
X19783716Y-8125115D01*
X19783716Y-8181684D01*
X19840285Y-8181684D01*
X19840285Y-8435685D02*
X19840285Y-8379115D01*
X19783716Y-8379115D01*
X19783716Y-8435685D01*
X19840285Y-8435685D01*
X19840285Y-8689685D02*
X19840285Y-8633116D01*
X19783716Y-8633116D01*
X19783716Y-8689685D01*
X19840285Y-8689685D01*
X19840285Y-8943685D02*
X19840285Y-8887116D01*
X19783716Y-8887116D01*
X19783716Y-8943685D01*
X19840285Y-8943685D01*
X19840285Y-9197685D02*
X19840285Y-9141116D01*
X19783716Y-9141116D01*
X19783716Y-9197685D01*
X19840285Y-9197685D01*
X19840285Y-9451685D02*
X19840285Y-9395116D01*
X19783716Y-9395116D01*
X19783716Y-9451685D01*
X19840285Y-9451685D01*
X19840285Y-9705685D02*
X19840285Y-9649116D01*
X19783716Y-9649116D01*
X19783716Y-9705685D01*
X19840285Y-9705685D01*
X19840285Y-9959685D02*
X19840285Y-9903116D01*
X19783716Y-9903116D01*
X19783716Y-9959685D01*
X19840285Y-9959685D01*
X19840285Y-10213685D02*
X19840285Y-10157116D01*
X19783716Y-10157116D01*
X19783716Y-10213685D01*
X19840285Y-10213685D01*
X19840285Y-10467685D02*
X19840285Y-10411116D01*
X19783716Y-10411116D01*
X19783716Y-10467685D01*
X19840285Y-10467685D01*
X19840285Y-10721685D02*
X19840285Y-10665116D01*
X19783716Y-10665116D01*
X19783716Y-10721685D01*
X19840285Y-10721685D01*
X19840285Y-10975685D02*
X19840285Y-10919116D01*
X19783716Y-10919116D01*
X19783716Y-10975685D01*
X19840285Y-10975685D01*
X19840285Y-11229684D02*
X19840285Y-11173116D01*
X19783716Y-11173116D01*
X19783716Y-11229684D01*
X19840285Y-11229684D01*
X19840285Y-11483684D02*
X19840285Y-11427115D01*
X19783716Y-11427115D01*
X19783716Y-11483684D01*
X19840285Y-11483684D01*
X19840285Y-11737684D02*
X19840285Y-11681115D01*
X19783716Y-11681115D01*
X19783716Y-11737684D01*
X19840285Y-11737684D01*
X21074725Y-13104204D02*
X21074725Y-13047635D01*
X21018156Y-13047635D01*
X21018156Y-13104204D01*
X21074725Y-13104204D01*
X21074725Y-13358204D02*
X21074725Y-13301635D01*
X21018156Y-13301635D01*
X21018156Y-13358204D01*
X21074725Y-13358204D01*
X22672384Y-12512384D02*
X22672384Y-12455815D01*
X22615815Y-12455815D01*
X22615815Y-12512384D01*
X22672384Y-12512384D01*
X22672384Y-12766384D02*
X22672384Y-12709815D01*
X22615815Y-12709815D01*
X22615815Y-12766384D01*
X22672384Y-12766384D01*
X16474440Y-12831280D02*
X16524440Y-12781280D01*
X16474440Y-12731280D01*
X16424440Y-12781280D01*
X16474440Y-12831280D01*
X16474440Y-13085280D02*
X16524440Y-13035280D01*
X16474440Y-12985280D01*
X16424440Y-13035280D01*
X16474440Y-13085280D01*
X16728440Y-12831280D02*
X16778440Y-12781280D01*
X16728440Y-12731280D01*
X16678440Y-12781280D01*
X16728440Y-12831280D01*
X16728440Y-13085280D02*
X16778440Y-13035280D01*
X16728440Y-12985280D01*
X16678440Y-13035280D01*
X16728440Y-13085280D01*
X16982440Y-12831280D02*
X17032440Y-12781280D01*
X16982440Y-12731280D01*
X16932440Y-12781280D01*
X16982440Y-12831280D01*
X16982440Y-13085280D02*
X17032440Y-13035280D01*
X16982440Y-12985280D01*
X16932440Y-13035280D01*
X16982440Y-13085280D01*
X17195800Y-6107900D02*
X17245800Y-6057900D01*
X17195800Y-6007900D01*
X17145800Y-6057900D01*
X17195800Y-6107900D01*
X17195800Y-6361900D02*
X17245800Y-6311900D01*
X17195800Y-6261900D01*
X17145800Y-6311900D01*
X17195800Y-6361900D01*
X17236440Y-12831280D02*
X17286440Y-12781280D01*
X17236440Y-12731280D01*
X17186440Y-12781280D01*
X17236440Y-12831280D01*
X17236440Y-13085280D02*
X17286440Y-13035280D01*
X17236440Y-12985280D01*
X17186440Y-13035280D01*
X17236440Y-13085280D01*
X17490440Y-12831280D02*
X17540440Y-12781280D01*
X17490440Y-12731280D01*
X17440440Y-12781280D01*
X17490440Y-12831280D01*
X17490440Y-13085280D02*
X17540440Y-13035280D01*
X17490440Y-12985280D01*
X17440440Y-13035280D01*
X17490440Y-13085280D01*
X23050500Y-12280100D02*
X23100500Y-12230100D01*
X23050500Y-12180100D01*
X23000500Y-12230100D01*
X23050500Y-12280100D01*
X23050500Y-12534100D02*
X23100500Y-12484100D01*
X23050500Y-12434100D01*
X23000500Y-12484100D01*
X23050500Y-12534100D01*
X16614902Y-5939282D02*
X16714978Y-6039358D01*
X16714978Y-5939282D02*
X16614902Y-6039358D01*
X16714978Y-5989320D02*
G75*
G03X16714978Y-5989320I-50038J0D01*
G01*
X16614902Y-6256782D02*
X16714978Y-6356858D01*
X16714978Y-6256782D02*
X16614902Y-6356858D01*
X16714978Y-6306820D02*
G75*
G03X16714978Y-6306820I-50038J0D01*
G01*
X15897860Y-6696710D02*
X15999460Y-6798310D01*
X15999460Y-6696710D02*
X15897860Y-6798310D01*
X15948660Y-6696710D02*
X15948660Y-6798310D01*
X15897860Y-6747510D02*
X15999460Y-6747510D01*
X15897860Y-6950710D02*
X15999460Y-7052310D01*
X15999460Y-6950710D02*
X15897860Y-7052310D01*
X15948660Y-6950710D02*
X15948660Y-7052310D01*
X15897860Y-7001510D02*
X15999460Y-7001510D01*
X15897860Y-7204710D02*
X15999460Y-7306310D01*
X15999460Y-7204710D02*
X15897860Y-7306310D01*
X15948660Y-7204710D02*
X15948660Y-7306310D01*
X15897860Y-7255510D02*
X15999460Y-7255510D01*
X15897860Y-7458710D02*
X15999460Y-7560310D01*
X15999460Y-7458710D02*
X15897860Y-7560310D01*
X15948660Y-7458710D02*
X15948660Y-7560310D01*
X15897860Y-7509510D02*
X15999460Y-7509510D01*
X15897860Y-7712710D02*
X15999460Y-7814310D01*
X15999460Y-7712710D02*
X15897860Y-7814310D01*
X15948660Y-7712710D02*
X15948660Y-7814310D01*
X15897860Y-7763510D02*
X15999460Y-7763510D01*
X15897860Y-7966710D02*
X15999460Y-8068310D01*
X15999460Y-7966710D02*
X15897860Y-8068310D01*
X15948660Y-7966710D02*
X15948660Y-8068310D01*
X15897860Y-8017510D02*
X15999460Y-8017510D01*
X15897860Y-8220710D02*
X15999460Y-8322310D01*
X15999460Y-8220710D02*
X15897860Y-8322310D01*
X15948660Y-8220710D02*
X15948660Y-8322310D01*
X15897860Y-8271510D02*
X15999460Y-8271510D01*
X15897860Y-8474710D02*
X15999460Y-8576310D01*
X15999460Y-8474710D02*
X15897860Y-8576310D01*
X15948660Y-8474710D02*
X15948660Y-8576310D01*
X15897860Y-8525510D02*
X15999460Y-8525510D01*
X15897860Y-8728710D02*
X15999460Y-8830310D01*
X15999460Y-8728710D02*
X15897860Y-8830310D01*
X15948660Y-8728710D02*
X15948660Y-8830310D01*
X15897860Y-8779510D02*
X15999460Y-8779510D01*
X15897860Y-8982710D02*
X15999460Y-9084310D01*
X15999460Y-8982710D02*
X15897860Y-9084310D01*
X15948660Y-8982710D02*
X15948660Y-9084310D01*
X15897860Y-9033510D02*
X15999460Y-9033510D01*
X15897860Y-9236710D02*
X15999460Y-9338310D01*
X15999460Y-9236710D02*
X15897860Y-9338310D01*
X15948660Y-9236710D02*
X15948660Y-9338310D01*
X15897860Y-9287510D02*
X15999460Y-9287510D01*
X15897860Y-9490710D02*
X15999460Y-9592310D01*
X15999460Y-9490710D02*
X15897860Y-9592310D01*
X15948660Y-9490710D02*
X15948660Y-9592310D01*
X15897860Y-9541510D02*
X15999460Y-9541510D01*
X15897860Y-9744710D02*
X15999460Y-9846310D01*
X15999460Y-9744710D02*
X15897860Y-9846310D01*
X15948660Y-9744710D02*
X15948660Y-9846310D01*
X15897860Y-9795510D02*
X15999460Y-9795510D01*
X15897860Y-9998710D02*
X15999460Y-10100310D01*
X15999460Y-9998710D02*
X15897860Y-10100310D01*
X15948660Y-9998710D02*
X15948660Y-10100310D01*
X15897860Y-10049510D02*
X15999460Y-10049510D01*
X15897860Y-10252710D02*
X15999460Y-10354310D01*
X15999460Y-10252710D02*
X15897860Y-10354310D01*
X15948660Y-10252710D02*
X15948660Y-10354310D01*
X15897860Y-10303510D02*
X15999460Y-10303510D01*
X15897860Y-10506710D02*
X15999460Y-10608310D01*
X15999460Y-10506710D02*
X15897860Y-10608310D01*
X15948660Y-10506710D02*
X15948660Y-10608310D01*
X15897860Y-10557510D02*
X15999460Y-10557510D01*
X15897860Y-10760710D02*
X15999460Y-10862310D01*
X15999460Y-10760710D02*
X15897860Y-10862310D01*
X15948660Y-10760710D02*
X15948660Y-10862310D01*
X15897860Y-10811510D02*
X15999460Y-10811510D01*
X15897860Y-11014710D02*
X15999460Y-11116310D01*
X15999460Y-11014710D02*
X15897860Y-11116310D01*
X15948660Y-11014710D02*
X15948660Y-11116310D01*
X15897860Y-11065510D02*
X15999460Y-11065510D01*
X15897860Y-11268710D02*
X15999460Y-11370310D01*
X15999460Y-11268710D02*
X15897860Y-11370310D01*
X15948660Y-11268710D02*
X15948660Y-11370310D01*
X15897860Y-11319510D02*
X15999460Y-11319510D01*
X15897860Y-11522710D02*
X15999460Y-11624310D01*
X15999460Y-11522710D02*
X15897860Y-11624310D01*
X15948660Y-11522710D02*
X15948660Y-11624310D01*
X15897860Y-11573510D02*
X15999460Y-11573510D01*
X15897860Y-11776710D02*
X15999460Y-11878310D01*
X15999460Y-11776710D02*
X15897860Y-11878310D01*
X15948660Y-11776710D02*
X15948660Y-11878310D01*
X15897860Y-11827510D02*
X15999460Y-11827510D01*
X18478500Y-12750800D02*
X18580100Y-12852400D01*
X18580100Y-12750800D02*
X18478500Y-12852400D01*
X18529300Y-12750800D02*
X18529300Y-12852400D01*
X18478500Y-12801600D02*
X18580100Y-12801600D01*
X18478500Y-13004800D02*
X18580100Y-13106400D01*
X18580100Y-13004800D02*
X18478500Y-13106400D01*
X18529300Y-13004800D02*
X18529300Y-13106400D01*
X18478500Y-13055600D02*
X18580100Y-13055600D01*
X18478500Y-13258800D02*
X18580100Y-13360400D01*
X18580100Y-13258800D02*
X18478500Y-13360400D01*
X18529300Y-13258800D02*
X18529300Y-13360400D01*
X18478500Y-13309600D02*
X18580100Y-13309600D01*
X18872200Y-5969000D02*
X18973800Y-6070600D01*
X18973800Y-5969000D02*
X18872200Y-6070600D01*
X18923000Y-5969000D02*
X18923000Y-6070600D01*
X18872200Y-6019800D02*
X18973800Y-6019800D01*
X18872200Y-6223000D02*
X18973800Y-6324600D01*
X18973800Y-6223000D02*
X18872200Y-6324600D01*
X18923000Y-6223000D02*
X18923000Y-6324600D01*
X18872200Y-6273800D02*
X18973800Y-6273800D01*
X19126200Y-5969000D02*
X19227800Y-6070600D01*
X19227800Y-5969000D02*
X19126200Y-6070600D01*
X19177000Y-5969000D02*
X19177000Y-6070600D01*
X19126200Y-6019800D02*
X19227800Y-6019800D01*
X19126200Y-6223000D02*
X19227800Y-6324600D01*
X19227800Y-6223000D02*
X19126200Y-6324600D01*
X19177000Y-6223000D02*
X19177000Y-6324600D01*
X19126200Y-6273800D02*
X19227800Y-6273800D01*
X19380200Y-5969000D02*
X19481800Y-6070600D01*
X19481800Y-5969000D02*
X19380200Y-6070600D01*
X19431000Y-5969000D02*
X19431000Y-6070600D01*
X19380200Y-6019800D02*
X19481800Y-6019800D01*
X19380200Y-6223000D02*
X19481800Y-6324600D01*
X19481800Y-6223000D02*
X19380200Y-6324600D01*
X19431000Y-6223000D02*
X19431000Y-6324600D01*
X19380200Y-6273800D02*
X19481800Y-6273800D01*
X22212300Y-6731000D02*
X22313900Y-6832600D01*
X22313900Y-6731000D02*
X22212300Y-6832600D01*
X22263100Y-6731000D02*
X22263100Y-6832600D01*
X22212300Y-6781800D02*
X22313900Y-6781800D01*
X22212300Y-6985000D02*
X22313900Y-7086600D01*
X22313900Y-6985000D02*
X22212300Y-7086600D01*
X22263100Y-6985000D02*
X22263100Y-7086600D01*
X22212300Y-7035800D02*
X22313900Y-7035800D01*
X22212300Y-7239000D02*
X22313900Y-7340600D01*
X22313900Y-7239000D02*
X22212300Y-7340600D01*
X22263100Y-7239000D02*
X22263100Y-7340600D01*
X22212300Y-7289800D02*
X22313900Y-7289800D01*
X22212300Y-7493000D02*
X22313900Y-7594600D01*
X22313900Y-7493000D02*
X22212300Y-7594600D01*
X22263100Y-7493000D02*
X22263100Y-7594600D01*
X22212300Y-7543800D02*
X22313900Y-7543800D01*
X22212300Y-7747000D02*
X22313900Y-7848600D01*
X22313900Y-7747000D02*
X22212300Y-7848600D01*
X22263100Y-7747000D02*
X22263100Y-7848600D01*
X22212300Y-7797800D02*
X22313900Y-7797800D01*
X22212300Y-8001000D02*
X22313900Y-8102600D01*
X22313900Y-8001000D02*
X22212300Y-8102600D01*
X22263100Y-8001000D02*
X22263100Y-8102600D01*
X22212300Y-8051800D02*
X22313900Y-8051800D01*
X22212300Y-8255000D02*
X22313900Y-8356600D01*
X22313900Y-8255000D02*
X22212300Y-8356600D01*
X22263100Y-8255000D02*
X22263100Y-8356600D01*
X22212300Y-8305800D02*
X22313900Y-8305800D01*
X22212300Y-8509000D02*
X22313900Y-8610600D01*
X22313900Y-8509000D02*
X22212300Y-8610600D01*
X22263100Y-8509000D02*
X22263100Y-8610600D01*
X22212300Y-8559800D02*
X22313900Y-8559800D01*
X22212300Y-8763000D02*
X22313900Y-8864600D01*
X22313900Y-8763000D02*
X22212300Y-8864600D01*
X22263100Y-8763000D02*
X22263100Y-8864600D01*
X22212300Y-8813800D02*
X22313900Y-8813800D01*
X22212300Y-9017000D02*
X22313900Y-9118600D01*
X22313900Y-9017000D02*
X22212300Y-9118600D01*
X22263100Y-9017000D02*
X22263100Y-9118600D01*
X22212300Y-9067800D02*
X22313900Y-9067800D01*
X22212300Y-9271000D02*
X22313900Y-9372600D01*
X22313900Y-9271000D02*
X22212300Y-9372600D01*
X22263100Y-9271000D02*
X22263100Y-9372600D01*
X22212300Y-9321800D02*
X22313900Y-9321800D01*
X22212300Y-9525000D02*
X22313900Y-9626600D01*
X22313900Y-9525000D02*
X22212300Y-9626600D01*
X22263100Y-9525000D02*
X22263100Y-9626600D01*
X22212300Y-9575800D02*
X22313900Y-9575800D01*
X22212300Y-9779000D02*
X22313900Y-9880600D01*
X22313900Y-9779000D02*
X22212300Y-9880600D01*
X22263100Y-9779000D02*
X22263100Y-9880600D01*
X22212300Y-9829800D02*
X22313900Y-9829800D01*
X22212300Y-10033000D02*
X22313900Y-10134600D01*
X22313900Y-10033000D02*
X22212300Y-10134600D01*
X22263100Y-10033000D02*
X22263100Y-10134600D01*
X22212300Y-10083800D02*
X22313900Y-10083800D01*
X22212300Y-10287000D02*
X22313900Y-10388600D01*
X22313900Y-10287000D02*
X22212300Y-10388600D01*
X22263100Y-10287000D02*
X22263100Y-10388600D01*
X22212300Y-10337800D02*
X22313900Y-10337800D01*
X22212300Y-10541000D02*
X22313900Y-10642600D01*
X22313900Y-10541000D02*
X22212300Y-10642600D01*
X22263100Y-10541000D02*
X22263100Y-10642600D01*
X22212300Y-10591800D02*
X22313900Y-10591800D01*
X22212300Y-10795000D02*
X22313900Y-10896600D01*
X22313900Y-10795000D02*
X22212300Y-10896600D01*
X22263100Y-10795000D02*
X22263100Y-10896600D01*
X22212300Y-10845800D02*
X22313900Y-10845800D01*
X22212300Y-11049000D02*
X22313900Y-11150600D01*
X22313900Y-11049000D02*
X22212300Y-11150600D01*
X22263100Y-11049000D02*
X22263100Y-11150600D01*
X22212300Y-11099800D02*
X22313900Y-11099800D01*
X22212300Y-11303000D02*
X22313900Y-11404600D01*
X22313900Y-11303000D02*
X22212300Y-11404600D01*
X22263100Y-11303000D02*
X22263100Y-11404600D01*
X22212300Y-11353800D02*
X22313900Y-11353800D01*
X22212300Y-11557000D02*
X22313900Y-11658600D01*
X22313900Y-11557000D02*
X22212300Y-11658600D01*
X22263100Y-11557000D02*
X22263100Y-11658600D01*
X22212300Y-11607800D02*
X22313900Y-11607800D01*
X22212300Y-11811000D02*
X22313900Y-11912600D01*
X22313900Y-11811000D02*
X22212300Y-11912600D01*
X22263100Y-11811000D02*
X22263100Y-11912600D01*
X22212300Y-11861800D02*
X22313900Y-11861800D01*
D12*
X271429Y-465714D02*
X271429Y-165714D01*
X342857Y-165714D01*
X385714Y-180000D01*
X414286Y-208571D01*
X428571Y-237143D01*
X442857Y-294286D01*
X442857Y-337143D01*
X428571Y-394286D01*
X414286Y-422857D01*
X385714Y-451429D01*
X342857Y-465714D01*
X271429Y-465714D01*
X571429Y-465714D02*
X571429Y-265714D01*
X571429Y-322857D02*
X585714Y-294286D01*
X600000Y-280000D01*
X628571Y-265714D01*
X657143Y-265714D01*
X757143Y-465714D02*
X757143Y-265714D01*
X757143Y-165714D02*
X742857Y-180000D01*
X757143Y-194286D01*
X771429Y-180000D01*
X757143Y-165714D01*
X757143Y-194286D01*
X942857Y-465714D02*
X914286Y-451429D01*
X900000Y-422857D01*
X900000Y-165714D01*
X1100000Y-465714D02*
X1071429Y-451429D01*
X1057143Y-422857D01*
X1057143Y-165714D01*
X1442857Y-465714D02*
X1442857Y-165714D01*
X1542857Y-380000D01*
X1642857Y-165714D01*
X1642857Y-465714D01*
X1914286Y-465714D02*
X1914286Y-308571D01*
X1900000Y-280000D01*
X1871429Y-265714D01*
X1814286Y-265714D01*
X1785714Y-280000D01*
X1914286Y-451429D02*
X1885714Y-465714D01*
X1814286Y-465714D01*
X1785714Y-451429D01*
X1771429Y-422857D01*
X1771429Y-394286D01*
X1785714Y-365714D01*
X1814286Y-351429D01*
X1885714Y-351429D01*
X1914286Y-337143D01*
X2057143Y-265714D02*
X2057143Y-565714D01*
X2057143Y-280000D02*
X2085714Y-265714D01*
X2142857Y-265714D01*
X2171429Y-280000D01*
X2185714Y-294286D01*
X2200000Y-322857D01*
X2200000Y-408571D01*
X2185714Y-437143D01*
X2171429Y-451429D01*
X2142857Y-465714D01*
X2085714Y-465714D01*
X2057143Y-451429D01*
X2328572Y-437143D02*
X2342857Y-451429D01*
X2328572Y-465714D01*
X2314286Y-451429D01*
X2328572Y-437143D01*
X2328572Y-465714D01*
X2328572Y-280000D02*
X2342857Y-294286D01*
X2328572Y-308571D01*
X2314286Y-294286D01*
X2328572Y-280000D01*
X2328572Y-308571D01*
X-40000Y-940000D02*
X0Y-980000D01*
X0Y-940000D02*
X-40000Y-980000D01*
X328571Y-795714D02*
X357143Y-795714D01*
X385714Y-810000D01*
X400000Y-824286D01*
X414286Y-852857D01*
X428571Y-910000D01*
X428571Y-981429D01*
X414286Y-1038571D01*
X400000Y-1067143D01*
X385714Y-1081429D01*
X357143Y-1095714D01*
X328571Y-1095714D01*
X300000Y-1081429D01*
X285714Y-1067143D01*
X271429Y-1038571D01*
X257143Y-981429D01*
X257143Y-910000D01*
X271429Y-852857D01*
X285714Y-824286D01*
X300000Y-810000D01*
X328571Y-795714D01*
X557143Y-1067143D02*
X571429Y-1081429D01*
X557143Y-1095714D01*
X542857Y-1081429D01*
X557143Y-1067143D01*
X557143Y-1095714D01*
X828571Y-895714D02*
X828571Y-1095714D01*
X757143Y-781429D02*
X685714Y-995714D01*
X871428Y-995714D01*
X1042857Y-795714D02*
X1071429Y-795714D01*
X1100000Y-810000D01*
X1114286Y-824286D01*
X1128571Y-852857D01*
X1142857Y-910000D01*
X1142857Y-981429D01*
X1128571Y-1038571D01*
X1114286Y-1067143D01*
X1100000Y-1081429D01*
X1071429Y-1095714D01*
X1042857Y-1095714D01*
X1014286Y-1081429D01*
X1000000Y-1067143D01*
X985714Y-1038571D01*
X971429Y-981429D01*
X971429Y-910000D01*
X985714Y-852857D01*
X1000000Y-824286D01*
X1014286Y-810000D01*
X1042857Y-795714D01*
X1271429Y-1095714D02*
X1271429Y-895714D01*
X1271429Y-924286D02*
X1285714Y-910000D01*
X1314286Y-895714D01*
X1357143Y-895714D01*
X1385714Y-910000D01*
X1400000Y-938571D01*
X1400000Y-1095714D01*
X1400000Y-938571D02*
X1414286Y-910000D01*
X1442857Y-895714D01*
X1485714Y-895714D01*
X1514286Y-910000D01*
X1528571Y-938571D01*
X1528571Y-1095714D01*
X1671429Y-1095714D02*
X1671429Y-895714D01*
X1671429Y-924286D02*
X1685714Y-910000D01*
X1714286Y-895714D01*
X1757143Y-895714D01*
X1785714Y-910000D01*
X1800000Y-938571D01*
X1800000Y-1095714D01*
X1800000Y-938571D02*
X1814286Y-910000D01*
X1842857Y-895714D01*
X1885714Y-895714D01*
X1914286Y-910000D01*
X1928571Y-938571D01*
X1928571Y-1095714D01*
X2514286Y-781429D02*
X2257143Y-1167143D01*
X2900000Y-795714D02*
X2928571Y-795714D01*
X2957143Y-810000D01*
X2971428Y-824286D01*
X2985714Y-852857D01*
X3000000Y-910000D01*
X3000000Y-981429D01*
X2985714Y-1038571D01*
X2971428Y-1067143D01*
X2957143Y-1081429D01*
X2928571Y-1095714D01*
X2900000Y-1095714D01*
X2871428Y-1081429D01*
X2857143Y-1067143D01*
X2842857Y-1038571D01*
X2828571Y-981429D01*
X2828571Y-910000D01*
X2842857Y-852857D01*
X2857143Y-824286D01*
X2871428Y-810000D01*
X2900000Y-795714D01*
X3128571Y-1067143D02*
X3142857Y-1081429D01*
X3128571Y-1095714D01*
X3114286Y-1081429D01*
X3128571Y-1067143D01*
X3128571Y-1095714D01*
X3328571Y-795714D02*
X3357143Y-795714D01*
X3385714Y-810000D01*
X3400000Y-824286D01*
X3414286Y-852857D01*
X3428571Y-910000D01*
X3428571Y-981429D01*
X3414286Y-1038571D01*
X3400000Y-1067143D01*
X3385714Y-1081429D01*
X3357143Y-1095714D01*
X3328571Y-1095714D01*
X3300000Y-1081429D01*
X3285714Y-1067143D01*
X3271428Y-1038571D01*
X3257143Y-981429D01*
X3257143Y-910000D01*
X3271428Y-852857D01*
X3285714Y-824286D01*
X3300000Y-810000D01*
X3328571Y-795714D01*
X3714286Y-1095714D02*
X3542857Y-1095714D01*
X3628571Y-1095714D02*
X3628571Y-795714D01*
X3600000Y-838571D01*
X3571428Y-867143D01*
X3542857Y-881429D01*
X3971428Y-795714D02*
X3914286Y-795714D01*
X3885714Y-810000D01*
X3871428Y-824286D01*
X3842857Y-867143D01*
X3828571Y-924286D01*
X3828571Y-1038571D01*
X3842857Y-1067143D01*
X3857143Y-1081429D01*
X3885714Y-1095714D01*
X3942857Y-1095714D01*
X3971428Y-1081429D01*
X3985714Y-1067143D01*
X4000000Y-1038571D01*
X4000000Y-967143D01*
X3985714Y-938571D01*
X3971428Y-924286D01*
X3942857Y-910000D01*
X3885714Y-910000D01*
X3857143Y-924286D01*
X3842857Y-938571D01*
X3828571Y-967143D01*
X4114286Y-795714D02*
X4114286Y-852857D01*
X4228571Y-795714D02*
X4228571Y-852857D01*
X4671429Y-1210000D02*
X4657143Y-1195714D01*
X4628571Y-1152857D01*
X4614286Y-1124286D01*
X4600000Y-1081429D01*
X4585714Y-1010000D01*
X4585714Y-952857D01*
X4600000Y-881429D01*
X4614286Y-838571D01*
X4628571Y-810000D01*
X4657143Y-767143D01*
X4671429Y-752857D01*
X4914286Y-895714D02*
X4914286Y-1095714D01*
X4842857Y-781429D02*
X4771429Y-995714D01*
X4957143Y-995714D01*
X5214286Y-795714D02*
X5071429Y-795714D01*
X5057143Y-938571D01*
X5071429Y-924286D01*
X5100000Y-910000D01*
X5171429Y-910000D01*
X5200000Y-924286D01*
X5214286Y-938571D01*
X5228571Y-967143D01*
X5228571Y-1038571D01*
X5214286Y-1067143D01*
X5200000Y-1081429D01*
X5171429Y-1095714D01*
X5100000Y-1095714D01*
X5071429Y-1081429D01*
X5057143Y-1067143D01*
X5585714Y-1095714D02*
X5585714Y-795714D01*
X5714286Y-1095714D02*
X5714286Y-938571D01*
X5700000Y-910000D01*
X5671428Y-895714D01*
X5628571Y-895714D01*
X5600000Y-910000D01*
X5585714Y-924286D01*
X5900000Y-1095714D02*
X5871428Y-1081429D01*
X5857143Y-1067143D01*
X5842857Y-1038571D01*
X5842857Y-952857D01*
X5857143Y-924286D01*
X5871428Y-910000D01*
X5900000Y-895714D01*
X5942857Y-895714D01*
X5971428Y-910000D01*
X5985714Y-924286D01*
X6000000Y-952857D01*
X6000000Y-1038571D01*
X5985714Y-1067143D01*
X5971428Y-1081429D01*
X5942857Y-1095714D01*
X5900000Y-1095714D01*
X6171428Y-1095714D02*
X6142857Y-1081429D01*
X6128571Y-1052857D01*
X6128571Y-795714D01*
X6400000Y-1081429D02*
X6371429Y-1095714D01*
X6314286Y-1095714D01*
X6285714Y-1081429D01*
X6271429Y-1052857D01*
X6271429Y-938571D01*
X6285714Y-910000D01*
X6314286Y-895714D01*
X6371429Y-895714D01*
X6400000Y-910000D01*
X6414286Y-938571D01*
X6414286Y-967143D01*
X6271429Y-995714D01*
X6528571Y-1081429D02*
X6557143Y-1095714D01*
X6614286Y-1095714D01*
X6642857Y-1081429D01*
X6657143Y-1052857D01*
X6657143Y-1038571D01*
X6642857Y-1010000D01*
X6614286Y-995714D01*
X6571429Y-995714D01*
X6542857Y-981429D01*
X6528571Y-952857D01*
X6528571Y-938571D01*
X6542857Y-910000D01*
X6571429Y-895714D01*
X6614286Y-895714D01*
X6642857Y-910000D01*
X6757143Y-1210000D02*
X6771429Y-1195714D01*
X6800000Y-1152857D01*
X6814286Y-1124286D01*
X6828571Y-1081429D01*
X6842857Y-1010000D01*
X6842857Y-952857D01*
X6828571Y-881429D01*
X6814286Y-838571D01*
X6800000Y-810000D01*
X6771429Y-767143D01*
X6757143Y-752857D01*
X0Y-1356000D02*
G75*
G03X0Y-1356000I-25000J0D01*
G01*
X328571Y-1191714D02*
X357143Y-1191714D01*
X385714Y-1206000D01*
X400000Y-1220286D01*
X414286Y-1248857D01*
X428571Y-1306000D01*
X428571Y-1377429D01*
X414286Y-1434571D01*
X400000Y-1463143D01*
X385714Y-1477429D01*
X357143Y-1491714D01*
X328571Y-1491714D01*
X300000Y-1477429D01*
X285714Y-1463143D01*
X271429Y-1434571D01*
X257143Y-1377429D01*
X257143Y-1306000D01*
X271429Y-1248857D01*
X285714Y-1220286D01*
X300000Y-1206000D01*
X328571Y-1191714D01*
X557143Y-1463143D02*
X571429Y-1477429D01*
X557143Y-1491714D01*
X542857Y-1477429D01*
X557143Y-1463143D01*
X557143Y-1491714D01*
X842857Y-1191714D02*
X700000Y-1191714D01*
X685714Y-1334571D01*
X700000Y-1320286D01*
X728571Y-1306000D01*
X800000Y-1306000D01*
X828571Y-1320286D01*
X842857Y-1334571D01*
X857143Y-1363143D01*
X857143Y-1434571D01*
X842857Y-1463143D01*
X828571Y-1477429D01*
X800000Y-1491714D01*
X728571Y-1491714D01*
X700000Y-1477429D01*
X685714Y-1463143D01*
X1042857Y-1191714D02*
X1071429Y-1191714D01*
X1100000Y-1206000D01*
X1114286Y-1220286D01*
X1128571Y-1248857D01*
X1142857Y-1306000D01*
X1142857Y-1377429D01*
X1128571Y-1434571D01*
X1114286Y-1463143D01*
X1100000Y-1477429D01*
X1071429Y-1491714D01*
X1042857Y-1491714D01*
X1014286Y-1477429D01*
X1000000Y-1463143D01*
X985714Y-1434571D01*
X971429Y-1377429D01*
X971429Y-1306000D01*
X985714Y-1248857D01*
X1000000Y-1220286D01*
X1014286Y-1206000D01*
X1042857Y-1191714D01*
X1271429Y-1491714D02*
X1271429Y-1291714D01*
X1271429Y-1320286D02*
X1285714Y-1306000D01*
X1314286Y-1291714D01*
X1357143Y-1291714D01*
X1385714Y-1306000D01*
X1400000Y-1334571D01*
X1400000Y-1491714D01*
X1400000Y-1334571D02*
X1414286Y-1306000D01*
X1442857Y-1291714D01*
X1485714Y-1291714D01*
X1514286Y-1306000D01*
X1528571Y-1334571D01*
X1528571Y-1491714D01*
X1671429Y-1491714D02*
X1671429Y-1291714D01*
X1671429Y-1320286D02*
X1685714Y-1306000D01*
X1714286Y-1291714D01*
X1757143Y-1291714D01*
X1785714Y-1306000D01*
X1800000Y-1334571D01*
X1800000Y-1491714D01*
X1800000Y-1334571D02*
X1814286Y-1306000D01*
X1842857Y-1291714D01*
X1885714Y-1291714D01*
X1914286Y-1306000D01*
X1928571Y-1334571D01*
X1928571Y-1491714D01*
X2514286Y-1177429D02*
X2257143Y-1563143D01*
X2900000Y-1191714D02*
X2928571Y-1191714D01*
X2957143Y-1206000D01*
X2971428Y-1220286D01*
X2985714Y-1248857D01*
X3000000Y-1306000D01*
X3000000Y-1377429D01*
X2985714Y-1434571D01*
X2971428Y-1463143D01*
X2957143Y-1477429D01*
X2928571Y-1491714D01*
X2900000Y-1491714D01*
X2871428Y-1477429D01*
X2857143Y-1463143D01*
X2842857Y-1434571D01*
X2828571Y-1377429D01*
X2828571Y-1306000D01*
X2842857Y-1248857D01*
X2857143Y-1220286D01*
X2871428Y-1206000D01*
X2900000Y-1191714D01*
X3128571Y-1463143D02*
X3142857Y-1477429D01*
X3128571Y-1491714D01*
X3114286Y-1477429D01*
X3128571Y-1463143D01*
X3128571Y-1491714D01*
X3328571Y-1191714D02*
X3357143Y-1191714D01*
X3385714Y-1206000D01*
X3400000Y-1220286D01*
X3414286Y-1248857D01*
X3428571Y-1306000D01*
X3428571Y-1377429D01*
X3414286Y-1434571D01*
X3400000Y-1463143D01*
X3385714Y-1477429D01*
X3357143Y-1491714D01*
X3328571Y-1491714D01*
X3300000Y-1477429D01*
X3285714Y-1463143D01*
X3271428Y-1434571D01*
X3257143Y-1377429D01*
X3257143Y-1306000D01*
X3271428Y-1248857D01*
X3285714Y-1220286D01*
X3300000Y-1206000D01*
X3328571Y-1191714D01*
X3542857Y-1220286D02*
X3557143Y-1206000D01*
X3585714Y-1191714D01*
X3657143Y-1191714D01*
X3685714Y-1206000D01*
X3700000Y-1220286D01*
X3714286Y-1248857D01*
X3714286Y-1277429D01*
X3700000Y-1320286D01*
X3528571Y-1491714D01*
X3714286Y-1491714D01*
X3900000Y-1191714D02*
X3928571Y-1191714D01*
X3957143Y-1206000D01*
X3971428Y-1220286D01*
X3985714Y-1248857D01*
X4000000Y-1306000D01*
X4000000Y-1377429D01*
X3985714Y-1434571D01*
X3971428Y-1463143D01*
X3957143Y-1477429D01*
X3928571Y-1491714D01*
X3900000Y-1491714D01*
X3871428Y-1477429D01*
X3857143Y-1463143D01*
X3842857Y-1434571D01*
X3828571Y-1377429D01*
X3828571Y-1306000D01*
X3842857Y-1248857D01*
X3857143Y-1220286D01*
X3871428Y-1206000D01*
X3900000Y-1191714D01*
X4114286Y-1191714D02*
X4114286Y-1248857D01*
X4228571Y-1191714D02*
X4228571Y-1248857D01*
X4671429Y-1606000D02*
X4657143Y-1591714D01*
X4628571Y-1548857D01*
X4614286Y-1520286D01*
X4600000Y-1477429D01*
X4585714Y-1406000D01*
X4585714Y-1348857D01*
X4600000Y-1277429D01*
X4614286Y-1234571D01*
X4628571Y-1206000D01*
X4657143Y-1163143D01*
X4671429Y-1148857D01*
X4771429Y-1220286D02*
X4785714Y-1206000D01*
X4814286Y-1191714D01*
X4885714Y-1191714D01*
X4914286Y-1206000D01*
X4928571Y-1220286D01*
X4942857Y-1248857D01*
X4942857Y-1277429D01*
X4928571Y-1320286D01*
X4757143Y-1491714D01*
X4942857Y-1491714D01*
X5300000Y-1491714D02*
X5300000Y-1191714D01*
X5428571Y-1491714D02*
X5428571Y-1334571D01*
X5414286Y-1306000D01*
X5385714Y-1291714D01*
X5342857Y-1291714D01*
X5314286Y-1306000D01*
X5300000Y-1320286D01*
X5614286Y-1491714D02*
X5585714Y-1477429D01*
X5571429Y-1463143D01*
X5557143Y-1434571D01*
X5557143Y-1348857D01*
X5571429Y-1320286D01*
X5585714Y-1306000D01*
X5614286Y-1291714D01*
X5657143Y-1291714D01*
X5685714Y-1306000D01*
X5700000Y-1320286D01*
X5714286Y-1348857D01*
X5714286Y-1434571D01*
X5700000Y-1463143D01*
X5685714Y-1477429D01*
X5657143Y-1491714D01*
X5614286Y-1491714D01*
X5885714Y-1491714D02*
X5857143Y-1477429D01*
X5842857Y-1448857D01*
X5842857Y-1191714D01*
X6114286Y-1477429D02*
X6085714Y-1491714D01*
X6028571Y-1491714D01*
X6000000Y-1477429D01*
X5985714Y-1448857D01*
X5985714Y-1334571D01*
X6000000Y-1306000D01*
X6028571Y-1291714D01*
X6085714Y-1291714D01*
X6114286Y-1306000D01*
X6128571Y-1334571D01*
X6128571Y-1363143D01*
X5985714Y-1391714D01*
X6242857Y-1477429D02*
X6271429Y-1491714D01*
X6328571Y-1491714D01*
X6357143Y-1477429D01*
X6371429Y-1448857D01*
X6371429Y-1434571D01*
X6357143Y-1406000D01*
X6328571Y-1391714D01*
X6285714Y-1391714D01*
X6257143Y-1377429D01*
X6242857Y-1348857D01*
X6242857Y-1334571D01*
X6257143Y-1306000D01*
X6285714Y-1291714D01*
X6328571Y-1291714D01*
X6357143Y-1306000D01*
X6471428Y-1606000D02*
X6485714Y-1591714D01*
X6514286Y-1548857D01*
X6528571Y-1520286D01*
X6542857Y-1477429D01*
X6557143Y-1406000D01*
X6557143Y-1348857D01*
X6542857Y-1277429D01*
X6528571Y-1234571D01*
X6514286Y-1206000D01*
X6485714Y-1163143D01*
X6471428Y-1148857D01*
X-35000Y-1717000D02*
X-35000Y-1787000D01*
X-70000Y-1752000D02*
X0Y-1752000D01*
X328571Y-1587714D02*
X357143Y-1587714D01*
X385714Y-1602000D01*
X400000Y-1616286D01*
X414286Y-1644857D01*
X428571Y-1702000D01*
X428571Y-1773429D01*
X414286Y-1830571D01*
X400000Y-1859143D01*
X385714Y-1873429D01*
X357143Y-1887714D01*
X328571Y-1887714D01*
X300000Y-1873429D01*
X285714Y-1859143D01*
X271429Y-1830571D01*
X257143Y-1773429D01*
X257143Y-1702000D01*
X271429Y-1644857D01*
X285714Y-1616286D01*
X300000Y-1602000D01*
X328571Y-1587714D01*
X557143Y-1859143D02*
X571429Y-1873429D01*
X557143Y-1887714D01*
X542857Y-1873429D01*
X557143Y-1859143D01*
X557143Y-1887714D01*
X671429Y-1587714D02*
X871428Y-1587714D01*
X742857Y-1887714D01*
X1042857Y-1587714D02*
X1071429Y-1587714D01*
X1100000Y-1602000D01*
X1114286Y-1616286D01*
X1128571Y-1644857D01*
X1142857Y-1702000D01*
X1142857Y-1773429D01*
X1128571Y-1830571D01*
X1114286Y-1859143D01*
X1100000Y-1873429D01*
X1071429Y-1887714D01*
X1042857Y-1887714D01*
X1014286Y-1873429D01*
X1000000Y-1859143D01*
X985714Y-1830571D01*
X971429Y-1773429D01*
X971429Y-1702000D01*
X985714Y-1644857D01*
X1000000Y-1616286D01*
X1014286Y-1602000D01*
X1042857Y-1587714D01*
X1271429Y-1887714D02*
X1271429Y-1687714D01*
X1271429Y-1716286D02*
X1285714Y-1702000D01*
X1314286Y-1687714D01*
X1357143Y-1687714D01*
X1385714Y-1702000D01*
X1400000Y-1730571D01*
X1400000Y-1887714D01*
X1400000Y-1730571D02*
X1414286Y-1702000D01*
X1442857Y-1687714D01*
X1485714Y-1687714D01*
X1514286Y-1702000D01*
X1528571Y-1730571D01*
X1528571Y-1887714D01*
X1671429Y-1887714D02*
X1671429Y-1687714D01*
X1671429Y-1716286D02*
X1685714Y-1702000D01*
X1714286Y-1687714D01*
X1757143Y-1687714D01*
X1785714Y-1702000D01*
X1800000Y-1730571D01*
X1800000Y-1887714D01*
X1800000Y-1730571D02*
X1814286Y-1702000D01*
X1842857Y-1687714D01*
X1885714Y-1687714D01*
X1914286Y-1702000D01*
X1928571Y-1730571D01*
X1928571Y-1887714D01*
X2514286Y-1573429D02*
X2257143Y-1959143D01*
X2900000Y-1587714D02*
X2928571Y-1587714D01*
X2957143Y-1602000D01*
X2971428Y-1616286D01*
X2985714Y-1644857D01*
X3000000Y-1702000D01*
X3000000Y-1773429D01*
X2985714Y-1830571D01*
X2971428Y-1859143D01*
X2957143Y-1873429D01*
X2928571Y-1887714D01*
X2900000Y-1887714D01*
X2871428Y-1873429D01*
X2857143Y-1859143D01*
X2842857Y-1830571D01*
X2828571Y-1773429D01*
X2828571Y-1702000D01*
X2842857Y-1644857D01*
X2857143Y-1616286D01*
X2871428Y-1602000D01*
X2900000Y-1587714D01*
X3128571Y-1859143D02*
X3142857Y-1873429D01*
X3128571Y-1887714D01*
X3114286Y-1873429D01*
X3128571Y-1859143D01*
X3128571Y-1887714D01*
X3328571Y-1587714D02*
X3357143Y-1587714D01*
X3385714Y-1602000D01*
X3400000Y-1616286D01*
X3414286Y-1644857D01*
X3428571Y-1702000D01*
X3428571Y-1773429D01*
X3414286Y-1830571D01*
X3400000Y-1859143D01*
X3385714Y-1873429D01*
X3357143Y-1887714D01*
X3328571Y-1887714D01*
X3300000Y-1873429D01*
X3285714Y-1859143D01*
X3271428Y-1830571D01*
X3257143Y-1773429D01*
X3257143Y-1702000D01*
X3271428Y-1644857D01*
X3285714Y-1616286D01*
X3300000Y-1602000D01*
X3328571Y-1587714D01*
X3542857Y-1616286D02*
X3557143Y-1602000D01*
X3585714Y-1587714D01*
X3657143Y-1587714D01*
X3685714Y-1602000D01*
X3700000Y-1616286D01*
X3714286Y-1644857D01*
X3714286Y-1673429D01*
X3700000Y-1716286D01*
X3528571Y-1887714D01*
X3714286Y-1887714D01*
X3885714Y-1716286D02*
X3857143Y-1702000D01*
X3842857Y-1687714D01*
X3828571Y-1659143D01*
X3828571Y-1644857D01*
X3842857Y-1616286D01*
X3857143Y-1602000D01*
X3885714Y-1587714D01*
X3942857Y-1587714D01*
X3971428Y-1602000D01*
X3985714Y-1616286D01*
X4000000Y-1644857D01*
X4000000Y-1659143D01*
X3985714Y-1687714D01*
X3971428Y-1702000D01*
X3942857Y-1716286D01*
X3885714Y-1716286D01*
X3857143Y-1730571D01*
X3842857Y-1744857D01*
X3828571Y-1773429D01*
X3828571Y-1830571D01*
X3842857Y-1859143D01*
X3857143Y-1873429D01*
X3885714Y-1887714D01*
X3942857Y-1887714D01*
X3971428Y-1873429D01*
X3985714Y-1859143D01*
X4000000Y-1830571D01*
X4000000Y-1773429D01*
X3985714Y-1744857D01*
X3971428Y-1730571D01*
X3942857Y-1716286D01*
X4114286Y-1587714D02*
X4114286Y-1644857D01*
X4228571Y-1587714D02*
X4228571Y-1644857D01*
X4671429Y-2002000D02*
X4657143Y-1987714D01*
X4628571Y-1944857D01*
X4614286Y-1916286D01*
X4600000Y-1873429D01*
X4585714Y-1802000D01*
X4585714Y-1744857D01*
X4600000Y-1673429D01*
X4614286Y-1630571D01*
X4628571Y-1602000D01*
X4657143Y-1559143D01*
X4671429Y-1544857D01*
X4928571Y-1587714D02*
X4785714Y-1587714D01*
X4771429Y-1730571D01*
X4785714Y-1716286D01*
X4814286Y-1702000D01*
X4885714Y-1702000D01*
X4914286Y-1716286D01*
X4928571Y-1730571D01*
X4942857Y-1759143D01*
X4942857Y-1830571D01*
X4928571Y-1859143D01*
X4914286Y-1873429D01*
X4885714Y-1887714D01*
X4814286Y-1887714D01*
X4785714Y-1873429D01*
X4771429Y-1859143D01*
X5300000Y-1887714D02*
X5300000Y-1587714D01*
X5428571Y-1887714D02*
X5428571Y-1730571D01*
X5414286Y-1702000D01*
X5385714Y-1687714D01*
X5342857Y-1687714D01*
X5314286Y-1702000D01*
X5300000Y-1716286D01*
X5614286Y-1887714D02*
X5585714Y-1873429D01*
X5571429Y-1859143D01*
X5557143Y-1830571D01*
X5557143Y-1744857D01*
X5571429Y-1716286D01*
X5585714Y-1702000D01*
X5614286Y-1687714D01*
X5657143Y-1687714D01*
X5685714Y-1702000D01*
X5700000Y-1716286D01*
X5714286Y-1744857D01*
X5714286Y-1830571D01*
X5700000Y-1859143D01*
X5685714Y-1873429D01*
X5657143Y-1887714D01*
X5614286Y-1887714D01*
X5885714Y-1887714D02*
X5857143Y-1873429D01*
X5842857Y-1844857D01*
X5842857Y-1587714D01*
X6114286Y-1873429D02*
X6085714Y-1887714D01*
X6028571Y-1887714D01*
X6000000Y-1873429D01*
X5985714Y-1844857D01*
X5985714Y-1730571D01*
X6000000Y-1702000D01*
X6028571Y-1687714D01*
X6085714Y-1687714D01*
X6114286Y-1702000D01*
X6128571Y-1730571D01*
X6128571Y-1759143D01*
X5985714Y-1787714D01*
X6242857Y-1873429D02*
X6271429Y-1887714D01*
X6328571Y-1887714D01*
X6357143Y-1873429D01*
X6371429Y-1844857D01*
X6371429Y-1830571D01*
X6357143Y-1802000D01*
X6328571Y-1787714D01*
X6285714Y-1787714D01*
X6257143Y-1773429D01*
X6242857Y-1744857D01*
X6242857Y-1730571D01*
X6257143Y-1702000D01*
X6285714Y-1687714D01*
X6328571Y-1687714D01*
X6357143Y-1702000D01*
X6471428Y-2002000D02*
X6485714Y-1987714D01*
X6514286Y-1944857D01*
X6528571Y-1916286D01*
X6542857Y-1873429D01*
X6557143Y-1802000D01*
X6557143Y-1744857D01*
X6542857Y-1673429D01*
X6528571Y-1630571D01*
X6514286Y-1602000D01*
X6485714Y-1559143D01*
X6471428Y-1544857D01*
X-11715Y-2176285D02*
X-11715Y-2119716D01*
X-68285Y-2119716D01*
X-68285Y-2176285D01*
X-11715Y-2176285D01*
X328571Y-1983714D02*
X357143Y-1983714D01*
X385714Y-1998000D01*
X400000Y-2012286D01*
X414286Y-2040857D01*
X428571Y-2098000D01*
X428571Y-2169429D01*
X414286Y-2226571D01*
X400000Y-2255143D01*
X385714Y-2269429D01*
X357143Y-2283714D01*
X328571Y-2283714D01*
X300000Y-2269429D01*
X285714Y-2255143D01*
X271429Y-2226571D01*
X257143Y-2169429D01*
X257143Y-2098000D01*
X271429Y-2040857D01*
X285714Y-2012286D01*
X300000Y-1998000D01*
X328571Y-1983714D01*
X557143Y-2255143D02*
X571429Y-2269429D01*
X557143Y-2283714D01*
X542857Y-2269429D01*
X557143Y-2255143D01*
X557143Y-2283714D01*
X742857Y-2112286D02*
X714286Y-2098000D01*
X700000Y-2083714D01*
X685714Y-2055143D01*
X685714Y-2040857D01*
X700000Y-2012286D01*
X714286Y-1998000D01*
X742857Y-1983714D01*
X800000Y-1983714D01*
X828571Y-1998000D01*
X842857Y-2012286D01*
X857143Y-2040857D01*
X857143Y-2055143D01*
X842857Y-2083714D01*
X828571Y-2098000D01*
X800000Y-2112286D01*
X742857Y-2112286D01*
X714286Y-2126571D01*
X700000Y-2140857D01*
X685714Y-2169429D01*
X685714Y-2226571D01*
X700000Y-2255143D01*
X714286Y-2269429D01*
X742857Y-2283714D01*
X800000Y-2283714D01*
X828571Y-2269429D01*
X842857Y-2255143D01*
X857143Y-2226571D01*
X857143Y-2169429D01*
X842857Y-2140857D01*
X828571Y-2126571D01*
X800000Y-2112286D01*
X1042857Y-1983714D02*
X1071429Y-1983714D01*
X1100000Y-1998000D01*
X1114286Y-2012286D01*
X1128571Y-2040857D01*
X1142857Y-2098000D01*
X1142857Y-2169429D01*
X1128571Y-2226571D01*
X1114286Y-2255143D01*
X1100000Y-2269429D01*
X1071429Y-2283714D01*
X1042857Y-2283714D01*
X1014286Y-2269429D01*
X1000000Y-2255143D01*
X985714Y-2226571D01*
X971429Y-2169429D01*
X971429Y-2098000D01*
X985714Y-2040857D01*
X1000000Y-2012286D01*
X1014286Y-1998000D01*
X1042857Y-1983714D01*
X1271429Y-2283714D02*
X1271429Y-2083714D01*
X1271429Y-2112286D02*
X1285714Y-2098000D01*
X1314286Y-2083714D01*
X1357143Y-2083714D01*
X1385714Y-2098000D01*
X1400000Y-2126571D01*
X1400000Y-2283714D01*
X1400000Y-2126571D02*
X1414286Y-2098000D01*
X1442857Y-2083714D01*
X1485714Y-2083714D01*
X1514286Y-2098000D01*
X1528571Y-2126571D01*
X1528571Y-2283714D01*
X1671429Y-2283714D02*
X1671429Y-2083714D01*
X1671429Y-2112286D02*
X1685714Y-2098000D01*
X1714286Y-2083714D01*
X1757143Y-2083714D01*
X1785714Y-2098000D01*
X1800000Y-2126571D01*
X1800000Y-2283714D01*
X1800000Y-2126571D02*
X1814286Y-2098000D01*
X1842857Y-2083714D01*
X1885714Y-2083714D01*
X1914286Y-2098000D01*
X1928571Y-2126571D01*
X1928571Y-2283714D01*
X2514286Y-1969429D02*
X2257143Y-2355143D01*
X2900000Y-1983714D02*
X2928571Y-1983714D01*
X2957143Y-1998000D01*
X2971428Y-2012286D01*
X2985714Y-2040857D01*
X3000000Y-2098000D01*
X3000000Y-2169429D01*
X2985714Y-2226571D01*
X2971428Y-2255143D01*
X2957143Y-2269429D01*
X2928571Y-2283714D01*
X2900000Y-2283714D01*
X2871428Y-2269429D01*
X2857143Y-2255143D01*
X2842857Y-2226571D01*
X2828571Y-2169429D01*
X2828571Y-2098000D01*
X2842857Y-2040857D01*
X2857143Y-2012286D01*
X2871428Y-1998000D01*
X2900000Y-1983714D01*
X3128571Y-2255143D02*
X3142857Y-2269429D01*
X3128571Y-2283714D01*
X3114286Y-2269429D01*
X3128571Y-2255143D01*
X3128571Y-2283714D01*
X3328571Y-1983714D02*
X3357143Y-1983714D01*
X3385714Y-1998000D01*
X3400000Y-2012286D01*
X3414286Y-2040857D01*
X3428571Y-2098000D01*
X3428571Y-2169429D01*
X3414286Y-2226571D01*
X3400000Y-2255143D01*
X3385714Y-2269429D01*
X3357143Y-2283714D01*
X3328571Y-2283714D01*
X3300000Y-2269429D01*
X3285714Y-2255143D01*
X3271428Y-2226571D01*
X3257143Y-2169429D01*
X3257143Y-2098000D01*
X3271428Y-2040857D01*
X3285714Y-2012286D01*
X3300000Y-1998000D01*
X3328571Y-1983714D01*
X3528571Y-1983714D02*
X3714286Y-1983714D01*
X3614286Y-2098000D01*
X3657143Y-2098000D01*
X3685714Y-2112286D01*
X3700000Y-2126571D01*
X3714286Y-2155143D01*
X3714286Y-2226571D01*
X3700000Y-2255143D01*
X3685714Y-2269429D01*
X3657143Y-2283714D01*
X3571428Y-2283714D01*
X3542857Y-2269429D01*
X3528571Y-2255143D01*
X4000000Y-2283714D02*
X3828571Y-2283714D01*
X3914286Y-2283714D02*
X3914286Y-1983714D01*
X3885714Y-2026571D01*
X3857143Y-2055143D01*
X3828571Y-2069429D01*
X4114286Y-1983714D02*
X4114286Y-2040857D01*
X4228571Y-1983714D02*
X4228571Y-2040857D01*
X4671429Y-2398000D02*
X4657143Y-2383714D01*
X4628571Y-2340857D01*
X4614286Y-2312286D01*
X4600000Y-2269429D01*
X4585714Y-2198000D01*
X4585714Y-2140857D01*
X4600000Y-2069429D01*
X4614286Y-2026571D01*
X4628571Y-1998000D01*
X4657143Y-1955143D01*
X4671429Y-1940857D01*
X4914286Y-2083714D02*
X4914286Y-2283714D01*
X4842857Y-1969429D02*
X4771429Y-2183714D01*
X4957143Y-2183714D01*
X5200000Y-1983714D02*
X5142857Y-1983714D01*
X5114286Y-1998000D01*
X5100000Y-2012286D01*
X5071429Y-2055143D01*
X5057143Y-2112286D01*
X5057143Y-2226571D01*
X5071429Y-2255143D01*
X5085714Y-2269429D01*
X5114286Y-2283714D01*
X5171429Y-2283714D01*
X5200000Y-2269429D01*
X5214286Y-2255143D01*
X5228571Y-2226571D01*
X5228571Y-2155143D01*
X5214286Y-2126571D01*
X5200000Y-2112286D01*
X5171429Y-2098000D01*
X5114286Y-2098000D01*
X5085714Y-2112286D01*
X5071429Y-2126571D01*
X5057143Y-2155143D01*
X5585714Y-2283714D02*
X5585714Y-1983714D01*
X5714286Y-2283714D02*
X5714286Y-2126571D01*
X5700000Y-2098000D01*
X5671428Y-2083714D01*
X5628571Y-2083714D01*
X5600000Y-2098000D01*
X5585714Y-2112286D01*
X5900000Y-2283714D02*
X5871428Y-2269429D01*
X5857143Y-2255143D01*
X5842857Y-2226571D01*
X5842857Y-2140857D01*
X5857143Y-2112286D01*
X5871428Y-2098000D01*
X5900000Y-2083714D01*
X5942857Y-2083714D01*
X5971428Y-2098000D01*
X5985714Y-2112286D01*
X6000000Y-2140857D01*
X6000000Y-2226571D01*
X5985714Y-2255143D01*
X5971428Y-2269429D01*
X5942857Y-2283714D01*
X5900000Y-2283714D01*
X6171428Y-2283714D02*
X6142857Y-2269429D01*
X6128571Y-2240857D01*
X6128571Y-1983714D01*
X6400000Y-2269429D02*
X6371429Y-2283714D01*
X6314286Y-2283714D01*
X6285714Y-2269429D01*
X6271429Y-2240857D01*
X6271429Y-2126571D01*
X6285714Y-2098000D01*
X6314286Y-2083714D01*
X6371429Y-2083714D01*
X6400000Y-2098000D01*
X6414286Y-2126571D01*
X6414286Y-2155143D01*
X6271429Y-2183714D01*
X6528571Y-2269429D02*
X6557143Y-2283714D01*
X6614286Y-2283714D01*
X6642857Y-2269429D01*
X6657143Y-2240857D01*
X6657143Y-2226571D01*
X6642857Y-2198000D01*
X6614286Y-2183714D01*
X6571429Y-2183714D01*
X6542857Y-2169429D01*
X6528571Y-2140857D01*
X6528571Y-2126571D01*
X6542857Y-2098000D01*
X6571429Y-2083714D01*
X6614286Y-2083714D01*
X6642857Y-2098000D01*
X6757143Y-2398000D02*
X6771429Y-2383714D01*
X6800000Y-2340857D01*
X6814286Y-2312286D01*
X6828571Y-2269429D01*
X6842857Y-2198000D01*
X6842857Y-2140857D01*
X6828571Y-2069429D01*
X6814286Y-2026571D01*
X6800000Y-1998000D01*
X6771429Y-1955143D01*
X6757143Y-1940857D01*
X-50000Y-2594000D02*
X0Y-2544000D01*
X-50000Y-2494000D01*
X-100000Y-2544000D01*
X-50000Y-2594000D01*
X428571Y-2679714D02*
X257143Y-2679714D01*
X342857Y-2679714D02*
X342857Y-2379714D01*
X314286Y-2422571D01*
X285714Y-2451143D01*
X257143Y-2465429D01*
X557143Y-2651143D02*
X571429Y-2665429D01*
X557143Y-2679714D01*
X542857Y-2665429D01*
X557143Y-2651143D01*
X557143Y-2679714D01*
X757143Y-2379714D02*
X785714Y-2379714D01*
X814286Y-2394000D01*
X828571Y-2408286D01*
X842857Y-2436857D01*
X857143Y-2494000D01*
X857143Y-2565429D01*
X842857Y-2622571D01*
X828571Y-2651143D01*
X814286Y-2665429D01*
X785714Y-2679714D01*
X757143Y-2679714D01*
X728571Y-2665429D01*
X714286Y-2651143D01*
X700000Y-2622571D01*
X685714Y-2565429D01*
X685714Y-2494000D01*
X700000Y-2436857D01*
X714286Y-2408286D01*
X728571Y-2394000D01*
X757143Y-2379714D01*
X1042857Y-2379714D02*
X1071429Y-2379714D01*
X1100000Y-2394000D01*
X1114286Y-2408286D01*
X1128571Y-2436857D01*
X1142857Y-2494000D01*
X1142857Y-2565429D01*
X1128571Y-2622571D01*
X1114286Y-2651143D01*
X1100000Y-2665429D01*
X1071429Y-2679714D01*
X1042857Y-2679714D01*
X1014286Y-2665429D01*
X1000000Y-2651143D01*
X985714Y-2622571D01*
X971429Y-2565429D01*
X971429Y-2494000D01*
X985714Y-2436857D01*
X1000000Y-2408286D01*
X1014286Y-2394000D01*
X1042857Y-2379714D01*
X1271429Y-2679714D02*
X1271429Y-2479714D01*
X1271429Y-2508286D02*
X1285714Y-2494000D01*
X1314286Y-2479714D01*
X1357143Y-2479714D01*
X1385714Y-2494000D01*
X1400000Y-2522571D01*
X1400000Y-2679714D01*
X1400000Y-2522571D02*
X1414286Y-2494000D01*
X1442857Y-2479714D01*
X1485714Y-2479714D01*
X1514286Y-2494000D01*
X1528571Y-2522571D01*
X1528571Y-2679714D01*
X1671429Y-2679714D02*
X1671429Y-2479714D01*
X1671429Y-2508286D02*
X1685714Y-2494000D01*
X1714286Y-2479714D01*
X1757143Y-2479714D01*
X1785714Y-2494000D01*
X1800000Y-2522571D01*
X1800000Y-2679714D01*
X1800000Y-2522571D02*
X1814286Y-2494000D01*
X1842857Y-2479714D01*
X1885714Y-2479714D01*
X1914286Y-2494000D01*
X1928571Y-2522571D01*
X1928571Y-2679714D01*
X2514286Y-2365429D02*
X2257143Y-2751143D01*
X2900000Y-2379714D02*
X2928571Y-2379714D01*
X2957143Y-2394000D01*
X2971428Y-2408286D01*
X2985714Y-2436857D01*
X3000000Y-2494000D01*
X3000000Y-2565429D01*
X2985714Y-2622571D01*
X2971428Y-2651143D01*
X2957143Y-2665429D01*
X2928571Y-2679714D01*
X2900000Y-2679714D01*
X2871428Y-2665429D01*
X2857143Y-2651143D01*
X2842857Y-2622571D01*
X2828571Y-2565429D01*
X2828571Y-2494000D01*
X2842857Y-2436857D01*
X2857143Y-2408286D01*
X2871428Y-2394000D01*
X2900000Y-2379714D01*
X3128571Y-2651143D02*
X3142857Y-2665429D01*
X3128571Y-2679714D01*
X3114286Y-2665429D01*
X3128571Y-2651143D01*
X3128571Y-2679714D01*
X3328571Y-2379714D02*
X3357143Y-2379714D01*
X3385714Y-2394000D01*
X3400000Y-2408286D01*
X3414286Y-2436857D01*
X3428571Y-2494000D01*
X3428571Y-2565429D01*
X3414286Y-2622571D01*
X3400000Y-2651143D01*
X3385714Y-2665429D01*
X3357143Y-2679714D01*
X3328571Y-2679714D01*
X3300000Y-2665429D01*
X3285714Y-2651143D01*
X3271428Y-2622571D01*
X3257143Y-2565429D01*
X3257143Y-2494000D01*
X3271428Y-2436857D01*
X3285714Y-2408286D01*
X3300000Y-2394000D01*
X3328571Y-2379714D01*
X3528571Y-2379714D02*
X3714286Y-2379714D01*
X3614286Y-2494000D01*
X3657143Y-2494000D01*
X3685714Y-2508286D01*
X3700000Y-2522571D01*
X3714286Y-2551143D01*
X3714286Y-2622571D01*
X3700000Y-2651143D01*
X3685714Y-2665429D01*
X3657143Y-2679714D01*
X3571428Y-2679714D01*
X3542857Y-2665429D01*
X3528571Y-2651143D01*
X3857143Y-2679714D02*
X3914286Y-2679714D01*
X3942857Y-2665429D01*
X3957143Y-2651143D01*
X3985714Y-2608286D01*
X4000000Y-2551143D01*
X4000000Y-2436857D01*
X3985714Y-2408286D01*
X3971428Y-2394000D01*
X3942857Y-2379714D01*
X3885714Y-2379714D01*
X3857143Y-2394000D01*
X3842857Y-2408286D01*
X3828571Y-2436857D01*
X3828571Y-2508286D01*
X3842857Y-2536857D01*
X3857143Y-2551143D01*
X3885714Y-2565429D01*
X3942857Y-2565429D01*
X3971428Y-2551143D01*
X3985714Y-2536857D01*
X4000000Y-2508286D01*
X4114286Y-2379714D02*
X4114286Y-2436857D01*
X4228571Y-2379714D02*
X4228571Y-2436857D01*
X4671429Y-2794000D02*
X4657143Y-2779714D01*
X4628571Y-2736857D01*
X4614286Y-2708286D01*
X4600000Y-2665429D01*
X4585714Y-2594000D01*
X4585714Y-2536857D01*
X4600000Y-2465429D01*
X4614286Y-2422571D01*
X4628571Y-2394000D01*
X4657143Y-2351143D01*
X4671429Y-2336857D01*
X4942857Y-2679714D02*
X4771429Y-2679714D01*
X4857143Y-2679714D02*
X4857143Y-2379714D01*
X4828571Y-2422571D01*
X4800000Y-2451143D01*
X4771429Y-2465429D01*
X5200000Y-2479714D02*
X5200000Y-2679714D01*
X5128571Y-2365429D02*
X5057143Y-2579714D01*
X5242857Y-2579714D01*
X5585714Y-2679714D02*
X5585714Y-2379714D01*
X5714286Y-2679714D02*
X5714286Y-2522571D01*
X5700000Y-2494000D01*
X5671428Y-2479714D01*
X5628571Y-2479714D01*
X5600000Y-2494000D01*
X5585714Y-2508286D01*
X5900000Y-2679714D02*
X5871428Y-2665429D01*
X5857143Y-2651143D01*
X5842857Y-2622571D01*
X5842857Y-2536857D01*
X5857143Y-2508286D01*
X5871428Y-2494000D01*
X5900000Y-2479714D01*
X5942857Y-2479714D01*
X5971428Y-2494000D01*
X5985714Y-2508286D01*
X6000000Y-2536857D01*
X6000000Y-2622571D01*
X5985714Y-2651143D01*
X5971428Y-2665429D01*
X5942857Y-2679714D01*
X5900000Y-2679714D01*
X6171428Y-2679714D02*
X6142857Y-2665429D01*
X6128571Y-2636857D01*
X6128571Y-2379714D01*
X6400000Y-2665429D02*
X6371429Y-2679714D01*
X6314286Y-2679714D01*
X6285714Y-2665429D01*
X6271429Y-2636857D01*
X6271429Y-2522571D01*
X6285714Y-2494000D01*
X6314286Y-2479714D01*
X6371429Y-2479714D01*
X6400000Y-2494000D01*
X6414286Y-2522571D01*
X6414286Y-2551143D01*
X6271429Y-2579714D01*
X6528571Y-2665429D02*
X6557143Y-2679714D01*
X6614286Y-2679714D01*
X6642857Y-2665429D01*
X6657143Y-2636857D01*
X6657143Y-2622571D01*
X6642857Y-2594000D01*
X6614286Y-2579714D01*
X6571429Y-2579714D01*
X6542857Y-2565429D01*
X6528571Y-2536857D01*
X6528571Y-2522571D01*
X6542857Y-2494000D01*
X6571429Y-2479714D01*
X6614286Y-2479714D01*
X6642857Y-2494000D01*
X6757143Y-2794000D02*
X6771429Y-2779714D01*
X6800000Y-2736857D01*
X6814286Y-2708286D01*
X6828571Y-2665429D01*
X6842857Y-2594000D01*
X6842857Y-2536857D01*
X6828571Y-2465429D01*
X6814286Y-2422571D01*
X6800000Y-2394000D01*
X6771429Y-2351143D01*
X6757143Y-2336857D01*
X-100076Y-2889962D02*
X0Y-2990038D01*
X0Y-2889962D02*
X-100076Y-2990038D01*
X0Y-2940000D02*
G75*
G03X0Y-2940000I-50038J0D01*
G01*
X428571Y-3075714D02*
X257143Y-3075714D01*
X342857Y-3075714D02*
X342857Y-2775714D01*
X314286Y-2818571D01*
X285714Y-2847143D01*
X257143Y-2861429D01*
X557143Y-3047143D02*
X571429Y-3061429D01*
X557143Y-3075714D01*
X542857Y-3061429D01*
X557143Y-3047143D01*
X557143Y-3075714D01*
X757143Y-2775714D02*
X785714Y-2775714D01*
X814286Y-2790000D01*
X828571Y-2804286D01*
X842857Y-2832857D01*
X857143Y-2890000D01*
X857143Y-2961429D01*
X842857Y-3018571D01*
X828571Y-3047143D01*
X814286Y-3061429D01*
X785714Y-3075714D01*
X757143Y-3075714D01*
X728571Y-3061429D01*
X714286Y-3047143D01*
X700000Y-3018571D01*
X685714Y-2961429D01*
X685714Y-2890000D01*
X700000Y-2832857D01*
X714286Y-2804286D01*
X728571Y-2790000D01*
X757143Y-2775714D01*
X1042857Y-2775714D02*
X1071429Y-2775714D01*
X1100000Y-2790000D01*
X1114286Y-2804286D01*
X1128571Y-2832857D01*
X1142857Y-2890000D01*
X1142857Y-2961429D01*
X1128571Y-3018571D01*
X1114286Y-3047143D01*
X1100000Y-3061429D01*
X1071429Y-3075714D01*
X1042857Y-3075714D01*
X1014286Y-3061429D01*
X1000000Y-3047143D01*
X985714Y-3018571D01*
X971429Y-2961429D01*
X971429Y-2890000D01*
X985714Y-2832857D01*
X1000000Y-2804286D01*
X1014286Y-2790000D01*
X1042857Y-2775714D01*
X1271429Y-3075714D02*
X1271429Y-2875714D01*
X1271429Y-2904286D02*
X1285714Y-2890000D01*
X1314286Y-2875714D01*
X1357143Y-2875714D01*
X1385714Y-2890000D01*
X1400000Y-2918571D01*
X1400000Y-3075714D01*
X1400000Y-2918571D02*
X1414286Y-2890000D01*
X1442857Y-2875714D01*
X1485714Y-2875714D01*
X1514286Y-2890000D01*
X1528571Y-2918571D01*
X1528571Y-3075714D01*
X1671429Y-3075714D02*
X1671429Y-2875714D01*
X1671429Y-2904286D02*
X1685714Y-2890000D01*
X1714286Y-2875714D01*
X1757143Y-2875714D01*
X1785714Y-2890000D01*
X1800000Y-2918571D01*
X1800000Y-3075714D01*
X1800000Y-2918571D02*
X1814286Y-2890000D01*
X1842857Y-2875714D01*
X1885714Y-2875714D01*
X1914286Y-2890000D01*
X1928571Y-2918571D01*
X1928571Y-3075714D01*
X2514286Y-2761429D02*
X2257143Y-3147143D01*
X2900000Y-2775714D02*
X2928571Y-2775714D01*
X2957143Y-2790000D01*
X2971428Y-2804286D01*
X2985714Y-2832857D01*
X3000000Y-2890000D01*
X3000000Y-2961429D01*
X2985714Y-3018571D01*
X2971428Y-3047143D01*
X2957143Y-3061429D01*
X2928571Y-3075714D01*
X2900000Y-3075714D01*
X2871428Y-3061429D01*
X2857143Y-3047143D01*
X2842857Y-3018571D01*
X2828571Y-2961429D01*
X2828571Y-2890000D01*
X2842857Y-2832857D01*
X2857143Y-2804286D01*
X2871428Y-2790000D01*
X2900000Y-2775714D01*
X3128571Y-3047143D02*
X3142857Y-3061429D01*
X3128571Y-3075714D01*
X3114286Y-3061429D01*
X3128571Y-3047143D01*
X3128571Y-3075714D01*
X3328571Y-2775714D02*
X3357143Y-2775714D01*
X3385714Y-2790000D01*
X3400000Y-2804286D01*
X3414286Y-2832857D01*
X3428571Y-2890000D01*
X3428571Y-2961429D01*
X3414286Y-3018571D01*
X3400000Y-3047143D01*
X3385714Y-3061429D01*
X3357143Y-3075714D01*
X3328571Y-3075714D01*
X3300000Y-3061429D01*
X3285714Y-3047143D01*
X3271428Y-3018571D01*
X3257143Y-2961429D01*
X3257143Y-2890000D01*
X3271428Y-2832857D01*
X3285714Y-2804286D01*
X3300000Y-2790000D01*
X3328571Y-2775714D01*
X3528571Y-2775714D02*
X3714286Y-2775714D01*
X3614286Y-2890000D01*
X3657143Y-2890000D01*
X3685714Y-2904286D01*
X3700000Y-2918571D01*
X3714286Y-2947143D01*
X3714286Y-3018571D01*
X3700000Y-3047143D01*
X3685714Y-3061429D01*
X3657143Y-3075714D01*
X3571428Y-3075714D01*
X3542857Y-3061429D01*
X3528571Y-3047143D01*
X3857143Y-3075714D02*
X3914286Y-3075714D01*
X3942857Y-3061429D01*
X3957143Y-3047143D01*
X3985714Y-3004286D01*
X4000000Y-2947143D01*
X4000000Y-2832857D01*
X3985714Y-2804286D01*
X3971428Y-2790000D01*
X3942857Y-2775714D01*
X3885714Y-2775714D01*
X3857143Y-2790000D01*
X3842857Y-2804286D01*
X3828571Y-2832857D01*
X3828571Y-2904286D01*
X3842857Y-2932857D01*
X3857143Y-2947143D01*
X3885714Y-2961429D01*
X3942857Y-2961429D01*
X3971428Y-2947143D01*
X3985714Y-2932857D01*
X4000000Y-2904286D01*
X4114286Y-2775714D02*
X4114286Y-2832857D01*
X4228571Y-2775714D02*
X4228571Y-2832857D01*
X4671429Y-3190000D02*
X4657143Y-3175714D01*
X4628571Y-3132857D01*
X4614286Y-3104286D01*
X4600000Y-3061429D01*
X4585714Y-2990000D01*
X4585714Y-2932857D01*
X4600000Y-2861429D01*
X4614286Y-2818571D01*
X4628571Y-2790000D01*
X4657143Y-2747143D01*
X4671429Y-2732857D01*
X4771429Y-2804286D02*
X4785714Y-2790000D01*
X4814286Y-2775714D01*
X4885714Y-2775714D01*
X4914286Y-2790000D01*
X4928571Y-2804286D01*
X4942857Y-2832857D01*
X4942857Y-2861429D01*
X4928571Y-2904286D01*
X4757143Y-3075714D01*
X4942857Y-3075714D01*
X5300000Y-3075714D02*
X5300000Y-2775714D01*
X5428571Y-3075714D02*
X5428571Y-2918571D01*
X5414286Y-2890000D01*
X5385714Y-2875714D01*
X5342857Y-2875714D01*
X5314286Y-2890000D01*
X5300000Y-2904286D01*
X5614286Y-3075714D02*
X5585714Y-3061429D01*
X5571429Y-3047143D01*
X5557143Y-3018571D01*
X5557143Y-2932857D01*
X5571429Y-2904286D01*
X5585714Y-2890000D01*
X5614286Y-2875714D01*
X5657143Y-2875714D01*
X5685714Y-2890000D01*
X5700000Y-2904286D01*
X5714286Y-2932857D01*
X5714286Y-3018571D01*
X5700000Y-3047143D01*
X5685714Y-3061429D01*
X5657143Y-3075714D01*
X5614286Y-3075714D01*
X5885714Y-3075714D02*
X5857143Y-3061429D01*
X5842857Y-3032857D01*
X5842857Y-2775714D01*
X6114286Y-3061429D02*
X6085714Y-3075714D01*
X6028571Y-3075714D01*
X6000000Y-3061429D01*
X5985714Y-3032857D01*
X5985714Y-2918571D01*
X6000000Y-2890000D01*
X6028571Y-2875714D01*
X6085714Y-2875714D01*
X6114286Y-2890000D01*
X6128571Y-2918571D01*
X6128571Y-2947143D01*
X5985714Y-2975714D01*
X6242857Y-3061429D02*
X6271429Y-3075714D01*
X6328571Y-3075714D01*
X6357143Y-3061429D01*
X6371429Y-3032857D01*
X6371429Y-3018571D01*
X6357143Y-2990000D01*
X6328571Y-2975714D01*
X6285714Y-2975714D01*
X6257143Y-2961429D01*
X6242857Y-2932857D01*
X6242857Y-2918571D01*
X6257143Y-2890000D01*
X6285714Y-2875714D01*
X6328571Y-2875714D01*
X6357143Y-2890000D01*
X6471428Y-3190000D02*
X6485714Y-3175714D01*
X6514286Y-3132857D01*
X6528571Y-3104286D01*
X6542857Y-3061429D01*
X6557143Y-2990000D01*
X6557143Y-2932857D01*
X6542857Y-2861429D01*
X6528571Y-2818571D01*
X6514286Y-2790000D01*
X6485714Y-2747143D01*
X6471428Y-2732857D01*
X-101600Y-3285200D02*
X0Y-3386800D01*
X0Y-3285200D02*
X-101600Y-3386800D01*
X-50800Y-3285200D02*
X-50800Y-3386800D01*
X-101600Y-3336000D02*
X0Y-3336000D01*
X428571Y-3471714D02*
X257143Y-3471714D01*
X342857Y-3471714D02*
X342857Y-3171714D01*
X314286Y-3214571D01*
X285714Y-3243143D01*
X257143Y-3257429D01*
X557143Y-3443143D02*
X571429Y-3457429D01*
X557143Y-3471714D01*
X542857Y-3457429D01*
X557143Y-3443143D01*
X557143Y-3471714D01*
X757143Y-3171714D02*
X785714Y-3171714D01*
X814286Y-3186000D01*
X828571Y-3200286D01*
X842857Y-3228857D01*
X857143Y-3286000D01*
X857143Y-3357429D01*
X842857Y-3414571D01*
X828571Y-3443143D01*
X814286Y-3457429D01*
X785714Y-3471714D01*
X757143Y-3471714D01*
X728571Y-3457429D01*
X714286Y-3443143D01*
X700000Y-3414571D01*
X685714Y-3357429D01*
X685714Y-3286000D01*
X700000Y-3228857D01*
X714286Y-3200286D01*
X728571Y-3186000D01*
X757143Y-3171714D01*
X971429Y-3200286D02*
X985714Y-3186000D01*
X1014286Y-3171714D01*
X1085714Y-3171714D01*
X1114286Y-3186000D01*
X1128571Y-3200286D01*
X1142857Y-3228857D01*
X1142857Y-3257429D01*
X1128571Y-3300286D01*
X957143Y-3471714D01*
X1142857Y-3471714D01*
X1271429Y-3471714D02*
X1271429Y-3271714D01*
X1271429Y-3300286D02*
X1285714Y-3286000D01*
X1314286Y-3271714D01*
X1357143Y-3271714D01*
X1385714Y-3286000D01*
X1400000Y-3314571D01*
X1400000Y-3471714D01*
X1400000Y-3314571D02*
X1414286Y-3286000D01*
X1442857Y-3271714D01*
X1485714Y-3271714D01*
X1514286Y-3286000D01*
X1528571Y-3314571D01*
X1528571Y-3471714D01*
X1671429Y-3471714D02*
X1671429Y-3271714D01*
X1671429Y-3300286D02*
X1685714Y-3286000D01*
X1714286Y-3271714D01*
X1757143Y-3271714D01*
X1785714Y-3286000D01*
X1800000Y-3314571D01*
X1800000Y-3471714D01*
X1800000Y-3314571D02*
X1814286Y-3286000D01*
X1842857Y-3271714D01*
X1885714Y-3271714D01*
X1914286Y-3286000D01*
X1928571Y-3314571D01*
X1928571Y-3471714D01*
X2514286Y-3157429D02*
X2257143Y-3543143D01*
X2900000Y-3171714D02*
X2928571Y-3171714D01*
X2957143Y-3186000D01*
X2971428Y-3200286D01*
X2985714Y-3228857D01*
X3000000Y-3286000D01*
X3000000Y-3357429D01*
X2985714Y-3414571D01*
X2971428Y-3443143D01*
X2957143Y-3457429D01*
X2928571Y-3471714D01*
X2900000Y-3471714D01*
X2871428Y-3457429D01*
X2857143Y-3443143D01*
X2842857Y-3414571D01*
X2828571Y-3357429D01*
X2828571Y-3286000D01*
X2842857Y-3228857D01*
X2857143Y-3200286D01*
X2871428Y-3186000D01*
X2900000Y-3171714D01*
X3128571Y-3443143D02*
X3142857Y-3457429D01*
X3128571Y-3471714D01*
X3114286Y-3457429D01*
X3128571Y-3443143D01*
X3128571Y-3471714D01*
X3328571Y-3171714D02*
X3357143Y-3171714D01*
X3385714Y-3186000D01*
X3400000Y-3200286D01*
X3414286Y-3228857D01*
X3428571Y-3286000D01*
X3428571Y-3357429D01*
X3414286Y-3414571D01*
X3400000Y-3443143D01*
X3385714Y-3457429D01*
X3357143Y-3471714D01*
X3328571Y-3471714D01*
X3300000Y-3457429D01*
X3285714Y-3443143D01*
X3271428Y-3414571D01*
X3257143Y-3357429D01*
X3257143Y-3286000D01*
X3271428Y-3228857D01*
X3285714Y-3200286D01*
X3300000Y-3186000D01*
X3328571Y-3171714D01*
X3685714Y-3271714D02*
X3685714Y-3471714D01*
X3614286Y-3157429D02*
X3542857Y-3371714D01*
X3728571Y-3371714D01*
X3900000Y-3171714D02*
X3928571Y-3171714D01*
X3957143Y-3186000D01*
X3971428Y-3200286D01*
X3985714Y-3228857D01*
X4000000Y-3286000D01*
X4000000Y-3357429D01*
X3985714Y-3414571D01*
X3971428Y-3443143D01*
X3957143Y-3457429D01*
X3928571Y-3471714D01*
X3900000Y-3471714D01*
X3871428Y-3457429D01*
X3857143Y-3443143D01*
X3842857Y-3414571D01*
X3828571Y-3357429D01*
X3828571Y-3286000D01*
X3842857Y-3228857D01*
X3857143Y-3200286D01*
X3871428Y-3186000D01*
X3900000Y-3171714D01*
X4114286Y-3171714D02*
X4114286Y-3228857D01*
X4228571Y-3171714D02*
X4228571Y-3228857D01*
X4671429Y-3586000D02*
X4657143Y-3571714D01*
X4628571Y-3528857D01*
X4614286Y-3500286D01*
X4600000Y-3457429D01*
X4585714Y-3386000D01*
X4585714Y-3328857D01*
X4600000Y-3257429D01*
X4614286Y-3214571D01*
X4628571Y-3186000D01*
X4657143Y-3143143D01*
X4671429Y-3128857D01*
X4928571Y-3171714D02*
X4785714Y-3171714D01*
X4771429Y-3314571D01*
X4785714Y-3300286D01*
X4814286Y-3286000D01*
X4885714Y-3286000D01*
X4914286Y-3300286D01*
X4928571Y-3314571D01*
X4942857Y-3343143D01*
X4942857Y-3414571D01*
X4928571Y-3443143D01*
X4914286Y-3457429D01*
X4885714Y-3471714D01*
X4814286Y-3471714D01*
X4785714Y-3457429D01*
X4771429Y-3443143D01*
X5228571Y-3471714D02*
X5057143Y-3471714D01*
X5142857Y-3471714D02*
X5142857Y-3171714D01*
X5114286Y-3214571D01*
X5085714Y-3243143D01*
X5057143Y-3257429D01*
X5585714Y-3471714D02*
X5585714Y-3171714D01*
X5714286Y-3471714D02*
X5714286Y-3314571D01*
X5700000Y-3286000D01*
X5671428Y-3271714D01*
X5628571Y-3271714D01*
X5600000Y-3286000D01*
X5585714Y-3300286D01*
X5900000Y-3471714D02*
X5871428Y-3457429D01*
X5857143Y-3443143D01*
X5842857Y-3414571D01*
X5842857Y-3328857D01*
X5857143Y-3300286D01*
X5871428Y-3286000D01*
X5900000Y-3271714D01*
X5942857Y-3271714D01*
X5971428Y-3286000D01*
X5985714Y-3300286D01*
X6000000Y-3328857D01*
X6000000Y-3414571D01*
X5985714Y-3443143D01*
X5971428Y-3457429D01*
X5942857Y-3471714D01*
X5900000Y-3471714D01*
X6171428Y-3471714D02*
X6142857Y-3457429D01*
X6128571Y-3428857D01*
X6128571Y-3171714D01*
X6400000Y-3457429D02*
X6371429Y-3471714D01*
X6314286Y-3471714D01*
X6285714Y-3457429D01*
X6271429Y-3428857D01*
X6271429Y-3314571D01*
X6285714Y-3286000D01*
X6314286Y-3271714D01*
X6371429Y-3271714D01*
X6400000Y-3286000D01*
X6414286Y-3314571D01*
X6414286Y-3343143D01*
X6271429Y-3371714D01*
X6528571Y-3457429D02*
X6557143Y-3471714D01*
X6614286Y-3471714D01*
X6642857Y-3457429D01*
X6657143Y-3428857D01*
X6657143Y-3414571D01*
X6642857Y-3386000D01*
X6614286Y-3371714D01*
X6571429Y-3371714D01*
X6542857Y-3357429D01*
X6528571Y-3328857D01*
X6528571Y-3314571D01*
X6542857Y-3286000D01*
X6571429Y-3271714D01*
X6614286Y-3271714D01*
X6642857Y-3286000D01*
X6757143Y-3586000D02*
X6771429Y-3571714D01*
X6800000Y-3528857D01*
X6814286Y-3500286D01*
X6828571Y-3457429D01*
X6842857Y-3386000D01*
X6842857Y-3328857D01*
X6828571Y-3257429D01*
X6814286Y-3214571D01*
X6800000Y-3186000D01*
X6771429Y-3143143D01*
X6757143Y-3128857D01*
M02*
