G04 #@! TF.FileFunction,Legend,Top*
%FSLAX46Y46*%
G04 Gerber Fmt 4.6, Leading zero omitted, Abs format (unit mm)*
G04 Created by KiCad (PCBNEW 4.0.6-e0-6349~53~ubuntu14.04.1) date Wed Dec 13 09:41:32 2017*
%MOMM*%
%LPD*%
G01*
G04 APERTURE LIST*
%ADD10C,0.100000*%
%ADD11C,0.300000*%
%ADD12C,0.200000*%
%ADD13C,0.150000*%
%ADD14C,0.152400*%
%ADD15C,0.120000*%
%ADD16C,0.050000*%
%ADD17C,0.125000*%
G04 APERTURE END LIST*
D10*
D11*
X153575359Y-135148571D02*
X152861073Y-135148571D01*
X152789644Y-135862857D01*
X152861073Y-135791429D01*
X153003930Y-135720000D01*
X153361073Y-135720000D01*
X153503930Y-135791429D01*
X153575359Y-135862857D01*
X153646787Y-136005714D01*
X153646787Y-136362857D01*
X153575359Y-136505714D01*
X153503930Y-136577143D01*
X153361073Y-136648571D01*
X153003930Y-136648571D01*
X152861073Y-136577143D01*
X152789644Y-136505714D01*
X155003930Y-135148571D02*
X154289644Y-135148571D01*
X154218215Y-135862857D01*
X154289644Y-135791429D01*
X154432501Y-135720000D01*
X154789644Y-135720000D01*
X154932501Y-135791429D01*
X155003930Y-135862857D01*
X155075358Y-136005714D01*
X155075358Y-136362857D01*
X155003930Y-136505714D01*
X154932501Y-136577143D01*
X154789644Y-136648571D01*
X154432501Y-136648571D01*
X154289644Y-136577143D01*
X154218215Y-136505714D01*
X155789643Y-136577143D02*
X155789643Y-136648571D01*
X155718215Y-136791429D01*
X155646786Y-136862857D01*
X156361072Y-135291429D02*
X156432501Y-135220000D01*
X156575358Y-135148571D01*
X156932501Y-135148571D01*
X157075358Y-135220000D01*
X157146787Y-135291429D01*
X157218215Y-135434286D01*
X157218215Y-135577143D01*
X157146787Y-135791429D01*
X156289644Y-136648571D01*
X157218215Y-136648571D01*
X158503929Y-135648571D02*
X158503929Y-136648571D01*
X158146786Y-135077143D02*
X157789643Y-136148571D01*
X158718215Y-136148571D01*
X160003929Y-135148571D02*
X159289643Y-135148571D01*
X159218214Y-135862857D01*
X159289643Y-135791429D01*
X159432500Y-135720000D01*
X159789643Y-135720000D01*
X159932500Y-135791429D01*
X160003929Y-135862857D01*
X160075357Y-136005714D01*
X160075357Y-136362857D01*
X160003929Y-136505714D01*
X159932500Y-136577143D01*
X159789643Y-136648571D01*
X159432500Y-136648571D01*
X159289643Y-136577143D01*
X159218214Y-136505714D01*
X160718214Y-136648571D02*
X160718214Y-135648571D01*
X160718214Y-135791429D02*
X160789642Y-135720000D01*
X160932500Y-135648571D01*
X161146785Y-135648571D01*
X161289642Y-135720000D01*
X161361071Y-135862857D01*
X161361071Y-136648571D01*
X161361071Y-135862857D02*
X161432500Y-135720000D01*
X161575357Y-135648571D01*
X161789642Y-135648571D01*
X161932500Y-135720000D01*
X162003928Y-135862857D01*
X162003928Y-136648571D01*
X162718214Y-136648571D02*
X162718214Y-135648571D01*
X162718214Y-135791429D02*
X162789642Y-135720000D01*
X162932500Y-135648571D01*
X163146785Y-135648571D01*
X163289642Y-135720000D01*
X163361071Y-135862857D01*
X163361071Y-136648571D01*
X163361071Y-135862857D02*
X163432500Y-135720000D01*
X163575357Y-135648571D01*
X163789642Y-135648571D01*
X163932500Y-135720000D01*
X164003928Y-135862857D01*
X164003928Y-136648571D01*
X130810000Y-134620000D02*
X186055000Y-134620000D01*
X130810000Y-128905000D02*
X130810000Y-137320000D01*
X186055000Y-128905000D02*
X186055000Y-137320000D01*
X186055000Y-134620000D02*
X184928496Y-135206421D01*
X186055000Y-134620000D02*
X184928496Y-134033579D01*
X130810000Y-134620000D02*
X131936504Y-135206421D01*
X130810000Y-134620000D02*
X131936504Y-134033579D01*
X198386429Y-93567859D02*
X198386429Y-92853573D01*
X197672143Y-92782144D01*
X197743571Y-92853573D01*
X197815000Y-92996430D01*
X197815000Y-93353573D01*
X197743571Y-93496430D01*
X197672143Y-93567859D01*
X197529286Y-93639287D01*
X197172143Y-93639287D01*
X197029286Y-93567859D01*
X196957857Y-93496430D01*
X196886429Y-93353573D01*
X196886429Y-92996430D01*
X196957857Y-92853573D01*
X197029286Y-92782144D01*
X198243571Y-94210715D02*
X198315000Y-94282144D01*
X198386429Y-94425001D01*
X198386429Y-94782144D01*
X198315000Y-94925001D01*
X198243571Y-94996430D01*
X198100714Y-95067858D01*
X197957857Y-95067858D01*
X197743571Y-94996430D01*
X196886429Y-94139287D01*
X196886429Y-95067858D01*
X196957857Y-95782143D02*
X196886429Y-95782143D01*
X196743571Y-95710715D01*
X196672143Y-95639286D01*
X198386429Y-96710715D02*
X198386429Y-96853572D01*
X198315000Y-96996429D01*
X198243571Y-97067858D01*
X198100714Y-97139287D01*
X197815000Y-97210715D01*
X197457857Y-97210715D01*
X197172143Y-97139287D01*
X197029286Y-97067858D01*
X196957857Y-96996429D01*
X196886429Y-96853572D01*
X196886429Y-96710715D01*
X196957857Y-96567858D01*
X197029286Y-96496429D01*
X197172143Y-96425001D01*
X197457857Y-96353572D01*
X197815000Y-96353572D01*
X198100714Y-96425001D01*
X198243571Y-96496429D01*
X198315000Y-96567858D01*
X198386429Y-96710715D01*
X198386429Y-97710715D02*
X198386429Y-98710715D01*
X196886429Y-98067858D01*
X198386429Y-99567857D02*
X198386429Y-99710714D01*
X198315000Y-99853571D01*
X198243571Y-99925000D01*
X198100714Y-99996429D01*
X197815000Y-100067857D01*
X197457857Y-100067857D01*
X197172143Y-99996429D01*
X197029286Y-99925000D01*
X196957857Y-99853571D01*
X196886429Y-99710714D01*
X196886429Y-99567857D01*
X196957857Y-99425000D01*
X197029286Y-99353571D01*
X197172143Y-99282143D01*
X197457857Y-99210714D01*
X197815000Y-99210714D01*
X198100714Y-99282143D01*
X198243571Y-99353571D01*
X198315000Y-99425000D01*
X198386429Y-99567857D01*
X196886429Y-100710714D02*
X197886429Y-100710714D01*
X197743571Y-100710714D02*
X197815000Y-100782142D01*
X197886429Y-100925000D01*
X197886429Y-101139285D01*
X197815000Y-101282142D01*
X197672143Y-101353571D01*
X196886429Y-101353571D01*
X197672143Y-101353571D02*
X197815000Y-101425000D01*
X197886429Y-101567857D01*
X197886429Y-101782142D01*
X197815000Y-101925000D01*
X197672143Y-101996428D01*
X196886429Y-101996428D01*
X196886429Y-102710714D02*
X197886429Y-102710714D01*
X197743571Y-102710714D02*
X197815000Y-102782142D01*
X197886429Y-102925000D01*
X197886429Y-103139285D01*
X197815000Y-103282142D01*
X197672143Y-103353571D01*
X196886429Y-103353571D01*
X197672143Y-103353571D02*
X197815000Y-103425000D01*
X197886429Y-103567857D01*
X197886429Y-103782142D01*
X197815000Y-103925000D01*
X197672143Y-103996428D01*
X196886429Y-103996428D01*
X196215000Y-72390000D02*
X196215000Y-124460000D01*
X192405000Y-72390000D02*
X198915000Y-72390000D01*
X192405000Y-124460000D02*
X198915000Y-124460000D01*
X196215000Y-124460000D02*
X195628579Y-123333496D01*
X196215000Y-124460000D02*
X196801421Y-123333496D01*
X196215000Y-72390000D02*
X195628579Y-73516504D01*
X196215000Y-72390000D02*
X196801421Y-73516504D01*
D12*
X129540000Y-125730000D02*
X129540000Y-71120000D01*
X189230000Y-125730000D02*
X129540000Y-125730000D01*
X189230000Y-71120000D02*
X189230000Y-125730000D01*
X129540000Y-71120000D02*
X189230000Y-71120000D01*
D13*
X173364000Y-118221000D02*
X173364000Y-116221000D01*
X171314000Y-116221000D02*
X171314000Y-118221000D01*
X175983000Y-116832000D02*
X175983000Y-115832000D01*
X174283000Y-115832000D02*
X174283000Y-116832000D01*
X183372000Y-117593000D02*
X181372000Y-117593000D01*
X181372000Y-119643000D02*
X183372000Y-119643000D01*
X181856000Y-120181000D02*
X180856000Y-120181000D01*
X180856000Y-121881000D02*
X181856000Y-121881000D01*
X173609000Y-97917000D02*
X173609000Y-113157000D01*
X173609000Y-113157000D02*
X171069000Y-113157000D01*
X171069000Y-113157000D02*
X171069000Y-97917000D01*
X173889000Y-95097000D02*
X173889000Y-96647000D01*
X173609000Y-97917000D02*
X171069000Y-97917000D01*
X170789000Y-96647000D02*
X170789000Y-95097000D01*
X170789000Y-95097000D02*
X173889000Y-95097000D01*
X174336000Y-94220000D02*
X173136000Y-94220000D01*
X173136000Y-92470000D02*
X174336000Y-92470000D01*
X136793000Y-98009000D02*
X136793000Y-96809000D01*
X138543000Y-96809000D02*
X138543000Y-98009000D01*
X139587000Y-98009000D02*
X139587000Y-96809000D01*
X141337000Y-96809000D02*
X141337000Y-98009000D01*
X142381000Y-98009000D02*
X142381000Y-96809000D01*
X144131000Y-96809000D02*
X144131000Y-98009000D01*
X145048000Y-98009000D02*
X145048000Y-96809000D01*
X146798000Y-96809000D02*
X146798000Y-98009000D01*
X138797000Y-79791000D02*
X138797000Y-80991000D01*
X137047000Y-80991000D02*
X137047000Y-79791000D01*
X142353000Y-79918000D02*
X142353000Y-81118000D01*
X140603000Y-81118000D02*
X140603000Y-79918000D01*
X146290000Y-80045000D02*
X146290000Y-81245000D01*
X144540000Y-81245000D02*
X144540000Y-80045000D01*
X149973000Y-79918000D02*
X149973000Y-81118000D01*
X148223000Y-81118000D02*
X148223000Y-79918000D01*
X150001000Y-98009000D02*
X150001000Y-96809000D01*
X151751000Y-96809000D02*
X151751000Y-98009000D01*
X152668000Y-98009000D02*
X152668000Y-96809000D01*
X154418000Y-96809000D02*
X154418000Y-98009000D01*
X155208000Y-98009000D02*
X155208000Y-96809000D01*
X156958000Y-96809000D02*
X156958000Y-98009000D01*
X147588000Y-98009000D02*
X147588000Y-96809000D01*
X149338000Y-96809000D02*
X149338000Y-98009000D01*
X153783000Y-79918000D02*
X153783000Y-81118000D01*
X152033000Y-81118000D02*
X152033000Y-79918000D01*
X157875000Y-98009000D02*
X157875000Y-96809000D01*
X159625000Y-96809000D02*
X159625000Y-98009000D01*
X160669000Y-98009000D02*
X160669000Y-96809000D01*
X162419000Y-96809000D02*
X162419000Y-98009000D01*
X163336000Y-98009000D02*
X163336000Y-96809000D01*
X165086000Y-96809000D02*
X165086000Y-98009000D01*
D14*
X140995400Y-112649000D02*
X140995400Y-113157000D01*
X145516600Y-107061000D02*
X145516600Y-106553000D01*
X145516600Y-106553000D02*
X140995400Y-106553000D01*
X140995400Y-106553000D02*
X140995400Y-107061000D01*
X140995400Y-113157000D02*
X142951200Y-113157000D01*
X142951200Y-113157000D02*
X143560800Y-113157000D01*
X143560800Y-113157000D02*
X145516600Y-113157000D01*
X145516600Y-113157000D02*
X145516600Y-112649000D01*
X142951200Y-113157000D02*
G75*
G02X143560800Y-113157000I304800J0D01*
G01*
X155854400Y-112522000D02*
X155854400Y-113030000D01*
X160375600Y-106934000D02*
X160375600Y-106426000D01*
X160375600Y-106426000D02*
X155854400Y-106426000D01*
X155854400Y-106426000D02*
X155854400Y-106934000D01*
X155854400Y-113030000D02*
X157810200Y-113030000D01*
X157810200Y-113030000D02*
X158419800Y-113030000D01*
X158419800Y-113030000D02*
X160375600Y-113030000D01*
X160375600Y-113030000D02*
X160375600Y-112522000D01*
X157810200Y-113030000D02*
G75*
G02X158419800Y-113030000I304800J0D01*
G01*
D15*
X155948000Y-113577000D02*
X154948000Y-113577000D01*
X154948000Y-115277000D02*
X155948000Y-115277000D01*
X160028000Y-115277000D02*
X161028000Y-115277000D01*
X161028000Y-113577000D02*
X160028000Y-113577000D01*
X141216000Y-113577000D02*
X140216000Y-113577000D01*
X140216000Y-115277000D02*
X141216000Y-115277000D01*
X145169000Y-115277000D02*
X146169000Y-115277000D01*
X146169000Y-113577000D02*
X145169000Y-113577000D01*
D13*
X167132000Y-85344000D02*
X136652000Y-85344000D01*
X139192000Y-90424000D02*
X167132000Y-90424000D01*
X167132000Y-85344000D02*
X167132000Y-90424000D01*
X136652000Y-85344000D02*
X136652000Y-87884000D01*
X136372000Y-89154000D02*
X136372000Y-90704000D01*
X136652000Y-87884000D02*
X139192000Y-87884000D01*
X139192000Y-87884000D02*
X139192000Y-90424000D01*
X136372000Y-90704000D02*
X137922000Y-90704000D01*
X186055000Y-117094000D02*
X186055000Y-76454000D01*
X186055000Y-76454000D02*
X177165000Y-76454000D01*
X177165000Y-76454000D02*
X177165000Y-117094000D01*
X177165000Y-117094000D02*
X186055000Y-117094000D01*
D16*
X139084000Y-94326000D02*
X138284000Y-94326000D01*
X138284000Y-94326000D02*
X138284000Y-94526000D01*
X138284000Y-94526000D02*
X139084000Y-94526000D01*
X139084000Y-94526000D02*
X139084000Y-93126000D01*
X139084000Y-93126000D02*
X138284000Y-93126000D01*
X138284000Y-93126000D02*
X138284000Y-94326000D01*
X147339000Y-94326000D02*
X146539000Y-94326000D01*
X146539000Y-94326000D02*
X146539000Y-94526000D01*
X146539000Y-94526000D02*
X147339000Y-94526000D01*
X147339000Y-94526000D02*
X147339000Y-93126000D01*
X147339000Y-93126000D02*
X146539000Y-93126000D01*
X146539000Y-93126000D02*
X146539000Y-94326000D01*
X141751000Y-94326000D02*
X140951000Y-94326000D01*
X140951000Y-94326000D02*
X140951000Y-94526000D01*
X140951000Y-94526000D02*
X141751000Y-94526000D01*
X141751000Y-94526000D02*
X141751000Y-93126000D01*
X141751000Y-93126000D02*
X140951000Y-93126000D01*
X140951000Y-93126000D02*
X140951000Y-94326000D01*
X144672000Y-94326000D02*
X143872000Y-94326000D01*
X143872000Y-94326000D02*
X143872000Y-94526000D01*
X143872000Y-94526000D02*
X144672000Y-94526000D01*
X144672000Y-94526000D02*
X144672000Y-93126000D01*
X144672000Y-93126000D02*
X143872000Y-93126000D01*
X143872000Y-93126000D02*
X143872000Y-94326000D01*
X140100000Y-82007000D02*
X139300000Y-82007000D01*
X139300000Y-82007000D02*
X139300000Y-82207000D01*
X139300000Y-82207000D02*
X140100000Y-82207000D01*
X140100000Y-82207000D02*
X140100000Y-80807000D01*
X140100000Y-80807000D02*
X139300000Y-80807000D01*
X139300000Y-80807000D02*
X139300000Y-82007000D01*
X143656000Y-82134000D02*
X142856000Y-82134000D01*
X142856000Y-82134000D02*
X142856000Y-82334000D01*
X142856000Y-82334000D02*
X143656000Y-82334000D01*
X143656000Y-82334000D02*
X143656000Y-80934000D01*
X143656000Y-80934000D02*
X142856000Y-80934000D01*
X142856000Y-80934000D02*
X142856000Y-82134000D01*
X147720000Y-82261000D02*
X146920000Y-82261000D01*
X146920000Y-82261000D02*
X146920000Y-82461000D01*
X146920000Y-82461000D02*
X147720000Y-82461000D01*
X147720000Y-82461000D02*
X147720000Y-81061000D01*
X147720000Y-81061000D02*
X146920000Y-81061000D01*
X146920000Y-81061000D02*
X146920000Y-82261000D01*
X151403000Y-82134000D02*
X150603000Y-82134000D01*
X150603000Y-82134000D02*
X150603000Y-82334000D01*
X150603000Y-82334000D02*
X151403000Y-82334000D01*
X151403000Y-82334000D02*
X151403000Y-80934000D01*
X151403000Y-80934000D02*
X150603000Y-80934000D01*
X150603000Y-80934000D02*
X150603000Y-82134000D01*
X152292000Y-94326000D02*
X151492000Y-94326000D01*
X151492000Y-94326000D02*
X151492000Y-94526000D01*
X151492000Y-94526000D02*
X152292000Y-94526000D01*
X152292000Y-94526000D02*
X152292000Y-93126000D01*
X152292000Y-93126000D02*
X151492000Y-93126000D01*
X151492000Y-93126000D02*
X151492000Y-94326000D01*
X154959000Y-94326000D02*
X154159000Y-94326000D01*
X154159000Y-94326000D02*
X154159000Y-94526000D01*
X154159000Y-94526000D02*
X154959000Y-94526000D01*
X154959000Y-94526000D02*
X154959000Y-93126000D01*
X154959000Y-93126000D02*
X154159000Y-93126000D01*
X154159000Y-93126000D02*
X154159000Y-94326000D01*
X157499000Y-94326000D02*
X156699000Y-94326000D01*
X156699000Y-94326000D02*
X156699000Y-94526000D01*
X156699000Y-94526000D02*
X157499000Y-94526000D01*
X157499000Y-94526000D02*
X157499000Y-93126000D01*
X157499000Y-93126000D02*
X156699000Y-93126000D01*
X156699000Y-93126000D02*
X156699000Y-94326000D01*
X149879000Y-94326000D02*
X149079000Y-94326000D01*
X149079000Y-94326000D02*
X149079000Y-94526000D01*
X149079000Y-94526000D02*
X149879000Y-94526000D01*
X149879000Y-94526000D02*
X149879000Y-93126000D01*
X149879000Y-93126000D02*
X149079000Y-93126000D01*
X149079000Y-93126000D02*
X149079000Y-94326000D01*
X155340000Y-82134000D02*
X154540000Y-82134000D01*
X154540000Y-82134000D02*
X154540000Y-82334000D01*
X154540000Y-82334000D02*
X155340000Y-82334000D01*
X155340000Y-82334000D02*
X155340000Y-80934000D01*
X155340000Y-80934000D02*
X154540000Y-80934000D01*
X154540000Y-80934000D02*
X154540000Y-82134000D01*
X160166000Y-94326000D02*
X159366000Y-94326000D01*
X159366000Y-94326000D02*
X159366000Y-94526000D01*
X159366000Y-94526000D02*
X160166000Y-94526000D01*
X160166000Y-94526000D02*
X160166000Y-93126000D01*
X160166000Y-93126000D02*
X159366000Y-93126000D01*
X159366000Y-93126000D02*
X159366000Y-94326000D01*
X162960000Y-94326000D02*
X162160000Y-94326000D01*
X162160000Y-94326000D02*
X162160000Y-94526000D01*
X162160000Y-94526000D02*
X162960000Y-94526000D01*
X162960000Y-94526000D02*
X162960000Y-93126000D01*
X162960000Y-93126000D02*
X162160000Y-93126000D01*
X162160000Y-93126000D02*
X162160000Y-94326000D01*
X165627000Y-94326000D02*
X164827000Y-94326000D01*
X164827000Y-94326000D02*
X164827000Y-94526000D01*
X164827000Y-94526000D02*
X165627000Y-94526000D01*
X165627000Y-94526000D02*
X165627000Y-93126000D01*
X165627000Y-93126000D02*
X164827000Y-93126000D01*
X164827000Y-93126000D02*
X164827000Y-94326000D01*
D13*
X171870643Y-121769166D02*
X171918262Y-121816785D01*
X171965881Y-121959642D01*
X171965881Y-122054880D01*
X171918262Y-122197738D01*
X171823024Y-122292976D01*
X171727786Y-122340595D01*
X171537310Y-122388214D01*
X171394452Y-122388214D01*
X171203976Y-122340595D01*
X171108738Y-122292976D01*
X171013500Y-122197738D01*
X170965881Y-122054880D01*
X170965881Y-121959642D01*
X171013500Y-121816785D01*
X171061119Y-121769166D01*
X171965881Y-120816785D02*
X171965881Y-121388214D01*
X171965881Y-121102500D02*
X170965881Y-121102500D01*
X171108738Y-121197738D01*
X171203976Y-121292976D01*
X171251595Y-121388214D01*
X174791643Y-119864166D02*
X174839262Y-119911785D01*
X174886881Y-120054642D01*
X174886881Y-120149880D01*
X174839262Y-120292738D01*
X174744024Y-120387976D01*
X174648786Y-120435595D01*
X174458310Y-120483214D01*
X174315452Y-120483214D01*
X174124976Y-120435595D01*
X174029738Y-120387976D01*
X173934500Y-120292738D01*
X173886881Y-120149880D01*
X173886881Y-120054642D01*
X173934500Y-119911785D01*
X173982119Y-119864166D01*
X173982119Y-119483214D02*
X173934500Y-119435595D01*
X173886881Y-119340357D01*
X173886881Y-119102261D01*
X173934500Y-119007023D01*
X173982119Y-118959404D01*
X174077357Y-118911785D01*
X174172595Y-118911785D01*
X174315452Y-118959404D01*
X174886881Y-119530833D01*
X174886881Y-118911785D01*
X180173334Y-117197143D02*
X180125715Y-117244762D01*
X179982858Y-117292381D01*
X179887620Y-117292381D01*
X179744762Y-117244762D01*
X179649524Y-117149524D01*
X179601905Y-117054286D01*
X179554286Y-116863810D01*
X179554286Y-116720952D01*
X179601905Y-116530476D01*
X179649524Y-116435238D01*
X179744762Y-116340000D01*
X179887620Y-116292381D01*
X179982858Y-116292381D01*
X180125715Y-116340000D01*
X180173334Y-116387619D01*
X180506667Y-116292381D02*
X181125715Y-116292381D01*
X180792381Y-116673333D01*
X180935239Y-116673333D01*
X181030477Y-116720952D01*
X181078096Y-116768571D01*
X181125715Y-116863810D01*
X181125715Y-117101905D01*
X181078096Y-117197143D01*
X181030477Y-117244762D01*
X180935239Y-117292381D01*
X180649524Y-117292381D01*
X180554286Y-117244762D01*
X180506667Y-117197143D01*
X179538334Y-123547143D02*
X179490715Y-123594762D01*
X179347858Y-123642381D01*
X179252620Y-123642381D01*
X179109762Y-123594762D01*
X179014524Y-123499524D01*
X178966905Y-123404286D01*
X178919286Y-123213810D01*
X178919286Y-123070952D01*
X178966905Y-122880476D01*
X179014524Y-122785238D01*
X179109762Y-122690000D01*
X179252620Y-122642381D01*
X179347858Y-122642381D01*
X179490715Y-122690000D01*
X179538334Y-122737619D01*
X180395477Y-122975714D02*
X180395477Y-123642381D01*
X180157381Y-122594762D02*
X179919286Y-123309048D01*
X180538334Y-123309048D01*
X168743405Y-96083381D02*
X168743405Y-95083381D01*
X169124358Y-95083381D01*
X169219596Y-95131000D01*
X169267215Y-95178619D01*
X169314834Y-95273857D01*
X169314834Y-95416714D01*
X169267215Y-95511952D01*
X169219596Y-95559571D01*
X169124358Y-95607190D01*
X168743405Y-95607190D01*
X170267215Y-96083381D02*
X169695786Y-96083381D01*
X169981500Y-96083381D02*
X169981500Y-95083381D01*
X169886262Y-95226238D01*
X169791024Y-95321476D01*
X169695786Y-95369095D01*
X173569334Y-91697381D02*
X173236000Y-91221190D01*
X172997905Y-91697381D02*
X172997905Y-90697381D01*
X173378858Y-90697381D01*
X173474096Y-90745000D01*
X173521715Y-90792619D01*
X173569334Y-90887857D01*
X173569334Y-91030714D01*
X173521715Y-91125952D01*
X173474096Y-91173571D01*
X173378858Y-91221190D01*
X172997905Y-91221190D01*
X174521715Y-91697381D02*
X173950286Y-91697381D01*
X174236000Y-91697381D02*
X174236000Y-90697381D01*
X174140762Y-90840238D01*
X174045524Y-90935476D01*
X173950286Y-90983095D01*
X138060381Y-101145666D02*
X137584190Y-101479000D01*
X138060381Y-101717095D02*
X137060381Y-101717095D01*
X137060381Y-101336142D01*
X137108000Y-101240904D01*
X137155619Y-101193285D01*
X137250857Y-101145666D01*
X137393714Y-101145666D01*
X137488952Y-101193285D01*
X137536571Y-101240904D01*
X137584190Y-101336142D01*
X137584190Y-101717095D01*
X137155619Y-100764714D02*
X137108000Y-100717095D01*
X137060381Y-100621857D01*
X137060381Y-100383761D01*
X137108000Y-100288523D01*
X137155619Y-100240904D01*
X137250857Y-100193285D01*
X137346095Y-100193285D01*
X137488952Y-100240904D01*
X138060381Y-100812333D01*
X138060381Y-100193285D01*
X141024381Y-101095666D02*
X140548190Y-101429000D01*
X141024381Y-101667095D02*
X140024381Y-101667095D01*
X140024381Y-101286142D01*
X140072000Y-101190904D01*
X140119619Y-101143285D01*
X140214857Y-101095666D01*
X140357714Y-101095666D01*
X140452952Y-101143285D01*
X140500571Y-101190904D01*
X140548190Y-101286142D01*
X140548190Y-101667095D01*
X140024381Y-100762333D02*
X140024381Y-100143285D01*
X140405333Y-100476619D01*
X140405333Y-100333761D01*
X140452952Y-100238523D01*
X140500571Y-100190904D01*
X140595810Y-100143285D01*
X140833905Y-100143285D01*
X140929143Y-100190904D01*
X140976762Y-100238523D01*
X141024381Y-100333761D01*
X141024381Y-100619476D01*
X140976762Y-100714714D01*
X140929143Y-100762333D01*
X143768381Y-101375666D02*
X143292190Y-101709000D01*
X143768381Y-101947095D02*
X142768381Y-101947095D01*
X142768381Y-101566142D01*
X142816000Y-101470904D01*
X142863619Y-101423285D01*
X142958857Y-101375666D01*
X143101714Y-101375666D01*
X143196952Y-101423285D01*
X143244571Y-101470904D01*
X143292190Y-101566142D01*
X143292190Y-101947095D01*
X143101714Y-100518523D02*
X143768381Y-100518523D01*
X142720762Y-100756619D02*
X143435048Y-100994714D01*
X143435048Y-100375666D01*
X146435381Y-101205666D02*
X145959190Y-101539000D01*
X146435381Y-101777095D02*
X145435381Y-101777095D01*
X145435381Y-101396142D01*
X145483000Y-101300904D01*
X145530619Y-101253285D01*
X145625857Y-101205666D01*
X145768714Y-101205666D01*
X145863952Y-101253285D01*
X145911571Y-101300904D01*
X145959190Y-101396142D01*
X145959190Y-101777095D01*
X145435381Y-100300904D02*
X145435381Y-100777095D01*
X145911571Y-100824714D01*
X145863952Y-100777095D01*
X145816333Y-100681857D01*
X145816333Y-100443761D01*
X145863952Y-100348523D01*
X145911571Y-100300904D01*
X146006810Y-100253285D01*
X146244905Y-100253285D01*
X146340143Y-100300904D01*
X146387762Y-100348523D01*
X146435381Y-100443761D01*
X146435381Y-100681857D01*
X146387762Y-100777095D01*
X146340143Y-100824714D01*
X138214381Y-76757666D02*
X137738190Y-77091000D01*
X138214381Y-77329095D02*
X137214381Y-77329095D01*
X137214381Y-76948142D01*
X137262000Y-76852904D01*
X137309619Y-76805285D01*
X137404857Y-76757666D01*
X137547714Y-76757666D01*
X137642952Y-76805285D01*
X137690571Y-76852904D01*
X137738190Y-76948142D01*
X137738190Y-77329095D01*
X137214381Y-75900523D02*
X137214381Y-76091000D01*
X137262000Y-76186238D01*
X137309619Y-76233857D01*
X137452476Y-76329095D01*
X137642952Y-76376714D01*
X138023905Y-76376714D01*
X138119143Y-76329095D01*
X138166762Y-76281476D01*
X138214381Y-76186238D01*
X138214381Y-75995761D01*
X138166762Y-75900523D01*
X138119143Y-75852904D01*
X138023905Y-75805285D01*
X137785810Y-75805285D01*
X137690571Y-75852904D01*
X137642952Y-75900523D01*
X137595333Y-75995761D01*
X137595333Y-76186238D01*
X137642952Y-76281476D01*
X137690571Y-76329095D01*
X137785810Y-76376714D01*
X141760381Y-77004666D02*
X141284190Y-77338000D01*
X141760381Y-77576095D02*
X140760381Y-77576095D01*
X140760381Y-77195142D01*
X140808000Y-77099904D01*
X140855619Y-77052285D01*
X140950857Y-77004666D01*
X141093714Y-77004666D01*
X141188952Y-77052285D01*
X141236571Y-77099904D01*
X141284190Y-77195142D01*
X141284190Y-77576095D01*
X140760381Y-76671333D02*
X140760381Y-76004666D01*
X141760381Y-76433238D01*
X145757381Y-77121666D02*
X145281190Y-77455000D01*
X145757381Y-77693095D02*
X144757381Y-77693095D01*
X144757381Y-77312142D01*
X144805000Y-77216904D01*
X144852619Y-77169285D01*
X144947857Y-77121666D01*
X145090714Y-77121666D01*
X145185952Y-77169285D01*
X145233571Y-77216904D01*
X145281190Y-77312142D01*
X145281190Y-77693095D01*
X145185952Y-76550238D02*
X145138333Y-76645476D01*
X145090714Y-76693095D01*
X144995476Y-76740714D01*
X144947857Y-76740714D01*
X144852619Y-76693095D01*
X144805000Y-76645476D01*
X144757381Y-76550238D01*
X144757381Y-76359761D01*
X144805000Y-76264523D01*
X144852619Y-76216904D01*
X144947857Y-76169285D01*
X144995476Y-76169285D01*
X145090714Y-76216904D01*
X145138333Y-76264523D01*
X145185952Y-76359761D01*
X145185952Y-76550238D01*
X145233571Y-76645476D01*
X145281190Y-76693095D01*
X145376429Y-76740714D01*
X145566905Y-76740714D01*
X145662143Y-76693095D01*
X145709762Y-76645476D01*
X145757381Y-76550238D01*
X145757381Y-76359761D01*
X145709762Y-76264523D01*
X145662143Y-76216904D01*
X145566905Y-76169285D01*
X145376429Y-76169285D01*
X145281190Y-76216904D01*
X145233571Y-76264523D01*
X145185952Y-76359761D01*
X149550381Y-76994666D02*
X149074190Y-77328000D01*
X149550381Y-77566095D02*
X148550381Y-77566095D01*
X148550381Y-77185142D01*
X148598000Y-77089904D01*
X148645619Y-77042285D01*
X148740857Y-76994666D01*
X148883714Y-76994666D01*
X148978952Y-77042285D01*
X149026571Y-77089904D01*
X149074190Y-77185142D01*
X149074190Y-77566095D01*
X149550381Y-76518476D02*
X149550381Y-76328000D01*
X149502762Y-76232761D01*
X149455143Y-76185142D01*
X149312286Y-76089904D01*
X149121810Y-76042285D01*
X148740857Y-76042285D01*
X148645619Y-76089904D01*
X148598000Y-76137523D01*
X148550381Y-76232761D01*
X148550381Y-76423238D01*
X148598000Y-76518476D01*
X148645619Y-76566095D01*
X148740857Y-76613714D01*
X148978952Y-76613714D01*
X149074190Y-76566095D01*
X149121810Y-76518476D01*
X149169429Y-76423238D01*
X149169429Y-76232761D01*
X149121810Y-76137523D01*
X149074190Y-76089904D01*
X148978952Y-76042285D01*
X151388381Y-102241857D02*
X150912190Y-102575191D01*
X151388381Y-102813286D02*
X150388381Y-102813286D01*
X150388381Y-102432333D01*
X150436000Y-102337095D01*
X150483619Y-102289476D01*
X150578857Y-102241857D01*
X150721714Y-102241857D01*
X150816952Y-102289476D01*
X150864571Y-102337095D01*
X150912190Y-102432333D01*
X150912190Y-102813286D01*
X151388381Y-101289476D02*
X151388381Y-101860905D01*
X151388381Y-101575191D02*
X150388381Y-101575191D01*
X150531238Y-101670429D01*
X150626476Y-101765667D01*
X150674095Y-101860905D01*
X150388381Y-100670429D02*
X150388381Y-100575190D01*
X150436000Y-100479952D01*
X150483619Y-100432333D01*
X150578857Y-100384714D01*
X150769333Y-100337095D01*
X151007429Y-100337095D01*
X151197905Y-100384714D01*
X151293143Y-100432333D01*
X151340762Y-100479952D01*
X151388381Y-100575190D01*
X151388381Y-100670429D01*
X151340762Y-100765667D01*
X151293143Y-100813286D01*
X151197905Y-100860905D01*
X151007429Y-100908524D01*
X150769333Y-100908524D01*
X150578857Y-100860905D01*
X150483619Y-100813286D01*
X150436000Y-100765667D01*
X150388381Y-100670429D01*
X153945381Y-102291857D02*
X153469190Y-102625191D01*
X153945381Y-102863286D02*
X152945381Y-102863286D01*
X152945381Y-102482333D01*
X152993000Y-102387095D01*
X153040619Y-102339476D01*
X153135857Y-102291857D01*
X153278714Y-102291857D01*
X153373952Y-102339476D01*
X153421571Y-102387095D01*
X153469190Y-102482333D01*
X153469190Y-102863286D01*
X153945381Y-101339476D02*
X153945381Y-101910905D01*
X153945381Y-101625191D02*
X152945381Y-101625191D01*
X153088238Y-101720429D01*
X153183476Y-101815667D01*
X153231095Y-101910905D01*
X153945381Y-100387095D02*
X153945381Y-100958524D01*
X153945381Y-100672810D02*
X152945381Y-100672810D01*
X153088238Y-100768048D01*
X153183476Y-100863286D01*
X153231095Y-100958524D01*
X156655381Y-102351857D02*
X156179190Y-102685191D01*
X156655381Y-102923286D02*
X155655381Y-102923286D01*
X155655381Y-102542333D01*
X155703000Y-102447095D01*
X155750619Y-102399476D01*
X155845857Y-102351857D01*
X155988714Y-102351857D01*
X156083952Y-102399476D01*
X156131571Y-102447095D01*
X156179190Y-102542333D01*
X156179190Y-102923286D01*
X156655381Y-101399476D02*
X156655381Y-101970905D01*
X156655381Y-101685191D02*
X155655381Y-101685191D01*
X155798238Y-101780429D01*
X155893476Y-101875667D01*
X155941095Y-101970905D01*
X155750619Y-101018524D02*
X155703000Y-100970905D01*
X155655381Y-100875667D01*
X155655381Y-100637571D01*
X155703000Y-100542333D01*
X155750619Y-100494714D01*
X155845857Y-100447095D01*
X155941095Y-100447095D01*
X156083952Y-100494714D01*
X156655381Y-101066143D01*
X156655381Y-100447095D01*
X149005381Y-102181857D02*
X148529190Y-102515191D01*
X149005381Y-102753286D02*
X148005381Y-102753286D01*
X148005381Y-102372333D01*
X148053000Y-102277095D01*
X148100619Y-102229476D01*
X148195857Y-102181857D01*
X148338714Y-102181857D01*
X148433952Y-102229476D01*
X148481571Y-102277095D01*
X148529190Y-102372333D01*
X148529190Y-102753286D01*
X149005381Y-101229476D02*
X149005381Y-101800905D01*
X149005381Y-101515191D02*
X148005381Y-101515191D01*
X148148238Y-101610429D01*
X148243476Y-101705667D01*
X148291095Y-101800905D01*
X148005381Y-100896143D02*
X148005381Y-100277095D01*
X148386333Y-100610429D01*
X148386333Y-100467571D01*
X148433952Y-100372333D01*
X148481571Y-100324714D01*
X148576810Y-100277095D01*
X148814905Y-100277095D01*
X148910143Y-100324714D01*
X148957762Y-100372333D01*
X149005381Y-100467571D01*
X149005381Y-100753286D01*
X148957762Y-100848524D01*
X148910143Y-100896143D01*
X153360381Y-76860857D02*
X152884190Y-77194191D01*
X153360381Y-77432286D02*
X152360381Y-77432286D01*
X152360381Y-77051333D01*
X152408000Y-76956095D01*
X152455619Y-76908476D01*
X152550857Y-76860857D01*
X152693714Y-76860857D01*
X152788952Y-76908476D01*
X152836571Y-76956095D01*
X152884190Y-77051333D01*
X152884190Y-77432286D01*
X153360381Y-75908476D02*
X153360381Y-76479905D01*
X153360381Y-76194191D02*
X152360381Y-76194191D01*
X152503238Y-76289429D01*
X152598476Y-76384667D01*
X152646095Y-76479905D01*
X152693714Y-75051333D02*
X153360381Y-75051333D01*
X152312762Y-75289429D02*
X153027048Y-75527524D01*
X153027048Y-74908476D01*
X159372381Y-102181857D02*
X158896190Y-102515191D01*
X159372381Y-102753286D02*
X158372381Y-102753286D01*
X158372381Y-102372333D01*
X158420000Y-102277095D01*
X158467619Y-102229476D01*
X158562857Y-102181857D01*
X158705714Y-102181857D01*
X158800952Y-102229476D01*
X158848571Y-102277095D01*
X158896190Y-102372333D01*
X158896190Y-102753286D01*
X159372381Y-101229476D02*
X159372381Y-101800905D01*
X159372381Y-101515191D02*
X158372381Y-101515191D01*
X158515238Y-101610429D01*
X158610476Y-101705667D01*
X158658095Y-101800905D01*
X158372381Y-100324714D02*
X158372381Y-100800905D01*
X158848571Y-100848524D01*
X158800952Y-100800905D01*
X158753333Y-100705667D01*
X158753333Y-100467571D01*
X158800952Y-100372333D01*
X158848571Y-100324714D01*
X158943810Y-100277095D01*
X159181905Y-100277095D01*
X159277143Y-100324714D01*
X159324762Y-100372333D01*
X159372381Y-100467571D01*
X159372381Y-100705667D01*
X159324762Y-100800905D01*
X159277143Y-100848524D01*
X162336381Y-102191857D02*
X161860190Y-102525191D01*
X162336381Y-102763286D02*
X161336381Y-102763286D01*
X161336381Y-102382333D01*
X161384000Y-102287095D01*
X161431619Y-102239476D01*
X161526857Y-102191857D01*
X161669714Y-102191857D01*
X161764952Y-102239476D01*
X161812571Y-102287095D01*
X161860190Y-102382333D01*
X161860190Y-102763286D01*
X162336381Y-101239476D02*
X162336381Y-101810905D01*
X162336381Y-101525191D02*
X161336381Y-101525191D01*
X161479238Y-101620429D01*
X161574476Y-101715667D01*
X161622095Y-101810905D01*
X161336381Y-100382333D02*
X161336381Y-100572810D01*
X161384000Y-100668048D01*
X161431619Y-100715667D01*
X161574476Y-100810905D01*
X161764952Y-100858524D01*
X162145905Y-100858524D01*
X162241143Y-100810905D01*
X162288762Y-100763286D01*
X162336381Y-100668048D01*
X162336381Y-100477571D01*
X162288762Y-100382333D01*
X162241143Y-100334714D01*
X162145905Y-100287095D01*
X161907810Y-100287095D01*
X161812571Y-100334714D01*
X161764952Y-100382333D01*
X161717333Y-100477571D01*
X161717333Y-100668048D01*
X161764952Y-100763286D01*
X161812571Y-100810905D01*
X161907810Y-100858524D01*
X164663381Y-102521857D02*
X164187190Y-102855191D01*
X164663381Y-103093286D02*
X163663381Y-103093286D01*
X163663381Y-102712333D01*
X163711000Y-102617095D01*
X163758619Y-102569476D01*
X163853857Y-102521857D01*
X163996714Y-102521857D01*
X164091952Y-102569476D01*
X164139571Y-102617095D01*
X164187190Y-102712333D01*
X164187190Y-103093286D01*
X164663381Y-101569476D02*
X164663381Y-102140905D01*
X164663381Y-101855191D02*
X163663381Y-101855191D01*
X163806238Y-101950429D01*
X163901476Y-102045667D01*
X163949095Y-102140905D01*
X163663381Y-101236143D02*
X163663381Y-100569476D01*
X164663381Y-100998048D01*
D16*
X141242861Y-104383744D02*
X141242861Y-105713079D01*
X141321057Y-105869471D01*
X141399253Y-105947668D01*
X141555646Y-106025864D01*
X141868430Y-106025864D01*
X142024823Y-105947668D01*
X142103019Y-105869471D01*
X142181215Y-105713079D01*
X142181215Y-104383744D01*
X143823335Y-106025864D02*
X142884981Y-106025864D01*
X143354158Y-106025864D02*
X143354158Y-104383744D01*
X143197766Y-104618332D01*
X143041373Y-104774725D01*
X142884981Y-104852921D01*
X147010381Y-113378810D02*
X146010381Y-113378810D01*
X146010381Y-112997857D01*
X146058000Y-112902619D01*
X146105619Y-112855000D01*
X146200857Y-112807381D01*
X146343714Y-112807381D01*
X146438952Y-112855000D01*
X146486571Y-112902619D01*
X146534190Y-112997857D01*
X146534190Y-113378810D01*
X146915143Y-111807381D02*
X146962762Y-111855000D01*
X147010381Y-111997857D01*
X147010381Y-112093095D01*
X146962762Y-112235953D01*
X146867524Y-112331191D01*
X146772286Y-112378810D01*
X146581810Y-112426429D01*
X146438952Y-112426429D01*
X146248476Y-112378810D01*
X146153238Y-112331191D01*
X146058000Y-112235953D01*
X146010381Y-112093095D01*
X146010381Y-111997857D01*
X146058000Y-111855000D01*
X146105619Y-111807381D01*
X146724667Y-111426429D02*
X146724667Y-110950238D01*
X147010381Y-111521667D02*
X146010381Y-111188334D01*
X147010381Y-110855000D01*
X146010381Y-110093095D02*
X146010381Y-110283572D01*
X146058000Y-110378810D01*
X146105619Y-110426429D01*
X146248476Y-110521667D01*
X146438952Y-110569286D01*
X146819905Y-110569286D01*
X146915143Y-110521667D01*
X146962762Y-110474048D01*
X147010381Y-110378810D01*
X147010381Y-110188333D01*
X146962762Y-110093095D01*
X146915143Y-110045476D01*
X146819905Y-109997857D01*
X146581810Y-109997857D01*
X146486571Y-110045476D01*
X146438952Y-110093095D01*
X146391333Y-110188333D01*
X146391333Y-110378810D01*
X146438952Y-110474048D01*
X146486571Y-110521667D01*
X146581810Y-110569286D01*
X146343714Y-109140714D02*
X147010381Y-109140714D01*
X145962762Y-109378810D02*
X146677048Y-109616905D01*
X146677048Y-108997857D01*
X146010381Y-108426429D02*
X146010381Y-108331190D01*
X146058000Y-108235952D01*
X146105619Y-108188333D01*
X146200857Y-108140714D01*
X146391333Y-108093095D01*
X146629429Y-108093095D01*
X146819905Y-108140714D01*
X146915143Y-108188333D01*
X146962762Y-108235952D01*
X147010381Y-108331190D01*
X147010381Y-108426429D01*
X146962762Y-108521667D01*
X146915143Y-108569286D01*
X146819905Y-108616905D01*
X146629429Y-108664524D01*
X146391333Y-108664524D01*
X146200857Y-108616905D01*
X146105619Y-108569286D01*
X146058000Y-108521667D01*
X146010381Y-108426429D01*
X146438952Y-107521667D02*
X146391333Y-107616905D01*
X146343714Y-107664524D01*
X146248476Y-107712143D01*
X146200857Y-107712143D01*
X146105619Y-107664524D01*
X146058000Y-107616905D01*
X146010381Y-107521667D01*
X146010381Y-107331190D01*
X146058000Y-107235952D01*
X146105619Y-107188333D01*
X146200857Y-107140714D01*
X146248476Y-107140714D01*
X146343714Y-107188333D01*
X146391333Y-107235952D01*
X146438952Y-107331190D01*
X146438952Y-107521667D01*
X146486571Y-107616905D01*
X146534190Y-107664524D01*
X146629429Y-107712143D01*
X146819905Y-107712143D01*
X146915143Y-107664524D01*
X146962762Y-107616905D01*
X147010381Y-107521667D01*
X147010381Y-107331190D01*
X146962762Y-107235952D01*
X146915143Y-107188333D01*
X146819905Y-107140714D01*
X146629429Y-107140714D01*
X146534190Y-107188333D01*
X146486571Y-107235952D01*
X146438952Y-107331190D01*
X146724667Y-106759762D02*
X146724667Y-106283571D01*
X147010381Y-106855000D02*
X146010381Y-106521667D01*
X147010381Y-106188333D01*
X156101861Y-104256744D02*
X156101861Y-105586079D01*
X156180057Y-105742471D01*
X156258253Y-105820668D01*
X156414646Y-105898864D01*
X156727430Y-105898864D01*
X156883823Y-105820668D01*
X156962019Y-105742471D01*
X157040215Y-105586079D01*
X157040215Y-104256744D01*
X157743981Y-104413136D02*
X157822177Y-104334940D01*
X157978569Y-104256744D01*
X158369550Y-104256744D01*
X158525943Y-104334940D01*
X158604139Y-104413136D01*
X158682335Y-104569529D01*
X158682335Y-104725921D01*
X158604139Y-104960510D01*
X157665785Y-105898864D01*
X158682335Y-105898864D01*
X161615381Y-113251810D02*
X160615381Y-113251810D01*
X160615381Y-112870857D01*
X160663000Y-112775619D01*
X160710619Y-112728000D01*
X160805857Y-112680381D01*
X160948714Y-112680381D01*
X161043952Y-112728000D01*
X161091571Y-112775619D01*
X161139190Y-112870857D01*
X161139190Y-113251810D01*
X161520143Y-111680381D02*
X161567762Y-111728000D01*
X161615381Y-111870857D01*
X161615381Y-111966095D01*
X161567762Y-112108953D01*
X161472524Y-112204191D01*
X161377286Y-112251810D01*
X161186810Y-112299429D01*
X161043952Y-112299429D01*
X160853476Y-112251810D01*
X160758238Y-112204191D01*
X160663000Y-112108953D01*
X160615381Y-111966095D01*
X160615381Y-111870857D01*
X160663000Y-111728000D01*
X160710619Y-111680381D01*
X161329667Y-111299429D02*
X161329667Y-110823238D01*
X161615381Y-111394667D02*
X160615381Y-111061334D01*
X161615381Y-110728000D01*
X160615381Y-109966095D02*
X160615381Y-110156572D01*
X160663000Y-110251810D01*
X160710619Y-110299429D01*
X160853476Y-110394667D01*
X161043952Y-110442286D01*
X161424905Y-110442286D01*
X161520143Y-110394667D01*
X161567762Y-110347048D01*
X161615381Y-110251810D01*
X161615381Y-110061333D01*
X161567762Y-109966095D01*
X161520143Y-109918476D01*
X161424905Y-109870857D01*
X161186810Y-109870857D01*
X161091571Y-109918476D01*
X161043952Y-109966095D01*
X160996333Y-110061333D01*
X160996333Y-110251810D01*
X161043952Y-110347048D01*
X161091571Y-110394667D01*
X161186810Y-110442286D01*
X160948714Y-109013714D02*
X161615381Y-109013714D01*
X160567762Y-109251810D02*
X161282048Y-109489905D01*
X161282048Y-108870857D01*
X160615381Y-108299429D02*
X160615381Y-108204190D01*
X160663000Y-108108952D01*
X160710619Y-108061333D01*
X160805857Y-108013714D01*
X160996333Y-107966095D01*
X161234429Y-107966095D01*
X161424905Y-108013714D01*
X161520143Y-108061333D01*
X161567762Y-108108952D01*
X161615381Y-108204190D01*
X161615381Y-108299429D01*
X161567762Y-108394667D01*
X161520143Y-108442286D01*
X161424905Y-108489905D01*
X161234429Y-108537524D01*
X160996333Y-108537524D01*
X160805857Y-108489905D01*
X160710619Y-108442286D01*
X160663000Y-108394667D01*
X160615381Y-108299429D01*
X161043952Y-107394667D02*
X160996333Y-107489905D01*
X160948714Y-107537524D01*
X160853476Y-107585143D01*
X160805857Y-107585143D01*
X160710619Y-107537524D01*
X160663000Y-107489905D01*
X160615381Y-107394667D01*
X160615381Y-107204190D01*
X160663000Y-107108952D01*
X160710619Y-107061333D01*
X160805857Y-107013714D01*
X160853476Y-107013714D01*
X160948714Y-107061333D01*
X160996333Y-107108952D01*
X161043952Y-107204190D01*
X161043952Y-107394667D01*
X161091571Y-107489905D01*
X161139190Y-107537524D01*
X161234429Y-107585143D01*
X161424905Y-107585143D01*
X161520143Y-107537524D01*
X161567762Y-107489905D01*
X161615381Y-107394667D01*
X161615381Y-107204190D01*
X161567762Y-107108952D01*
X161520143Y-107061333D01*
X161424905Y-107013714D01*
X161234429Y-107013714D01*
X161139190Y-107061333D01*
X161091571Y-107108952D01*
X161043952Y-107204190D01*
X161329667Y-106632762D02*
X161329667Y-106156571D01*
X161615381Y-106728000D02*
X160615381Y-106394667D01*
X161615381Y-106061333D01*
D13*
X159345334Y-116562143D02*
X159297715Y-116609762D01*
X159154858Y-116657381D01*
X159059620Y-116657381D01*
X158916762Y-116609762D01*
X158821524Y-116514524D01*
X158773905Y-116419286D01*
X158726286Y-116228810D01*
X158726286Y-116085952D01*
X158773905Y-115895476D01*
X158821524Y-115800238D01*
X158916762Y-115705000D01*
X159059620Y-115657381D01*
X159154858Y-115657381D01*
X159297715Y-115705000D01*
X159345334Y-115752619D01*
X160250096Y-115657381D02*
X159773905Y-115657381D01*
X159726286Y-116133571D01*
X159773905Y-116085952D01*
X159869143Y-116038333D01*
X160107239Y-116038333D01*
X160202477Y-116085952D01*
X160250096Y-116133571D01*
X160297715Y-116228810D01*
X160297715Y-116466905D01*
X160250096Y-116562143D01*
X160202477Y-116609762D01*
X160107239Y-116657381D01*
X159869143Y-116657381D01*
X159773905Y-116609762D01*
X159726286Y-116562143D01*
X152868334Y-116181143D02*
X152820715Y-116228762D01*
X152677858Y-116276381D01*
X152582620Y-116276381D01*
X152439762Y-116228762D01*
X152344524Y-116133524D01*
X152296905Y-116038286D01*
X152249286Y-115847810D01*
X152249286Y-115704952D01*
X152296905Y-115514476D01*
X152344524Y-115419238D01*
X152439762Y-115324000D01*
X152582620Y-115276381D01*
X152677858Y-115276381D01*
X152820715Y-115324000D01*
X152868334Y-115371619D01*
X153725477Y-115276381D02*
X153535000Y-115276381D01*
X153439762Y-115324000D01*
X153392143Y-115371619D01*
X153296905Y-115514476D01*
X153249286Y-115704952D01*
X153249286Y-116085905D01*
X153296905Y-116181143D01*
X153344524Y-116228762D01*
X153439762Y-116276381D01*
X153630239Y-116276381D01*
X153725477Y-116228762D01*
X153773096Y-116181143D01*
X153820715Y-116085905D01*
X153820715Y-115847810D01*
X153773096Y-115752571D01*
X153725477Y-115704952D01*
X153630239Y-115657333D01*
X153439762Y-115657333D01*
X153344524Y-115704952D01*
X153296905Y-115752571D01*
X153249286Y-115847810D01*
X137501334Y-116435143D02*
X137453715Y-116482762D01*
X137310858Y-116530381D01*
X137215620Y-116530381D01*
X137072762Y-116482762D01*
X136977524Y-116387524D01*
X136929905Y-116292286D01*
X136882286Y-116101810D01*
X136882286Y-115958952D01*
X136929905Y-115768476D01*
X136977524Y-115673238D01*
X137072762Y-115578000D01*
X137215620Y-115530381D01*
X137310858Y-115530381D01*
X137453715Y-115578000D01*
X137501334Y-115625619D01*
X137834667Y-115530381D02*
X138501334Y-115530381D01*
X138072762Y-116530381D01*
X145502334Y-116534143D02*
X145454715Y-116581762D01*
X145311858Y-116629381D01*
X145216620Y-116629381D01*
X145073762Y-116581762D01*
X144978524Y-116486524D01*
X144930905Y-116391286D01*
X144883286Y-116200810D01*
X144883286Y-116057952D01*
X144930905Y-115867476D01*
X144978524Y-115772238D01*
X145073762Y-115677000D01*
X145216620Y-115629381D01*
X145311858Y-115629381D01*
X145454715Y-115677000D01*
X145502334Y-115724619D01*
X146073762Y-116057952D02*
X145978524Y-116010333D01*
X145930905Y-115962714D01*
X145883286Y-115867476D01*
X145883286Y-115819857D01*
X145930905Y-115724619D01*
X145978524Y-115677000D01*
X146073762Y-115629381D01*
X146264239Y-115629381D01*
X146359477Y-115677000D01*
X146407096Y-115724619D01*
X146454715Y-115819857D01*
X146454715Y-115867476D01*
X146407096Y-115962714D01*
X146359477Y-116010333D01*
X146264239Y-116057952D01*
X146073762Y-116057952D01*
X145978524Y-116105571D01*
X145930905Y-116153190D01*
X145883286Y-116248429D01*
X145883286Y-116438905D01*
X145930905Y-116534143D01*
X145978524Y-116581762D01*
X146073762Y-116629381D01*
X146264239Y-116629381D01*
X146359477Y-116581762D01*
X146407096Y-116534143D01*
X146454715Y-116438905D01*
X146454715Y-116248429D01*
X146407096Y-116153190D01*
X146359477Y-116105571D01*
X146264239Y-116057952D01*
X135231143Y-88987095D02*
X135278762Y-89034714D01*
X135326381Y-89177571D01*
X135326381Y-89272809D01*
X135278762Y-89415667D01*
X135183524Y-89510905D01*
X135088286Y-89558524D01*
X134897810Y-89606143D01*
X134754952Y-89606143D01*
X134564476Y-89558524D01*
X134469238Y-89510905D01*
X134374000Y-89415667D01*
X134326381Y-89272809D01*
X134326381Y-89177571D01*
X134374000Y-89034714D01*
X134421619Y-88987095D01*
X134326381Y-88368048D02*
X134326381Y-88177571D01*
X134374000Y-88082333D01*
X134469238Y-87987095D01*
X134659714Y-87939476D01*
X134993048Y-87939476D01*
X135183524Y-87987095D01*
X135278762Y-88082333D01*
X135326381Y-88177571D01*
X135326381Y-88368048D01*
X135278762Y-88463286D01*
X135183524Y-88558524D01*
X134993048Y-88606143D01*
X134659714Y-88606143D01*
X134469238Y-88558524D01*
X134374000Y-88463286D01*
X134326381Y-88368048D01*
X135326381Y-87510905D02*
X134326381Y-87510905D01*
X135326381Y-86939476D01*
X134326381Y-86939476D01*
X135326381Y-86463286D02*
X134326381Y-86463286D01*
X135326381Y-85891857D01*
X134326381Y-85891857D01*
X134421619Y-85463286D02*
X134374000Y-85415667D01*
X134326381Y-85320429D01*
X134326381Y-85082333D01*
X134374000Y-84987095D01*
X134421619Y-84939476D01*
X134516857Y-84891857D01*
X134612095Y-84891857D01*
X134754952Y-84939476D01*
X135326381Y-85510905D01*
X135326381Y-84891857D01*
X182602143Y-97623095D02*
X182649762Y-97670714D01*
X182697381Y-97813571D01*
X182697381Y-97908809D01*
X182649762Y-98051667D01*
X182554524Y-98146905D01*
X182459286Y-98194524D01*
X182268810Y-98242143D01*
X182125952Y-98242143D01*
X181935476Y-98194524D01*
X181840238Y-98146905D01*
X181745000Y-98051667D01*
X181697381Y-97908809D01*
X181697381Y-97813571D01*
X181745000Y-97670714D01*
X181792619Y-97623095D01*
X181697381Y-97004048D02*
X181697381Y-96813571D01*
X181745000Y-96718333D01*
X181840238Y-96623095D01*
X182030714Y-96575476D01*
X182364048Y-96575476D01*
X182554524Y-96623095D01*
X182649762Y-96718333D01*
X182697381Y-96813571D01*
X182697381Y-97004048D01*
X182649762Y-97099286D01*
X182554524Y-97194524D01*
X182364048Y-97242143D01*
X182030714Y-97242143D01*
X181840238Y-97194524D01*
X181745000Y-97099286D01*
X181697381Y-97004048D01*
X182697381Y-96146905D02*
X181697381Y-96146905D01*
X182697381Y-95575476D01*
X181697381Y-95575476D01*
X182697381Y-95099286D02*
X181697381Y-95099286D01*
X182697381Y-94527857D01*
X181697381Y-94527857D01*
X182697381Y-93527857D02*
X182697381Y-94099286D01*
X182697381Y-93813572D02*
X181697381Y-93813572D01*
X181840238Y-93908810D01*
X181935476Y-94004048D01*
X181983095Y-94099286D01*
D17*
X138402190Y-92825047D02*
X137902190Y-92825047D01*
X137902190Y-92706000D01*
X137926000Y-92634571D01*
X137973619Y-92586952D01*
X138021238Y-92563143D01*
X138116476Y-92539333D01*
X138187905Y-92539333D01*
X138283143Y-92563143D01*
X138330762Y-92586952D01*
X138378381Y-92634571D01*
X138402190Y-92706000D01*
X138402190Y-92825047D01*
X138402190Y-92063143D02*
X138402190Y-92348857D01*
X138402190Y-92206000D02*
X137902190Y-92206000D01*
X137973619Y-92253619D01*
X138021238Y-92301238D01*
X138045048Y-92348857D01*
X146784190Y-92698047D02*
X146284190Y-92698047D01*
X146284190Y-92579000D01*
X146308000Y-92507571D01*
X146355619Y-92459952D01*
X146403238Y-92436143D01*
X146498476Y-92412333D01*
X146569905Y-92412333D01*
X146665143Y-92436143D01*
X146712762Y-92459952D01*
X146760381Y-92507571D01*
X146784190Y-92579000D01*
X146784190Y-92698047D01*
X146450857Y-91983762D02*
X146784190Y-91983762D01*
X146260381Y-92102809D02*
X146617524Y-92221857D01*
X146617524Y-91912333D01*
X141069190Y-92698047D02*
X140569190Y-92698047D01*
X140569190Y-92579000D01*
X140593000Y-92507571D01*
X140640619Y-92459952D01*
X140688238Y-92436143D01*
X140783476Y-92412333D01*
X140854905Y-92412333D01*
X140950143Y-92436143D01*
X140997762Y-92459952D01*
X141045381Y-92507571D01*
X141069190Y-92579000D01*
X141069190Y-92698047D01*
X140616810Y-92221857D02*
X140593000Y-92198047D01*
X140569190Y-92150428D01*
X140569190Y-92031381D01*
X140593000Y-91983762D01*
X140616810Y-91959952D01*
X140664429Y-91936143D01*
X140712048Y-91936143D01*
X140783476Y-91959952D01*
X141069190Y-92245666D01*
X141069190Y-91936143D01*
X144117190Y-92571047D02*
X143617190Y-92571047D01*
X143617190Y-92452000D01*
X143641000Y-92380571D01*
X143688619Y-92332952D01*
X143736238Y-92309143D01*
X143831476Y-92285333D01*
X143902905Y-92285333D01*
X143998143Y-92309143D01*
X144045762Y-92332952D01*
X144093381Y-92380571D01*
X144117190Y-92452000D01*
X144117190Y-92571047D01*
X143617190Y-92118666D02*
X143617190Y-91809143D01*
X143807667Y-91975809D01*
X143807667Y-91904381D01*
X143831476Y-91856762D01*
X143855286Y-91832952D01*
X143902905Y-91809143D01*
X144021952Y-91809143D01*
X144069571Y-91832952D01*
X144093381Y-91856762D01*
X144117190Y-91904381D01*
X144117190Y-92047238D01*
X144093381Y-92094857D01*
X144069571Y-92118666D01*
X139418190Y-80379047D02*
X138918190Y-80379047D01*
X138918190Y-80260000D01*
X138942000Y-80188571D01*
X138989619Y-80140952D01*
X139037238Y-80117143D01*
X139132476Y-80093333D01*
X139203905Y-80093333D01*
X139299143Y-80117143D01*
X139346762Y-80140952D01*
X139394381Y-80188571D01*
X139418190Y-80260000D01*
X139418190Y-80379047D01*
X138918190Y-79640952D02*
X138918190Y-79879047D01*
X139156286Y-79902857D01*
X139132476Y-79879047D01*
X139108667Y-79831428D01*
X139108667Y-79712381D01*
X139132476Y-79664762D01*
X139156286Y-79640952D01*
X139203905Y-79617143D01*
X139322952Y-79617143D01*
X139370571Y-79640952D01*
X139394381Y-79664762D01*
X139418190Y-79712381D01*
X139418190Y-79831428D01*
X139394381Y-79879047D01*
X139370571Y-79902857D01*
X143101190Y-80379047D02*
X142601190Y-80379047D01*
X142601190Y-80260000D01*
X142625000Y-80188571D01*
X142672619Y-80140952D01*
X142720238Y-80117143D01*
X142815476Y-80093333D01*
X142886905Y-80093333D01*
X142982143Y-80117143D01*
X143029762Y-80140952D01*
X143077381Y-80188571D01*
X143101190Y-80260000D01*
X143101190Y-80379047D01*
X142601190Y-79664762D02*
X142601190Y-79760000D01*
X142625000Y-79807619D01*
X142648810Y-79831428D01*
X142720238Y-79879047D01*
X142815476Y-79902857D01*
X143005952Y-79902857D01*
X143053571Y-79879047D01*
X143077381Y-79855238D01*
X143101190Y-79807619D01*
X143101190Y-79712381D01*
X143077381Y-79664762D01*
X143053571Y-79640952D01*
X143005952Y-79617143D01*
X142886905Y-79617143D01*
X142839286Y-79640952D01*
X142815476Y-79664762D01*
X142791667Y-79712381D01*
X142791667Y-79807619D01*
X142815476Y-79855238D01*
X142839286Y-79879047D01*
X142886905Y-79902857D01*
X147165190Y-80633047D02*
X146665190Y-80633047D01*
X146665190Y-80514000D01*
X146689000Y-80442571D01*
X146736619Y-80394952D01*
X146784238Y-80371143D01*
X146879476Y-80347333D01*
X146950905Y-80347333D01*
X147046143Y-80371143D01*
X147093762Y-80394952D01*
X147141381Y-80442571D01*
X147165190Y-80514000D01*
X147165190Y-80633047D01*
X146665190Y-80180666D02*
X146665190Y-79847333D01*
X147165190Y-80061619D01*
X150848190Y-80506047D02*
X150348190Y-80506047D01*
X150348190Y-80387000D01*
X150372000Y-80315571D01*
X150419619Y-80267952D01*
X150467238Y-80244143D01*
X150562476Y-80220333D01*
X150633905Y-80220333D01*
X150729143Y-80244143D01*
X150776762Y-80267952D01*
X150824381Y-80315571D01*
X150848190Y-80387000D01*
X150848190Y-80506047D01*
X150562476Y-79934619D02*
X150538667Y-79982238D01*
X150514857Y-80006047D01*
X150467238Y-80029857D01*
X150443429Y-80029857D01*
X150395810Y-80006047D01*
X150372000Y-79982238D01*
X150348190Y-79934619D01*
X150348190Y-79839381D01*
X150372000Y-79791762D01*
X150395810Y-79767952D01*
X150443429Y-79744143D01*
X150467238Y-79744143D01*
X150514857Y-79767952D01*
X150538667Y-79791762D01*
X150562476Y-79839381D01*
X150562476Y-79934619D01*
X150586286Y-79982238D01*
X150610095Y-80006047D01*
X150657714Y-80029857D01*
X150752952Y-80029857D01*
X150800571Y-80006047D01*
X150824381Y-79982238D01*
X150848190Y-79934619D01*
X150848190Y-79839381D01*
X150824381Y-79791762D01*
X150800571Y-79767952D01*
X150752952Y-79744143D01*
X150657714Y-79744143D01*
X150610095Y-79767952D01*
X150586286Y-79791762D01*
X150562476Y-79839381D01*
X151737190Y-92698047D02*
X151237190Y-92698047D01*
X151237190Y-92579000D01*
X151261000Y-92507571D01*
X151308619Y-92459952D01*
X151356238Y-92436143D01*
X151451476Y-92412333D01*
X151522905Y-92412333D01*
X151618143Y-92436143D01*
X151665762Y-92459952D01*
X151713381Y-92507571D01*
X151737190Y-92579000D01*
X151737190Y-92698047D01*
X151737190Y-92174238D02*
X151737190Y-92079000D01*
X151713381Y-92031381D01*
X151689571Y-92007571D01*
X151618143Y-91959952D01*
X151522905Y-91936143D01*
X151332429Y-91936143D01*
X151284810Y-91959952D01*
X151261000Y-91983762D01*
X151237190Y-92031381D01*
X151237190Y-92126619D01*
X151261000Y-92174238D01*
X151284810Y-92198047D01*
X151332429Y-92221857D01*
X151451476Y-92221857D01*
X151499095Y-92198047D01*
X151522905Y-92174238D01*
X151546714Y-92126619D01*
X151546714Y-92031381D01*
X151522905Y-91983762D01*
X151499095Y-91959952D01*
X151451476Y-91936143D01*
X154150190Y-92809142D02*
X153650190Y-92809142D01*
X153650190Y-92690095D01*
X153674000Y-92618666D01*
X153721619Y-92571047D01*
X153769238Y-92547238D01*
X153864476Y-92523428D01*
X153935905Y-92523428D01*
X154031143Y-92547238D01*
X154078762Y-92571047D01*
X154126381Y-92618666D01*
X154150190Y-92690095D01*
X154150190Y-92809142D01*
X154150190Y-92047238D02*
X154150190Y-92332952D01*
X154150190Y-92190095D02*
X153650190Y-92190095D01*
X153721619Y-92237714D01*
X153769238Y-92285333D01*
X153793048Y-92332952D01*
X153650190Y-91737714D02*
X153650190Y-91690095D01*
X153674000Y-91642476D01*
X153697810Y-91618667D01*
X153745429Y-91594857D01*
X153840667Y-91571048D01*
X153959714Y-91571048D01*
X154054952Y-91594857D01*
X154102571Y-91618667D01*
X154126381Y-91642476D01*
X154150190Y-91690095D01*
X154150190Y-91737714D01*
X154126381Y-91785333D01*
X154102571Y-91809143D01*
X154054952Y-91832952D01*
X153959714Y-91856762D01*
X153840667Y-91856762D01*
X153745429Y-91832952D01*
X153697810Y-91809143D01*
X153674000Y-91785333D01*
X153650190Y-91737714D01*
X156944190Y-92809142D02*
X156444190Y-92809142D01*
X156444190Y-92690095D01*
X156468000Y-92618666D01*
X156515619Y-92571047D01*
X156563238Y-92547238D01*
X156658476Y-92523428D01*
X156729905Y-92523428D01*
X156825143Y-92547238D01*
X156872762Y-92571047D01*
X156920381Y-92618666D01*
X156944190Y-92690095D01*
X156944190Y-92809142D01*
X156944190Y-92047238D02*
X156944190Y-92332952D01*
X156944190Y-92190095D02*
X156444190Y-92190095D01*
X156515619Y-92237714D01*
X156563238Y-92285333D01*
X156587048Y-92332952D01*
X156944190Y-91571048D02*
X156944190Y-91856762D01*
X156944190Y-91713905D02*
X156444190Y-91713905D01*
X156515619Y-91761524D01*
X156563238Y-91809143D01*
X156587048Y-91856762D01*
X149451190Y-92555142D02*
X148951190Y-92555142D01*
X148951190Y-92436095D01*
X148975000Y-92364666D01*
X149022619Y-92317047D01*
X149070238Y-92293238D01*
X149165476Y-92269428D01*
X149236905Y-92269428D01*
X149332143Y-92293238D01*
X149379762Y-92317047D01*
X149427381Y-92364666D01*
X149451190Y-92436095D01*
X149451190Y-92555142D01*
X149451190Y-91793238D02*
X149451190Y-92078952D01*
X149451190Y-91936095D02*
X148951190Y-91936095D01*
X149022619Y-91983714D01*
X149070238Y-92031333D01*
X149094048Y-92078952D01*
X148998810Y-91602762D02*
X148975000Y-91578952D01*
X148951190Y-91531333D01*
X148951190Y-91412286D01*
X148975000Y-91364667D01*
X148998810Y-91340857D01*
X149046429Y-91317048D01*
X149094048Y-91317048D01*
X149165476Y-91340857D01*
X149451190Y-91626571D01*
X149451190Y-91317048D01*
X156182190Y-82268142D02*
X155682190Y-82268142D01*
X155682190Y-82149095D01*
X155706000Y-82077666D01*
X155753619Y-82030047D01*
X155801238Y-82006238D01*
X155896476Y-81982428D01*
X155967905Y-81982428D01*
X156063143Y-82006238D01*
X156110762Y-82030047D01*
X156158381Y-82077666D01*
X156182190Y-82149095D01*
X156182190Y-82268142D01*
X156182190Y-81506238D02*
X156182190Y-81791952D01*
X156182190Y-81649095D02*
X155682190Y-81649095D01*
X155753619Y-81696714D01*
X155801238Y-81744333D01*
X155825048Y-81791952D01*
X155682190Y-81339571D02*
X155682190Y-81030048D01*
X155872667Y-81196714D01*
X155872667Y-81125286D01*
X155896476Y-81077667D01*
X155920286Y-81053857D01*
X155967905Y-81030048D01*
X156086952Y-81030048D01*
X156134571Y-81053857D01*
X156158381Y-81077667D01*
X156182190Y-81125286D01*
X156182190Y-81268143D01*
X156158381Y-81315762D01*
X156134571Y-81339571D01*
X159357190Y-92555142D02*
X158857190Y-92555142D01*
X158857190Y-92436095D01*
X158881000Y-92364666D01*
X158928619Y-92317047D01*
X158976238Y-92293238D01*
X159071476Y-92269428D01*
X159142905Y-92269428D01*
X159238143Y-92293238D01*
X159285762Y-92317047D01*
X159333381Y-92364666D01*
X159357190Y-92436095D01*
X159357190Y-92555142D01*
X159357190Y-91793238D02*
X159357190Y-92078952D01*
X159357190Y-91936095D02*
X158857190Y-91936095D01*
X158928619Y-91983714D01*
X158976238Y-92031333D01*
X159000048Y-92078952D01*
X159023857Y-91364667D02*
X159357190Y-91364667D01*
X158833381Y-91483714D02*
X159190524Y-91602762D01*
X159190524Y-91293238D01*
X162024190Y-92682142D02*
X161524190Y-92682142D01*
X161524190Y-92563095D01*
X161548000Y-92491666D01*
X161595619Y-92444047D01*
X161643238Y-92420238D01*
X161738476Y-92396428D01*
X161809905Y-92396428D01*
X161905143Y-92420238D01*
X161952762Y-92444047D01*
X162000381Y-92491666D01*
X162024190Y-92563095D01*
X162024190Y-92682142D01*
X162024190Y-91920238D02*
X162024190Y-92205952D01*
X162024190Y-92063095D02*
X161524190Y-92063095D01*
X161595619Y-92110714D01*
X161643238Y-92158333D01*
X161667048Y-92205952D01*
X161524190Y-91467857D02*
X161524190Y-91705952D01*
X161762286Y-91729762D01*
X161738476Y-91705952D01*
X161714667Y-91658333D01*
X161714667Y-91539286D01*
X161738476Y-91491667D01*
X161762286Y-91467857D01*
X161809905Y-91444048D01*
X161928952Y-91444048D01*
X161976571Y-91467857D01*
X162000381Y-91491667D01*
X162024190Y-91539286D01*
X162024190Y-91658333D01*
X162000381Y-91705952D01*
X161976571Y-91729762D01*
X165072190Y-92682142D02*
X164572190Y-92682142D01*
X164572190Y-92563095D01*
X164596000Y-92491666D01*
X164643619Y-92444047D01*
X164691238Y-92420238D01*
X164786476Y-92396428D01*
X164857905Y-92396428D01*
X164953143Y-92420238D01*
X165000762Y-92444047D01*
X165048381Y-92491666D01*
X165072190Y-92563095D01*
X165072190Y-92682142D01*
X165072190Y-91920238D02*
X165072190Y-92205952D01*
X165072190Y-92063095D02*
X164572190Y-92063095D01*
X164643619Y-92110714D01*
X164691238Y-92158333D01*
X164715048Y-92205952D01*
X164572190Y-91491667D02*
X164572190Y-91586905D01*
X164596000Y-91634524D01*
X164619810Y-91658333D01*
X164691238Y-91705952D01*
X164786476Y-91729762D01*
X164976952Y-91729762D01*
X165024571Y-91705952D01*
X165048381Y-91682143D01*
X165072190Y-91634524D01*
X165072190Y-91539286D01*
X165048381Y-91491667D01*
X165024571Y-91467857D01*
X164976952Y-91444048D01*
X164857905Y-91444048D01*
X164810286Y-91467857D01*
X164786476Y-91491667D01*
X164762667Y-91539286D01*
X164762667Y-91634524D01*
X164786476Y-91682143D01*
X164810286Y-91705952D01*
X164857905Y-91729762D01*
M02*
