%FSLAX45Y45*%
G04 Gerber Fmt 4.5, Leading zero omitted, Abs format (unit mm)*
G04 Created by KiCad (PCBNEW 4.0.6-e0-6349~53~ubuntu14.04.1) date Wed Dec 13 09:41:39 2017*
%MOMM*%
%LPD*%
G01*
G04 APERTURE LIST*
%ADD10C,0.127000*%
%ADD11C,0.200000*%
%ADD12C,0.300000*%
G04 APERTURE END LIST*
D10*
D11*
X13543600Y-11054400D02*
X13583600Y-11094400D01*
X13583600Y-11054400D02*
X13543600Y-11094400D01*
X13619800Y-11613200D02*
X13659800Y-11653200D01*
X13659800Y-11613200D02*
X13619800Y-11653200D01*
X13683300Y-10952800D02*
X13723300Y-10992800D01*
X13723300Y-10952800D02*
X13683300Y-10992800D01*
X13696000Y-11168700D02*
X13736000Y-11208700D01*
X13736000Y-11168700D02*
X13696000Y-11208700D01*
X13899200Y-9174800D02*
X13939200Y-9214800D01*
X13939200Y-9174800D02*
X13899200Y-9214800D01*
X13950000Y-7663500D02*
X13990000Y-7703500D01*
X13990000Y-7663500D02*
X13950000Y-7703500D01*
X14165900Y-9174800D02*
X14205900Y-9214800D01*
X14205900Y-9174800D02*
X14165900Y-9214800D01*
X14292900Y-11613200D02*
X14332900Y-11653200D01*
X14332900Y-11613200D02*
X14292900Y-11653200D01*
X14305600Y-7676200D02*
X14345600Y-7716200D01*
X14345600Y-7676200D02*
X14305600Y-7716200D01*
X14458000Y-9174800D02*
X14498000Y-9214800D01*
X14498000Y-9174800D02*
X14458000Y-9214800D01*
X14712000Y-7676200D02*
X14752000Y-7716200D01*
X14752000Y-7676200D02*
X14712000Y-7716200D01*
X14724700Y-9174800D02*
X14764700Y-9214800D01*
X14764700Y-9174800D02*
X14724700Y-9214800D01*
X14788200Y-10673400D02*
X14828200Y-10713400D01*
X14828200Y-10673400D02*
X14788200Y-10713400D01*
X14966000Y-9162100D02*
X15006000Y-9202100D01*
X15006000Y-9162100D02*
X14966000Y-9202100D01*
X15004100Y-11346500D02*
X15044100Y-11386500D01*
X15044100Y-11346500D02*
X15004100Y-11386500D01*
X15004100Y-11689400D02*
X15044100Y-11729400D01*
X15044100Y-11689400D02*
X15004100Y-11729400D01*
X15054900Y-11003600D02*
X15094900Y-11043600D01*
X15094900Y-11003600D02*
X15054900Y-11043600D01*
X15080300Y-7676200D02*
X15120300Y-7716200D01*
X15120300Y-7676200D02*
X15080300Y-7716200D01*
X15143800Y-11308400D02*
X15183800Y-11348400D01*
X15183800Y-11308400D02*
X15143800Y-11348400D01*
X15156500Y-10902000D02*
X15196500Y-10942000D01*
X15196500Y-10902000D02*
X15156500Y-10942000D01*
X15169200Y-11168700D02*
X15209200Y-11208700D01*
X15209200Y-11168700D02*
X15169200Y-11208700D01*
X15220000Y-9162100D02*
X15260000Y-9202100D01*
X15260000Y-9162100D02*
X15220000Y-9202100D01*
X15474000Y-7676200D02*
X15514000Y-7716200D01*
X15514000Y-7676200D02*
X15474000Y-7716200D01*
X15474000Y-9174800D02*
X15514000Y-9214800D01*
X15514000Y-9174800D02*
X15474000Y-9214800D01*
X15486700Y-11689400D02*
X15526700Y-11729400D01*
X15526700Y-11689400D02*
X15486700Y-11729400D01*
X15715300Y-9174800D02*
X15755300Y-9214800D01*
X15755300Y-9174800D02*
X15715300Y-9214800D01*
X15766100Y-11625900D02*
X15806100Y-11665900D01*
X15806100Y-11625900D02*
X15766100Y-11665900D01*
X15994700Y-9174800D02*
X16034700Y-9214800D01*
X16034700Y-9174800D02*
X15994700Y-9214800D01*
X16274100Y-9174800D02*
X16314100Y-9214800D01*
X16314100Y-9174800D02*
X16274100Y-9214800D01*
X16299500Y-10648000D02*
X16339500Y-10688000D01*
X16339500Y-10648000D02*
X16299500Y-10688000D01*
X16299500Y-11257600D02*
X16339500Y-11297600D01*
X16339500Y-11257600D02*
X16299500Y-11297600D01*
X16426500Y-11181400D02*
X16466500Y-11221400D01*
X16466500Y-11181400D02*
X16426500Y-11221400D01*
X16426500Y-11765600D02*
X16466500Y-11805600D01*
X16466500Y-11765600D02*
X16426500Y-11805600D01*
X16490000Y-11029000D02*
X16530000Y-11069000D01*
X16530000Y-11029000D02*
X16490000Y-11069000D01*
X16566200Y-9174800D02*
X16606200Y-9214800D01*
X16606200Y-9174800D02*
X16566200Y-9214800D01*
X16845600Y-10330500D02*
X16885600Y-10370500D01*
X16885600Y-10330500D02*
X16845600Y-10370500D01*
X16845600Y-10482900D02*
X16885600Y-10522900D01*
X16885600Y-10482900D02*
X16845600Y-10522900D01*
X16858300Y-9898700D02*
X16898300Y-9938700D01*
X16898300Y-9898700D02*
X16858300Y-9938700D01*
X16947200Y-10660700D02*
X16987200Y-10700700D01*
X16987200Y-10660700D02*
X16947200Y-10700700D01*
X16947200Y-11041700D02*
X16987200Y-11081700D01*
X16987200Y-11041700D02*
X16947200Y-11081700D01*
X16947200Y-11765600D02*
X16987200Y-11805600D01*
X16987200Y-11765600D02*
X16947200Y-11805600D01*
X17010700Y-9174800D02*
X17050700Y-9214800D01*
X17050700Y-9174800D02*
X17010700Y-9214800D01*
X17226600Y-9098600D02*
X17266600Y-9138600D01*
X17266600Y-9098600D02*
X17226600Y-9138600D01*
X17480600Y-9098600D02*
X17520600Y-9138600D01*
X17520600Y-9098600D02*
X17480600Y-9138600D01*
X17480600Y-9886000D02*
X17520600Y-9926000D01*
X17520600Y-9886000D02*
X17480600Y-9926000D01*
X17493300Y-10914700D02*
X17533300Y-10954700D01*
X17533300Y-10914700D02*
X17493300Y-10954700D01*
X17709200Y-11841800D02*
X17749200Y-11881800D01*
X17749200Y-11841800D02*
X17709200Y-11881800D01*
X13843000Y-8661400D02*
G75*
G03X13843000Y-8661400I-50800J0D01*
G01*
X13843000Y-8915400D02*
G75*
G03X13843000Y-8915400I-50800J0D01*
G01*
X14097000Y-8661400D02*
G75*
G03X14097000Y-8661400I-50800J0D01*
G01*
X14097000Y-8915400D02*
G75*
G03X14097000Y-8915400I-50800J0D01*
G01*
X14351000Y-8661400D02*
G75*
G03X14351000Y-8661400I-50800J0D01*
G01*
X14351000Y-8915400D02*
G75*
G03X14351000Y-8915400I-50800J0D01*
G01*
X14605000Y-8661400D02*
G75*
G03X14605000Y-8661400I-50800J0D01*
G01*
X14605000Y-8915400D02*
G75*
G03X14605000Y-8915400I-50800J0D01*
G01*
X14859000Y-8661400D02*
G75*
G03X14859000Y-8661400I-50800J0D01*
G01*
X14859000Y-8915400D02*
G75*
G03X14859000Y-8915400I-50800J0D01*
G01*
X15113000Y-8661400D02*
G75*
G03X15113000Y-8661400I-50800J0D01*
G01*
X15113000Y-8915400D02*
G75*
G03X15113000Y-8915400I-50800J0D01*
G01*
X15367000Y-8661400D02*
G75*
G03X15367000Y-8661400I-50800J0D01*
G01*
X15367000Y-8915400D02*
G75*
G03X15367000Y-8915400I-50800J0D01*
G01*
X15621000Y-8661400D02*
G75*
G03X15621000Y-8661400I-50800J0D01*
G01*
X15621000Y-8915400D02*
G75*
G03X15621000Y-8915400I-50800J0D01*
G01*
X15875000Y-8661400D02*
G75*
G03X15875000Y-8661400I-50800J0D01*
G01*
X15875000Y-8915400D02*
G75*
G03X15875000Y-8915400I-50800J0D01*
G01*
X16129000Y-8661400D02*
G75*
G03X16129000Y-8661400I-50800J0D01*
G01*
X16129000Y-8915400D02*
G75*
G03X16129000Y-8915400I-50800J0D01*
G01*
X16383000Y-8661400D02*
G75*
G03X16383000Y-8661400I-50800J0D01*
G01*
X16383000Y-8915400D02*
G75*
G03X16383000Y-8915400I-50800J0D01*
G01*
X16637000Y-8661400D02*
G75*
G03X16637000Y-8661400I-50800J0D01*
G01*
X16637000Y-8915400D02*
G75*
G03X16637000Y-8915400I-50800J0D01*
G01*
X17284700Y-9664700D02*
G75*
G03X17284700Y-9664700I-50800J0D01*
G01*
X17284700Y-9918700D02*
G75*
G03X17284700Y-9918700I-50800J0D01*
G01*
X17284700Y-10172700D02*
G75*
G03X17284700Y-10172700I-50800J0D01*
G01*
X17284700Y-10426700D02*
G75*
G03X17284700Y-10426700I-50800J0D01*
G01*
X17284700Y-10680700D02*
G75*
G03X17284700Y-10680700I-50800J0D01*
G01*
X17284700Y-10934700D02*
G75*
G03X17284700Y-10934700I-50800J0D01*
G01*
X17284700Y-11188700D02*
G75*
G03X17284700Y-11188700I-50800J0D01*
G01*
D12*
X271429Y-465714D02*
X271429Y-165714D01*
X342857Y-165714D01*
X385714Y-180000D01*
X414286Y-208571D01*
X428571Y-237143D01*
X442857Y-294286D01*
X442857Y-337143D01*
X428571Y-394286D01*
X414286Y-422857D01*
X385714Y-451429D01*
X342857Y-465714D01*
X271429Y-465714D01*
X571429Y-465714D02*
X571429Y-265714D01*
X571429Y-322857D02*
X585714Y-294286D01*
X600000Y-280000D01*
X628571Y-265714D01*
X657143Y-265714D01*
X757143Y-465714D02*
X757143Y-265714D01*
X757143Y-165714D02*
X742857Y-180000D01*
X757143Y-194286D01*
X771429Y-180000D01*
X757143Y-165714D01*
X757143Y-194286D01*
X942857Y-465714D02*
X914286Y-451429D01*
X900000Y-422857D01*
X900000Y-165714D01*
X1100000Y-465714D02*
X1071429Y-451429D01*
X1057143Y-422857D01*
X1057143Y-165714D01*
X1442857Y-465714D02*
X1442857Y-165714D01*
X1542857Y-380000D01*
X1642857Y-165714D01*
X1642857Y-465714D01*
X1914286Y-465714D02*
X1914286Y-308571D01*
X1900000Y-280000D01*
X1871429Y-265714D01*
X1814286Y-265714D01*
X1785714Y-280000D01*
X1914286Y-451429D02*
X1885714Y-465714D01*
X1814286Y-465714D01*
X1785714Y-451429D01*
X1771429Y-422857D01*
X1771429Y-394286D01*
X1785714Y-365714D01*
X1814286Y-351429D01*
X1885714Y-351429D01*
X1914286Y-337143D01*
X2057143Y-265714D02*
X2057143Y-565714D01*
X2057143Y-280000D02*
X2085714Y-265714D01*
X2142857Y-265714D01*
X2171429Y-280000D01*
X2185714Y-294286D01*
X2200000Y-322857D01*
X2200000Y-408571D01*
X2185714Y-437143D01*
X2171429Y-451429D01*
X2142857Y-465714D01*
X2085714Y-465714D01*
X2057143Y-451429D01*
X2328572Y-437143D02*
X2342857Y-451429D01*
X2328572Y-465714D01*
X2314286Y-451429D01*
X2328572Y-437143D01*
X2328572Y-465714D01*
X2328572Y-280000D02*
X2342857Y-294286D01*
X2328572Y-308571D01*
X2314286Y-294286D01*
X2328572Y-280000D01*
X2328572Y-308571D01*
X-40000Y-940000D02*
X0Y-980000D01*
X0Y-940000D02*
X-40000Y-980000D01*
X328571Y-795714D02*
X357143Y-795714D01*
X385714Y-810000D01*
X400000Y-824286D01*
X414286Y-852857D01*
X428571Y-910000D01*
X428571Y-981429D01*
X414286Y-1038571D01*
X400000Y-1067143D01*
X385714Y-1081429D01*
X357143Y-1095714D01*
X328571Y-1095714D01*
X300000Y-1081429D01*
X285714Y-1067143D01*
X271429Y-1038571D01*
X257143Y-981429D01*
X257143Y-910000D01*
X271429Y-852857D01*
X285714Y-824286D01*
X300000Y-810000D01*
X328571Y-795714D01*
X557143Y-1067143D02*
X571429Y-1081429D01*
X557143Y-1095714D01*
X542857Y-1081429D01*
X557143Y-1067143D01*
X557143Y-1095714D01*
X828571Y-895714D02*
X828571Y-1095714D01*
X757143Y-781429D02*
X685714Y-995714D01*
X871428Y-995714D01*
X1042857Y-795714D02*
X1071429Y-795714D01*
X1100000Y-810000D01*
X1114286Y-824286D01*
X1128571Y-852857D01*
X1142857Y-910000D01*
X1142857Y-981429D01*
X1128571Y-1038571D01*
X1114286Y-1067143D01*
X1100000Y-1081429D01*
X1071429Y-1095714D01*
X1042857Y-1095714D01*
X1014286Y-1081429D01*
X1000000Y-1067143D01*
X985714Y-1038571D01*
X971429Y-981429D01*
X971429Y-910000D01*
X985714Y-852857D01*
X1000000Y-824286D01*
X1014286Y-810000D01*
X1042857Y-795714D01*
X1271429Y-1095714D02*
X1271429Y-895714D01*
X1271429Y-924286D02*
X1285714Y-910000D01*
X1314286Y-895714D01*
X1357143Y-895714D01*
X1385714Y-910000D01*
X1400000Y-938571D01*
X1400000Y-1095714D01*
X1400000Y-938571D02*
X1414286Y-910000D01*
X1442857Y-895714D01*
X1485714Y-895714D01*
X1514286Y-910000D01*
X1528571Y-938571D01*
X1528571Y-1095714D01*
X1671429Y-1095714D02*
X1671429Y-895714D01*
X1671429Y-924286D02*
X1685714Y-910000D01*
X1714286Y-895714D01*
X1757143Y-895714D01*
X1785714Y-910000D01*
X1800000Y-938571D01*
X1800000Y-1095714D01*
X1800000Y-938571D02*
X1814286Y-910000D01*
X1842857Y-895714D01*
X1885714Y-895714D01*
X1914286Y-910000D01*
X1928571Y-938571D01*
X1928571Y-1095714D01*
X2514286Y-781429D02*
X2257143Y-1167143D01*
X2900000Y-795714D02*
X2928571Y-795714D01*
X2957143Y-810000D01*
X2971428Y-824286D01*
X2985714Y-852857D01*
X3000000Y-910000D01*
X3000000Y-981429D01*
X2985714Y-1038571D01*
X2971428Y-1067143D01*
X2957143Y-1081429D01*
X2928571Y-1095714D01*
X2900000Y-1095714D01*
X2871428Y-1081429D01*
X2857143Y-1067143D01*
X2842857Y-1038571D01*
X2828571Y-981429D01*
X2828571Y-910000D01*
X2842857Y-852857D01*
X2857143Y-824286D01*
X2871428Y-810000D01*
X2900000Y-795714D01*
X3128571Y-1067143D02*
X3142857Y-1081429D01*
X3128571Y-1095714D01*
X3114286Y-1081429D01*
X3128571Y-1067143D01*
X3128571Y-1095714D01*
X3328571Y-795714D02*
X3357143Y-795714D01*
X3385714Y-810000D01*
X3400000Y-824286D01*
X3414286Y-852857D01*
X3428571Y-910000D01*
X3428571Y-981429D01*
X3414286Y-1038571D01*
X3400000Y-1067143D01*
X3385714Y-1081429D01*
X3357143Y-1095714D01*
X3328571Y-1095714D01*
X3300000Y-1081429D01*
X3285714Y-1067143D01*
X3271428Y-1038571D01*
X3257143Y-981429D01*
X3257143Y-910000D01*
X3271428Y-852857D01*
X3285714Y-824286D01*
X3300000Y-810000D01*
X3328571Y-795714D01*
X3714286Y-1095714D02*
X3542857Y-1095714D01*
X3628571Y-1095714D02*
X3628571Y-795714D01*
X3600000Y-838571D01*
X3571428Y-867143D01*
X3542857Y-881429D01*
X3971428Y-795714D02*
X3914286Y-795714D01*
X3885714Y-810000D01*
X3871428Y-824286D01*
X3842857Y-867143D01*
X3828571Y-924286D01*
X3828571Y-1038571D01*
X3842857Y-1067143D01*
X3857143Y-1081429D01*
X3885714Y-1095714D01*
X3942857Y-1095714D01*
X3971428Y-1081429D01*
X3985714Y-1067143D01*
X4000000Y-1038571D01*
X4000000Y-967143D01*
X3985714Y-938571D01*
X3971428Y-924286D01*
X3942857Y-910000D01*
X3885714Y-910000D01*
X3857143Y-924286D01*
X3842857Y-938571D01*
X3828571Y-967143D01*
X4114286Y-795714D02*
X4114286Y-852857D01*
X4228571Y-795714D02*
X4228571Y-852857D01*
X4671429Y-1210000D02*
X4657143Y-1195714D01*
X4628571Y-1152857D01*
X4614286Y-1124286D01*
X4600000Y-1081429D01*
X4585714Y-1010000D01*
X4585714Y-952857D01*
X4600000Y-881429D01*
X4614286Y-838571D01*
X4628571Y-810000D01*
X4657143Y-767143D01*
X4671429Y-752857D01*
X4914286Y-895714D02*
X4914286Y-1095714D01*
X4842857Y-781429D02*
X4771429Y-995714D01*
X4957143Y-995714D01*
X5042857Y-795714D02*
X5242857Y-795714D01*
X5114286Y-1095714D01*
X5585714Y-1095714D02*
X5585714Y-795714D01*
X5714286Y-1095714D02*
X5714286Y-938571D01*
X5700000Y-910000D01*
X5671428Y-895714D01*
X5628571Y-895714D01*
X5600000Y-910000D01*
X5585714Y-924286D01*
X5900000Y-1095714D02*
X5871428Y-1081429D01*
X5857143Y-1067143D01*
X5842857Y-1038571D01*
X5842857Y-952857D01*
X5857143Y-924286D01*
X5871428Y-910000D01*
X5900000Y-895714D01*
X5942857Y-895714D01*
X5971428Y-910000D01*
X5985714Y-924286D01*
X6000000Y-952857D01*
X6000000Y-1038571D01*
X5985714Y-1067143D01*
X5971428Y-1081429D01*
X5942857Y-1095714D01*
X5900000Y-1095714D01*
X6171428Y-1095714D02*
X6142857Y-1081429D01*
X6128571Y-1052857D01*
X6128571Y-795714D01*
X6400000Y-1081429D02*
X6371429Y-1095714D01*
X6314286Y-1095714D01*
X6285714Y-1081429D01*
X6271429Y-1052857D01*
X6271429Y-938571D01*
X6285714Y-910000D01*
X6314286Y-895714D01*
X6371429Y-895714D01*
X6400000Y-910000D01*
X6414286Y-938571D01*
X6414286Y-967143D01*
X6271429Y-995714D01*
X6528571Y-1081429D02*
X6557143Y-1095714D01*
X6614286Y-1095714D01*
X6642857Y-1081429D01*
X6657143Y-1052857D01*
X6657143Y-1038571D01*
X6642857Y-1010000D01*
X6614286Y-995714D01*
X6571429Y-995714D01*
X6542857Y-981429D01*
X6528571Y-952857D01*
X6528571Y-938571D01*
X6542857Y-910000D01*
X6571429Y-895714D01*
X6614286Y-895714D01*
X6642857Y-910000D01*
X6757143Y-1210000D02*
X6771429Y-1195714D01*
X6800000Y-1152857D01*
X6814286Y-1124286D01*
X6828571Y-1081429D01*
X6842857Y-1010000D01*
X6842857Y-952857D01*
X6828571Y-881429D01*
X6814286Y-838571D01*
X6800000Y-810000D01*
X6771429Y-767143D01*
X6757143Y-752857D01*
X0Y-1356000D02*
G75*
G03X0Y-1356000I-50800J0D01*
G01*
X428571Y-1491714D02*
X257143Y-1491714D01*
X342857Y-1491714D02*
X342857Y-1191714D01*
X314286Y-1234571D01*
X285714Y-1263143D01*
X257143Y-1277429D01*
X557143Y-1463143D02*
X571429Y-1477429D01*
X557143Y-1491714D01*
X542857Y-1477429D01*
X557143Y-1463143D01*
X557143Y-1491714D01*
X757143Y-1191714D02*
X785714Y-1191714D01*
X814286Y-1206000D01*
X828571Y-1220286D01*
X842857Y-1248857D01*
X857143Y-1306000D01*
X857143Y-1377429D01*
X842857Y-1434571D01*
X828571Y-1463143D01*
X814286Y-1477429D01*
X785714Y-1491714D01*
X757143Y-1491714D01*
X728571Y-1477429D01*
X714286Y-1463143D01*
X700000Y-1434571D01*
X685714Y-1377429D01*
X685714Y-1306000D01*
X700000Y-1248857D01*
X714286Y-1220286D01*
X728571Y-1206000D01*
X757143Y-1191714D01*
X971429Y-1220286D02*
X985714Y-1206000D01*
X1014286Y-1191714D01*
X1085714Y-1191714D01*
X1114286Y-1206000D01*
X1128571Y-1220286D01*
X1142857Y-1248857D01*
X1142857Y-1277429D01*
X1128571Y-1320286D01*
X957143Y-1491714D01*
X1142857Y-1491714D01*
X1271429Y-1491714D02*
X1271429Y-1291714D01*
X1271429Y-1320286D02*
X1285714Y-1306000D01*
X1314286Y-1291714D01*
X1357143Y-1291714D01*
X1385714Y-1306000D01*
X1400000Y-1334571D01*
X1400000Y-1491714D01*
X1400000Y-1334571D02*
X1414286Y-1306000D01*
X1442857Y-1291714D01*
X1485714Y-1291714D01*
X1514286Y-1306000D01*
X1528571Y-1334571D01*
X1528571Y-1491714D01*
X1671429Y-1491714D02*
X1671429Y-1291714D01*
X1671429Y-1320286D02*
X1685714Y-1306000D01*
X1714286Y-1291714D01*
X1757143Y-1291714D01*
X1785714Y-1306000D01*
X1800000Y-1334571D01*
X1800000Y-1491714D01*
X1800000Y-1334571D02*
X1814286Y-1306000D01*
X1842857Y-1291714D01*
X1885714Y-1291714D01*
X1914286Y-1306000D01*
X1928571Y-1334571D01*
X1928571Y-1491714D01*
X2514286Y-1177429D02*
X2257143Y-1563143D01*
X2900000Y-1191714D02*
X2928571Y-1191714D01*
X2957143Y-1206000D01*
X2971428Y-1220286D01*
X2985714Y-1248857D01*
X3000000Y-1306000D01*
X3000000Y-1377429D01*
X2985714Y-1434571D01*
X2971428Y-1463143D01*
X2957143Y-1477429D01*
X2928571Y-1491714D01*
X2900000Y-1491714D01*
X2871428Y-1477429D01*
X2857143Y-1463143D01*
X2842857Y-1434571D01*
X2828571Y-1377429D01*
X2828571Y-1306000D01*
X2842857Y-1248857D01*
X2857143Y-1220286D01*
X2871428Y-1206000D01*
X2900000Y-1191714D01*
X3128571Y-1463143D02*
X3142857Y-1477429D01*
X3128571Y-1491714D01*
X3114286Y-1477429D01*
X3128571Y-1463143D01*
X3128571Y-1491714D01*
X3328571Y-1191714D02*
X3357143Y-1191714D01*
X3385714Y-1206000D01*
X3400000Y-1220286D01*
X3414286Y-1248857D01*
X3428571Y-1306000D01*
X3428571Y-1377429D01*
X3414286Y-1434571D01*
X3400000Y-1463143D01*
X3385714Y-1477429D01*
X3357143Y-1491714D01*
X3328571Y-1491714D01*
X3300000Y-1477429D01*
X3285714Y-1463143D01*
X3271428Y-1434571D01*
X3257143Y-1377429D01*
X3257143Y-1306000D01*
X3271428Y-1248857D01*
X3285714Y-1220286D01*
X3300000Y-1206000D01*
X3328571Y-1191714D01*
X3685714Y-1291714D02*
X3685714Y-1491714D01*
X3614286Y-1177429D02*
X3542857Y-1391714D01*
X3728571Y-1391714D01*
X3900000Y-1191714D02*
X3928571Y-1191714D01*
X3957143Y-1206000D01*
X3971428Y-1220286D01*
X3985714Y-1248857D01*
X4000000Y-1306000D01*
X4000000Y-1377429D01*
X3985714Y-1434571D01*
X3971428Y-1463143D01*
X3957143Y-1477429D01*
X3928571Y-1491714D01*
X3900000Y-1491714D01*
X3871428Y-1477429D01*
X3857143Y-1463143D01*
X3842857Y-1434571D01*
X3828571Y-1377429D01*
X3828571Y-1306000D01*
X3842857Y-1248857D01*
X3857143Y-1220286D01*
X3871428Y-1206000D01*
X3900000Y-1191714D01*
X4114286Y-1191714D02*
X4114286Y-1248857D01*
X4228571Y-1191714D02*
X4228571Y-1248857D01*
X4671429Y-1606000D02*
X4657143Y-1591714D01*
X4628571Y-1548857D01*
X4614286Y-1520286D01*
X4600000Y-1477429D01*
X4585714Y-1406000D01*
X4585714Y-1348857D01*
X4600000Y-1277429D01*
X4614286Y-1234571D01*
X4628571Y-1206000D01*
X4657143Y-1163143D01*
X4671429Y-1148857D01*
X4757143Y-1191714D02*
X4942857Y-1191714D01*
X4842857Y-1306000D01*
X4885714Y-1306000D01*
X4914286Y-1320286D01*
X4928571Y-1334571D01*
X4942857Y-1363143D01*
X4942857Y-1434571D01*
X4928571Y-1463143D01*
X4914286Y-1477429D01*
X4885714Y-1491714D01*
X4800000Y-1491714D01*
X4771429Y-1477429D01*
X4757143Y-1463143D01*
X5228571Y-1491714D02*
X5057143Y-1491714D01*
X5142857Y-1491714D02*
X5142857Y-1191714D01*
X5114286Y-1234571D01*
X5085714Y-1263143D01*
X5057143Y-1277429D01*
X5585714Y-1491714D02*
X5585714Y-1191714D01*
X5714286Y-1491714D02*
X5714286Y-1334571D01*
X5700000Y-1306000D01*
X5671428Y-1291714D01*
X5628571Y-1291714D01*
X5600000Y-1306000D01*
X5585714Y-1320286D01*
X5900000Y-1491714D02*
X5871428Y-1477429D01*
X5857143Y-1463143D01*
X5842857Y-1434571D01*
X5842857Y-1348857D01*
X5857143Y-1320286D01*
X5871428Y-1306000D01*
X5900000Y-1291714D01*
X5942857Y-1291714D01*
X5971428Y-1306000D01*
X5985714Y-1320286D01*
X6000000Y-1348857D01*
X6000000Y-1434571D01*
X5985714Y-1463143D01*
X5971428Y-1477429D01*
X5942857Y-1491714D01*
X5900000Y-1491714D01*
X6171428Y-1491714D02*
X6142857Y-1477429D01*
X6128571Y-1448857D01*
X6128571Y-1191714D01*
X6400000Y-1477429D02*
X6371429Y-1491714D01*
X6314286Y-1491714D01*
X6285714Y-1477429D01*
X6271429Y-1448857D01*
X6271429Y-1334571D01*
X6285714Y-1306000D01*
X6314286Y-1291714D01*
X6371429Y-1291714D01*
X6400000Y-1306000D01*
X6414286Y-1334571D01*
X6414286Y-1363143D01*
X6271429Y-1391714D01*
X6528571Y-1477429D02*
X6557143Y-1491714D01*
X6614286Y-1491714D01*
X6642857Y-1477429D01*
X6657143Y-1448857D01*
X6657143Y-1434571D01*
X6642857Y-1406000D01*
X6614286Y-1391714D01*
X6571429Y-1391714D01*
X6542857Y-1377429D01*
X6528571Y-1348857D01*
X6528571Y-1334571D01*
X6542857Y-1306000D01*
X6571429Y-1291714D01*
X6614286Y-1291714D01*
X6642857Y-1306000D01*
X6757143Y-1606000D02*
X6771429Y-1591714D01*
X6800000Y-1548857D01*
X6814286Y-1520286D01*
X6828571Y-1477429D01*
X6842857Y-1406000D01*
X6842857Y-1348857D01*
X6828571Y-1277429D01*
X6814286Y-1234571D01*
X6800000Y-1206000D01*
X6771429Y-1163143D01*
X6757143Y-1148857D01*
M02*
