G04 #@! TF.FileFunction,Copper,L2,Bot,Signal*
%FSLAX46Y46*%
G04 Gerber Fmt 4.6, Leading zero omitted, Abs format (unit mm)*
G04 Created by KiCad (PCBNEW 4.0.6-e0-6349~53~ubuntu14.04.1) date Wed Dec 13 09:41:32 2017*
%MOMM*%
%LPD*%
G01*
G04 APERTURE LIST*
%ADD10C,0.100000*%
%ADD11R,2.032000X1.727200*%
%ADD12O,2.032000X1.727200*%
%ADD13R,1.727200X1.727200*%
%ADD14O,1.727200X2.000000*%
%ADD15O,1.727200X1.727200*%
%ADD16C,1.200000*%
%ADD17R,4.500000X4.850000*%
%ADD18C,1.000000*%
%ADD19C,0.600000*%
%ADD20C,0.400000*%
%ADD21C,0.500000*%
G04 APERTURE END LIST*
D10*
D11*
X172339000Y-96647000D03*
D12*
X172339000Y-99187000D03*
X172339000Y-101727000D03*
X172339000Y-104267000D03*
X172339000Y-106807000D03*
X172339000Y-109347000D03*
X172339000Y-111887000D03*
D13*
X137922000Y-89154000D03*
D14*
X137922000Y-86614000D03*
X140462000Y-89154000D03*
X140462000Y-86614000D03*
X143002000Y-89154000D03*
X143002000Y-86614000D03*
X145542000Y-89154000D03*
X145542000Y-86614000D03*
X148082000Y-89154000D03*
X148082000Y-86614000D03*
X150622000Y-89154000D03*
X150622000Y-86614000D03*
X153162000Y-89154000D03*
X153162000Y-86614000D03*
X155702000Y-89154000D03*
D15*
X155702000Y-86614000D03*
D14*
X158242000Y-89154000D03*
X158242000Y-86614000D03*
X160782000Y-89154000D03*
X160782000Y-86614000D03*
X163322000Y-89154000D03*
X163322000Y-86614000D03*
X165862000Y-89154000D03*
X165862000Y-86614000D03*
D16*
X180905000Y-83164000D03*
X180905000Y-110164000D03*
D17*
X183505000Y-80314000D03*
X183505000Y-113014000D03*
D18*
X164465000Y-112014000D03*
X164465000Y-117856000D03*
X143129000Y-116332000D03*
X136398000Y-116332000D03*
X169672000Y-117856000D03*
X148082000Y-106934000D03*
X139192000Y-91948000D03*
X141859000Y-91948000D03*
X144780000Y-91948000D03*
X147447000Y-91948000D03*
X149860000Y-91821000D03*
X152400000Y-91821000D03*
X154940000Y-91948000D03*
X157353000Y-91948000D03*
X160147000Y-91948000D03*
X162941000Y-91948000D03*
X165862000Y-91948000D03*
X154940000Y-76962000D03*
X151003000Y-76962000D03*
X147320000Y-76962000D03*
X143256000Y-76962000D03*
X139700000Y-76835000D03*
X170307000Y-91948000D03*
X169672000Y-110617000D03*
X150241000Y-117094000D03*
X150241000Y-113665000D03*
X163195000Y-106680000D03*
X169672000Y-106807000D03*
X157861000Y-116459000D03*
X155067000Y-117094000D03*
X172466000Y-91186000D03*
X177292000Y-118618000D03*
X175133000Y-109347000D03*
X163195000Y-112776000D03*
X165100000Y-110490000D03*
X151638000Y-113284000D03*
X175006000Y-99060000D03*
X175006000Y-91186000D03*
X168783000Y-99187000D03*
X137033000Y-109728000D03*
X151765000Y-109220000D03*
X168656000Y-103505000D03*
X135636000Y-110744000D03*
X150749000Y-110236000D03*
X168656000Y-105029000D03*
X137160000Y-111887000D03*
X151892000Y-111887000D03*
D19*
X164465000Y-117856000D02*
X164465000Y-112014000D01*
X134493000Y-114427000D02*
X136398000Y-116332000D01*
X147447000Y-107569000D02*
X136271000Y-107569000D01*
X136271000Y-107569000D02*
X134493000Y-109347000D01*
X134493000Y-109347000D02*
X134493000Y-114427000D01*
X143129000Y-116332000D02*
X136398000Y-116332000D01*
X147447000Y-107569000D02*
X148082000Y-106934000D01*
X169672000Y-110617000D02*
X169672000Y-117856000D01*
X169926000Y-98552000D02*
X169926000Y-98425000D01*
X169926000Y-98425000D02*
X169545000Y-98044000D01*
X169545000Y-98044000D02*
X168275000Y-98044000D01*
X168275000Y-98044000D02*
X167132000Y-99187000D01*
X167132000Y-99187000D02*
X167132000Y-101600000D01*
X167132000Y-101600000D02*
X166624000Y-102108000D01*
X166624000Y-102108000D02*
X162687000Y-102108000D01*
X162687000Y-102108000D02*
X160020000Y-104775000D01*
X160020000Y-104775000D02*
X160020000Y-106426000D01*
X160020000Y-106426000D02*
X158877000Y-107569000D01*
X158877000Y-107569000D02*
X148717000Y-107569000D01*
X148717000Y-107569000D02*
X148082000Y-106934000D01*
X169926000Y-100838000D02*
X169926000Y-98552000D01*
X169926000Y-98552000D02*
X169926000Y-92329000D01*
X169926000Y-92329000D02*
X170307000Y-91948000D01*
X169672000Y-106807000D02*
X169672000Y-106680000D01*
X170307000Y-92075000D02*
X170307000Y-91948000D01*
X169926000Y-106426000D02*
X169926000Y-100838000D01*
X169926000Y-100838000D02*
X169926000Y-101092000D01*
X169672000Y-106680000D02*
X169926000Y-106426000D01*
X141859000Y-91948000D02*
X139192000Y-91948000D01*
X144780000Y-91948000D02*
X141859000Y-91948000D01*
X147447000Y-91948000D02*
X144780000Y-91948000D01*
X149860000Y-91821000D02*
X147574000Y-91821000D01*
X147574000Y-91821000D02*
X147447000Y-91948000D01*
X152400000Y-91821000D02*
X149860000Y-91821000D01*
X154940000Y-91948000D02*
X152527000Y-91948000D01*
X152527000Y-91948000D02*
X152400000Y-91821000D01*
X157353000Y-91948000D02*
X154940000Y-91948000D01*
X160147000Y-91948000D02*
X157353000Y-91948000D01*
X162941000Y-91948000D02*
X160147000Y-91948000D01*
X165862000Y-91948000D02*
X162941000Y-91948000D01*
X170307000Y-91948000D02*
X165862000Y-91948000D01*
X151003000Y-76962000D02*
X154940000Y-76962000D01*
X147320000Y-76962000D02*
X151003000Y-76962000D01*
X143256000Y-76962000D02*
X147320000Y-76962000D01*
X139700000Y-76835000D02*
X143129000Y-76835000D01*
X143129000Y-76835000D02*
X143256000Y-76962000D01*
X169672000Y-110617000D02*
X169672000Y-106807000D01*
D20*
X150241000Y-113665000D02*
X150241000Y-117094000D01*
D19*
X169672000Y-106807000D02*
X163322000Y-106807000D01*
X163322000Y-106807000D02*
X163195000Y-106680000D01*
D20*
X155702000Y-116459000D02*
X155067000Y-117094000D01*
X157861000Y-116459000D02*
X155702000Y-116459000D01*
D21*
X175133000Y-109347000D02*
X175133000Y-109093000D01*
D20*
X175133000Y-109093000D02*
X176403000Y-107823000D01*
X172466000Y-90678000D02*
X172466000Y-91186000D01*
X173101000Y-90043000D02*
X172466000Y-90678000D01*
X175768000Y-90043000D02*
X173101000Y-90043000D01*
X176403000Y-90678000D02*
X175768000Y-90043000D01*
X176403000Y-107823000D02*
X176403000Y-90678000D01*
D19*
X175133000Y-109347000D02*
X175768000Y-109982000D01*
X175768000Y-117094000D02*
X177292000Y-118618000D01*
X175768000Y-109982000D02*
X175768000Y-117094000D01*
D20*
X175133000Y-109347000D02*
X175260000Y-109220000D01*
X165100000Y-110490000D02*
X162941000Y-110490000D01*
X152273000Y-113284000D02*
X151638000Y-113284000D01*
X152908000Y-112649000D02*
X152273000Y-113284000D01*
X160782000Y-112649000D02*
X152908000Y-112649000D01*
X162941000Y-110490000D02*
X160782000Y-112649000D01*
X175006000Y-99060000D02*
X175006000Y-91186000D01*
X168021000Y-102235000D02*
X167386000Y-102870000D01*
X167386000Y-102870000D02*
X163068000Y-102870000D01*
X163068000Y-102870000D02*
X160782000Y-105156000D01*
X160782000Y-105156000D02*
X160782000Y-108458000D01*
X160782000Y-108458000D02*
X160020000Y-109220000D01*
X160020000Y-109220000D02*
X151765000Y-109220000D01*
X168021000Y-99949000D02*
X168021000Y-102235000D01*
X168783000Y-99187000D02*
X168021000Y-99949000D01*
X151765000Y-109220000D02*
X137541000Y-109220000D01*
X137541000Y-109220000D02*
X137033000Y-109728000D01*
X167894000Y-103505000D02*
X163449000Y-103505000D01*
X163449000Y-103505000D02*
X161451998Y-105502002D01*
X161451998Y-105502002D02*
X161451998Y-109947002D01*
X161451998Y-109947002D02*
X160655000Y-110744000D01*
X160655000Y-110744000D02*
X151257000Y-110744000D01*
X151257000Y-110744000D02*
X150749000Y-110236000D01*
X168656000Y-103505000D02*
X167894000Y-103505000D01*
X150114000Y-110744000D02*
X135636000Y-110744000D01*
X150749000Y-110236000D02*
X150622000Y-110236000D01*
X150622000Y-110236000D02*
X150114000Y-110744000D01*
X168656000Y-105029000D02*
X162941000Y-105029000D01*
X151892000Y-111887000D02*
X150749000Y-111887000D01*
X137541000Y-111506000D02*
X137160000Y-111887000D01*
X150368000Y-111506000D02*
X137541000Y-111506000D01*
X150749000Y-111887000D02*
X150368000Y-111506000D01*
X162941000Y-105029000D02*
X162052000Y-105918000D01*
X162052000Y-105918000D02*
X162052000Y-110490000D01*
X162052000Y-110490000D02*
X160655000Y-111887000D01*
X160655000Y-111887000D02*
X151892000Y-111887000D01*
D21*
X131060000Y-72640000D02*
X185805000Y-72640000D01*
X131060000Y-73040000D02*
X185805000Y-73040000D01*
X131060000Y-73440000D02*
X185805000Y-73440000D01*
X131060000Y-73840000D02*
X185805000Y-73840000D01*
X131060000Y-74240000D02*
X185805000Y-74240000D01*
X131060000Y-74640000D02*
X185805000Y-74640000D01*
X131060000Y-75040000D02*
X185805000Y-75040000D01*
X131060000Y-75440000D02*
X185805000Y-75440000D01*
X131060000Y-75840000D02*
X185805000Y-75840000D01*
X131060000Y-76240000D02*
X185805000Y-76240000D01*
X131060000Y-76640000D02*
X185805000Y-76640000D01*
X131060000Y-77040000D02*
X181161189Y-77040000D01*
X131060000Y-77440000D02*
X180533035Y-77440000D01*
X131060000Y-77840000D02*
X180398271Y-77840000D01*
X131060000Y-78240000D02*
X180388348Y-78240000D01*
X131060000Y-78640000D02*
X180388348Y-78640000D01*
X131060000Y-79040000D02*
X180388348Y-79040000D01*
X131060000Y-79440000D02*
X180388348Y-79440000D01*
X131060000Y-79840000D02*
X180388348Y-79840000D01*
X131060000Y-80240000D02*
X180388348Y-80240000D01*
X131060000Y-80640000D02*
X180388348Y-80640000D01*
X131060000Y-81040000D02*
X180388348Y-81040000D01*
X131060000Y-81440000D02*
X180388348Y-81440000D01*
X131060000Y-81840000D02*
X180312292Y-81840000D01*
X131060000Y-82240000D02*
X179778214Y-82240000D01*
X131060000Y-82640000D02*
X179552548Y-82640000D01*
X131060000Y-83040000D02*
X179455108Y-83040000D01*
X131060000Y-83440000D02*
X179454759Y-83440000D01*
X131060000Y-83840000D02*
X179615415Y-83840000D01*
X182194336Y-83840000D02*
X185805000Y-83840000D01*
X131060000Y-84240000D02*
X149324232Y-84240000D01*
X150069558Y-84240000D02*
X151174443Y-84240000D01*
X152609558Y-84240000D02*
X153714443Y-84240000D01*
X154459769Y-84240000D02*
X154620198Y-84240000D01*
X154992494Y-84240000D02*
X156411507Y-84240000D01*
X156783803Y-84240000D02*
X156944232Y-84240000D01*
X157689558Y-84240000D02*
X158794443Y-84240000D01*
X160229558Y-84240000D02*
X161334443Y-84240000D01*
X162769558Y-84240000D02*
X163874443Y-84240000D01*
X165309558Y-84240000D02*
X166414443Y-84240000D01*
X167159769Y-84240000D02*
X179930301Y-84240000D01*
X181879521Y-84240000D02*
X185805000Y-84240000D01*
X131060000Y-84640000D02*
X148834199Y-84640000D01*
X150190200Y-84640000D02*
X151053800Y-84640000D01*
X152730200Y-84640000D02*
X153593800Y-84640000D01*
X155270200Y-84640000D02*
X156133800Y-84640000D01*
X157810200Y-84640000D02*
X158673800Y-84640000D01*
X160350200Y-84640000D02*
X161213800Y-84640000D01*
X162890200Y-84640000D02*
X163753800Y-84640000D01*
X165430200Y-84640000D02*
X166293800Y-84640000D01*
X167649802Y-84640000D02*
X185805000Y-84640000D01*
X131060000Y-85040000D02*
X136994146Y-85040000D01*
X138849855Y-85040000D02*
X139534146Y-85040000D01*
X141389855Y-85040000D02*
X142074146Y-85040000D01*
X143929855Y-85040000D02*
X144614146Y-85040000D01*
X146469855Y-85040000D02*
X147154146Y-85040000D01*
X150190200Y-85040000D02*
X151035164Y-85040000D01*
X152748837Y-85040000D02*
X153593800Y-85040000D01*
X155288837Y-85040000D02*
X156115164Y-85040000D01*
X157810200Y-85040000D02*
X158655164Y-85040000D01*
X160368837Y-85040000D02*
X161195164Y-85040000D01*
X162908837Y-85040000D02*
X163735164Y-85040000D01*
X165448837Y-85040000D02*
X166293800Y-85040000D01*
X167988837Y-85040000D02*
X185805000Y-85040000D01*
X131060000Y-85440000D02*
X136569756Y-85440000D01*
X150190200Y-85440000D02*
X150820000Y-85440000D01*
X152964001Y-85440000D02*
X153420427Y-85440000D01*
X155504001Y-85440000D02*
X155900000Y-85440000D01*
X157983575Y-85440000D02*
X158440000Y-85440000D01*
X160584001Y-85440000D02*
X160980000Y-85440000D01*
X163124001Y-85440000D02*
X163520000Y-85440000D01*
X165664001Y-85440000D02*
X166293800Y-85440000D01*
X168204001Y-85440000D02*
X185805000Y-85440000D01*
X131060000Y-85840000D02*
X136328018Y-85840000D01*
X150190200Y-85840000D02*
X150781263Y-85840000D01*
X153002735Y-85840000D02*
X153270944Y-85840000D01*
X155542736Y-85840000D02*
X155861263Y-85840000D01*
X158133055Y-85840000D02*
X158401263Y-85840000D01*
X160622736Y-85840000D02*
X160941263Y-85840000D01*
X163162736Y-85840000D02*
X163481263Y-85840000D01*
X165702736Y-85840000D02*
X166293800Y-85840000D01*
X168242736Y-85840000D02*
X185805000Y-85840000D01*
X131060000Y-86240000D02*
X136248453Y-86240000D01*
X149758400Y-86240000D02*
X185805000Y-86240000D01*
X131060000Y-86640000D02*
X136208400Y-86640000D01*
X149795600Y-86640000D02*
X164811096Y-86640000D01*
X165148349Y-86640000D02*
X166575652Y-86640000D01*
X166912905Y-86640000D02*
X185805000Y-86640000D01*
X131060000Y-87040000D02*
X136258795Y-87040000D01*
X149758400Y-87040000D02*
X164245711Y-87040000D01*
X165430200Y-87040000D02*
X166293800Y-87040000D01*
X167478290Y-87040000D02*
X185805000Y-87040000D01*
X131060000Y-87440000D02*
X136338360Y-87440000D01*
X165748215Y-87440000D02*
X166293800Y-87440000D01*
X168288215Y-87440000D02*
X185805000Y-87440000D01*
X131060000Y-87840000D02*
X136337391Y-87840000D01*
X165636029Y-87840000D02*
X166293800Y-87840000D01*
X168176029Y-87840000D02*
X185805000Y-87840000D01*
X131060000Y-88240000D02*
X136201955Y-88240000D01*
X165430200Y-88240000D02*
X166293800Y-88240000D01*
X168343857Y-88240000D02*
X185805000Y-88240000D01*
X131060000Y-88640000D02*
X136191748Y-88640000D01*
X165430200Y-88640000D02*
X166293800Y-88640000D01*
X168015346Y-88640000D02*
X185805000Y-88640000D01*
X131060000Y-89040000D02*
X136191748Y-89040000D01*
X165249679Y-89040000D02*
X166474320Y-89040000D01*
X167096064Y-89040000D02*
X172864714Y-89040000D01*
X176004287Y-89040000D02*
X185805000Y-89040000D01*
X131060000Y-89440000D02*
X136191748Y-89440000D01*
X165013052Y-89440000D02*
X172219076Y-89440000D01*
X176649924Y-89440000D02*
X185805000Y-89440000D01*
X131060000Y-89840000D02*
X136191748Y-89840000D01*
X165430200Y-89840000D02*
X166293800Y-89840000D01*
X168165774Y-89840000D02*
X171819076Y-89840000D01*
X177049924Y-89840000D02*
X185805000Y-89840000D01*
X131060000Y-90240000D02*
X136233595Y-90240000D01*
X165430200Y-90240000D02*
X166293800Y-90240000D01*
X168251336Y-90240000D02*
X171502796Y-90240000D01*
X177348898Y-90240000D02*
X185805000Y-90240000D01*
X131060000Y-90640000D02*
X136463680Y-90640000D01*
X139388061Y-90640000D02*
X139402443Y-90640000D01*
X141521556Y-90640000D02*
X141942443Y-90640000D01*
X144061556Y-90640000D02*
X144482443Y-90640000D01*
X146601556Y-90640000D02*
X147022443Y-90640000D01*
X149141556Y-90640000D02*
X149562443Y-90640000D01*
X151681556Y-90640000D02*
X152102443Y-90640000D01*
X154221556Y-90640000D02*
X154642443Y-90640000D01*
X156761556Y-90640000D02*
X157182443Y-90640000D01*
X159301556Y-90640000D02*
X159722443Y-90640000D01*
X161841556Y-90640000D02*
X162262443Y-90640000D01*
X165430200Y-90640000D02*
X166293800Y-90640000D01*
X168036172Y-90640000D02*
X171230961Y-90640000D01*
X177445442Y-90640000D02*
X185805000Y-90640000D01*
X131060000Y-91040000D02*
X140460773Y-91040000D01*
X140463226Y-91040000D02*
X143000773Y-91040000D01*
X143003226Y-91040000D02*
X145540773Y-91040000D01*
X145543226Y-91040000D02*
X148080773Y-91040000D01*
X148083226Y-91040000D02*
X150620773Y-91040000D01*
X150623226Y-91040000D02*
X153160773Y-91040000D01*
X153163226Y-91040000D02*
X155700773Y-91040000D01*
X155703226Y-91040000D02*
X158240773Y-91040000D01*
X158243226Y-91040000D02*
X160780773Y-91040000D01*
X160783226Y-91040000D02*
X163320773Y-91040000D01*
X163323226Y-91040000D02*
X163966391Y-91040000D01*
X165430200Y-91040000D02*
X166293800Y-91040000D01*
X167757608Y-91040000D02*
X171116127Y-91040000D01*
X177453000Y-91040000D02*
X185805000Y-91040000D01*
X131060000Y-91440000D02*
X164456424Y-91440000D01*
X165410888Y-91440000D02*
X166313111Y-91440000D01*
X167267575Y-91440000D02*
X171115778Y-91440000D01*
X177453000Y-91440000D02*
X185805000Y-91440000D01*
X131060000Y-91840000D02*
X171275524Y-91840000D01*
X173656193Y-91840000D02*
X173815524Y-91840000D01*
X177453000Y-91840000D02*
X185805000Y-91840000D01*
X131060000Y-92240000D02*
X171610637Y-92240000D01*
X173321016Y-92240000D02*
X173956000Y-92240000D01*
X177453000Y-92240000D02*
X185805000Y-92240000D01*
X131060000Y-92640000D02*
X173956000Y-92640000D01*
X177453000Y-92640000D02*
X185805000Y-92640000D01*
X131060000Y-93040000D02*
X173956000Y-93040000D01*
X177453000Y-93040000D02*
X185805000Y-93040000D01*
X131060000Y-93440000D02*
X173956000Y-93440000D01*
X177453000Y-93440000D02*
X185805000Y-93440000D01*
X131060000Y-93840000D02*
X173956000Y-93840000D01*
X177453000Y-93840000D02*
X185805000Y-93840000D01*
X131060000Y-94240000D02*
X173956000Y-94240000D01*
X177453000Y-94240000D02*
X185805000Y-94240000D01*
X131060000Y-94640000D02*
X173956000Y-94640000D01*
X177453000Y-94640000D02*
X185805000Y-94640000D01*
X131060000Y-95040000D02*
X170908578Y-95040000D01*
X173772631Y-95040000D02*
X173956000Y-95040000D01*
X177453000Y-95040000D02*
X185805000Y-95040000D01*
X131060000Y-95440000D02*
X170528881Y-95440000D01*
X177453000Y-95440000D02*
X185805000Y-95440000D01*
X131060000Y-95840000D02*
X170456348Y-95840000D01*
X177453000Y-95840000D02*
X185805000Y-95840000D01*
X131060000Y-96240000D02*
X170456348Y-96240000D01*
X177453000Y-96240000D02*
X185805000Y-96240000D01*
X131060000Y-96640000D02*
X170456348Y-96640000D01*
X177453000Y-96640000D02*
X185805000Y-96640000D01*
X131060000Y-97040000D02*
X170456348Y-97040000D01*
X177453000Y-97040000D02*
X185805000Y-97040000D01*
X131060000Y-97440000D02*
X170456348Y-97440000D01*
X177453000Y-97440000D02*
X185805000Y-97440000D01*
X131060000Y-97840000D02*
X168507821Y-97840000D01*
X169059369Y-97840000D02*
X170524889Y-97840000D01*
X177453000Y-97840000D02*
X185805000Y-97840000D01*
X131060000Y-98240000D02*
X167820798Y-98240000D01*
X169745177Y-98240000D02*
X170761480Y-98240000D01*
X177453000Y-98240000D02*
X185805000Y-98240000D01*
X131060000Y-98640000D02*
X167548376Y-98640000D01*
X170017687Y-98640000D02*
X170545249Y-98640000D01*
X177453000Y-98640000D02*
X185805000Y-98640000D01*
X131060000Y-99040000D02*
X167433128Y-99040000D01*
X170133128Y-99040000D02*
X170465684Y-99040000D01*
X177453000Y-99040000D02*
X185805000Y-99040000D01*
X131060000Y-99440000D02*
X167122544Y-99440000D01*
X170132779Y-99440000D02*
X170486767Y-99440000D01*
X177453000Y-99440000D02*
X185805000Y-99440000D01*
X131060000Y-99840000D02*
X166992682Y-99840000D01*
X169973609Y-99840000D02*
X170566332Y-99840000D01*
X177453000Y-99840000D02*
X185805000Y-99840000D01*
X131060000Y-100240000D02*
X166971000Y-100240000D01*
X169639017Y-100240000D02*
X170832306Y-100240000D01*
X173845693Y-100240000D02*
X174327450Y-100240000D01*
X177453000Y-100240000D02*
X185805000Y-100240000D01*
X131060000Y-100640000D02*
X166971000Y-100640000D01*
X169071000Y-100640000D02*
X170855025Y-100640000D01*
X173822976Y-100640000D02*
X175353000Y-100640000D01*
X177453000Y-100640000D02*
X185805000Y-100640000D01*
X131060000Y-101040000D02*
X166971000Y-101040000D01*
X169071000Y-101040000D02*
X170587753Y-101040000D01*
X174090248Y-101040000D02*
X175353000Y-101040000D01*
X177453000Y-101040000D02*
X185805000Y-101040000D01*
X131060000Y-101440000D02*
X166971000Y-101440000D01*
X169071000Y-101440000D02*
X170493531Y-101440000D01*
X174184470Y-101440000D02*
X175353000Y-101440000D01*
X177453000Y-101440000D02*
X185805000Y-101440000D01*
X131060000Y-101840000D02*
X162967453Y-101840000D01*
X169071000Y-101840000D02*
X170458920Y-101840000D01*
X174219079Y-101840000D02*
X175353000Y-101840000D01*
X177453000Y-101840000D02*
X185805000Y-101840000D01*
X131060000Y-102240000D02*
X162213076Y-102240000D01*
X169129847Y-102240000D02*
X170538485Y-102240000D01*
X174139514Y-102240000D02*
X175353000Y-102240000D01*
X177453000Y-102240000D02*
X185805000Y-102240000D01*
X131060000Y-102640000D02*
X161813076Y-102640000D01*
X169700034Y-102640000D02*
X170738761Y-102640000D01*
X173939238Y-102640000D02*
X175353000Y-102640000D01*
X177453000Y-102640000D02*
X185805000Y-102640000D01*
X131060000Y-103040000D02*
X161413076Y-103040000D01*
X169924569Y-103040000D02*
X170961247Y-103040000D01*
X173716754Y-103040000D02*
X175353000Y-103040000D01*
X177453000Y-103040000D02*
X185805000Y-103040000D01*
X131060000Y-103440000D02*
X161013076Y-103440000D01*
X170006057Y-103440000D02*
X170681298Y-103440000D01*
X173996703Y-103440000D02*
X175353000Y-103440000D01*
X177453000Y-103440000D02*
X185805000Y-103440000D01*
X131060000Y-103840000D02*
X160613076Y-103840000D01*
X169978654Y-103840000D02*
X170521379Y-103840000D01*
X174156622Y-103840000D02*
X175353000Y-103840000D01*
X177453000Y-103840000D02*
X185805000Y-103840000D01*
X131060000Y-104240000D02*
X160213076Y-104240000D01*
X169812559Y-104240000D02*
X170441814Y-104240000D01*
X174236187Y-104240000D02*
X175353000Y-104240000D01*
X177453000Y-104240000D02*
X185805000Y-104240000D01*
X131060000Y-104640000D02*
X159888221Y-104640000D01*
X169955971Y-104640000D02*
X170510637Y-104640000D01*
X174167362Y-104640000D02*
X175353000Y-104640000D01*
X177453000Y-104640000D02*
X185805000Y-104640000D01*
X131060000Y-105040000D02*
X159755074Y-105040000D01*
X170005990Y-105040000D02*
X170333904Y-105040000D01*
X174344097Y-105040000D02*
X175353000Y-105040000D01*
X177453000Y-105040000D02*
X185805000Y-105040000D01*
X131060000Y-105440000D02*
X159732000Y-105440000D01*
X169947096Y-105440000D02*
X170005353Y-105440000D01*
X174672648Y-105440000D02*
X175353000Y-105440000D01*
X177453000Y-105440000D02*
X185805000Y-105440000D01*
X131060000Y-105840000D02*
X159732000Y-105840000D01*
X169754439Y-105840000D02*
X169771284Y-105840000D01*
X174906717Y-105840000D02*
X175353000Y-105840000D01*
X177453000Y-105840000D02*
X185805000Y-105840000D01*
X131060000Y-106240000D02*
X159732000Y-106240000D01*
X163214924Y-106240000D02*
X168052106Y-106240000D01*
X169260326Y-106240000D02*
X169936358Y-106240000D01*
X171831000Y-106240000D02*
X172847000Y-106240000D01*
X174741641Y-106240000D02*
X175353000Y-106240000D01*
X177453000Y-106240000D02*
X185805000Y-106240000D01*
X131060000Y-106640000D02*
X159732000Y-106640000D01*
X163102000Y-106640000D02*
X175353000Y-106640000D01*
X177453000Y-106640000D02*
X185805000Y-106640000D01*
X131060000Y-107040000D02*
X159732000Y-107040000D01*
X163102000Y-107040000D02*
X175353000Y-107040000D01*
X177453000Y-107040000D02*
X185805000Y-107040000D01*
X131060000Y-107440000D02*
X159732000Y-107440000D01*
X163102000Y-107440000D02*
X169879042Y-107440000D01*
X171831000Y-107440000D02*
X172847000Y-107440000D01*
X174798959Y-107440000D02*
X175301076Y-107440000D01*
X177453000Y-107440000D02*
X185805000Y-107440000D01*
X131060000Y-107840000D02*
X159732000Y-107840000D01*
X163102000Y-107840000D02*
X169801612Y-107840000D01*
X174876387Y-107840000D02*
X174901076Y-107840000D01*
X177449618Y-107840000D02*
X185805000Y-107840000D01*
X131060000Y-108240000D02*
X137189084Y-108240000D01*
X163102000Y-108240000D02*
X170059563Y-108240000D01*
X177362929Y-108240000D02*
X185805000Y-108240000D01*
X131060000Y-108640000D02*
X136212044Y-108640000D01*
X163102000Y-108640000D02*
X170388113Y-108640000D01*
X177070924Y-108640000D02*
X185805000Y-108640000D01*
X131060000Y-109040000D02*
X135856925Y-109040000D01*
X163102000Y-109040000D02*
X170497509Y-109040000D01*
X176670924Y-109040000D02*
X179978563Y-109040000D01*
X181831782Y-109040000D02*
X185805000Y-109040000D01*
X131060000Y-109440000D02*
X135256752Y-109440000D01*
X165959356Y-109440000D02*
X170454941Y-109440000D01*
X176762365Y-109440000D02*
X179635595Y-109440000D01*
X182174752Y-109440000D02*
X185805000Y-109440000D01*
X131060000Y-109840000D02*
X134630723Y-109840000D01*
X166292128Y-109840000D02*
X170534506Y-109840000D01*
X176889755Y-109840000D02*
X179469500Y-109840000D01*
X131060000Y-110240000D02*
X134383521Y-110240000D01*
X166450218Y-110240000D02*
X170725397Y-110240000D01*
X173952602Y-110240000D02*
X174116918Y-110240000D01*
X176918000Y-110240000D02*
X179454934Y-110240000D01*
X131060000Y-110640000D02*
X134286091Y-110640000D01*
X166449869Y-110640000D02*
X170991179Y-110640000D01*
X173686822Y-110640000D02*
X174618000Y-110640000D01*
X176918000Y-110640000D02*
X179532777Y-110640000D01*
X131060000Y-111040000D02*
X134297602Y-111040000D01*
X166333378Y-111040000D02*
X170694662Y-111040000D01*
X173983339Y-111040000D02*
X174618000Y-111040000D01*
X176918000Y-111040000D02*
X179730649Y-111040000D01*
X131060000Y-111440000D02*
X134462878Y-111440000D01*
X166059197Y-111440000D02*
X170525357Y-111440000D01*
X174152644Y-111440000D02*
X174618000Y-111440000D01*
X176918000Y-111440000D02*
X180196881Y-111440000D01*
X131060000Y-111840000D02*
X134822564Y-111840000D01*
X165815152Y-111840000D02*
X170445792Y-111840000D01*
X174232209Y-111840000D02*
X174618000Y-111840000D01*
X176918000Y-111840000D02*
X180388348Y-111840000D01*
X131060000Y-112240000D02*
X135845154Y-112240000D01*
X165814803Y-112240000D02*
X170506659Y-112240000D01*
X174171340Y-112240000D02*
X174618000Y-112240000D01*
X176918000Y-112240000D02*
X180388348Y-112240000D01*
X131060000Y-112640000D02*
X136010430Y-112640000D01*
X138309085Y-112640000D02*
X150022309Y-112640000D01*
X165666820Y-112640000D02*
X170631852Y-112640000D01*
X174046147Y-112640000D02*
X174618000Y-112640000D01*
X176918000Y-112640000D02*
X180388348Y-112640000D01*
X131060000Y-113040000D02*
X136416427Y-113040000D01*
X137904697Y-113040000D02*
X150288213Y-113040000D01*
X165615000Y-113040000D02*
X170899124Y-113040000D01*
X173778875Y-113040000D02*
X174618000Y-113040000D01*
X176918000Y-113040000D02*
X180388348Y-113040000D01*
X131060000Y-113440000D02*
X150287864Y-113440000D01*
X161451820Y-113440000D02*
X162008656Y-113440000D01*
X165615000Y-113440000D02*
X171449139Y-113440000D01*
X173228860Y-113440000D02*
X174618000Y-113440000D01*
X176918000Y-113440000D02*
X180388348Y-113440000D01*
X131060000Y-113840000D02*
X150407032Y-113840000D01*
X153201924Y-113840000D02*
X162349619Y-113840000D01*
X165615000Y-113840000D02*
X174618000Y-113840000D01*
X176918000Y-113840000D02*
X180388348Y-113840000D01*
X131060000Y-114240000D02*
X150684808Y-114240000D01*
X152695881Y-114240000D02*
X163315000Y-114240000D01*
X165615000Y-114240000D02*
X174618000Y-114240000D01*
X176918000Y-114240000D02*
X180388348Y-114240000D01*
X131060000Y-114640000D02*
X163315000Y-114640000D01*
X165615000Y-114640000D02*
X174618000Y-114640000D01*
X176918000Y-114640000D02*
X180388348Y-114640000D01*
X131060000Y-115040000D02*
X163315000Y-115040000D01*
X165615000Y-115040000D02*
X174618000Y-115040000D01*
X176918000Y-115040000D02*
X180388348Y-115040000D01*
X131060000Y-115440000D02*
X163315000Y-115440000D01*
X165615000Y-115440000D02*
X174618000Y-115440000D01*
X176918000Y-115440000D02*
X180388536Y-115440000D01*
X131060000Y-115840000D02*
X163315000Y-115840000D01*
X165615000Y-115840000D02*
X174618000Y-115840000D01*
X176918000Y-115840000D02*
X180502963Y-115840000D01*
X131060000Y-116240000D02*
X163315000Y-116240000D01*
X165615000Y-116240000D02*
X174618000Y-116240000D01*
X176918000Y-116240000D02*
X180930801Y-116240000D01*
X131060000Y-116640000D02*
X163315000Y-116640000D01*
X165615000Y-116640000D02*
X174618000Y-116640000D01*
X176940346Y-116640000D02*
X185805000Y-116640000D01*
X131060000Y-117040000D02*
X163315000Y-117040000D01*
X165615000Y-117040000D02*
X174618000Y-117040000D01*
X177340346Y-117040000D02*
X185805000Y-117040000D01*
X131060000Y-117440000D02*
X163175980Y-117440000D01*
X165753815Y-117440000D02*
X174686824Y-117440000D01*
X177975366Y-117440000D02*
X185805000Y-117440000D01*
X131060000Y-117840000D02*
X163115014Y-117840000D01*
X165815014Y-117840000D02*
X174909943Y-117840000D01*
X178422882Y-117840000D02*
X185805000Y-117840000D01*
X131060000Y-118240000D02*
X163162963Y-118240000D01*
X165767307Y-118240000D02*
X175287654Y-118240000D01*
X178596516Y-118240000D02*
X185805000Y-118240000D01*
X131060000Y-118640000D02*
X163340107Y-118640000D01*
X165590487Y-118640000D02*
X175687654Y-118640000D01*
X178641981Y-118640000D02*
X185805000Y-118640000D01*
X131060000Y-119040000D02*
X163796083Y-119040000D01*
X165134671Y-119040000D02*
X176005664Y-119040000D01*
X178578528Y-119040000D02*
X185805000Y-119040000D01*
X131060000Y-119440000D02*
X176205041Y-119440000D01*
X178379420Y-119440000D02*
X185805000Y-119440000D01*
X131060000Y-119840000D02*
X176714597Y-119840000D01*
X177869703Y-119840000D02*
X185805000Y-119840000D01*
X131060000Y-120240000D02*
X185805000Y-120240000D01*
X131060000Y-120640000D02*
X185805000Y-120640000D01*
X131060000Y-121040000D02*
X185805000Y-121040000D01*
X131060000Y-121440000D02*
X185805000Y-121440000D01*
X131060000Y-121840000D02*
X185805000Y-121840000D01*
X131060000Y-122240000D02*
X185805000Y-122240000D01*
X131060000Y-122640000D02*
X185805000Y-122640000D01*
X131060000Y-123040000D02*
X185805000Y-123040000D01*
X131060000Y-123440000D02*
X185805000Y-123440000D01*
X131060000Y-123840000D02*
X185805000Y-123840000D01*
X185805000Y-77032473D02*
X185755000Y-77022348D01*
X181255000Y-77022348D01*
X180940009Y-77081618D01*
X180650709Y-77267777D01*
X180456628Y-77551824D01*
X180388348Y-77889000D01*
X180388348Y-81808574D01*
X180084714Y-81934033D01*
X179676467Y-82341569D01*
X179455252Y-82874312D01*
X179454749Y-83451157D01*
X179675033Y-83984286D01*
X180082569Y-84392533D01*
X180615312Y-84613748D01*
X181192157Y-84614251D01*
X181725286Y-84393967D01*
X182133533Y-83986431D01*
X182291647Y-83605652D01*
X185755000Y-83605652D01*
X185805000Y-83596244D01*
X185805000Y-109732473D01*
X185755000Y-109722348D01*
X182291415Y-109722348D01*
X182134967Y-109343714D01*
X181727431Y-108935467D01*
X181194688Y-108714252D01*
X180617843Y-108713749D01*
X180084714Y-108934033D01*
X179676467Y-109341569D01*
X179455252Y-109874312D01*
X179454749Y-110451157D01*
X179675033Y-110984286D01*
X180082569Y-111392533D01*
X180388348Y-111519504D01*
X180388348Y-115439000D01*
X180447618Y-115753991D01*
X180633777Y-116043291D01*
X180917824Y-116237372D01*
X181255000Y-116305652D01*
X185755000Y-116305652D01*
X185805000Y-116296244D01*
X185805000Y-124210000D01*
X131060000Y-124210000D01*
X131060000Y-111011353D01*
X134285766Y-111011353D01*
X134490858Y-111507715D01*
X134870288Y-111887807D01*
X135366290Y-112093765D01*
X135809819Y-112094152D01*
X135809766Y-112154353D01*
X136014858Y-112650715D01*
X136394288Y-113030807D01*
X136890290Y-113236765D01*
X137427353Y-113237234D01*
X137923715Y-113032142D01*
X138303807Y-112652712D01*
X138343965Y-112556000D01*
X149933076Y-112556000D01*
X150006538Y-112629462D01*
X150347182Y-112857074D01*
X150353033Y-112858238D01*
X150288235Y-113014290D01*
X150287766Y-113551353D01*
X150492858Y-114047715D01*
X150872288Y-114427807D01*
X151368290Y-114633765D01*
X151905353Y-114634234D01*
X152401715Y-114429142D01*
X152552769Y-114278351D01*
X152674818Y-114254074D01*
X153015462Y-114026462D01*
X153342924Y-113699000D01*
X160782000Y-113699000D01*
X161183818Y-113619074D01*
X161524462Y-113391462D01*
X161852896Y-113063028D01*
X162049858Y-113539715D01*
X162429288Y-113919807D01*
X162925290Y-114125765D01*
X163315000Y-114126105D01*
X163315000Y-117105202D01*
X163115235Y-117586290D01*
X163114766Y-118123353D01*
X163319858Y-118619715D01*
X163699288Y-118999807D01*
X164195290Y-119205765D01*
X164732353Y-119206234D01*
X165228715Y-119001142D01*
X165608807Y-118621712D01*
X165814765Y-118125710D01*
X165815234Y-117588647D01*
X165615000Y-117104042D01*
X165615000Y-112764798D01*
X165814765Y-112283710D01*
X165815234Y-111746647D01*
X165782950Y-111668513D01*
X165863715Y-111635142D01*
X166243807Y-111255712D01*
X166449765Y-110759710D01*
X166450234Y-110222647D01*
X166245142Y-109726285D01*
X165865712Y-109346193D01*
X165369710Y-109140235D01*
X164832647Y-109139766D01*
X164336285Y-109344858D01*
X164240977Y-109440000D01*
X163102000Y-109440000D01*
X163102000Y-106352924D01*
X163375924Y-106079000D01*
X167796644Y-106079000D01*
X167890288Y-106172807D01*
X168386290Y-106378765D01*
X168923353Y-106379234D01*
X169419715Y-106174142D01*
X169785558Y-105808936D01*
X169708200Y-105977278D01*
X170053771Y-106375200D01*
X171831000Y-106375200D01*
X171831000Y-105943400D01*
X171963027Y-105943400D01*
X172150043Y-105980600D01*
X172527957Y-105980600D01*
X172714973Y-105943400D01*
X172847000Y-105943400D01*
X172847000Y-106375200D01*
X174624229Y-106375200D01*
X174969800Y-105977278D01*
X174786729Y-105578891D01*
X174142031Y-104793991D01*
X174137241Y-104791433D01*
X174241557Y-104267000D01*
X174111117Y-103611234D01*
X173739655Y-103055302D01*
X173652400Y-102997000D01*
X173739655Y-102938698D01*
X174111117Y-102382766D01*
X174241557Y-101727000D01*
X174111117Y-101071234D01*
X173739655Y-100515302D01*
X173652400Y-100457000D01*
X173739655Y-100398698D01*
X174018398Y-99981530D01*
X174240288Y-100203807D01*
X174736290Y-100409765D01*
X175273353Y-100410234D01*
X175353000Y-100377325D01*
X175353000Y-107388076D01*
X174855396Y-107885680D01*
X174969800Y-107636722D01*
X174624229Y-107238800D01*
X172847000Y-107238800D01*
X172847000Y-107670600D01*
X172714973Y-107670600D01*
X172527957Y-107633400D01*
X172150043Y-107633400D01*
X171963027Y-107670600D01*
X171831000Y-107670600D01*
X171831000Y-107238800D01*
X170053771Y-107238800D01*
X169708200Y-107636722D01*
X169891271Y-108035109D01*
X170535969Y-108820009D01*
X170540759Y-108822567D01*
X170436443Y-109347000D01*
X170566883Y-110002766D01*
X170938345Y-110558698D01*
X171025600Y-110617000D01*
X170938345Y-110675302D01*
X170566883Y-111231234D01*
X170436443Y-111887000D01*
X170566883Y-112542766D01*
X170938345Y-113098698D01*
X171494277Y-113470160D01*
X172150043Y-113600600D01*
X172527957Y-113600600D01*
X173183723Y-113470160D01*
X173739655Y-113098698D01*
X174111117Y-112542766D01*
X174241557Y-111887000D01*
X174111117Y-111231234D01*
X173739655Y-110675302D01*
X173652400Y-110617000D01*
X173739655Y-110558698D01*
X174018487Y-110141397D01*
X174367288Y-110490807D01*
X174618000Y-110594912D01*
X174618000Y-117094000D01*
X174705539Y-117534086D01*
X174954827Y-117907173D01*
X175947933Y-118900278D01*
X176146858Y-119381715D01*
X176526288Y-119761807D01*
X177022290Y-119967765D01*
X177559353Y-119968234D01*
X178055715Y-119763142D01*
X178435807Y-119383712D01*
X178641765Y-118887710D01*
X178642234Y-118350647D01*
X178437142Y-117854285D01*
X178057712Y-117474193D01*
X177573459Y-117273114D01*
X176918000Y-116617654D01*
X176918000Y-109982005D01*
X176918001Y-109982000D01*
X176841788Y-109598858D01*
X176830461Y-109541914D01*
X176581173Y-109168827D01*
X176561635Y-109149289D01*
X177145462Y-108565462D01*
X177373074Y-108224818D01*
X177453000Y-107823000D01*
X177453000Y-90678000D01*
X177373074Y-90276182D01*
X177145462Y-89935538D01*
X176510462Y-89300538D01*
X176169818Y-89072926D01*
X175768000Y-88993000D01*
X173101000Y-88993000D01*
X172699182Y-89072926D01*
X172465901Y-89228800D01*
X172358538Y-89300538D01*
X171723538Y-89935538D01*
X171554770Y-90188116D01*
X171322193Y-90420288D01*
X171116235Y-90916290D01*
X171115766Y-91453353D01*
X171320858Y-91949715D01*
X171700288Y-92329807D01*
X172196290Y-92535765D01*
X172733353Y-92536234D01*
X173229715Y-92331142D01*
X173609807Y-91951712D01*
X173736056Y-91647670D01*
X173860858Y-91949715D01*
X173956000Y-92045023D01*
X173956000Y-95165291D01*
X173692176Y-94985028D01*
X173355000Y-94916748D01*
X171323000Y-94916748D01*
X171008009Y-94976018D01*
X170718709Y-95162177D01*
X170524628Y-95446224D01*
X170456348Y-95783400D01*
X170456348Y-97510600D01*
X170515618Y-97825591D01*
X170701777Y-98114891D01*
X170800159Y-98182112D01*
X170566883Y-98531234D01*
X170436443Y-99187000D01*
X170566883Y-99842766D01*
X170938345Y-100398698D01*
X171025600Y-100457000D01*
X170938345Y-100515302D01*
X170566883Y-101071234D01*
X170436443Y-101727000D01*
X170566883Y-102382766D01*
X170938345Y-102938698D01*
X171025600Y-102997000D01*
X170938345Y-103055302D01*
X170566883Y-103611234D01*
X170436443Y-104267000D01*
X170540759Y-104791433D01*
X170535969Y-104793991D01*
X169891271Y-105578891D01*
X169872106Y-105620596D01*
X170005765Y-105298710D01*
X170006234Y-104761647D01*
X169801600Y-104266394D01*
X170005765Y-103774710D01*
X170006234Y-103237647D01*
X169801142Y-102741285D01*
X169421712Y-102361193D01*
X169071000Y-102215565D01*
X169071000Y-100528703D01*
X169546715Y-100332142D01*
X169926807Y-99952712D01*
X170132765Y-99456710D01*
X170133234Y-98919647D01*
X169928142Y-98423285D01*
X169548712Y-98043193D01*
X169052710Y-97837235D01*
X168515647Y-97836766D01*
X168019285Y-98041858D01*
X167639193Y-98421288D01*
X167433235Y-98917290D01*
X167433117Y-99051959D01*
X167278538Y-99206538D01*
X167050926Y-99547182D01*
X166971000Y-99949000D01*
X166971000Y-101800076D01*
X166951076Y-101820000D01*
X163068000Y-101820000D01*
X162666182Y-101899926D01*
X162325538Y-102127538D01*
X160039538Y-104413538D01*
X159811926Y-104754182D01*
X159732000Y-105156000D01*
X159732000Y-108023076D01*
X159585076Y-108170000D01*
X152624356Y-108170000D01*
X152530712Y-108076193D01*
X152034710Y-107870235D01*
X151497647Y-107869766D01*
X151001285Y-108074858D01*
X150905977Y-108170000D01*
X137541000Y-108170000D01*
X137139182Y-108249926D01*
X136947619Y-108377925D01*
X136765647Y-108377766D01*
X136269285Y-108582858D01*
X135889193Y-108962288D01*
X135709904Y-109394064D01*
X135368647Y-109393766D01*
X134872285Y-109598858D01*
X134492193Y-109978288D01*
X134286235Y-110474290D01*
X134285766Y-111011353D01*
X131060000Y-111011353D01*
X131060000Y-88290400D01*
X136191748Y-88290400D01*
X136191748Y-90017600D01*
X136251018Y-90332591D01*
X136437177Y-90621891D01*
X136721224Y-90815972D01*
X137058400Y-90884252D01*
X138785600Y-90884252D01*
X139100591Y-90824982D01*
X139389891Y-90638823D01*
X139393274Y-90633873D01*
X139806234Y-90909804D01*
X140462000Y-91040244D01*
X141117766Y-90909804D01*
X141673698Y-90538342D01*
X141732000Y-90451087D01*
X141790302Y-90538342D01*
X142346234Y-90909804D01*
X143002000Y-91040244D01*
X143657766Y-90909804D01*
X144213698Y-90538342D01*
X144272000Y-90451087D01*
X144330302Y-90538342D01*
X144886234Y-90909804D01*
X145542000Y-91040244D01*
X146197766Y-90909804D01*
X146753698Y-90538342D01*
X146812000Y-90451087D01*
X146870302Y-90538342D01*
X147426234Y-90909804D01*
X148082000Y-91040244D01*
X148737766Y-90909804D01*
X149293698Y-90538342D01*
X149352000Y-90451087D01*
X149410302Y-90538342D01*
X149966234Y-90909804D01*
X150622000Y-91040244D01*
X151277766Y-90909804D01*
X151833698Y-90538342D01*
X151892000Y-90451087D01*
X151950302Y-90538342D01*
X152506234Y-90909804D01*
X153162000Y-91040244D01*
X153817766Y-90909804D01*
X154373698Y-90538342D01*
X154432000Y-90451087D01*
X154490302Y-90538342D01*
X155046234Y-90909804D01*
X155702000Y-91040244D01*
X156357766Y-90909804D01*
X156913698Y-90538342D01*
X156972000Y-90451087D01*
X157030302Y-90538342D01*
X157586234Y-90909804D01*
X158242000Y-91040244D01*
X158897766Y-90909804D01*
X159453698Y-90538342D01*
X159512000Y-90451087D01*
X159570302Y-90538342D01*
X160126234Y-90909804D01*
X160782000Y-91040244D01*
X161437766Y-90909804D01*
X161993698Y-90538342D01*
X162052000Y-90451087D01*
X162110302Y-90538342D01*
X162666234Y-90909804D01*
X163322000Y-91040244D01*
X163846954Y-90935824D01*
X163853361Y-90947736D01*
X164640495Y-91590252D01*
X165032278Y-91768800D01*
X165430200Y-91423229D01*
X165430200Y-89654000D01*
X166293800Y-89654000D01*
X166293800Y-91423229D01*
X166691722Y-91768800D01*
X167083505Y-91590252D01*
X167870639Y-90947736D01*
X168351976Y-90052906D01*
X168003102Y-89654000D01*
X166293800Y-89654000D01*
X165430200Y-89654000D01*
X164998400Y-89654000D01*
X164998400Y-89513661D01*
X165035600Y-89326644D01*
X165035600Y-89225915D01*
X165430200Y-88883229D01*
X165430200Y-88222647D01*
X165811976Y-87512906D01*
X165463102Y-87114000D01*
X165430200Y-87114000D01*
X165430200Y-86884771D01*
X166293800Y-86884771D01*
X166293800Y-88883229D01*
X166691722Y-89228800D01*
X167083505Y-89050252D01*
X167568946Y-88654000D01*
X168003102Y-88654000D01*
X168351976Y-88255094D01*
X168152361Y-87884000D01*
X168351976Y-87512906D01*
X168003102Y-87114000D01*
X167568946Y-87114000D01*
X167083505Y-86717748D01*
X166691722Y-86539200D01*
X166293800Y-86884771D01*
X165430200Y-86884771D01*
X165032278Y-86539200D01*
X164640495Y-86717748D01*
X164155054Y-87114000D01*
X163720898Y-87114000D01*
X163547242Y-87312560D01*
X163322000Y-87267756D01*
X163096758Y-87312560D01*
X162923102Y-87114000D01*
X161180898Y-87114000D01*
X161007242Y-87312560D01*
X160782000Y-87267756D01*
X160556758Y-87312560D01*
X160383102Y-87114000D01*
X158640898Y-87114000D01*
X158467242Y-87312560D01*
X158242000Y-87267756D01*
X158061389Y-87303682D01*
X157842203Y-87045800D01*
X156133800Y-87045800D01*
X156133800Y-87114000D01*
X156100898Y-87114000D01*
X155927242Y-87312560D01*
X155702000Y-87267756D01*
X155476758Y-87312560D01*
X155303102Y-87114000D01*
X155270200Y-87114000D01*
X155270200Y-87045800D01*
X153561797Y-87045800D01*
X153342611Y-87303682D01*
X153162000Y-87267756D01*
X152936758Y-87312560D01*
X152763102Y-87114000D01*
X151020898Y-87114000D01*
X150847242Y-87312560D01*
X150622000Y-87267756D01*
X150190200Y-87353646D01*
X150190200Y-87114000D01*
X149758400Y-87114000D01*
X149758400Y-86973661D01*
X149795600Y-86786644D01*
X149795600Y-86441356D01*
X149758400Y-86254339D01*
X149758400Y-86114000D01*
X150190200Y-86114000D01*
X150190200Y-85715094D01*
X150672024Y-85715094D01*
X151020898Y-86114000D01*
X152763102Y-86114000D01*
X153051471Y-85784275D01*
X153223581Y-85784275D01*
X153561797Y-86182200D01*
X155270200Y-86182200D01*
X155270200Y-86114000D01*
X155303102Y-86114000D01*
X155651976Y-85715094D01*
X155752024Y-85715094D01*
X156100898Y-86114000D01*
X156133800Y-86114000D01*
X156133800Y-86182200D01*
X157842203Y-86182200D01*
X158180419Y-85784275D01*
X158140864Y-85715094D01*
X158292024Y-85715094D01*
X158640898Y-86114000D01*
X160383102Y-86114000D01*
X160731976Y-85715094D01*
X160832024Y-85715094D01*
X161180898Y-86114000D01*
X162923102Y-86114000D01*
X163271976Y-85715094D01*
X163372024Y-85715094D01*
X163720898Y-86114000D01*
X165463102Y-86114000D01*
X165811976Y-85715094D01*
X165430200Y-85005353D01*
X165430200Y-84344771D01*
X166293800Y-84344771D01*
X166293800Y-86114000D01*
X168003102Y-86114000D01*
X168351976Y-85715094D01*
X167870639Y-84820264D01*
X167083505Y-84177748D01*
X166691722Y-83999200D01*
X166293800Y-84344771D01*
X165430200Y-84344771D01*
X165032278Y-83999200D01*
X164640495Y-84177748D01*
X164592000Y-84217333D01*
X164543505Y-84177748D01*
X164151722Y-83999200D01*
X163753800Y-84344771D01*
X163753800Y-85005353D01*
X163372024Y-85715094D01*
X163271976Y-85715094D01*
X162890200Y-85005353D01*
X162890200Y-84344771D01*
X162492278Y-83999200D01*
X162100495Y-84177748D01*
X162052000Y-84217333D01*
X162003505Y-84177748D01*
X161611722Y-83999200D01*
X161213800Y-84344771D01*
X161213800Y-85005353D01*
X160832024Y-85715094D01*
X160731976Y-85715094D01*
X160350200Y-85005353D01*
X160350200Y-84344771D01*
X159952278Y-83999200D01*
X159560495Y-84177748D01*
X159512000Y-84217333D01*
X159463505Y-84177748D01*
X159071722Y-83999200D01*
X158673800Y-84344771D01*
X158673800Y-85005353D01*
X158292024Y-85715094D01*
X158140864Y-85715094D01*
X157810200Y-85136775D01*
X157810200Y-84344771D01*
X157412278Y-83999200D01*
X157020495Y-84177748D01*
X156885157Y-84288221D01*
X156867803Y-84274789D01*
X156531722Y-84135600D01*
X156133800Y-84481171D01*
X156133800Y-85005353D01*
X155752024Y-85715094D01*
X155651976Y-85715094D01*
X155270200Y-85005353D01*
X155270200Y-84481171D01*
X154872278Y-84135600D01*
X154536197Y-84274789D01*
X154518843Y-84288221D01*
X154383505Y-84177748D01*
X153991722Y-83999200D01*
X153593800Y-84344771D01*
X153593800Y-85136775D01*
X153223581Y-85784275D01*
X153051471Y-85784275D01*
X153111976Y-85715094D01*
X152730200Y-85005353D01*
X152730200Y-84344771D01*
X152332278Y-83999200D01*
X151940495Y-84177748D01*
X151892000Y-84217333D01*
X151843505Y-84177748D01*
X151451722Y-83999200D01*
X151053800Y-84344771D01*
X151053800Y-85005353D01*
X150672024Y-85715094D01*
X150190200Y-85715094D01*
X150190200Y-84344771D01*
X149792278Y-83999200D01*
X149400495Y-84177748D01*
X148613361Y-84820264D01*
X148606954Y-84832176D01*
X148082000Y-84727756D01*
X147426234Y-84858196D01*
X146870302Y-85229658D01*
X146812000Y-85316913D01*
X146753698Y-85229658D01*
X146197766Y-84858196D01*
X145542000Y-84727756D01*
X144886234Y-84858196D01*
X144330302Y-85229658D01*
X144272000Y-85316913D01*
X144213698Y-85229658D01*
X143657766Y-84858196D01*
X143002000Y-84727756D01*
X142346234Y-84858196D01*
X141790302Y-85229658D01*
X141732000Y-85316913D01*
X141673698Y-85229658D01*
X141117766Y-84858196D01*
X140462000Y-84727756D01*
X139806234Y-84858196D01*
X139250302Y-85229658D01*
X139192000Y-85316913D01*
X139133698Y-85229658D01*
X138577766Y-84858196D01*
X137922000Y-84727756D01*
X137266234Y-84858196D01*
X136710302Y-85229658D01*
X136338840Y-85785590D01*
X136208400Y-86441356D01*
X136208400Y-86786644D01*
X136338840Y-87442410D01*
X136479461Y-87652864D01*
X136454109Y-87669177D01*
X136260028Y-87953224D01*
X136191748Y-88290400D01*
X131060000Y-88290400D01*
X131060000Y-72640000D01*
X185805000Y-72640000D01*
X185805000Y-77032473D01*
M02*
