M48
;DRILL file {KiCad 4.0.6-e0-6349~53~ubuntu14.04.1} date Wed Dec 13 09:41:38 2017
;FORMAT={-:-/ absolute / metric / decimal}
FMAT,2
METRIC,TZ
T1C0.400
T2C1.016
%
G90
G05
M71
T1
X135.636Y-110.744
X136.398Y-116.332
X137.033Y-109.728
X137.16Y-111.887
X139.192Y-91.948
X139.7Y-76.835
X141.859Y-91.948
X143.129Y-116.332
X143.256Y-76.962
X144.78Y-91.948
X147.32Y-76.962
X147.447Y-91.948
X148.082Y-106.934
X149.86Y-91.821
X150.241Y-113.665
X150.241Y-117.094
X150.749Y-110.236
X151.003Y-76.962
X151.638Y-113.284
X151.765Y-109.22
X151.892Y-111.887
X152.4Y-91.821
X154.94Y-76.962
X154.94Y-91.948
X155.067Y-117.094
X157.353Y-91.948
X157.861Y-116.459
X160.147Y-91.948
X162.941Y-91.948
X163.195Y-106.68
X163.195Y-112.776
X164.465Y-112.014
X164.465Y-117.856
X165.1Y-110.49
X165.862Y-91.948
X168.656Y-103.505
X168.656Y-105.029
X168.783Y-99.187
X169.672Y-106.807
X169.672Y-110.617
X169.672Y-117.856
X170.307Y-91.948
X172.466Y-91.186
X175.006Y-91.186
X175.006Y-99.06
X175.133Y-109.347
X177.292Y-118.618
T2
X137.922Y-86.614
X137.922Y-89.154
X140.462Y-86.614
X140.462Y-89.154
X143.002Y-86.614
X143.002Y-89.154
X145.542Y-86.614
X145.542Y-89.154
X148.082Y-86.614
X148.082Y-89.154
X150.622Y-86.614
X150.622Y-89.154
X153.162Y-86.614
X153.162Y-89.154
X155.702Y-86.614
X155.702Y-89.154
X158.242Y-86.614
X158.242Y-89.154
X160.782Y-86.614
X160.782Y-89.154
X163.322Y-86.614
X163.322Y-89.154
X165.862Y-86.614
X165.862Y-89.154
X172.339Y-96.647
X172.339Y-99.187
X172.339Y-101.727
X172.339Y-104.267
X172.339Y-106.807
X172.339Y-109.347
X172.339Y-111.887
T0
M30
