M48
;DRILL file {KiCad 4.0.6-e0-6349~53~ubuntu14.04.1} date Fri Oct 20 11:39:57 2017
;FORMAT={-:-/ absolute / inch / decimal}
FMAT,2
INCH,TZ
T1C0.016
T2C0.035
T3C0.040
T4C0.091
%
G90
G05
M72
T1
X5.2Y-3.96
X5.2625Y-4.1625
X5.282Y-3.784
X5.29Y-3.98
X5.295Y-3.44
X5.312Y-4.714
X5.332Y-4.438
X5.334Y-4.544
X5.335Y-4.0975
X5.38Y-3.4625
X5.395Y-4.26
X5.425Y-4.1675
X5.4575Y-3.9975
X5.47Y-4.375
X5.47Y-4.465
X5.48Y-3.915
X5.49Y-4.07
X5.525Y-3.46
X5.525Y-3.855
X5.555Y-3.92
X5.59Y-4.0725
X5.6325Y-4.6425
X5.66Y-3.3825
X5.778Y-3.332
X5.78Y-3.85
X6.185Y-4.39
X6.185Y-4.485
X6.185Y-4.565
X6.185Y-4.65
X6.545Y-4.49
X6.55Y-4.39
X6.55Y-4.59
X6.55Y-4.68
T2
X4.4928Y-3.4528
X4.4928Y-4.5158
T3
X5.01Y-3.76
X5.01Y-3.86
X5.01Y-3.96
X5.01Y-4.06
X5.01Y-4.16
X5.01Y-4.26
X5.01Y-4.36
X6.3249Y-3.5402
X6.3249Y-3.6402
X6.3249Y-3.7402
X6.3249Y-3.8402
X6.3249Y-3.9402
X6.3249Y-4.0402
X6.3249Y-4.1402
X6.3249Y-4.2402
X6.3249Y-4.3402
X6.3249Y-4.4402
X6.3249Y-4.5402
X6.3249Y-4.6402
X6.4249Y-3.5402
X6.4249Y-3.6402
X6.4249Y-3.7402
X6.4249Y-3.8402
X6.4249Y-3.9402
X6.4249Y-4.0402
X6.4249Y-4.1402
X6.4249Y-4.2402
X6.4249Y-4.3402
X6.4249Y-4.4402
X6.4249Y-4.5402
X6.4249Y-4.6402
T4
X4.4376Y-3.3406
X4.4376Y-4.628
T0
M30
