G04 #@! TF.FileFunction,Legend,Top*
%FSLAX46Y46*%
G04 Gerber Fmt 4.6, Leading zero omitted, Abs format (unit mm)*
G04 Created by KiCad (PCBNEW 4.0.6-e0-6349~53~ubuntu14.04.1) date Fri Oct 20 11:39:51 2017*
%MOMM*%
%LPD*%
G01*
G04 APERTURE LIST*
%ADD10C,0.100000*%
%ADD11C,0.300000*%
%ADD12C,0.200000*%
%ADD13C,0.150000*%
%ADD14C,0.152400*%
%ADD15C,0.120000*%
%ADD16C,0.050000*%
G04 APERTURE END LIST*
D10*
D11*
X184171429Y-95250001D02*
X183171429Y-95250001D01*
X184742857Y-94892858D02*
X183671429Y-94535715D01*
X183671429Y-95464287D01*
X184671429Y-95892858D02*
X184671429Y-96821429D01*
X184100000Y-96321429D01*
X184100000Y-96535715D01*
X184028571Y-96678572D01*
X183957143Y-96750001D01*
X183814286Y-96821429D01*
X183457143Y-96821429D01*
X183314286Y-96750001D01*
X183242857Y-96678572D01*
X183171429Y-96535715D01*
X183171429Y-96107143D01*
X183242857Y-95964286D01*
X183314286Y-95892858D01*
X183242857Y-97535714D02*
X183171429Y-97535714D01*
X183028571Y-97464286D01*
X182957143Y-97392857D01*
X184671429Y-98892858D02*
X184671429Y-98178572D01*
X183957143Y-98107143D01*
X184028571Y-98178572D01*
X184100000Y-98321429D01*
X184100000Y-98678572D01*
X184028571Y-98821429D01*
X183957143Y-98892858D01*
X183814286Y-98964286D01*
X183457143Y-98964286D01*
X183314286Y-98892858D01*
X183242857Y-98821429D01*
X183171429Y-98678572D01*
X183171429Y-98321429D01*
X183242857Y-98178572D01*
X183314286Y-98107143D01*
X184671429Y-99892857D02*
X184671429Y-100035714D01*
X184600000Y-100178571D01*
X184528571Y-100250000D01*
X184385714Y-100321429D01*
X184100000Y-100392857D01*
X183742857Y-100392857D01*
X183457143Y-100321429D01*
X183314286Y-100250000D01*
X183242857Y-100178571D01*
X183171429Y-100035714D01*
X183171429Y-99892857D01*
X183242857Y-99750000D01*
X183314286Y-99678571D01*
X183457143Y-99607143D01*
X183742857Y-99535714D01*
X184100000Y-99535714D01*
X184385714Y-99607143D01*
X184528571Y-99678571D01*
X184600000Y-99750000D01*
X184671429Y-99892857D01*
X184671429Y-101321428D02*
X184671429Y-101464285D01*
X184600000Y-101607142D01*
X184528571Y-101678571D01*
X184385714Y-101750000D01*
X184100000Y-101821428D01*
X183742857Y-101821428D01*
X183457143Y-101750000D01*
X183314286Y-101678571D01*
X183242857Y-101607142D01*
X183171429Y-101464285D01*
X183171429Y-101321428D01*
X183242857Y-101178571D01*
X183314286Y-101107142D01*
X183457143Y-101035714D01*
X183742857Y-100964285D01*
X184100000Y-100964285D01*
X184385714Y-101035714D01*
X184528571Y-101107142D01*
X184600000Y-101178571D01*
X184671429Y-101321428D01*
X183171429Y-103607142D02*
X184171429Y-103607142D01*
X184028571Y-103607142D02*
X184100000Y-103678570D01*
X184171429Y-103821428D01*
X184171429Y-104035713D01*
X184100000Y-104178570D01*
X183957143Y-104249999D01*
X183171429Y-104249999D01*
X183957143Y-104249999D02*
X184100000Y-104321428D01*
X184171429Y-104464285D01*
X184171429Y-104678570D01*
X184100000Y-104821428D01*
X183957143Y-104892856D01*
X183171429Y-104892856D01*
X183171429Y-105607142D02*
X184171429Y-105607142D01*
X184028571Y-105607142D02*
X184100000Y-105678570D01*
X184171429Y-105821428D01*
X184171429Y-106035713D01*
X184100000Y-106178570D01*
X183957143Y-106249999D01*
X183171429Y-106249999D01*
X183957143Y-106249999D02*
X184100000Y-106321428D01*
X184171429Y-106464285D01*
X184171429Y-106678570D01*
X184100000Y-106821428D01*
X183957143Y-106892856D01*
X183171429Y-106892856D01*
X182500000Y-79000000D02*
X182500000Y-122500000D01*
X178500000Y-79000000D02*
X185200000Y-79000000D01*
X178500000Y-122500000D02*
X185200000Y-122500000D01*
X182500000Y-122500000D02*
X181913579Y-121373496D01*
X182500000Y-122500000D02*
X183086421Y-121373496D01*
X182500000Y-79000000D02*
X181913579Y-80126504D01*
X182500000Y-79000000D02*
X183086421Y-80126504D01*
X135750001Y-71828571D02*
X135464287Y-71828571D01*
X135321430Y-71900000D01*
X135250001Y-71971429D01*
X135107144Y-72185714D01*
X135035715Y-72471429D01*
X135035715Y-73042857D01*
X135107144Y-73185714D01*
X135178572Y-73257143D01*
X135321430Y-73328571D01*
X135607144Y-73328571D01*
X135750001Y-73257143D01*
X135821430Y-73185714D01*
X135892858Y-73042857D01*
X135892858Y-72685714D01*
X135821430Y-72542857D01*
X135750001Y-72471429D01*
X135607144Y-72400000D01*
X135321430Y-72400000D01*
X135178572Y-72471429D01*
X135107144Y-72542857D01*
X135035715Y-72685714D01*
X136392858Y-71828571D02*
X137392858Y-71828571D01*
X136750001Y-73328571D01*
X138035714Y-73257143D02*
X138035714Y-73328571D01*
X137964286Y-73471429D01*
X137892857Y-73542857D01*
X139392858Y-71828571D02*
X138678572Y-71828571D01*
X138607143Y-72542857D01*
X138678572Y-72471429D01*
X138821429Y-72400000D01*
X139178572Y-72400000D01*
X139321429Y-72471429D01*
X139392858Y-72542857D01*
X139464286Y-72685714D01*
X139464286Y-73042857D01*
X139392858Y-73185714D01*
X139321429Y-73257143D01*
X139178572Y-73328571D01*
X138821429Y-73328571D01*
X138678572Y-73257143D01*
X138607143Y-73185714D01*
X140392857Y-71828571D02*
X140535714Y-71828571D01*
X140678571Y-71900000D01*
X140750000Y-71971429D01*
X140821429Y-72114286D01*
X140892857Y-72400000D01*
X140892857Y-72757143D01*
X140821429Y-73042857D01*
X140750000Y-73185714D01*
X140678571Y-73257143D01*
X140535714Y-73328571D01*
X140392857Y-73328571D01*
X140250000Y-73257143D01*
X140178571Y-73185714D01*
X140107143Y-73042857D01*
X140035714Y-72757143D01*
X140035714Y-72400000D01*
X140107143Y-72114286D01*
X140178571Y-71971429D01*
X140250000Y-71900000D01*
X140392857Y-71828571D01*
X141821428Y-71828571D02*
X141964285Y-71828571D01*
X142107142Y-71900000D01*
X142178571Y-71971429D01*
X142250000Y-72114286D01*
X142321428Y-72400000D01*
X142321428Y-72757143D01*
X142250000Y-73042857D01*
X142178571Y-73185714D01*
X142107142Y-73257143D01*
X141964285Y-73328571D01*
X141821428Y-73328571D01*
X141678571Y-73257143D01*
X141607142Y-73185714D01*
X141535714Y-73042857D01*
X141464285Y-72757143D01*
X141464285Y-72400000D01*
X141535714Y-72114286D01*
X141607142Y-71971429D01*
X141678571Y-71900000D01*
X141821428Y-71828571D01*
X144107142Y-73328571D02*
X144107142Y-72328571D01*
X144107142Y-72471429D02*
X144178570Y-72400000D01*
X144321428Y-72328571D01*
X144535713Y-72328571D01*
X144678570Y-72400000D01*
X144749999Y-72542857D01*
X144749999Y-73328571D01*
X144749999Y-72542857D02*
X144821428Y-72400000D01*
X144964285Y-72328571D01*
X145178570Y-72328571D01*
X145321428Y-72400000D01*
X145392856Y-72542857D01*
X145392856Y-73328571D01*
X146107142Y-73328571D02*
X146107142Y-72328571D01*
X146107142Y-72471429D02*
X146178570Y-72400000D01*
X146321428Y-72328571D01*
X146535713Y-72328571D01*
X146678570Y-72400000D01*
X146749999Y-72542857D01*
X146749999Y-73328571D01*
X146749999Y-72542857D02*
X146821428Y-72400000D01*
X146964285Y-72328571D01*
X147178570Y-72328571D01*
X147321428Y-72400000D01*
X147392856Y-72542857D01*
X147392856Y-73328571D01*
X107500000Y-74000000D02*
X175000000Y-74000000D01*
X107500000Y-76500000D02*
X107500000Y-71300000D01*
X175000000Y-76500000D02*
X175000000Y-71300000D01*
X175000000Y-74000000D02*
X173873496Y-74586421D01*
X175000000Y-74000000D02*
X173873496Y-73413579D01*
X107500000Y-74000000D02*
X108626504Y-74586421D01*
X107500000Y-74000000D02*
X108626504Y-73413579D01*
D12*
X107500000Y-122500000D02*
X107500000Y-79000000D01*
X175000000Y-122500000D02*
X107500000Y-122500000D01*
X175000000Y-79000000D02*
X175000000Y-122500000D01*
X107500000Y-79000000D02*
X175000000Y-79000000D01*
D13*
X124222000Y-92719000D02*
X126222000Y-92719000D01*
X126222000Y-90669000D02*
X124222000Y-90669000D01*
X125420500Y-89242000D02*
X126420500Y-89242000D01*
X126420500Y-87542000D02*
X125420500Y-87542000D01*
X124158500Y-86305500D02*
X126158500Y-86305500D01*
X126158500Y-84255500D02*
X124158500Y-84255500D01*
X125484000Y-83209500D02*
X126484000Y-83209500D01*
X126484000Y-81509500D02*
X125484000Y-81509500D01*
X108966000Y-80772000D02*
X108966000Y-121412000D01*
X108966000Y-121412000D02*
X117856000Y-121412000D01*
X117856000Y-121412000D02*
X117856000Y-80772000D01*
X117856000Y-80772000D02*
X108966000Y-80772000D01*
X164462000Y-119131000D02*
X164462000Y-88651000D01*
X159382000Y-91191000D02*
X159382000Y-119131000D01*
X164462000Y-119131000D02*
X159382000Y-119131000D01*
X164462000Y-88651000D02*
X161922000Y-88651000D01*
X160652000Y-88371000D02*
X159102000Y-88371000D01*
X161922000Y-88651000D02*
X161922000Y-91191000D01*
X161922000Y-91191000D02*
X159382000Y-91191000D01*
X159102000Y-88371000D02*
X159102000Y-89921000D01*
X128524000Y-96774000D02*
X128524000Y-112014000D01*
X128524000Y-112014000D02*
X125984000Y-112014000D01*
X125984000Y-112014000D02*
X125984000Y-96774000D01*
X128804000Y-93954000D02*
X128804000Y-95504000D01*
X128524000Y-96774000D02*
X125984000Y-96774000D01*
X125704000Y-95504000D02*
X125704000Y-93954000D01*
X125704000Y-93954000D02*
X128804000Y-93954000D01*
X131861000Y-108535500D02*
X133061000Y-108535500D01*
X133061000Y-110285500D02*
X131861000Y-110285500D01*
X155102000Y-88914000D02*
X156302000Y-88914000D01*
X156302000Y-90664000D02*
X155102000Y-90664000D01*
X155102000Y-91454000D02*
X156302000Y-91454000D01*
X156302000Y-93204000D02*
X155102000Y-93204000D01*
X155102000Y-94248000D02*
X156302000Y-94248000D01*
X156302000Y-95998000D02*
X155102000Y-95998000D01*
X155102000Y-96788000D02*
X156302000Y-96788000D01*
X156302000Y-98538000D02*
X155102000Y-98538000D01*
X155102000Y-99328000D02*
X156302000Y-99328000D01*
X156302000Y-101078000D02*
X155102000Y-101078000D01*
X155102000Y-101868000D02*
X156302000Y-101868000D01*
X156302000Y-103618000D02*
X155102000Y-103618000D01*
X155102000Y-104408000D02*
X156302000Y-104408000D01*
X156302000Y-106158000D02*
X155102000Y-106158000D01*
X155102000Y-106948000D02*
X156302000Y-106948000D01*
X156302000Y-108698000D02*
X155102000Y-108698000D01*
X169002000Y-90664000D02*
X167802000Y-90664000D01*
X167802000Y-88914000D02*
X169002000Y-88914000D01*
X169002000Y-93204000D02*
X167802000Y-93204000D01*
X167802000Y-91454000D02*
X169002000Y-91454000D01*
X169002000Y-95744000D02*
X167802000Y-95744000D01*
X167802000Y-93994000D02*
X169002000Y-93994000D01*
X169002000Y-98284000D02*
X167802000Y-98284000D01*
X167802000Y-96534000D02*
X169002000Y-96534000D01*
X169002000Y-100824000D02*
X167802000Y-100824000D01*
X167802000Y-99074000D02*
X169002000Y-99074000D01*
X169002000Y-103364000D02*
X167802000Y-103364000D01*
X167802000Y-101614000D02*
X169002000Y-101614000D01*
X169002000Y-105904000D02*
X167802000Y-105904000D01*
X167802000Y-104154000D02*
X169002000Y-104154000D01*
X169002000Y-108444000D02*
X167802000Y-108444000D01*
X167802000Y-106694000D02*
X169002000Y-106694000D01*
D14*
X140716000Y-90703400D02*
X140208000Y-90703400D01*
X146304000Y-95224600D02*
X146812000Y-95224600D01*
X146812000Y-95224600D02*
X146812000Y-90703400D01*
X146812000Y-90703400D02*
X146304000Y-90703400D01*
X140208000Y-90703400D02*
X140208000Y-92659200D01*
X140208000Y-92659200D02*
X140208000Y-93268800D01*
X140208000Y-93268800D02*
X140208000Y-95224600D01*
X140208000Y-95224600D02*
X140716000Y-95224600D01*
X140208000Y-92659200D02*
G75*
G02X140208000Y-93268800I0J-304800D01*
G01*
X140843000Y-108483400D02*
X140335000Y-108483400D01*
X146431000Y-113004600D02*
X146939000Y-113004600D01*
X146939000Y-113004600D02*
X146939000Y-108483400D01*
X146939000Y-108483400D02*
X146431000Y-108483400D01*
X140335000Y-108483400D02*
X140335000Y-110439200D01*
X140335000Y-110439200D02*
X140335000Y-111048800D01*
X140335000Y-111048800D02*
X140335000Y-113004600D01*
X140335000Y-113004600D02*
X140843000Y-113004600D01*
X140335000Y-110439200D02*
G75*
G02X140335000Y-111048800I0J-304800D01*
G01*
D15*
X131529200Y-114489600D02*
X132529200Y-114489600D01*
X132529200Y-112789600D02*
X131529200Y-112789600D01*
X131580000Y-116928000D02*
X132580000Y-116928000D01*
X132580000Y-115228000D02*
X131580000Y-115228000D01*
X137502000Y-92765500D02*
X137502000Y-91765500D01*
X135802000Y-91765500D02*
X135802000Y-92765500D01*
X135343000Y-92702000D02*
X135343000Y-91702000D01*
X133643000Y-91702000D02*
X133643000Y-92702000D01*
D13*
X120673834Y-91225643D02*
X120626215Y-91273262D01*
X120483358Y-91320881D01*
X120388120Y-91320881D01*
X120245262Y-91273262D01*
X120150024Y-91178024D01*
X120102405Y-91082786D01*
X120054786Y-90892310D01*
X120054786Y-90749452D01*
X120102405Y-90558976D01*
X120150024Y-90463738D01*
X120245262Y-90368500D01*
X120388120Y-90320881D01*
X120483358Y-90320881D01*
X120626215Y-90368500D01*
X120673834Y-90416119D01*
X121626215Y-91320881D02*
X121054786Y-91320881D01*
X121340500Y-91320881D02*
X121340500Y-90320881D01*
X121245262Y-90463738D01*
X121150024Y-90558976D01*
X121054786Y-90606595D01*
X122388334Y-88050643D02*
X122340715Y-88098262D01*
X122197858Y-88145881D01*
X122102620Y-88145881D01*
X121959762Y-88098262D01*
X121864524Y-88003024D01*
X121816905Y-87907786D01*
X121769286Y-87717310D01*
X121769286Y-87574452D01*
X121816905Y-87383976D01*
X121864524Y-87288738D01*
X121959762Y-87193500D01*
X122102620Y-87145881D01*
X122197858Y-87145881D01*
X122340715Y-87193500D01*
X122388334Y-87241119D01*
X122769286Y-87241119D02*
X122816905Y-87193500D01*
X122912143Y-87145881D01*
X123150239Y-87145881D01*
X123245477Y-87193500D01*
X123293096Y-87241119D01*
X123340715Y-87336357D01*
X123340715Y-87431595D01*
X123293096Y-87574452D01*
X122721667Y-88145881D01*
X123340715Y-88145881D01*
X120165834Y-85129643D02*
X120118215Y-85177262D01*
X119975358Y-85224881D01*
X119880120Y-85224881D01*
X119737262Y-85177262D01*
X119642024Y-85082024D01*
X119594405Y-84986786D01*
X119546786Y-84796310D01*
X119546786Y-84653452D01*
X119594405Y-84462976D01*
X119642024Y-84367738D01*
X119737262Y-84272500D01*
X119880120Y-84224881D01*
X119975358Y-84224881D01*
X120118215Y-84272500D01*
X120165834Y-84320119D01*
X120499167Y-84224881D02*
X121118215Y-84224881D01*
X120784881Y-84605833D01*
X120927739Y-84605833D01*
X121022977Y-84653452D01*
X121070596Y-84701071D01*
X121118215Y-84796310D01*
X121118215Y-85034405D01*
X121070596Y-85129643D01*
X121022977Y-85177262D01*
X120927739Y-85224881D01*
X120642024Y-85224881D01*
X120546786Y-85177262D01*
X120499167Y-85129643D01*
X125817334Y-84816643D02*
X125769715Y-84864262D01*
X125626858Y-84911881D01*
X125531620Y-84911881D01*
X125388762Y-84864262D01*
X125293524Y-84769024D01*
X125245905Y-84673786D01*
X125198286Y-84483310D01*
X125198286Y-84340452D01*
X125245905Y-84149976D01*
X125293524Y-84054738D01*
X125388762Y-83959500D01*
X125531620Y-83911881D01*
X125626858Y-83911881D01*
X125769715Y-83959500D01*
X125817334Y-84007119D01*
X126674477Y-84245214D02*
X126674477Y-84911881D01*
X126436381Y-83864262D02*
X126198286Y-84578548D01*
X126817334Y-84578548D01*
X108053143Y-101560095D02*
X108100762Y-101607714D01*
X108148381Y-101750571D01*
X108148381Y-101845809D01*
X108100762Y-101988667D01*
X108005524Y-102083905D01*
X107910286Y-102131524D01*
X107719810Y-102179143D01*
X107576952Y-102179143D01*
X107386476Y-102131524D01*
X107291238Y-102083905D01*
X107196000Y-101988667D01*
X107148381Y-101845809D01*
X107148381Y-101750571D01*
X107196000Y-101607714D01*
X107243619Y-101560095D01*
X107148381Y-100941048D02*
X107148381Y-100750571D01*
X107196000Y-100655333D01*
X107291238Y-100560095D01*
X107481714Y-100512476D01*
X107815048Y-100512476D01*
X108005524Y-100560095D01*
X108100762Y-100655333D01*
X108148381Y-100750571D01*
X108148381Y-100941048D01*
X108100762Y-101036286D01*
X108005524Y-101131524D01*
X107815048Y-101179143D01*
X107481714Y-101179143D01*
X107291238Y-101131524D01*
X107196000Y-101036286D01*
X107148381Y-100941048D01*
X108148381Y-100083905D02*
X107148381Y-100083905D01*
X108148381Y-99512476D01*
X107148381Y-99512476D01*
X108148381Y-99036286D02*
X107148381Y-99036286D01*
X108148381Y-98464857D01*
X107148381Y-98464857D01*
X108148381Y-97464857D02*
X108148381Y-98036286D01*
X108148381Y-97750572D02*
X107148381Y-97750572D01*
X107291238Y-97845810D01*
X107386476Y-97941048D01*
X107434095Y-98036286D01*
X158913905Y-85178143D02*
X158866286Y-85225762D01*
X158723429Y-85273381D01*
X158628191Y-85273381D01*
X158485333Y-85225762D01*
X158390095Y-85130524D01*
X158342476Y-85035286D01*
X158294857Y-84844810D01*
X158294857Y-84701952D01*
X158342476Y-84511476D01*
X158390095Y-84416238D01*
X158485333Y-84321000D01*
X158628191Y-84273381D01*
X158723429Y-84273381D01*
X158866286Y-84321000D01*
X158913905Y-84368619D01*
X159532952Y-84273381D02*
X159723429Y-84273381D01*
X159818667Y-84321000D01*
X159913905Y-84416238D01*
X159961524Y-84606714D01*
X159961524Y-84940048D01*
X159913905Y-85130524D01*
X159818667Y-85225762D01*
X159723429Y-85273381D01*
X159532952Y-85273381D01*
X159437714Y-85225762D01*
X159342476Y-85130524D01*
X159294857Y-84940048D01*
X159294857Y-84606714D01*
X159342476Y-84416238D01*
X159437714Y-84321000D01*
X159532952Y-84273381D01*
X160390095Y-85273381D02*
X160390095Y-84273381D01*
X160961524Y-85273381D01*
X160961524Y-84273381D01*
X161437714Y-85273381D02*
X161437714Y-84273381D01*
X162009143Y-85273381D01*
X162009143Y-84273381D01*
X162437714Y-84368619D02*
X162485333Y-84321000D01*
X162580571Y-84273381D01*
X162818667Y-84273381D01*
X162913905Y-84321000D01*
X162961524Y-84368619D01*
X163009143Y-84463857D01*
X163009143Y-84559095D01*
X162961524Y-84701952D01*
X162390095Y-85273381D01*
X163009143Y-85273381D01*
X123658405Y-94940381D02*
X123658405Y-93940381D01*
X124039358Y-93940381D01*
X124134596Y-93988000D01*
X124182215Y-94035619D01*
X124229834Y-94130857D01*
X124229834Y-94273714D01*
X124182215Y-94368952D01*
X124134596Y-94416571D01*
X124039358Y-94464190D01*
X123658405Y-94464190D01*
X125182215Y-94940381D02*
X124610786Y-94940381D01*
X124896500Y-94940381D02*
X124896500Y-93940381D01*
X124801262Y-94083238D01*
X124706024Y-94178476D01*
X124610786Y-94226095D01*
X132294334Y-111962881D02*
X131961000Y-111486690D01*
X131722905Y-111962881D02*
X131722905Y-110962881D01*
X132103858Y-110962881D01*
X132199096Y-111010500D01*
X132246715Y-111058119D01*
X132294334Y-111153357D01*
X132294334Y-111296214D01*
X132246715Y-111391452D01*
X132199096Y-111439071D01*
X132103858Y-111486690D01*
X131722905Y-111486690D01*
X133246715Y-111962881D02*
X132675286Y-111962881D01*
X132961000Y-111962881D02*
X132961000Y-110962881D01*
X132865762Y-111105738D01*
X132770524Y-111200976D01*
X132675286Y-111248595D01*
X151965334Y-90181381D02*
X151632000Y-89705190D01*
X151393905Y-90181381D02*
X151393905Y-89181381D01*
X151774858Y-89181381D01*
X151870096Y-89229000D01*
X151917715Y-89276619D01*
X151965334Y-89371857D01*
X151965334Y-89514714D01*
X151917715Y-89609952D01*
X151870096Y-89657571D01*
X151774858Y-89705190D01*
X151393905Y-89705190D01*
X152346286Y-89276619D02*
X152393905Y-89229000D01*
X152489143Y-89181381D01*
X152727239Y-89181381D01*
X152822477Y-89229000D01*
X152870096Y-89276619D01*
X152917715Y-89371857D01*
X152917715Y-89467095D01*
X152870096Y-89609952D01*
X152298667Y-90181381D01*
X152917715Y-90181381D01*
X152015334Y-92891381D02*
X151682000Y-92415190D01*
X151443905Y-92891381D02*
X151443905Y-91891381D01*
X151824858Y-91891381D01*
X151920096Y-91939000D01*
X151967715Y-91986619D01*
X152015334Y-92081857D01*
X152015334Y-92224714D01*
X151967715Y-92319952D01*
X151920096Y-92367571D01*
X151824858Y-92415190D01*
X151443905Y-92415190D01*
X152348667Y-91891381D02*
X152967715Y-91891381D01*
X152634381Y-92272333D01*
X152777239Y-92272333D01*
X152872477Y-92319952D01*
X152920096Y-92367571D01*
X152967715Y-92462810D01*
X152967715Y-92700905D01*
X152920096Y-92796143D01*
X152872477Y-92843762D01*
X152777239Y-92891381D01*
X152491524Y-92891381D01*
X152396286Y-92843762D01*
X152348667Y-92796143D01*
X151735334Y-95635381D02*
X151402000Y-95159190D01*
X151163905Y-95635381D02*
X151163905Y-94635381D01*
X151544858Y-94635381D01*
X151640096Y-94683000D01*
X151687715Y-94730619D01*
X151735334Y-94825857D01*
X151735334Y-94968714D01*
X151687715Y-95063952D01*
X151640096Y-95111571D01*
X151544858Y-95159190D01*
X151163905Y-95159190D01*
X152592477Y-94968714D02*
X152592477Y-95635381D01*
X152354381Y-94587762D02*
X152116286Y-95302048D01*
X152735334Y-95302048D01*
X151905334Y-98175381D02*
X151572000Y-97699190D01*
X151333905Y-98175381D02*
X151333905Y-97175381D01*
X151714858Y-97175381D01*
X151810096Y-97223000D01*
X151857715Y-97270619D01*
X151905334Y-97365857D01*
X151905334Y-97508714D01*
X151857715Y-97603952D01*
X151810096Y-97651571D01*
X151714858Y-97699190D01*
X151333905Y-97699190D01*
X152810096Y-97175381D02*
X152333905Y-97175381D01*
X152286286Y-97651571D01*
X152333905Y-97603952D01*
X152429143Y-97556333D01*
X152667239Y-97556333D01*
X152762477Y-97603952D01*
X152810096Y-97651571D01*
X152857715Y-97746810D01*
X152857715Y-97984905D01*
X152810096Y-98080143D01*
X152762477Y-98127762D01*
X152667239Y-98175381D01*
X152429143Y-98175381D01*
X152333905Y-98127762D01*
X152286286Y-98080143D01*
X151735334Y-100815381D02*
X151402000Y-100339190D01*
X151163905Y-100815381D02*
X151163905Y-99815381D01*
X151544858Y-99815381D01*
X151640096Y-99863000D01*
X151687715Y-99910619D01*
X151735334Y-100005857D01*
X151735334Y-100148714D01*
X151687715Y-100243952D01*
X151640096Y-100291571D01*
X151544858Y-100339190D01*
X151163905Y-100339190D01*
X152592477Y-99815381D02*
X152402000Y-99815381D01*
X152306762Y-99863000D01*
X152259143Y-99910619D01*
X152163905Y-100053476D01*
X152116286Y-100243952D01*
X152116286Y-100624905D01*
X152163905Y-100720143D01*
X152211524Y-100767762D01*
X152306762Y-100815381D01*
X152497239Y-100815381D01*
X152592477Y-100767762D01*
X152640096Y-100720143D01*
X152687715Y-100624905D01*
X152687715Y-100386810D01*
X152640096Y-100291571D01*
X152592477Y-100243952D01*
X152497239Y-100196333D01*
X152306762Y-100196333D01*
X152211524Y-100243952D01*
X152163905Y-100291571D01*
X152116286Y-100386810D01*
X151855334Y-103365381D02*
X151522000Y-102889190D01*
X151283905Y-103365381D02*
X151283905Y-102365381D01*
X151664858Y-102365381D01*
X151760096Y-102413000D01*
X151807715Y-102460619D01*
X151855334Y-102555857D01*
X151855334Y-102698714D01*
X151807715Y-102793952D01*
X151760096Y-102841571D01*
X151664858Y-102889190D01*
X151283905Y-102889190D01*
X152188667Y-102365381D02*
X152855334Y-102365381D01*
X152426762Y-103365381D01*
X151845334Y-105845381D02*
X151512000Y-105369190D01*
X151273905Y-105845381D02*
X151273905Y-104845381D01*
X151654858Y-104845381D01*
X151750096Y-104893000D01*
X151797715Y-104940619D01*
X151845334Y-105035857D01*
X151845334Y-105178714D01*
X151797715Y-105273952D01*
X151750096Y-105321571D01*
X151654858Y-105369190D01*
X151273905Y-105369190D01*
X152416762Y-105273952D02*
X152321524Y-105226333D01*
X152273905Y-105178714D01*
X152226286Y-105083476D01*
X152226286Y-105035857D01*
X152273905Y-104940619D01*
X152321524Y-104893000D01*
X152416762Y-104845381D01*
X152607239Y-104845381D01*
X152702477Y-104893000D01*
X152750096Y-104940619D01*
X152797715Y-105035857D01*
X152797715Y-105083476D01*
X152750096Y-105178714D01*
X152702477Y-105226333D01*
X152607239Y-105273952D01*
X152416762Y-105273952D01*
X152321524Y-105321571D01*
X152273905Y-105369190D01*
X152226286Y-105464429D01*
X152226286Y-105654905D01*
X152273905Y-105750143D01*
X152321524Y-105797762D01*
X152416762Y-105845381D01*
X152607239Y-105845381D01*
X152702477Y-105797762D01*
X152750096Y-105750143D01*
X152797715Y-105654905D01*
X152797715Y-105464429D01*
X152750096Y-105369190D01*
X152702477Y-105321571D01*
X152607239Y-105273952D01*
X151845334Y-108275381D02*
X151512000Y-107799190D01*
X151273905Y-108275381D02*
X151273905Y-107275381D01*
X151654858Y-107275381D01*
X151750096Y-107323000D01*
X151797715Y-107370619D01*
X151845334Y-107465857D01*
X151845334Y-107608714D01*
X151797715Y-107703952D01*
X151750096Y-107751571D01*
X151654858Y-107799190D01*
X151273905Y-107799190D01*
X152321524Y-108275381D02*
X152512000Y-108275381D01*
X152607239Y-108227762D01*
X152654858Y-108180143D01*
X152750096Y-108037286D01*
X152797715Y-107846810D01*
X152797715Y-107465857D01*
X152750096Y-107370619D01*
X152702477Y-107323000D01*
X152607239Y-107275381D01*
X152416762Y-107275381D01*
X152321524Y-107323000D01*
X152273905Y-107370619D01*
X152226286Y-107465857D01*
X152226286Y-107703952D01*
X152273905Y-107799190D01*
X152321524Y-107846810D01*
X152416762Y-107894429D01*
X152607239Y-107894429D01*
X152702477Y-107846810D01*
X152750096Y-107799190D01*
X152797715Y-107703952D01*
X171949143Y-90181381D02*
X171615809Y-89705190D01*
X171377714Y-90181381D02*
X171377714Y-89181381D01*
X171758667Y-89181381D01*
X171853905Y-89229000D01*
X171901524Y-89276619D01*
X171949143Y-89371857D01*
X171949143Y-89514714D01*
X171901524Y-89609952D01*
X171853905Y-89657571D01*
X171758667Y-89705190D01*
X171377714Y-89705190D01*
X172901524Y-90181381D02*
X172330095Y-90181381D01*
X172615809Y-90181381D02*
X172615809Y-89181381D01*
X172520571Y-89324238D01*
X172425333Y-89419476D01*
X172330095Y-89467095D01*
X173520571Y-89181381D02*
X173615810Y-89181381D01*
X173711048Y-89229000D01*
X173758667Y-89276619D01*
X173806286Y-89371857D01*
X173853905Y-89562333D01*
X173853905Y-89800429D01*
X173806286Y-89990905D01*
X173758667Y-90086143D01*
X173711048Y-90133762D01*
X173615810Y-90181381D01*
X173520571Y-90181381D01*
X173425333Y-90133762D01*
X173377714Y-90086143D01*
X173330095Y-89990905D01*
X173282476Y-89800429D01*
X173282476Y-89562333D01*
X173330095Y-89371857D01*
X173377714Y-89276619D01*
X173425333Y-89229000D01*
X173520571Y-89181381D01*
X171999143Y-92831381D02*
X171665809Y-92355190D01*
X171427714Y-92831381D02*
X171427714Y-91831381D01*
X171808667Y-91831381D01*
X171903905Y-91879000D01*
X171951524Y-91926619D01*
X171999143Y-92021857D01*
X171999143Y-92164714D01*
X171951524Y-92259952D01*
X171903905Y-92307571D01*
X171808667Y-92355190D01*
X171427714Y-92355190D01*
X172951524Y-92831381D02*
X172380095Y-92831381D01*
X172665809Y-92831381D02*
X172665809Y-91831381D01*
X172570571Y-91974238D01*
X172475333Y-92069476D01*
X172380095Y-92117095D01*
X173903905Y-92831381D02*
X173332476Y-92831381D01*
X173618190Y-92831381D02*
X173618190Y-91831381D01*
X173522952Y-91974238D01*
X173427714Y-92069476D01*
X173332476Y-92117095D01*
X172059143Y-95201381D02*
X171725809Y-94725190D01*
X171487714Y-95201381D02*
X171487714Y-94201381D01*
X171868667Y-94201381D01*
X171963905Y-94249000D01*
X172011524Y-94296619D01*
X172059143Y-94391857D01*
X172059143Y-94534714D01*
X172011524Y-94629952D01*
X171963905Y-94677571D01*
X171868667Y-94725190D01*
X171487714Y-94725190D01*
X173011524Y-95201381D02*
X172440095Y-95201381D01*
X172725809Y-95201381D02*
X172725809Y-94201381D01*
X172630571Y-94344238D01*
X172535333Y-94439476D01*
X172440095Y-94487095D01*
X173392476Y-94296619D02*
X173440095Y-94249000D01*
X173535333Y-94201381D01*
X173773429Y-94201381D01*
X173868667Y-94249000D01*
X173916286Y-94296619D01*
X173963905Y-94391857D01*
X173963905Y-94487095D01*
X173916286Y-94629952D01*
X173344857Y-95201381D01*
X173963905Y-95201381D01*
X171889143Y-97771381D02*
X171555809Y-97295190D01*
X171317714Y-97771381D02*
X171317714Y-96771381D01*
X171698667Y-96771381D01*
X171793905Y-96819000D01*
X171841524Y-96866619D01*
X171889143Y-96961857D01*
X171889143Y-97104714D01*
X171841524Y-97199952D01*
X171793905Y-97247571D01*
X171698667Y-97295190D01*
X171317714Y-97295190D01*
X172841524Y-97771381D02*
X172270095Y-97771381D01*
X172555809Y-97771381D02*
X172555809Y-96771381D01*
X172460571Y-96914238D01*
X172365333Y-97009476D01*
X172270095Y-97057095D01*
X173174857Y-96771381D02*
X173793905Y-96771381D01*
X173460571Y-97152333D01*
X173603429Y-97152333D01*
X173698667Y-97199952D01*
X173746286Y-97247571D01*
X173793905Y-97342810D01*
X173793905Y-97580905D01*
X173746286Y-97676143D01*
X173698667Y-97723762D01*
X173603429Y-97771381D01*
X173317714Y-97771381D01*
X173222476Y-97723762D01*
X173174857Y-97676143D01*
X172059143Y-100401381D02*
X171725809Y-99925190D01*
X171487714Y-100401381D02*
X171487714Y-99401381D01*
X171868667Y-99401381D01*
X171963905Y-99449000D01*
X172011524Y-99496619D01*
X172059143Y-99591857D01*
X172059143Y-99734714D01*
X172011524Y-99829952D01*
X171963905Y-99877571D01*
X171868667Y-99925190D01*
X171487714Y-99925190D01*
X173011524Y-100401381D02*
X172440095Y-100401381D01*
X172725809Y-100401381D02*
X172725809Y-99401381D01*
X172630571Y-99544238D01*
X172535333Y-99639476D01*
X172440095Y-99687095D01*
X173868667Y-99734714D02*
X173868667Y-100401381D01*
X173630571Y-99353762D02*
X173392476Y-100068048D01*
X174011524Y-100068048D01*
X171889143Y-102771381D02*
X171555809Y-102295190D01*
X171317714Y-102771381D02*
X171317714Y-101771381D01*
X171698667Y-101771381D01*
X171793905Y-101819000D01*
X171841524Y-101866619D01*
X171889143Y-101961857D01*
X171889143Y-102104714D01*
X171841524Y-102199952D01*
X171793905Y-102247571D01*
X171698667Y-102295190D01*
X171317714Y-102295190D01*
X172841524Y-102771381D02*
X172270095Y-102771381D01*
X172555809Y-102771381D02*
X172555809Y-101771381D01*
X172460571Y-101914238D01*
X172365333Y-102009476D01*
X172270095Y-102057095D01*
X173746286Y-101771381D02*
X173270095Y-101771381D01*
X173222476Y-102247571D01*
X173270095Y-102199952D01*
X173365333Y-102152333D01*
X173603429Y-102152333D01*
X173698667Y-102199952D01*
X173746286Y-102247571D01*
X173793905Y-102342810D01*
X173793905Y-102580905D01*
X173746286Y-102676143D01*
X173698667Y-102723762D01*
X173603429Y-102771381D01*
X173365333Y-102771381D01*
X173270095Y-102723762D01*
X173222476Y-102676143D01*
X171899143Y-105141381D02*
X171565809Y-104665190D01*
X171327714Y-105141381D02*
X171327714Y-104141381D01*
X171708667Y-104141381D01*
X171803905Y-104189000D01*
X171851524Y-104236619D01*
X171899143Y-104331857D01*
X171899143Y-104474714D01*
X171851524Y-104569952D01*
X171803905Y-104617571D01*
X171708667Y-104665190D01*
X171327714Y-104665190D01*
X172851524Y-105141381D02*
X172280095Y-105141381D01*
X172565809Y-105141381D02*
X172565809Y-104141381D01*
X172470571Y-104284238D01*
X172375333Y-104379476D01*
X172280095Y-104427095D01*
X173708667Y-104141381D02*
X173518190Y-104141381D01*
X173422952Y-104189000D01*
X173375333Y-104236619D01*
X173280095Y-104379476D01*
X173232476Y-104569952D01*
X173232476Y-104950905D01*
X173280095Y-105046143D01*
X173327714Y-105093762D01*
X173422952Y-105141381D01*
X173613429Y-105141381D01*
X173708667Y-105093762D01*
X173756286Y-105046143D01*
X173803905Y-104950905D01*
X173803905Y-104712810D01*
X173756286Y-104617571D01*
X173708667Y-104569952D01*
X173613429Y-104522333D01*
X173422952Y-104522333D01*
X173327714Y-104569952D01*
X173280095Y-104617571D01*
X173232476Y-104712810D01*
X172229143Y-108021381D02*
X171895809Y-107545190D01*
X171657714Y-108021381D02*
X171657714Y-107021381D01*
X172038667Y-107021381D01*
X172133905Y-107069000D01*
X172181524Y-107116619D01*
X172229143Y-107211857D01*
X172229143Y-107354714D01*
X172181524Y-107449952D01*
X172133905Y-107497571D01*
X172038667Y-107545190D01*
X171657714Y-107545190D01*
X173181524Y-108021381D02*
X172610095Y-108021381D01*
X172895809Y-108021381D02*
X172895809Y-107021381D01*
X172800571Y-107164238D01*
X172705333Y-107259476D01*
X172610095Y-107307095D01*
X173514857Y-107021381D02*
X174181524Y-107021381D01*
X173752952Y-108021381D01*
D16*
X147182744Y-93453139D02*
X148512079Y-93453139D01*
X148668471Y-93374943D01*
X148746668Y-93296747D01*
X148824864Y-93140354D01*
X148824864Y-92827570D01*
X148746668Y-92671177D01*
X148668471Y-92592981D01*
X148512079Y-92514785D01*
X147182744Y-92514785D01*
X148824864Y-90872665D02*
X148824864Y-91811019D01*
X148824864Y-91341842D02*
X147182744Y-91341842D01*
X147417332Y-91498234D01*
X147573725Y-91654627D01*
X147651921Y-91811019D01*
X139680932Y-97989047D02*
X138038662Y-97989047D01*
X138038662Y-97363421D01*
X138116865Y-97207014D01*
X138195068Y-97128811D01*
X138351475Y-97050607D01*
X138586085Y-97050607D01*
X138742492Y-97128811D01*
X138820695Y-97207014D01*
X138898898Y-97363421D01*
X138898898Y-97989047D01*
X139524525Y-95408337D02*
X139602728Y-95486541D01*
X139680932Y-95721151D01*
X139680932Y-95877557D01*
X139602728Y-96112167D01*
X139446322Y-96268574D01*
X139289915Y-96346777D01*
X138977102Y-96424981D01*
X138742492Y-96424981D01*
X138429678Y-96346777D01*
X138273272Y-96268574D01*
X138116865Y-96112167D01*
X138038662Y-95877557D01*
X138038662Y-95721151D01*
X138116865Y-95486541D01*
X138195068Y-95408337D01*
X139211712Y-94782711D02*
X139211712Y-94000677D01*
X139680932Y-94939117D02*
X138038662Y-94391694D01*
X139680932Y-93844271D01*
X138038662Y-92593017D02*
X138038662Y-92905831D01*
X138116865Y-93062237D01*
X138195068Y-93140441D01*
X138429678Y-93296847D01*
X138742492Y-93375051D01*
X139368118Y-93375051D01*
X139524525Y-93296847D01*
X139602728Y-93218644D01*
X139680932Y-93062237D01*
X139680932Y-92749424D01*
X139602728Y-92593017D01*
X139524525Y-92514814D01*
X139368118Y-92436611D01*
X138977102Y-92436611D01*
X138820695Y-92514814D01*
X138742492Y-92593017D01*
X138664288Y-92749424D01*
X138664288Y-93062237D01*
X138742492Y-93218644D01*
X138820695Y-93296847D01*
X138977102Y-93375051D01*
X138586085Y-91028950D02*
X139680932Y-91028950D01*
X137960458Y-91419967D02*
X139133508Y-91810984D01*
X139133508Y-90794340D01*
X138038662Y-89855900D02*
X138038662Y-89699493D01*
X138116865Y-89543087D01*
X138195068Y-89464883D01*
X138351475Y-89386680D01*
X138664288Y-89308477D01*
X139055305Y-89308477D01*
X139368118Y-89386680D01*
X139524525Y-89464883D01*
X139602728Y-89543087D01*
X139680932Y-89699493D01*
X139680932Y-89855900D01*
X139602728Y-90012307D01*
X139524525Y-90090510D01*
X139368118Y-90168713D01*
X139055305Y-90246917D01*
X138664288Y-90246917D01*
X138351475Y-90168713D01*
X138195068Y-90090510D01*
X138116865Y-90012307D01*
X138038662Y-89855900D01*
X138742492Y-88370036D02*
X138664288Y-88526443D01*
X138586085Y-88604646D01*
X138429678Y-88682850D01*
X138351475Y-88682850D01*
X138195068Y-88604646D01*
X138116865Y-88526443D01*
X138038662Y-88370036D01*
X138038662Y-88057223D01*
X138116865Y-87900816D01*
X138195068Y-87822613D01*
X138351475Y-87744410D01*
X138429678Y-87744410D01*
X138586085Y-87822613D01*
X138664288Y-87900816D01*
X138742492Y-88057223D01*
X138742492Y-88370036D01*
X138820695Y-88526443D01*
X138898898Y-88604646D01*
X139055305Y-88682850D01*
X139368118Y-88682850D01*
X139524525Y-88604646D01*
X139602728Y-88526443D01*
X139680932Y-88370036D01*
X139680932Y-88057223D01*
X139602728Y-87900816D01*
X139524525Y-87822613D01*
X139368118Y-87744410D01*
X139055305Y-87744410D01*
X138898898Y-87822613D01*
X138820695Y-87900816D01*
X138742492Y-88057223D01*
X139211712Y-87118783D02*
X139211712Y-86336749D01*
X139680932Y-87275189D02*
X138038662Y-86727766D01*
X139680932Y-86180343D01*
X147309744Y-111233139D02*
X148639079Y-111233139D01*
X148795471Y-111154943D01*
X148873668Y-111076747D01*
X148951864Y-110920354D01*
X148951864Y-110607570D01*
X148873668Y-110451177D01*
X148795471Y-110372981D01*
X148639079Y-110294785D01*
X147309744Y-110294785D01*
X147466136Y-109591019D02*
X147387940Y-109512823D01*
X147309744Y-109356431D01*
X147309744Y-108965450D01*
X147387940Y-108809057D01*
X147466136Y-108730861D01*
X147622529Y-108652665D01*
X147778921Y-108652665D01*
X148013510Y-108730861D01*
X148951864Y-109669215D01*
X148951864Y-108652665D01*
X139807932Y-115769047D02*
X138165662Y-115769047D01*
X138165662Y-115143421D01*
X138243865Y-114987014D01*
X138322068Y-114908811D01*
X138478475Y-114830607D01*
X138713085Y-114830607D01*
X138869492Y-114908811D01*
X138947695Y-114987014D01*
X139025898Y-115143421D01*
X139025898Y-115769047D01*
X139651525Y-113188337D02*
X139729728Y-113266541D01*
X139807932Y-113501151D01*
X139807932Y-113657557D01*
X139729728Y-113892167D01*
X139573322Y-114048574D01*
X139416915Y-114126777D01*
X139104102Y-114204981D01*
X138869492Y-114204981D01*
X138556678Y-114126777D01*
X138400272Y-114048574D01*
X138243865Y-113892167D01*
X138165662Y-113657557D01*
X138165662Y-113501151D01*
X138243865Y-113266541D01*
X138322068Y-113188337D01*
X139338712Y-112562711D02*
X139338712Y-111780677D01*
X139807932Y-112719117D02*
X138165662Y-112171694D01*
X139807932Y-111624271D01*
X138165662Y-110373017D02*
X138165662Y-110685831D01*
X138243865Y-110842237D01*
X138322068Y-110920441D01*
X138556678Y-111076847D01*
X138869492Y-111155051D01*
X139495118Y-111155051D01*
X139651525Y-111076847D01*
X139729728Y-110998644D01*
X139807932Y-110842237D01*
X139807932Y-110529424D01*
X139729728Y-110373017D01*
X139651525Y-110294814D01*
X139495118Y-110216611D01*
X139104102Y-110216611D01*
X138947695Y-110294814D01*
X138869492Y-110373017D01*
X138791288Y-110529424D01*
X138791288Y-110842237D01*
X138869492Y-110998644D01*
X138947695Y-111076847D01*
X139104102Y-111155051D01*
X138713085Y-108808950D02*
X139807932Y-108808950D01*
X138087458Y-109199967D02*
X139260508Y-109590984D01*
X139260508Y-108574340D01*
X138165662Y-107635900D02*
X138165662Y-107479493D01*
X138243865Y-107323087D01*
X138322068Y-107244883D01*
X138478475Y-107166680D01*
X138791288Y-107088477D01*
X139182305Y-107088477D01*
X139495118Y-107166680D01*
X139651525Y-107244883D01*
X139729728Y-107323087D01*
X139807932Y-107479493D01*
X139807932Y-107635900D01*
X139729728Y-107792307D01*
X139651525Y-107870510D01*
X139495118Y-107948713D01*
X139182305Y-108026917D01*
X138791288Y-108026917D01*
X138478475Y-107948713D01*
X138322068Y-107870510D01*
X138243865Y-107792307D01*
X138165662Y-107635900D01*
X138869492Y-106150036D02*
X138791288Y-106306443D01*
X138713085Y-106384646D01*
X138556678Y-106462850D01*
X138478475Y-106462850D01*
X138322068Y-106384646D01*
X138243865Y-106306443D01*
X138165662Y-106150036D01*
X138165662Y-105837223D01*
X138243865Y-105680816D01*
X138322068Y-105602613D01*
X138478475Y-105524410D01*
X138556678Y-105524410D01*
X138713085Y-105602613D01*
X138791288Y-105680816D01*
X138869492Y-105837223D01*
X138869492Y-106150036D01*
X138947695Y-106306443D01*
X139025898Y-106384646D01*
X139182305Y-106462850D01*
X139495118Y-106462850D01*
X139651525Y-106384646D01*
X139729728Y-106306443D01*
X139807932Y-106150036D01*
X139807932Y-105837223D01*
X139729728Y-105680816D01*
X139651525Y-105602613D01*
X139495118Y-105524410D01*
X139182305Y-105524410D01*
X139025898Y-105602613D01*
X138947695Y-105680816D01*
X138869492Y-105837223D01*
X139338712Y-104898783D02*
X139338712Y-104116749D01*
X139807932Y-105055189D02*
X138165662Y-104507766D01*
X139807932Y-103960343D01*
D13*
X128560534Y-113590343D02*
X128512915Y-113637962D01*
X128370058Y-113685581D01*
X128274820Y-113685581D01*
X128131962Y-113637962D01*
X128036724Y-113542724D01*
X127989105Y-113447486D01*
X127941486Y-113257010D01*
X127941486Y-113114152D01*
X127989105Y-112923676D01*
X128036724Y-112828438D01*
X128131962Y-112733200D01*
X128274820Y-112685581D01*
X128370058Y-112685581D01*
X128512915Y-112733200D01*
X128560534Y-112780819D01*
X129465296Y-112685581D02*
X128989105Y-112685581D01*
X128941486Y-113161771D01*
X128989105Y-113114152D01*
X129084343Y-113066533D01*
X129322439Y-113066533D01*
X129417677Y-113114152D01*
X129465296Y-113161771D01*
X129512915Y-113257010D01*
X129512915Y-113495105D01*
X129465296Y-113590343D01*
X129417677Y-113637962D01*
X129322439Y-113685581D01*
X129084343Y-113685581D01*
X128989105Y-113637962D01*
X128941486Y-113590343D01*
X128484334Y-115990643D02*
X128436715Y-116038262D01*
X128293858Y-116085881D01*
X128198620Y-116085881D01*
X128055762Y-116038262D01*
X127960524Y-115943024D01*
X127912905Y-115847786D01*
X127865286Y-115657310D01*
X127865286Y-115514452D01*
X127912905Y-115323976D01*
X127960524Y-115228738D01*
X128055762Y-115133500D01*
X128198620Y-115085881D01*
X128293858Y-115085881D01*
X128436715Y-115133500D01*
X128484334Y-115181119D01*
X129341477Y-115085881D02*
X129151000Y-115085881D01*
X129055762Y-115133500D01*
X129008143Y-115181119D01*
X128912905Y-115323976D01*
X128865286Y-115514452D01*
X128865286Y-115895405D01*
X128912905Y-115990643D01*
X128960524Y-116038262D01*
X129055762Y-116085881D01*
X129246239Y-116085881D01*
X129341477Y-116038262D01*
X129389096Y-115990643D01*
X129436715Y-115895405D01*
X129436715Y-115657310D01*
X129389096Y-115562071D01*
X129341477Y-115514452D01*
X129246239Y-115466833D01*
X129055762Y-115466833D01*
X128960524Y-115514452D01*
X128912905Y-115562071D01*
X128865286Y-115657310D01*
X137834643Y-96051666D02*
X137882262Y-96099285D01*
X137929881Y-96242142D01*
X137929881Y-96337380D01*
X137882262Y-96480238D01*
X137787024Y-96575476D01*
X137691786Y-96623095D01*
X137501310Y-96670714D01*
X137358452Y-96670714D01*
X137167976Y-96623095D01*
X137072738Y-96575476D01*
X136977500Y-96480238D01*
X136929881Y-96337380D01*
X136929881Y-96242142D01*
X136977500Y-96099285D01*
X137025119Y-96051666D01*
X136929881Y-95718333D02*
X136929881Y-95051666D01*
X137929881Y-95480238D01*
X136600143Y-92368666D02*
X136647762Y-92416285D01*
X136695381Y-92559142D01*
X136695381Y-92654380D01*
X136647762Y-92797238D01*
X136552524Y-92892476D01*
X136457286Y-92940095D01*
X136266810Y-92987714D01*
X136123952Y-92987714D01*
X135933476Y-92940095D01*
X135838238Y-92892476D01*
X135743000Y-92797238D01*
X135695381Y-92654380D01*
X135695381Y-92559142D01*
X135743000Y-92416285D01*
X135790619Y-92368666D01*
X136123952Y-91797238D02*
X136076333Y-91892476D01*
X136028714Y-91940095D01*
X135933476Y-91987714D01*
X135885857Y-91987714D01*
X135790619Y-91940095D01*
X135743000Y-91892476D01*
X135695381Y-91797238D01*
X135695381Y-91606761D01*
X135743000Y-91511523D01*
X135790619Y-91463904D01*
X135885857Y-91416285D01*
X135933476Y-91416285D01*
X136028714Y-91463904D01*
X136076333Y-91511523D01*
X136123952Y-91606761D01*
X136123952Y-91797238D01*
X136171571Y-91892476D01*
X136219190Y-91940095D01*
X136314429Y-91987714D01*
X136504905Y-91987714D01*
X136600143Y-91940095D01*
X136647762Y-91892476D01*
X136695381Y-91797238D01*
X136695381Y-91606761D01*
X136647762Y-91511523D01*
X136600143Y-91463904D01*
X136504905Y-91416285D01*
X136314429Y-91416285D01*
X136219190Y-91463904D01*
X136171571Y-91511523D01*
X136123952Y-91606761D01*
M02*
