G04 #@! TF.FileFunction,Copper,L2,Bot,Signal*
%FSLAX46Y46*%
G04 Gerber Fmt 4.6, Leading zero omitted, Abs format (unit mm)*
G04 Created by KiCad (PCBNEW 4.0.5+dfsg1-4~bpo8+1) date Tue Dec  5 21:37:09 2017*
%MOMM*%
%LPD*%
G01*
G04 APERTURE LIST*
%ADD10C,0.100000*%
%ADD11R,2.032000X2.032000*%
%ADD12O,2.032000X2.032000*%
%ADD13R,2.032000X1.727200*%
%ADD14O,2.032000X1.727200*%
%ADD15R,2.540000X2.540000*%
%ADD16C,2.540000*%
%ADD17C,1.600000*%
%ADD18C,1.000000*%
%ADD19C,0.500000*%
%ADD20C,0.254000*%
G04 APERTURE END LIST*
D10*
D11*
X123190000Y-81280000D03*
D12*
X123190000Y-78740000D03*
D13*
X123825000Y-108585000D03*
D14*
X123825000Y-111125000D03*
X123825000Y-113665000D03*
X123825000Y-116205000D03*
D15*
X125095000Y-91440000D03*
D16*
X121295000Y-91440000D03*
D15*
X153035000Y-80645000D03*
D16*
X153035000Y-76845000D03*
D15*
X155575000Y-98425000D03*
D16*
X159375000Y-98425000D03*
D15*
X129540000Y-108585000D03*
D16*
X133340000Y-108585000D03*
D17*
X143002000Y-72390000D03*
X142875000Y-77470000D03*
X148590000Y-102235000D03*
X124460000Y-121920000D03*
X160274000Y-110998000D03*
X124968000Y-119634000D03*
D18*
X142875000Y-77470000D02*
X142875000Y-72517000D01*
D19*
X142875000Y-72517000D02*
X143002000Y-72390000D01*
D18*
X148590000Y-102235000D02*
X123825000Y-102235000D01*
X123190000Y-121920000D02*
X124460000Y-121920000D01*
X120650000Y-119380000D02*
X123190000Y-121920000D01*
X120650000Y-105410000D02*
X120650000Y-119380000D01*
X123825000Y-102235000D02*
X120650000Y-105410000D01*
D19*
X124968000Y-119634000D02*
X126492000Y-121158000D01*
X160274000Y-123952000D02*
X160274000Y-110998000D01*
X159004000Y-125222000D02*
X160274000Y-123952000D01*
X128270000Y-125222000D02*
X159004000Y-125222000D01*
X126492000Y-123444000D02*
X128270000Y-125222000D01*
X126492000Y-121158000D02*
X126492000Y-123444000D01*
D20*
G36*
X165608000Y-127508000D02*
X117602000Y-127508000D01*
X117602000Y-105410000D01*
X119023000Y-105410000D01*
X119023000Y-119380000D01*
X119146848Y-120002626D01*
X119499537Y-120530463D01*
X122039535Y-123070460D01*
X122039537Y-123070463D01*
X122567374Y-123423152D01*
X123190000Y-123547000D01*
X123361349Y-123547000D01*
X123367017Y-123552678D01*
X124075014Y-123846665D01*
X124841622Y-123847334D01*
X125168373Y-123712323D01*
X125219818Y-123970955D01*
X125518314Y-124417686D01*
X127296314Y-126195686D01*
X127743045Y-126494182D01*
X128270000Y-126599000D01*
X159004000Y-126599000D01*
X159530955Y-126494182D01*
X159977686Y-126195686D01*
X161247686Y-124925686D01*
X161546182Y-124478955D01*
X161651000Y-123952000D01*
X161651000Y-112346216D01*
X161906678Y-112090983D01*
X162200665Y-111382986D01*
X162201334Y-110616378D01*
X161908584Y-109907868D01*
X161366983Y-109365322D01*
X160658986Y-109071335D01*
X159892378Y-109070666D01*
X159183868Y-109363416D01*
X158641322Y-109905017D01*
X158347335Y-110613014D01*
X158346666Y-111379622D01*
X158639416Y-112088132D01*
X158897000Y-112346165D01*
X158897000Y-123381628D01*
X158433628Y-123845000D01*
X128840372Y-123845000D01*
X127869000Y-122873628D01*
X127869000Y-121158000D01*
X127764182Y-120631045D01*
X127465686Y-120184314D01*
X126895019Y-119613647D01*
X126895334Y-119252378D01*
X126602584Y-118543868D01*
X126060983Y-118001322D01*
X125352986Y-117707335D01*
X125285209Y-117707276D01*
X125426951Y-117612567D01*
X125858459Y-116966770D01*
X126009984Y-116205000D01*
X125858459Y-115443230D01*
X125518870Y-114935000D01*
X125858459Y-114426770D01*
X126009984Y-113665000D01*
X125858459Y-112903230D01*
X125771849Y-112773609D01*
X126171811Y-112279787D01*
X126332536Y-111935199D01*
X126016022Y-111556800D01*
X124333000Y-111556800D01*
X124333000Y-111736782D01*
X124019384Y-111674400D01*
X123630616Y-111674400D01*
X123317000Y-111736782D01*
X123317000Y-111556800D01*
X122809000Y-111556800D01*
X122809000Y-110693200D01*
X123317000Y-110693200D01*
X123317000Y-110597679D01*
X124333000Y-110597679D01*
X124333000Y-110693200D01*
X126016022Y-110693200D01*
X126332536Y-110314801D01*
X126171811Y-109970213D01*
X125941927Y-109686382D01*
X125990079Y-109448600D01*
X125990079Y-107721400D01*
X125913610Y-107315000D01*
X127120921Y-107315000D01*
X127120921Y-109855000D01*
X127199506Y-110272641D01*
X127446331Y-110656219D01*
X127822944Y-110913548D01*
X128270000Y-111004079D01*
X130810000Y-111004079D01*
X131227641Y-110925494D01*
X131397482Y-110816205D01*
X132047221Y-111465944D01*
X132209850Y-111303315D01*
X133284037Y-111538226D01*
X134418447Y-111334841D01*
X134521854Y-111292008D01*
X134635123Y-110778148D01*
X133340000Y-109483026D01*
X132980790Y-109842236D01*
X132082764Y-108944210D01*
X132441974Y-108585000D01*
X134238026Y-108585000D01*
X135533148Y-109880123D01*
X136047008Y-109766854D01*
X136293226Y-108640963D01*
X136089841Y-107506553D01*
X136047008Y-107403146D01*
X135533148Y-107289877D01*
X134238026Y-108585000D01*
X132441974Y-108585000D01*
X132082764Y-108225790D01*
X132980790Y-107327764D01*
X133340000Y-107686974D01*
X134635123Y-106391852D01*
X134521854Y-105877992D01*
X133395963Y-105631774D01*
X132261553Y-105835159D01*
X132202701Y-105859536D01*
X132047221Y-105704056D01*
X131398310Y-106352967D01*
X131257056Y-106256452D01*
X130810000Y-106165921D01*
X128270000Y-106165921D01*
X127852359Y-106244506D01*
X127468781Y-106491331D01*
X127211452Y-106867944D01*
X127120921Y-107315000D01*
X125913610Y-107315000D01*
X125911494Y-107303759D01*
X125664669Y-106920181D01*
X125288056Y-106662852D01*
X124841000Y-106572321D01*
X122809000Y-106572321D01*
X122391359Y-106650906D01*
X122277000Y-106724494D01*
X122277000Y-106083926D01*
X124498926Y-103862000D01*
X147491349Y-103862000D01*
X147497017Y-103867678D01*
X148205014Y-104161665D01*
X148971622Y-104162334D01*
X149680132Y-103869584D01*
X150222678Y-103327983D01*
X150516665Y-102619986D01*
X150517334Y-101853378D01*
X150224584Y-101144868D01*
X149682983Y-100602322D01*
X148974986Y-100308335D01*
X148208378Y-100307666D01*
X147499868Y-100600416D01*
X147492271Y-100608000D01*
X123825000Y-100608000D01*
X123202374Y-100731848D01*
X122674537Y-101084537D01*
X119499537Y-104259537D01*
X119146848Y-104787374D01*
X119023000Y-105410000D01*
X117602000Y-105410000D01*
X117602000Y-97155000D01*
X153155921Y-97155000D01*
X153155921Y-99695000D01*
X153234506Y-100112641D01*
X153481331Y-100496219D01*
X153857944Y-100753548D01*
X154305000Y-100844079D01*
X156845000Y-100844079D01*
X157262641Y-100765494D01*
X157432482Y-100656205D01*
X158082221Y-101305944D01*
X158244850Y-101143315D01*
X159319037Y-101378226D01*
X160453447Y-101174841D01*
X160556854Y-101132008D01*
X160670123Y-100618148D01*
X159375000Y-99323026D01*
X159015790Y-99682236D01*
X158117764Y-98784210D01*
X158476974Y-98425000D01*
X160273026Y-98425000D01*
X161568148Y-99720123D01*
X162082008Y-99606854D01*
X162328226Y-98480963D01*
X162124841Y-97346553D01*
X162082008Y-97243146D01*
X161568148Y-97129877D01*
X160273026Y-98425000D01*
X158476974Y-98425000D01*
X158117764Y-98065790D01*
X159015790Y-97167764D01*
X159375000Y-97526974D01*
X160670123Y-96231852D01*
X160556854Y-95717992D01*
X159430963Y-95471774D01*
X158296553Y-95675159D01*
X158237701Y-95699536D01*
X158082221Y-95544056D01*
X157433310Y-96192967D01*
X157292056Y-96096452D01*
X156845000Y-96005921D01*
X154305000Y-96005921D01*
X153887359Y-96084506D01*
X153503781Y-96331331D01*
X153246452Y-96707944D01*
X153155921Y-97155000D01*
X117602000Y-97155000D01*
X117602000Y-91384037D01*
X118341774Y-91384037D01*
X118545159Y-92518447D01*
X118587992Y-92621854D01*
X119101852Y-92735123D01*
X120396974Y-91440000D01*
X119101852Y-90144877D01*
X118587992Y-90258146D01*
X118341774Y-91384037D01*
X117602000Y-91384037D01*
X117602000Y-89246852D01*
X119999877Y-89246852D01*
X121295000Y-90541974D01*
X121654210Y-90182764D01*
X122552236Y-91080790D01*
X122193026Y-91440000D01*
X122552236Y-91799210D01*
X121654210Y-92697236D01*
X121295000Y-92338026D01*
X119999877Y-93633148D01*
X120113146Y-94147008D01*
X121239037Y-94393226D01*
X122373447Y-94189841D01*
X122432299Y-94165464D01*
X122587779Y-94320944D01*
X123236690Y-93672033D01*
X123377944Y-93768548D01*
X123825000Y-93859079D01*
X126365000Y-93859079D01*
X126782641Y-93780494D01*
X127166219Y-93533669D01*
X127423548Y-93157056D01*
X127514079Y-92710000D01*
X127514079Y-90170000D01*
X127435494Y-89752359D01*
X127188669Y-89368781D01*
X126812056Y-89111452D01*
X126365000Y-89020921D01*
X123825000Y-89020921D01*
X123407359Y-89099506D01*
X123237518Y-89208795D01*
X122587779Y-88559056D01*
X122425150Y-88721685D01*
X121350963Y-88486774D01*
X120216553Y-88690159D01*
X120113146Y-88732992D01*
X119999877Y-89246852D01*
X117602000Y-89246852D01*
X117602000Y-79647493D01*
X120707682Y-79647493D01*
X120793024Y-79853583D01*
X121039701Y-80191013D01*
X121024921Y-80264000D01*
X121024921Y-82296000D01*
X121103506Y-82713641D01*
X121350331Y-83097219D01*
X121726944Y-83354548D01*
X122174000Y-83445079D01*
X124206000Y-83445079D01*
X124623641Y-83366494D01*
X125007219Y-83119669D01*
X125264548Y-82743056D01*
X125355079Y-82296000D01*
X125355079Y-80264000D01*
X125341131Y-80189874D01*
X125586976Y-79853583D01*
X125672318Y-79647493D01*
X125367786Y-79248000D01*
X124715327Y-79248000D01*
X124653056Y-79205452D01*
X124206000Y-79114921D01*
X122174000Y-79114921D01*
X121756359Y-79193506D01*
X121671673Y-79248000D01*
X121012214Y-79248000D01*
X120707682Y-79647493D01*
X117602000Y-79647493D01*
X117602000Y-77832507D01*
X120707682Y-77832507D01*
X121012214Y-78232000D01*
X122682000Y-78232000D01*
X122682000Y-76553008D01*
X123698000Y-76553008D01*
X123698000Y-78232000D01*
X125367786Y-78232000D01*
X125672318Y-77832507D01*
X125586976Y-77626417D01*
X124978367Y-76793901D01*
X124970378Y-76789037D01*
X150081774Y-76789037D01*
X150285159Y-77923447D01*
X150309536Y-77982299D01*
X150154056Y-78137779D01*
X150802967Y-78786690D01*
X150706452Y-78927944D01*
X150615921Y-79375000D01*
X150615921Y-81915000D01*
X150694506Y-82332641D01*
X150941331Y-82716219D01*
X151317944Y-82973548D01*
X151765000Y-83064079D01*
X154305000Y-83064079D01*
X154722641Y-82985494D01*
X155106219Y-82738669D01*
X155363548Y-82362056D01*
X155454079Y-81915000D01*
X155454079Y-79375000D01*
X155375494Y-78957359D01*
X155266205Y-78787518D01*
X155915944Y-78137779D01*
X155753315Y-77975150D01*
X155988226Y-76900963D01*
X155784841Y-75766553D01*
X155742008Y-75663146D01*
X155228148Y-75549877D01*
X153933026Y-76845000D01*
X154292236Y-77204210D01*
X153394210Y-78102236D01*
X153035000Y-77743026D01*
X152675790Y-78102236D01*
X151777764Y-77204210D01*
X152136974Y-76845000D01*
X150841852Y-75549877D01*
X150327992Y-75663146D01*
X150081774Y-76789037D01*
X124970378Y-76789037D01*
X124097496Y-76257660D01*
X123698000Y-76553008D01*
X122682000Y-76553008D01*
X122282504Y-76257660D01*
X121401633Y-76793901D01*
X120793024Y-77626417D01*
X120707682Y-77832507D01*
X117602000Y-77832507D01*
X117602000Y-74651852D01*
X151739877Y-74651852D01*
X153035000Y-75946974D01*
X154330123Y-74651852D01*
X154216854Y-74137992D01*
X153090963Y-73891774D01*
X151956553Y-74095159D01*
X151853146Y-74137992D01*
X151739877Y-74651852D01*
X117602000Y-74651852D01*
X117602000Y-70612000D01*
X165608000Y-70612000D01*
X165608000Y-127508000D01*
X165608000Y-127508000D01*
G37*
X165608000Y-127508000D02*
X117602000Y-127508000D01*
X117602000Y-105410000D01*
X119023000Y-105410000D01*
X119023000Y-119380000D01*
X119146848Y-120002626D01*
X119499537Y-120530463D01*
X122039535Y-123070460D01*
X122039537Y-123070463D01*
X122567374Y-123423152D01*
X123190000Y-123547000D01*
X123361349Y-123547000D01*
X123367017Y-123552678D01*
X124075014Y-123846665D01*
X124841622Y-123847334D01*
X125168373Y-123712323D01*
X125219818Y-123970955D01*
X125518314Y-124417686D01*
X127296314Y-126195686D01*
X127743045Y-126494182D01*
X128270000Y-126599000D01*
X159004000Y-126599000D01*
X159530955Y-126494182D01*
X159977686Y-126195686D01*
X161247686Y-124925686D01*
X161546182Y-124478955D01*
X161651000Y-123952000D01*
X161651000Y-112346216D01*
X161906678Y-112090983D01*
X162200665Y-111382986D01*
X162201334Y-110616378D01*
X161908584Y-109907868D01*
X161366983Y-109365322D01*
X160658986Y-109071335D01*
X159892378Y-109070666D01*
X159183868Y-109363416D01*
X158641322Y-109905017D01*
X158347335Y-110613014D01*
X158346666Y-111379622D01*
X158639416Y-112088132D01*
X158897000Y-112346165D01*
X158897000Y-123381628D01*
X158433628Y-123845000D01*
X128840372Y-123845000D01*
X127869000Y-122873628D01*
X127869000Y-121158000D01*
X127764182Y-120631045D01*
X127465686Y-120184314D01*
X126895019Y-119613647D01*
X126895334Y-119252378D01*
X126602584Y-118543868D01*
X126060983Y-118001322D01*
X125352986Y-117707335D01*
X125285209Y-117707276D01*
X125426951Y-117612567D01*
X125858459Y-116966770D01*
X126009984Y-116205000D01*
X125858459Y-115443230D01*
X125518870Y-114935000D01*
X125858459Y-114426770D01*
X126009984Y-113665000D01*
X125858459Y-112903230D01*
X125771849Y-112773609D01*
X126171811Y-112279787D01*
X126332536Y-111935199D01*
X126016022Y-111556800D01*
X124333000Y-111556800D01*
X124333000Y-111736782D01*
X124019384Y-111674400D01*
X123630616Y-111674400D01*
X123317000Y-111736782D01*
X123317000Y-111556800D01*
X122809000Y-111556800D01*
X122809000Y-110693200D01*
X123317000Y-110693200D01*
X123317000Y-110597679D01*
X124333000Y-110597679D01*
X124333000Y-110693200D01*
X126016022Y-110693200D01*
X126332536Y-110314801D01*
X126171811Y-109970213D01*
X125941927Y-109686382D01*
X125990079Y-109448600D01*
X125990079Y-107721400D01*
X125913610Y-107315000D01*
X127120921Y-107315000D01*
X127120921Y-109855000D01*
X127199506Y-110272641D01*
X127446331Y-110656219D01*
X127822944Y-110913548D01*
X128270000Y-111004079D01*
X130810000Y-111004079D01*
X131227641Y-110925494D01*
X131397482Y-110816205D01*
X132047221Y-111465944D01*
X132209850Y-111303315D01*
X133284037Y-111538226D01*
X134418447Y-111334841D01*
X134521854Y-111292008D01*
X134635123Y-110778148D01*
X133340000Y-109483026D01*
X132980790Y-109842236D01*
X132082764Y-108944210D01*
X132441974Y-108585000D01*
X134238026Y-108585000D01*
X135533148Y-109880123D01*
X136047008Y-109766854D01*
X136293226Y-108640963D01*
X136089841Y-107506553D01*
X136047008Y-107403146D01*
X135533148Y-107289877D01*
X134238026Y-108585000D01*
X132441974Y-108585000D01*
X132082764Y-108225790D01*
X132980790Y-107327764D01*
X133340000Y-107686974D01*
X134635123Y-106391852D01*
X134521854Y-105877992D01*
X133395963Y-105631774D01*
X132261553Y-105835159D01*
X132202701Y-105859536D01*
X132047221Y-105704056D01*
X131398310Y-106352967D01*
X131257056Y-106256452D01*
X130810000Y-106165921D01*
X128270000Y-106165921D01*
X127852359Y-106244506D01*
X127468781Y-106491331D01*
X127211452Y-106867944D01*
X127120921Y-107315000D01*
X125913610Y-107315000D01*
X125911494Y-107303759D01*
X125664669Y-106920181D01*
X125288056Y-106662852D01*
X124841000Y-106572321D01*
X122809000Y-106572321D01*
X122391359Y-106650906D01*
X122277000Y-106724494D01*
X122277000Y-106083926D01*
X124498926Y-103862000D01*
X147491349Y-103862000D01*
X147497017Y-103867678D01*
X148205014Y-104161665D01*
X148971622Y-104162334D01*
X149680132Y-103869584D01*
X150222678Y-103327983D01*
X150516665Y-102619986D01*
X150517334Y-101853378D01*
X150224584Y-101144868D01*
X149682983Y-100602322D01*
X148974986Y-100308335D01*
X148208378Y-100307666D01*
X147499868Y-100600416D01*
X147492271Y-100608000D01*
X123825000Y-100608000D01*
X123202374Y-100731848D01*
X122674537Y-101084537D01*
X119499537Y-104259537D01*
X119146848Y-104787374D01*
X119023000Y-105410000D01*
X117602000Y-105410000D01*
X117602000Y-97155000D01*
X153155921Y-97155000D01*
X153155921Y-99695000D01*
X153234506Y-100112641D01*
X153481331Y-100496219D01*
X153857944Y-100753548D01*
X154305000Y-100844079D01*
X156845000Y-100844079D01*
X157262641Y-100765494D01*
X157432482Y-100656205D01*
X158082221Y-101305944D01*
X158244850Y-101143315D01*
X159319037Y-101378226D01*
X160453447Y-101174841D01*
X160556854Y-101132008D01*
X160670123Y-100618148D01*
X159375000Y-99323026D01*
X159015790Y-99682236D01*
X158117764Y-98784210D01*
X158476974Y-98425000D01*
X160273026Y-98425000D01*
X161568148Y-99720123D01*
X162082008Y-99606854D01*
X162328226Y-98480963D01*
X162124841Y-97346553D01*
X162082008Y-97243146D01*
X161568148Y-97129877D01*
X160273026Y-98425000D01*
X158476974Y-98425000D01*
X158117764Y-98065790D01*
X159015790Y-97167764D01*
X159375000Y-97526974D01*
X160670123Y-96231852D01*
X160556854Y-95717992D01*
X159430963Y-95471774D01*
X158296553Y-95675159D01*
X158237701Y-95699536D01*
X158082221Y-95544056D01*
X157433310Y-96192967D01*
X157292056Y-96096452D01*
X156845000Y-96005921D01*
X154305000Y-96005921D01*
X153887359Y-96084506D01*
X153503781Y-96331331D01*
X153246452Y-96707944D01*
X153155921Y-97155000D01*
X117602000Y-97155000D01*
X117602000Y-91384037D01*
X118341774Y-91384037D01*
X118545159Y-92518447D01*
X118587992Y-92621854D01*
X119101852Y-92735123D01*
X120396974Y-91440000D01*
X119101852Y-90144877D01*
X118587992Y-90258146D01*
X118341774Y-91384037D01*
X117602000Y-91384037D01*
X117602000Y-89246852D01*
X119999877Y-89246852D01*
X121295000Y-90541974D01*
X121654210Y-90182764D01*
X122552236Y-91080790D01*
X122193026Y-91440000D01*
X122552236Y-91799210D01*
X121654210Y-92697236D01*
X121295000Y-92338026D01*
X119999877Y-93633148D01*
X120113146Y-94147008D01*
X121239037Y-94393226D01*
X122373447Y-94189841D01*
X122432299Y-94165464D01*
X122587779Y-94320944D01*
X123236690Y-93672033D01*
X123377944Y-93768548D01*
X123825000Y-93859079D01*
X126365000Y-93859079D01*
X126782641Y-93780494D01*
X127166219Y-93533669D01*
X127423548Y-93157056D01*
X127514079Y-92710000D01*
X127514079Y-90170000D01*
X127435494Y-89752359D01*
X127188669Y-89368781D01*
X126812056Y-89111452D01*
X126365000Y-89020921D01*
X123825000Y-89020921D01*
X123407359Y-89099506D01*
X123237518Y-89208795D01*
X122587779Y-88559056D01*
X122425150Y-88721685D01*
X121350963Y-88486774D01*
X120216553Y-88690159D01*
X120113146Y-88732992D01*
X119999877Y-89246852D01*
X117602000Y-89246852D01*
X117602000Y-79647493D01*
X120707682Y-79647493D01*
X120793024Y-79853583D01*
X121039701Y-80191013D01*
X121024921Y-80264000D01*
X121024921Y-82296000D01*
X121103506Y-82713641D01*
X121350331Y-83097219D01*
X121726944Y-83354548D01*
X122174000Y-83445079D01*
X124206000Y-83445079D01*
X124623641Y-83366494D01*
X125007219Y-83119669D01*
X125264548Y-82743056D01*
X125355079Y-82296000D01*
X125355079Y-80264000D01*
X125341131Y-80189874D01*
X125586976Y-79853583D01*
X125672318Y-79647493D01*
X125367786Y-79248000D01*
X124715327Y-79248000D01*
X124653056Y-79205452D01*
X124206000Y-79114921D01*
X122174000Y-79114921D01*
X121756359Y-79193506D01*
X121671673Y-79248000D01*
X121012214Y-79248000D01*
X120707682Y-79647493D01*
X117602000Y-79647493D01*
X117602000Y-77832507D01*
X120707682Y-77832507D01*
X121012214Y-78232000D01*
X122682000Y-78232000D01*
X122682000Y-76553008D01*
X123698000Y-76553008D01*
X123698000Y-78232000D01*
X125367786Y-78232000D01*
X125672318Y-77832507D01*
X125586976Y-77626417D01*
X124978367Y-76793901D01*
X124970378Y-76789037D01*
X150081774Y-76789037D01*
X150285159Y-77923447D01*
X150309536Y-77982299D01*
X150154056Y-78137779D01*
X150802967Y-78786690D01*
X150706452Y-78927944D01*
X150615921Y-79375000D01*
X150615921Y-81915000D01*
X150694506Y-82332641D01*
X150941331Y-82716219D01*
X151317944Y-82973548D01*
X151765000Y-83064079D01*
X154305000Y-83064079D01*
X154722641Y-82985494D01*
X155106219Y-82738669D01*
X155363548Y-82362056D01*
X155454079Y-81915000D01*
X155454079Y-79375000D01*
X155375494Y-78957359D01*
X155266205Y-78787518D01*
X155915944Y-78137779D01*
X155753315Y-77975150D01*
X155988226Y-76900963D01*
X155784841Y-75766553D01*
X155742008Y-75663146D01*
X155228148Y-75549877D01*
X153933026Y-76845000D01*
X154292236Y-77204210D01*
X153394210Y-78102236D01*
X153035000Y-77743026D01*
X152675790Y-78102236D01*
X151777764Y-77204210D01*
X152136974Y-76845000D01*
X150841852Y-75549877D01*
X150327992Y-75663146D01*
X150081774Y-76789037D01*
X124970378Y-76789037D01*
X124097496Y-76257660D01*
X123698000Y-76553008D01*
X122682000Y-76553008D01*
X122282504Y-76257660D01*
X121401633Y-76793901D01*
X120793024Y-77626417D01*
X120707682Y-77832507D01*
X117602000Y-77832507D01*
X117602000Y-74651852D01*
X151739877Y-74651852D01*
X153035000Y-75946974D01*
X154330123Y-74651852D01*
X154216854Y-74137992D01*
X153090963Y-73891774D01*
X151956553Y-74095159D01*
X151853146Y-74137992D01*
X151739877Y-74651852D01*
X117602000Y-74651852D01*
X117602000Y-70612000D01*
X165608000Y-70612000D01*
X165608000Y-127508000D01*
M02*
