G04 #@! TF.FileFunction,Legend,Top*
%FSLAX46Y46*%
G04 Gerber Fmt 4.6, Leading zero omitted, Abs format (unit mm)*
G04 Created by KiCad (PCBNEW 4.0.5+dfsg1-4~bpo8+1) date Tue Dec  5 21:37:09 2017*
%MOMM*%
%LPD*%
G01*
G04 APERTURE LIST*
%ADD10C,0.100000*%
%ADD11C,0.300000*%
%ADD12C,0.200000*%
%ADD13C,0.150000*%
%ADD14C,0.050000*%
%ADD15C,0.152400*%
%ADD16C,0.203200*%
G04 APERTURE END LIST*
D10*
D11*
X136676430Y-138823571D02*
X136676430Y-139823571D01*
X136319287Y-138252143D02*
X135962144Y-139323571D01*
X136890716Y-139323571D01*
X137676430Y-138966429D02*
X137533572Y-138895000D01*
X137462144Y-138823571D01*
X137390715Y-138680714D01*
X137390715Y-138609286D01*
X137462144Y-138466429D01*
X137533572Y-138395000D01*
X137676430Y-138323571D01*
X137962144Y-138323571D01*
X138105001Y-138395000D01*
X138176430Y-138466429D01*
X138247858Y-138609286D01*
X138247858Y-138680714D01*
X138176430Y-138823571D01*
X138105001Y-138895000D01*
X137962144Y-138966429D01*
X137676430Y-138966429D01*
X137533572Y-139037857D01*
X137462144Y-139109286D01*
X137390715Y-139252143D01*
X137390715Y-139537857D01*
X137462144Y-139680714D01*
X137533572Y-139752143D01*
X137676430Y-139823571D01*
X137962144Y-139823571D01*
X138105001Y-139752143D01*
X138176430Y-139680714D01*
X138247858Y-139537857D01*
X138247858Y-139252143D01*
X138176430Y-139109286D01*
X138105001Y-139037857D01*
X137962144Y-138966429D01*
X138962143Y-139752143D02*
X138962143Y-139823571D01*
X138890715Y-139966429D01*
X138819286Y-140037857D01*
X139533572Y-138466429D02*
X139605001Y-138395000D01*
X139747858Y-138323571D01*
X140105001Y-138323571D01*
X140247858Y-138395000D01*
X140319287Y-138466429D01*
X140390715Y-138609286D01*
X140390715Y-138752143D01*
X140319287Y-138966429D01*
X139462144Y-139823571D01*
X140390715Y-139823571D01*
X141676429Y-138323571D02*
X141390715Y-138323571D01*
X141247858Y-138395000D01*
X141176429Y-138466429D01*
X141033572Y-138680714D01*
X140962143Y-138966429D01*
X140962143Y-139537857D01*
X141033572Y-139680714D01*
X141105000Y-139752143D01*
X141247858Y-139823571D01*
X141533572Y-139823571D01*
X141676429Y-139752143D01*
X141747858Y-139680714D01*
X141819286Y-139537857D01*
X141819286Y-139180714D01*
X141747858Y-139037857D01*
X141676429Y-138966429D01*
X141533572Y-138895000D01*
X141247858Y-138895000D01*
X141105000Y-138966429D01*
X141033572Y-139037857D01*
X140962143Y-139180714D01*
X142747857Y-138323571D02*
X142890714Y-138323571D01*
X143033571Y-138395000D01*
X143105000Y-138466429D01*
X143176429Y-138609286D01*
X143247857Y-138895000D01*
X143247857Y-139252143D01*
X143176429Y-139537857D01*
X143105000Y-139680714D01*
X143033571Y-139752143D01*
X142890714Y-139823571D01*
X142747857Y-139823571D01*
X142605000Y-139752143D01*
X142533571Y-139680714D01*
X142462143Y-139537857D01*
X142390714Y-139252143D01*
X142390714Y-138895000D01*
X142462143Y-138609286D01*
X142533571Y-138466429D01*
X142605000Y-138395000D01*
X142747857Y-138323571D01*
X143890714Y-139823571D02*
X143890714Y-138823571D01*
X143890714Y-138966429D02*
X143962142Y-138895000D01*
X144105000Y-138823571D01*
X144319285Y-138823571D01*
X144462142Y-138895000D01*
X144533571Y-139037857D01*
X144533571Y-139823571D01*
X144533571Y-139037857D02*
X144605000Y-138895000D01*
X144747857Y-138823571D01*
X144962142Y-138823571D01*
X145105000Y-138895000D01*
X145176428Y-139037857D01*
X145176428Y-139823571D01*
X145890714Y-139823571D02*
X145890714Y-138823571D01*
X145890714Y-138966429D02*
X145962142Y-138895000D01*
X146105000Y-138823571D01*
X146319285Y-138823571D01*
X146462142Y-138895000D01*
X146533571Y-139037857D01*
X146533571Y-139823571D01*
X146533571Y-139037857D02*
X146605000Y-138895000D01*
X146747857Y-138823571D01*
X146962142Y-138823571D01*
X147105000Y-138895000D01*
X147176428Y-139037857D01*
X147176428Y-139823571D01*
X117475000Y-137795000D02*
X165735000Y-137795000D01*
X117475000Y-133985000D02*
X117475000Y-140495000D01*
X165735000Y-133985000D02*
X165735000Y-140495000D01*
X165735000Y-137795000D02*
X164608496Y-138381421D01*
X165735000Y-137795000D02*
X164608496Y-137208579D01*
X117475000Y-137795000D02*
X118601504Y-138381421D01*
X117475000Y-137795000D02*
X118601504Y-137208579D01*
X178701429Y-94202859D02*
X178701429Y-93488573D01*
X177987143Y-93417144D01*
X178058571Y-93488573D01*
X178130000Y-93631430D01*
X178130000Y-93988573D01*
X178058571Y-94131430D01*
X177987143Y-94202859D01*
X177844286Y-94274287D01*
X177487143Y-94274287D01*
X177344286Y-94202859D01*
X177272857Y-94131430D01*
X177201429Y-93988573D01*
X177201429Y-93631430D01*
X177272857Y-93488573D01*
X177344286Y-93417144D01*
X178701429Y-94774287D02*
X178701429Y-95774287D01*
X177201429Y-95131430D01*
X177272857Y-96417143D02*
X177201429Y-96417143D01*
X177058571Y-96345715D01*
X176987143Y-96274286D01*
X177201429Y-97845715D02*
X177201429Y-96988572D01*
X177201429Y-97417144D02*
X178701429Y-97417144D01*
X178487143Y-97274287D01*
X178344286Y-97131429D01*
X178272857Y-96988572D01*
X178701429Y-99202858D02*
X178701429Y-98488572D01*
X177987143Y-98417143D01*
X178058571Y-98488572D01*
X178130000Y-98631429D01*
X178130000Y-98988572D01*
X178058571Y-99131429D01*
X177987143Y-99202858D01*
X177844286Y-99274286D01*
X177487143Y-99274286D01*
X177344286Y-99202858D01*
X177272857Y-99131429D01*
X177201429Y-98988572D01*
X177201429Y-98631429D01*
X177272857Y-98488572D01*
X177344286Y-98417143D01*
X178701429Y-100202857D02*
X178701429Y-100345714D01*
X178630000Y-100488571D01*
X178558571Y-100560000D01*
X178415714Y-100631429D01*
X178130000Y-100702857D01*
X177772857Y-100702857D01*
X177487143Y-100631429D01*
X177344286Y-100560000D01*
X177272857Y-100488571D01*
X177201429Y-100345714D01*
X177201429Y-100202857D01*
X177272857Y-100060000D01*
X177344286Y-99988571D01*
X177487143Y-99917143D01*
X177772857Y-99845714D01*
X178130000Y-99845714D01*
X178415714Y-99917143D01*
X178558571Y-99988571D01*
X178630000Y-100060000D01*
X178701429Y-100202857D01*
X177201429Y-101345714D02*
X178201429Y-101345714D01*
X178058571Y-101345714D02*
X178130000Y-101417142D01*
X178201429Y-101560000D01*
X178201429Y-101774285D01*
X178130000Y-101917142D01*
X177987143Y-101988571D01*
X177201429Y-101988571D01*
X177987143Y-101988571D02*
X178130000Y-102060000D01*
X178201429Y-102202857D01*
X178201429Y-102417142D01*
X178130000Y-102560000D01*
X177987143Y-102631428D01*
X177201429Y-102631428D01*
X177201429Y-103345714D02*
X178201429Y-103345714D01*
X178058571Y-103345714D02*
X178130000Y-103417142D01*
X178201429Y-103560000D01*
X178201429Y-103774285D01*
X178130000Y-103917142D01*
X177987143Y-103988571D01*
X177201429Y-103988571D01*
X177987143Y-103988571D02*
X178130000Y-104060000D01*
X178201429Y-104202857D01*
X178201429Y-104417142D01*
X178130000Y-104560000D01*
X177987143Y-104631428D01*
X177201429Y-104631428D01*
X176530000Y-70485000D02*
X176530000Y-127635000D01*
X172085000Y-70485000D02*
X179230000Y-70485000D01*
X172085000Y-127635000D02*
X179230000Y-127635000D01*
X176530000Y-127635000D02*
X175943579Y-126508496D01*
X176530000Y-127635000D02*
X177116421Y-126508496D01*
X176530000Y-70485000D02*
X175943579Y-71611504D01*
X176530000Y-70485000D02*
X177116421Y-71611504D01*
D12*
X116205000Y-129540000D02*
X116205000Y-66675000D01*
X167640000Y-129540000D02*
X116205000Y-129540000D01*
X167640000Y-66675000D02*
X167640000Y-129540000D01*
X116205000Y-66675000D02*
X167640000Y-66675000D01*
D13*
X121920000Y-80010000D02*
X121920000Y-77470000D01*
X121640000Y-82830000D02*
X121640000Y-81280000D01*
X121920000Y-80010000D02*
X124460000Y-80010000D01*
X124740000Y-81280000D02*
X124740000Y-82830000D01*
X124740000Y-82830000D02*
X121640000Y-82830000D01*
X124460000Y-80010000D02*
X124460000Y-77470000D01*
X124460000Y-77470000D02*
X121920000Y-77470000D01*
X122555000Y-109855000D02*
X122555000Y-117475000D01*
X125095000Y-109855000D02*
X125095000Y-117475000D01*
X125375000Y-107035000D02*
X125375000Y-108585000D01*
X122555000Y-117475000D02*
X125095000Y-117475000D01*
X125095000Y-109855000D02*
X122555000Y-109855000D01*
X122275000Y-108585000D02*
X122275000Y-107035000D01*
X122275000Y-107035000D02*
X125375000Y-107035000D01*
X130845000Y-82945000D02*
X132045000Y-82945000D01*
X132045000Y-84695000D02*
X130845000Y-84695000D01*
X131191000Y-90170000D02*
X135001000Y-90170000D01*
X131191000Y-98044000D02*
X135001000Y-98044000D01*
X135001000Y-98044000D02*
X135001000Y-89662000D01*
X135001000Y-89662000D02*
X131191000Y-89662000D01*
X131191000Y-89662000D02*
X131191000Y-98044000D01*
X123120000Y-95439000D02*
X123120000Y-87441000D01*
X122980000Y-95434000D02*
X122980000Y-87446000D01*
X122840000Y-95424000D02*
X122840000Y-87456000D01*
X122700000Y-95409000D02*
X122700000Y-87471000D01*
X122560000Y-95389000D02*
X122560000Y-87491000D01*
X122420000Y-95364000D02*
X122420000Y-87516000D01*
X122280000Y-95334000D02*
X122280000Y-91613000D01*
X122280000Y-91267000D02*
X122280000Y-87546000D01*
X122140000Y-95298000D02*
X122140000Y-91975000D01*
X122140000Y-90905000D02*
X122140000Y-87582000D01*
X122000000Y-95257000D02*
X122000000Y-92149000D01*
X122000000Y-90731000D02*
X122000000Y-87623000D01*
X121860000Y-95211000D02*
X121860000Y-92265000D01*
X121860000Y-90615000D02*
X121860000Y-87669000D01*
X121720000Y-95158000D02*
X121720000Y-92345000D01*
X121720000Y-90535000D02*
X121720000Y-87722000D01*
X121580000Y-95099000D02*
X121580000Y-92399000D01*
X121580000Y-90481000D02*
X121580000Y-87781000D01*
X121440000Y-95034000D02*
X121440000Y-92429000D01*
X121440000Y-90451000D02*
X121440000Y-87846000D01*
X121300000Y-94963000D02*
X121300000Y-92440000D01*
X121300000Y-90440000D02*
X121300000Y-87917000D01*
X121160000Y-94884000D02*
X121160000Y-92431000D01*
X121160000Y-90449000D02*
X121160000Y-87996000D01*
X121020000Y-94797000D02*
X121020000Y-92401000D01*
X121020000Y-90479000D02*
X121020000Y-88083000D01*
X120880000Y-94702000D02*
X120880000Y-92350000D01*
X120880000Y-90530000D02*
X120880000Y-88178000D01*
X120740000Y-94598000D02*
X120740000Y-92272000D01*
X120740000Y-90608000D02*
X120740000Y-88282000D01*
X120600000Y-94484000D02*
X120600000Y-92159000D01*
X120600000Y-90721000D02*
X120600000Y-88396000D01*
X120460000Y-94359000D02*
X120460000Y-91990000D01*
X120460000Y-90890000D02*
X120460000Y-88521000D01*
X120320000Y-94221000D02*
X120320000Y-91662000D01*
X120320000Y-91218000D02*
X120320000Y-88659000D01*
X120180000Y-94069000D02*
X120180000Y-88811000D01*
X120040000Y-93899000D02*
X120040000Y-88981000D01*
X119900000Y-93708000D02*
X119900000Y-89172000D01*
X119760000Y-93490000D02*
X119760000Y-89390000D01*
X119620000Y-93234000D02*
X119620000Y-89646000D01*
X119480000Y-92923000D02*
X119480000Y-89957000D01*
X119340000Y-92507000D02*
X119340000Y-90373000D01*
X119200000Y-91640000D02*
X119200000Y-91240000D01*
X122295000Y-91440000D02*
G75*
G03X122295000Y-91440000I-1000000J0D01*
G01*
X127232500Y-91440000D02*
G75*
G03X127232500Y-91440000I-4037500J0D01*
G01*
X123325000Y-99275000D02*
X124325000Y-99275000D01*
X124325000Y-97575000D02*
X123325000Y-97575000D01*
X144565000Y-78875000D02*
X144565000Y-79875000D01*
X146265000Y-79875000D02*
X146265000Y-78875000D01*
X149036000Y-78670000D02*
X157034000Y-78670000D01*
X149041000Y-78530000D02*
X157029000Y-78530000D01*
X149051000Y-78390000D02*
X157019000Y-78390000D01*
X149066000Y-78250000D02*
X157004000Y-78250000D01*
X149086000Y-78110000D02*
X156984000Y-78110000D01*
X149111000Y-77970000D02*
X156959000Y-77970000D01*
X149141000Y-77830000D02*
X152862000Y-77830000D01*
X153208000Y-77830000D02*
X156929000Y-77830000D01*
X149177000Y-77690000D02*
X152500000Y-77690000D01*
X153570000Y-77690000D02*
X156893000Y-77690000D01*
X149218000Y-77550000D02*
X152326000Y-77550000D01*
X153744000Y-77550000D02*
X156852000Y-77550000D01*
X149264000Y-77410000D02*
X152210000Y-77410000D01*
X153860000Y-77410000D02*
X156806000Y-77410000D01*
X149317000Y-77270000D02*
X152130000Y-77270000D01*
X153940000Y-77270000D02*
X156753000Y-77270000D01*
X149376000Y-77130000D02*
X152076000Y-77130000D01*
X153994000Y-77130000D02*
X156694000Y-77130000D01*
X149441000Y-76990000D02*
X152046000Y-76990000D01*
X154024000Y-76990000D02*
X156629000Y-76990000D01*
X149512000Y-76850000D02*
X152035000Y-76850000D01*
X154035000Y-76850000D02*
X156558000Y-76850000D01*
X149591000Y-76710000D02*
X152044000Y-76710000D01*
X154026000Y-76710000D02*
X156479000Y-76710000D01*
X149678000Y-76570000D02*
X152074000Y-76570000D01*
X153996000Y-76570000D02*
X156392000Y-76570000D01*
X149773000Y-76430000D02*
X152125000Y-76430000D01*
X153945000Y-76430000D02*
X156297000Y-76430000D01*
X149877000Y-76290000D02*
X152203000Y-76290000D01*
X153867000Y-76290000D02*
X156193000Y-76290000D01*
X149991000Y-76150000D02*
X152316000Y-76150000D01*
X153754000Y-76150000D02*
X156079000Y-76150000D01*
X150116000Y-76010000D02*
X152485000Y-76010000D01*
X153585000Y-76010000D02*
X155954000Y-76010000D01*
X150254000Y-75870000D02*
X152813000Y-75870000D01*
X153257000Y-75870000D02*
X155816000Y-75870000D01*
X150406000Y-75730000D02*
X155664000Y-75730000D01*
X150576000Y-75590000D02*
X155494000Y-75590000D01*
X150767000Y-75450000D02*
X155303000Y-75450000D01*
X150985000Y-75310000D02*
X155085000Y-75310000D01*
X151241000Y-75170000D02*
X154829000Y-75170000D01*
X151552000Y-75030000D02*
X154518000Y-75030000D01*
X151968000Y-74890000D02*
X154102000Y-74890000D01*
X152835000Y-74750000D02*
X153235000Y-74750000D01*
X154035000Y-76845000D02*
G75*
G03X154035000Y-76845000I-1000000J0D01*
G01*
X157072500Y-78745000D02*
G75*
G03X157072500Y-78745000I-4037500J0D01*
G01*
X157550000Y-94426000D02*
X157550000Y-102424000D01*
X157690000Y-94431000D02*
X157690000Y-102419000D01*
X157830000Y-94441000D02*
X157830000Y-102409000D01*
X157970000Y-94456000D02*
X157970000Y-102394000D01*
X158110000Y-94476000D02*
X158110000Y-102374000D01*
X158250000Y-94501000D02*
X158250000Y-102349000D01*
X158390000Y-94531000D02*
X158390000Y-98252000D01*
X158390000Y-98598000D02*
X158390000Y-102319000D01*
X158530000Y-94567000D02*
X158530000Y-97890000D01*
X158530000Y-98960000D02*
X158530000Y-102283000D01*
X158670000Y-94608000D02*
X158670000Y-97716000D01*
X158670000Y-99134000D02*
X158670000Y-102242000D01*
X158810000Y-94654000D02*
X158810000Y-97600000D01*
X158810000Y-99250000D02*
X158810000Y-102196000D01*
X158950000Y-94707000D02*
X158950000Y-97520000D01*
X158950000Y-99330000D02*
X158950000Y-102143000D01*
X159090000Y-94766000D02*
X159090000Y-97466000D01*
X159090000Y-99384000D02*
X159090000Y-102084000D01*
X159230000Y-94831000D02*
X159230000Y-97436000D01*
X159230000Y-99414000D02*
X159230000Y-102019000D01*
X159370000Y-94902000D02*
X159370000Y-97425000D01*
X159370000Y-99425000D02*
X159370000Y-101948000D01*
X159510000Y-94981000D02*
X159510000Y-97434000D01*
X159510000Y-99416000D02*
X159510000Y-101869000D01*
X159650000Y-95068000D02*
X159650000Y-97464000D01*
X159650000Y-99386000D02*
X159650000Y-101782000D01*
X159790000Y-95163000D02*
X159790000Y-97515000D01*
X159790000Y-99335000D02*
X159790000Y-101687000D01*
X159930000Y-95267000D02*
X159930000Y-97593000D01*
X159930000Y-99257000D02*
X159930000Y-101583000D01*
X160070000Y-95381000D02*
X160070000Y-97706000D01*
X160070000Y-99144000D02*
X160070000Y-101469000D01*
X160210000Y-95506000D02*
X160210000Y-97875000D01*
X160210000Y-98975000D02*
X160210000Y-101344000D01*
X160350000Y-95644000D02*
X160350000Y-98203000D01*
X160350000Y-98647000D02*
X160350000Y-101206000D01*
X160490000Y-95796000D02*
X160490000Y-101054000D01*
X160630000Y-95966000D02*
X160630000Y-100884000D01*
X160770000Y-96157000D02*
X160770000Y-100693000D01*
X160910000Y-96375000D02*
X160910000Y-100475000D01*
X161050000Y-96631000D02*
X161050000Y-100219000D01*
X161190000Y-96942000D02*
X161190000Y-99908000D01*
X161330000Y-97358000D02*
X161330000Y-99492000D01*
X161470000Y-98225000D02*
X161470000Y-98625000D01*
X160375000Y-98425000D02*
G75*
G03X160375000Y-98425000I-1000000J0D01*
G01*
X161512500Y-98425000D02*
G75*
G03X161512500Y-98425000I-4037500J0D01*
G01*
X157980000Y-104560000D02*
X156980000Y-104560000D01*
X156980000Y-106260000D02*
X157980000Y-106260000D01*
X131515000Y-104586000D02*
X131515000Y-112584000D01*
X131655000Y-104591000D02*
X131655000Y-112579000D01*
X131795000Y-104601000D02*
X131795000Y-112569000D01*
X131935000Y-104616000D02*
X131935000Y-112554000D01*
X132075000Y-104636000D02*
X132075000Y-112534000D01*
X132215000Y-104661000D02*
X132215000Y-112509000D01*
X132355000Y-104691000D02*
X132355000Y-108412000D01*
X132355000Y-108758000D02*
X132355000Y-112479000D01*
X132495000Y-104727000D02*
X132495000Y-108050000D01*
X132495000Y-109120000D02*
X132495000Y-112443000D01*
X132635000Y-104768000D02*
X132635000Y-107876000D01*
X132635000Y-109294000D02*
X132635000Y-112402000D01*
X132775000Y-104814000D02*
X132775000Y-107760000D01*
X132775000Y-109410000D02*
X132775000Y-112356000D01*
X132915000Y-104867000D02*
X132915000Y-107680000D01*
X132915000Y-109490000D02*
X132915000Y-112303000D01*
X133055000Y-104926000D02*
X133055000Y-107626000D01*
X133055000Y-109544000D02*
X133055000Y-112244000D01*
X133195000Y-104991000D02*
X133195000Y-107596000D01*
X133195000Y-109574000D02*
X133195000Y-112179000D01*
X133335000Y-105062000D02*
X133335000Y-107585000D01*
X133335000Y-109585000D02*
X133335000Y-112108000D01*
X133475000Y-105141000D02*
X133475000Y-107594000D01*
X133475000Y-109576000D02*
X133475000Y-112029000D01*
X133615000Y-105228000D02*
X133615000Y-107624000D01*
X133615000Y-109546000D02*
X133615000Y-111942000D01*
X133755000Y-105323000D02*
X133755000Y-107675000D01*
X133755000Y-109495000D02*
X133755000Y-111847000D01*
X133895000Y-105427000D02*
X133895000Y-107753000D01*
X133895000Y-109417000D02*
X133895000Y-111743000D01*
X134035000Y-105541000D02*
X134035000Y-107866000D01*
X134035000Y-109304000D02*
X134035000Y-111629000D01*
X134175000Y-105666000D02*
X134175000Y-108035000D01*
X134175000Y-109135000D02*
X134175000Y-111504000D01*
X134315000Y-105804000D02*
X134315000Y-108363000D01*
X134315000Y-108807000D02*
X134315000Y-111366000D01*
X134455000Y-105956000D02*
X134455000Y-111214000D01*
X134595000Y-106126000D02*
X134595000Y-111044000D01*
X134735000Y-106317000D02*
X134735000Y-110853000D01*
X134875000Y-106535000D02*
X134875000Y-110635000D01*
X135015000Y-106791000D02*
X135015000Y-110379000D01*
X135155000Y-107102000D02*
X135155000Y-110068000D01*
X135295000Y-107518000D02*
X135295000Y-109652000D01*
X135435000Y-108385000D02*
X135435000Y-108785000D01*
X134340000Y-108585000D02*
G75*
G03X134340000Y-108585000I-1000000J0D01*
G01*
X135477500Y-108585000D02*
G75*
G03X135477500Y-108585000I-4037500J0D01*
G01*
X132580000Y-114720000D02*
X131580000Y-114720000D01*
X131580000Y-116420000D02*
X132580000Y-116420000D01*
X156630000Y-109355000D02*
X156630000Y-110355000D01*
X158330000Y-110355000D02*
X158330000Y-109355000D01*
D14*
X126892000Y-80610000D02*
X126092000Y-80610000D01*
X126092000Y-80610000D02*
X126092000Y-80810000D01*
X126092000Y-80810000D02*
X126892000Y-80810000D01*
X126892000Y-80810000D02*
X126892000Y-79410000D01*
X126892000Y-79410000D02*
X126092000Y-79410000D01*
X126092000Y-79410000D02*
X126092000Y-80610000D01*
D13*
X160540000Y-73965000D02*
X160540000Y-76665000D01*
X162040000Y-73965000D02*
X162040000Y-76665000D01*
X161140000Y-75465000D02*
X161390000Y-75465000D01*
X161390000Y-75465000D02*
X161240000Y-75315000D01*
X161640000Y-75215000D02*
X160940000Y-75215000D01*
X161290000Y-75565000D02*
X161290000Y-75915000D01*
X161290000Y-75215000D02*
X161640000Y-75565000D01*
X161640000Y-75565000D02*
X160940000Y-75565000D01*
X160940000Y-75565000D02*
X161290000Y-75215000D01*
X130845000Y-76595000D02*
X132045000Y-76595000D01*
X132045000Y-78345000D02*
X130845000Y-78345000D01*
X162165000Y-81315000D02*
X162165000Y-82515000D01*
X160415000Y-82515000D02*
X160415000Y-81315000D01*
X137195000Y-76595000D02*
X138395000Y-76595000D01*
X138395000Y-78345000D02*
X137195000Y-78345000D01*
X155180000Y-109255000D02*
X155180000Y-110455000D01*
X153430000Y-110455000D02*
X153430000Y-109255000D01*
X138670000Y-108620000D02*
X138670000Y-109820000D01*
X136920000Y-109820000D02*
X136920000Y-108620000D01*
X138670000Y-114970000D02*
X138670000Y-116170000D01*
X136920000Y-116170000D02*
X136920000Y-114970000D01*
D15*
X141058900Y-79375000D02*
X137071100Y-79375000D01*
X137071100Y-84455000D02*
X141058900Y-84455000D01*
X139369800Y-84467700D02*
G75*
G03X138760200Y-84467700I-304800J0D01*
G01*
D14*
X160595000Y-92650000D02*
X153095000Y-92650000D01*
X153095000Y-92650000D02*
X153095000Y-85150000D01*
X160595000Y-85150000D02*
X153095000Y-85150000D01*
X160595000Y-92650000D02*
X160595000Y-85150000D01*
D16*
X141484390Y-111571070D02*
X151884390Y-111571070D01*
D10*
X151061590Y-113046070D02*
G75*
G03X151061590Y-113046070I-552200J0D01*
G01*
D14*
X139095000Y-88345000D02*
X149195000Y-88345000D01*
X149195000Y-88345000D02*
X149195000Y-98345000D01*
X139095000Y-98345000D02*
X149195000Y-98345000D01*
X139095000Y-98345000D02*
X139095000Y-88345000D01*
D13*
X122451905Y-76652381D02*
X122451905Y-75652381D01*
X122832858Y-75652381D01*
X122928096Y-75700000D01*
X122975715Y-75747619D01*
X123023334Y-75842857D01*
X123023334Y-75985714D01*
X122975715Y-76080952D01*
X122928096Y-76128571D01*
X122832858Y-76176190D01*
X122451905Y-76176190D01*
X123975715Y-76652381D02*
X123404286Y-76652381D01*
X123690000Y-76652381D02*
X123690000Y-75652381D01*
X123594762Y-75795238D01*
X123499524Y-75890476D01*
X123404286Y-75938095D01*
X123086905Y-106497381D02*
X123086905Y-105497381D01*
X123467858Y-105497381D01*
X123563096Y-105545000D01*
X123610715Y-105592619D01*
X123658334Y-105687857D01*
X123658334Y-105830714D01*
X123610715Y-105925952D01*
X123563096Y-105973571D01*
X123467858Y-106021190D01*
X123086905Y-106021190D01*
X124039286Y-105592619D02*
X124086905Y-105545000D01*
X124182143Y-105497381D01*
X124420239Y-105497381D01*
X124515477Y-105545000D01*
X124563096Y-105592619D01*
X124610715Y-105687857D01*
X124610715Y-105783095D01*
X124563096Y-105925952D01*
X123991667Y-106497381D01*
X124610715Y-106497381D01*
X128897143Y-86177381D02*
X128563809Y-85701190D01*
X128325714Y-86177381D02*
X128325714Y-85177381D01*
X128706667Y-85177381D01*
X128801905Y-85225000D01*
X128849524Y-85272619D01*
X128897143Y-85367857D01*
X128897143Y-85510714D01*
X128849524Y-85605952D01*
X128801905Y-85653571D01*
X128706667Y-85701190D01*
X128325714Y-85701190D01*
X129278095Y-86129762D02*
X129420952Y-86177381D01*
X129659048Y-86177381D01*
X129754286Y-86129762D01*
X129801905Y-86082143D01*
X129849524Y-85986905D01*
X129849524Y-85891667D01*
X129801905Y-85796429D01*
X129754286Y-85748810D01*
X129659048Y-85701190D01*
X129468571Y-85653571D01*
X129373333Y-85605952D01*
X129325714Y-85558333D01*
X129278095Y-85463095D01*
X129278095Y-85367857D01*
X129325714Y-85272619D01*
X129373333Y-85225000D01*
X129468571Y-85177381D01*
X129706667Y-85177381D01*
X129849524Y-85225000D01*
X130801905Y-86177381D02*
X130230476Y-86177381D01*
X130516190Y-86177381D02*
X130516190Y-85177381D01*
X130420952Y-85320238D01*
X130325714Y-85415476D01*
X130230476Y-85463095D01*
X136596381Y-97766095D02*
X135596381Y-97766095D01*
X135596381Y-97528000D01*
X135644000Y-97385142D01*
X135739238Y-97289904D01*
X135834476Y-97242285D01*
X136024952Y-97194666D01*
X136167810Y-97194666D01*
X136358286Y-97242285D01*
X136453524Y-97289904D01*
X136548762Y-97385142D01*
X136596381Y-97528000D01*
X136596381Y-97766095D01*
X136596381Y-96242285D02*
X136596381Y-96813714D01*
X136596381Y-96528000D02*
X135596381Y-96528000D01*
X135739238Y-96623238D01*
X135834476Y-96718476D01*
X135882095Y-96813714D01*
X123023334Y-86717143D02*
X122975715Y-86764762D01*
X122832858Y-86812381D01*
X122737620Y-86812381D01*
X122594762Y-86764762D01*
X122499524Y-86669524D01*
X122451905Y-86574286D01*
X122404286Y-86383810D01*
X122404286Y-86240952D01*
X122451905Y-86050476D01*
X122499524Y-85955238D01*
X122594762Y-85860000D01*
X122737620Y-85812381D01*
X122832858Y-85812381D01*
X122975715Y-85860000D01*
X123023334Y-85907619D01*
X123975715Y-86812381D02*
X123404286Y-86812381D01*
X123690000Y-86812381D02*
X123690000Y-85812381D01*
X123594762Y-85955238D01*
X123499524Y-86050476D01*
X123404286Y-86098095D01*
X121753334Y-100687143D02*
X121705715Y-100734762D01*
X121562858Y-100782381D01*
X121467620Y-100782381D01*
X121324762Y-100734762D01*
X121229524Y-100639524D01*
X121181905Y-100544286D01*
X121134286Y-100353810D01*
X121134286Y-100210952D01*
X121181905Y-100020476D01*
X121229524Y-99925238D01*
X121324762Y-99830000D01*
X121467620Y-99782381D01*
X121562858Y-99782381D01*
X121705715Y-99830000D01*
X121753334Y-99877619D01*
X122134286Y-99877619D02*
X122181905Y-99830000D01*
X122277143Y-99782381D01*
X122515239Y-99782381D01*
X122610477Y-99830000D01*
X122658096Y-99877619D01*
X122705715Y-99972857D01*
X122705715Y-100068095D01*
X122658096Y-100210952D01*
X122086667Y-100782381D01*
X122705715Y-100782381D01*
X147677143Y-81446666D02*
X147724762Y-81494285D01*
X147772381Y-81637142D01*
X147772381Y-81732380D01*
X147724762Y-81875238D01*
X147629524Y-81970476D01*
X147534286Y-82018095D01*
X147343810Y-82065714D01*
X147200952Y-82065714D01*
X147010476Y-82018095D01*
X146915238Y-81970476D01*
X146820000Y-81875238D01*
X146772381Y-81732380D01*
X146772381Y-81637142D01*
X146820000Y-81494285D01*
X146867619Y-81446666D01*
X146772381Y-81113333D02*
X146772381Y-80494285D01*
X147153333Y-80827619D01*
X147153333Y-80684761D01*
X147200952Y-80589523D01*
X147248571Y-80541904D01*
X147343810Y-80494285D01*
X147581905Y-80494285D01*
X147677143Y-80541904D01*
X147724762Y-80589523D01*
X147772381Y-80684761D01*
X147772381Y-80970476D01*
X147724762Y-81065714D01*
X147677143Y-81113333D01*
X152995334Y-73763143D02*
X152947715Y-73810762D01*
X152804858Y-73858381D01*
X152709620Y-73858381D01*
X152566762Y-73810762D01*
X152471524Y-73715524D01*
X152423905Y-73620286D01*
X152376286Y-73429810D01*
X152376286Y-73286952D01*
X152423905Y-73096476D01*
X152471524Y-73001238D01*
X152566762Y-72906000D01*
X152709620Y-72858381D01*
X152804858Y-72858381D01*
X152947715Y-72906000D01*
X152995334Y-72953619D01*
X153852477Y-73191714D02*
X153852477Y-73858381D01*
X153614381Y-72810762D02*
X153376286Y-73525048D01*
X153995334Y-73525048D01*
X151217334Y-99163143D02*
X151169715Y-99210762D01*
X151026858Y-99258381D01*
X150931620Y-99258381D01*
X150788762Y-99210762D01*
X150693524Y-99115524D01*
X150645905Y-99020286D01*
X150598286Y-98829810D01*
X150598286Y-98686952D01*
X150645905Y-98496476D01*
X150693524Y-98401238D01*
X150788762Y-98306000D01*
X150931620Y-98258381D01*
X151026858Y-98258381D01*
X151169715Y-98306000D01*
X151217334Y-98353619D01*
X152122096Y-98258381D02*
X151645905Y-98258381D01*
X151598286Y-98734571D01*
X151645905Y-98686952D01*
X151741143Y-98639333D01*
X151979239Y-98639333D01*
X152074477Y-98686952D01*
X152122096Y-98734571D01*
X152169715Y-98829810D01*
X152169715Y-99067905D01*
X152122096Y-99163143D01*
X152074477Y-99210762D01*
X151979239Y-99258381D01*
X151741143Y-99258381D01*
X151645905Y-99210762D01*
X151598286Y-99163143D01*
X160615334Y-105259143D02*
X160567715Y-105306762D01*
X160424858Y-105354381D01*
X160329620Y-105354381D01*
X160186762Y-105306762D01*
X160091524Y-105211524D01*
X160043905Y-105116286D01*
X159996286Y-104925810D01*
X159996286Y-104782952D01*
X160043905Y-104592476D01*
X160091524Y-104497238D01*
X160186762Y-104402000D01*
X160329620Y-104354381D01*
X160424858Y-104354381D01*
X160567715Y-104402000D01*
X160615334Y-104449619D01*
X161472477Y-104354381D02*
X161282000Y-104354381D01*
X161186762Y-104402000D01*
X161139143Y-104449619D01*
X161043905Y-104592476D01*
X160996286Y-104782952D01*
X160996286Y-105163905D01*
X161043905Y-105259143D01*
X161091524Y-105306762D01*
X161186762Y-105354381D01*
X161377239Y-105354381D01*
X161472477Y-105306762D01*
X161520096Y-105259143D01*
X161567715Y-105163905D01*
X161567715Y-104925810D01*
X161520096Y-104830571D01*
X161472477Y-104782952D01*
X161377239Y-104735333D01*
X161186762Y-104735333D01*
X161091524Y-104782952D01*
X161043905Y-104830571D01*
X160996286Y-104925810D01*
X127468334Y-105132143D02*
X127420715Y-105179762D01*
X127277858Y-105227381D01*
X127182620Y-105227381D01*
X127039762Y-105179762D01*
X126944524Y-105084524D01*
X126896905Y-104989286D01*
X126849286Y-104798810D01*
X126849286Y-104655952D01*
X126896905Y-104465476D01*
X126944524Y-104370238D01*
X127039762Y-104275000D01*
X127182620Y-104227381D01*
X127277858Y-104227381D01*
X127420715Y-104275000D01*
X127468334Y-104322619D01*
X127801667Y-104227381D02*
X128468334Y-104227381D01*
X128039762Y-105227381D01*
X128103334Y-115292143D02*
X128055715Y-115339762D01*
X127912858Y-115387381D01*
X127817620Y-115387381D01*
X127674762Y-115339762D01*
X127579524Y-115244524D01*
X127531905Y-115149286D01*
X127484286Y-114958810D01*
X127484286Y-114815952D01*
X127531905Y-114625476D01*
X127579524Y-114530238D01*
X127674762Y-114435000D01*
X127817620Y-114387381D01*
X127912858Y-114387381D01*
X128055715Y-114435000D01*
X128103334Y-114482619D01*
X128674762Y-114815952D02*
X128579524Y-114768333D01*
X128531905Y-114720714D01*
X128484286Y-114625476D01*
X128484286Y-114577857D01*
X128531905Y-114482619D01*
X128579524Y-114435000D01*
X128674762Y-114387381D01*
X128865239Y-114387381D01*
X128960477Y-114435000D01*
X129008096Y-114482619D01*
X129055715Y-114577857D01*
X129055715Y-114625476D01*
X129008096Y-114720714D01*
X128960477Y-114768333D01*
X128865239Y-114815952D01*
X128674762Y-114815952D01*
X128579524Y-114863571D01*
X128531905Y-114911190D01*
X128484286Y-115006429D01*
X128484286Y-115196905D01*
X128531905Y-115292143D01*
X128579524Y-115339762D01*
X128674762Y-115387381D01*
X128865239Y-115387381D01*
X128960477Y-115339762D01*
X129008096Y-115292143D01*
X129055715Y-115196905D01*
X129055715Y-115006429D01*
X129008096Y-114911190D01*
X128960477Y-114863571D01*
X128865239Y-114815952D01*
X157202143Y-113831666D02*
X157249762Y-113879285D01*
X157297381Y-114022142D01*
X157297381Y-114117380D01*
X157249762Y-114260238D01*
X157154524Y-114355476D01*
X157059286Y-114403095D01*
X156868810Y-114450714D01*
X156725952Y-114450714D01*
X156535476Y-114403095D01*
X156440238Y-114355476D01*
X156345000Y-114260238D01*
X156297381Y-114117380D01*
X156297381Y-114022142D01*
X156345000Y-113879285D01*
X156392619Y-113831666D01*
X157297381Y-113355476D02*
X157297381Y-113165000D01*
X157249762Y-113069761D01*
X157202143Y-113022142D01*
X157059286Y-112926904D01*
X156868810Y-112879285D01*
X156487857Y-112879285D01*
X156392619Y-112926904D01*
X156345000Y-112974523D01*
X156297381Y-113069761D01*
X156297381Y-113260238D01*
X156345000Y-113355476D01*
X156392619Y-113403095D01*
X156487857Y-113450714D01*
X156725952Y-113450714D01*
X156821190Y-113403095D01*
X156868810Y-113355476D01*
X156916429Y-113260238D01*
X156916429Y-113069761D01*
X156868810Y-112974523D01*
X156821190Y-112926904D01*
X156725952Y-112879285D01*
X129484381Y-80748095D02*
X128484381Y-80748095D01*
X128484381Y-80510000D01*
X128532000Y-80367142D01*
X128627238Y-80271904D01*
X128722476Y-80224285D01*
X128912952Y-80176666D01*
X129055810Y-80176666D01*
X129246286Y-80224285D01*
X129341524Y-80271904D01*
X129436762Y-80367142D01*
X129484381Y-80510000D01*
X129484381Y-80748095D01*
X128579619Y-79795714D02*
X128532000Y-79748095D01*
X128484381Y-79652857D01*
X128484381Y-79414761D01*
X128532000Y-79319523D01*
X128579619Y-79271904D01*
X128674857Y-79224285D01*
X128770095Y-79224285D01*
X128912952Y-79271904D01*
X129484381Y-79843333D01*
X129484381Y-79224285D01*
X163647381Y-77573095D02*
X162647381Y-77573095D01*
X162647381Y-77335000D01*
X162695000Y-77192142D01*
X162790238Y-77096904D01*
X162885476Y-77049285D01*
X163075952Y-77001666D01*
X163218810Y-77001666D01*
X163409286Y-77049285D01*
X163504524Y-77096904D01*
X163599762Y-77192142D01*
X163647381Y-77335000D01*
X163647381Y-77573095D01*
X162647381Y-76668333D02*
X162647381Y-76049285D01*
X163028333Y-76382619D01*
X163028333Y-76239761D01*
X163075952Y-76144523D01*
X163123571Y-76096904D01*
X163218810Y-76049285D01*
X163456905Y-76049285D01*
X163552143Y-76096904D01*
X163599762Y-76144523D01*
X163647381Y-76239761D01*
X163647381Y-76525476D01*
X163599762Y-76620714D01*
X163552143Y-76668333D01*
X128738334Y-76017381D02*
X128405000Y-75541190D01*
X128166905Y-76017381D02*
X128166905Y-75017381D01*
X128547858Y-75017381D01*
X128643096Y-75065000D01*
X128690715Y-75112619D01*
X128738334Y-75207857D01*
X128738334Y-75350714D01*
X128690715Y-75445952D01*
X128643096Y-75493571D01*
X128547858Y-75541190D01*
X128166905Y-75541190D01*
X129690715Y-76017381D02*
X129119286Y-76017381D01*
X129405000Y-76017381D02*
X129405000Y-75017381D01*
X129309762Y-75160238D01*
X129214524Y-75255476D01*
X129119286Y-75303095D01*
X163647381Y-83351666D02*
X163171190Y-83685000D01*
X163647381Y-83923095D02*
X162647381Y-83923095D01*
X162647381Y-83542142D01*
X162695000Y-83446904D01*
X162742619Y-83399285D01*
X162837857Y-83351666D01*
X162980714Y-83351666D01*
X163075952Y-83399285D01*
X163123571Y-83446904D01*
X163171190Y-83542142D01*
X163171190Y-83923095D01*
X162742619Y-82970714D02*
X162695000Y-82923095D01*
X162647381Y-82827857D01*
X162647381Y-82589761D01*
X162695000Y-82494523D01*
X162742619Y-82446904D01*
X162837857Y-82399285D01*
X162933095Y-82399285D01*
X163075952Y-82446904D01*
X163647381Y-83018333D01*
X163647381Y-82399285D01*
X135088334Y-76017381D02*
X134755000Y-75541190D01*
X134516905Y-76017381D02*
X134516905Y-75017381D01*
X134897858Y-75017381D01*
X134993096Y-75065000D01*
X135040715Y-75112619D01*
X135088334Y-75207857D01*
X135088334Y-75350714D01*
X135040715Y-75445952D01*
X134993096Y-75493571D01*
X134897858Y-75541190D01*
X134516905Y-75541190D01*
X135421667Y-75017381D02*
X136040715Y-75017381D01*
X135707381Y-75398333D01*
X135850239Y-75398333D01*
X135945477Y-75445952D01*
X135993096Y-75493571D01*
X136040715Y-75588810D01*
X136040715Y-75826905D01*
X135993096Y-75922143D01*
X135945477Y-75969762D01*
X135850239Y-76017381D01*
X135564524Y-76017381D01*
X135469286Y-75969762D01*
X135421667Y-75922143D01*
X154122381Y-113831666D02*
X153646190Y-114165000D01*
X154122381Y-114403095D02*
X153122381Y-114403095D01*
X153122381Y-114022142D01*
X153170000Y-113926904D01*
X153217619Y-113879285D01*
X153312857Y-113831666D01*
X153455714Y-113831666D01*
X153550952Y-113879285D01*
X153598571Y-113926904D01*
X153646190Y-114022142D01*
X153646190Y-114403095D01*
X153455714Y-112974523D02*
X154122381Y-112974523D01*
X153074762Y-113212619D02*
X153789048Y-113450714D01*
X153789048Y-112831666D01*
X140152381Y-111291666D02*
X139676190Y-111625000D01*
X140152381Y-111863095D02*
X139152381Y-111863095D01*
X139152381Y-111482142D01*
X139200000Y-111386904D01*
X139247619Y-111339285D01*
X139342857Y-111291666D01*
X139485714Y-111291666D01*
X139580952Y-111339285D01*
X139628571Y-111386904D01*
X139676190Y-111482142D01*
X139676190Y-111863095D01*
X139152381Y-110386904D02*
X139152381Y-110863095D01*
X139628571Y-110910714D01*
X139580952Y-110863095D01*
X139533333Y-110767857D01*
X139533333Y-110529761D01*
X139580952Y-110434523D01*
X139628571Y-110386904D01*
X139723810Y-110339285D01*
X139961905Y-110339285D01*
X140057143Y-110386904D01*
X140104762Y-110434523D01*
X140152381Y-110529761D01*
X140152381Y-110767857D01*
X140104762Y-110863095D01*
X140057143Y-110910714D01*
X140152381Y-117641666D02*
X139676190Y-117975000D01*
X140152381Y-118213095D02*
X139152381Y-118213095D01*
X139152381Y-117832142D01*
X139200000Y-117736904D01*
X139247619Y-117689285D01*
X139342857Y-117641666D01*
X139485714Y-117641666D01*
X139580952Y-117689285D01*
X139628571Y-117736904D01*
X139676190Y-117832142D01*
X139676190Y-118213095D01*
X139152381Y-116784523D02*
X139152381Y-116975000D01*
X139200000Y-117070238D01*
X139247619Y-117117857D01*
X139390476Y-117213095D01*
X139580952Y-117260714D01*
X139961905Y-117260714D01*
X140057143Y-117213095D01*
X140104762Y-117165476D01*
X140152381Y-117070238D01*
X140152381Y-116879761D01*
X140104762Y-116784523D01*
X140057143Y-116736904D01*
X139961905Y-116689285D01*
X139723810Y-116689285D01*
X139628571Y-116736904D01*
X139580952Y-116784523D01*
X139533333Y-116879761D01*
X139533333Y-117070238D01*
X139580952Y-117165476D01*
X139628571Y-117213095D01*
X139723810Y-117260714D01*
X138303095Y-78192381D02*
X138303095Y-79001905D01*
X138350714Y-79097143D01*
X138398333Y-79144762D01*
X138493571Y-79192381D01*
X138684048Y-79192381D01*
X138779286Y-79144762D01*
X138826905Y-79097143D01*
X138874524Y-79001905D01*
X138874524Y-78192381D01*
X139874524Y-79192381D02*
X139303095Y-79192381D01*
X139588809Y-79192381D02*
X139588809Y-78192381D01*
X139493571Y-78335238D01*
X139398333Y-78430476D01*
X139303095Y-78478095D01*
X135469762Y-82319762D02*
X135612619Y-82367381D01*
X135850715Y-82367381D01*
X135945953Y-82319762D01*
X135993572Y-82272143D01*
X136041191Y-82176905D01*
X136041191Y-82081667D01*
X135993572Y-81986429D01*
X135945953Y-81938810D01*
X135850715Y-81891190D01*
X135660238Y-81843571D01*
X135565000Y-81795952D01*
X135517381Y-81748333D01*
X135469762Y-81653095D01*
X135469762Y-81557857D01*
X135517381Y-81462619D01*
X135565000Y-81415000D01*
X135660238Y-81367381D01*
X135898334Y-81367381D01*
X136041191Y-81415000D01*
X136469762Y-82367381D02*
X136469762Y-81367381D01*
X136850715Y-81367381D01*
X136945953Y-81415000D01*
X136993572Y-81462619D01*
X137041191Y-81557857D01*
X137041191Y-81700714D01*
X136993572Y-81795952D01*
X136945953Y-81843571D01*
X136850715Y-81891190D01*
X136469762Y-81891190D01*
X137374524Y-81367381D02*
X137993572Y-81367381D01*
X137660238Y-81748333D01*
X137803096Y-81748333D01*
X137898334Y-81795952D01*
X137945953Y-81843571D01*
X137993572Y-81938810D01*
X137993572Y-82176905D01*
X137945953Y-82272143D01*
X137898334Y-82319762D01*
X137803096Y-82367381D01*
X137517381Y-82367381D01*
X137422143Y-82319762D01*
X137374524Y-82272143D01*
X138850715Y-81700714D02*
X138850715Y-82367381D01*
X138612619Y-81319762D02*
X138374524Y-82034048D01*
X138993572Y-82034048D01*
X139565000Y-81367381D02*
X139660239Y-81367381D01*
X139755477Y-81415000D01*
X139803096Y-81462619D01*
X139850715Y-81557857D01*
X139898334Y-81748333D01*
X139898334Y-81986429D01*
X139850715Y-82176905D01*
X139803096Y-82272143D01*
X139755477Y-82319762D01*
X139660239Y-82367381D01*
X139565000Y-82367381D01*
X139469762Y-82319762D01*
X139422143Y-82272143D01*
X139374524Y-82176905D01*
X139326905Y-81986429D01*
X139326905Y-81748333D01*
X139374524Y-81557857D01*
X139422143Y-81462619D01*
X139469762Y-81415000D01*
X139565000Y-81367381D01*
X140755477Y-81367381D02*
X140565000Y-81367381D01*
X140469762Y-81415000D01*
X140422143Y-81462619D01*
X140326905Y-81605476D01*
X140279286Y-81795952D01*
X140279286Y-82176905D01*
X140326905Y-82272143D01*
X140374524Y-82319762D01*
X140469762Y-82367381D01*
X140660239Y-82367381D01*
X140755477Y-82319762D01*
X140803096Y-82272143D01*
X140850715Y-82176905D01*
X140850715Y-81938810D01*
X140803096Y-81843571D01*
X140755477Y-81795952D01*
X140660239Y-81748333D01*
X140469762Y-81748333D01*
X140374524Y-81795952D01*
X140326905Y-81843571D01*
X140279286Y-81938810D01*
X141184048Y-81367381D02*
X141803096Y-81367381D01*
X141469762Y-81748333D01*
X141612620Y-81748333D01*
X141707858Y-81795952D01*
X141755477Y-81843571D01*
X141803096Y-81938810D01*
X141803096Y-82176905D01*
X141755477Y-82272143D01*
X141707858Y-82319762D01*
X141612620Y-82367381D01*
X141326905Y-82367381D01*
X141231667Y-82319762D01*
X141184048Y-82272143D01*
X142184048Y-82081667D02*
X142660239Y-82081667D01*
X142088810Y-82367381D02*
X142422143Y-81367381D01*
X142755477Y-82367381D01*
X156551334Y-84780381D02*
X156075143Y-84780381D01*
X156075143Y-83780381D01*
X156837048Y-83875619D02*
X156884667Y-83828000D01*
X156979905Y-83780381D01*
X157218001Y-83780381D01*
X157313239Y-83828000D01*
X157360858Y-83875619D01*
X157408477Y-83970857D01*
X157408477Y-84066095D01*
X157360858Y-84208952D01*
X156789429Y-84780381D01*
X157408477Y-84780381D01*
D14*
X146075476Y-104336905D02*
X146075476Y-104984524D01*
X146113571Y-105060714D01*
X146151667Y-105098810D01*
X146227857Y-105136905D01*
X146380238Y-105136905D01*
X146456429Y-105098810D01*
X146494524Y-105060714D01*
X146532619Y-104984524D01*
X146532619Y-104336905D01*
X146875476Y-104413095D02*
X146913571Y-104375000D01*
X146989762Y-104336905D01*
X147180238Y-104336905D01*
X147256428Y-104375000D01*
X147294524Y-104413095D01*
X147332619Y-104489286D01*
X147332619Y-104565476D01*
X147294524Y-104679762D01*
X146837381Y-105136905D01*
X147332619Y-105136905D01*
X142913952Y-106464005D02*
X143061836Y-106513300D01*
X143308310Y-106513300D01*
X143406900Y-106464005D01*
X143456194Y-106414711D01*
X143505489Y-106316121D01*
X143505489Y-106217532D01*
X143456194Y-106118942D01*
X143406900Y-106069647D01*
X143308310Y-106020353D01*
X143111131Y-105971058D01*
X143012542Y-105921763D01*
X142963247Y-105872468D01*
X142913952Y-105773879D01*
X142913952Y-105675289D01*
X142963247Y-105576700D01*
X143012542Y-105527405D01*
X143111131Y-105478110D01*
X143357605Y-105478110D01*
X143505489Y-105527405D01*
X143949142Y-106513300D02*
X143949142Y-105478110D01*
X144343500Y-105478110D01*
X144442089Y-105527405D01*
X144491384Y-105576700D01*
X144540679Y-105675289D01*
X144540679Y-105823174D01*
X144491384Y-105921763D01*
X144442089Y-105971058D01*
X144343500Y-106020353D01*
X143949142Y-106020353D01*
X144885742Y-105478110D02*
X145575869Y-106513300D01*
X145575869Y-105478110D02*
X144885742Y-106513300D01*
X145920932Y-105576700D02*
X145970227Y-105527405D01*
X146068816Y-105478110D01*
X146315290Y-105478110D01*
X146413880Y-105527405D01*
X146463174Y-105576700D01*
X146512469Y-105675289D01*
X146512469Y-105773879D01*
X146463174Y-105921763D01*
X145871637Y-106513300D01*
X146512469Y-106513300D01*
X147005417Y-106513300D02*
X147202596Y-106513300D01*
X147301185Y-106464005D01*
X147350480Y-106414711D01*
X147449069Y-106266826D01*
X147498364Y-106069647D01*
X147498364Y-105675289D01*
X147449069Y-105576700D01*
X147399775Y-105527405D01*
X147301185Y-105478110D01*
X147104006Y-105478110D01*
X147005417Y-105527405D01*
X146956122Y-105576700D01*
X146906827Y-105675289D01*
X146906827Y-105921763D01*
X146956122Y-106020353D01*
X147005417Y-106069647D01*
X147104006Y-106118942D01*
X147301185Y-106118942D01*
X147399775Y-106069647D01*
X147449069Y-106020353D01*
X147498364Y-105921763D01*
X148484259Y-106513300D02*
X147892722Y-106513300D01*
X148188491Y-106513300D02*
X148188491Y-105478110D01*
X148089901Y-105625995D01*
X147991312Y-105724584D01*
X147892722Y-105773879D01*
X149420859Y-105478110D02*
X148927912Y-105478110D01*
X148878617Y-105971058D01*
X148927912Y-105921763D01*
X149026501Y-105872468D01*
X149272975Y-105872468D01*
X149371565Y-105921763D01*
X149420859Y-105971058D01*
X149470154Y-106069647D01*
X149470154Y-106316121D01*
X149420859Y-106414711D01*
X149371565Y-106464005D01*
X149272975Y-106513300D01*
X149026501Y-106513300D01*
X148927912Y-106464005D01*
X148878617Y-106414711D01*
X149864512Y-105576700D02*
X149913807Y-105527405D01*
X150012396Y-105478110D01*
X150258870Y-105478110D01*
X150357460Y-105527405D01*
X150406754Y-105576700D01*
X150456049Y-105675289D01*
X150456049Y-105773879D01*
X150406754Y-105921763D01*
X149815217Y-106513300D01*
X150456049Y-106513300D01*
D13*
X144678334Y-88097381D02*
X144202143Y-88097381D01*
X144202143Y-87097381D01*
X145535477Y-88097381D02*
X144964048Y-88097381D01*
X145249762Y-88097381D02*
X145249762Y-87097381D01*
X145154524Y-87240238D01*
X145059286Y-87335476D01*
X144964048Y-87383095D01*
M02*
