G04 #@! TF.FileFunction,Copper,L1,Top,Signal*
%FSLAX46Y46*%
G04 Gerber Fmt 4.6, Leading zero omitted, Abs format (unit mm)*
G04 Created by KiCad (PCBNEW 4.0.5+dfsg1-4~bpo8+1) date Tue Dec  5 21:37:09 2017*
%MOMM*%
%LPD*%
G01*
G04 APERTURE LIST*
%ADD10C,0.100000*%
%ADD11R,2.032000X2.032000*%
%ADD12O,2.032000X2.032000*%
%ADD13R,2.032000X1.727200*%
%ADD14O,2.032000X1.727200*%
%ADD15R,1.500000X1.300000*%
%ADD16R,0.950000X1.000000*%
%ADD17R,3.200000X4.900000*%
%ADD18R,2.540000X2.540000*%
%ADD19C,2.540000*%
%ADD20R,1.500000X1.250000*%
%ADD21R,1.250000X1.500000*%
%ADD22R,0.650000X0.325000*%
%ADD23R,1.198880X1.198880*%
%ADD24R,1.300000X1.500000*%
%ADD25R,1.498600X0.558800*%
%ADD26R,2.540000X2.000000*%
%ADD27R,0.900000X3.300000*%
%ADD28R,10.700000X9.600000*%
%ADD29R,5.000000X3.000000*%
%ADD30R,4.000000X3.330000*%
%ADD31C,1.600000*%
%ADD32C,0.300000*%
%ADD33C,1.000000*%
%ADD34C,0.500000*%
%ADD35C,0.254000*%
G04 APERTURE END LIST*
D10*
D11*
X123190000Y-81280000D03*
D12*
X123190000Y-78740000D03*
D13*
X123825000Y-108585000D03*
D14*
X123825000Y-111125000D03*
X123825000Y-113665000D03*
X123825000Y-116205000D03*
D15*
X132795000Y-83820000D03*
X130095000Y-83820000D03*
D16*
X131920000Y-97290000D03*
X134170000Y-97290000D03*
D17*
X133045000Y-92940000D03*
D18*
X125095000Y-91440000D03*
D19*
X121295000Y-91440000D03*
D20*
X125075000Y-98425000D03*
X122575000Y-98425000D03*
D21*
X145415000Y-80625000D03*
X145415000Y-78125000D03*
D18*
X153035000Y-80645000D03*
D19*
X153035000Y-76845000D03*
D18*
X155575000Y-98425000D03*
D19*
X159375000Y-98425000D03*
D20*
X156230000Y-105410000D03*
X158730000Y-105410000D03*
D18*
X129540000Y-108585000D03*
D19*
X133340000Y-108585000D03*
D20*
X130830000Y-115570000D03*
X133330000Y-115570000D03*
D21*
X157480000Y-111105000D03*
X157480000Y-108605000D03*
D22*
X126492000Y-80335000D03*
X126492000Y-79685000D03*
D23*
X161290000Y-76614020D03*
X161290000Y-74515980D03*
D15*
X132795000Y-77470000D03*
X130095000Y-77470000D03*
D24*
X161290000Y-83265000D03*
X161290000Y-80565000D03*
D15*
X139145000Y-77470000D03*
X136445000Y-77470000D03*
D24*
X154305000Y-111205000D03*
X154305000Y-108505000D03*
X137795000Y-110570000D03*
X137795000Y-107870000D03*
X137795000Y-116920000D03*
X137795000Y-114220000D03*
D25*
X141770100Y-83820000D03*
X141770100Y-82550000D03*
X141770100Y-81280000D03*
X141770100Y-80010000D03*
X136359900Y-80010000D03*
X136359900Y-81280000D03*
X136359900Y-82550000D03*
X136359900Y-83820000D03*
D26*
X153095000Y-88900000D03*
X160595000Y-88900000D03*
D27*
X150085000Y-107950000D03*
D28*
X146685000Y-119566000D03*
D27*
X148385000Y-107950000D03*
X146685000Y-107950000D03*
X144985000Y-107950000D03*
X143285000Y-107950000D03*
D29*
X146585000Y-116250000D03*
D30*
X139095000Y-93345000D03*
X149195000Y-93345000D03*
D31*
X143002000Y-72390000D03*
X142875000Y-77470000D03*
X148590000Y-102235000D03*
X124460000Y-121920000D03*
X160274000Y-110998000D03*
X124968000Y-119634000D03*
D32*
X126492000Y-80335000D02*
X126492000Y-81026000D01*
X126238000Y-81280000D02*
X123190000Y-81280000D01*
X126492000Y-81026000D02*
X126238000Y-81280000D01*
D33*
X123190000Y-81280000D02*
X125730000Y-83820000D01*
X125730000Y-83820000D02*
X130095000Y-83820000D01*
X125095000Y-91440000D02*
X125095000Y-98405000D01*
X125095000Y-98405000D02*
X125075000Y-98425000D01*
X125095000Y-91440000D02*
X125095000Y-86995000D01*
X123190000Y-85090000D02*
X123190000Y-81280000D01*
X125095000Y-86995000D02*
X123190000Y-85090000D01*
D34*
X136359900Y-81280000D02*
X130810000Y-81280000D01*
X130810000Y-81280000D02*
X130095000Y-81995000D01*
X130095000Y-81995000D02*
X130095000Y-83820000D01*
D32*
X126492000Y-79685000D02*
X126492000Y-78994000D01*
X126238000Y-78740000D02*
X123190000Y-78740000D01*
X126492000Y-78994000D02*
X126238000Y-78740000D01*
D34*
X145415000Y-78125000D02*
X146197000Y-78125000D01*
D33*
X140081000Y-100965000D02*
X139192000Y-100965000D01*
X149352000Y-87884000D02*
X149352000Y-85090000D01*
X147574000Y-89662000D02*
X149352000Y-87884000D01*
X146558000Y-89662000D02*
X147574000Y-89662000D01*
X144018000Y-92202000D02*
X146558000Y-89662000D01*
X144018000Y-97028000D02*
X144018000Y-92202000D01*
X140081000Y-100965000D02*
X144018000Y-97028000D01*
D34*
X149352000Y-84582000D02*
X149352000Y-85090000D01*
X147320000Y-82550000D02*
X149352000Y-84582000D01*
X147320000Y-79248000D02*
X147320000Y-82550000D01*
X146197000Y-78125000D02*
X147320000Y-79248000D01*
X161290000Y-74515980D02*
X155364020Y-74515980D01*
X155364020Y-74515980D02*
X153035000Y-76845000D01*
D33*
X123190000Y-78740000D02*
X123190000Y-75565000D01*
X126365000Y-72390000D02*
X143002000Y-72390000D01*
X123190000Y-75565000D02*
X126365000Y-72390000D01*
X151130000Y-72390000D02*
X153035000Y-74295000D01*
X143002000Y-72390000D02*
X151130000Y-72390000D01*
X153035000Y-74295000D02*
X153035000Y-76845000D01*
D34*
X142875000Y-77470000D02*
X144760000Y-77470000D01*
X144760000Y-77470000D02*
X145415000Y-78125000D01*
X141770100Y-80010000D02*
X142240000Y-80010000D01*
X142240000Y-80010000D02*
X142875000Y-79375000D01*
X142875000Y-79375000D02*
X142875000Y-77470000D01*
X139145000Y-77470000D02*
X142875000Y-77470000D01*
D33*
X144145000Y-100965000D02*
X146050000Y-100965000D01*
X152400000Y-95250000D02*
X153670000Y-93980000D01*
X157490000Y-76845000D02*
X153035000Y-76845000D01*
X158750000Y-78105000D02*
X157490000Y-76845000D01*
X158750000Y-82550000D02*
X158750000Y-78105000D01*
X156845000Y-84455000D02*
X158750000Y-82550000D01*
X156845000Y-90170000D02*
X156845000Y-84455000D01*
X153670000Y-93345000D02*
X156845000Y-90170000D01*
X153670000Y-93980000D02*
X153670000Y-93345000D01*
X152400000Y-97155000D02*
X152400000Y-95250000D01*
X149860000Y-99695000D02*
X152400000Y-97155000D01*
X147320000Y-99695000D02*
X149860000Y-99695000D01*
X146050000Y-100965000D02*
X147320000Y-99695000D01*
D34*
X157480000Y-108605000D02*
X157480000Y-107950000D01*
X157480000Y-107950000D02*
X158730000Y-106700000D01*
X158730000Y-106700000D02*
X158730000Y-105410000D01*
D33*
X120650000Y-109855000D02*
X120650000Y-112395000D01*
X163195000Y-106680000D02*
X160655000Y-104140000D01*
X163195000Y-122555000D02*
X163195000Y-106680000D01*
X160020000Y-125730000D02*
X160020000Y-125730000D01*
X160020000Y-125730000D02*
X163195000Y-122555000D01*
X123825000Y-125730000D02*
X160020000Y-125730000D01*
X118745000Y-120650000D02*
X123825000Y-125730000D01*
X118745000Y-114300000D02*
X118745000Y-120650000D01*
X120650000Y-112395000D02*
X118745000Y-114300000D01*
X146685000Y-107950000D02*
X146685000Y-104140000D01*
X143510000Y-100965000D02*
X144145000Y-100965000D01*
X146685000Y-104140000D02*
X143510000Y-100965000D01*
X120015000Y-90160000D02*
X120015000Y-100965000D01*
X121920000Y-111125000D02*
X123825000Y-111125000D01*
X120650000Y-109855000D02*
X121920000Y-111125000D01*
X120650000Y-101600000D02*
X120650000Y-109855000D01*
X120015000Y-100965000D02*
X120650000Y-101600000D01*
X132715000Y-97290000D02*
X132715000Y-99695000D01*
X132715000Y-99695000D02*
X133985000Y-100965000D01*
X131920000Y-97290000D02*
X132715000Y-97290000D01*
X132715000Y-97290000D02*
X134170000Y-97290000D01*
X122575000Y-98425000D02*
X122575000Y-99715000D01*
X122575000Y-99715000D02*
X123825000Y-100965000D01*
X123825000Y-100965000D02*
X133985000Y-100965000D01*
X133985000Y-100965000D02*
X139192000Y-100965000D01*
X139192000Y-100965000D02*
X144145000Y-100965000D01*
X121295000Y-91440000D02*
X121295000Y-97145000D01*
X121295000Y-97145000D02*
X122575000Y-98425000D01*
X123190000Y-78740000D02*
X121920000Y-78740000D01*
X120015000Y-90160000D02*
X121295000Y-91440000D01*
X120015000Y-80645000D02*
X120015000Y-90160000D01*
X121920000Y-78740000D02*
X120015000Y-80645000D01*
X137795000Y-116920000D02*
X136605000Y-116920000D01*
X136605000Y-116920000D02*
X135255000Y-115570000D01*
X123825000Y-111125000D02*
X126365000Y-111125000D01*
X126365000Y-111125000D02*
X127000000Y-111760000D01*
X127000000Y-111760000D02*
X127000000Y-115570000D01*
X127000000Y-115570000D02*
X129540000Y-118110000D01*
X129540000Y-118110000D02*
X133985000Y-118110000D01*
X133985000Y-118110000D02*
X135255000Y-116840000D01*
X135255000Y-116840000D02*
X135255000Y-115570000D01*
X135255000Y-110500000D02*
X133340000Y-108585000D01*
X135255000Y-115570000D02*
X135255000Y-110500000D01*
X133330000Y-115570000D02*
X133330000Y-108595000D01*
X133330000Y-108595000D02*
X133340000Y-108585000D01*
X158730000Y-105410000D02*
X159385000Y-105410000D01*
X159385000Y-105410000D02*
X160655000Y-104140000D01*
X160655000Y-104140000D02*
X160655000Y-99705000D01*
X160655000Y-99705000D02*
X159375000Y-98425000D01*
D34*
X160595000Y-88900000D02*
X160595000Y-87309000D01*
X161290000Y-86614000D02*
X161290000Y-83265000D01*
X160595000Y-87309000D02*
X161290000Y-86614000D01*
D33*
X148385000Y-102440000D02*
X148590000Y-102235000D01*
X148385000Y-106045000D02*
X148385000Y-102440000D01*
X121920000Y-113665000D02*
X120650000Y-114935000D01*
X120650000Y-114935000D02*
X120650000Y-119380000D01*
X120650000Y-119380000D02*
X123190000Y-121920000D01*
X123190000Y-121920000D02*
X124460000Y-121920000D01*
X121920000Y-113665000D02*
X123825000Y-113665000D01*
D34*
X154305000Y-108505000D02*
X154305000Y-106680000D01*
X154305000Y-106680000D02*
X155575000Y-105410000D01*
X155575000Y-105410000D02*
X156230000Y-105410000D01*
D33*
X156230000Y-105410000D02*
X156230000Y-101620000D01*
X156230000Y-101620000D02*
X155575000Y-100965000D01*
X148385000Y-107950000D02*
X148385000Y-106045000D01*
X148385000Y-106045000D02*
X148385000Y-105615000D01*
X155575000Y-100965000D02*
X155575000Y-98425000D01*
X152400000Y-104140000D02*
X155575000Y-100965000D01*
X149860000Y-104140000D02*
X152400000Y-104140000D01*
X148385000Y-105615000D02*
X149860000Y-104140000D01*
X160595000Y-88900000D02*
X160595000Y-91500000D01*
X155575000Y-94615000D02*
X155575000Y-98425000D01*
X156845000Y-93345000D02*
X155575000Y-94615000D01*
X158750000Y-93345000D02*
X156845000Y-93345000D01*
X160595000Y-91500000D02*
X158750000Y-93345000D01*
X130830000Y-115570000D02*
X130175000Y-115570000D01*
X130175000Y-115570000D02*
X128905000Y-114300000D01*
X128905000Y-114300000D02*
X128905000Y-109220000D01*
X128905000Y-109220000D02*
X129540000Y-108585000D01*
X123825000Y-108585000D02*
X129540000Y-108585000D01*
X129540000Y-108585000D02*
X129540000Y-105410000D01*
X131445000Y-103505000D02*
X139065000Y-103505000D01*
X129540000Y-105410000D02*
X131445000Y-103505000D01*
X144985000Y-107950000D02*
X144985000Y-104980000D01*
X137795000Y-104775000D02*
X137795000Y-107870000D01*
X139065000Y-103505000D02*
X137795000Y-104775000D01*
X143510000Y-103505000D02*
X139065000Y-103505000D01*
X144985000Y-104980000D02*
X143510000Y-103505000D01*
D34*
X157480000Y-111105000D02*
X160167000Y-111105000D01*
X160167000Y-111105000D02*
X160274000Y-110998000D01*
X123825000Y-118491000D02*
X123825000Y-116205000D01*
X123825000Y-118491000D02*
X124968000Y-119634000D01*
X154305000Y-111205000D02*
X157380000Y-111205000D01*
X157380000Y-111205000D02*
X157480000Y-111105000D01*
X150085000Y-107950000D02*
X151130000Y-107950000D01*
X153115000Y-111205000D02*
X154305000Y-111205000D01*
X152400000Y-110490000D02*
X153115000Y-111205000D01*
X152400000Y-109220000D02*
X152400000Y-110490000D01*
X151130000Y-107950000D02*
X152400000Y-109220000D01*
X141770100Y-83820000D02*
X143510000Y-83820000D01*
X132795000Y-84535000D02*
X132795000Y-83820000D01*
X133985000Y-85725000D02*
X132795000Y-84535000D01*
X135890000Y-85725000D02*
X133985000Y-85725000D01*
X143510000Y-85725000D02*
X135890000Y-85725000D01*
X144145000Y-85090000D02*
X143510000Y-85725000D01*
X144145000Y-84455000D02*
X144145000Y-85090000D01*
X143510000Y-83820000D02*
X144145000Y-84455000D01*
X136359900Y-82550000D02*
X134065000Y-82550000D01*
X134065000Y-82550000D02*
X132795000Y-83820000D01*
X132795000Y-83820000D02*
X136359900Y-83820000D01*
X141770100Y-82550000D02*
X144018000Y-82550000D01*
X145288000Y-85344000D02*
X143002000Y-87630000D01*
X145288000Y-83820000D02*
X145288000Y-85344000D01*
X144018000Y-82550000D02*
X145288000Y-83820000D01*
X135852500Y-90132500D02*
X135890000Y-90095000D01*
D33*
X135890000Y-88900000D02*
X135890000Y-90095000D01*
X137160000Y-87630000D02*
X135890000Y-88900000D01*
X143002000Y-87630000D02*
X137160000Y-87630000D01*
D34*
X135852500Y-90132500D02*
X135882500Y-90132500D01*
D33*
X135882500Y-90132500D02*
X139095000Y-93345000D01*
X135852500Y-90132500D02*
X133045000Y-92940000D01*
D34*
X141770100Y-81280000D02*
X144760000Y-81280000D01*
X144760000Y-81280000D02*
X145415000Y-80625000D01*
X132795000Y-77470000D02*
X132795000Y-77009000D01*
X132795000Y-77009000D02*
X133858000Y-75946000D01*
X151638000Y-87443000D02*
X153095000Y-88900000D01*
X151638000Y-84836000D02*
X151638000Y-87443000D01*
X148336000Y-81534000D02*
X151638000Y-84836000D01*
X148336000Y-77978000D02*
X148336000Y-81534000D01*
X146304000Y-75946000D02*
X148336000Y-77978000D01*
X133858000Y-75946000D02*
X146304000Y-75946000D01*
D33*
X153035000Y-80645000D02*
X153035000Y-88840000D01*
X153035000Y-88840000D02*
X153095000Y-88900000D01*
X149195000Y-93345000D02*
X151130000Y-93345000D01*
X151130000Y-93345000D02*
X153095000Y-91380000D01*
X153095000Y-91380000D02*
X153095000Y-88900000D01*
D34*
X132795000Y-77470000D02*
X132795000Y-77390000D01*
X152400000Y-80645000D02*
X153035000Y-80645000D01*
X161290000Y-80565000D02*
X161290000Y-76614020D01*
X136445000Y-77470000D02*
X135255000Y-77470000D01*
X134620000Y-78105000D02*
X134620000Y-80010000D01*
X135255000Y-77470000D02*
X134620000Y-78105000D01*
X130095000Y-77470000D02*
X130095000Y-79295000D01*
X130810000Y-80010000D02*
X134620000Y-80010000D01*
X134620000Y-80010000D02*
X136359900Y-80010000D01*
X130095000Y-79295000D02*
X130810000Y-80010000D01*
D33*
X137795000Y-114220000D02*
X137795000Y-110570000D01*
X137795000Y-110570000D02*
X140255000Y-110570000D01*
X140255000Y-110570000D02*
X142875000Y-107950000D01*
X142875000Y-107950000D02*
X143285000Y-107950000D01*
D35*
X117602000Y-70612000D02*
X165608000Y-70612000D01*
X117602000Y-70815200D02*
X165608000Y-70815200D01*
X117602000Y-71018400D02*
X165608000Y-71018400D01*
X117602000Y-71221600D02*
X165608000Y-71221600D01*
X117602000Y-71424800D02*
X165608000Y-71424800D01*
X117602000Y-71628000D02*
X165608000Y-71628000D01*
X117602000Y-71831200D02*
X165608000Y-71831200D01*
X117602000Y-72034400D02*
X165608000Y-72034400D01*
X117602000Y-72237600D02*
X165608000Y-72237600D01*
X117602000Y-72440800D02*
X160001756Y-72440800D01*
X160734790Y-72440800D02*
X161845210Y-72440800D01*
X162578245Y-72440800D02*
X165608000Y-72440800D01*
X117602000Y-72644000D02*
X159662175Y-72644000D01*
X160937990Y-72644000D02*
X161642010Y-72644000D01*
X162917826Y-72644000D02*
X165608000Y-72644000D01*
X117602000Y-72847200D02*
X159458975Y-72847200D01*
X160990280Y-72847200D02*
X161589720Y-72847200D01*
X163121026Y-72847200D02*
X165608000Y-72847200D01*
X117602000Y-73050400D02*
X159288276Y-73050400D01*
X160990280Y-73050400D02*
X161589720Y-73050400D01*
X163291725Y-73050400D02*
X165608000Y-73050400D01*
X117602000Y-73253600D02*
X159204107Y-73253600D01*
X160990280Y-73253600D02*
X161589720Y-73253600D01*
X163375894Y-73253600D02*
X165608000Y-73253600D01*
X117602000Y-73456800D02*
X159119939Y-73456800D01*
X160990280Y-73456800D02*
X161589720Y-73456800D01*
X163460062Y-73456800D02*
X165608000Y-73456800D01*
X117602000Y-73660000D02*
X159063560Y-73660000D01*
X160990280Y-73660000D02*
X161589720Y-73660000D01*
X163516440Y-73660000D02*
X165608000Y-73660000D01*
X117602000Y-73863200D02*
X159117250Y-73863200D01*
X160990280Y-73863200D02*
X161589720Y-73863200D01*
X163462750Y-73863200D02*
X165608000Y-73863200D01*
X117602000Y-74066400D02*
X152116961Y-74066400D01*
X153889483Y-74066400D02*
X159320450Y-74066400D01*
X160990280Y-74066400D02*
X161589720Y-74066400D01*
X163259550Y-74066400D02*
X165608000Y-74066400D01*
X117602000Y-74269600D02*
X151824136Y-74269600D01*
X154245865Y-74269600D02*
X165608000Y-74269600D01*
X117602000Y-74472800D02*
X151779346Y-74472800D01*
X154290655Y-74472800D02*
X165608000Y-74472800D01*
X117602000Y-74676000D02*
X133327780Y-74676000D01*
X146834221Y-74676000D02*
X151764025Y-74676000D01*
X154305974Y-74676000D02*
X165608000Y-74676000D01*
X117602000Y-74879200D02*
X133023670Y-74879200D01*
X147138331Y-74879200D02*
X151967225Y-74879200D01*
X154102774Y-74879200D02*
X159406810Y-74879200D01*
X163173190Y-74879200D02*
X165608000Y-74879200D01*
X117602000Y-75082400D02*
X132774228Y-75082400D01*
X147387772Y-75082400D02*
X152170425Y-75082400D01*
X153899574Y-75082400D02*
X159203610Y-75082400D01*
X163376390Y-75082400D02*
X165608000Y-75082400D01*
X117602000Y-75285600D02*
X132571028Y-75285600D01*
X147590972Y-75285600D02*
X152373625Y-75285600D01*
X153696374Y-75285600D02*
X159063560Y-75285600D01*
X163516440Y-75285600D02*
X165608000Y-75285600D01*
X117602000Y-75488800D02*
X132367828Y-75488800D01*
X147794172Y-75488800D02*
X152576825Y-75488800D01*
X153493174Y-75488800D02*
X159084167Y-75488800D01*
X163495832Y-75488800D02*
X165608000Y-75488800D01*
X117602000Y-75692000D02*
X129232976Y-75692000D01*
X130949092Y-75692000D02*
X131932976Y-75692000D01*
X147997372Y-75692000D02*
X150321682Y-75692000D01*
X150983975Y-75692000D02*
X152780025Y-75692000D01*
X153289974Y-75692000D02*
X155086026Y-75692000D01*
X155753960Y-75692000D02*
X159168335Y-75692000D01*
X163411664Y-75692000D02*
X165608000Y-75692000D01*
X117602000Y-75895200D02*
X128700944Y-75895200D01*
X148200572Y-75895200D02*
X150277245Y-75895200D01*
X151187175Y-75895200D02*
X152983225Y-75895200D01*
X153086774Y-75895200D02*
X154882826Y-75895200D01*
X155807906Y-75895200D02*
X159252503Y-75895200D01*
X163327496Y-75895200D02*
X165608000Y-75895200D01*
X117602000Y-76098400D02*
X128474041Y-76098400D01*
X148403772Y-76098400D02*
X150232808Y-76098400D01*
X151390375Y-76098400D02*
X154679626Y-76098400D01*
X155844337Y-76098400D02*
X159372614Y-76098400D01*
X163207385Y-76098400D02*
X165608000Y-76098400D01*
X117602000Y-76301600D02*
X122210325Y-76301600D01*
X122341939Y-76301600D02*
X124038062Y-76301600D01*
X124169676Y-76301600D02*
X128335200Y-76301600D01*
X148606972Y-76301600D02*
X150188371Y-76301600D01*
X151593575Y-76301600D02*
X154476426Y-76301600D01*
X155880768Y-76301600D02*
X159541481Y-76301600D01*
X163038519Y-76301600D02*
X165608000Y-76301600D01*
X117602000Y-76504800D02*
X121876533Y-76504800D01*
X122616793Y-76504800D02*
X123763208Y-76504800D01*
X124503468Y-76504800D02*
X128259751Y-76504800D01*
X148810172Y-76504800D02*
X150143934Y-76504800D01*
X151796775Y-76504800D02*
X154273226Y-76504800D01*
X155917200Y-76504800D02*
X159541481Y-76504800D01*
X163038519Y-76504800D02*
X165608000Y-76504800D01*
X117602000Y-76708000D02*
X121542741Y-76708000D01*
X122682000Y-76708000D02*
X123698000Y-76708000D01*
X124837260Y-76708000D02*
X128218602Y-76708000D01*
X149013372Y-76708000D02*
X150099496Y-76708000D01*
X151999975Y-76708000D02*
X154070026Y-76708000D01*
X155953631Y-76708000D02*
X159541481Y-76708000D01*
X163038519Y-76708000D02*
X165608000Y-76708000D01*
X117602000Y-76911200D02*
X121315882Y-76911200D01*
X122682000Y-76911200D02*
X123698000Y-76911200D01*
X125064119Y-76911200D02*
X128195921Y-76911200D01*
X149216572Y-76911200D02*
X150103676Y-76911200D01*
X152070774Y-76911200D02*
X153999226Y-76911200D01*
X155985987Y-76911200D02*
X159541481Y-76911200D01*
X163038519Y-76911200D02*
X165608000Y-76911200D01*
X117602000Y-77114400D02*
X121167333Y-77114400D01*
X122682000Y-77114400D02*
X123698000Y-77114400D01*
X125212667Y-77114400D02*
X128195921Y-77114400D01*
X149383244Y-77114400D02*
X150140107Y-77114400D01*
X151867574Y-77114400D02*
X154202426Y-77114400D01*
X155941550Y-77114400D02*
X159541481Y-77114400D01*
X163038519Y-77114400D02*
X165608000Y-77114400D01*
X117602000Y-77317600D02*
X121018784Y-77317600D01*
X122682000Y-77317600D02*
X123698000Y-77317600D01*
X125361216Y-77317600D02*
X128195921Y-77317600D01*
X149519017Y-77317600D02*
X150176538Y-77317600D01*
X151891154Y-77317600D02*
X154178846Y-77317600D01*
X155897112Y-77317600D02*
X159561076Y-77317600D01*
X163017430Y-77317600D02*
X165608000Y-77317600D01*
X117602000Y-77520800D02*
X120870236Y-77520800D01*
X122682000Y-77520800D02*
X123698000Y-77520800D01*
X125509765Y-77520800D02*
X128195921Y-77520800D01*
X149622058Y-77520800D02*
X150212969Y-77520800D01*
X152094354Y-77520800D02*
X153975646Y-77520800D01*
X155852675Y-77520800D02*
X159599311Y-77520800D01*
X162976281Y-77520800D02*
X165608000Y-77520800D01*
X117602000Y-77724000D02*
X120752615Y-77724000D01*
X122682000Y-77724000D02*
X123698000Y-77724000D01*
X125833000Y-77724000D02*
X128195921Y-77724000D01*
X149662477Y-77724000D02*
X150249400Y-77724000D01*
X152297554Y-77724000D02*
X153772446Y-77724000D01*
X155808238Y-77724000D02*
X159679844Y-77724000D01*
X162904611Y-77724000D02*
X165608000Y-77724000D01*
X117602000Y-77927200D02*
X120779866Y-77927200D01*
X122682000Y-77927200D02*
X123698000Y-77927200D01*
X125954450Y-77927200D02*
X127029550Y-77927200D01*
X127217162Y-77927200D02*
X128195921Y-77927200D01*
X149702896Y-77927200D02*
X150286713Y-77927200D01*
X152500754Y-77927200D02*
X152850826Y-77927200D01*
X153219174Y-77927200D02*
X153569246Y-77927200D01*
X155763801Y-77927200D02*
X159810599Y-77927200D01*
X162765770Y-77927200D02*
X165608000Y-77927200D01*
X117602000Y-78130400D02*
X120934764Y-78130400D01*
X122682000Y-78130400D02*
X123698000Y-78130400D01*
X126157650Y-78130400D02*
X126826350Y-78130400D01*
X127707730Y-78130400D02*
X128197877Y-78130400D01*
X149713000Y-78130400D02*
X150161435Y-78130400D01*
X155908565Y-78130400D02*
X159913000Y-78130400D01*
X162667000Y-78130400D02*
X165608000Y-78130400D01*
X117602000Y-78333600D02*
X124206000Y-78333600D01*
X126329500Y-78333600D02*
X126654500Y-78333600D01*
X127929026Y-78333600D02*
X128236112Y-78333600D01*
X149713000Y-78333600D02*
X150349877Y-78333600D01*
X155720123Y-78333600D02*
X159913000Y-78333600D01*
X162667000Y-78333600D02*
X165608000Y-78333600D01*
X117602000Y-78536800D02*
X124206000Y-78536800D01*
X126329500Y-78536800D02*
X126654500Y-78536800D01*
X128132226Y-78536800D02*
X128274347Y-78536800D01*
X149713000Y-78536800D02*
X150553077Y-78536800D01*
X155516923Y-78536800D02*
X159913000Y-78536800D01*
X162667000Y-78536800D02*
X165608000Y-78536800D01*
X117602000Y-78740000D02*
X124206000Y-78740000D01*
X126329500Y-78740000D02*
X126654500Y-78740000D01*
X128253930Y-78740000D02*
X128404720Y-78740000D01*
X149713000Y-78740000D02*
X150756277Y-78740000D01*
X155313723Y-78740000D02*
X159913000Y-78740000D01*
X162667000Y-78740000D02*
X165608000Y-78740000D01*
X117602000Y-78943200D02*
X124206000Y-78943200D01*
X126329500Y-78943200D02*
X126654500Y-78943200D01*
X128338098Y-78943200D02*
X128553501Y-78943200D01*
X149713000Y-78943200D02*
X150703363Y-78943200D01*
X155366383Y-78943200D02*
X159913000Y-78943200D01*
X162667000Y-78943200D02*
X165608000Y-78943200D01*
X117602000Y-79146400D02*
X122006705Y-79146400D01*
X128422266Y-79146400D02*
X128718000Y-79146400D01*
X149713000Y-79146400D02*
X150662214Y-79146400D01*
X155411065Y-79146400D02*
X159732827Y-79146400D01*
X162849007Y-79146400D02*
X165608000Y-79146400D01*
X117602000Y-79349600D02*
X120934765Y-79349600D01*
X128291400Y-79349600D02*
X128728860Y-79349600D01*
X149713000Y-79349600D02*
X150621065Y-79349600D01*
X155449300Y-79349600D02*
X159593986Y-79349600D01*
X162979763Y-79349600D02*
X165608000Y-79349600D01*
X117602000Y-79552800D02*
X120779867Y-79552800D01*
X128088200Y-79552800D02*
X128769279Y-79552800D01*
X149713000Y-79552800D02*
X150615921Y-79552800D01*
X155454079Y-79552800D02*
X159544018Y-79552800D01*
X163039743Y-79552800D02*
X165608000Y-79552800D01*
X117602000Y-79756000D02*
X120752614Y-79756000D01*
X127887709Y-79756000D02*
X128809698Y-79756000D01*
X149713000Y-79756000D02*
X150615921Y-79756000D01*
X155454079Y-79756000D02*
X159502869Y-79756000D01*
X163077978Y-79756000D02*
X165608000Y-79756000D01*
X117602000Y-79959200D02*
X120870234Y-79959200D01*
X128230200Y-79959200D02*
X128914522Y-79959200D01*
X149713000Y-79959200D02*
X150615921Y-79959200D01*
X155454079Y-79959200D02*
X159490921Y-79959200D01*
X163089079Y-79959200D02*
X165608000Y-79959200D01*
X117602000Y-80162400D02*
X121018783Y-80162400D01*
X128433400Y-80162400D02*
X129050295Y-80162400D01*
X149713000Y-80162400D02*
X150615921Y-80162400D01*
X155454079Y-80162400D02*
X159490921Y-80162400D01*
X163089079Y-80162400D02*
X165608000Y-80162400D01*
X117602000Y-80365600D02*
X121024921Y-80365600D01*
X128363447Y-80365600D02*
X129218228Y-80365600D01*
X149713000Y-80365600D02*
X150615921Y-80365600D01*
X155454079Y-80365600D02*
X159490921Y-80365600D01*
X163089079Y-80365600D02*
X165608000Y-80365600D01*
X117602000Y-80568800D02*
X121024921Y-80568800D01*
X128279279Y-80568800D02*
X129421428Y-80568800D01*
X149713000Y-80568800D02*
X150615921Y-80568800D01*
X155454079Y-80568800D02*
X159490921Y-80568800D01*
X163089079Y-80568800D02*
X165608000Y-80568800D01*
X117602000Y-80772000D02*
X121024921Y-80772000D01*
X128193425Y-80772000D02*
X129370628Y-80772000D01*
X149713000Y-80772000D02*
X150615921Y-80772000D01*
X155454079Y-80772000D02*
X159490921Y-80772000D01*
X163089079Y-80772000D02*
X165608000Y-80772000D01*
X117602000Y-80975200D02*
X121024921Y-80975200D01*
X127990225Y-80975200D02*
X129167428Y-80975200D01*
X149724572Y-80975200D02*
X150615921Y-80975200D01*
X155454079Y-80975200D02*
X159490921Y-80975200D01*
X163089079Y-80975200D02*
X165608000Y-80975200D01*
X117602000Y-81178400D02*
X121024921Y-81178400D01*
X127787025Y-81178400D02*
X129016353Y-81178400D01*
X149927772Y-81178400D02*
X150615921Y-81178400D01*
X155454079Y-81178400D02*
X159490921Y-81178400D01*
X163089079Y-81178400D02*
X165608000Y-81178400D01*
X117602000Y-81381600D02*
X121024921Y-81381600D01*
X127698266Y-81381600D02*
X128880579Y-81381600D01*
X150130972Y-81381600D02*
X150615921Y-81381600D01*
X155454079Y-81381600D02*
X159503452Y-81381600D01*
X163075592Y-81381600D02*
X165608000Y-81381600D01*
X117602000Y-81584800D02*
X121024921Y-81584800D01*
X127624946Y-81584800D02*
X128799594Y-81584800D01*
X150334172Y-81584800D02*
X150615921Y-81584800D01*
X155454079Y-81584800D02*
X159541687Y-81584800D01*
X163034443Y-81584800D02*
X165608000Y-81584800D01*
X117602000Y-81788000D02*
X121024921Y-81788000D01*
X127489172Y-81788000D02*
X128759175Y-81788000D01*
X150537372Y-81788000D02*
X150615921Y-81788000D01*
X155454079Y-81788000D02*
X159605128Y-81788000D01*
X162980821Y-81788000D02*
X165608000Y-81788000D01*
X117602000Y-81991200D02*
X121024921Y-81991200D01*
X127332750Y-81991200D02*
X128718756Y-81991200D01*
X146982976Y-81991200D02*
X147049942Y-81991200D01*
X155438648Y-81991200D02*
X159633890Y-81991200D01*
X162942183Y-81991200D02*
X165608000Y-81991200D01*
X117602000Y-82194400D02*
X121024921Y-82194400D01*
X146844135Y-82194400D02*
X147152983Y-82194400D01*
X155397499Y-82194400D02*
X159555845Y-82194400D01*
X163028754Y-82194400D02*
X165608000Y-82194400D01*
X117602000Y-82397600D02*
X121044038Y-82397600D01*
X146532070Y-82397600D02*
X147288756Y-82397600D01*
X155339261Y-82397600D02*
X159514696Y-82397600D01*
X163066989Y-82397600D02*
X165608000Y-82397600D01*
X117602000Y-82600800D02*
X121082273Y-82600800D01*
X146016172Y-82600800D02*
X147455428Y-82600800D01*
X155200420Y-82600800D02*
X159490921Y-82600800D01*
X163089079Y-82600800D02*
X165608000Y-82600800D01*
X117602000Y-82804000D02*
X121161650Y-82804000D01*
X146219372Y-82804000D02*
X147658628Y-82804000D01*
X155004691Y-82804000D02*
X159490921Y-82804000D01*
X163089079Y-82804000D02*
X165608000Y-82804000D01*
X117602000Y-83007200D02*
X121292405Y-83007200D01*
X146369187Y-83007200D02*
X147861828Y-83007200D01*
X154662000Y-83007200D02*
X159490921Y-83007200D01*
X163089079Y-83007200D02*
X165608000Y-83007200D01*
X117602000Y-83210400D02*
X121515976Y-83210400D01*
X146504961Y-83210400D02*
X148065028Y-83210400D01*
X154662000Y-83210400D02*
X159490921Y-83210400D01*
X163089079Y-83210400D02*
X165608000Y-83210400D01*
X117602000Y-83413600D02*
X121563000Y-83413600D01*
X146584162Y-83413600D02*
X148268228Y-83413600D01*
X154662000Y-83413600D02*
X159490921Y-83413600D01*
X163089079Y-83413600D02*
X165608000Y-83413600D01*
X117602000Y-83616800D02*
X121563000Y-83616800D01*
X146624581Y-83616800D02*
X148471428Y-83616800D01*
X154662000Y-83616800D02*
X159490921Y-83616800D01*
X163089079Y-83616800D02*
X165608000Y-83616800D01*
X117602000Y-83820000D02*
X121563000Y-83820000D01*
X146665000Y-83820000D02*
X148674628Y-83820000D01*
X154662000Y-83820000D02*
X159490921Y-83820000D01*
X163089079Y-83820000D02*
X165608000Y-83820000D01*
X117602000Y-84023200D02*
X121563000Y-84023200D01*
X146665000Y-84023200D02*
X148877828Y-84023200D01*
X154662000Y-84023200D02*
X159492463Y-84023200D01*
X163087418Y-84023200D02*
X165608000Y-84023200D01*
X117602000Y-84226400D02*
X121563000Y-84226400D01*
X146665000Y-84226400D02*
X149081028Y-84226400D01*
X154662000Y-84226400D02*
X159530698Y-84226400D01*
X163046269Y-84226400D02*
X165608000Y-84226400D01*
X117602000Y-84429600D02*
X121563000Y-84429600D01*
X146665000Y-84429600D02*
X149284228Y-84429600D01*
X154662000Y-84429600D02*
X159568933Y-84429600D01*
X163005120Y-84429600D02*
X165608000Y-84429600D01*
X117602000Y-84632800D02*
X121563000Y-84632800D01*
X146665000Y-84632800D02*
X149487428Y-84632800D01*
X154662000Y-84632800D02*
X159698304Y-84632800D01*
X162881883Y-84632800D02*
X165608000Y-84632800D01*
X117602000Y-84836000D02*
X121563000Y-84836000D01*
X146665000Y-84836000D02*
X149690628Y-84836000D01*
X154662000Y-84836000D02*
X159845281Y-84836000D01*
X162743042Y-84836000D02*
X165608000Y-84836000D01*
X117602000Y-85039200D02*
X121563000Y-85039200D01*
X146665000Y-85039200D02*
X149893828Y-85039200D01*
X154662000Y-85039200D02*
X159913000Y-85039200D01*
X162667000Y-85039200D02*
X165608000Y-85039200D01*
X117602000Y-85242400D02*
X121593314Y-85242400D01*
X146665000Y-85242400D02*
X150097028Y-85242400D01*
X154662000Y-85242400D02*
X159913000Y-85242400D01*
X162667000Y-85242400D02*
X165608000Y-85242400D01*
X117602000Y-85445600D02*
X121633733Y-85445600D01*
X131410111Y-85445600D02*
X131476546Y-85445600D01*
X146644790Y-85445600D02*
X150261000Y-85445600D01*
X154662000Y-85445600D02*
X159913000Y-85445600D01*
X162667000Y-85445600D02*
X165608000Y-85445600D01*
X117602000Y-85648800D02*
X121674152Y-85648800D01*
X126049726Y-85648800D02*
X131961428Y-85648800D01*
X146604371Y-85648800D02*
X150261000Y-85648800D01*
X154662000Y-85648800D02*
X159913000Y-85648800D01*
X162667000Y-85648800D02*
X165608000Y-85648800D01*
X117602000Y-85852000D02*
X121779974Y-85852000D01*
X126250450Y-85852000D02*
X132164628Y-85852000D01*
X146563952Y-85852000D02*
X150261000Y-85852000D01*
X154662000Y-85852000D02*
X159913000Y-85852000D01*
X162667000Y-85852000D02*
X165608000Y-85852000D01*
X117602000Y-86055200D02*
X121915748Y-86055200D01*
X126386224Y-86055200D02*
X132367828Y-86055200D01*
X146437073Y-86055200D02*
X150261000Y-86055200D01*
X154662000Y-86055200D02*
X159901428Y-86055200D01*
X162667000Y-86055200D02*
X165608000Y-86055200D01*
X117602000Y-86258400D02*
X122057474Y-86258400D01*
X126521998Y-86258400D02*
X132571028Y-86258400D01*
X146301299Y-86258400D02*
X150261000Y-86258400D01*
X154662000Y-86258400D02*
X159698228Y-86258400D01*
X162667000Y-86258400D02*
X165608000Y-86258400D01*
X117602000Y-86461600D02*
X122260674Y-86461600D01*
X126615901Y-86461600D02*
X132774228Y-86461600D01*
X146117772Y-86461600D02*
X150261000Y-86461600D01*
X154662000Y-86461600D02*
X159536933Y-86461600D01*
X162667000Y-86461600D02*
X165608000Y-86461600D01*
X117602000Y-86664800D02*
X122463874Y-86664800D01*
X126656320Y-86664800D02*
X132977428Y-86664800D01*
X145914572Y-86664800D02*
X150261000Y-86664800D01*
X154662000Y-86664800D02*
X159401159Y-86664800D01*
X162656895Y-86664800D02*
X165608000Y-86664800D01*
X117602000Y-86868000D02*
X122667074Y-86868000D01*
X126696739Y-86868000D02*
X133264710Y-86868000D01*
X145711372Y-86868000D02*
X150261000Y-86868000D01*
X154850911Y-86868000D02*
X158847538Y-86868000D01*
X162616476Y-86868000D02*
X165608000Y-86868000D01*
X117602000Y-87071200D02*
X122870274Y-87071200D01*
X126722000Y-87071200D02*
X133830158Y-87071200D01*
X145508172Y-87071200D02*
X150261000Y-87071200D01*
X155148303Y-87071200D02*
X158531755Y-87071200D01*
X162648303Y-87071200D02*
X165608000Y-87071200D01*
X117602000Y-87274400D02*
X123073474Y-87274400D01*
X126722000Y-87274400D02*
X135214674Y-87274400D01*
X145304972Y-87274400D02*
X150261000Y-87274400D01*
X155301677Y-87274400D02*
X158388447Y-87274400D01*
X162801677Y-87274400D02*
X165608000Y-87274400D01*
X117602000Y-87477600D02*
X123276674Y-87477600D01*
X126722000Y-87477600D02*
X135011474Y-87477600D01*
X145101772Y-87477600D02*
X150267882Y-87477600D01*
X155432432Y-87477600D02*
X158261460Y-87477600D01*
X162932432Y-87477600D02*
X165608000Y-87477600D01*
X117602000Y-87680800D02*
X123468000Y-87680800D01*
X126722000Y-87680800D02*
X134808274Y-87680800D01*
X144898572Y-87680800D02*
X150308301Y-87680800D01*
X155472834Y-87680800D02*
X158220311Y-87680800D01*
X162972834Y-87680800D02*
X165608000Y-87680800D01*
X117602000Y-87884000D02*
X123468000Y-87884000D01*
X126722000Y-87884000D02*
X134649692Y-87884000D01*
X144695372Y-87884000D02*
X150348720Y-87884000D01*
X155511069Y-87884000D02*
X158179162Y-87884000D01*
X163011069Y-87884000D02*
X165608000Y-87884000D01*
X117602000Y-88087200D02*
X123468000Y-88087200D01*
X126722000Y-88087200D02*
X134513919Y-88087200D01*
X144538057Y-88087200D02*
X150444158Y-88087200D01*
X155514079Y-88087200D02*
X158175921Y-88087200D01*
X163014079Y-88087200D02*
X165608000Y-88087200D01*
X117602000Y-88290400D02*
X123468000Y-88290400D01*
X126722000Y-88290400D02*
X134384257Y-88290400D01*
X144479912Y-88290400D02*
X150579932Y-88290400D01*
X155514079Y-88290400D02*
X158175921Y-88290400D01*
X163014079Y-88290400D02*
X165608000Y-88290400D01*
X117602000Y-88493600D02*
X121312890Y-88493600D01*
X121382177Y-88493600D02*
X123468000Y-88493600D01*
X126722000Y-88493600D02*
X134343838Y-88493600D01*
X144344138Y-88493600D02*
X150675921Y-88493600D01*
X155514079Y-88493600D02*
X158175921Y-88493600D01*
X163014079Y-88493600D02*
X165608000Y-88493600D01*
X117602000Y-88696800D02*
X120200521Y-88696800D01*
X122311358Y-88696800D02*
X122450035Y-88696800D01*
X122725523Y-88696800D02*
X123468000Y-88696800D01*
X126722000Y-88696800D02*
X134303419Y-88696800D01*
X144208364Y-88696800D02*
X150675921Y-88696800D01*
X155514079Y-88696800D02*
X158175921Y-88696800D01*
X163014079Y-88696800D02*
X165608000Y-88696800D01*
X117602000Y-88900000D02*
X120076333Y-88900000D01*
X122928723Y-88900000D02*
X123468000Y-88900000D01*
X126722000Y-88900000D02*
X134263000Y-88900000D01*
X143973563Y-88900000D02*
X150675921Y-88900000D01*
X155514079Y-88900000D02*
X158175921Y-88900000D01*
X163014079Y-88900000D02*
X165608000Y-88900000D01*
X117602000Y-89103200D02*
X120031542Y-89103200D01*
X123131923Y-89103200D02*
X123401619Y-89103200D01*
X126771307Y-89103200D02*
X134263000Y-89103200D01*
X143669452Y-89103200D02*
X150675921Y-89103200D01*
X155514079Y-89103200D02*
X158175921Y-89103200D01*
X163014079Y-89103200D02*
X165608000Y-89103200D01*
X117602000Y-89306400D02*
X120059425Y-89306400D01*
X127097372Y-89306400D02*
X134263000Y-89306400D01*
X137784526Y-89306400D02*
X150675921Y-89306400D01*
X155514079Y-89306400D02*
X158175921Y-89306400D01*
X163014079Y-89306400D02*
X165608000Y-89306400D01*
X117602000Y-89509600D02*
X120262625Y-89509600D01*
X127279284Y-89509600D02*
X130887349Y-89509600D01*
X137581326Y-89509600D02*
X150675921Y-89509600D01*
X155514079Y-89509600D02*
X158175921Y-89509600D01*
X163014079Y-89509600D02*
X165608000Y-89509600D01*
X117602000Y-89712800D02*
X120465825Y-89712800D01*
X127410039Y-89712800D02*
X130612031Y-89712800D01*
X137763726Y-89712800D02*
X150675921Y-89712800D01*
X155514079Y-89712800D02*
X158175921Y-89712800D01*
X163014079Y-89712800D02*
X165608000Y-89712800D01*
X117602000Y-89916000D02*
X120669025Y-89916000D01*
X127466286Y-89916000D02*
X130473190Y-89916000D01*
X137966926Y-89916000D02*
X150678931Y-89916000D01*
X155510838Y-89916000D02*
X158178931Y-89916000D01*
X163010838Y-89916000D02*
X165608000Y-89916000D01*
X117602000Y-90119200D02*
X120872225Y-90119200D01*
X127504521Y-90119200D02*
X130371010Y-90119200D01*
X138170126Y-90119200D02*
X150717166Y-90119200D01*
X155469689Y-90119200D02*
X158217166Y-90119200D01*
X162969689Y-90119200D02*
X165608000Y-90119200D01*
X117602000Y-90322400D02*
X118573941Y-90322400D01*
X119279375Y-90322400D02*
X121075425Y-90322400D01*
X121514574Y-90322400D02*
X121793846Y-90322400D01*
X127514079Y-90322400D02*
X130329861Y-90322400D01*
X138373326Y-90322400D02*
X150757568Y-90322400D01*
X155428540Y-90322400D02*
X158257568Y-90322400D01*
X162928540Y-90322400D02*
X165608000Y-90322400D01*
X117602000Y-90525600D02*
X118529504Y-90525600D01*
X119482575Y-90525600D02*
X121278625Y-90525600D01*
X121311374Y-90525600D02*
X121997046Y-90525600D01*
X127514079Y-90525600D02*
X130295921Y-90525600D01*
X138576526Y-90525600D02*
X150888324Y-90525600D01*
X155301553Y-90525600D02*
X158388323Y-90525600D01*
X162801553Y-90525600D02*
X165608000Y-90525600D01*
X117602000Y-90728800D02*
X118485066Y-90728800D01*
X119685775Y-90728800D02*
X122200246Y-90728800D01*
X127514079Y-90728800D02*
X130295921Y-90728800D01*
X141699165Y-90728800D02*
X146591971Y-90728800D01*
X155158245Y-90728800D02*
X158541697Y-90728800D01*
X162658245Y-90728800D02*
X165608000Y-90728800D01*
X117602000Y-90932000D02*
X118440629Y-90932000D01*
X119888975Y-90932000D02*
X122403446Y-90932000D01*
X127514079Y-90932000D02*
X130295921Y-90932000D01*
X141952915Y-90932000D02*
X146342079Y-90932000D01*
X154842462Y-90932000D02*
X158839089Y-90932000D01*
X162342462Y-90932000D02*
X165608000Y-90932000D01*
X117602000Y-91135200D02*
X118396192Y-91135200D01*
X120092175Y-91135200D02*
X122497826Y-91135200D01*
X127514079Y-91135200D02*
X130295921Y-91135200D01*
X142083670Y-91135200D02*
X146203238Y-91135200D01*
X154722000Y-91135200D02*
X158658874Y-91135200D01*
X162222000Y-91135200D02*
X165608000Y-91135200D01*
X117602000Y-91338400D02*
X118351755Y-91338400D01*
X120295375Y-91338400D02*
X122294626Y-91338400D01*
X127514079Y-91338400D02*
X130295921Y-91338400D01*
X142179803Y-91338400D02*
X146115097Y-91338400D01*
X154722000Y-91338400D02*
X158455674Y-91338400D01*
X162222000Y-91338400D02*
X165608000Y-91338400D01*
X117602000Y-91541600D02*
X118370023Y-91541600D01*
X120295374Y-91541600D02*
X122294626Y-91541600D01*
X127514079Y-91541600D02*
X130295921Y-91541600D01*
X142218038Y-91541600D02*
X146073948Y-91541600D01*
X154689856Y-91541600D02*
X158252474Y-91541600D01*
X162213725Y-91541600D02*
X165608000Y-91541600D01*
X117602000Y-91744800D02*
X118406454Y-91744800D01*
X120092174Y-91744800D02*
X122497826Y-91744800D01*
X127514079Y-91744800D02*
X130295921Y-91744800D01*
X142244079Y-91744800D02*
X146045921Y-91744800D01*
X154649437Y-91744800D02*
X156710268Y-91744800D01*
X162173306Y-91744800D02*
X165608000Y-91744800D01*
X117602000Y-91948000D02*
X118442885Y-91948000D01*
X119888974Y-91948000D02*
X122403446Y-91948000D01*
X127514079Y-91948000D02*
X130295921Y-91948000D01*
X142244079Y-91948000D02*
X146045921Y-91948000D01*
X154609017Y-91948000D02*
X156063507Y-91948000D01*
X162132887Y-91948000D02*
X165608000Y-91948000D01*
X117602000Y-92151200D02*
X118479316Y-92151200D01*
X119685774Y-92151200D02*
X122200246Y-92151200D01*
X127514079Y-92151200D02*
X130295921Y-92151200D01*
X142244079Y-92151200D02*
X146045921Y-92151200D01*
X154498878Y-92151200D02*
X155759396Y-92151200D01*
X162079059Y-92151200D02*
X165608000Y-92151200D01*
X117602000Y-92354400D02*
X118515747Y-92354400D01*
X119482574Y-92354400D02*
X121278626Y-92354400D01*
X121311374Y-92354400D02*
X121997046Y-92354400D01*
X127514079Y-92354400D02*
X130295921Y-92354400D01*
X142244079Y-92354400D02*
X146045921Y-92354400D01*
X154363104Y-92354400D02*
X155534674Y-92354400D01*
X161943285Y-92354400D02*
X165608000Y-92354400D01*
X117602000Y-92557600D02*
X118561376Y-92557600D01*
X119279374Y-92557600D02*
X121075426Y-92557600D01*
X121514574Y-92557600D02*
X121793846Y-92557600D01*
X127514079Y-92557600D02*
X130295921Y-92557600D01*
X135794079Y-92557600D02*
X135945921Y-92557600D01*
X142244079Y-92557600D02*
X146045921Y-92557600D01*
X154218325Y-92557600D02*
X155331474Y-92557600D01*
X161807512Y-92557600D02*
X165608000Y-92557600D01*
X117602000Y-92760800D02*
X120872226Y-92760800D01*
X127503791Y-92760800D02*
X130295921Y-92760800D01*
X135794079Y-92760800D02*
X135945921Y-92760800D01*
X142244079Y-92760800D02*
X146045921Y-92760800D01*
X154015125Y-92760800D02*
X155128274Y-92760800D01*
X161635126Y-92760800D02*
X165608000Y-92760800D01*
X117602000Y-92964000D02*
X120669026Y-92964000D01*
X127462642Y-92964000D02*
X130295921Y-92964000D01*
X135794079Y-92964000D02*
X135945921Y-92964000D01*
X142244079Y-92964000D02*
X146045921Y-92964000D01*
X153811925Y-92964000D02*
X154925074Y-92964000D01*
X161431926Y-92964000D02*
X165608000Y-92964000D01*
X117602000Y-93167200D02*
X120465826Y-93167200D01*
X127416616Y-93167200D02*
X130295921Y-93167200D01*
X135794079Y-93167200D02*
X135945921Y-93167200D01*
X142244079Y-93167200D02*
X146045921Y-93167200D01*
X153608725Y-93167200D02*
X154721874Y-93167200D01*
X161228726Y-93167200D02*
X165608000Y-93167200D01*
X117602000Y-93370400D02*
X120262626Y-93370400D01*
X127277776Y-93370400D02*
X130295921Y-93370400D01*
X135794079Y-93370400D02*
X135945921Y-93370400D01*
X142244079Y-93370400D02*
X146045921Y-93370400D01*
X153405525Y-93370400D02*
X154518674Y-93370400D01*
X161025526Y-93370400D02*
X165608000Y-93370400D01*
X117602000Y-93573600D02*
X120059426Y-93573600D01*
X127104164Y-93573600D02*
X130295921Y-93573600D01*
X135794079Y-93573600D02*
X135945921Y-93573600D01*
X142244079Y-93573600D02*
X146045921Y-93573600D01*
X153202325Y-93573600D02*
X154351664Y-93573600D01*
X160822326Y-93573600D02*
X165608000Y-93573600D01*
X117602000Y-93776800D02*
X120031541Y-93776800D01*
X123131923Y-93776800D02*
X123418693Y-93776800D01*
X126788381Y-93776800D02*
X130295921Y-93776800D01*
X135794079Y-93776800D02*
X135945921Y-93776800D01*
X142244079Y-93776800D02*
X146045921Y-93776800D01*
X152999125Y-93776800D02*
X154215890Y-93776800D01*
X160619126Y-93776800D02*
X165608000Y-93776800D01*
X117602000Y-93980000D02*
X120076332Y-93980000D01*
X122928723Y-93980000D02*
X123468000Y-93980000D01*
X126722000Y-93980000D02*
X130295921Y-93980000D01*
X135794079Y-93980000D02*
X135945921Y-93980000D01*
X142244079Y-93980000D02*
X146045921Y-93980000D01*
X152795925Y-93980000D02*
X154080117Y-93980000D01*
X160415926Y-93980000D02*
X165608000Y-93980000D01*
X117602000Y-94183200D02*
X120278642Y-94183200D01*
X122389479Y-94183200D02*
X122450035Y-94183200D01*
X122725523Y-94183200D02*
X123468000Y-94183200D01*
X126722000Y-94183200D02*
X130295921Y-94183200D01*
X135794079Y-94183200D02*
X135945921Y-94183200D01*
X142244079Y-94183200D02*
X146045921Y-94183200D01*
X152592725Y-94183200D02*
X154033891Y-94183200D01*
X160212726Y-94183200D02*
X165608000Y-94183200D01*
X117602000Y-94386400D02*
X121207823Y-94386400D01*
X121277110Y-94386400D02*
X123468000Y-94386400D01*
X126722000Y-94386400D02*
X130295921Y-94386400D01*
X135794079Y-94386400D02*
X135945921Y-94386400D01*
X142244079Y-94386400D02*
X146045921Y-94386400D01*
X152389525Y-94386400D02*
X153993472Y-94386400D01*
X160009526Y-94386400D02*
X165608000Y-94386400D01*
X117602000Y-94589600D02*
X123468000Y-94589600D01*
X126722000Y-94589600D02*
X130295921Y-94589600D01*
X135794079Y-94589600D02*
X135945921Y-94589600D01*
X142244079Y-94589600D02*
X146045921Y-94589600D01*
X152344079Y-94589600D02*
X153953053Y-94589600D01*
X159759576Y-94589600D02*
X165608000Y-94589600D01*
X117602000Y-94792800D02*
X123468000Y-94792800D01*
X126722000Y-94792800D02*
X130295921Y-94792800D01*
X135794079Y-94792800D02*
X135945921Y-94792800D01*
X142244079Y-94792800D02*
X146045921Y-94792800D01*
X152344079Y-94792800D02*
X153948000Y-94792800D01*
X159455466Y-94792800D02*
X165608000Y-94792800D01*
X117602000Y-94996000D02*
X123468000Y-94996000D01*
X126722000Y-94996000D02*
X130295921Y-94996000D01*
X135794079Y-94996000D02*
X135945921Y-94996000D01*
X142244079Y-94996000D02*
X146045921Y-94996000D01*
X152344079Y-94996000D02*
X153948000Y-94996000D01*
X157494926Y-94996000D02*
X165608000Y-94996000D01*
X117602000Y-95199200D02*
X123468000Y-95199200D01*
X126722000Y-95199200D02*
X130295921Y-95199200D01*
X135794079Y-95199200D02*
X135981521Y-95199200D01*
X142205765Y-95199200D02*
X146081521Y-95199200D01*
X152305765Y-95199200D02*
X153948000Y-95199200D01*
X157291726Y-95199200D02*
X165608000Y-95199200D01*
X117602000Y-95402400D02*
X123468000Y-95402400D01*
X126722000Y-95402400D02*
X130298254Y-95402400D01*
X135791567Y-95402400D02*
X136019756Y-95402400D01*
X142164616Y-95402400D02*
X146119756Y-95402400D01*
X152264616Y-95402400D02*
X153948000Y-95402400D01*
X157202000Y-95402400D02*
X165608000Y-95402400D01*
X117602000Y-95605600D02*
X123468000Y-95605600D01*
X126722000Y-95605600D02*
X130328475Y-95605600D01*
X135761525Y-95605600D02*
X136139019Y-95605600D01*
X142052052Y-95605600D02*
X146239019Y-95605600D01*
X152152052Y-95605600D02*
X153948000Y-95605600D01*
X157202000Y-95605600D02*
X158020677Y-95605600D01*
X158143765Y-95605600D02*
X158684529Y-95605600D01*
X160042915Y-95605600D02*
X165608000Y-95605600D01*
X117602000Y-95808800D02*
X123468000Y-95808800D01*
X126722000Y-95808800D02*
X130125275Y-95808800D01*
X135964725Y-95808800D02*
X136269774Y-95808800D01*
X141913211Y-95808800D02*
X146369774Y-95808800D01*
X152013211Y-95808800D02*
X153948000Y-95808800D01*
X157202000Y-95808800D02*
X157817477Y-95808800D01*
X160576871Y-95808800D02*
X165608000Y-95808800D01*
X117602000Y-96012000D02*
X123468000Y-96012000D01*
X126722000Y-96012000D02*
X130006207Y-96012000D01*
X136083794Y-96012000D02*
X136565183Y-96012000D01*
X141619083Y-96012000D02*
X146665183Y-96012000D01*
X151719083Y-96012000D02*
X153948000Y-96012000D01*
X157202000Y-96012000D02*
X157614277Y-96012000D01*
X160621662Y-96012000D02*
X165608000Y-96012000D01*
X117602000Y-96215200D02*
X121399491Y-96215200D01*
X121835450Y-96215200D02*
X123314550Y-96215200D01*
X126722000Y-96215200D02*
X129922039Y-96215200D01*
X136167962Y-96215200D02*
X153684255Y-96215200D01*
X160666453Y-96215200D02*
X165608000Y-96215200D01*
X117602000Y-96418400D02*
X120908923Y-96418400D01*
X122038650Y-96418400D02*
X123111350Y-96418400D01*
X126722000Y-96418400D02*
X129837870Y-96418400D01*
X136252131Y-96418400D02*
X153444290Y-96418400D01*
X160483574Y-96418400D02*
X165608000Y-96418400D01*
X117602000Y-96621600D02*
X120702475Y-96621600D01*
X122200000Y-96621600D02*
X122950000Y-96621600D01*
X126722000Y-96621600D02*
X129818000Y-96621600D01*
X136272000Y-96621600D02*
X153305449Y-96621600D01*
X160280374Y-96621600D02*
X165608000Y-96621600D01*
X117602000Y-96824800D02*
X120499275Y-96824800D01*
X122200000Y-96824800D02*
X122950000Y-96824800D01*
X126722000Y-96824800D02*
X130009550Y-96824800D01*
X131682500Y-96824800D02*
X132157500Y-96824800D01*
X133932500Y-96824800D02*
X134407500Y-96824800D01*
X136080450Y-96824800D02*
X153222789Y-96824800D01*
X160077174Y-96824800D02*
X165608000Y-96824800D01*
X117602000Y-97028000D02*
X120383721Y-97028000D01*
X122200000Y-97028000D02*
X122950000Y-97028000D01*
X126722000Y-97028000D02*
X130212750Y-97028000D01*
X131682500Y-97028000D02*
X132157500Y-97028000D01*
X133932500Y-97028000D02*
X134407500Y-97028000D01*
X135877250Y-97028000D02*
X153181640Y-97028000D01*
X159873974Y-97028000D02*
X165608000Y-97028000D01*
X117602000Y-97231200D02*
X120299553Y-97231200D01*
X122200000Y-97231200D02*
X122950000Y-97231200D01*
X126798227Y-97231200D02*
X153155921Y-97231200D01*
X158952354Y-97231200D02*
X159079226Y-97231200D01*
X159670774Y-97231200D02*
X161466826Y-97231200D01*
X162027814Y-97231200D02*
X165608000Y-97231200D01*
X117602000Y-97434400D02*
X120215385Y-97434400D01*
X122200000Y-97434400D02*
X122950000Y-97434400D01*
X126905287Y-97434400D02*
X153155921Y-97434400D01*
X158749154Y-97434400D02*
X159282426Y-97434400D01*
X159467574Y-97434400D02*
X161263626Y-97434400D01*
X162140591Y-97434400D02*
X165608000Y-97434400D01*
X117602000Y-97637600D02*
X120198000Y-97637600D01*
X122200000Y-97637600D02*
X122950000Y-97637600D01*
X126943522Y-97637600D02*
X130127150Y-97637600D01*
X131682500Y-97637600D02*
X132157500Y-97637600D01*
X133932500Y-97637600D02*
X134407500Y-97637600D01*
X135962850Y-97637600D02*
X153155921Y-97637600D01*
X158545954Y-97637600D02*
X161060426Y-97637600D01*
X162177022Y-97637600D02*
X165608000Y-97637600D01*
X117602000Y-97840800D02*
X120333050Y-97840800D01*
X122200000Y-97840800D02*
X122950000Y-97840800D01*
X126974079Y-97840800D02*
X129923950Y-97840800D01*
X131682500Y-97840800D02*
X132157500Y-97840800D01*
X133932500Y-97840800D02*
X134407500Y-97840800D01*
X136166050Y-97840800D02*
X153155921Y-97840800D01*
X158342754Y-97840800D02*
X160857226Y-97840800D01*
X162213454Y-97840800D02*
X165608000Y-97840800D01*
X117602000Y-98044000D02*
X120536250Y-98044000D01*
X122200000Y-98044000D02*
X122950000Y-98044000D01*
X126974079Y-98044000D02*
X129818000Y-98044000D01*
X131682500Y-98044000D02*
X132068000Y-98044000D01*
X134022000Y-98044000D02*
X134407500Y-98044000D01*
X136272000Y-98044000D02*
X153155921Y-98044000D01*
X158139554Y-98044000D02*
X160654026Y-98044000D01*
X162249885Y-98044000D02*
X165608000Y-98044000D01*
X117602000Y-98247200D02*
X123175921Y-98247200D01*
X126974079Y-98247200D02*
X129873326Y-98247200D01*
X131682500Y-98247200D02*
X132123326Y-98247200D01*
X133966673Y-98247200D02*
X134407500Y-98247200D01*
X136216673Y-98247200D02*
X153155921Y-98247200D01*
X158299174Y-98247200D02*
X160450826Y-98247200D01*
X162286316Y-98247200D02*
X165608000Y-98247200D01*
X117602000Y-98450400D02*
X123175921Y-98450400D01*
X126974079Y-98450400D02*
X129957494Y-98450400D01*
X131682500Y-98450400D02*
X132157500Y-98450400D01*
X133932500Y-98450400D02*
X134407500Y-98450400D01*
X136132505Y-98450400D02*
X153155921Y-98450400D01*
X158451574Y-98450400D02*
X160298425Y-98450400D01*
X162322747Y-98450400D02*
X165608000Y-98450400D01*
X117602000Y-98653600D02*
X123175921Y-98653600D01*
X126974079Y-98653600D02*
X130041662Y-98653600D01*
X131682500Y-98653600D02*
X132157500Y-98653600D01*
X133932500Y-98653600D02*
X134407500Y-98653600D01*
X136048337Y-98653600D02*
X153155921Y-98653600D01*
X158248374Y-98653600D02*
X160501625Y-98653600D01*
X162290472Y-98653600D02*
X165608000Y-98653600D01*
X117602000Y-98856800D02*
X120485450Y-98856800D01*
X122200000Y-98856800D02*
X122950000Y-98856800D01*
X126974079Y-98856800D02*
X130210874Y-98856800D01*
X131682500Y-98856800D02*
X132157500Y-98856800D01*
X133932500Y-98856800D02*
X134407500Y-98856800D01*
X135879125Y-98856800D02*
X153155921Y-98856800D01*
X158190354Y-98856800D02*
X160704825Y-98856800D01*
X162246035Y-98856800D02*
X165608000Y-98856800D01*
X117602000Y-99060000D02*
X120282250Y-99060000D01*
X122200000Y-99060000D02*
X122950000Y-99060000D01*
X126972053Y-99060000D02*
X130414074Y-99060000D01*
X131632750Y-99060000D02*
X132207250Y-99060000D01*
X133882750Y-99060000D02*
X134457250Y-99060000D01*
X135675925Y-99060000D02*
X153155921Y-99060000D01*
X158393554Y-99060000D02*
X160908025Y-99060000D01*
X162201597Y-99060000D02*
X165608000Y-99060000D01*
X117602000Y-99263200D02*
X120198000Y-99263200D01*
X122200000Y-99263200D02*
X122950000Y-99263200D01*
X126930904Y-99263200D02*
X130750062Y-99263200D01*
X131429550Y-99263200D02*
X132410450Y-99263200D01*
X133679550Y-99263200D02*
X134660450Y-99263200D01*
X135339937Y-99263200D02*
X153155921Y-99263200D01*
X158596754Y-99263200D02*
X161111225Y-99263200D01*
X162157160Y-99263200D02*
X165608000Y-99263200D01*
X117602000Y-99466400D02*
X120236426Y-99466400D01*
X122200000Y-99466400D02*
X122950000Y-99466400D01*
X126889755Y-99466400D02*
X153155921Y-99466400D01*
X158799954Y-99466400D02*
X159231626Y-99466400D01*
X159518375Y-99466400D02*
X161314425Y-99466400D01*
X162112723Y-99466400D02*
X165608000Y-99466400D01*
X117602000Y-99669600D02*
X120320594Y-99669600D01*
X122200000Y-99669600D02*
X122950000Y-99669600D01*
X126765653Y-99669600D02*
X153155921Y-99669600D01*
X159003154Y-99669600D02*
X159028426Y-99669600D01*
X159721575Y-99669600D02*
X161517625Y-99669600D01*
X161797352Y-99669600D02*
X165608000Y-99669600D01*
X117602000Y-99872800D02*
X120404762Y-99872800D01*
X122200000Y-99872800D02*
X122950000Y-99872800D01*
X126626812Y-99872800D02*
X153189376Y-99872800D01*
X159924775Y-99872800D02*
X165608000Y-99872800D01*
X117602000Y-100076000D02*
X120550074Y-100076000D01*
X122200000Y-100076000D02*
X122950000Y-100076000D01*
X126311786Y-100076000D02*
X153227611Y-100076000D01*
X160127975Y-100076000D02*
X165608000Y-100076000D01*
X117602000Y-100279200D02*
X120753274Y-100279200D01*
X122191050Y-100279200D02*
X122958950Y-100279200D01*
X124396725Y-100279200D02*
X153341683Y-100279200D01*
X160331175Y-100279200D02*
X165608000Y-100279200D01*
X117602000Y-100482400D02*
X121031564Y-100482400D01*
X121987850Y-100482400D02*
X123162150Y-100482400D01*
X124118435Y-100482400D02*
X147785489Y-100482400D01*
X149394180Y-100482400D02*
X153472438Y-100482400D01*
X160534375Y-100482400D02*
X165608000Y-100482400D01*
X117602000Y-100685600D02*
X147414536Y-100685600D01*
X149766116Y-100685600D02*
X153553474Y-100685600D01*
X160655254Y-100685600D02*
X165608000Y-100685600D01*
X117602000Y-100888800D02*
X147210981Y-100888800D01*
X149968963Y-100888800D02*
X153350274Y-100888800D01*
X157660606Y-100888800D02*
X157665077Y-100888800D01*
X160610463Y-100888800D02*
X165608000Y-100888800D01*
X117602000Y-101092000D02*
X147007427Y-101092000D01*
X150171809Y-101092000D02*
X153147074Y-101092000D01*
X157751975Y-101092000D02*
X157868277Y-101092000D01*
X160565672Y-101092000D02*
X165608000Y-101092000D01*
X117602000Y-101295200D02*
X146893715Y-101295200D01*
X150286700Y-101295200D02*
X152943874Y-101295200D01*
X157792394Y-101295200D02*
X158071477Y-101295200D01*
X158092965Y-101295200D02*
X158939380Y-101295200D01*
X159782126Y-101295200D02*
X165608000Y-101295200D01*
X117602000Y-101498400D02*
X146809339Y-101498400D01*
X150370661Y-101498400D02*
X152740674Y-101498400D01*
X157832813Y-101498400D02*
X165608000Y-101498400D01*
X117602000Y-101701600D02*
X146724963Y-101701600D01*
X150454621Y-101701600D02*
X152537474Y-101701600D01*
X157857000Y-101701600D02*
X165608000Y-101701600D01*
X117602000Y-101904800D02*
X131310268Y-101904800D01*
X143644733Y-101904800D02*
X146663288Y-101904800D01*
X150517289Y-101904800D02*
X152334274Y-101904800D01*
X157857000Y-101904800D02*
X165608000Y-101904800D01*
X117602000Y-102108000D02*
X130663507Y-102108000D01*
X144291494Y-102108000D02*
X146663110Y-102108000D01*
X150517111Y-102108000D02*
X152131074Y-102108000D01*
X157857000Y-102108000D02*
X165608000Y-102108000D01*
X117602000Y-102311200D02*
X130359396Y-102311200D01*
X144595605Y-102311200D02*
X146662933Y-102311200D01*
X150516934Y-102311200D02*
X151927874Y-102311200D01*
X157857000Y-102311200D02*
X165608000Y-102311200D01*
X117602000Y-102514400D02*
X130134674Y-102514400D01*
X144820326Y-102514400D02*
X146662756Y-102514400D01*
X157857000Y-102514400D02*
X165608000Y-102514400D01*
X117602000Y-102717600D02*
X129931474Y-102717600D01*
X145023526Y-102717600D02*
X146704389Y-102717600D01*
X157857000Y-102717600D02*
X165608000Y-102717600D01*
X117602000Y-102920800D02*
X129728274Y-102920800D01*
X145226726Y-102920800D02*
X146758000Y-102920800D01*
X157857000Y-102920800D02*
X165608000Y-102920800D01*
X117602000Y-103124000D02*
X129525074Y-103124000D01*
X145429926Y-103124000D02*
X146758000Y-103124000D01*
X157857000Y-103124000D02*
X165608000Y-103124000D01*
X117602000Y-103327200D02*
X129321874Y-103327200D01*
X145633126Y-103327200D02*
X146758000Y-103327200D01*
X158117450Y-103327200D02*
X159342550Y-103327200D01*
X160212115Y-103327200D02*
X165608000Y-103327200D01*
X117602000Y-103530400D02*
X129118674Y-103530400D01*
X145836326Y-103530400D02*
X146758000Y-103530400D01*
X158320650Y-103530400D02*
X159139350Y-103530400D01*
X160526326Y-103530400D02*
X165608000Y-103530400D01*
X117602000Y-103733600D02*
X128915474Y-103733600D01*
X146039526Y-103733600D02*
X146758000Y-103733600D01*
X158355000Y-103733600D02*
X159105000Y-103733600D01*
X160729526Y-103733600D02*
X165608000Y-103733600D01*
X117602000Y-103936800D02*
X128712274Y-103936800D01*
X146207134Y-103936800D02*
X146758000Y-103936800D01*
X158355000Y-103936800D02*
X159105000Y-103936800D01*
X160889717Y-103936800D02*
X165608000Y-103936800D01*
X117602000Y-104140000D02*
X128509074Y-104140000D01*
X146342908Y-104140000D02*
X146758000Y-104140000D01*
X158355000Y-104140000D02*
X159105000Y-104140000D01*
X160973885Y-104140000D02*
X165608000Y-104140000D01*
X117602000Y-104343200D02*
X128333636Y-104343200D01*
X146478682Y-104343200D02*
X146758000Y-104343200D01*
X158355000Y-104343200D02*
X159105000Y-104343200D01*
X161058053Y-104343200D02*
X165608000Y-104343200D01*
X117602000Y-104546400D02*
X128197862Y-104546400D01*
X146525752Y-104546400D02*
X146758000Y-104546400D01*
X158355000Y-104546400D02*
X159105000Y-104546400D01*
X161107000Y-104546400D02*
X165608000Y-104546400D01*
X117602000Y-104749600D02*
X128062088Y-104749600D01*
X146566171Y-104749600D02*
X146758000Y-104749600D01*
X158355000Y-104749600D02*
X159105000Y-104749600D01*
X161048150Y-104749600D02*
X165608000Y-104749600D01*
X117602000Y-104952800D02*
X128003943Y-104952800D01*
X146606590Y-104952800D02*
X146758000Y-104952800D01*
X158355000Y-104952800D02*
X159105000Y-104952800D01*
X160844950Y-104952800D02*
X165608000Y-104952800D01*
X117602000Y-105156000D02*
X127963524Y-105156000D01*
X132094926Y-105156000D02*
X136168000Y-105156000D01*
X146612000Y-105156000D02*
X146758000Y-105156000D01*
X158129079Y-105156000D02*
X165608000Y-105156000D01*
X117602000Y-105359200D02*
X127923105Y-105359200D01*
X131891726Y-105359200D02*
X136168000Y-105359200D01*
X146612000Y-105359200D02*
X146758000Y-105359200D01*
X158129079Y-105359200D02*
X165608000Y-105359200D01*
X117602000Y-105562400D02*
X127913000Y-105562400D01*
X131688526Y-105562400D02*
X136168000Y-105562400D01*
X146612000Y-105562400D02*
X146758000Y-105562400D01*
X158129079Y-105562400D02*
X165608000Y-105562400D01*
X117602000Y-105765600D02*
X127913000Y-105765600D01*
X131485326Y-105765600D02*
X131985677Y-105765600D01*
X132108765Y-105765600D02*
X132649529Y-105765600D01*
X134007915Y-105765600D02*
X136168000Y-105765600D01*
X146612000Y-105765600D02*
X146758000Y-105765600D01*
X158355000Y-105765600D02*
X159105000Y-105765600D01*
X160743350Y-105765600D02*
X165608000Y-105765600D01*
X117602000Y-105968800D02*
X127913000Y-105968800D01*
X131282126Y-105968800D02*
X131782477Y-105968800D01*
X134541871Y-105968800D02*
X136168000Y-105968800D01*
X146612000Y-105968800D02*
X146758000Y-105968800D01*
X158355000Y-105968800D02*
X159105000Y-105968800D01*
X160946550Y-105968800D02*
X165608000Y-105968800D01*
X117602000Y-106172000D02*
X127913000Y-106172000D01*
X131167000Y-106172000D02*
X131579277Y-106172000D01*
X134586662Y-106172000D02*
X136168000Y-106172000D01*
X146612000Y-106172000D02*
X146758000Y-106172000D01*
X161107000Y-106172000D02*
X165608000Y-106172000D01*
X117602000Y-106375200D02*
X127649255Y-106375200D01*
X134631453Y-106375200D02*
X136168000Y-106375200D01*
X146612000Y-106375200D02*
X146758000Y-106375200D01*
X161100136Y-106375200D02*
X165608000Y-106375200D01*
X117602000Y-106578400D02*
X122776694Y-106578400D01*
X124871020Y-106578400D02*
X127409290Y-106578400D01*
X134448574Y-106578400D02*
X136151052Y-106578400D01*
X146612000Y-106578400D02*
X146758000Y-106578400D01*
X161015968Y-106578400D02*
X165608000Y-106578400D01*
X117602000Y-106781600D02*
X122188255Y-106781600D01*
X125461850Y-106781600D02*
X127270449Y-106781600D01*
X134245374Y-106781600D02*
X136064449Y-106781600D01*
X146612000Y-106781600D02*
X146758000Y-106781600D01*
X160931800Y-106781600D02*
X165608000Y-106781600D01*
X117602000Y-106984800D02*
X121948290Y-106984800D01*
X134042174Y-106984800D02*
X136023300Y-106984800D01*
X146612000Y-106984800D02*
X146758000Y-106984800D01*
X160831125Y-106984800D02*
X165608000Y-106984800D01*
X117602000Y-107188000D02*
X121809449Y-107188000D01*
X133838974Y-107188000D02*
X135995921Y-107188000D01*
X146612000Y-107188000D02*
X146758000Y-107188000D01*
X160627925Y-107188000D02*
X165608000Y-107188000D01*
X117602000Y-107391200D02*
X121726789Y-107391200D01*
X132917354Y-107391200D02*
X133044226Y-107391200D01*
X133635774Y-107391200D02*
X135431826Y-107391200D01*
X135992814Y-107391200D02*
X135995921Y-107391200D01*
X146612000Y-107391200D02*
X146758000Y-107391200D01*
X160424725Y-107391200D02*
X165608000Y-107391200D01*
X117602000Y-107594400D02*
X121685640Y-107594400D01*
X132714154Y-107594400D02*
X133247426Y-107594400D01*
X133432574Y-107594400D02*
X135228626Y-107594400D01*
X146612000Y-107594400D02*
X146758000Y-107594400D01*
X159966829Y-107594400D02*
X165608000Y-107594400D01*
X117602000Y-107797600D02*
X121659921Y-107797600D01*
X132510954Y-107797600D02*
X135025426Y-107797600D01*
X146612000Y-107797600D02*
X146758000Y-107797600D01*
X159732000Y-107797600D02*
X165608000Y-107797600D01*
X117602000Y-108000800D02*
X121659921Y-108000800D01*
X132307754Y-108000800D02*
X134822226Y-108000800D01*
X146601895Y-108000800D02*
X146768104Y-108000800D01*
X157167500Y-108000800D02*
X157792500Y-108000800D01*
X159554450Y-108000800D02*
X165608000Y-108000800D01*
X117602000Y-108204000D02*
X121659921Y-108204000D01*
X132104554Y-108204000D02*
X134619026Y-108204000D01*
X146584079Y-108204000D02*
X146785921Y-108204000D01*
X157167500Y-108204000D02*
X157792500Y-108204000D01*
X159351250Y-108204000D02*
X165608000Y-108204000D01*
X117602000Y-108407200D02*
X121659921Y-108407200D01*
X132264174Y-108407200D02*
X134415826Y-108407200D01*
X146584079Y-108407200D02*
X146785921Y-108407200D01*
X156855000Y-108407200D02*
X165608000Y-108407200D01*
X117602000Y-108610400D02*
X121659921Y-108610400D01*
X132416574Y-108610400D02*
X134263425Y-108610400D01*
X146584079Y-108610400D02*
X146785921Y-108610400D01*
X156855000Y-108610400D02*
X165608000Y-108610400D01*
X117602000Y-108813600D02*
X121659921Y-108813600D01*
X132213374Y-108813600D02*
X134466625Y-108813600D01*
X146584079Y-108813600D02*
X146785921Y-108813600D01*
X156855000Y-108813600D02*
X165608000Y-108813600D01*
X117602000Y-109016800D02*
X121659921Y-109016800D01*
X132155354Y-109016800D02*
X134669825Y-109016800D01*
X146584079Y-109016800D02*
X146785921Y-109016800D01*
X157167500Y-109016800D02*
X157792500Y-109016800D01*
X159362050Y-109016800D02*
X165608000Y-109016800D01*
X117602000Y-109220000D02*
X121659921Y-109220000D01*
X132358554Y-109220000D02*
X134873025Y-109220000D01*
X146584079Y-109220000D02*
X146785921Y-109220000D01*
X161017010Y-109220000D02*
X165608000Y-109220000D01*
X117602000Y-109423200D02*
X121659921Y-109423200D01*
X132561754Y-109423200D02*
X135076225Y-109423200D01*
X146584079Y-109423200D02*
X146785921Y-109423200D01*
X161424761Y-109423200D02*
X165608000Y-109423200D01*
X117602000Y-109626400D02*
X121693376Y-109626400D01*
X132764954Y-109626400D02*
X133196626Y-109626400D01*
X133483375Y-109626400D02*
X135279425Y-109626400D01*
X146578732Y-109626400D02*
X146790888Y-109626400D01*
X161627607Y-109626400D02*
X165608000Y-109626400D01*
X117602000Y-109829600D02*
X121592076Y-109829600D01*
X132968154Y-109829600D02*
X132993426Y-109829600D01*
X133686575Y-109829600D02*
X135482625Y-109829600D01*
X135762352Y-109829600D02*
X135995921Y-109829600D01*
X146537583Y-109829600D02*
X146829123Y-109829600D01*
X161830453Y-109829600D02*
X165608000Y-109829600D01*
X117602000Y-110032800D02*
X121448997Y-110032800D01*
X133889775Y-110032800D02*
X135995921Y-110032800D01*
X146496434Y-110032800D02*
X146874260Y-110032800D01*
X161960205Y-110032800D02*
X165608000Y-110032800D01*
X117602000Y-110236000D02*
X121354219Y-110236000D01*
X126295782Y-110236000D02*
X127192611Y-110236000D01*
X134092975Y-110236000D02*
X135995921Y-110236000D01*
X146460000Y-110236000D02*
X146910000Y-110236000D01*
X162044166Y-110236000D02*
X165608000Y-110236000D01*
X117602000Y-110439200D02*
X121421518Y-110439200D01*
X126228481Y-110439200D02*
X127278000Y-110439200D01*
X134296175Y-110439200D02*
X135995921Y-110439200D01*
X146460000Y-110439200D02*
X146910000Y-110439200D01*
X162128126Y-110439200D02*
X165608000Y-110439200D01*
X117602000Y-110642400D02*
X121591486Y-110642400D01*
X123317000Y-110642400D02*
X124333000Y-110642400D01*
X126058513Y-110642400D02*
X127278000Y-110642400D01*
X134499375Y-110642400D02*
X135995921Y-110642400D01*
X146460000Y-110642400D02*
X146910000Y-110642400D01*
X150996300Y-110642400D02*
X151053314Y-110642400D01*
X162201311Y-110642400D02*
X165608000Y-110642400D01*
X117602000Y-110845600D02*
X127278000Y-110845600D01*
X131351800Y-110845600D02*
X131426877Y-110845600D01*
X134620254Y-110845600D02*
X135995921Y-110845600D01*
X142280326Y-110845600D02*
X145179674Y-110845600D01*
X146434650Y-110845600D02*
X146935350Y-110845600D01*
X148190325Y-110845600D02*
X151093733Y-110845600D01*
X162201133Y-110845600D02*
X165608000Y-110845600D01*
X117602000Y-111048800D02*
X127278000Y-111048800D01*
X130532000Y-111048800D02*
X131630077Y-111048800D01*
X134575463Y-111048800D02*
X135995921Y-111048800D01*
X142077126Y-111048800D02*
X145481157Y-111048800D01*
X146231450Y-111048800D02*
X147138550Y-111048800D01*
X147888842Y-111048800D02*
X151149096Y-111048800D01*
X162200956Y-111048800D02*
X165608000Y-111048800D01*
X117602000Y-111252000D02*
X127278000Y-111252000D01*
X130532000Y-111252000D02*
X131833277Y-111252000D01*
X134530672Y-111252000D02*
X135995921Y-111252000D01*
X141873926Y-111252000D02*
X151284869Y-111252000D01*
X162200779Y-111252000D02*
X165608000Y-111252000D01*
X117602000Y-111455200D02*
X127278000Y-111455200D01*
X130532000Y-111455200D02*
X132036477Y-111455200D01*
X132057965Y-111455200D02*
X132904380Y-111455200D01*
X133747126Y-111455200D02*
X136021360Y-111455200D01*
X141670726Y-111455200D02*
X151420643Y-111455200D01*
X162170679Y-111455200D02*
X165608000Y-111455200D01*
X117602000Y-111658400D02*
X121548995Y-111658400D01*
X123317000Y-111658400D02*
X124333000Y-111658400D01*
X126101006Y-111658400D02*
X127278000Y-111658400D01*
X130532000Y-111658400D02*
X136059595Y-111658400D01*
X141467526Y-111658400D02*
X151621028Y-111658400D01*
X162086302Y-111658400D02*
X165608000Y-111658400D01*
X117602000Y-111861600D02*
X121379027Y-111861600D01*
X126270974Y-111861600D02*
X127278000Y-111861600D01*
X130532000Y-111861600D02*
X136154271Y-111861600D01*
X141194236Y-111861600D02*
X151824228Y-111861600D01*
X162001926Y-111861600D02*
X165608000Y-111861600D01*
X117602000Y-112064800D02*
X121377913Y-112064800D01*
X126272086Y-112064800D02*
X127278000Y-112064800D01*
X130532000Y-112064800D02*
X136168000Y-112064800D01*
X140890125Y-112064800D02*
X152027428Y-112064800D01*
X161917550Y-112064800D02*
X165608000Y-112064800D01*
X117602000Y-112268000D02*
X121138507Y-112268000D01*
X126177308Y-112268000D02*
X127278000Y-112268000D01*
X130532000Y-112268000D02*
X136168000Y-112268000D01*
X139422000Y-112268000D02*
X152274981Y-112268000D01*
X161729352Y-112268000D02*
X165608000Y-112268000D01*
X117602000Y-112471200D02*
X120834396Y-112471200D01*
X126016779Y-112471200D02*
X127278000Y-112471200D01*
X130532000Y-112471200D02*
X136168000Y-112471200D01*
X139422000Y-112471200D02*
X152579092Y-112471200D01*
X161525797Y-112471200D02*
X165608000Y-112471200D01*
X117602000Y-112674400D02*
X120609674Y-112674400D01*
X125852201Y-112674400D02*
X127278000Y-112674400D01*
X130532000Y-112674400D02*
X136168000Y-112674400D01*
X139422000Y-112674400D02*
X152778682Y-112674400D01*
X155827462Y-112674400D02*
X156057939Y-112674400D01*
X158909135Y-112674400D02*
X159286310Y-112674400D01*
X161262929Y-112674400D02*
X165608000Y-112674400D01*
X117602000Y-112877600D02*
X120406474Y-112877600D01*
X125841334Y-112877600D02*
X127278000Y-112877600D01*
X130532000Y-112877600D02*
X136168000Y-112877600D01*
X139422000Y-112877600D02*
X153008977Y-112877600D01*
X155602475Y-112877600D02*
X156355332Y-112877600D01*
X158597070Y-112877600D02*
X159775669Y-112877600D01*
X160771147Y-112877600D02*
X165608000Y-112877600D01*
X117602000Y-113080800D02*
X120203274Y-113080800D01*
X125893780Y-113080800D02*
X127278000Y-113080800D01*
X130532000Y-113080800D02*
X136074736Y-113080800D01*
X139520846Y-113080800D02*
X153540044Y-113080800D01*
X155078716Y-113080800D02*
X165608000Y-113080800D01*
X117602000Y-113284000D02*
X120000074Y-113284000D01*
X125934199Y-113284000D02*
X127278000Y-113284000D01*
X130532000Y-113284000D02*
X136033587Y-113284000D01*
X139559081Y-113284000D02*
X165608000Y-113284000D01*
X117602000Y-113487200D02*
X119796874Y-113487200D01*
X125974618Y-113487200D02*
X127278000Y-113487200D01*
X130532000Y-113487200D02*
X131847886Y-113487200D01*
X132717450Y-113487200D02*
X133942550Y-113487200D01*
X134812115Y-113487200D02*
X135995921Y-113487200D01*
X139594079Y-113487200D02*
X165608000Y-113487200D01*
X117602000Y-113690400D02*
X119593674Y-113690400D01*
X126004931Y-113690400D02*
X127278000Y-113690400D01*
X130596326Y-113690400D02*
X131533675Y-113690400D01*
X132920650Y-113690400D02*
X133739350Y-113690400D01*
X135126326Y-113690400D02*
X135995921Y-113690400D01*
X139594079Y-113690400D02*
X140944495Y-113690400D01*
X152397851Y-113690400D02*
X165608000Y-113690400D01*
X117602000Y-113893600D02*
X119426664Y-113893600D01*
X125964512Y-113893600D02*
X127278000Y-113893600D01*
X132955000Y-113893600D02*
X133705000Y-113893600D01*
X135329526Y-113893600D02*
X135995921Y-113893600D01*
X139594079Y-113893600D02*
X140609512Y-113893600D01*
X152754493Y-113893600D02*
X165608000Y-113893600D01*
X117602000Y-114096800D02*
X119290890Y-114096800D01*
X125924093Y-114096800D02*
X127278000Y-114096800D01*
X132955000Y-114096800D02*
X133705000Y-114096800D01*
X135489717Y-114096800D02*
X135995921Y-114096800D01*
X139594079Y-114096800D02*
X140428237Y-114096800D01*
X152943621Y-114096800D02*
X165608000Y-114096800D01*
X117602000Y-114300000D02*
X119155117Y-114300000D01*
X125883675Y-114300000D02*
X127278000Y-114300000D01*
X132955000Y-114300000D02*
X133705000Y-114300000D01*
X135573885Y-114300000D02*
X135995921Y-114300000D01*
X139594079Y-114300000D02*
X140289396Y-114300000D01*
X153074376Y-114300000D02*
X165608000Y-114300000D01*
X117602000Y-114503200D02*
X119108891Y-114503200D01*
X125807390Y-114503200D02*
X127318418Y-114503200D01*
X132955000Y-114503200D02*
X133705000Y-114503200D01*
X135707000Y-114503200D02*
X135995921Y-114503200D01*
X139594079Y-114503200D02*
X140239140Y-114503200D01*
X153134630Y-114503200D02*
X165608000Y-114503200D01*
X117602000Y-114706400D02*
X119068472Y-114706400D01*
X125671615Y-114706400D02*
X127358837Y-114706400D01*
X132955000Y-114706400D02*
X133705000Y-114706400D01*
X135707000Y-114706400D02*
X135995921Y-114706400D01*
X139594079Y-114706400D02*
X140197991Y-114706400D01*
X153172865Y-114706400D02*
X165608000Y-114706400D01*
X117602000Y-114909600D02*
X119028053Y-114909600D01*
X125535841Y-114909600D02*
X127399256Y-114909600D01*
X132955000Y-114909600D02*
X133705000Y-114909600D01*
X135707000Y-114909600D02*
X135995921Y-114909600D01*
X139594079Y-114909600D02*
X140185921Y-114909600D01*
X153184079Y-114909600D02*
X165608000Y-114909600D01*
X117602000Y-115112800D02*
X119023000Y-115112800D01*
X125637673Y-115112800D02*
X127528918Y-115112800D01*
X132955000Y-115112800D02*
X133705000Y-115112800D01*
X135707000Y-115112800D02*
X135901275Y-115112800D01*
X139688726Y-115112800D02*
X140185921Y-115112800D01*
X153184079Y-115112800D02*
X165608000Y-115112800D01*
X117602000Y-115316000D02*
X119023000Y-115316000D01*
X125773447Y-115316000D02*
X127664691Y-115316000D01*
X132729079Y-115316000D02*
X134080000Y-115316000D01*
X135707000Y-115316000D02*
X135737687Y-115316000D01*
X139852314Y-115316000D02*
X140185921Y-115316000D01*
X153184079Y-115316000D02*
X165608000Y-115316000D01*
X117602000Y-115519200D02*
X119023000Y-115519200D01*
X125873571Y-115519200D02*
X127823274Y-115519200D01*
X132729079Y-115519200D02*
X134080000Y-115519200D01*
X139936482Y-115519200D02*
X140185921Y-115519200D01*
X153184079Y-115519200D02*
X165608000Y-115519200D01*
X117602000Y-115722400D02*
X119023000Y-115722400D01*
X125913990Y-115722400D02*
X128026474Y-115722400D01*
X132729079Y-115722400D02*
X134080000Y-115722400D01*
X140020650Y-115722400D02*
X140185921Y-115722400D01*
X153184079Y-115722400D02*
X165608000Y-115722400D01*
X117602000Y-115925600D02*
X119023000Y-115925600D01*
X125954409Y-115925600D02*
X128229674Y-115925600D01*
X132955000Y-115925600D02*
X133705000Y-115925600D01*
X140072000Y-115925600D02*
X140185921Y-115925600D01*
X153184079Y-115925600D02*
X165608000Y-115925600D01*
X117602000Y-116128800D02*
X119023000Y-116128800D01*
X125994827Y-116128800D02*
X128432874Y-116128800D01*
X132955000Y-116128800D02*
X133705000Y-116128800D01*
X140072000Y-116128800D02*
X140185921Y-116128800D01*
X153184079Y-116128800D02*
X165608000Y-116128800D01*
X117602000Y-116332000D02*
X119023000Y-116332000D01*
X125984722Y-116332000D02*
X128636074Y-116332000D01*
X132955000Y-116332000D02*
X133705000Y-116332000D01*
X137470000Y-116332000D02*
X138120000Y-116332000D01*
X139878250Y-116332000D02*
X140185921Y-116332000D01*
X153184079Y-116332000D02*
X165608000Y-116332000D01*
X117602000Y-116535200D02*
X119023000Y-116535200D01*
X125944303Y-116535200D02*
X128839274Y-116535200D01*
X132955000Y-116535200D02*
X133705000Y-116535200D01*
X137470000Y-116535200D02*
X138120000Y-116535200D01*
X139675050Y-116535200D02*
X140185921Y-116535200D01*
X153184079Y-116535200D02*
X165608000Y-116535200D01*
X117602000Y-116738400D02*
X119023000Y-116738400D01*
X125903884Y-116738400D02*
X129051381Y-116738400D01*
X132955000Y-116738400D02*
X133705000Y-116738400D01*
X137145000Y-116738400D02*
X140185921Y-116738400D01*
X153184079Y-116738400D02*
X165608000Y-116738400D01*
X117602000Y-116941600D02*
X119023000Y-116941600D01*
X125863465Y-116941600D02*
X129221184Y-116941600D01*
X132955000Y-116941600D02*
X133705000Y-116941600D01*
X137145000Y-116941600D02*
X140185921Y-116941600D01*
X153184079Y-116941600D02*
X165608000Y-116941600D01*
X117602000Y-117144800D02*
X119023000Y-117144800D01*
X125739503Y-117144800D02*
X129473786Y-117144800D01*
X132955000Y-117144800D02*
X133705000Y-117144800D01*
X135431125Y-117144800D02*
X135518000Y-117144800D01*
X137145000Y-117144800D02*
X140185921Y-117144800D01*
X153184079Y-117144800D02*
X165608000Y-117144800D01*
X117602000Y-117348000D02*
X119023000Y-117348000D01*
X125603729Y-117348000D02*
X131432074Y-117348000D01*
X132955000Y-117348000D02*
X133705000Y-117348000D01*
X135227925Y-117348000D02*
X135518000Y-117348000D01*
X137470000Y-117348000D02*
X138120000Y-117348000D01*
X139718250Y-117348000D02*
X140185921Y-117348000D01*
X153184079Y-117348000D02*
X165608000Y-117348000D01*
X117602000Y-117551200D02*
X119023000Y-117551200D01*
X125467955Y-117551200D02*
X131635274Y-117551200D01*
X132819050Y-117551200D02*
X133840950Y-117551200D01*
X135024725Y-117551200D02*
X135518000Y-117551200D01*
X137470000Y-117551200D02*
X138120000Y-117551200D01*
X139921450Y-117551200D02*
X140185921Y-117551200D01*
X153184079Y-117551200D02*
X165608000Y-117551200D01*
X117602000Y-117754400D02*
X119023000Y-117754400D01*
X125466331Y-117754400D02*
X132093169Y-117754400D01*
X132615850Y-117754400D02*
X134044150Y-117754400D01*
X134566830Y-117754400D02*
X135518000Y-117754400D01*
X137470000Y-117754400D02*
X138120000Y-117754400D01*
X140072000Y-117754400D02*
X140185921Y-117754400D01*
X153184079Y-117754400D02*
X165608000Y-117754400D01*
X117602000Y-117957600D02*
X119023000Y-117957600D01*
X125955690Y-117957600D02*
X135518000Y-117957600D01*
X137470000Y-117957600D02*
X138120000Y-117957600D01*
X140072000Y-117957600D02*
X140185921Y-117957600D01*
X153184079Y-117957600D02*
X165608000Y-117957600D01*
X117602000Y-118160800D02*
X119023000Y-118160800D01*
X126220184Y-118160800D02*
X135587244Y-118160800D01*
X137470000Y-118160800D02*
X138120000Y-118160800D01*
X140002755Y-118160800D02*
X140185921Y-118160800D01*
X153184079Y-118160800D02*
X165608000Y-118160800D01*
X117602000Y-118364000D02*
X119023000Y-118364000D01*
X126423030Y-118364000D02*
X135671412Y-118364000D01*
X137470000Y-118364000D02*
X138120000Y-118364000D01*
X139918587Y-118364000D02*
X140185921Y-118364000D01*
X153184079Y-118364000D02*
X165608000Y-118364000D01*
X117602000Y-118567200D02*
X119023000Y-118567200D01*
X126612225Y-118567200D02*
X135755580Y-118567200D01*
X137470000Y-118567200D02*
X138120000Y-118567200D01*
X139834419Y-118567200D02*
X140185921Y-118567200D01*
X153184079Y-118567200D02*
X165608000Y-118567200D01*
X117602000Y-118770400D02*
X119023000Y-118770400D01*
X126696185Y-118770400D02*
X135944474Y-118770400D01*
X137470000Y-118770400D02*
X138120000Y-118770400D01*
X139645525Y-118770400D02*
X140185921Y-118770400D01*
X153184079Y-118770400D02*
X165608000Y-118770400D01*
X117602000Y-118973600D02*
X119023000Y-118973600D01*
X126780146Y-118973600D02*
X136147674Y-118973600D01*
X137386650Y-118973600D02*
X138203350Y-118973600D01*
X139442325Y-118973600D02*
X140185921Y-118973600D01*
X153184079Y-118973600D02*
X165608000Y-118973600D01*
X117602000Y-119176800D02*
X119023000Y-119176800D01*
X126864106Y-119176800D02*
X136531180Y-119176800D01*
X137183450Y-119176800D02*
X138406550Y-119176800D01*
X139058819Y-119176800D02*
X140185921Y-119176800D01*
X153184079Y-119176800D02*
X165608000Y-119176800D01*
X117602000Y-119380000D02*
X119023000Y-119380000D01*
X126895222Y-119380000D02*
X140185921Y-119380000D01*
X153184079Y-119380000D02*
X165608000Y-119380000D01*
X117602000Y-119583200D02*
X119063418Y-119583200D01*
X126895045Y-119583200D02*
X140185921Y-119583200D01*
X153184079Y-119583200D02*
X165608000Y-119583200D01*
X117602000Y-119786400D02*
X119103837Y-119786400D01*
X126894867Y-119786400D02*
X140185921Y-119786400D01*
X153184079Y-119786400D02*
X165608000Y-119786400D01*
X117602000Y-119989600D02*
X119144256Y-119989600D01*
X126894690Y-119989600D02*
X140185921Y-119989600D01*
X153184079Y-119989600D02*
X165608000Y-119989600D01*
X117602000Y-120192800D02*
X119273918Y-120192800D01*
X126822490Y-120192800D02*
X140185921Y-120192800D01*
X153184079Y-120192800D02*
X165608000Y-120192800D01*
X117602000Y-120396000D02*
X119409691Y-120396000D01*
X126738114Y-120396000D02*
X140185921Y-120396000D01*
X153184079Y-120396000D02*
X165608000Y-120396000D01*
X117602000Y-120599200D02*
X119568274Y-120599200D01*
X126653738Y-120599200D02*
X140185921Y-120599200D01*
X153184079Y-120599200D02*
X165608000Y-120599200D01*
X117602000Y-120802400D02*
X119771474Y-120802400D01*
X126525129Y-120802400D02*
X140185921Y-120802400D01*
X153184079Y-120802400D02*
X165608000Y-120802400D01*
X117602000Y-121005600D02*
X119974674Y-121005600D01*
X126321574Y-121005600D02*
X140185921Y-121005600D01*
X153184079Y-121005600D02*
X165608000Y-121005600D01*
X117602000Y-121208800D02*
X120177874Y-121208800D01*
X126251156Y-121208800D02*
X140185921Y-121208800D01*
X153184079Y-121208800D02*
X165608000Y-121208800D01*
X117602000Y-121412000D02*
X120381074Y-121412000D01*
X126335116Y-121412000D02*
X140185921Y-121412000D01*
X153184079Y-121412000D02*
X165608000Y-121412000D01*
X117602000Y-121615200D02*
X120584274Y-121615200D01*
X126387266Y-121615200D02*
X140185921Y-121615200D01*
X153184079Y-121615200D02*
X165608000Y-121615200D01*
X117602000Y-121818400D02*
X120787474Y-121818400D01*
X126387089Y-121818400D02*
X140185921Y-121818400D01*
X153184079Y-121818400D02*
X165608000Y-121818400D01*
X117602000Y-122021600D02*
X120990674Y-122021600D01*
X126386912Y-122021600D02*
X140185921Y-122021600D01*
X153184079Y-122021600D02*
X165608000Y-122021600D01*
X117602000Y-122224800D02*
X121193874Y-122224800D01*
X126386734Y-122224800D02*
X140185921Y-122224800D01*
X153184079Y-122224800D02*
X165608000Y-122224800D01*
X117602000Y-122428000D02*
X121397074Y-122428000D01*
X126335584Y-122428000D02*
X140185921Y-122428000D01*
X153184079Y-122428000D02*
X165608000Y-122428000D01*
X117602000Y-122631200D02*
X121600274Y-122631200D01*
X126251208Y-122631200D02*
X140185921Y-122631200D01*
X153184079Y-122631200D02*
X165608000Y-122631200D01*
X117602000Y-122834400D02*
X121803474Y-122834400D01*
X126166832Y-122834400D02*
X140185921Y-122834400D01*
X153184079Y-122834400D02*
X165608000Y-122834400D01*
X117602000Y-123037600D02*
X122006674Y-123037600D01*
X126068018Y-123037600D02*
X140185921Y-123037600D01*
X153184079Y-123037600D02*
X165608000Y-123037600D01*
X117602000Y-123240800D02*
X122294464Y-123240800D01*
X125864463Y-123240800D02*
X140185921Y-123240800D01*
X153184079Y-123240800D02*
X165608000Y-123240800D01*
X117602000Y-123444000D02*
X122672183Y-123444000D01*
X125660908Y-123444000D02*
X140185921Y-123444000D01*
X153184079Y-123444000D02*
X165608000Y-123444000D01*
X117602000Y-123647200D02*
X123594650Y-123647200D01*
X125325983Y-123647200D02*
X140185921Y-123647200D01*
X153184079Y-123647200D02*
X165608000Y-123647200D01*
X117602000Y-123850400D02*
X140185921Y-123850400D01*
X153184079Y-123850400D02*
X165608000Y-123850400D01*
X117602000Y-124053600D02*
X140185921Y-124053600D01*
X153184079Y-124053600D02*
X165608000Y-124053600D01*
X117602000Y-124256800D02*
X140185921Y-124256800D01*
X153184079Y-124256800D02*
X165608000Y-124256800D01*
X117602000Y-124460000D02*
X140203608Y-124460000D01*
X153165043Y-124460000D02*
X165608000Y-124460000D01*
X117602000Y-124663200D02*
X140241843Y-124663200D01*
X153123894Y-124663200D02*
X165608000Y-124663200D01*
X117602000Y-124866400D02*
X140317759Y-124866400D01*
X153057099Y-124866400D02*
X165608000Y-124866400D01*
X117602000Y-125069600D02*
X140448515Y-125069600D01*
X152918258Y-125069600D02*
X165608000Y-125069600D01*
X117602000Y-125272800D02*
X140665853Y-125272800D01*
X152707029Y-125272800D02*
X165608000Y-125272800D01*
X117602000Y-125476000D02*
X141142021Y-125476000D01*
X152242685Y-125476000D02*
X165608000Y-125476000D01*
X117602000Y-125679200D02*
X165608000Y-125679200D01*
X117602000Y-125882400D02*
X165608000Y-125882400D01*
X117602000Y-126085600D02*
X165608000Y-126085600D01*
X117602000Y-126288800D02*
X165608000Y-126288800D01*
X117602000Y-126492000D02*
X165608000Y-126492000D01*
X117602000Y-126695200D02*
X165608000Y-126695200D01*
X117602000Y-126898400D02*
X165608000Y-126898400D01*
X117602000Y-127101600D02*
X165608000Y-127101600D01*
X117602000Y-127304800D02*
X165608000Y-127304800D01*
X138395000Y-77323000D02*
X143163000Y-77323000D01*
X138395000Y-77526200D02*
X143345950Y-77526200D01*
X145102500Y-77526200D02*
X145727500Y-77526200D01*
X138395000Y-77729400D02*
X143549150Y-77729400D01*
X145102500Y-77729400D02*
X145727500Y-77729400D01*
X138770000Y-77932600D02*
X139520000Y-77932600D01*
X141252850Y-77932600D02*
X146040000Y-77932600D01*
X138770000Y-78135800D02*
X139520000Y-78135800D01*
X141456050Y-78135800D02*
X142519300Y-78135800D01*
X142920768Y-78135800D02*
X146040000Y-78135800D01*
X138770000Y-78339000D02*
X139520000Y-78339000D01*
X141522000Y-78339000D02*
X142316100Y-78339000D01*
X143411336Y-78339000D02*
X146040000Y-78339000D01*
X138770000Y-78542200D02*
X139520000Y-78542200D01*
X141481171Y-78542200D02*
X142144750Y-78542200D01*
X145102500Y-78542200D02*
X145727500Y-78542200D01*
X138770000Y-78745400D02*
X139520000Y-78745400D01*
X141397003Y-78745400D02*
X142144750Y-78745400D01*
X138770000Y-78948600D02*
X139520000Y-78948600D01*
X141395450Y-78948600D02*
X142144750Y-78948600D01*
X138770000Y-79151800D02*
X139499495Y-79151800D01*
X141395450Y-79151800D02*
X142144750Y-79151800D01*
X138755250Y-79355000D02*
X139415327Y-79355000D01*
X141395450Y-79355000D02*
X142144750Y-79355000D01*
X138552050Y-79558200D02*
X139488450Y-79558200D01*
X141395450Y-79558200D02*
X142144750Y-79558200D01*
X138258279Y-79761400D02*
X139691650Y-79761400D01*
X141395450Y-79761400D02*
X142144750Y-79761400D01*
X138258279Y-79964600D02*
X140549554Y-79964600D01*
X138258279Y-80167800D02*
X139782450Y-80167800D01*
X138241754Y-80371000D02*
X139579250Y-80371000D01*
X138200605Y-80574200D02*
X139393800Y-80574200D01*
X138216282Y-80777400D02*
X139461883Y-80777400D01*
X138254516Y-80980600D02*
X139546052Y-80980600D01*
X138258279Y-81183800D02*
X139630220Y-81183800D01*
X138258279Y-81387000D02*
X139817474Y-81387000D01*
X138252041Y-81590200D02*
X139877516Y-81590200D01*
X138210893Y-81793400D02*
X139915751Y-81793400D01*
X138206723Y-81996600D02*
X139927208Y-81996600D01*
X138244958Y-82199800D02*
X139886059Y-82199800D01*
X138258279Y-82403000D02*
X139871721Y-82403000D01*
X138258279Y-82606200D02*
X139871721Y-82606200D01*
X138258279Y-82809400D02*
X139871721Y-82809400D01*
X138221180Y-83012600D02*
X139906192Y-83012600D01*
X138197164Y-83215800D02*
X139937495Y-83215800D01*
X138235399Y-83419000D02*
X139896346Y-83419000D01*
X138258279Y-83622200D02*
X139871721Y-83622200D01*
X138258279Y-83825400D02*
X139871721Y-83825400D01*
X138258279Y-84028600D02*
X139871721Y-84028600D01*
X138231467Y-84231800D02*
X139896634Y-84231800D01*
X165608000Y-127508000D02*
X117602000Y-127508000D01*
X117602000Y-114935000D01*
X119023000Y-114935000D01*
X119023000Y-119380000D01*
X119146848Y-120002626D01*
X119499537Y-120530463D01*
X122039535Y-123070460D01*
X122039537Y-123070463D01*
X122567374Y-123423152D01*
X123190000Y-123547000D01*
X123361349Y-123547000D01*
X123367017Y-123552678D01*
X124075014Y-123846665D01*
X124841622Y-123847334D01*
X125550132Y-123554584D01*
X126092678Y-123012983D01*
X126386665Y-122304986D01*
X126387334Y-121538378D01*
X126212277Y-121114707D01*
X126600678Y-120726983D01*
X126894665Y-120018986D01*
X126895334Y-119252378D01*
X126602584Y-118543868D01*
X126060983Y-118001322D01*
X125352986Y-117707335D01*
X125285209Y-117707276D01*
X125426951Y-117612567D01*
X125858459Y-116966770D01*
X126009984Y-116205000D01*
X125858459Y-115443230D01*
X125518870Y-114935000D01*
X125858459Y-114426770D01*
X126009984Y-113665000D01*
X125858459Y-112903230D01*
X125771849Y-112773609D01*
X126171811Y-112279787D01*
X126332536Y-111935199D01*
X126016022Y-111556800D01*
X124333000Y-111556800D01*
X124333000Y-111736782D01*
X124019384Y-111674400D01*
X123630616Y-111674400D01*
X123317000Y-111736782D01*
X123317000Y-111556800D01*
X121633978Y-111556800D01*
X121317464Y-111935199D01*
X121412498Y-112138948D01*
X121297374Y-112161848D01*
X120769537Y-112514537D01*
X119499537Y-113784537D01*
X119146848Y-114312374D01*
X119023000Y-114935000D01*
X117602000Y-114935000D01*
X117602000Y-110314801D01*
X121317464Y-110314801D01*
X121633978Y-110693200D01*
X123317000Y-110693200D01*
X123317000Y-110597679D01*
X124333000Y-110597679D01*
X124333000Y-110693200D01*
X126016022Y-110693200D01*
X126332536Y-110314801D01*
X126284587Y-110212000D01*
X127188096Y-110212000D01*
X127199506Y-110272641D01*
X127278000Y-110394624D01*
X127278000Y-114300000D01*
X127401848Y-114922626D01*
X127754537Y-115450463D01*
X129024537Y-116720463D01*
X129119882Y-116784170D01*
X129256331Y-116996219D01*
X129632944Y-117253548D01*
X130080000Y-117344079D01*
X131428153Y-117344079D01*
X131658379Y-117574304D01*
X132256370Y-117822000D01*
X132548250Y-117822000D01*
X132955000Y-117415250D01*
X132955000Y-115882500D01*
X132729079Y-115882500D01*
X132729079Y-115257500D01*
X132955000Y-115257500D01*
X132955000Y-113724750D01*
X132548250Y-113318000D01*
X132256370Y-113318000D01*
X131658379Y-113565696D01*
X131428153Y-113795921D01*
X130701847Y-113795921D01*
X130532000Y-113626074D01*
X130532000Y-111004079D01*
X130810000Y-111004079D01*
X131227641Y-110925494D01*
X131397482Y-110816205D01*
X132047221Y-111465944D01*
X132209850Y-111303315D01*
X133284037Y-111538226D01*
X134418447Y-111334841D01*
X134521854Y-111292008D01*
X134635123Y-110778148D01*
X133340000Y-109483026D01*
X132980790Y-109842236D01*
X132082764Y-108944210D01*
X132441974Y-108585000D01*
X132082764Y-108225790D01*
X132980790Y-107327764D01*
X133340000Y-107686974D01*
X134635123Y-106391852D01*
X134521854Y-105877992D01*
X133395963Y-105631774D01*
X132261553Y-105835159D01*
X132202701Y-105859536D01*
X132047221Y-105704056D01*
X131398310Y-106352967D01*
X131257056Y-106256452D01*
X131167000Y-106238215D01*
X131167000Y-106083926D01*
X132118926Y-105132000D01*
X136168000Y-105132000D01*
X136168000Y-106553595D01*
X136086452Y-106672944D01*
X135995921Y-107120000D01*
X135995921Y-107391885D01*
X135533148Y-107289877D01*
X134238026Y-108585000D01*
X135533148Y-109880123D01*
X136004799Y-109776158D01*
X135995921Y-109820000D01*
X135995921Y-111320000D01*
X136074506Y-111737641D01*
X136168000Y-111882935D01*
X136168000Y-112903595D01*
X136086452Y-113022944D01*
X135995921Y-113470000D01*
X135995921Y-114970000D01*
X136003547Y-115010528D01*
X135765696Y-115248379D01*
X135707000Y-115390084D01*
X135707000Y-114446998D01*
X135634773Y-114446998D01*
X135459304Y-114023378D01*
X135001621Y-113565696D01*
X134403630Y-113318000D01*
X134111750Y-113318000D01*
X133705000Y-113724750D01*
X133705000Y-115257500D01*
X134080000Y-115257500D01*
X134080000Y-115882500D01*
X133705000Y-115882500D01*
X133705000Y-117415250D01*
X134111750Y-117822000D01*
X134403630Y-117822000D01*
X135001621Y-117574304D01*
X135459304Y-117116622D01*
X135518000Y-116974917D01*
X135518000Y-118043002D01*
X135538451Y-118043002D01*
X135765696Y-118591621D01*
X136223378Y-119049304D01*
X136821369Y-119297000D01*
X137063250Y-119297000D01*
X137470000Y-118890250D01*
X137470000Y-117295000D01*
X138120000Y-117295000D01*
X138120000Y-118890250D01*
X138526750Y-119297000D01*
X138768631Y-119297000D01*
X139366622Y-119049304D01*
X139824304Y-118591621D01*
X140072000Y-117993630D01*
X140072000Y-117701750D01*
X139665250Y-117295000D01*
X138120000Y-117295000D01*
X137470000Y-117295000D01*
X137145000Y-117295000D01*
X137145000Y-116545000D01*
X137470000Y-116545000D01*
X137470000Y-116170000D01*
X138120000Y-116170000D01*
X138120000Y-116545000D01*
X139665250Y-116545000D01*
X140072000Y-116138250D01*
X140072000Y-115846370D01*
X139824304Y-115248379D01*
X139585970Y-115010044D01*
X139594079Y-114970000D01*
X139594079Y-114766000D01*
X140185921Y-114766000D01*
X140185921Y-124366000D01*
X140264506Y-124783641D01*
X140511331Y-125167219D01*
X140887944Y-125424548D01*
X141335000Y-125515079D01*
X152035000Y-125515079D01*
X152452641Y-125436494D01*
X152836219Y-125189669D01*
X153093548Y-124813056D01*
X153184079Y-124366000D01*
X153184079Y-114766000D01*
X153105494Y-114348359D01*
X152858669Y-113964781D01*
X152482056Y-113707452D01*
X152035000Y-113616921D01*
X149164010Y-113616921D01*
X149085000Y-113600921D01*
X144085000Y-113600921D01*
X143999968Y-113616921D01*
X141335000Y-113616921D01*
X140917359Y-113695506D01*
X140533781Y-113942331D01*
X140276452Y-114318944D01*
X140185921Y-114766000D01*
X139594079Y-114766000D01*
X139594079Y-113470000D01*
X139515494Y-113052359D01*
X139422000Y-112907065D01*
X139422000Y-112197000D01*
X140255000Y-112197000D01*
X140877626Y-112073152D01*
X141405463Y-111720463D01*
X142454001Y-110671925D01*
X142835000Y-110749079D01*
X143735000Y-110749079D01*
X144149683Y-110671051D01*
X144535000Y-110749079D01*
X145083153Y-110749079D01*
X145313379Y-110979304D01*
X145911370Y-111227000D01*
X146053250Y-111227000D01*
X146460000Y-110820250D01*
X146460000Y-110096155D01*
X146493548Y-110047056D01*
X146584079Y-109600000D01*
X146584079Y-108090368D01*
X146612000Y-107950000D01*
X146612000Y-104980000D01*
X146488152Y-104357374D01*
X146135463Y-103829537D01*
X144922548Y-102616622D01*
X146662666Y-102616622D01*
X146758000Y-102847348D01*
X146758000Y-107950000D01*
X146785921Y-108090368D01*
X146785921Y-109600000D01*
X146864506Y-110017641D01*
X146910000Y-110088341D01*
X146910000Y-110820250D01*
X147316750Y-111227000D01*
X147458630Y-111227000D01*
X148056621Y-110979304D01*
X148286847Y-110749079D01*
X148835000Y-110749079D01*
X149249683Y-110671051D01*
X149635000Y-110749079D01*
X150535000Y-110749079D01*
X150952641Y-110670494D01*
X151046845Y-110609876D01*
X151127818Y-111016955D01*
X151426314Y-111463686D01*
X152141314Y-112178686D01*
X152588045Y-112477182D01*
X152661131Y-112491720D01*
X152831331Y-112756219D01*
X153207944Y-113013548D01*
X153655000Y-113104079D01*
X154955000Y-113104079D01*
X155372641Y-113025494D01*
X155756219Y-112778669D01*
X155890597Y-112582000D01*
X155983573Y-112582000D01*
X156031331Y-112656219D01*
X156407944Y-112913548D01*
X156855000Y-113004079D01*
X158105000Y-113004079D01*
X158522641Y-112925494D01*
X158906219Y-112678669D01*
X159037347Y-112486757D01*
X159181017Y-112630678D01*
X159889014Y-112924665D01*
X160655622Y-112925334D01*
X161364132Y-112632584D01*
X161906678Y-112090983D01*
X162200665Y-111382986D01*
X162201334Y-110616378D01*
X161908584Y-109907868D01*
X161366983Y-109365322D01*
X160658986Y-109071335D01*
X159892378Y-109070666D01*
X159555225Y-109209975D01*
X159325250Y-108980000D01*
X157792500Y-108980000D01*
X157792500Y-109205921D01*
X157167500Y-109205921D01*
X157167500Y-108980000D01*
X156855000Y-108980000D01*
X156855000Y-108230000D01*
X157167500Y-108230000D01*
X157167500Y-107855000D01*
X157792500Y-107855000D01*
X157792500Y-108230000D01*
X159325250Y-108230000D01*
X159732000Y-107823250D01*
X159732000Y-107662000D01*
X159853002Y-107662000D01*
X159853002Y-107641549D01*
X160401621Y-107414304D01*
X160859304Y-106956622D01*
X161107000Y-106358631D01*
X161107000Y-106129250D01*
X160700250Y-105722500D01*
X159105000Y-105722500D01*
X159105000Y-106035000D01*
X158355000Y-106035000D01*
X158355000Y-105722500D01*
X158129079Y-105722500D01*
X158129079Y-105097500D01*
X158355000Y-105097500D01*
X158355000Y-103564750D01*
X159105000Y-103564750D01*
X159105000Y-105097500D01*
X160700250Y-105097500D01*
X161107000Y-104690750D01*
X161107000Y-104461369D01*
X160859304Y-103863378D01*
X160401621Y-103405696D01*
X159803630Y-103158000D01*
X159511750Y-103158000D01*
X159105000Y-103564750D01*
X158355000Y-103564750D01*
X157948250Y-103158000D01*
X157857000Y-103158000D01*
X157857000Y-101620000D01*
X157733152Y-100997374D01*
X157651600Y-100875323D01*
X158082221Y-101305944D01*
X158244850Y-101143315D01*
X159319037Y-101378226D01*
X160453447Y-101174841D01*
X160556854Y-101132008D01*
X160670123Y-100618148D01*
X159375000Y-99323026D01*
X159015790Y-99682236D01*
X158117764Y-98784210D01*
X158476974Y-98425000D01*
X160273026Y-98425000D01*
X161568148Y-99720123D01*
X162082008Y-99606854D01*
X162328226Y-98480963D01*
X162124841Y-97346553D01*
X162082008Y-97243146D01*
X161568148Y-97129877D01*
X160273026Y-98425000D01*
X158476974Y-98425000D01*
X158117764Y-98065790D01*
X159015790Y-97167764D01*
X159375000Y-97526974D01*
X160670123Y-96231852D01*
X160556854Y-95717992D01*
X159430963Y-95471774D01*
X158296553Y-95675159D01*
X158237701Y-95699536D01*
X158082221Y-95544056D01*
X157433310Y-96192967D01*
X157292056Y-96096452D01*
X157202000Y-96078215D01*
X157202000Y-95288926D01*
X157518926Y-94972000D01*
X158750000Y-94972000D01*
X159372626Y-94848152D01*
X159900463Y-94495463D01*
X161745463Y-92650463D01*
X162098152Y-92122626D01*
X162222000Y-91500000D01*
X162222000Y-90981904D01*
X162282641Y-90970494D01*
X162666219Y-90723669D01*
X162923548Y-90347056D01*
X163014079Y-89900000D01*
X163014079Y-87900000D01*
X162935494Y-87482359D01*
X162688669Y-87098781D01*
X162584701Y-87027743D01*
X162667000Y-86614000D01*
X162667000Y-84886427D01*
X162741219Y-84838669D01*
X162998548Y-84462056D01*
X163089079Y-84015000D01*
X163089079Y-82515000D01*
X163010494Y-82097359D01*
X162893584Y-81915675D01*
X162998548Y-81762056D01*
X163089079Y-81315000D01*
X163089079Y-79815000D01*
X163010494Y-79397359D01*
X162763669Y-79013781D01*
X162667000Y-78947730D01*
X162667000Y-78052353D01*
X162690659Y-78037129D01*
X162947988Y-77660516D01*
X163038519Y-77213460D01*
X163038519Y-76267267D01*
X163268744Y-76037041D01*
X163516440Y-75439050D01*
X163516440Y-75222450D01*
X163109690Y-74815700D01*
X161589720Y-74815700D01*
X161589720Y-74865501D01*
X160990280Y-74865501D01*
X160990280Y-74815700D01*
X159470310Y-74815700D01*
X159063560Y-75222450D01*
X159063560Y-75439050D01*
X159311256Y-76037041D01*
X159541481Y-76267267D01*
X159541481Y-77213460D01*
X159620066Y-77631101D01*
X159866891Y-78014679D01*
X159913000Y-78046184D01*
X159913000Y-78943573D01*
X159838781Y-78991331D01*
X159581452Y-79367944D01*
X159490921Y-79815000D01*
X159490921Y-81315000D01*
X159569506Y-81732641D01*
X159686416Y-81914325D01*
X159581452Y-82067944D01*
X159490921Y-82515000D01*
X159490921Y-84015000D01*
X159569506Y-84432641D01*
X159816331Y-84816219D01*
X159913000Y-84882270D01*
X159913000Y-86043628D01*
X159621314Y-86335314D01*
X159343614Y-86750921D01*
X159325000Y-86750921D01*
X158907359Y-86829506D01*
X158523781Y-87076331D01*
X158266452Y-87452944D01*
X158175921Y-87900000D01*
X158175921Y-89900000D01*
X158254506Y-90317641D01*
X158501331Y-90701219D01*
X158852744Y-90941330D01*
X158076074Y-91718000D01*
X156845000Y-91718000D01*
X156222374Y-91841848D01*
X155694537Y-92194537D01*
X154424537Y-93464537D01*
X154071848Y-93992374D01*
X153948000Y-94615000D01*
X153948000Y-96073096D01*
X153887359Y-96084506D01*
X153503781Y-96331331D01*
X153246452Y-96707944D01*
X153155921Y-97155000D01*
X153155921Y-99695000D01*
X153234506Y-100112641D01*
X153481331Y-100496219D01*
X153636697Y-100602377D01*
X151726074Y-102513000D01*
X150516758Y-102513000D01*
X150517334Y-101853378D01*
X150224584Y-101144868D01*
X149682983Y-100602322D01*
X148974986Y-100308335D01*
X148208378Y-100307666D01*
X147499868Y-100600416D01*
X146957322Y-101142017D01*
X146663335Y-101850014D01*
X146662666Y-102616622D01*
X144922548Y-102616622D01*
X144660463Y-102354537D01*
X144132626Y-102001848D01*
X143510000Y-101878000D01*
X131445000Y-101878000D01*
X130822374Y-102001848D01*
X130294537Y-102354537D01*
X128389537Y-104259537D01*
X128036848Y-104787374D01*
X127913000Y-105410000D01*
X127913000Y-106233096D01*
X127852359Y-106244506D01*
X127468781Y-106491331D01*
X127211452Y-106867944D01*
X127193215Y-106958000D01*
X125689005Y-106958000D01*
X125664669Y-106920181D01*
X125288056Y-106662852D01*
X124841000Y-106572321D01*
X122809000Y-106572321D01*
X122391359Y-106650906D01*
X122007781Y-106897731D01*
X121750452Y-107274344D01*
X121659921Y-107721400D01*
X121659921Y-109448600D01*
X121705306Y-109689798D01*
X121478189Y-109970213D01*
X121317464Y-110314801D01*
X117602000Y-110314801D01*
X117602000Y-99144250D01*
X120198000Y-99144250D01*
X120198000Y-99373631D01*
X120445696Y-99971622D01*
X120903379Y-100429304D01*
X121501370Y-100677000D01*
X121793250Y-100677000D01*
X122200000Y-100270250D01*
X122200000Y-98737500D01*
X120604750Y-98737500D01*
X120198000Y-99144250D01*
X117602000Y-99144250D01*
X117602000Y-97476369D01*
X120198000Y-97476369D01*
X120198000Y-97705750D01*
X120604750Y-98112500D01*
X122200000Y-98112500D01*
X122200000Y-96579750D01*
X121793250Y-96173000D01*
X121501370Y-96173000D01*
X120903379Y-96420696D01*
X120445696Y-96878378D01*
X120198000Y-97476369D01*
X117602000Y-97476369D01*
X117602000Y-91384037D01*
X118341774Y-91384037D01*
X118545159Y-92518447D01*
X118587992Y-92621854D01*
X119101852Y-92735123D01*
X120396974Y-91440000D01*
X119101852Y-90144877D01*
X118587992Y-90258146D01*
X118341774Y-91384037D01*
X117602000Y-91384037D01*
X117602000Y-89246852D01*
X119999877Y-89246852D01*
X121295000Y-90541974D01*
X121654210Y-90182764D01*
X122552236Y-91080790D01*
X122193026Y-91440000D01*
X122552236Y-91799210D01*
X121654210Y-92697236D01*
X121295000Y-92338026D01*
X119999877Y-93633148D01*
X120113146Y-94147008D01*
X121239037Y-94393226D01*
X122373447Y-94189841D01*
X122432299Y-94165464D01*
X122587779Y-94320944D01*
X123236690Y-93672033D01*
X123377944Y-93768548D01*
X123468000Y-93786785D01*
X123468000Y-96173000D01*
X123356750Y-96173000D01*
X122950000Y-96579750D01*
X122950000Y-98112500D01*
X123175921Y-98112500D01*
X123175921Y-98737500D01*
X122950000Y-98737500D01*
X122950000Y-100270250D01*
X123356750Y-100677000D01*
X123648630Y-100677000D01*
X124246621Y-100429304D01*
X124476847Y-100199079D01*
X125825000Y-100199079D01*
X126242641Y-100120494D01*
X126626219Y-99873669D01*
X126883548Y-99497056D01*
X126974079Y-99050000D01*
X126974079Y-97946750D01*
X129818000Y-97946750D01*
X129818000Y-98113630D01*
X130065696Y-98711621D01*
X130523378Y-99169304D01*
X131121369Y-99417000D01*
X131275750Y-99417000D01*
X131682500Y-99010250D01*
X131682500Y-97946750D01*
X132068000Y-97946750D01*
X132068000Y-98113630D01*
X132157500Y-98329702D01*
X132157500Y-99010250D01*
X132564250Y-99417000D01*
X132718631Y-99417000D01*
X133045000Y-99281814D01*
X133371369Y-99417000D01*
X133525750Y-99417000D01*
X133932500Y-99010250D01*
X133932500Y-98329702D01*
X134022000Y-98113630D01*
X134022000Y-97946750D01*
X133932500Y-97857250D01*
X133932500Y-97540000D01*
X134407500Y-97540000D01*
X134407500Y-99010250D01*
X134814250Y-99417000D01*
X134968631Y-99417000D01*
X135566622Y-99169304D01*
X136024304Y-98711621D01*
X136272000Y-98113630D01*
X136272000Y-97946750D01*
X135865250Y-97540000D01*
X134407500Y-97540000D01*
X133932500Y-97540000D01*
X132157500Y-97540000D01*
X132157500Y-97857250D01*
X132068000Y-97946750D01*
X131682500Y-97946750D01*
X131682500Y-97540000D01*
X130224750Y-97540000D01*
X129818000Y-97946750D01*
X126974079Y-97946750D01*
X126974079Y-97800000D01*
X126895494Y-97382359D01*
X126722000Y-97112741D01*
X126722000Y-93791904D01*
X126782641Y-93780494D01*
X127166219Y-93533669D01*
X127423548Y-93157056D01*
X127514079Y-92710000D01*
X127514079Y-90170000D01*
X127435494Y-89752359D01*
X127188669Y-89368781D01*
X126812056Y-89111452D01*
X126722000Y-89093215D01*
X126722000Y-86995000D01*
X126598152Y-86372374D01*
X126245463Y-85844537D01*
X125847926Y-85447000D01*
X128778595Y-85447000D01*
X128897944Y-85528548D01*
X129345000Y-85619079D01*
X130845000Y-85619079D01*
X131262641Y-85540494D01*
X131444325Y-85423584D01*
X131597944Y-85528548D01*
X131902939Y-85590311D01*
X133011314Y-86698686D01*
X133458045Y-86997182D01*
X133985000Y-87102000D01*
X135387074Y-87102000D01*
X134739537Y-87749537D01*
X134386848Y-88277374D01*
X134263000Y-88900000D01*
X134263000Y-89340921D01*
X131445000Y-89340921D01*
X131027359Y-89419506D01*
X130643781Y-89666331D01*
X130386452Y-90042944D01*
X130295921Y-90490000D01*
X130295921Y-95390000D01*
X130335220Y-95598855D01*
X130065696Y-95868379D01*
X129818000Y-96466370D01*
X129818000Y-96633250D01*
X130224750Y-97040000D01*
X131682500Y-97040000D01*
X131682500Y-96790000D01*
X132157500Y-96790000D01*
X132157500Y-97040000D01*
X133932500Y-97040000D01*
X133932500Y-96790000D01*
X134407500Y-96790000D01*
X134407500Y-97040000D01*
X135865250Y-97040000D01*
X136272000Y-96633250D01*
X136272000Y-96466370D01*
X136024304Y-95868379D01*
X135752289Y-95596364D01*
X135794079Y-95390000D01*
X135794079Y-92491846D01*
X135867500Y-92418426D01*
X135945921Y-92496847D01*
X135945921Y-95010000D01*
X136024506Y-95427641D01*
X136271331Y-95811219D01*
X136647944Y-96068548D01*
X137095000Y-96159079D01*
X141095000Y-96159079D01*
X141512641Y-96080494D01*
X141896219Y-95833669D01*
X142153548Y-95457056D01*
X142244079Y-95010000D01*
X142244079Y-91680000D01*
X142165494Y-91262359D01*
X141918669Y-90878781D01*
X141542056Y-90621452D01*
X141095000Y-90530921D01*
X138581847Y-90530921D01*
X137570926Y-89520000D01*
X137833926Y-89257000D01*
X143002000Y-89257000D01*
X143624626Y-89133152D01*
X144152463Y-88780463D01*
X144505152Y-88252626D01*
X144549451Y-88029921D01*
X146261686Y-86317686D01*
X146560182Y-85870955D01*
X146665000Y-85344000D01*
X146665000Y-83820000D01*
X146560182Y-83293045D01*
X146261686Y-82846314D01*
X145939451Y-82524079D01*
X146040000Y-82524079D01*
X146457641Y-82445494D01*
X146841219Y-82198669D01*
X147034843Y-81915291D01*
X147063818Y-82060955D01*
X147362314Y-82507686D01*
X150261000Y-85406372D01*
X150261000Y-87443000D01*
X150365818Y-87969955D01*
X150664314Y-88416686D01*
X150675921Y-88428293D01*
X150675921Y-89900000D01*
X150754506Y-90317641D01*
X150891748Y-90530921D01*
X147195000Y-90530921D01*
X146777359Y-90609506D01*
X146393781Y-90856331D01*
X146136452Y-91232944D01*
X146045921Y-91680000D01*
X146045921Y-95010000D01*
X146124506Y-95427641D01*
X146371331Y-95811219D01*
X146747944Y-96068548D01*
X147195000Y-96159079D01*
X151195000Y-96159079D01*
X151612641Y-96080494D01*
X151996219Y-95833669D01*
X152253548Y-95457056D01*
X152344079Y-95010000D01*
X152344079Y-94431847D01*
X154245460Y-92530465D01*
X154245463Y-92530463D01*
X154598152Y-92002626D01*
X154654768Y-91718000D01*
X154722001Y-91380000D01*
X154722000Y-91379995D01*
X154722000Y-90981904D01*
X154782641Y-90970494D01*
X155166219Y-90723669D01*
X155423548Y-90347056D01*
X155514079Y-89900000D01*
X155514079Y-87900000D01*
X155435494Y-87482359D01*
X155188669Y-87098781D01*
X154812056Y-86841452D01*
X154662000Y-86811065D01*
X154662000Y-82996904D01*
X154722641Y-82985494D01*
X155106219Y-82738669D01*
X155363548Y-82362056D01*
X155454079Y-81915000D01*
X155454079Y-79375000D01*
X155375494Y-78957359D01*
X155266205Y-78787518D01*
X155915944Y-78137779D01*
X155753315Y-77975150D01*
X155988226Y-76900963D01*
X155784841Y-75766553D01*
X155742008Y-75663146D01*
X155228148Y-75549877D01*
X153933026Y-76845000D01*
X154292236Y-77204210D01*
X153394210Y-78102236D01*
X153035000Y-77743026D01*
X152675790Y-78102236D01*
X151777764Y-77204210D01*
X152136974Y-76845000D01*
X150841852Y-75549877D01*
X150327992Y-75663146D01*
X150081774Y-76789037D01*
X150285159Y-77923447D01*
X150309536Y-77982299D01*
X150154056Y-78137779D01*
X150802967Y-78786690D01*
X150706452Y-78927944D01*
X150615921Y-79375000D01*
X150615921Y-81866549D01*
X149713000Y-80963628D01*
X149713000Y-77978000D01*
X149608182Y-77451045D01*
X149309686Y-77004314D01*
X147277686Y-74972314D01*
X146830955Y-74673818D01*
X146720525Y-74651852D01*
X151739877Y-74651852D01*
X153035000Y-75946974D01*
X154330123Y-74651852D01*
X154216854Y-74137992D01*
X153090963Y-73891774D01*
X151956553Y-74095159D01*
X151853146Y-74137992D01*
X151739877Y-74651852D01*
X146720525Y-74651852D01*
X146304000Y-74569000D01*
X133858000Y-74569000D01*
X133331045Y-74673818D01*
X132884314Y-74972314D01*
X132185707Y-75670921D01*
X132045000Y-75670921D01*
X131627359Y-75749506D01*
X131445675Y-75866416D01*
X131292056Y-75761452D01*
X130845000Y-75670921D01*
X129345000Y-75670921D01*
X128927359Y-75749506D01*
X128543781Y-75996331D01*
X128286452Y-76372944D01*
X128195921Y-76820000D01*
X128195921Y-78120000D01*
X128274506Y-78537641D01*
X128521331Y-78921219D01*
X128718000Y-79055597D01*
X128718000Y-79295000D01*
X128822818Y-79821955D01*
X129121314Y-80268686D01*
X129497628Y-80645000D01*
X129121314Y-81021314D01*
X128822818Y-81468045D01*
X128718000Y-81995000D01*
X128718000Y-82193000D01*
X127125972Y-82193000D01*
X127140975Y-82182975D01*
X127394975Y-81928976D01*
X127671794Y-81514687D01*
X127683378Y-81456452D01*
X127728199Y-81231121D01*
X127738622Y-81226804D01*
X128196304Y-80769121D01*
X128443452Y-80172452D01*
X128444000Y-80173000D01*
X128444000Y-80171130D01*
X128443452Y-80172452D01*
X128037250Y-79766250D01*
X127889637Y-79766250D01*
X127887494Y-79754859D01*
X127790258Y-79603750D01*
X128037250Y-79603750D01*
X128443452Y-79197548D01*
X128444000Y-79198870D01*
X128444000Y-79197000D01*
X128443452Y-79197548D01*
X128196304Y-78600879D01*
X127738622Y-78143196D01*
X127140631Y-77895500D01*
X127061250Y-77895500D01*
X126654500Y-78302250D01*
X126654500Y-79023421D01*
X126329500Y-79023421D01*
X126329500Y-78302250D01*
X125922750Y-77895500D01*
X125843369Y-77895500D01*
X125833000Y-77899795D01*
X125833000Y-77616998D01*
X125580090Y-77616998D01*
X124978367Y-76793901D01*
X124097496Y-76257660D01*
X123698000Y-76553008D01*
X123698000Y-78232000D01*
X124206000Y-78232000D01*
X124206000Y-79114921D01*
X122174000Y-79114921D01*
X121756359Y-79193506D01*
X121671673Y-79248000D01*
X121012214Y-79248000D01*
X120707682Y-79647493D01*
X120793024Y-79853583D01*
X121039701Y-80191013D01*
X121024921Y-80264000D01*
X121024921Y-82296000D01*
X121103506Y-82713641D01*
X121350331Y-83097219D01*
X121563000Y-83242530D01*
X121563000Y-85090000D01*
X121686848Y-85712626D01*
X122039537Y-86240463D01*
X123468000Y-87668926D01*
X123468000Y-89088096D01*
X123407359Y-89099506D01*
X123237518Y-89208795D01*
X122587779Y-88559056D01*
X122425150Y-88721685D01*
X121350963Y-88486774D01*
X120216553Y-88690159D01*
X120113146Y-88732992D01*
X119999877Y-89246852D01*
X117602000Y-89246852D01*
X117602000Y-77832507D01*
X120707682Y-77832507D01*
X121012214Y-78232000D01*
X122682000Y-78232000D01*
X122682000Y-76553008D01*
X122282504Y-76257660D01*
X121401633Y-76793901D01*
X120793024Y-77626417D01*
X120707682Y-77832507D01*
X117602000Y-77832507D01*
X117602000Y-73592910D01*
X159063560Y-73592910D01*
X159063560Y-73809510D01*
X159470310Y-74216260D01*
X160990280Y-74216260D01*
X160990280Y-72696290D01*
X161589720Y-72696290D01*
X161589720Y-74216260D01*
X163109690Y-74216260D01*
X163516440Y-73809510D01*
X163516440Y-73592910D01*
X163268744Y-72994919D01*
X162811062Y-72537236D01*
X162213071Y-72289540D01*
X161996470Y-72289540D01*
X161589720Y-72696290D01*
X160990280Y-72696290D01*
X160583530Y-72289540D01*
X160366929Y-72289540D01*
X159768938Y-72537236D01*
X159311256Y-72994919D01*
X159063560Y-73592910D01*
X117602000Y-73592910D01*
X117602000Y-70612000D01*
X165608000Y-70612000D01*
X165608000Y-127508000D01*
X117602000Y-70612000D02*
X165608000Y-70612000D01*
X117602000Y-70815200D02*
X165608000Y-70815200D01*
X117602000Y-71018400D02*
X165608000Y-71018400D01*
X117602000Y-71221600D02*
X165608000Y-71221600D01*
X117602000Y-71424800D02*
X165608000Y-71424800D01*
X117602000Y-71628000D02*
X165608000Y-71628000D01*
X117602000Y-71831200D02*
X165608000Y-71831200D01*
X117602000Y-72034400D02*
X165608000Y-72034400D01*
X117602000Y-72237600D02*
X165608000Y-72237600D01*
X117602000Y-72440800D02*
X160001756Y-72440800D01*
X160734790Y-72440800D02*
X161845210Y-72440800D01*
X162578245Y-72440800D02*
X165608000Y-72440800D01*
X117602000Y-72644000D02*
X159662175Y-72644000D01*
X160937990Y-72644000D02*
X161642010Y-72644000D01*
X162917826Y-72644000D02*
X165608000Y-72644000D01*
X117602000Y-72847200D02*
X159458975Y-72847200D01*
X160990280Y-72847200D02*
X161589720Y-72847200D01*
X163121026Y-72847200D02*
X165608000Y-72847200D01*
X117602000Y-73050400D02*
X159288276Y-73050400D01*
X160990280Y-73050400D02*
X161589720Y-73050400D01*
X163291725Y-73050400D02*
X165608000Y-73050400D01*
X117602000Y-73253600D02*
X159204107Y-73253600D01*
X160990280Y-73253600D02*
X161589720Y-73253600D01*
X163375894Y-73253600D02*
X165608000Y-73253600D01*
X117602000Y-73456800D02*
X159119939Y-73456800D01*
X160990280Y-73456800D02*
X161589720Y-73456800D01*
X163460062Y-73456800D02*
X165608000Y-73456800D01*
X117602000Y-73660000D02*
X159063560Y-73660000D01*
X160990280Y-73660000D02*
X161589720Y-73660000D01*
X163516440Y-73660000D02*
X165608000Y-73660000D01*
X117602000Y-73863200D02*
X159117250Y-73863200D01*
X160990280Y-73863200D02*
X161589720Y-73863200D01*
X163462750Y-73863200D02*
X165608000Y-73863200D01*
X117602000Y-74066400D02*
X152116961Y-74066400D01*
X153889483Y-74066400D02*
X159320450Y-74066400D01*
X160990280Y-74066400D02*
X161589720Y-74066400D01*
X163259550Y-74066400D02*
X165608000Y-74066400D01*
X117602000Y-74269600D02*
X151824136Y-74269600D01*
X154245865Y-74269600D02*
X165608000Y-74269600D01*
X117602000Y-74472800D02*
X151779346Y-74472800D01*
X154290655Y-74472800D02*
X165608000Y-74472800D01*
X117602000Y-74676000D02*
X133327780Y-74676000D01*
X146834221Y-74676000D02*
X151764025Y-74676000D01*
X154305974Y-74676000D02*
X165608000Y-74676000D01*
X117602000Y-74879200D02*
X133023670Y-74879200D01*
X147138331Y-74879200D02*
X151967225Y-74879200D01*
X154102774Y-74879200D02*
X159406810Y-74879200D01*
X163173190Y-74879200D02*
X165608000Y-74879200D01*
X117602000Y-75082400D02*
X132774228Y-75082400D01*
X147387772Y-75082400D02*
X152170425Y-75082400D01*
X153899574Y-75082400D02*
X159203610Y-75082400D01*
X163376390Y-75082400D02*
X165608000Y-75082400D01*
X117602000Y-75285600D02*
X132571028Y-75285600D01*
X147590972Y-75285600D02*
X152373625Y-75285600D01*
X153696374Y-75285600D02*
X159063560Y-75285600D01*
X163516440Y-75285600D02*
X165608000Y-75285600D01*
X117602000Y-75488800D02*
X132367828Y-75488800D01*
X147794172Y-75488800D02*
X152576825Y-75488800D01*
X153493174Y-75488800D02*
X159084167Y-75488800D01*
X163495832Y-75488800D02*
X165608000Y-75488800D01*
X117602000Y-75692000D02*
X129232976Y-75692000D01*
X130949092Y-75692000D02*
X131932976Y-75692000D01*
X147997372Y-75692000D02*
X150321682Y-75692000D01*
X150983975Y-75692000D02*
X152780025Y-75692000D01*
X153289974Y-75692000D02*
X155086026Y-75692000D01*
X155753960Y-75692000D02*
X159168335Y-75692000D01*
X163411664Y-75692000D02*
X165608000Y-75692000D01*
X117602000Y-75895200D02*
X128700944Y-75895200D01*
X148200572Y-75895200D02*
X150277245Y-75895200D01*
X151187175Y-75895200D02*
X152983225Y-75895200D01*
X153086774Y-75895200D02*
X154882826Y-75895200D01*
X155807906Y-75895200D02*
X159252503Y-75895200D01*
X163327496Y-75895200D02*
X165608000Y-75895200D01*
X117602000Y-76098400D02*
X128474041Y-76098400D01*
X148403772Y-76098400D02*
X150232808Y-76098400D01*
X151390375Y-76098400D02*
X154679626Y-76098400D01*
X155844337Y-76098400D02*
X159372614Y-76098400D01*
X163207385Y-76098400D02*
X165608000Y-76098400D01*
X117602000Y-76301600D02*
X122210325Y-76301600D01*
X122341939Y-76301600D02*
X124038062Y-76301600D01*
X124169676Y-76301600D02*
X128335200Y-76301600D01*
X148606972Y-76301600D02*
X150188371Y-76301600D01*
X151593575Y-76301600D02*
X154476426Y-76301600D01*
X155880768Y-76301600D02*
X159541481Y-76301600D01*
X163038519Y-76301600D02*
X165608000Y-76301600D01*
X117602000Y-76504800D02*
X121876533Y-76504800D01*
X122616793Y-76504800D02*
X123763208Y-76504800D01*
X124503468Y-76504800D02*
X128259751Y-76504800D01*
X148810172Y-76504800D02*
X150143934Y-76504800D01*
X151796775Y-76504800D02*
X154273226Y-76504800D01*
X155917200Y-76504800D02*
X159541481Y-76504800D01*
X163038519Y-76504800D02*
X165608000Y-76504800D01*
X117602000Y-76708000D02*
X121542741Y-76708000D01*
X122682000Y-76708000D02*
X123698000Y-76708000D01*
X124837260Y-76708000D02*
X128218602Y-76708000D01*
X149013372Y-76708000D02*
X150099496Y-76708000D01*
X151999975Y-76708000D02*
X154070026Y-76708000D01*
X155953631Y-76708000D02*
X159541481Y-76708000D01*
X163038519Y-76708000D02*
X165608000Y-76708000D01*
X117602000Y-76911200D02*
X121315882Y-76911200D01*
X122682000Y-76911200D02*
X123698000Y-76911200D01*
X125064119Y-76911200D02*
X128195921Y-76911200D01*
X149216572Y-76911200D02*
X150103676Y-76911200D01*
X152070774Y-76911200D02*
X153999226Y-76911200D01*
X155985987Y-76911200D02*
X159541481Y-76911200D01*
X163038519Y-76911200D02*
X165608000Y-76911200D01*
X117602000Y-77114400D02*
X121167333Y-77114400D01*
X122682000Y-77114400D02*
X123698000Y-77114400D01*
X125212667Y-77114400D02*
X128195921Y-77114400D01*
X149383244Y-77114400D02*
X150140107Y-77114400D01*
X151867574Y-77114400D02*
X154202426Y-77114400D01*
X155941550Y-77114400D02*
X159541481Y-77114400D01*
X163038519Y-77114400D02*
X165608000Y-77114400D01*
X117602000Y-77317600D02*
X121018784Y-77317600D01*
X122682000Y-77317600D02*
X123698000Y-77317600D01*
X125361216Y-77317600D02*
X128195921Y-77317600D01*
X149519017Y-77317600D02*
X150176538Y-77317600D01*
X151891154Y-77317600D02*
X154178846Y-77317600D01*
X155897112Y-77317600D02*
X159561076Y-77317600D01*
X163017430Y-77317600D02*
X165608000Y-77317600D01*
X117602000Y-77520800D02*
X120870236Y-77520800D01*
X122682000Y-77520800D02*
X123698000Y-77520800D01*
X125509765Y-77520800D02*
X128195921Y-77520800D01*
X149622058Y-77520800D02*
X150212969Y-77520800D01*
X152094354Y-77520800D02*
X153975646Y-77520800D01*
X155852675Y-77520800D02*
X159599311Y-77520800D01*
X162976281Y-77520800D02*
X165608000Y-77520800D01*
X117602000Y-77724000D02*
X120752615Y-77724000D01*
X122682000Y-77724000D02*
X123698000Y-77724000D01*
X125833000Y-77724000D02*
X128195921Y-77724000D01*
X149662477Y-77724000D02*
X150249400Y-77724000D01*
X152297554Y-77724000D02*
X153772446Y-77724000D01*
X155808238Y-77724000D02*
X159679844Y-77724000D01*
X162904611Y-77724000D02*
X165608000Y-77724000D01*
X117602000Y-77927200D02*
X120779866Y-77927200D01*
X122682000Y-77927200D02*
X123698000Y-77927200D01*
X125954450Y-77927200D02*
X127029550Y-77927200D01*
X127217162Y-77927200D02*
X128195921Y-77927200D01*
X149702896Y-77927200D02*
X150286713Y-77927200D01*
X152500754Y-77927200D02*
X152850826Y-77927200D01*
X153219174Y-77927200D02*
X153569246Y-77927200D01*
X155763801Y-77927200D02*
X159810599Y-77927200D01*
X162765770Y-77927200D02*
X165608000Y-77927200D01*
X117602000Y-78130400D02*
X120934764Y-78130400D01*
X122682000Y-78130400D02*
X123698000Y-78130400D01*
X126157650Y-78130400D02*
X126826350Y-78130400D01*
X127707730Y-78130400D02*
X128197877Y-78130400D01*
X149713000Y-78130400D02*
X150161435Y-78130400D01*
X155908565Y-78130400D02*
X159913000Y-78130400D01*
X162667000Y-78130400D02*
X165608000Y-78130400D01*
X117602000Y-78333600D02*
X124206000Y-78333600D01*
X126329500Y-78333600D02*
X126654500Y-78333600D01*
X127929026Y-78333600D02*
X128236112Y-78333600D01*
X149713000Y-78333600D02*
X150349877Y-78333600D01*
X155720123Y-78333600D02*
X159913000Y-78333600D01*
X162667000Y-78333600D02*
X165608000Y-78333600D01*
X117602000Y-78536800D02*
X124206000Y-78536800D01*
X126329500Y-78536800D02*
X126654500Y-78536800D01*
X128132226Y-78536800D02*
X128274347Y-78536800D01*
X149713000Y-78536800D02*
X150553077Y-78536800D01*
X155516923Y-78536800D02*
X159913000Y-78536800D01*
X162667000Y-78536800D02*
X165608000Y-78536800D01*
X117602000Y-78740000D02*
X124206000Y-78740000D01*
X126329500Y-78740000D02*
X126654500Y-78740000D01*
X128253930Y-78740000D02*
X128404720Y-78740000D01*
X149713000Y-78740000D02*
X150756277Y-78740000D01*
X155313723Y-78740000D02*
X159913000Y-78740000D01*
X162667000Y-78740000D02*
X165608000Y-78740000D01*
X117602000Y-78943200D02*
X124206000Y-78943200D01*
X126329500Y-78943200D02*
X126654500Y-78943200D01*
X128338098Y-78943200D02*
X128553501Y-78943200D01*
X149713000Y-78943200D02*
X150703363Y-78943200D01*
X155366383Y-78943200D02*
X159913000Y-78943200D01*
X162667000Y-78943200D02*
X165608000Y-78943200D01*
X117602000Y-79146400D02*
X122006705Y-79146400D01*
X128422266Y-79146400D02*
X128718000Y-79146400D01*
X149713000Y-79146400D02*
X150662214Y-79146400D01*
X155411065Y-79146400D02*
X159732827Y-79146400D01*
X162849007Y-79146400D02*
X165608000Y-79146400D01*
X117602000Y-79349600D02*
X120934765Y-79349600D01*
X128291400Y-79349600D02*
X128728860Y-79349600D01*
X149713000Y-79349600D02*
X150621065Y-79349600D01*
X155449300Y-79349600D02*
X159593986Y-79349600D01*
X162979763Y-79349600D02*
X165608000Y-79349600D01*
X117602000Y-79552800D02*
X120779867Y-79552800D01*
X128088200Y-79552800D02*
X128769279Y-79552800D01*
X149713000Y-79552800D02*
X150615921Y-79552800D01*
X155454079Y-79552800D02*
X159544018Y-79552800D01*
X163039743Y-79552800D02*
X165608000Y-79552800D01*
X117602000Y-79756000D02*
X120752614Y-79756000D01*
X127887709Y-79756000D02*
X128809698Y-79756000D01*
X149713000Y-79756000D02*
X150615921Y-79756000D01*
X155454079Y-79756000D02*
X159502869Y-79756000D01*
X163077978Y-79756000D02*
X165608000Y-79756000D01*
X117602000Y-79959200D02*
X120870234Y-79959200D01*
X128230200Y-79959200D02*
X128914522Y-79959200D01*
X149713000Y-79959200D02*
X150615921Y-79959200D01*
X155454079Y-79959200D02*
X159490921Y-79959200D01*
X163089079Y-79959200D02*
X165608000Y-79959200D01*
X117602000Y-80162400D02*
X121018783Y-80162400D01*
X128433400Y-80162400D02*
X129050295Y-80162400D01*
X149713000Y-80162400D02*
X150615921Y-80162400D01*
X155454079Y-80162400D02*
X159490921Y-80162400D01*
X163089079Y-80162400D02*
X165608000Y-80162400D01*
X117602000Y-80365600D02*
X121024921Y-80365600D01*
X128363447Y-80365600D02*
X129218228Y-80365600D01*
X149713000Y-80365600D02*
X150615921Y-80365600D01*
X155454079Y-80365600D02*
X159490921Y-80365600D01*
X163089079Y-80365600D02*
X165608000Y-80365600D01*
X117602000Y-80568800D02*
X121024921Y-80568800D01*
X128279279Y-80568800D02*
X129421428Y-80568800D01*
X149713000Y-80568800D02*
X150615921Y-80568800D01*
X155454079Y-80568800D02*
X159490921Y-80568800D01*
X163089079Y-80568800D02*
X165608000Y-80568800D01*
X117602000Y-80772000D02*
X121024921Y-80772000D01*
X128193425Y-80772000D02*
X129370628Y-80772000D01*
X149713000Y-80772000D02*
X150615921Y-80772000D01*
X155454079Y-80772000D02*
X159490921Y-80772000D01*
X163089079Y-80772000D02*
X165608000Y-80772000D01*
X117602000Y-80975200D02*
X121024921Y-80975200D01*
X127990225Y-80975200D02*
X129167428Y-80975200D01*
X149724572Y-80975200D02*
X150615921Y-80975200D01*
X155454079Y-80975200D02*
X159490921Y-80975200D01*
X163089079Y-80975200D02*
X165608000Y-80975200D01*
X117602000Y-81178400D02*
X121024921Y-81178400D01*
X127787025Y-81178400D02*
X129016353Y-81178400D01*
X149927772Y-81178400D02*
X150615921Y-81178400D01*
X155454079Y-81178400D02*
X159490921Y-81178400D01*
X163089079Y-81178400D02*
X165608000Y-81178400D01*
X117602000Y-81381600D02*
X121024921Y-81381600D01*
X127698266Y-81381600D02*
X128880579Y-81381600D01*
X150130972Y-81381600D02*
X150615921Y-81381600D01*
X155454079Y-81381600D02*
X159503452Y-81381600D01*
X163075592Y-81381600D02*
X165608000Y-81381600D01*
X117602000Y-81584800D02*
X121024921Y-81584800D01*
X127624946Y-81584800D02*
X128799594Y-81584800D01*
X150334172Y-81584800D02*
X150615921Y-81584800D01*
X155454079Y-81584800D02*
X159541687Y-81584800D01*
X163034443Y-81584800D02*
X165608000Y-81584800D01*
X117602000Y-81788000D02*
X121024921Y-81788000D01*
X127489172Y-81788000D02*
X128759175Y-81788000D01*
X150537372Y-81788000D02*
X150615921Y-81788000D01*
X155454079Y-81788000D02*
X159605128Y-81788000D01*
X162980821Y-81788000D02*
X165608000Y-81788000D01*
X117602000Y-81991200D02*
X121024921Y-81991200D01*
X127332750Y-81991200D02*
X128718756Y-81991200D01*
X146982976Y-81991200D02*
X147049942Y-81991200D01*
X155438648Y-81991200D02*
X159633890Y-81991200D01*
X162942183Y-81991200D02*
X165608000Y-81991200D01*
X117602000Y-82194400D02*
X121024921Y-82194400D01*
X146844135Y-82194400D02*
X147152983Y-82194400D01*
X155397499Y-82194400D02*
X159555845Y-82194400D01*
X163028754Y-82194400D02*
X165608000Y-82194400D01*
X117602000Y-82397600D02*
X121044038Y-82397600D01*
X146532070Y-82397600D02*
X147288756Y-82397600D01*
X155339261Y-82397600D02*
X159514696Y-82397600D01*
X163066989Y-82397600D02*
X165608000Y-82397600D01*
X117602000Y-82600800D02*
X121082273Y-82600800D01*
X146016172Y-82600800D02*
X147455428Y-82600800D01*
X155200420Y-82600800D02*
X159490921Y-82600800D01*
X163089079Y-82600800D02*
X165608000Y-82600800D01*
X117602000Y-82804000D02*
X121161650Y-82804000D01*
X146219372Y-82804000D02*
X147658628Y-82804000D01*
X155004691Y-82804000D02*
X159490921Y-82804000D01*
X163089079Y-82804000D02*
X165608000Y-82804000D01*
X117602000Y-83007200D02*
X121292405Y-83007200D01*
X146369187Y-83007200D02*
X147861828Y-83007200D01*
X154662000Y-83007200D02*
X159490921Y-83007200D01*
X163089079Y-83007200D02*
X165608000Y-83007200D01*
X117602000Y-83210400D02*
X121515976Y-83210400D01*
X146504961Y-83210400D02*
X148065028Y-83210400D01*
X154662000Y-83210400D02*
X159490921Y-83210400D01*
X163089079Y-83210400D02*
X165608000Y-83210400D01*
X117602000Y-83413600D02*
X121563000Y-83413600D01*
X146584162Y-83413600D02*
X148268228Y-83413600D01*
X154662000Y-83413600D02*
X159490921Y-83413600D01*
X163089079Y-83413600D02*
X165608000Y-83413600D01*
X117602000Y-83616800D02*
X121563000Y-83616800D01*
X146624581Y-83616800D02*
X148471428Y-83616800D01*
X154662000Y-83616800D02*
X159490921Y-83616800D01*
X163089079Y-83616800D02*
X165608000Y-83616800D01*
X117602000Y-83820000D02*
X121563000Y-83820000D01*
X146665000Y-83820000D02*
X148674628Y-83820000D01*
X154662000Y-83820000D02*
X159490921Y-83820000D01*
X163089079Y-83820000D02*
X165608000Y-83820000D01*
X117602000Y-84023200D02*
X121563000Y-84023200D01*
X146665000Y-84023200D02*
X148877828Y-84023200D01*
X154662000Y-84023200D02*
X159492463Y-84023200D01*
X163087418Y-84023200D02*
X165608000Y-84023200D01*
X117602000Y-84226400D02*
X121563000Y-84226400D01*
X146665000Y-84226400D02*
X149081028Y-84226400D01*
X154662000Y-84226400D02*
X159530698Y-84226400D01*
X163046269Y-84226400D02*
X165608000Y-84226400D01*
X117602000Y-84429600D02*
X121563000Y-84429600D01*
X146665000Y-84429600D02*
X149284228Y-84429600D01*
X154662000Y-84429600D02*
X159568933Y-84429600D01*
X163005120Y-84429600D02*
X165608000Y-84429600D01*
X117602000Y-84632800D02*
X121563000Y-84632800D01*
X146665000Y-84632800D02*
X149487428Y-84632800D01*
X154662000Y-84632800D02*
X159698304Y-84632800D01*
X162881883Y-84632800D02*
X165608000Y-84632800D01*
X117602000Y-84836000D02*
X121563000Y-84836000D01*
X146665000Y-84836000D02*
X149690628Y-84836000D01*
X154662000Y-84836000D02*
X159845281Y-84836000D01*
X162743042Y-84836000D02*
X165608000Y-84836000D01*
X117602000Y-85039200D02*
X121563000Y-85039200D01*
X146665000Y-85039200D02*
X149893828Y-85039200D01*
X154662000Y-85039200D02*
X159913000Y-85039200D01*
X162667000Y-85039200D02*
X165608000Y-85039200D01*
X117602000Y-85242400D02*
X121593314Y-85242400D01*
X146665000Y-85242400D02*
X150097028Y-85242400D01*
X154662000Y-85242400D02*
X159913000Y-85242400D01*
X162667000Y-85242400D02*
X165608000Y-85242400D01*
X117602000Y-85445600D02*
X121633733Y-85445600D01*
X131410111Y-85445600D02*
X131476546Y-85445600D01*
X146644790Y-85445600D02*
X150261000Y-85445600D01*
X154662000Y-85445600D02*
X159913000Y-85445600D01*
X162667000Y-85445600D02*
X165608000Y-85445600D01*
X117602000Y-85648800D02*
X121674152Y-85648800D01*
X126049726Y-85648800D02*
X131961428Y-85648800D01*
X146604371Y-85648800D02*
X150261000Y-85648800D01*
X154662000Y-85648800D02*
X159913000Y-85648800D01*
X162667000Y-85648800D02*
X165608000Y-85648800D01*
X117602000Y-85852000D02*
X121779974Y-85852000D01*
X126250450Y-85852000D02*
X132164628Y-85852000D01*
X146563952Y-85852000D02*
X150261000Y-85852000D01*
X154662000Y-85852000D02*
X159913000Y-85852000D01*
X162667000Y-85852000D02*
X165608000Y-85852000D01*
X117602000Y-86055200D02*
X121915748Y-86055200D01*
X126386224Y-86055200D02*
X132367828Y-86055200D01*
X146437073Y-86055200D02*
X150261000Y-86055200D01*
X154662000Y-86055200D02*
X159901428Y-86055200D01*
X162667000Y-86055200D02*
X165608000Y-86055200D01*
X117602000Y-86258400D02*
X122057474Y-86258400D01*
X126521998Y-86258400D02*
X132571028Y-86258400D01*
X146301299Y-86258400D02*
X150261000Y-86258400D01*
X154662000Y-86258400D02*
X159698228Y-86258400D01*
X162667000Y-86258400D02*
X165608000Y-86258400D01*
X117602000Y-86461600D02*
X122260674Y-86461600D01*
X126615901Y-86461600D02*
X132774228Y-86461600D01*
X146117772Y-86461600D02*
X150261000Y-86461600D01*
X154662000Y-86461600D02*
X159536933Y-86461600D01*
X162667000Y-86461600D02*
X165608000Y-86461600D01*
X117602000Y-86664800D02*
X122463874Y-86664800D01*
X126656320Y-86664800D02*
X132977428Y-86664800D01*
X145914572Y-86664800D02*
X150261000Y-86664800D01*
X154662000Y-86664800D02*
X159401159Y-86664800D01*
X162656895Y-86664800D02*
X165608000Y-86664800D01*
X117602000Y-86868000D02*
X122667074Y-86868000D01*
X126696739Y-86868000D02*
X133264710Y-86868000D01*
X145711372Y-86868000D02*
X150261000Y-86868000D01*
X154850911Y-86868000D02*
X158847538Y-86868000D01*
X162616476Y-86868000D02*
X165608000Y-86868000D01*
X117602000Y-87071200D02*
X122870274Y-87071200D01*
X126722000Y-87071200D02*
X133830158Y-87071200D01*
X145508172Y-87071200D02*
X150261000Y-87071200D01*
X155148303Y-87071200D02*
X158531755Y-87071200D01*
X162648303Y-87071200D02*
X165608000Y-87071200D01*
X117602000Y-87274400D02*
X123073474Y-87274400D01*
X126722000Y-87274400D02*
X135214674Y-87274400D01*
X145304972Y-87274400D02*
X150261000Y-87274400D01*
X155301677Y-87274400D02*
X158388447Y-87274400D01*
X162801677Y-87274400D02*
X165608000Y-87274400D01*
X117602000Y-87477600D02*
X123276674Y-87477600D01*
X126722000Y-87477600D02*
X135011474Y-87477600D01*
X145101772Y-87477600D02*
X150267882Y-87477600D01*
X155432432Y-87477600D02*
X158261460Y-87477600D01*
X162932432Y-87477600D02*
X165608000Y-87477600D01*
X117602000Y-87680800D02*
X123468000Y-87680800D01*
X126722000Y-87680800D02*
X134808274Y-87680800D01*
X144898572Y-87680800D02*
X150308301Y-87680800D01*
X155472834Y-87680800D02*
X158220311Y-87680800D01*
X162972834Y-87680800D02*
X165608000Y-87680800D01*
X117602000Y-87884000D02*
X123468000Y-87884000D01*
X126722000Y-87884000D02*
X134649692Y-87884000D01*
X144695372Y-87884000D02*
X150348720Y-87884000D01*
X155511069Y-87884000D02*
X158179162Y-87884000D01*
X163011069Y-87884000D02*
X165608000Y-87884000D01*
X117602000Y-88087200D02*
X123468000Y-88087200D01*
X126722000Y-88087200D02*
X134513919Y-88087200D01*
X144538057Y-88087200D02*
X150444158Y-88087200D01*
X155514079Y-88087200D02*
X158175921Y-88087200D01*
X163014079Y-88087200D02*
X165608000Y-88087200D01*
X117602000Y-88290400D02*
X123468000Y-88290400D01*
X126722000Y-88290400D02*
X134384257Y-88290400D01*
X144479912Y-88290400D02*
X150579932Y-88290400D01*
X155514079Y-88290400D02*
X158175921Y-88290400D01*
X163014079Y-88290400D02*
X165608000Y-88290400D01*
X117602000Y-88493600D02*
X121312890Y-88493600D01*
X121382177Y-88493600D02*
X123468000Y-88493600D01*
X126722000Y-88493600D02*
X134343838Y-88493600D01*
X144344138Y-88493600D02*
X150675921Y-88493600D01*
X155514079Y-88493600D02*
X158175921Y-88493600D01*
X163014079Y-88493600D02*
X165608000Y-88493600D01*
X117602000Y-88696800D02*
X120200521Y-88696800D01*
X122311358Y-88696800D02*
X122450035Y-88696800D01*
X122725523Y-88696800D02*
X123468000Y-88696800D01*
X126722000Y-88696800D02*
X134303419Y-88696800D01*
X144208364Y-88696800D02*
X150675921Y-88696800D01*
X155514079Y-88696800D02*
X158175921Y-88696800D01*
X163014079Y-88696800D02*
X165608000Y-88696800D01*
X117602000Y-88900000D02*
X120076333Y-88900000D01*
X122928723Y-88900000D02*
X123468000Y-88900000D01*
X126722000Y-88900000D02*
X134263000Y-88900000D01*
X143973563Y-88900000D02*
X150675921Y-88900000D01*
X155514079Y-88900000D02*
X158175921Y-88900000D01*
X163014079Y-88900000D02*
X165608000Y-88900000D01*
X117602000Y-89103200D02*
X120031542Y-89103200D01*
X123131923Y-89103200D02*
X123401619Y-89103200D01*
X126771307Y-89103200D02*
X134263000Y-89103200D01*
X143669452Y-89103200D02*
X150675921Y-89103200D01*
X155514079Y-89103200D02*
X158175921Y-89103200D01*
X163014079Y-89103200D02*
X165608000Y-89103200D01*
X117602000Y-89306400D02*
X120059425Y-89306400D01*
X127097372Y-89306400D02*
X134263000Y-89306400D01*
X137784526Y-89306400D02*
X150675921Y-89306400D01*
X155514079Y-89306400D02*
X158175921Y-89306400D01*
X163014079Y-89306400D02*
X165608000Y-89306400D01*
X117602000Y-89509600D02*
X120262625Y-89509600D01*
X127279284Y-89509600D02*
X130887349Y-89509600D01*
X137581326Y-89509600D02*
X150675921Y-89509600D01*
X155514079Y-89509600D02*
X158175921Y-89509600D01*
X163014079Y-89509600D02*
X165608000Y-89509600D01*
X117602000Y-89712800D02*
X120465825Y-89712800D01*
X127410039Y-89712800D02*
X130612031Y-89712800D01*
X137763726Y-89712800D02*
X150675921Y-89712800D01*
X155514079Y-89712800D02*
X158175921Y-89712800D01*
X163014079Y-89712800D02*
X165608000Y-89712800D01*
X117602000Y-89916000D02*
X120669025Y-89916000D01*
X127466286Y-89916000D02*
X130473190Y-89916000D01*
X137966926Y-89916000D02*
X150678931Y-89916000D01*
X155510838Y-89916000D02*
X158178931Y-89916000D01*
X163010838Y-89916000D02*
X165608000Y-89916000D01*
X117602000Y-90119200D02*
X120872225Y-90119200D01*
X127504521Y-90119200D02*
X130371010Y-90119200D01*
X138170126Y-90119200D02*
X150717166Y-90119200D01*
X155469689Y-90119200D02*
X158217166Y-90119200D01*
X162969689Y-90119200D02*
X165608000Y-90119200D01*
X117602000Y-90322400D02*
X118573941Y-90322400D01*
X119279375Y-90322400D02*
X121075425Y-90322400D01*
X121514574Y-90322400D02*
X121793846Y-90322400D01*
X127514079Y-90322400D02*
X130329861Y-90322400D01*
X138373326Y-90322400D02*
X150757568Y-90322400D01*
X155428540Y-90322400D02*
X158257568Y-90322400D01*
X162928540Y-90322400D02*
X165608000Y-90322400D01*
X117602000Y-90525600D02*
X118529504Y-90525600D01*
X119482575Y-90525600D02*
X121278625Y-90525600D01*
X121311374Y-90525600D02*
X121997046Y-90525600D01*
X127514079Y-90525600D02*
X130295921Y-90525600D01*
X138576526Y-90525600D02*
X150888324Y-90525600D01*
X155301553Y-90525600D02*
X158388323Y-90525600D01*
X162801553Y-90525600D02*
X165608000Y-90525600D01*
X117602000Y-90728800D02*
X118485066Y-90728800D01*
X119685775Y-90728800D02*
X122200246Y-90728800D01*
X127514079Y-90728800D02*
X130295921Y-90728800D01*
X141699165Y-90728800D02*
X146591971Y-90728800D01*
X155158245Y-90728800D02*
X158541697Y-90728800D01*
X162658245Y-90728800D02*
X165608000Y-90728800D01*
X117602000Y-90932000D02*
X118440629Y-90932000D01*
X119888975Y-90932000D02*
X122403446Y-90932000D01*
X127514079Y-90932000D02*
X130295921Y-90932000D01*
X141952915Y-90932000D02*
X146342079Y-90932000D01*
X154842462Y-90932000D02*
X158839089Y-90932000D01*
X162342462Y-90932000D02*
X165608000Y-90932000D01*
X117602000Y-91135200D02*
X118396192Y-91135200D01*
X120092175Y-91135200D02*
X122497826Y-91135200D01*
X127514079Y-91135200D02*
X130295921Y-91135200D01*
X142083670Y-91135200D02*
X146203238Y-91135200D01*
X154722000Y-91135200D02*
X158658874Y-91135200D01*
X162222000Y-91135200D02*
X165608000Y-91135200D01*
X117602000Y-91338400D02*
X118351755Y-91338400D01*
X120295375Y-91338400D02*
X122294626Y-91338400D01*
X127514079Y-91338400D02*
X130295921Y-91338400D01*
X142179803Y-91338400D02*
X146115097Y-91338400D01*
X154722000Y-91338400D02*
X158455674Y-91338400D01*
X162222000Y-91338400D02*
X165608000Y-91338400D01*
X117602000Y-91541600D02*
X118370023Y-91541600D01*
X120295374Y-91541600D02*
X122294626Y-91541600D01*
X127514079Y-91541600D02*
X130295921Y-91541600D01*
X142218038Y-91541600D02*
X146073948Y-91541600D01*
X154689856Y-91541600D02*
X158252474Y-91541600D01*
X162213725Y-91541600D02*
X165608000Y-91541600D01*
X117602000Y-91744800D02*
X118406454Y-91744800D01*
X120092174Y-91744800D02*
X122497826Y-91744800D01*
X127514079Y-91744800D02*
X130295921Y-91744800D01*
X142244079Y-91744800D02*
X146045921Y-91744800D01*
X154649437Y-91744800D02*
X156710268Y-91744800D01*
X162173306Y-91744800D02*
X165608000Y-91744800D01*
X117602000Y-91948000D02*
X118442885Y-91948000D01*
X119888974Y-91948000D02*
X122403446Y-91948000D01*
X127514079Y-91948000D02*
X130295921Y-91948000D01*
X142244079Y-91948000D02*
X146045921Y-91948000D01*
X154609017Y-91948000D02*
X156063507Y-91948000D01*
X162132887Y-91948000D02*
X165608000Y-91948000D01*
X117602000Y-92151200D02*
X118479316Y-92151200D01*
X119685774Y-92151200D02*
X122200246Y-92151200D01*
X127514079Y-92151200D02*
X130295921Y-92151200D01*
X142244079Y-92151200D02*
X146045921Y-92151200D01*
X154498878Y-92151200D02*
X155759396Y-92151200D01*
X162079059Y-92151200D02*
X165608000Y-92151200D01*
X117602000Y-92354400D02*
X118515747Y-92354400D01*
X119482574Y-92354400D02*
X121278626Y-92354400D01*
X121311374Y-92354400D02*
X121997046Y-92354400D01*
X127514079Y-92354400D02*
X130295921Y-92354400D01*
X142244079Y-92354400D02*
X146045921Y-92354400D01*
X154363104Y-92354400D02*
X155534674Y-92354400D01*
X161943285Y-92354400D02*
X165608000Y-92354400D01*
X117602000Y-92557600D02*
X118561376Y-92557600D01*
X119279374Y-92557600D02*
X121075426Y-92557600D01*
X121514574Y-92557600D02*
X121793846Y-92557600D01*
X127514079Y-92557600D02*
X130295921Y-92557600D01*
X135794079Y-92557600D02*
X135945921Y-92557600D01*
X142244079Y-92557600D02*
X146045921Y-92557600D01*
X154218325Y-92557600D02*
X155331474Y-92557600D01*
X161807512Y-92557600D02*
X165608000Y-92557600D01*
X117602000Y-92760800D02*
X120872226Y-92760800D01*
X127503791Y-92760800D02*
X130295921Y-92760800D01*
X135794079Y-92760800D02*
X135945921Y-92760800D01*
X142244079Y-92760800D02*
X146045921Y-92760800D01*
X154015125Y-92760800D02*
X155128274Y-92760800D01*
X161635126Y-92760800D02*
X165608000Y-92760800D01*
X117602000Y-92964000D02*
X120669026Y-92964000D01*
X127462642Y-92964000D02*
X130295921Y-92964000D01*
X135794079Y-92964000D02*
X135945921Y-92964000D01*
X142244079Y-92964000D02*
X146045921Y-92964000D01*
X153811925Y-92964000D02*
X154925074Y-92964000D01*
X161431926Y-92964000D02*
X165608000Y-92964000D01*
X117602000Y-93167200D02*
X120465826Y-93167200D01*
X127416616Y-93167200D02*
X130295921Y-93167200D01*
X135794079Y-93167200D02*
X135945921Y-93167200D01*
X142244079Y-93167200D02*
X146045921Y-93167200D01*
X153608725Y-93167200D02*
X154721874Y-93167200D01*
X161228726Y-93167200D02*
X165608000Y-93167200D01*
X117602000Y-93370400D02*
X120262626Y-93370400D01*
X127277776Y-93370400D02*
X130295921Y-93370400D01*
X135794079Y-93370400D02*
X135945921Y-93370400D01*
X142244079Y-93370400D02*
X146045921Y-93370400D01*
X153405525Y-93370400D02*
X154518674Y-93370400D01*
X161025526Y-93370400D02*
X165608000Y-93370400D01*
X117602000Y-93573600D02*
X120059426Y-93573600D01*
X127104164Y-93573600D02*
X130295921Y-93573600D01*
X135794079Y-93573600D02*
X135945921Y-93573600D01*
X142244079Y-93573600D02*
X146045921Y-93573600D01*
X153202325Y-93573600D02*
X154351664Y-93573600D01*
X160822326Y-93573600D02*
X165608000Y-93573600D01*
X117602000Y-93776800D02*
X120031541Y-93776800D01*
X123131923Y-93776800D02*
X123418693Y-93776800D01*
X126788381Y-93776800D02*
X130295921Y-93776800D01*
X135794079Y-93776800D02*
X135945921Y-93776800D01*
X142244079Y-93776800D02*
X146045921Y-93776800D01*
X152999125Y-93776800D02*
X154215890Y-93776800D01*
X160619126Y-93776800D02*
X165608000Y-93776800D01*
X117602000Y-93980000D02*
X120076332Y-93980000D01*
X122928723Y-93980000D02*
X123468000Y-93980000D01*
X126722000Y-93980000D02*
X130295921Y-93980000D01*
X135794079Y-93980000D02*
X135945921Y-93980000D01*
X142244079Y-93980000D02*
X146045921Y-93980000D01*
X152795925Y-93980000D02*
X154080117Y-93980000D01*
X160415926Y-93980000D02*
X165608000Y-93980000D01*
X117602000Y-94183200D02*
X120278642Y-94183200D01*
X122389479Y-94183200D02*
X122450035Y-94183200D01*
X122725523Y-94183200D02*
X123468000Y-94183200D01*
X126722000Y-94183200D02*
X130295921Y-94183200D01*
X135794079Y-94183200D02*
X135945921Y-94183200D01*
X142244079Y-94183200D02*
X146045921Y-94183200D01*
X152592725Y-94183200D02*
X154033891Y-94183200D01*
X160212726Y-94183200D02*
X165608000Y-94183200D01*
X117602000Y-94386400D02*
X121207823Y-94386400D01*
X121277110Y-94386400D02*
X123468000Y-94386400D01*
X126722000Y-94386400D02*
X130295921Y-94386400D01*
X135794079Y-94386400D02*
X135945921Y-94386400D01*
X142244079Y-94386400D02*
X146045921Y-94386400D01*
X152389525Y-94386400D02*
X153993472Y-94386400D01*
X160009526Y-94386400D02*
X165608000Y-94386400D01*
X117602000Y-94589600D02*
X123468000Y-94589600D01*
X126722000Y-94589600D02*
X130295921Y-94589600D01*
X135794079Y-94589600D02*
X135945921Y-94589600D01*
X142244079Y-94589600D02*
X146045921Y-94589600D01*
X152344079Y-94589600D02*
X153953053Y-94589600D01*
X159759576Y-94589600D02*
X165608000Y-94589600D01*
X117602000Y-94792800D02*
X123468000Y-94792800D01*
X126722000Y-94792800D02*
X130295921Y-94792800D01*
X135794079Y-94792800D02*
X135945921Y-94792800D01*
X142244079Y-94792800D02*
X146045921Y-94792800D01*
X152344079Y-94792800D02*
X153948000Y-94792800D01*
X159455466Y-94792800D02*
X165608000Y-94792800D01*
X117602000Y-94996000D02*
X123468000Y-94996000D01*
X126722000Y-94996000D02*
X130295921Y-94996000D01*
X135794079Y-94996000D02*
X135945921Y-94996000D01*
X142244079Y-94996000D02*
X146045921Y-94996000D01*
X152344079Y-94996000D02*
X153948000Y-94996000D01*
X157494926Y-94996000D02*
X165608000Y-94996000D01*
X117602000Y-95199200D02*
X123468000Y-95199200D01*
X126722000Y-95199200D02*
X130295921Y-95199200D01*
X135794079Y-95199200D02*
X135981521Y-95199200D01*
X142205765Y-95199200D02*
X146081521Y-95199200D01*
X152305765Y-95199200D02*
X153948000Y-95199200D01*
X157291726Y-95199200D02*
X165608000Y-95199200D01*
X117602000Y-95402400D02*
X123468000Y-95402400D01*
X126722000Y-95402400D02*
X130298254Y-95402400D01*
X135791567Y-95402400D02*
X136019756Y-95402400D01*
X142164616Y-95402400D02*
X146119756Y-95402400D01*
X152264616Y-95402400D02*
X153948000Y-95402400D01*
X157202000Y-95402400D02*
X165608000Y-95402400D01*
X117602000Y-95605600D02*
X123468000Y-95605600D01*
X126722000Y-95605600D02*
X130328475Y-95605600D01*
X135761525Y-95605600D02*
X136139019Y-95605600D01*
X142052052Y-95605600D02*
X146239019Y-95605600D01*
X152152052Y-95605600D02*
X153948000Y-95605600D01*
X157202000Y-95605600D02*
X158020677Y-95605600D01*
X158143765Y-95605600D02*
X158684529Y-95605600D01*
X160042915Y-95605600D02*
X165608000Y-95605600D01*
X117602000Y-95808800D02*
X123468000Y-95808800D01*
X126722000Y-95808800D02*
X130125275Y-95808800D01*
X135964725Y-95808800D02*
X136269774Y-95808800D01*
X141913211Y-95808800D02*
X146369774Y-95808800D01*
X152013211Y-95808800D02*
X153948000Y-95808800D01*
X157202000Y-95808800D02*
X157817477Y-95808800D01*
X160576871Y-95808800D02*
X165608000Y-95808800D01*
X117602000Y-96012000D02*
X123468000Y-96012000D01*
X126722000Y-96012000D02*
X130006207Y-96012000D01*
X136083794Y-96012000D02*
X136565183Y-96012000D01*
X141619083Y-96012000D02*
X146665183Y-96012000D01*
X151719083Y-96012000D02*
X153948000Y-96012000D01*
X157202000Y-96012000D02*
X157614277Y-96012000D01*
X160621662Y-96012000D02*
X165608000Y-96012000D01*
X117602000Y-96215200D02*
X121399491Y-96215200D01*
X121835450Y-96215200D02*
X123314550Y-96215200D01*
X126722000Y-96215200D02*
X129922039Y-96215200D01*
X136167962Y-96215200D02*
X153684255Y-96215200D01*
X160666453Y-96215200D02*
X165608000Y-96215200D01*
X117602000Y-96418400D02*
X120908923Y-96418400D01*
X122038650Y-96418400D02*
X123111350Y-96418400D01*
X126722000Y-96418400D02*
X129837870Y-96418400D01*
X136252131Y-96418400D02*
X153444290Y-96418400D01*
X160483574Y-96418400D02*
X165608000Y-96418400D01*
X117602000Y-96621600D02*
X120702475Y-96621600D01*
X122200000Y-96621600D02*
X122950000Y-96621600D01*
X126722000Y-96621600D02*
X129818000Y-96621600D01*
X136272000Y-96621600D02*
X153305449Y-96621600D01*
X160280374Y-96621600D02*
X165608000Y-96621600D01*
X117602000Y-96824800D02*
X120499275Y-96824800D01*
X122200000Y-96824800D02*
X122950000Y-96824800D01*
X126722000Y-96824800D02*
X130009550Y-96824800D01*
X131682500Y-96824800D02*
X132157500Y-96824800D01*
X133932500Y-96824800D02*
X134407500Y-96824800D01*
X136080450Y-96824800D02*
X153222789Y-96824800D01*
X160077174Y-96824800D02*
X165608000Y-96824800D01*
X117602000Y-97028000D02*
X120383721Y-97028000D01*
X122200000Y-97028000D02*
X122950000Y-97028000D01*
X126722000Y-97028000D02*
X130212750Y-97028000D01*
X131682500Y-97028000D02*
X132157500Y-97028000D01*
X133932500Y-97028000D02*
X134407500Y-97028000D01*
X135877250Y-97028000D02*
X153181640Y-97028000D01*
X159873974Y-97028000D02*
X165608000Y-97028000D01*
X117602000Y-97231200D02*
X120299553Y-97231200D01*
X122200000Y-97231200D02*
X122950000Y-97231200D01*
X126798227Y-97231200D02*
X153155921Y-97231200D01*
X158952354Y-97231200D02*
X159079226Y-97231200D01*
X159670774Y-97231200D02*
X161466826Y-97231200D01*
X162027814Y-97231200D02*
X165608000Y-97231200D01*
X117602000Y-97434400D02*
X120215385Y-97434400D01*
X122200000Y-97434400D02*
X122950000Y-97434400D01*
X126905287Y-97434400D02*
X153155921Y-97434400D01*
X158749154Y-97434400D02*
X159282426Y-97434400D01*
X159467574Y-97434400D02*
X161263626Y-97434400D01*
X162140591Y-97434400D02*
X165608000Y-97434400D01*
X117602000Y-97637600D02*
X120198000Y-97637600D01*
X122200000Y-97637600D02*
X122950000Y-97637600D01*
X126943522Y-97637600D02*
X130127150Y-97637600D01*
X131682500Y-97637600D02*
X132157500Y-97637600D01*
X133932500Y-97637600D02*
X134407500Y-97637600D01*
X135962850Y-97637600D02*
X153155921Y-97637600D01*
X158545954Y-97637600D02*
X161060426Y-97637600D01*
X162177022Y-97637600D02*
X165608000Y-97637600D01*
X117602000Y-97840800D02*
X120333050Y-97840800D01*
X122200000Y-97840800D02*
X122950000Y-97840800D01*
X126974079Y-97840800D02*
X129923950Y-97840800D01*
X131682500Y-97840800D02*
X132157500Y-97840800D01*
X133932500Y-97840800D02*
X134407500Y-97840800D01*
X136166050Y-97840800D02*
X153155921Y-97840800D01*
X158342754Y-97840800D02*
X160857226Y-97840800D01*
X162213454Y-97840800D02*
X165608000Y-97840800D01*
X117602000Y-98044000D02*
X120536250Y-98044000D01*
X122200000Y-98044000D02*
X122950000Y-98044000D01*
X126974079Y-98044000D02*
X129818000Y-98044000D01*
X131682500Y-98044000D02*
X132068000Y-98044000D01*
X134022000Y-98044000D02*
X134407500Y-98044000D01*
X136272000Y-98044000D02*
X153155921Y-98044000D01*
X158139554Y-98044000D02*
X160654026Y-98044000D01*
X162249885Y-98044000D02*
X165608000Y-98044000D01*
X117602000Y-98247200D02*
X123175921Y-98247200D01*
X126974079Y-98247200D02*
X129873326Y-98247200D01*
X131682500Y-98247200D02*
X132123326Y-98247200D01*
X133966673Y-98247200D02*
X134407500Y-98247200D01*
X136216673Y-98247200D02*
X153155921Y-98247200D01*
X158299174Y-98247200D02*
X160450826Y-98247200D01*
X162286316Y-98247200D02*
X165608000Y-98247200D01*
X117602000Y-98450400D02*
X123175921Y-98450400D01*
X126974079Y-98450400D02*
X129957494Y-98450400D01*
X131682500Y-98450400D02*
X132157500Y-98450400D01*
X133932500Y-98450400D02*
X134407500Y-98450400D01*
X136132505Y-98450400D02*
X153155921Y-98450400D01*
X158451574Y-98450400D02*
X160298425Y-98450400D01*
X162322747Y-98450400D02*
X165608000Y-98450400D01*
X117602000Y-98653600D02*
X123175921Y-98653600D01*
X126974079Y-98653600D02*
X130041662Y-98653600D01*
X131682500Y-98653600D02*
X132157500Y-98653600D01*
X133932500Y-98653600D02*
X134407500Y-98653600D01*
X136048337Y-98653600D02*
X153155921Y-98653600D01*
X158248374Y-98653600D02*
X160501625Y-98653600D01*
X162290472Y-98653600D02*
X165608000Y-98653600D01*
X117602000Y-98856800D02*
X120485450Y-98856800D01*
X122200000Y-98856800D02*
X122950000Y-98856800D01*
X126974079Y-98856800D02*
X130210874Y-98856800D01*
X131682500Y-98856800D02*
X132157500Y-98856800D01*
X133932500Y-98856800D02*
X134407500Y-98856800D01*
X135879125Y-98856800D02*
X153155921Y-98856800D01*
X158190354Y-98856800D02*
X160704825Y-98856800D01*
X162246035Y-98856800D02*
X165608000Y-98856800D01*
X117602000Y-99060000D02*
X120282250Y-99060000D01*
X122200000Y-99060000D02*
X122950000Y-99060000D01*
X126972053Y-99060000D02*
X130414074Y-99060000D01*
X131632750Y-99060000D02*
X132207250Y-99060000D01*
X133882750Y-99060000D02*
X134457250Y-99060000D01*
X135675925Y-99060000D02*
X153155921Y-99060000D01*
X158393554Y-99060000D02*
X160908025Y-99060000D01*
X162201597Y-99060000D02*
X165608000Y-99060000D01*
X117602000Y-99263200D02*
X120198000Y-99263200D01*
X122200000Y-99263200D02*
X122950000Y-99263200D01*
X126930904Y-99263200D02*
X130750062Y-99263200D01*
X131429550Y-99263200D02*
X132410450Y-99263200D01*
X133679550Y-99263200D02*
X134660450Y-99263200D01*
X135339937Y-99263200D02*
X153155921Y-99263200D01*
X158596754Y-99263200D02*
X161111225Y-99263200D01*
X162157160Y-99263200D02*
X165608000Y-99263200D01*
X117602000Y-99466400D02*
X120236426Y-99466400D01*
X122200000Y-99466400D02*
X122950000Y-99466400D01*
X126889755Y-99466400D02*
X153155921Y-99466400D01*
X158799954Y-99466400D02*
X159231626Y-99466400D01*
X159518375Y-99466400D02*
X161314425Y-99466400D01*
X162112723Y-99466400D02*
X165608000Y-99466400D01*
X117602000Y-99669600D02*
X120320594Y-99669600D01*
X122200000Y-99669600D02*
X122950000Y-99669600D01*
X126765653Y-99669600D02*
X153155921Y-99669600D01*
X159003154Y-99669600D02*
X159028426Y-99669600D01*
X159721575Y-99669600D02*
X161517625Y-99669600D01*
X161797352Y-99669600D02*
X165608000Y-99669600D01*
X117602000Y-99872800D02*
X120404762Y-99872800D01*
X122200000Y-99872800D02*
X122950000Y-99872800D01*
X126626812Y-99872800D02*
X153189376Y-99872800D01*
X159924775Y-99872800D02*
X165608000Y-99872800D01*
X117602000Y-100076000D02*
X120550074Y-100076000D01*
X122200000Y-100076000D02*
X122950000Y-100076000D01*
X126311786Y-100076000D02*
X153227611Y-100076000D01*
X160127975Y-100076000D02*
X165608000Y-100076000D01*
X117602000Y-100279200D02*
X120753274Y-100279200D01*
X122191050Y-100279200D02*
X122958950Y-100279200D01*
X124396725Y-100279200D02*
X153341683Y-100279200D01*
X160331175Y-100279200D02*
X165608000Y-100279200D01*
X117602000Y-100482400D02*
X121031564Y-100482400D01*
X121987850Y-100482400D02*
X123162150Y-100482400D01*
X124118435Y-100482400D02*
X147785489Y-100482400D01*
X149394180Y-100482400D02*
X153472438Y-100482400D01*
X160534375Y-100482400D02*
X165608000Y-100482400D01*
X117602000Y-100685600D02*
X147414536Y-100685600D01*
X149766116Y-100685600D02*
X153553474Y-100685600D01*
X160655254Y-100685600D02*
X165608000Y-100685600D01*
X117602000Y-100888800D02*
X147210981Y-100888800D01*
X149968963Y-100888800D02*
X153350274Y-100888800D01*
X157660606Y-100888800D02*
X157665077Y-100888800D01*
X160610463Y-100888800D02*
X165608000Y-100888800D01*
X117602000Y-101092000D02*
X147007427Y-101092000D01*
X150171809Y-101092000D02*
X153147074Y-101092000D01*
X157751975Y-101092000D02*
X157868277Y-101092000D01*
X160565672Y-101092000D02*
X165608000Y-101092000D01*
X117602000Y-101295200D02*
X146893715Y-101295200D01*
X150286700Y-101295200D02*
X152943874Y-101295200D01*
X157792394Y-101295200D02*
X158071477Y-101295200D01*
X158092965Y-101295200D02*
X158939380Y-101295200D01*
X159782126Y-101295200D02*
X165608000Y-101295200D01*
X117602000Y-101498400D02*
X146809339Y-101498400D01*
X150370661Y-101498400D02*
X152740674Y-101498400D01*
X157832813Y-101498400D02*
X165608000Y-101498400D01*
X117602000Y-101701600D02*
X146724963Y-101701600D01*
X150454621Y-101701600D02*
X152537474Y-101701600D01*
X157857000Y-101701600D02*
X165608000Y-101701600D01*
X117602000Y-101904800D02*
X131310268Y-101904800D01*
X143644733Y-101904800D02*
X146663288Y-101904800D01*
X150517289Y-101904800D02*
X152334274Y-101904800D01*
X157857000Y-101904800D02*
X165608000Y-101904800D01*
X117602000Y-102108000D02*
X130663507Y-102108000D01*
X144291494Y-102108000D02*
X146663110Y-102108000D01*
X150517111Y-102108000D02*
X152131074Y-102108000D01*
X157857000Y-102108000D02*
X165608000Y-102108000D01*
X117602000Y-102311200D02*
X130359396Y-102311200D01*
X144595605Y-102311200D02*
X146662933Y-102311200D01*
X150516934Y-102311200D02*
X151927874Y-102311200D01*
X157857000Y-102311200D02*
X165608000Y-102311200D01*
X117602000Y-102514400D02*
X130134674Y-102514400D01*
X144820326Y-102514400D02*
X146662756Y-102514400D01*
X157857000Y-102514400D02*
X165608000Y-102514400D01*
X117602000Y-102717600D02*
X129931474Y-102717600D01*
X145023526Y-102717600D02*
X146704389Y-102717600D01*
X157857000Y-102717600D02*
X165608000Y-102717600D01*
X117602000Y-102920800D02*
X129728274Y-102920800D01*
X145226726Y-102920800D02*
X146758000Y-102920800D01*
X157857000Y-102920800D02*
X165608000Y-102920800D01*
X117602000Y-103124000D02*
X129525074Y-103124000D01*
X145429926Y-103124000D02*
X146758000Y-103124000D01*
X157857000Y-103124000D02*
X165608000Y-103124000D01*
X117602000Y-103327200D02*
X129321874Y-103327200D01*
X145633126Y-103327200D02*
X146758000Y-103327200D01*
X158117450Y-103327200D02*
X159342550Y-103327200D01*
X160212115Y-103327200D02*
X165608000Y-103327200D01*
X117602000Y-103530400D02*
X129118674Y-103530400D01*
X145836326Y-103530400D02*
X146758000Y-103530400D01*
X158320650Y-103530400D02*
X159139350Y-103530400D01*
X160526326Y-103530400D02*
X165608000Y-103530400D01*
X117602000Y-103733600D02*
X128915474Y-103733600D01*
X146039526Y-103733600D02*
X146758000Y-103733600D01*
X158355000Y-103733600D02*
X159105000Y-103733600D01*
X160729526Y-103733600D02*
X165608000Y-103733600D01*
X117602000Y-103936800D02*
X128712274Y-103936800D01*
X146207134Y-103936800D02*
X146758000Y-103936800D01*
X158355000Y-103936800D02*
X159105000Y-103936800D01*
X160889717Y-103936800D02*
X165608000Y-103936800D01*
X117602000Y-104140000D02*
X128509074Y-104140000D01*
X146342908Y-104140000D02*
X146758000Y-104140000D01*
X158355000Y-104140000D02*
X159105000Y-104140000D01*
X160973885Y-104140000D02*
X165608000Y-104140000D01*
X117602000Y-104343200D02*
X128333636Y-104343200D01*
X146478682Y-104343200D02*
X146758000Y-104343200D01*
X158355000Y-104343200D02*
X159105000Y-104343200D01*
X161058053Y-104343200D02*
X165608000Y-104343200D01*
X117602000Y-104546400D02*
X128197862Y-104546400D01*
X146525752Y-104546400D02*
X146758000Y-104546400D01*
X158355000Y-104546400D02*
X159105000Y-104546400D01*
X161107000Y-104546400D02*
X165608000Y-104546400D01*
X117602000Y-104749600D02*
X128062088Y-104749600D01*
X146566171Y-104749600D02*
X146758000Y-104749600D01*
X158355000Y-104749600D02*
X159105000Y-104749600D01*
X161048150Y-104749600D02*
X165608000Y-104749600D01*
X117602000Y-104952800D02*
X128003943Y-104952800D01*
X146606590Y-104952800D02*
X146758000Y-104952800D01*
X158355000Y-104952800D02*
X159105000Y-104952800D01*
X160844950Y-104952800D02*
X165608000Y-104952800D01*
X117602000Y-105156000D02*
X127963524Y-105156000D01*
X132094926Y-105156000D02*
X136168000Y-105156000D01*
X146612000Y-105156000D02*
X146758000Y-105156000D01*
X158129079Y-105156000D02*
X165608000Y-105156000D01*
X117602000Y-105359200D02*
X127923105Y-105359200D01*
X131891726Y-105359200D02*
X136168000Y-105359200D01*
X146612000Y-105359200D02*
X146758000Y-105359200D01*
X158129079Y-105359200D02*
X165608000Y-105359200D01*
X117602000Y-105562400D02*
X127913000Y-105562400D01*
X131688526Y-105562400D02*
X136168000Y-105562400D01*
X146612000Y-105562400D02*
X146758000Y-105562400D01*
X158129079Y-105562400D02*
X165608000Y-105562400D01*
X117602000Y-105765600D02*
X127913000Y-105765600D01*
X131485326Y-105765600D02*
X131985677Y-105765600D01*
X132108765Y-105765600D02*
X132649529Y-105765600D01*
X134007915Y-105765600D02*
X136168000Y-105765600D01*
X146612000Y-105765600D02*
X146758000Y-105765600D01*
X158355000Y-105765600D02*
X159105000Y-105765600D01*
X160743350Y-105765600D02*
X165608000Y-105765600D01*
X117602000Y-105968800D02*
X127913000Y-105968800D01*
X131282126Y-105968800D02*
X131782477Y-105968800D01*
X134541871Y-105968800D02*
X136168000Y-105968800D01*
X146612000Y-105968800D02*
X146758000Y-105968800D01*
X158355000Y-105968800D02*
X159105000Y-105968800D01*
X160946550Y-105968800D02*
X165608000Y-105968800D01*
X117602000Y-106172000D02*
X127913000Y-106172000D01*
X131167000Y-106172000D02*
X131579277Y-106172000D01*
X134586662Y-106172000D02*
X136168000Y-106172000D01*
X146612000Y-106172000D02*
X146758000Y-106172000D01*
X161107000Y-106172000D02*
X165608000Y-106172000D01*
X117602000Y-106375200D02*
X127649255Y-106375200D01*
X134631453Y-106375200D02*
X136168000Y-106375200D01*
X146612000Y-106375200D02*
X146758000Y-106375200D01*
X161100136Y-106375200D02*
X165608000Y-106375200D01*
X117602000Y-106578400D02*
X122776694Y-106578400D01*
X124871020Y-106578400D02*
X127409290Y-106578400D01*
X134448574Y-106578400D02*
X136151052Y-106578400D01*
X146612000Y-106578400D02*
X146758000Y-106578400D01*
X161015968Y-106578400D02*
X165608000Y-106578400D01*
X117602000Y-106781600D02*
X122188255Y-106781600D01*
X125461850Y-106781600D02*
X127270449Y-106781600D01*
X134245374Y-106781600D02*
X136064449Y-106781600D01*
X146612000Y-106781600D02*
X146758000Y-106781600D01*
X160931800Y-106781600D02*
X165608000Y-106781600D01*
X117602000Y-106984800D02*
X121948290Y-106984800D01*
X134042174Y-106984800D02*
X136023300Y-106984800D01*
X146612000Y-106984800D02*
X146758000Y-106984800D01*
X160831125Y-106984800D02*
X165608000Y-106984800D01*
X117602000Y-107188000D02*
X121809449Y-107188000D01*
X133838974Y-107188000D02*
X135995921Y-107188000D01*
X146612000Y-107188000D02*
X146758000Y-107188000D01*
X160627925Y-107188000D02*
X165608000Y-107188000D01*
X117602000Y-107391200D02*
X121726789Y-107391200D01*
X132917354Y-107391200D02*
X133044226Y-107391200D01*
X133635774Y-107391200D02*
X135431826Y-107391200D01*
X135992814Y-107391200D02*
X135995921Y-107391200D01*
X146612000Y-107391200D02*
X146758000Y-107391200D01*
X160424725Y-107391200D02*
X165608000Y-107391200D01*
X117602000Y-107594400D02*
X121685640Y-107594400D01*
X132714154Y-107594400D02*
X133247426Y-107594400D01*
X133432574Y-107594400D02*
X135228626Y-107594400D01*
X146612000Y-107594400D02*
X146758000Y-107594400D01*
X159966829Y-107594400D02*
X165608000Y-107594400D01*
X117602000Y-107797600D02*
X121659921Y-107797600D01*
X132510954Y-107797600D02*
X135025426Y-107797600D01*
X146612000Y-107797600D02*
X146758000Y-107797600D01*
X159732000Y-107797600D02*
X165608000Y-107797600D01*
X117602000Y-108000800D02*
X121659921Y-108000800D01*
X132307754Y-108000800D02*
X134822226Y-108000800D01*
X146601895Y-108000800D02*
X146768104Y-108000800D01*
X157167500Y-108000800D02*
X157792500Y-108000800D01*
X159554450Y-108000800D02*
X165608000Y-108000800D01*
X117602000Y-108204000D02*
X121659921Y-108204000D01*
X132104554Y-108204000D02*
X134619026Y-108204000D01*
X146584079Y-108204000D02*
X146785921Y-108204000D01*
X157167500Y-108204000D02*
X157792500Y-108204000D01*
X159351250Y-108204000D02*
X165608000Y-108204000D01*
X117602000Y-108407200D02*
X121659921Y-108407200D01*
X132264174Y-108407200D02*
X134415826Y-108407200D01*
X146584079Y-108407200D02*
X146785921Y-108407200D01*
X156855000Y-108407200D02*
X165608000Y-108407200D01*
X117602000Y-108610400D02*
X121659921Y-108610400D01*
X132416574Y-108610400D02*
X134263425Y-108610400D01*
X146584079Y-108610400D02*
X146785921Y-108610400D01*
X156855000Y-108610400D02*
X165608000Y-108610400D01*
X117602000Y-108813600D02*
X121659921Y-108813600D01*
X132213374Y-108813600D02*
X134466625Y-108813600D01*
X146584079Y-108813600D02*
X146785921Y-108813600D01*
X156855000Y-108813600D02*
X165608000Y-108813600D01*
X117602000Y-109016800D02*
X121659921Y-109016800D01*
X132155354Y-109016800D02*
X134669825Y-109016800D01*
X146584079Y-109016800D02*
X146785921Y-109016800D01*
X157167500Y-109016800D02*
X157792500Y-109016800D01*
X159362050Y-109016800D02*
X165608000Y-109016800D01*
X117602000Y-109220000D02*
X121659921Y-109220000D01*
X132358554Y-109220000D02*
X134873025Y-109220000D01*
X146584079Y-109220000D02*
X146785921Y-109220000D01*
X161017010Y-109220000D02*
X165608000Y-109220000D01*
X117602000Y-109423200D02*
X121659921Y-109423200D01*
X132561754Y-109423200D02*
X135076225Y-109423200D01*
X146584079Y-109423200D02*
X146785921Y-109423200D01*
X161424761Y-109423200D02*
X165608000Y-109423200D01*
X117602000Y-109626400D02*
X121693376Y-109626400D01*
X132764954Y-109626400D02*
X133196626Y-109626400D01*
X133483375Y-109626400D02*
X135279425Y-109626400D01*
X146578732Y-109626400D02*
X146790888Y-109626400D01*
X161627607Y-109626400D02*
X165608000Y-109626400D01*
X117602000Y-109829600D02*
X121592076Y-109829600D01*
X132968154Y-109829600D02*
X132993426Y-109829600D01*
X133686575Y-109829600D02*
X135482625Y-109829600D01*
X135762352Y-109829600D02*
X135995921Y-109829600D01*
X146537583Y-109829600D02*
X146829123Y-109829600D01*
X161830453Y-109829600D02*
X165608000Y-109829600D01*
X117602000Y-110032800D02*
X121448997Y-110032800D01*
X133889775Y-110032800D02*
X135995921Y-110032800D01*
X146496434Y-110032800D02*
X146874260Y-110032800D01*
X161960205Y-110032800D02*
X165608000Y-110032800D01*
X117602000Y-110236000D02*
X121354219Y-110236000D01*
X126295782Y-110236000D02*
X127192611Y-110236000D01*
X134092975Y-110236000D02*
X135995921Y-110236000D01*
X146460000Y-110236000D02*
X146910000Y-110236000D01*
X162044166Y-110236000D02*
X165608000Y-110236000D01*
X117602000Y-110439200D02*
X121421518Y-110439200D01*
X126228481Y-110439200D02*
X127278000Y-110439200D01*
X134296175Y-110439200D02*
X135995921Y-110439200D01*
X146460000Y-110439200D02*
X146910000Y-110439200D01*
X162128126Y-110439200D02*
X165608000Y-110439200D01*
X117602000Y-110642400D02*
X121591486Y-110642400D01*
X123317000Y-110642400D02*
X124333000Y-110642400D01*
X126058513Y-110642400D02*
X127278000Y-110642400D01*
X134499375Y-110642400D02*
X135995921Y-110642400D01*
X146460000Y-110642400D02*
X146910000Y-110642400D01*
X150996300Y-110642400D02*
X151053314Y-110642400D01*
X162201311Y-110642400D02*
X165608000Y-110642400D01*
X117602000Y-110845600D02*
X127278000Y-110845600D01*
X131351800Y-110845600D02*
X131426877Y-110845600D01*
X134620254Y-110845600D02*
X135995921Y-110845600D01*
X142280326Y-110845600D02*
X145179674Y-110845600D01*
X146434650Y-110845600D02*
X146935350Y-110845600D01*
X148190325Y-110845600D02*
X151093733Y-110845600D01*
X162201133Y-110845600D02*
X165608000Y-110845600D01*
X117602000Y-111048800D02*
X127278000Y-111048800D01*
X130532000Y-111048800D02*
X131630077Y-111048800D01*
X134575463Y-111048800D02*
X135995921Y-111048800D01*
X142077126Y-111048800D02*
X145481157Y-111048800D01*
X146231450Y-111048800D02*
X147138550Y-111048800D01*
X147888842Y-111048800D02*
X151149096Y-111048800D01*
X162200956Y-111048800D02*
X165608000Y-111048800D01*
X117602000Y-111252000D02*
X127278000Y-111252000D01*
X130532000Y-111252000D02*
X131833277Y-111252000D01*
X134530672Y-111252000D02*
X135995921Y-111252000D01*
X141873926Y-111252000D02*
X151284869Y-111252000D01*
X162200779Y-111252000D02*
X165608000Y-111252000D01*
X117602000Y-111455200D02*
X127278000Y-111455200D01*
X130532000Y-111455200D02*
X132036477Y-111455200D01*
X132057965Y-111455200D02*
X132904380Y-111455200D01*
X133747126Y-111455200D02*
X136021360Y-111455200D01*
X141670726Y-111455200D02*
X151420643Y-111455200D01*
X162170679Y-111455200D02*
X165608000Y-111455200D01*
X117602000Y-111658400D02*
X121548995Y-111658400D01*
X123317000Y-111658400D02*
X124333000Y-111658400D01*
X126101006Y-111658400D02*
X127278000Y-111658400D01*
X130532000Y-111658400D02*
X136059595Y-111658400D01*
X141467526Y-111658400D02*
X151621028Y-111658400D01*
X162086302Y-111658400D02*
X165608000Y-111658400D01*
X117602000Y-111861600D02*
X121379027Y-111861600D01*
X126270974Y-111861600D02*
X127278000Y-111861600D01*
X130532000Y-111861600D02*
X136154271Y-111861600D01*
X141194236Y-111861600D02*
X151824228Y-111861600D01*
X162001926Y-111861600D02*
X165608000Y-111861600D01*
X117602000Y-112064800D02*
X121377913Y-112064800D01*
X126272086Y-112064800D02*
X127278000Y-112064800D01*
X130532000Y-112064800D02*
X136168000Y-112064800D01*
X140890125Y-112064800D02*
X152027428Y-112064800D01*
X161917550Y-112064800D02*
X165608000Y-112064800D01*
X117602000Y-112268000D02*
X121138507Y-112268000D01*
X126177308Y-112268000D02*
X127278000Y-112268000D01*
X130532000Y-112268000D02*
X136168000Y-112268000D01*
X139422000Y-112268000D02*
X152274981Y-112268000D01*
X161729352Y-112268000D02*
X165608000Y-112268000D01*
X117602000Y-112471200D02*
X120834396Y-112471200D01*
X126016779Y-112471200D02*
X127278000Y-112471200D01*
X130532000Y-112471200D02*
X136168000Y-112471200D01*
X139422000Y-112471200D02*
X152579092Y-112471200D01*
X161525797Y-112471200D02*
X165608000Y-112471200D01*
X117602000Y-112674400D02*
X120609674Y-112674400D01*
X125852201Y-112674400D02*
X127278000Y-112674400D01*
X130532000Y-112674400D02*
X136168000Y-112674400D01*
X139422000Y-112674400D02*
X152778682Y-112674400D01*
X155827462Y-112674400D02*
X156057939Y-112674400D01*
X158909135Y-112674400D02*
X159286310Y-112674400D01*
X161262929Y-112674400D02*
X165608000Y-112674400D01*
X117602000Y-112877600D02*
X120406474Y-112877600D01*
X125841334Y-112877600D02*
X127278000Y-112877600D01*
X130532000Y-112877600D02*
X136168000Y-112877600D01*
X139422000Y-112877600D02*
X153008977Y-112877600D01*
X155602475Y-112877600D02*
X156355332Y-112877600D01*
X158597070Y-112877600D02*
X159775669Y-112877600D01*
X160771147Y-112877600D02*
X165608000Y-112877600D01*
X117602000Y-113080800D02*
X120203274Y-113080800D01*
X125893780Y-113080800D02*
X127278000Y-113080800D01*
X130532000Y-113080800D02*
X136074736Y-113080800D01*
X139520846Y-113080800D02*
X153540044Y-113080800D01*
X155078716Y-113080800D02*
X165608000Y-113080800D01*
X117602000Y-113284000D02*
X120000074Y-113284000D01*
X125934199Y-113284000D02*
X127278000Y-113284000D01*
X130532000Y-113284000D02*
X136033587Y-113284000D01*
X139559081Y-113284000D02*
X165608000Y-113284000D01*
X117602000Y-113487200D02*
X119796874Y-113487200D01*
X125974618Y-113487200D02*
X127278000Y-113487200D01*
X130532000Y-113487200D02*
X131847886Y-113487200D01*
X132717450Y-113487200D02*
X133942550Y-113487200D01*
X134812115Y-113487200D02*
X135995921Y-113487200D01*
X139594079Y-113487200D02*
X165608000Y-113487200D01*
X117602000Y-113690400D02*
X119593674Y-113690400D01*
X126004931Y-113690400D02*
X127278000Y-113690400D01*
X130596326Y-113690400D02*
X131533675Y-113690400D01*
X132920650Y-113690400D02*
X133739350Y-113690400D01*
X135126326Y-113690400D02*
X135995921Y-113690400D01*
X139594079Y-113690400D02*
X140944495Y-113690400D01*
X152397851Y-113690400D02*
X165608000Y-113690400D01*
X117602000Y-113893600D02*
X119426664Y-113893600D01*
X125964512Y-113893600D02*
X127278000Y-113893600D01*
X132955000Y-113893600D02*
X133705000Y-113893600D01*
X135329526Y-113893600D02*
X135995921Y-113893600D01*
X139594079Y-113893600D02*
X140609512Y-113893600D01*
X152754493Y-113893600D02*
X165608000Y-113893600D01*
X117602000Y-114096800D02*
X119290890Y-114096800D01*
X125924093Y-114096800D02*
X127278000Y-114096800D01*
X132955000Y-114096800D02*
X133705000Y-114096800D01*
X135489717Y-114096800D02*
X135995921Y-114096800D01*
X139594079Y-114096800D02*
X140428237Y-114096800D01*
X152943621Y-114096800D02*
X165608000Y-114096800D01*
X117602000Y-114300000D02*
X119155117Y-114300000D01*
X125883675Y-114300000D02*
X127278000Y-114300000D01*
X132955000Y-114300000D02*
X133705000Y-114300000D01*
X135573885Y-114300000D02*
X135995921Y-114300000D01*
X139594079Y-114300000D02*
X140289396Y-114300000D01*
X153074376Y-114300000D02*
X165608000Y-114300000D01*
X117602000Y-114503200D02*
X119108891Y-114503200D01*
X125807390Y-114503200D02*
X127318418Y-114503200D01*
X132955000Y-114503200D02*
X133705000Y-114503200D01*
X135707000Y-114503200D02*
X135995921Y-114503200D01*
X139594079Y-114503200D02*
X140239140Y-114503200D01*
X153134630Y-114503200D02*
X165608000Y-114503200D01*
X117602000Y-114706400D02*
X119068472Y-114706400D01*
X125671615Y-114706400D02*
X127358837Y-114706400D01*
X132955000Y-114706400D02*
X133705000Y-114706400D01*
X135707000Y-114706400D02*
X135995921Y-114706400D01*
X139594079Y-114706400D02*
X140197991Y-114706400D01*
X153172865Y-114706400D02*
X165608000Y-114706400D01*
X117602000Y-114909600D02*
X119028053Y-114909600D01*
X125535841Y-114909600D02*
X127399256Y-114909600D01*
X132955000Y-114909600D02*
X133705000Y-114909600D01*
X135707000Y-114909600D02*
X135995921Y-114909600D01*
X139594079Y-114909600D02*
X140185921Y-114909600D01*
X153184079Y-114909600D02*
X165608000Y-114909600D01*
X117602000Y-115112800D02*
X119023000Y-115112800D01*
X125637673Y-115112800D02*
X127528918Y-115112800D01*
X132955000Y-115112800D02*
X133705000Y-115112800D01*
X135707000Y-115112800D02*
X135901275Y-115112800D01*
X139688726Y-115112800D02*
X140185921Y-115112800D01*
X153184079Y-115112800D02*
X165608000Y-115112800D01*
X117602000Y-115316000D02*
X119023000Y-115316000D01*
X125773447Y-115316000D02*
X127664691Y-115316000D01*
X132729079Y-115316000D02*
X134080000Y-115316000D01*
X135707000Y-115316000D02*
X135737687Y-115316000D01*
X139852314Y-115316000D02*
X140185921Y-115316000D01*
X153184079Y-115316000D02*
X165608000Y-115316000D01*
X117602000Y-115519200D02*
X119023000Y-115519200D01*
X125873571Y-115519200D02*
X127823274Y-115519200D01*
X132729079Y-115519200D02*
X134080000Y-115519200D01*
X139936482Y-115519200D02*
X140185921Y-115519200D01*
X153184079Y-115519200D02*
X165608000Y-115519200D01*
X117602000Y-115722400D02*
X119023000Y-115722400D01*
X125913990Y-115722400D02*
X128026474Y-115722400D01*
X132729079Y-115722400D02*
X134080000Y-115722400D01*
X140020650Y-115722400D02*
X140185921Y-115722400D01*
X153184079Y-115722400D02*
X165608000Y-115722400D01*
X117602000Y-115925600D02*
X119023000Y-115925600D01*
X125954409Y-115925600D02*
X128229674Y-115925600D01*
X132955000Y-115925600D02*
X133705000Y-115925600D01*
X140072000Y-115925600D02*
X140185921Y-115925600D01*
X153184079Y-115925600D02*
X165608000Y-115925600D01*
X117602000Y-116128800D02*
X119023000Y-116128800D01*
X125994827Y-116128800D02*
X128432874Y-116128800D01*
X132955000Y-116128800D02*
X133705000Y-116128800D01*
X140072000Y-116128800D02*
X140185921Y-116128800D01*
X153184079Y-116128800D02*
X165608000Y-116128800D01*
X117602000Y-116332000D02*
X119023000Y-116332000D01*
X125984722Y-116332000D02*
X128636074Y-116332000D01*
X132955000Y-116332000D02*
X133705000Y-116332000D01*
X137470000Y-116332000D02*
X138120000Y-116332000D01*
X139878250Y-116332000D02*
X140185921Y-116332000D01*
X153184079Y-116332000D02*
X165608000Y-116332000D01*
X117602000Y-116535200D02*
X119023000Y-116535200D01*
X125944303Y-116535200D02*
X128839274Y-116535200D01*
X132955000Y-116535200D02*
X133705000Y-116535200D01*
X137470000Y-116535200D02*
X138120000Y-116535200D01*
X139675050Y-116535200D02*
X140185921Y-116535200D01*
X153184079Y-116535200D02*
X165608000Y-116535200D01*
X117602000Y-116738400D02*
X119023000Y-116738400D01*
X125903884Y-116738400D02*
X129051381Y-116738400D01*
X132955000Y-116738400D02*
X133705000Y-116738400D01*
X137145000Y-116738400D02*
X140185921Y-116738400D01*
X153184079Y-116738400D02*
X165608000Y-116738400D01*
X117602000Y-116941600D02*
X119023000Y-116941600D01*
X125863465Y-116941600D02*
X129221184Y-116941600D01*
X132955000Y-116941600D02*
X133705000Y-116941600D01*
X137145000Y-116941600D02*
X140185921Y-116941600D01*
X153184079Y-116941600D02*
X165608000Y-116941600D01*
X117602000Y-117144800D02*
X119023000Y-117144800D01*
X125739503Y-117144800D02*
X129473786Y-117144800D01*
X132955000Y-117144800D02*
X133705000Y-117144800D01*
X135431125Y-117144800D02*
X135518000Y-117144800D01*
X137145000Y-117144800D02*
X140185921Y-117144800D01*
X153184079Y-117144800D02*
X165608000Y-117144800D01*
X117602000Y-117348000D02*
X119023000Y-117348000D01*
X125603729Y-117348000D02*
X131432074Y-117348000D01*
X132955000Y-117348000D02*
X133705000Y-117348000D01*
X135227925Y-117348000D02*
X135518000Y-117348000D01*
X137470000Y-117348000D02*
X138120000Y-117348000D01*
X139718250Y-117348000D02*
X140185921Y-117348000D01*
X153184079Y-117348000D02*
X165608000Y-117348000D01*
X117602000Y-117551200D02*
X119023000Y-117551200D01*
X125467955Y-117551200D02*
X131635274Y-117551200D01*
X132819050Y-117551200D02*
X133840950Y-117551200D01*
X135024725Y-117551200D02*
X135518000Y-117551200D01*
X137470000Y-117551200D02*
X138120000Y-117551200D01*
X139921450Y-117551200D02*
X140185921Y-117551200D01*
X153184079Y-117551200D02*
X165608000Y-117551200D01*
X117602000Y-117754400D02*
X119023000Y-117754400D01*
X125466331Y-117754400D02*
X132093169Y-117754400D01*
X132615850Y-117754400D02*
X134044150Y-117754400D01*
X134566830Y-117754400D02*
X135518000Y-117754400D01*
X137470000Y-117754400D02*
X138120000Y-117754400D01*
X140072000Y-117754400D02*
X140185921Y-117754400D01*
X153184079Y-117754400D02*
X165608000Y-117754400D01*
X117602000Y-117957600D02*
X119023000Y-117957600D01*
X125955690Y-117957600D02*
X135518000Y-117957600D01*
X137470000Y-117957600D02*
X138120000Y-117957600D01*
X140072000Y-117957600D02*
X140185921Y-117957600D01*
X153184079Y-117957600D02*
X165608000Y-117957600D01*
X117602000Y-118160800D02*
X119023000Y-118160800D01*
X126220184Y-118160800D02*
X135587244Y-118160800D01*
X137470000Y-118160800D02*
X138120000Y-118160800D01*
X140002755Y-118160800D02*
X140185921Y-118160800D01*
X153184079Y-118160800D02*
X165608000Y-118160800D01*
X117602000Y-118364000D02*
X119023000Y-118364000D01*
X126423030Y-118364000D02*
X135671412Y-118364000D01*
X137470000Y-118364000D02*
X138120000Y-118364000D01*
X139918587Y-118364000D02*
X140185921Y-118364000D01*
X153184079Y-118364000D02*
X165608000Y-118364000D01*
X117602000Y-118567200D02*
X119023000Y-118567200D01*
X126612225Y-118567200D02*
X135755580Y-118567200D01*
X137470000Y-118567200D02*
X138120000Y-118567200D01*
X139834419Y-118567200D02*
X140185921Y-118567200D01*
X153184079Y-118567200D02*
X165608000Y-118567200D01*
X117602000Y-118770400D02*
X119023000Y-118770400D01*
X126696185Y-118770400D02*
X135944474Y-118770400D01*
X137470000Y-118770400D02*
X138120000Y-118770400D01*
X139645525Y-118770400D02*
X140185921Y-118770400D01*
X153184079Y-118770400D02*
X165608000Y-118770400D01*
X117602000Y-118973600D02*
X119023000Y-118973600D01*
X126780146Y-118973600D02*
X136147674Y-118973600D01*
X137386650Y-118973600D02*
X138203350Y-118973600D01*
X139442325Y-118973600D02*
X140185921Y-118973600D01*
X153184079Y-118973600D02*
X165608000Y-118973600D01*
X117602000Y-119176800D02*
X119023000Y-119176800D01*
X126864106Y-119176800D02*
X136531180Y-119176800D01*
X137183450Y-119176800D02*
X138406550Y-119176800D01*
X139058819Y-119176800D02*
X140185921Y-119176800D01*
X153184079Y-119176800D02*
X165608000Y-119176800D01*
X117602000Y-119380000D02*
X119023000Y-119380000D01*
X126895222Y-119380000D02*
X140185921Y-119380000D01*
X153184079Y-119380000D02*
X165608000Y-119380000D01*
X117602000Y-119583200D02*
X119063418Y-119583200D01*
X126895045Y-119583200D02*
X140185921Y-119583200D01*
X153184079Y-119583200D02*
X165608000Y-119583200D01*
X117602000Y-119786400D02*
X119103837Y-119786400D01*
X126894867Y-119786400D02*
X140185921Y-119786400D01*
X153184079Y-119786400D02*
X165608000Y-119786400D01*
X117602000Y-119989600D02*
X119144256Y-119989600D01*
X126894690Y-119989600D02*
X140185921Y-119989600D01*
X153184079Y-119989600D02*
X165608000Y-119989600D01*
X117602000Y-120192800D02*
X119273918Y-120192800D01*
X126822490Y-120192800D02*
X140185921Y-120192800D01*
X153184079Y-120192800D02*
X165608000Y-120192800D01*
X117602000Y-120396000D02*
X119409691Y-120396000D01*
X126738114Y-120396000D02*
X140185921Y-120396000D01*
X153184079Y-120396000D02*
X165608000Y-120396000D01*
X117602000Y-120599200D02*
X119568274Y-120599200D01*
X126653738Y-120599200D02*
X140185921Y-120599200D01*
X153184079Y-120599200D02*
X165608000Y-120599200D01*
X117602000Y-120802400D02*
X119771474Y-120802400D01*
X126525129Y-120802400D02*
X140185921Y-120802400D01*
X153184079Y-120802400D02*
X165608000Y-120802400D01*
X117602000Y-121005600D02*
X119974674Y-121005600D01*
X126321574Y-121005600D02*
X140185921Y-121005600D01*
X153184079Y-121005600D02*
X165608000Y-121005600D01*
X117602000Y-121208800D02*
X120177874Y-121208800D01*
X126251156Y-121208800D02*
X140185921Y-121208800D01*
X153184079Y-121208800D02*
X165608000Y-121208800D01*
X117602000Y-121412000D02*
X120381074Y-121412000D01*
X126335116Y-121412000D02*
X140185921Y-121412000D01*
X153184079Y-121412000D02*
X165608000Y-121412000D01*
X117602000Y-121615200D02*
X120584274Y-121615200D01*
X126387266Y-121615200D02*
X140185921Y-121615200D01*
X153184079Y-121615200D02*
X165608000Y-121615200D01*
X117602000Y-121818400D02*
X120787474Y-121818400D01*
X126387089Y-121818400D02*
X140185921Y-121818400D01*
X153184079Y-121818400D02*
X165608000Y-121818400D01*
X117602000Y-122021600D02*
X120990674Y-122021600D01*
X126386912Y-122021600D02*
X140185921Y-122021600D01*
X153184079Y-122021600D02*
X165608000Y-122021600D01*
X117602000Y-122224800D02*
X121193874Y-122224800D01*
X126386734Y-122224800D02*
X140185921Y-122224800D01*
X153184079Y-122224800D02*
X165608000Y-122224800D01*
X117602000Y-122428000D02*
X121397074Y-122428000D01*
X126335584Y-122428000D02*
X140185921Y-122428000D01*
X153184079Y-122428000D02*
X165608000Y-122428000D01*
X117602000Y-122631200D02*
X121600274Y-122631200D01*
X126251208Y-122631200D02*
X140185921Y-122631200D01*
X153184079Y-122631200D02*
X165608000Y-122631200D01*
X117602000Y-122834400D02*
X121803474Y-122834400D01*
X126166832Y-122834400D02*
X140185921Y-122834400D01*
X153184079Y-122834400D02*
X165608000Y-122834400D01*
X117602000Y-123037600D02*
X122006674Y-123037600D01*
X126068018Y-123037600D02*
X140185921Y-123037600D01*
X153184079Y-123037600D02*
X165608000Y-123037600D01*
X117602000Y-123240800D02*
X122294464Y-123240800D01*
X125864463Y-123240800D02*
X140185921Y-123240800D01*
X153184079Y-123240800D02*
X165608000Y-123240800D01*
X117602000Y-123444000D02*
X122672183Y-123444000D01*
X125660908Y-123444000D02*
X140185921Y-123444000D01*
X153184079Y-123444000D02*
X165608000Y-123444000D01*
X117602000Y-123647200D02*
X123594650Y-123647200D01*
X125325983Y-123647200D02*
X140185921Y-123647200D01*
X153184079Y-123647200D02*
X165608000Y-123647200D01*
X117602000Y-123850400D02*
X140185921Y-123850400D01*
X153184079Y-123850400D02*
X165608000Y-123850400D01*
X117602000Y-124053600D02*
X140185921Y-124053600D01*
X153184079Y-124053600D02*
X165608000Y-124053600D01*
X117602000Y-124256800D02*
X140185921Y-124256800D01*
X153184079Y-124256800D02*
X165608000Y-124256800D01*
X117602000Y-124460000D02*
X140203608Y-124460000D01*
X153165043Y-124460000D02*
X165608000Y-124460000D01*
X117602000Y-124663200D02*
X140241843Y-124663200D01*
X153123894Y-124663200D02*
X165608000Y-124663200D01*
X117602000Y-124866400D02*
X140317759Y-124866400D01*
X153057099Y-124866400D02*
X165608000Y-124866400D01*
X117602000Y-125069600D02*
X140448515Y-125069600D01*
X152918258Y-125069600D02*
X165608000Y-125069600D01*
X117602000Y-125272800D02*
X140665853Y-125272800D01*
X152707029Y-125272800D02*
X165608000Y-125272800D01*
X117602000Y-125476000D02*
X141142021Y-125476000D01*
X152242685Y-125476000D02*
X165608000Y-125476000D01*
X117602000Y-125679200D02*
X165608000Y-125679200D01*
X117602000Y-125882400D02*
X165608000Y-125882400D01*
X117602000Y-126085600D02*
X165608000Y-126085600D01*
X117602000Y-126288800D02*
X165608000Y-126288800D01*
X117602000Y-126492000D02*
X165608000Y-126492000D01*
X117602000Y-126695200D02*
X165608000Y-126695200D01*
X117602000Y-126898400D02*
X165608000Y-126898400D01*
X117602000Y-127101600D02*
X165608000Y-127101600D01*
X117602000Y-127304800D02*
X165608000Y-127304800D01*
X138395000Y-77323000D02*
X143163000Y-77323000D01*
X138395000Y-77526200D02*
X143345950Y-77526200D01*
X145102500Y-77526200D02*
X145727500Y-77526200D01*
X138395000Y-77729400D02*
X143549150Y-77729400D01*
X145102500Y-77729400D02*
X145727500Y-77729400D01*
X138770000Y-77932600D02*
X139520000Y-77932600D01*
X141252850Y-77932600D02*
X146040000Y-77932600D01*
X138770000Y-78135800D02*
X139520000Y-78135800D01*
X141456050Y-78135800D02*
X142519300Y-78135800D01*
X142920768Y-78135800D02*
X146040000Y-78135800D01*
X138770000Y-78339000D02*
X139520000Y-78339000D01*
X141522000Y-78339000D02*
X142316100Y-78339000D01*
X143411336Y-78339000D02*
X146040000Y-78339000D01*
X138770000Y-78542200D02*
X139520000Y-78542200D01*
X141481171Y-78542200D02*
X142144750Y-78542200D01*
X145102500Y-78542200D02*
X145727500Y-78542200D01*
X138770000Y-78745400D02*
X139520000Y-78745400D01*
X141397003Y-78745400D02*
X142144750Y-78745400D01*
X138770000Y-78948600D02*
X139520000Y-78948600D01*
X141395450Y-78948600D02*
X142144750Y-78948600D01*
X138770000Y-79151800D02*
X139499495Y-79151800D01*
X141395450Y-79151800D02*
X142144750Y-79151800D01*
X138755250Y-79355000D02*
X139415327Y-79355000D01*
X141395450Y-79355000D02*
X142144750Y-79355000D01*
X138552050Y-79558200D02*
X139488450Y-79558200D01*
X141395450Y-79558200D02*
X142144750Y-79558200D01*
X138258279Y-79761400D02*
X139691650Y-79761400D01*
X141395450Y-79761400D02*
X142144750Y-79761400D01*
X138258279Y-79964600D02*
X140549554Y-79964600D01*
X138258279Y-80167800D02*
X139782450Y-80167800D01*
X138241754Y-80371000D02*
X139579250Y-80371000D01*
X138200605Y-80574200D02*
X139393800Y-80574200D01*
X138216282Y-80777400D02*
X139461883Y-80777400D01*
X138254516Y-80980600D02*
X139546052Y-80980600D01*
X138258279Y-81183800D02*
X139630220Y-81183800D01*
X138258279Y-81387000D02*
X139817474Y-81387000D01*
X138252041Y-81590200D02*
X139877516Y-81590200D01*
X138210893Y-81793400D02*
X139915751Y-81793400D01*
X138206723Y-81996600D02*
X139927208Y-81996600D01*
X138244958Y-82199800D02*
X139886059Y-82199800D01*
X138258279Y-82403000D02*
X139871721Y-82403000D01*
X138258279Y-82606200D02*
X139871721Y-82606200D01*
X138258279Y-82809400D02*
X139871721Y-82809400D01*
X138221180Y-83012600D02*
X139906192Y-83012600D01*
X138197164Y-83215800D02*
X139937495Y-83215800D01*
X138235399Y-83419000D02*
X139896346Y-83419000D01*
X138258279Y-83622200D02*
X139871721Y-83622200D01*
X138258279Y-83825400D02*
X139871721Y-83825400D01*
X138258279Y-84028600D02*
X139871721Y-84028600D01*
X138231467Y-84231800D02*
X139896634Y-84231800D01*
X143163000Y-77343250D02*
X143569750Y-77750000D01*
X145102500Y-77750000D01*
X145102500Y-77375000D01*
X145727500Y-77375000D01*
X145727500Y-77750000D01*
X146040000Y-77750000D01*
X146040000Y-78500000D01*
X145727500Y-78500000D01*
X145727500Y-78725921D01*
X145102500Y-78725921D01*
X145102500Y-78500000D01*
X143589725Y-78500000D01*
X143441021Y-78351296D01*
X142843030Y-78103600D01*
X142551500Y-78103600D01*
X142144750Y-78510350D01*
X142144750Y-79851521D01*
X141395450Y-79851521D01*
X141395450Y-78749150D01*
X141522000Y-78443631D01*
X141522000Y-78201750D01*
X141115250Y-77795000D01*
X139520000Y-77795000D01*
X139520000Y-79102295D01*
X139393800Y-79406969D01*
X139393800Y-79463550D01*
X139800550Y-79870300D01*
X140920999Y-79870300D01*
X140603159Y-79930106D01*
X140261899Y-80149700D01*
X139800550Y-80149700D01*
X139393800Y-80556450D01*
X139393800Y-80613031D01*
X139641496Y-81211022D01*
X139871721Y-81441246D01*
X139871721Y-81559400D01*
X139941088Y-81928054D01*
X139871721Y-82270600D01*
X139871721Y-82829400D01*
X139941088Y-83198054D01*
X139871721Y-83540600D01*
X139871721Y-84099400D01*
X139918499Y-84348000D01*
X138207936Y-84348000D01*
X138258279Y-84099400D01*
X138258279Y-83540600D01*
X138188912Y-83171946D01*
X138258279Y-82829400D01*
X138258279Y-82270600D01*
X138188912Y-81901946D01*
X138258279Y-81559400D01*
X138258279Y-81000600D01*
X138188912Y-80631946D01*
X138258279Y-80289400D01*
X138258279Y-79747000D01*
X138363250Y-79747000D01*
X138770000Y-79340250D01*
X138770000Y-77795000D01*
X138395000Y-77795000D01*
X138395000Y-77323000D01*
X143163000Y-77323000D01*
X143163000Y-77343250D01*
M02*
