M48
;DRILL file {KiCad 4.0.5+dfsg1-4~bpo8+1} date Tue Dec  5 21:37:14 2017
;FORMAT={-:-/ absolute / metric / decimal}
FMAT,2
METRIC,TZ
T1C0.400
T2C0.800
T3C1.016
%
G90
G05
M71
T1
X124.46Y-121.92
X124.968Y-119.634
X142.875Y-77.47
X143.002Y-72.39
X148.59Y-102.235
X160.274Y-110.998
T2
X121.295Y-91.44
X125.095Y-91.44
X129.54Y-108.585
X133.34Y-108.585
X153.035Y-76.845
X153.035Y-80.645
X155.575Y-98.425
X159.375Y-98.425
T3
X123.19Y-78.74
X123.19Y-81.28
X123.825Y-108.585
X123.825Y-111.125
X123.825Y-113.665
X123.825Y-116.205
T0
M30
